M48
;Layer_Color=9474304
;FILE_FORMAT=2:5
INCH,LZ
;TYPE=PLATED
T1F00S00C0.00787
T2F00S00C0.03937
T3F00S00C0.10236
%
T01
X-0010972Y0003177
Y0011051
Y0018925
Y0026799
Y0034673
X-0003098
Y0026799
Y0018925
Y0011051
X0004776
Y0003177
X001265
Y0011051
Y0018925
X0004776
Y0026799
Y0034673
X001265
Y0026799
Y0050421
Y0058295
X0005551Y0060748
X-0004449
X-0001949Y0071457
X-0011949
X0008051
X0027264
X0037264
X0047264
X0057264
X0054764Y0060748
X0059894Y0058295
Y0050421
Y0042547
X005202
Y0034673
Y0026799
Y0018925
Y0011051
Y0003177
X0059894
Y0011051
Y0018925
Y0026799
Y0034673
X0067768
Y0026799
Y0018925
Y0011051
Y0003177
X0042717Y0005906
X0039567Y0003937
X0036417Y0005906
X0033268Y0003937
X0030118Y0005906
X0026969Y0003937
X0023819Y0005906
X0020669Y0003937
X0020524Y0050421
X0024764Y0060748
X0034764
X0044764
X0067768Y0058295
Y0050421
Y0042547
X-0010972Y0050421
X-0018846
X-002672
X-0034594
Y0042547
Y0034673
Y0026799
Y0018925
Y0011051
Y0003177
X-002672
X-0020276Y0003937
X-0018846Y0011051
Y0018925
X-002672
Y0026799
Y0034673
Y0042547
X-0018846
Y0034673
Y0026799
X-0014449Y0060748
X-0024449
X-0034594Y0058295
X-0021949Y0071457
Y009626
X-0019291Y0140748
Y0158465
X-0009449
X0000394
X0010236
X0020079
X0029921
X0039764
X0049606
Y0140748
X0039764
X0029921
X0020079
X0010236
X0000394
X-0009449
X-0011949Y009626
X-0001949
X0008051
X0027264
X0037264
X0047264
X0057264
T02
X-0029134Y0200787
X-0019291
X-0009449
X0000394
X0010236
X0020079
X0029921
X0039764
X0049606
X0059449
T03
X-003248Y0176378
X0062795
M30
