M48
;Layer_Color=9474304
;FILE_FORMAT=2:5
INCH,LZ
;TYPE=PLATED
T01F00S00C0.00787
T02F00S00C0.03937
T03F00S00C0.10236
%
T01
X0020669Y0
X0023819
X0026969
X0030118
X0033268
X0036417
X0039567
X0042717
X0046372Y0015748
X00525Y0017717
X0058858Y0015748
X00705Y0017717
Y0005906
Y0029528
Y0041339
Y005315
X0061358Y0045
X0056
X00535Y0039
X00495Y0041339
X00395
X0032224Y0045
X0026831
X0024331Y0039
X002Y0041339
Y005315
X00395
X00495
X0040129Y0017717
X0033886Y0015748
X0027759Y0017717
X00214Y0015748
X0015388Y0017717
X0008914Y0015748
X0003018Y0017717
X-0003571Y0015748
X-0009353Y0017717
X-0016057Y0015748
X-0021724Y0017717
X-0028543Y0015748
X-00405Y0017717
Y0041339
X-0034006Y0039
X-0031506Y0045
X-0026043
X-00195Y0041339
X-0009
X-0004837Y0039
X-0002337Y0045
X0003091
X001Y0041339
Y005315
X-0009
X-00195
X-00405
X-0020276Y0
X-0024006Y0133858
X-0033543
X-0004409
X0005163
X0024724
X0034331
X0053858
X00635
T02
X-0029161Y0200787
X-0019319
X-0009476
X0000366
X0010209
X0020051
X0029894
X0039736
X0049579
X0059421
T03
X-003248Y0176378
X0062795
M30
