M48
;Layer_Color=9474304
;FILE_FORMAT=2:5
INCH,LZ
;TYPE=PLATED
T01F00S00C0.00787
T02F00S00C0.03937
T03F00S00C0.10236
%
T01
X0005512Y0012795
X0008661
X0011811
X0014961
X001811
X002126
X0024409
X0027559
Y0029528
X0023622Y003248
X0019685Y0029528
X0015748Y003248
X0011811Y0029528
X0007874Y003248
X0003937Y0029528
X0Y003248
X0007874Y0043031
X0004921Y0051181
X0011457Y0053937
X0014764Y0051181
X0018071Y0053937
X0021457
X0024606Y0051181
X0023622Y0043031
X0031496Y003248
X0035433Y0051181
X0041969Y0053937
X0045276Y0051181
X0048583Y0053937
X0051968
X0055118Y0051181
Y0035433
Y0019685
Y0066929
X0035433
X0024606
X0004921
X-0004921
Y0051181
X-0008071Y0053937
X-0011457
X-0014764Y0051181
X-0018071Y0053937
X-0024606Y0051181
X-0023622Y0043031
Y003248
X-0019685Y0029528
X-0015748Y003248
X-0011811Y0029528
X-0007874Y003248
X-0003937Y0029528
X-0007874Y0043031
X-0027559Y0029528
X-0031496Y003248
X-0035433Y0051181
X-0038583Y0053937
X-0041969
X-0045276Y0051181
X-0048583Y0053937
X-0055118Y0051181
Y0035433
Y0019685
X-0035433Y0012795
X-0035433Y0066929
X-0024606
X-0055118
X-0050276Y0146653
X-0040276
X-0019764
X-0009764
X0009764
X0019764
X0040276
X0050276
T02
X-0045Y0222441
X-0035
X-0025
X-0015
X-0005
X0005
X0015
X0025
X0035
X0045
T03
X-0047638Y0189173
X0047638
M30
