M48
;Layer_Color=9474304
;FILE_FORMAT=2:5
INCH,LZ
;TYPE=PLATED
T1F00S00C0.00787
T2F00S00C0.03937
T3F00S00C0.10236
%
T01
X-0007035Y0018925
X0004775
X0016587
X00115Y0011
X0020669Y0003937
X0023819Y0005906
X0026969Y0003937
X0030118Y0005906
X0033268Y0003937
X0036417Y0005906
X0039567Y0003937
X0042717Y0005906
X0047Y0009
X0052165Y0005906
X0055315Y0003937
X0058464Y0005906
X00705Y00075
X0063831Y0018925
X005202
X0040209
X0046114Y0030736
X0057925
X0069736
X0063831Y0042547
X005202
X0040209
X0031841Y0041339
X00295Y00385
X0034303Y0030736
X001685Y0032254
X0010681Y0030736
X001Y00355
X0007
X0008315Y0040051
Y0042551
X0009Y0052
X001063Y0055118
X0012795Y0059055
X001752
X0019685Y0055118
X00245Y0053
X0022Y00505
Y0048
X0022096Y0045276
X00265Y00585
X0024764Y0066654
X0034764
X0044764
X0054764
X0057264Y0077362
X0047264
X0037264
X0027264
X0008051
X-0001949
X-0011949
X-0004449Y0066654
X0005551
X0003Y00585
X-0001949Y005315
X-0007035Y0054358
X-0008Y0047
X-0001949Y0041339
X00015Y00375
X-0005Y00345
X-0012941Y0030736
X0015Y0064
X0034303Y0054358
X0046114
X0057925
X0069736
X007Y0077
X-0021949Y0077362
X-0024449Y0066654
X-0014449
X-0018846Y0054358
X-0036563
X-0030658Y0042547
X-0024752Y0030736
X-0036563
X-0030658Y0018925
X-0018846
X-0020276Y0003937
X-0038Y00085
X-00365Y0077
X-0021949Y0102165
X-0019291Y0140748
Y0158465
X-0009449
X0000394
X0010236
X0020079
X0029921
X0039764
X0049606
Y0140748
X0039764
X0029921
X0020079
X0010236
X0000394
X-0009449
X-0011949Y0102165
X-0001949
X0008051
X0027264
X0037264
X0047264
X0057264
T02
X-0029134Y0200787
X-0019291
X-0009449
X0000394
X0010236
X0020079
X0029921
X0039764
X0049606
X0059449
T03
X-003248Y0176378
X0062795
M30
