%TF.GenerationSoftware,Altium Limited,Altium Designer,23.3.1 (30)*%
G04 Layer_Physical_Order=1*
G04 Layer_Color=255*
%FSLAX45Y45*%
%MOMM*%
%TF.SameCoordinates,FDB9E7A7-A389-4C7E-9334-FC0DF1D9A675*%
%TF.FilePolarity,Positive*%
%TF.FileFunction,Copper,L1,Top,Signal*%
%TF.Part,Single*%
G01*
G75*
%TA.AperFunction,SMDPad,CuDef*%
%ADD10R,0.60000X0.50000*%
%TA.AperFunction,ConnectorPad*%
%ADD11R,0.60000X2.30000*%
%TA.AperFunction,Conductor*%
%ADD12C,0.30000*%
%TA.AperFunction,ViaPad*%
%ADD13R,5.30000X5.30000*%
%TA.AperFunction,ComponentPad*%
%ADD14C,1.35000*%
%ADD15R,1.35000X1.35000*%
%TA.AperFunction,ViaPad*%
%ADD16C,0.50000*%
G36*
X1859511Y1100000D02*
X-1089512D01*
X-1089512Y2755900D01*
X1859511D01*
X1859511Y1100000D01*
D02*
G37*
G36*
X1859512Y20488D02*
X1750000D01*
X1749377Y20364D01*
X1748749Y20458D01*
X1740908Y20072D01*
X1739076Y19613D01*
X1737186D01*
X1721805Y16554D01*
X1719485Y15593D01*
X1717023Y15103D01*
X1702534Y9102D01*
X1700447Y7707D01*
X1698127Y6746D01*
X1685088Y-1966D01*
X1683312Y-3742D01*
X1681225Y-5136D01*
X1670136Y-16226D01*
X1668742Y-18312D01*
X1666966Y-20088D01*
X1658253Y-33128D01*
X1657292Y-35447D01*
X1655898Y-37535D01*
X1651076Y-49176D01*
X100488D01*
Y0D01*
X100324Y829D01*
X100434Y1668D01*
X99792Y11457D01*
X99142Y13881D01*
X98978Y16386D01*
X93911Y35298D01*
X92436Y38289D01*
X91364Y41445D01*
X81575Y58401D01*
X79377Y60907D01*
X77524Y63680D01*
X63680Y77524D01*
X60908Y79377D01*
X58401Y81575D01*
X41445Y91365D01*
X38288Y92436D01*
X35298Y93911D01*
X16387Y98978D01*
X13060Y99196D01*
X9789Y99847D01*
X-9789D01*
X-13059Y99196D01*
X-16387Y98978D01*
X-35298Y93911D01*
X-38290Y92436D01*
X-41446Y91364D01*
X-58401Y81575D01*
X-60908Y79377D01*
X-63680Y77524D01*
X-77525Y63680D01*
X-79377Y60908D01*
X-81575Y58401D01*
X-91365Y41445D01*
X-92436Y38288D01*
X-93911Y35298D01*
X-98978Y16387D01*
X-99142Y13882D01*
X-99792Y11456D01*
X-100434Y1667D01*
X-100324Y829D01*
X-100488Y0D01*
Y-49176D01*
X-881076D01*
X-885898Y-37535D01*
X-887293Y-35448D01*
X-888253Y-33128D01*
X-896966Y-20088D01*
X-898742Y-18312D01*
X-900136Y-16226D01*
X-911226Y-5136D01*
X-913312Y-3742D01*
X-915088Y-1966D01*
X-928128Y6746D01*
X-930447Y7707D01*
X-932535Y9102D01*
X-947024Y15103D01*
X-949486Y15593D01*
X-951805Y16554D01*
X-967186Y19613D01*
X-969076D01*
X-970908Y20072D01*
X-978749Y20458D01*
X-979377Y20364D01*
X-980000Y20488D01*
X-1089512D01*
Y698500D01*
X1859512D01*
Y20488D01*
D02*
G37*
%LPC*%
G36*
X1587500Y2477500D02*
X1519999D01*
Y2410001D01*
X1587500D01*
Y2477500D01*
D02*
G37*
G36*
X-729797D02*
X-730001D01*
Y2410001D01*
X-662500D01*
Y2410203D01*
X-667781Y2429914D01*
X-677985Y2447586D01*
X-692414Y2462015D01*
X-710086Y2472219D01*
X-729797Y2477500D01*
D02*
G37*
G36*
X1500000D02*
X1432500D01*
Y2410001D01*
X1500000D01*
Y2477500D01*
D02*
G37*
G36*
X-750001D02*
X-750203D01*
X-769914Y2472219D01*
X-787586Y2462015D01*
X-802015Y2447586D01*
X-812219Y2429914D01*
X-817500Y2410203D01*
Y2410001D01*
X-750001D01*
Y2477500D01*
D02*
G37*
G36*
X1587500Y2390001D02*
X1519999D01*
Y2322500D01*
X1587500D01*
Y2390001D01*
D02*
G37*
G36*
X1500000D02*
X1432500D01*
Y2322500D01*
X1500000D01*
Y2390001D01*
D02*
G37*
G36*
X-662500D02*
X-730001D01*
Y2322500D01*
X-729797D01*
X-710086Y2327781D01*
X-692414Y2337985D01*
X-677985Y2352414D01*
X-667781Y2370086D01*
X-662500Y2389797D01*
Y2390001D01*
D02*
G37*
G36*
X-750001D02*
X-817500D01*
Y2389797D01*
X-812219Y2370086D01*
X-802015Y2352414D01*
X-787586Y2337985D01*
X-769914Y2327781D01*
X-750203Y2322500D01*
X-750001D01*
Y2390001D01*
D02*
G37*
G36*
X1358900Y2563524D02*
X-584200D01*
X-591854Y2560354D01*
X-595024Y2552700D01*
Y2260600D01*
X-591854Y2252946D01*
X-584200Y2249776D01*
X1358900D01*
X1366554Y2252946D01*
X1369724Y2260600D01*
Y2552700D01*
X1366554Y2560354D01*
X1358900Y2563524D01*
D02*
G37*
G36*
X1266970Y1791500D02*
X1253046D01*
X1240182Y1786171D01*
X1230336Y1776326D01*
X1225008Y1763462D01*
Y1749538D01*
X1230336Y1736674D01*
X1233170Y1733840D01*
X1233160Y1733691D01*
X1233276Y1733350D01*
X1233284Y1733228D01*
X1233383Y1733029D01*
X1233502Y1732533D01*
X1233621Y1731844D01*
X1234162Y1723898D01*
X1234184Y1721404D01*
X1234518Y1720618D01*
Y1600718D01*
X1234187Y1599974D01*
X1234049Y1594602D01*
X1233671Y1590234D01*
X1233493Y1589146D01*
X1225770Y1580000D01*
X1220000D01*
X1219480Y1569695D01*
X1219579Y1569458D01*
X1219542Y1568539D01*
X1220000Y1567701D01*
Y1510000D01*
X1300000D01*
Y1567300D01*
X1300000Y1567701D01*
X1300458Y1568538D01*
X1300421Y1569458D01*
X1300520Y1569695D01*
X1300000Y1580000D01*
X1294230Y1580000D01*
X1286519Y1589161D01*
X1286344Y1590235D01*
X1285966Y1594601D01*
X1285828Y1599974D01*
X1285497Y1600717D01*
Y1720618D01*
X1285831Y1721404D01*
X1285854Y1724049D01*
X1286034Y1728441D01*
X1286363Y1731664D01*
X1286513Y1732533D01*
X1286633Y1733029D01*
X1286731Y1733228D01*
X1286739Y1733350D01*
X1286855Y1733691D01*
X1286846Y1733840D01*
X1289679Y1736674D01*
X1295008Y1749538D01*
Y1763462D01*
X1289679Y1776326D01*
X1279834Y1786171D01*
X1266970Y1791500D01*
D02*
G37*
G36*
X1016970D02*
X1003046D01*
X990182Y1786171D01*
X980336Y1776326D01*
X975008Y1763462D01*
Y1749538D01*
X980336Y1736674D01*
X983170Y1733840D01*
X983160Y1733691D01*
X983276Y1733350D01*
X983284Y1733228D01*
X983383Y1733029D01*
X983502Y1732533D01*
X983621Y1731844D01*
X984162Y1723898D01*
X984184Y1721404D01*
X984518Y1720618D01*
Y1600718D01*
X984187Y1599974D01*
X984049Y1594602D01*
X983671Y1590234D01*
X983493Y1589146D01*
X975770Y1580000D01*
X970000D01*
X969480Y1569695D01*
X969579Y1569458D01*
X969542Y1568539D01*
X970000Y1567701D01*
Y1510000D01*
X1050000D01*
Y1567300D01*
X1050000Y1567701D01*
X1050458Y1568538D01*
X1050421Y1569458D01*
X1050520Y1569695D01*
X1050000Y1580000D01*
X1044230Y1580000D01*
X1036519Y1589161D01*
X1036344Y1590235D01*
X1035966Y1594601D01*
X1035828Y1599974D01*
X1035497Y1600717D01*
Y1720618D01*
X1035831Y1721404D01*
X1035854Y1724049D01*
X1036034Y1728441D01*
X1036363Y1731664D01*
X1036513Y1732533D01*
X1036633Y1733029D01*
X1036731Y1733228D01*
X1036739Y1733350D01*
X1036855Y1733691D01*
X1036846Y1733840D01*
X1039679Y1736674D01*
X1045008Y1749538D01*
Y1763462D01*
X1039679Y1776326D01*
X1029834Y1786171D01*
X1016970Y1791500D01*
D02*
G37*
G36*
X766970D02*
X753046D01*
X740182Y1786171D01*
X730336Y1776326D01*
X725008Y1763462D01*
Y1749538D01*
X730336Y1736674D01*
X733170Y1733840D01*
X733160Y1733691D01*
X733276Y1733350D01*
X733284Y1733228D01*
X733383Y1733029D01*
X733502Y1732533D01*
X733621Y1731844D01*
X734162Y1723898D01*
X734184Y1721404D01*
X734518Y1720618D01*
Y1600718D01*
X734187Y1599974D01*
X734049Y1594602D01*
X733671Y1590234D01*
X733493Y1589146D01*
X725770Y1580000D01*
X720000D01*
X719480Y1569695D01*
X719579Y1569458D01*
X719542Y1568539D01*
X720000Y1567701D01*
Y1510000D01*
X800000D01*
Y1567300D01*
X800000Y1567701D01*
X800458Y1568538D01*
X800421Y1569458D01*
X800520Y1569695D01*
X800000Y1580000D01*
X794230Y1580000D01*
X786519Y1589161D01*
X786344Y1590235D01*
X785966Y1594601D01*
X785828Y1599974D01*
X785497Y1600717D01*
Y1720618D01*
X785831Y1721404D01*
X785854Y1724049D01*
X786034Y1728441D01*
X786363Y1731664D01*
X786513Y1732533D01*
X786633Y1733029D01*
X786731Y1733228D01*
X786739Y1733350D01*
X786855Y1733691D01*
X786846Y1733840D01*
X789679Y1736674D01*
X795008Y1749538D01*
Y1763462D01*
X789679Y1776326D01*
X779834Y1786171D01*
X766970Y1791500D01*
D02*
G37*
G36*
X516970D02*
X503046D01*
X490182Y1786171D01*
X480336Y1776326D01*
X475008Y1763462D01*
Y1749538D01*
X480336Y1736674D01*
X483170Y1733840D01*
X483160Y1733691D01*
X483276Y1733350D01*
X483284Y1733228D01*
X483383Y1733029D01*
X483502Y1732533D01*
X483621Y1731844D01*
X484162Y1723898D01*
X484184Y1721404D01*
X484518Y1720618D01*
Y1600718D01*
X484187Y1599974D01*
X484049Y1594601D01*
X483671Y1590235D01*
X483495Y1589154D01*
X475777Y1580000D01*
X470007D01*
X469488Y1569695D01*
X469586Y1569458D01*
X469550Y1568539D01*
X470008Y1567701D01*
Y1510000D01*
X550008D01*
Y1567300D01*
X550008Y1567701D01*
X550465Y1568539D01*
X550429Y1569458D01*
X550527Y1569695D01*
X550008Y1580000D01*
X544238Y1580000D01*
X536520Y1589154D01*
X536344Y1590235D01*
X535967Y1594601D01*
X535828Y1599974D01*
X535497Y1600718D01*
Y1720618D01*
X535831Y1721404D01*
X535854Y1724049D01*
X536034Y1728441D01*
X536363Y1731664D01*
X536513Y1732533D01*
X536633Y1733029D01*
X536731Y1733228D01*
X536739Y1733350D01*
X536855Y1733691D01*
X536846Y1733840D01*
X539679Y1736674D01*
X545008Y1749538D01*
Y1763462D01*
X539679Y1776326D01*
X529834Y1786171D01*
X516970Y1791500D01*
D02*
G37*
G36*
X266969D02*
X253046D01*
X240182Y1786171D01*
X230336Y1776326D01*
X225008Y1763462D01*
Y1749538D01*
X230336Y1736674D01*
X233170Y1733840D01*
X233160Y1733691D01*
X233276Y1733350D01*
X233284Y1733228D01*
X233383Y1733029D01*
X233502Y1732533D01*
X233621Y1731844D01*
X234162Y1723898D01*
X234184Y1721404D01*
X234518Y1720618D01*
Y1600718D01*
X234187Y1599974D01*
X234049Y1594601D01*
X233671Y1590235D01*
X233495Y1589154D01*
X225777Y1580000D01*
X220007D01*
X219488Y1569695D01*
X219586Y1569458D01*
X219550Y1568539D01*
X220008Y1567701D01*
Y1510000D01*
X300008D01*
Y1567300D01*
X300008Y1567701D01*
X300465Y1568539D01*
X300429Y1569458D01*
X300527Y1569695D01*
X300008Y1580000D01*
X294238Y1580000D01*
X286520Y1589154D01*
X286344Y1590235D01*
X285967Y1594601D01*
X285828Y1599974D01*
X285497Y1600718D01*
Y1720618D01*
X285831Y1721404D01*
X285854Y1724049D01*
X286034Y1728441D01*
X286363Y1731664D01*
X286513Y1732533D01*
X286633Y1733029D01*
X286731Y1733228D01*
X286739Y1733350D01*
X286855Y1733691D01*
X286846Y1733840D01*
X289679Y1736674D01*
X295008Y1749538D01*
Y1763462D01*
X289679Y1776326D01*
X279834Y1786171D01*
X266969Y1791500D01*
D02*
G37*
G36*
X16969D02*
X3046D01*
X-9818Y1786171D01*
X-19664Y1776326D01*
X-24992Y1763462D01*
Y1749538D01*
X-19664Y1736674D01*
X-16830Y1733840D01*
X-16840Y1733691D01*
X-16724Y1733350D01*
X-16716Y1733228D01*
X-16617Y1733029D01*
X-16498Y1732533D01*
X-16379Y1731844D01*
X-15838Y1723898D01*
X-15816Y1721404D01*
X-15482Y1720618D01*
Y1600718D01*
X-15813Y1599974D01*
X-15951Y1594601D01*
X-16329Y1590235D01*
X-16505Y1589154D01*
X-24223Y1580000D01*
X-29993D01*
X-30512Y1569695D01*
X-30414Y1569458D01*
X-30450Y1568539D01*
X-29992Y1567701D01*
Y1510000D01*
X50008D01*
Y1567300D01*
X50008Y1567701D01*
X50465Y1568539D01*
X50429Y1569458D01*
X50527Y1569695D01*
X50008Y1580000D01*
X44238Y1580000D01*
X36520Y1589154D01*
X36344Y1590235D01*
X35967Y1594601D01*
X35828Y1599974D01*
X35497Y1600718D01*
Y1720618D01*
X35831Y1721404D01*
X35854Y1724049D01*
X36034Y1728441D01*
X36363Y1731664D01*
X36513Y1732533D01*
X36633Y1733029D01*
X36731Y1733228D01*
X36739Y1733350D01*
X36855Y1733691D01*
X36845Y1733840D01*
X39679Y1736674D01*
X45008Y1749538D01*
Y1763462D01*
X39679Y1776326D01*
X29834Y1786171D01*
X16969Y1791500D01*
D02*
G37*
G36*
X-233031D02*
X-246954D01*
X-259818Y1786171D01*
X-269664Y1776326D01*
X-274992Y1763462D01*
Y1749538D01*
X-269664Y1736674D01*
X-266830Y1733840D01*
X-266840Y1733691D01*
X-266724Y1733350D01*
X-266716Y1733228D01*
X-266617Y1733029D01*
X-266498Y1732533D01*
X-266379Y1731844D01*
X-265838Y1723898D01*
X-265816Y1721404D01*
X-265482Y1720618D01*
Y1600718D01*
X-265813Y1599974D01*
X-265951Y1594601D01*
X-266329Y1590235D01*
X-266505Y1589154D01*
X-274223Y1580000D01*
X-279993D01*
X-280512Y1569695D01*
X-280414Y1569458D01*
X-280450Y1568539D01*
X-279992Y1567701D01*
Y1510000D01*
X-199992D01*
Y1567300D01*
X-199992Y1567701D01*
X-199535Y1568539D01*
X-199571Y1569458D01*
X-199473Y1569695D01*
X-199992Y1580000D01*
X-205762Y1580000D01*
X-213480Y1589154D01*
X-213656Y1590235D01*
X-214033Y1594601D01*
X-214172Y1599974D01*
X-214503Y1600718D01*
Y1720618D01*
X-214169Y1721404D01*
X-214146Y1724049D01*
X-213966Y1728441D01*
X-213637Y1731664D01*
X-213487Y1732533D01*
X-213367Y1733029D01*
X-213269Y1733228D01*
X-213261Y1733350D01*
X-213145Y1733691D01*
X-213155Y1733840D01*
X-210321Y1736674D01*
X-204992Y1749538D01*
Y1763462D01*
X-210321Y1776326D01*
X-220166Y1786171D01*
X-233031Y1791500D01*
D02*
G37*
G36*
X-483031D02*
X-496954D01*
X-509818Y1786171D01*
X-519664Y1776326D01*
X-524992Y1763462D01*
Y1749538D01*
X-519664Y1736674D01*
X-516830Y1733840D01*
X-516840Y1733691D01*
X-516724Y1733350D01*
X-516716Y1733228D01*
X-516617Y1733029D01*
X-516498Y1732533D01*
X-516379Y1731844D01*
X-515838Y1723898D01*
X-515816Y1721404D01*
X-515482Y1720618D01*
Y1600718D01*
X-515813Y1599974D01*
X-515951Y1594601D01*
X-516329Y1590235D01*
X-516505Y1589154D01*
X-524223Y1580000D01*
X-529993D01*
X-530512Y1569695D01*
X-530414Y1569458D01*
X-530450Y1568539D01*
X-529992Y1567701D01*
Y1510000D01*
X-449992D01*
Y1567300D01*
X-449992Y1567701D01*
X-449535Y1568539D01*
X-449571Y1569458D01*
X-449473Y1569695D01*
X-449992Y1580000D01*
X-455762Y1580000D01*
X-463480Y1589154D01*
X-463656Y1590235D01*
X-464033Y1594601D01*
X-464172Y1599974D01*
X-464503Y1600718D01*
Y1720618D01*
X-464169Y1721404D01*
X-464146Y1724049D01*
X-463966Y1728441D01*
X-463637Y1731664D01*
X-463487Y1732533D01*
X-463367Y1733029D01*
X-463269Y1733228D01*
X-463261Y1733350D01*
X-463145Y1733691D01*
X-463155Y1733840D01*
X-460321Y1736674D01*
X-454992Y1749538D01*
Y1763462D01*
X-460321Y1776326D01*
X-470166Y1786171D01*
X-483031Y1791500D01*
D02*
G37*
G36*
X50008Y1490000D02*
X20008D01*
Y1465001D01*
X50008D01*
Y1490000D01*
D02*
G37*
G36*
X-199992D02*
X-229992D01*
Y1465001D01*
X-199992D01*
Y1490000D01*
D02*
G37*
G36*
X-449992D02*
X-479992D01*
Y1465001D01*
X-449992D01*
Y1490000D01*
D02*
G37*
G36*
X550008D02*
X520008D01*
Y1465001D01*
X550008D01*
Y1490000D01*
D02*
G37*
G36*
X300008D02*
X270008D01*
Y1465001D01*
X300008D01*
Y1490000D01*
D02*
G37*
G36*
X8D02*
X-29992D01*
Y1465001D01*
X8D01*
Y1490000D01*
D02*
G37*
G36*
X-249992D02*
X-279992D01*
Y1465001D01*
X-249992D01*
Y1490000D01*
D02*
G37*
G36*
X-499992D02*
X-529992D01*
Y1465001D01*
X-499992D01*
Y1490000D01*
D02*
G37*
G36*
X500008D02*
X470008D01*
Y1465001D01*
X500008D01*
Y1490000D01*
D02*
G37*
G36*
X250008D02*
X220008D01*
Y1465001D01*
X250008D01*
Y1490000D01*
D02*
G37*
G36*
X1300000D02*
X1269999D01*
Y1465000D01*
X1300000D01*
Y1490000D01*
D02*
G37*
G36*
X1050000D02*
X1019999D01*
Y1465000D01*
X1050000D01*
Y1490000D01*
D02*
G37*
G36*
X800000D02*
X769999D01*
Y1465000D01*
X800000D01*
Y1490000D01*
D02*
G37*
G36*
X1250000D02*
X1220000D01*
Y1465000D01*
X1250000D01*
Y1490000D01*
D02*
G37*
G36*
X1000000D02*
X970000D01*
Y1465000D01*
X1000000D01*
Y1490000D01*
D02*
G37*
G36*
X750000D02*
X720000D01*
Y1465000D01*
X750000D01*
Y1490000D01*
D02*
G37*
G36*
X1300000Y1445000D02*
X1269999D01*
Y1420000D01*
X1300000D01*
Y1445000D01*
D02*
G37*
G36*
X1250000D02*
X1220000D01*
Y1420000D01*
X1250000D01*
Y1445000D01*
D02*
G37*
G36*
X1050000D02*
X1019999D01*
Y1420000D01*
X1050000D01*
Y1445000D01*
D02*
G37*
G36*
X1000000D02*
X970000D01*
Y1420000D01*
X1000000D01*
Y1445000D01*
D02*
G37*
G36*
X800000D02*
X769999D01*
Y1420000D01*
X800000D01*
Y1445000D01*
D02*
G37*
G36*
X750000D02*
X720000D01*
Y1420000D01*
X750000D01*
Y1445000D01*
D02*
G37*
G36*
X550008Y1445001D02*
X520008D01*
Y1420000D01*
X550008D01*
Y1445001D01*
D02*
G37*
G36*
X500008D02*
X470008D01*
Y1420000D01*
X500008D01*
Y1445001D01*
D02*
G37*
G36*
X300008D02*
X270008D01*
Y1420000D01*
X300008D01*
Y1445001D01*
D02*
G37*
G36*
X250008D02*
X220008D01*
Y1420000D01*
X250008D01*
Y1445001D01*
D02*
G37*
G36*
X50008D02*
X20008D01*
Y1420000D01*
X50008D01*
Y1445001D01*
D02*
G37*
G36*
X8D02*
X-29992D01*
Y1420000D01*
X8D01*
Y1445001D01*
D02*
G37*
G36*
X-199992D02*
X-229992D01*
Y1420000D01*
X-199992D01*
Y1445001D01*
D02*
G37*
G36*
X-249992D02*
X-279992D01*
Y1420000D01*
X-249992D01*
Y1445001D01*
D02*
G37*
G36*
X-449992D02*
X-479992D01*
Y1420000D01*
X-449992D01*
Y1445001D01*
D02*
G37*
G36*
X-499992D02*
X-529992D01*
Y1420000D01*
X-499992D01*
Y1445001D01*
D02*
G37*
G36*
X1334462Y1335000D02*
X1320538D01*
X1307674Y1329671D01*
X1297828Y1319826D01*
X1292500Y1306962D01*
Y1293038D01*
X1297828Y1280174D01*
X1307674Y1270328D01*
X1320538Y1265000D01*
X1334462D01*
X1347326Y1270328D01*
X1357172Y1280174D01*
X1362500Y1293038D01*
Y1306962D01*
X1357172Y1319826D01*
X1347326Y1329671D01*
X1334462Y1335000D01*
D02*
G37*
G36*
X1080462D02*
X1066538D01*
X1053674Y1329671D01*
X1043828Y1319826D01*
X1038500Y1306962D01*
Y1293038D01*
X1043828Y1280174D01*
X1053674Y1270328D01*
X1066538Y1265000D01*
X1080462D01*
X1093326Y1270328D01*
X1103172Y1280174D01*
X1108500Y1293038D01*
Y1306962D01*
X1103172Y1319826D01*
X1093326Y1329671D01*
X1080462Y1335000D01*
D02*
G37*
G36*
X826462D02*
X812538D01*
X799674Y1329671D01*
X789828Y1319826D01*
X784500Y1306962D01*
Y1293038D01*
X789828Y1280174D01*
X799674Y1270328D01*
X812538Y1265000D01*
X826462D01*
X839326Y1270328D01*
X849172Y1280174D01*
X854500Y1293038D01*
Y1306962D01*
X849172Y1319826D01*
X839326Y1329671D01*
X826462Y1335000D01*
D02*
G37*
G36*
X572462D02*
X558538D01*
X545674Y1329671D01*
X535828Y1319826D01*
X530500Y1306962D01*
Y1293038D01*
X535828Y1280174D01*
X545674Y1270328D01*
X558538Y1265000D01*
X572462D01*
X585326Y1270328D01*
X595172Y1280174D01*
X600500Y1293038D01*
Y1306962D01*
X595172Y1319826D01*
X585326Y1329671D01*
X572462Y1335000D01*
D02*
G37*
G36*
X84462D02*
X70538D01*
X57674Y1329671D01*
X47828Y1319826D01*
X42500Y1306962D01*
Y1293038D01*
X47828Y1280174D01*
X57674Y1270328D01*
X70538Y1265000D01*
X84462D01*
X97326Y1270328D01*
X107171Y1280174D01*
X112500Y1293038D01*
Y1306962D01*
X107171Y1319826D01*
X97326Y1329671D01*
X84462Y1335000D01*
D02*
G37*
G36*
X-169538D02*
X-183462D01*
X-196326Y1329671D01*
X-206172Y1319826D01*
X-211500Y1306962D01*
Y1293038D01*
X-206172Y1280174D01*
X-196326Y1270328D01*
X-183462Y1265000D01*
X-169538D01*
X-156674Y1270328D01*
X-146829Y1280174D01*
X-141500Y1293038D01*
Y1306962D01*
X-146829Y1319826D01*
X-156674Y1329671D01*
X-169538Y1335000D01*
D02*
G37*
G36*
X-423538D02*
X-437462D01*
X-450326Y1329671D01*
X-460172Y1319826D01*
X-465500Y1306962D01*
Y1293038D01*
X-460172Y1280174D01*
X-450326Y1270328D01*
X-437462Y1265000D01*
X-423538D01*
X-410674Y1270328D01*
X-400829Y1280174D01*
X-395500Y1293038D01*
Y1306962D01*
X-400829Y1319826D01*
X-410674Y1329671D01*
X-423538Y1335000D01*
D02*
G37*
G36*
X-677538D02*
X-691462D01*
X-704326Y1329671D01*
X-714172Y1319826D01*
X-719500Y1306962D01*
Y1293038D01*
X-714172Y1280174D01*
X-704326Y1270328D01*
X-691462Y1265000D01*
X-677538D01*
X-664674Y1270328D01*
X-654829Y1280174D01*
X-649500Y1293038D01*
Y1306962D01*
X-654829Y1319826D01*
X-664674Y1329671D01*
X-677538Y1335000D01*
D02*
G37*
%LPD*%
G36*
X1277032Y1738034D02*
X1276608Y1737176D01*
X1276233Y1736074D01*
X1275908Y1734727D01*
X1275633Y1733134D01*
X1275233Y1729215D01*
X1275033Y1724317D01*
X1275008Y1721500D01*
X1245008D01*
X1244983Y1724317D01*
X1244383Y1733134D01*
X1244108Y1734727D01*
X1243783Y1736074D01*
X1243408Y1737176D01*
X1242983Y1738034D01*
X1242508Y1738646D01*
X1277507D01*
X1277032Y1738034D01*
D02*
G37*
G36*
X1275154Y1593995D02*
X1275595Y1588895D01*
X1276329Y1584395D01*
X1277358Y1580495D01*
X1278679Y1577195D01*
X1280295Y1574495D01*
X1282204Y1572395D01*
X1284408Y1570895D01*
X1286904Y1569995D01*
X1289695Y1569695D01*
X1230305D01*
X1233098Y1569995D01*
X1235598Y1570895D01*
X1237803Y1572395D01*
X1239715Y1574495D01*
X1241332Y1577195D01*
X1242655Y1580495D01*
X1243684Y1584395D01*
X1244420Y1588895D01*
X1244861Y1593995D01*
X1245008Y1599695D01*
X1275008D01*
X1275154Y1593995D01*
D02*
G37*
G36*
X1027032Y1738034D02*
X1026608Y1737176D01*
X1026233Y1736074D01*
X1025908Y1734727D01*
X1025633Y1733134D01*
X1025233Y1729215D01*
X1025032Y1724317D01*
X1025008Y1721500D01*
X995008D01*
X994983Y1724317D01*
X994383Y1733134D01*
X994108Y1734727D01*
X993783Y1736074D01*
X993408Y1737176D01*
X992983Y1738034D01*
X992508Y1738646D01*
X1027507D01*
X1027032Y1738034D01*
D02*
G37*
G36*
X1025154Y1593995D02*
X1025595Y1588895D01*
X1026329Y1584395D01*
X1027358Y1580495D01*
X1028679Y1577195D01*
X1030295Y1574495D01*
X1032204Y1572395D01*
X1034408Y1570895D01*
X1036904Y1569995D01*
X1039695Y1569695D01*
X980305D01*
X983098Y1569995D01*
X985598Y1570895D01*
X987803Y1572395D01*
X989715Y1574495D01*
X991332Y1577195D01*
X992655Y1580495D01*
X993684Y1584395D01*
X994420Y1588895D01*
X994861Y1593995D01*
X995008Y1599695D01*
X1025008D01*
X1025154Y1593995D01*
D02*
G37*
G36*
X777032Y1738034D02*
X776608Y1737176D01*
X776233Y1736074D01*
X775908Y1734727D01*
X775633Y1733134D01*
X775233Y1729215D01*
X775032Y1724317D01*
X775008Y1721500D01*
X745008D01*
X744983Y1724317D01*
X744383Y1733134D01*
X744108Y1734727D01*
X743783Y1736074D01*
X743408Y1737176D01*
X742983Y1738034D01*
X742508Y1738646D01*
X777507D01*
X777032Y1738034D01*
D02*
G37*
G36*
X775154Y1593995D02*
X775595Y1588895D01*
X776329Y1584395D01*
X777358Y1580495D01*
X778679Y1577195D01*
X780295Y1574495D01*
X782204Y1572395D01*
X784408Y1570895D01*
X786904Y1569995D01*
X789695Y1569695D01*
X730305D01*
X733098Y1569995D01*
X735598Y1570895D01*
X737803Y1572395D01*
X739715Y1574495D01*
X741332Y1577195D01*
X742655Y1580495D01*
X743684Y1584395D01*
X744420Y1588895D01*
X744861Y1593995D01*
X745008Y1599695D01*
X775008D01*
X775154Y1593995D01*
D02*
G37*
G36*
X527032Y1738034D02*
X526608Y1737176D01*
X526233Y1736074D01*
X525908Y1734727D01*
X525633Y1733134D01*
X525233Y1729215D01*
X525032Y1724317D01*
X525008Y1721500D01*
X495008D01*
X494983Y1724317D01*
X494383Y1733134D01*
X494108Y1734727D01*
X493783Y1736074D01*
X493408Y1737176D01*
X492983Y1738034D01*
X492508Y1738646D01*
X527507D01*
X527032Y1738034D01*
D02*
G37*
G36*
X525155Y1593995D02*
X525595Y1588895D01*
X526330Y1584395D01*
X527359Y1580495D01*
X528681Y1577195D01*
X530298Y1574495D01*
X532208Y1572395D01*
X534412Y1570895D01*
X536911Y1569995D01*
X539703Y1569695D01*
X480312D01*
X483104Y1569995D01*
X485603Y1570895D01*
X487807Y1572395D01*
X489717Y1574495D01*
X491334Y1577195D01*
X492656Y1580495D01*
X493685Y1584395D01*
X494420Y1588895D01*
X494861Y1593995D01*
X495008Y1599695D01*
X525008D01*
X525155Y1593995D01*
D02*
G37*
G36*
X277032Y1738034D02*
X276608Y1737176D01*
X276233Y1736074D01*
X275908Y1734727D01*
X275633Y1733134D01*
X275233Y1729215D01*
X275032Y1724317D01*
X275008Y1721500D01*
X245008D01*
X244983Y1724317D01*
X244383Y1733134D01*
X244108Y1734727D01*
X243783Y1736074D01*
X243408Y1737176D01*
X242983Y1738034D01*
X242508Y1738646D01*
X277507D01*
X277032Y1738034D01*
D02*
G37*
G36*
X275155Y1593995D02*
X275595Y1588895D01*
X276330Y1584395D01*
X277359Y1580495D01*
X278681Y1577195D01*
X280298Y1574495D01*
X282208Y1572395D01*
X284412Y1570895D01*
X286911Y1569995D01*
X289703Y1569695D01*
X230312D01*
X233104Y1569995D01*
X235603Y1570895D01*
X237807Y1572395D01*
X239717Y1574495D01*
X241334Y1577195D01*
X242656Y1580495D01*
X243685Y1584395D01*
X244420Y1588895D01*
X244861Y1593995D01*
X245008Y1599695D01*
X275008D01*
X275155Y1593995D01*
D02*
G37*
G36*
X27032Y1738034D02*
X26608Y1737176D01*
X26233Y1736074D01*
X25907Y1734727D01*
X25633Y1733134D01*
X25233Y1729215D01*
X25032Y1724317D01*
X25008Y1721500D01*
X-4992D01*
X-5017Y1724317D01*
X-5617Y1733134D01*
X-5892Y1734727D01*
X-6217Y1736074D01*
X-6592Y1737176D01*
X-7017Y1738034D01*
X-7492Y1738646D01*
X27507D01*
X27032Y1738034D01*
D02*
G37*
G36*
X25155Y1593995D02*
X25595Y1588895D01*
X26330Y1584395D01*
X27359Y1580495D01*
X28681Y1577195D01*
X30298Y1574495D01*
X32208Y1572395D01*
X34412Y1570895D01*
X36911Y1569995D01*
X39703Y1569695D01*
X-19688D01*
X-16896Y1569995D01*
X-14397Y1570895D01*
X-12193Y1572395D01*
X-10283Y1574495D01*
X-8666Y1577195D01*
X-7344Y1580495D01*
X-6315Y1584395D01*
X-5580Y1588895D01*
X-5139Y1593995D01*
X-4992Y1599695D01*
X25008D01*
X25155Y1593995D01*
D02*
G37*
G36*
X-222968Y1738034D02*
X-223392Y1737176D01*
X-223767Y1736074D01*
X-224093Y1734727D01*
X-224367Y1733134D01*
X-224767Y1729215D01*
X-224968Y1724317D01*
X-224992Y1721500D01*
X-254992D01*
X-255017Y1724317D01*
X-255617Y1733134D01*
X-255892Y1734727D01*
X-256217Y1736074D01*
X-256592Y1737176D01*
X-257017Y1738034D01*
X-257492Y1738646D01*
X-222493D01*
X-222968Y1738034D01*
D02*
G37*
G36*
X-224845Y1593995D02*
X-224405Y1588895D01*
X-223670Y1584395D01*
X-222641Y1580495D01*
X-221319Y1577195D01*
X-219702Y1574495D01*
X-217792Y1572395D01*
X-215588Y1570895D01*
X-213089Y1569995D01*
X-210297Y1569695D01*
X-269688D01*
X-266896Y1569995D01*
X-264397Y1570895D01*
X-262193Y1572395D01*
X-260283Y1574495D01*
X-258666Y1577195D01*
X-257344Y1580495D01*
X-256315Y1584395D01*
X-255580Y1588895D01*
X-255139Y1593995D01*
X-254992Y1599695D01*
X-224992D01*
X-224845Y1593995D01*
D02*
G37*
G36*
X-472968Y1738034D02*
X-473393Y1737176D01*
X-473767Y1736074D01*
X-474093Y1734727D01*
X-474367Y1733134D01*
X-474767Y1729215D01*
X-474968Y1724317D01*
X-474992Y1721500D01*
X-504992D01*
X-505017Y1724317D01*
X-505617Y1733134D01*
X-505892Y1734727D01*
X-506217Y1736074D01*
X-506592Y1737176D01*
X-507017Y1738034D01*
X-507492Y1738646D01*
X-472493D01*
X-472968Y1738034D01*
D02*
G37*
G36*
X-474845Y1593995D02*
X-474405Y1588895D01*
X-473670Y1584395D01*
X-472641Y1580495D01*
X-471319Y1577195D01*
X-469702Y1574495D01*
X-467792Y1572395D01*
X-465588Y1570895D01*
X-463089Y1569995D01*
X-460297Y1569695D01*
X-519688D01*
X-516896Y1569995D01*
X-514397Y1570895D01*
X-512193Y1572395D01*
X-510283Y1574495D01*
X-508666Y1577195D01*
X-507344Y1580495D01*
X-506315Y1584395D01*
X-505580Y1588895D01*
X-505139Y1593995D01*
X-504992Y1599695D01*
X-474992D01*
X-474845Y1593995D01*
D02*
G37*
%LPC*%
G36*
X1461462Y635000D02*
X1447538D01*
X1434674Y629671D01*
X1424828Y619826D01*
X1419500Y606962D01*
Y593038D01*
X1424828Y580174D01*
X1434674Y570328D01*
X1447538Y565000D01*
X1461462D01*
X1474326Y570328D01*
X1484172Y580174D01*
X1489500Y593038D01*
Y606962D01*
X1484172Y619826D01*
X1474326Y629671D01*
X1461462Y635000D01*
D02*
G37*
G36*
X1334462D02*
X1320538D01*
X1307674Y629671D01*
X1297828Y619826D01*
X1292500Y606962D01*
Y593038D01*
X1297828Y580174D01*
X1307674Y570328D01*
X1320538Y565000D01*
X1334462D01*
X1347326Y570328D01*
X1357172Y580174D01*
X1362500Y593038D01*
Y606962D01*
X1357172Y619826D01*
X1347326Y629671D01*
X1334462Y635000D01*
D02*
G37*
G36*
X1207462D02*
X1193538D01*
X1180674Y629671D01*
X1170828Y619826D01*
X1165500Y606962D01*
Y593038D01*
X1170828Y580174D01*
X1180674Y570328D01*
X1193538Y565000D01*
X1207462D01*
X1220326Y570328D01*
X1230172Y580174D01*
X1235500Y593038D01*
Y606962D01*
X1230172Y619826D01*
X1220326Y629671D01*
X1207462Y635000D01*
D02*
G37*
G36*
X1080462D02*
X1066538D01*
X1053674Y629671D01*
X1043828Y619826D01*
X1038500Y606962D01*
Y593038D01*
X1043828Y580174D01*
X1053674Y570328D01*
X1066538Y565000D01*
X1080462D01*
X1093326Y570328D01*
X1103172Y580174D01*
X1108500Y593038D01*
Y606962D01*
X1103172Y619826D01*
X1093326Y629671D01*
X1080462Y635000D01*
D02*
G37*
G36*
X953462D02*
X939538D01*
X926674Y629671D01*
X916828Y619826D01*
X911500Y606962D01*
Y593038D01*
X916828Y580174D01*
X926674Y570328D01*
X939538Y565000D01*
X953462D01*
X966326Y570328D01*
X976172Y580174D01*
X981500Y593038D01*
Y606962D01*
X976172Y619826D01*
X966326Y629671D01*
X953462Y635000D01*
D02*
G37*
G36*
X826462D02*
X812538D01*
X799674Y629671D01*
X789828Y619826D01*
X784500Y606962D01*
Y593038D01*
X789828Y580174D01*
X799674Y570328D01*
X812538Y565000D01*
X826462D01*
X839326Y570328D01*
X849172Y580174D01*
X854500Y593038D01*
Y606962D01*
X849172Y619826D01*
X839326Y629671D01*
X826462Y635000D01*
D02*
G37*
G36*
X699462D02*
X685538D01*
X672674Y629671D01*
X662828Y619826D01*
X657500Y606962D01*
Y593038D01*
X662828Y580174D01*
X672674Y570328D01*
X685538Y565000D01*
X699462D01*
X712326Y570328D01*
X722172Y580174D01*
X727500Y593038D01*
Y606962D01*
X722172Y619826D01*
X712326Y629671D01*
X699462Y635000D01*
D02*
G37*
G36*
X572462D02*
X558538D01*
X545674Y629671D01*
X535828Y619826D01*
X530500Y606962D01*
Y593038D01*
X535828Y580174D01*
X545674Y570328D01*
X558538Y565000D01*
X572462D01*
X585326Y570328D01*
X595172Y580174D01*
X600500Y593038D01*
Y606962D01*
X595172Y619826D01*
X585326Y629671D01*
X572462Y635000D01*
D02*
G37*
G36*
X211462D02*
X197538D01*
X184674Y629671D01*
X174828Y619826D01*
X169500Y606962D01*
Y593038D01*
X174828Y580174D01*
X184674Y570328D01*
X197538Y565000D01*
X211462D01*
X224326Y570328D01*
X234171Y580174D01*
X239500Y593038D01*
Y606962D01*
X234171Y619826D01*
X224326Y629671D01*
X211462Y635000D01*
D02*
G37*
G36*
X84462D02*
X70538D01*
X57674Y629671D01*
X47828Y619826D01*
X42500Y606962D01*
Y593038D01*
X47828Y580174D01*
X57674Y570328D01*
X70538Y565000D01*
X84462D01*
X97326Y570328D01*
X107171Y580174D01*
X112500Y593038D01*
Y606962D01*
X107171Y619826D01*
X97326Y629671D01*
X84462Y635000D01*
D02*
G37*
G36*
X-42538D02*
X-56462D01*
X-69326Y629671D01*
X-79172Y619826D01*
X-84500Y606962D01*
Y593038D01*
X-79172Y580174D01*
X-69326Y570328D01*
X-56462Y565000D01*
X-42538D01*
X-29674Y570328D01*
X-19829Y580174D01*
X-14500Y593038D01*
Y606962D01*
X-19829Y619826D01*
X-29674Y629671D01*
X-42538Y635000D01*
D02*
G37*
G36*
X-169538D02*
X-183462D01*
X-196326Y629671D01*
X-206172Y619826D01*
X-211500Y606962D01*
Y593038D01*
X-206172Y580174D01*
X-196326Y570328D01*
X-183462Y565000D01*
X-169538D01*
X-156674Y570328D01*
X-146829Y580174D01*
X-141500Y593038D01*
Y606962D01*
X-146829Y619826D01*
X-156674Y629671D01*
X-169538Y635000D01*
D02*
G37*
G36*
X-296538D02*
X-310462D01*
X-323326Y629671D01*
X-333172Y619826D01*
X-338500Y606962D01*
Y593038D01*
X-333172Y580174D01*
X-323326Y570328D01*
X-310462Y565000D01*
X-296538D01*
X-283674Y570328D01*
X-273829Y580174D01*
X-268500Y593038D01*
Y606962D01*
X-273829Y619826D01*
X-283674Y629671D01*
X-296538Y635000D01*
D02*
G37*
G36*
X-423538D02*
X-437462D01*
X-450326Y629671D01*
X-460172Y619826D01*
X-465500Y606962D01*
Y593038D01*
X-460172Y580174D01*
X-450326Y570328D01*
X-437462Y565000D01*
X-423538D01*
X-410674Y570328D01*
X-400829Y580174D01*
X-395500Y593038D01*
Y606962D01*
X-400829Y619826D01*
X-410674Y629671D01*
X-423538Y635000D01*
D02*
G37*
G36*
X-550538D02*
X-564462D01*
X-577326Y629671D01*
X-587172Y619826D01*
X-592500Y606962D01*
Y593038D01*
X-587172Y580174D01*
X-577326Y570328D01*
X-564462Y565000D01*
X-550538D01*
X-537674Y570328D01*
X-527829Y580174D01*
X-522500Y593038D01*
Y606962D01*
X-527829Y619826D01*
X-537674Y629671D01*
X-550538Y635000D01*
D02*
G37*
G36*
X-677538D02*
X-691462D01*
X-704326Y629671D01*
X-714172Y619826D01*
X-719500Y606962D01*
Y593038D01*
X-714172Y580174D01*
X-704326Y570328D01*
X-691462Y565000D01*
X-677538D01*
X-664674Y570328D01*
X-654829Y580174D01*
X-649500Y593038D01*
Y606962D01*
X-654829Y619826D01*
X-664674Y629671D01*
X-677538Y635000D01*
D02*
G37*
G36*
X1091962Y35000D02*
X1078038D01*
X1065174Y29672D01*
X1055328Y19826D01*
X1051733Y11147D01*
X1038267D01*
X1034672Y19826D01*
X1024826Y29672D01*
X1011962Y35000D01*
X998038D01*
X985174Y29672D01*
X975329Y19826D01*
X971733Y11146D01*
X958267D01*
X954671Y19826D01*
X944826Y29672D01*
X931962Y35000D01*
X918038D01*
X905174Y29672D01*
X895328Y19826D01*
X891733Y11147D01*
X878266D01*
X874671Y19826D01*
X864826Y29672D01*
X851962Y35000D01*
X838038D01*
X825174Y29672D01*
X815328Y19826D01*
X811733Y11147D01*
X798267D01*
X794672Y19826D01*
X784826Y29672D01*
X771962Y35000D01*
X758038D01*
X745174Y29672D01*
X735328Y19826D01*
X731733Y11146D01*
X718267D01*
X714671Y19826D01*
X704826Y29672D01*
X691962Y35000D01*
X678038D01*
X665174Y29672D01*
X655328Y19826D01*
X651733Y11146D01*
X638267D01*
X634671Y19826D01*
X624826Y29672D01*
X611962Y35000D01*
X598038D01*
X585174Y29672D01*
X575328Y19826D01*
X571733Y11147D01*
X558267D01*
X554671Y19826D01*
X544826Y29672D01*
X531962Y35000D01*
X518038D01*
X505174Y29672D01*
X495328Y19826D01*
X490000Y6962D01*
Y-6962D01*
X495328Y-19826D01*
X505174Y-29672D01*
X518038Y-35000D01*
X531962D01*
X544826Y-29672D01*
X554671Y-19826D01*
X558267Y-11147D01*
X571733D01*
X575328Y-19826D01*
X585174Y-29672D01*
X598038Y-35000D01*
X611962D01*
X624826Y-29672D01*
X634671Y-19826D01*
X638267Y-11146D01*
X651733D01*
X655328Y-19826D01*
X665174Y-29672D01*
X678038Y-35000D01*
X691962D01*
X704826Y-29672D01*
X714671Y-19826D01*
X718267Y-11146D01*
X731733D01*
X735328Y-19826D01*
X745174Y-29672D01*
X758038Y-35000D01*
X771962D01*
X784826Y-29672D01*
X794672Y-19826D01*
X798267Y-11147D01*
X811733D01*
X815328Y-19826D01*
X825174Y-29672D01*
X838038Y-35000D01*
X851962D01*
X864826Y-29672D01*
X874671Y-19826D01*
X878266Y-11147D01*
X891733D01*
X895328Y-19826D01*
X905174Y-29672D01*
X918038Y-35000D01*
X931962D01*
X944826Y-29672D01*
X954671Y-19826D01*
X958267Y-11146D01*
X971733D01*
X975329Y-19826D01*
X985174Y-29672D01*
X998038Y-35000D01*
X1011962D01*
X1024826Y-29672D01*
X1034672Y-19826D01*
X1038267Y-11147D01*
X1051733D01*
X1055328Y-19826D01*
X1065174Y-29672D01*
X1078038Y-35000D01*
X1091962D01*
X1104826Y-29672D01*
X1114671Y-19826D01*
X1120000Y-6962D01*
Y6962D01*
X1114671Y19826D01*
X1104826Y29672D01*
X1091962Y35000D01*
D02*
G37*
G36*
X-508038D02*
X-521962D01*
X-534826Y29672D01*
X-544672Y19826D01*
X-550000Y6962D01*
Y-6962D01*
X-544672Y-19826D01*
X-534826Y-29672D01*
X-521962Y-35000D01*
X-508038D01*
X-495174Y-29672D01*
X-485328Y-19826D01*
X-480000Y-6962D01*
Y6962D01*
X-485328Y19826D01*
X-495174Y29672D01*
X-508038Y35000D01*
D02*
G37*
%LPD*%
D10*
X-489992Y1545000D02*
D03*
Y1455000D02*
D03*
X-239992Y1545000D02*
D03*
Y1455000D02*
D03*
X10008Y1545000D02*
D03*
Y1455000D02*
D03*
X260008Y1545000D02*
D03*
Y1455000D02*
D03*
X510008Y1545000D02*
D03*
Y1455000D02*
D03*
X760000Y1545000D02*
D03*
Y1455000D02*
D03*
X1010000Y1545000D02*
D03*
Y1455000D02*
D03*
X1260000Y1545000D02*
D03*
Y1455000D02*
D03*
D11*
X1525000Y-185000D02*
D03*
X1445000D02*
D03*
X1365000D02*
D03*
X1285000D02*
D03*
X1205000D02*
D03*
X1125000D02*
D03*
X1045000D02*
D03*
X965000D02*
D03*
X885000D02*
D03*
X805000D02*
D03*
X725000D02*
D03*
X645000D02*
D03*
X565000D02*
D03*
X485000D02*
D03*
X405000D02*
D03*
X325000D02*
D03*
X245000D02*
D03*
X165000D02*
D03*
X-235000D02*
D03*
X-315000D02*
D03*
X-395000D02*
D03*
X-475000D02*
D03*
X-555000D02*
D03*
X-635000D02*
D03*
X-715000D02*
D03*
X-795000D02*
D03*
D12*
X1125000D02*
Y-38100D01*
X1525000Y-185000D02*
Y0D01*
X1285000Y-185000D02*
Y0D01*
X405000Y-185000D02*
Y0D01*
X165000Y-185000D02*
Y0D01*
X-235000Y-185000D02*
Y0D01*
X1260008Y1545000D02*
Y1756500D01*
X1010008Y1545000D02*
Y1756500D01*
X760008Y1545000D02*
Y1756500D01*
X510008Y1545000D02*
Y1756500D01*
X260008Y1545000D02*
Y1756500D01*
X10008Y1545000D02*
Y1756500D01*
X-239992Y1545000D02*
Y1756500D01*
X-489992Y1545000D02*
Y1756500D01*
D13*
X-825000Y4480000D02*
D03*
X1595000D02*
D03*
D14*
X10000Y2400000D02*
D03*
X260000D02*
D03*
X-740000D02*
D03*
X-240000D02*
D03*
X-490000D02*
D03*
X1260000D02*
D03*
X1010000D02*
D03*
X760000D02*
D03*
X510000D02*
D03*
D15*
X1510000D02*
D03*
D16*
X-557500Y1300000D02*
D03*
X400001Y600000D02*
D03*
X1800001D02*
D03*
X1600001D02*
D03*
Y400000D02*
D03*
X1800001D02*
D03*
X1600001Y-0D02*
D03*
X1400001D02*
D03*
X1800001Y200000D02*
D03*
X1600001D02*
D03*
X1400001D02*
D03*
X1454500Y1300000D02*
D03*
X1200500D02*
D03*
X946500D02*
D03*
X692500D02*
D03*
X-303500D02*
D03*
X-49500D02*
D03*
X204500D02*
D03*
X400001Y-0D02*
D03*
X200001D02*
D03*
X400001Y200000D02*
D03*
X200001D02*
D03*
X1D02*
D03*
X-200000Y-0D02*
D03*
X-400000D02*
D03*
X-200000Y200000D02*
D03*
X-400000D02*
D03*
X-600000D02*
D03*
Y-0D02*
D03*
X-800000D02*
D03*
Y200000D02*
D03*
Y400000D02*
D03*
X-1000000Y200000D02*
D03*
Y400000D02*
D03*
X-800000Y600000D02*
D03*
X-1000000D02*
D03*
X946500Y600000D02*
D03*
X-515000Y0D02*
D03*
X525000D02*
D03*
X605000D02*
D03*
X685000D02*
D03*
X765000D02*
D03*
X845000D02*
D03*
X925000D02*
D03*
X1005000D02*
D03*
X1085000D02*
D03*
X1454500Y600000D02*
D03*
X1327500D02*
D03*
X1200500D02*
D03*
X1073500D02*
D03*
X819500D02*
D03*
X692500D02*
D03*
X565500D02*
D03*
X-684500D02*
D03*
X-430500D02*
D03*
X-176500D02*
D03*
X77500D02*
D03*
X204500D02*
D03*
X-49500D02*
D03*
X-303500D02*
D03*
X-557500D02*
D03*
X1260008Y1756500D02*
D03*
X1010008D02*
D03*
X760008D02*
D03*
X510008D02*
D03*
X260008D02*
D03*
X10008D02*
D03*
X-239992D02*
D03*
X-489992D02*
D03*
X1327500Y1300000D02*
D03*
X1073500D02*
D03*
X819500D02*
D03*
X565500D02*
D03*
X77500D02*
D03*
X-176500D02*
D03*
X-430500D02*
D03*
X-684500D02*
D03*
%TF.MD5,0940d721768689801bbeb83206548276*%
M02*
