%TF.GenerationSoftware,Altium Limited,Altium Designer,23.3.1 (30)*%
G04 Layer_Physical_Order=3*
G04 Layer_Color=16440176*
%FSLAX45Y45*%
%MOMM*%
%TF.SameCoordinates,FDB9E7A7-A389-4C7E-9334-FC0DF1D9A675*%
%TF.FilePolarity,Positive*%
%TF.FileFunction,Copper,L3,Inr,Signal*%
%TF.Part,Single*%
G01*
G75*
%TA.AperFunction,Conductor*%
%ADD12C,0.30000*%
%TA.AperFunction,ComponentPad*%
%ADD14C,1.35000*%
%TA.AperFunction,ViaPad*%
%ADD16C,0.50000*%
%ADD17C,3.00000*%
G36*
X1859512Y20488D02*
X1750000D01*
X1749377Y20364D01*
X1748749Y20458D01*
X1740908Y20072D01*
X1739076Y19613D01*
X1737186D01*
X1721805Y16554D01*
X1719485Y15593D01*
X1717023Y15103D01*
X1702534Y9102D01*
X1700447Y7707D01*
X1698127Y6746D01*
X1685088Y-1966D01*
X1683312Y-3742D01*
X1681225Y-5136D01*
X1670136Y-16226D01*
X1668742Y-18312D01*
X1666966Y-20088D01*
X1658253Y-33128D01*
X1657292Y-35447D01*
X1655898Y-37535D01*
X1649896Y-52024D01*
X1649407Y-54486D01*
X1648446Y-56805D01*
X1645386Y-72186D01*
Y-74076D01*
X1644927Y-75909D01*
X1644542Y-83750D01*
X1644636Y-84377D01*
X1644512Y-85000D01*
Y-299512D01*
X100488D01*
X100488Y0D01*
X100324Y829D01*
X100434Y1668D01*
X99792Y11457D01*
X99142Y13881D01*
X98978Y16386D01*
X93911Y35298D01*
X92436Y38289D01*
X91364Y41445D01*
X81575Y58401D01*
X79377Y60907D01*
X77524Y63680D01*
X63680Y77524D01*
X60908Y79377D01*
X58401Y81575D01*
X41445Y91365D01*
X38288Y92436D01*
X35298Y93911D01*
X16387Y98978D01*
X13060Y99196D01*
X9789Y99847D01*
X-9789D01*
X-13059Y99196D01*
X-16387Y98978D01*
X-35298Y93911D01*
X-38290Y92436D01*
X-41446Y91364D01*
X-58401Y81575D01*
X-60908Y79377D01*
X-63680Y77524D01*
X-77525Y63680D01*
X-79377Y60908D01*
X-81575Y58401D01*
X-91365Y41445D01*
X-92436Y38288D01*
X-93911Y35298D01*
X-98978Y16387D01*
X-99142Y13882D01*
X-99792Y11456D01*
X-100434Y1667D01*
X-100324Y829D01*
X-100488Y0D01*
Y-299512D01*
X-874512D01*
Y-85000D01*
X-874636Y-84377D01*
X-874542Y-83749D01*
X-874928Y-75908D01*
X-875387Y-74076D01*
Y-72186D01*
X-878446Y-56805D01*
X-879407Y-54485D01*
X-879897Y-52023D01*
X-885898Y-37535D01*
X-887293Y-35448D01*
X-888253Y-33128D01*
X-896966Y-20088D01*
X-898742Y-18312D01*
X-900136Y-16226D01*
X-911226Y-5136D01*
X-913312Y-3742D01*
X-915088Y-1966D01*
X-928128Y6746D01*
X-930447Y7707D01*
X-932535Y9102D01*
X-947024Y15103D01*
X-949486Y15593D01*
X-951805Y16554D01*
X-967186Y19613D01*
X-969076D01*
X-970908Y20072D01*
X-978749Y20458D01*
X-979377Y20364D01*
X-980000Y20488D01*
X-1089512D01*
X-1089512Y863600D01*
X1859511D01*
X1859512Y20488D01*
D02*
G37*
%LPC*%
G36*
X1270000Y787490D02*
X-622300D01*
X-632054Y785549D01*
X-640324Y780024D01*
X-702524Y717824D01*
X-708049Y709555D01*
X-709990Y699800D01*
Y635881D01*
X-710323Y635095D01*
X-710347Y632451D01*
X-710526Y628058D01*
X-710855Y624836D01*
X-711005Y623966D01*
X-711125Y623471D01*
X-711223Y623272D01*
X-711232Y623149D01*
X-711348Y622809D01*
X-711338Y622659D01*
X-714172Y619826D01*
X-719500Y606962D01*
Y593038D01*
X-714172Y580174D01*
X-711338Y577340D01*
X-711348Y577191D01*
X-711232Y576850D01*
X-711223Y576728D01*
X-711125Y576529D01*
X-711005Y576033D01*
X-710886Y575344D01*
X-710346Y567398D01*
X-710323Y564904D01*
X-709990Y564118D01*
Y392400D01*
X-708049Y382646D01*
X-702524Y374376D01*
X-540490Y212342D01*
Y35882D01*
X-540823Y35095D01*
X-540847Y32451D01*
X-541026Y28059D01*
X-541355Y24836D01*
X-541505Y23967D01*
X-541625Y23471D01*
X-541723Y23272D01*
X-541732Y23150D01*
X-541848Y22809D01*
X-541838Y22660D01*
X-544672Y19826D01*
X-550000Y6962D01*
Y-6962D01*
X-544672Y-19826D01*
X-534826Y-29672D01*
X-521962Y-35000D01*
X-508038D01*
X-495174Y-29672D01*
X-485328Y-19826D01*
X-480000Y-6962D01*
Y6962D01*
X-485328Y19826D01*
X-488162Y22660D01*
X-488152Y22809D01*
X-488268Y23150D01*
X-488277Y23272D01*
X-488375Y23471D01*
X-488495Y23967D01*
X-488614Y24656D01*
X-489154Y32602D01*
X-489177Y35096D01*
X-489510Y35882D01*
Y222900D01*
X-491451Y232655D01*
X-496976Y240924D01*
X-659010Y402958D01*
Y564118D01*
X-658677Y564904D01*
X-658653Y567549D01*
X-658474Y571941D01*
X-658145Y575164D01*
X-657995Y576033D01*
X-657875Y576529D01*
X-657777Y576728D01*
X-657768Y576850D01*
X-657652Y577191D01*
X-657662Y577340D01*
X-654829Y580174D01*
X-649500Y593038D01*
Y606962D01*
X-654829Y619826D01*
X-657662Y622659D01*
X-657652Y622809D01*
X-657768Y623149D01*
X-657777Y623272D01*
X-657875Y623471D01*
X-657995Y623966D01*
X-658114Y624656D01*
X-658655Y632602D01*
X-658677Y635096D01*
X-659010Y635882D01*
Y689242D01*
X-611742Y736510D01*
X-455990D01*
Y635881D01*
X-456323Y635095D01*
X-456347Y632451D01*
X-456526Y628058D01*
X-456855Y624836D01*
X-457005Y623966D01*
X-457125Y623471D01*
X-457223Y623272D01*
X-457232Y623149D01*
X-457348Y622809D01*
X-457338Y622659D01*
X-460172Y619826D01*
X-465500Y606962D01*
Y593038D01*
X-460172Y580174D01*
X-450326Y570328D01*
X-437462Y565000D01*
X-423538D01*
X-410674Y570328D01*
X-400829Y580174D01*
X-395500Y593038D01*
Y606962D01*
X-400829Y619826D01*
X-403662Y622659D01*
X-403652Y622809D01*
X-403768Y623149D01*
X-403777Y623272D01*
X-403875Y623471D01*
X-403995Y623966D01*
X-404114Y624656D01*
X-404655Y632602D01*
X-404677Y635096D01*
X-405010Y635882D01*
Y736510D01*
X-201990D01*
Y635881D01*
X-202323Y635095D01*
X-202347Y632451D01*
X-202526Y628058D01*
X-202855Y624836D01*
X-203005Y623966D01*
X-203125Y623471D01*
X-203223Y623272D01*
X-203232Y623149D01*
X-203348Y622809D01*
X-203338Y622659D01*
X-206172Y619826D01*
X-211500Y606962D01*
Y593038D01*
X-206172Y580174D01*
X-196326Y570328D01*
X-183462Y565000D01*
X-169538D01*
X-156674Y570328D01*
X-146829Y580174D01*
X-141500Y593038D01*
Y606962D01*
X-146829Y619826D01*
X-149662Y622659D01*
X-149652Y622809D01*
X-149768Y623149D01*
X-149777Y623272D01*
X-149875Y623471D01*
X-149995Y623966D01*
X-150114Y624656D01*
X-150655Y632602D01*
X-150677Y635096D01*
X-151010Y635882D01*
Y736510D01*
X52010D01*
Y635881D01*
X51677Y635095D01*
X51653Y632451D01*
X51474Y628058D01*
X51145Y624836D01*
X50995Y623966D01*
X50875Y623471D01*
X50777Y623272D01*
X50768Y623149D01*
X50652Y622809D01*
X50662Y622659D01*
X47828Y619826D01*
X42500Y606962D01*
Y593038D01*
X47828Y580174D01*
X57674Y570328D01*
X70538Y565000D01*
X84462D01*
X97326Y570328D01*
X107171Y580174D01*
X112500Y593038D01*
Y606962D01*
X107171Y619826D01*
X104338Y622659D01*
X104348Y622809D01*
X104232Y623149D01*
X104223Y623272D01*
X104125Y623471D01*
X104005Y623966D01*
X103886Y624656D01*
X103345Y632602D01*
X103323Y635096D01*
X102990Y635882D01*
Y736510D01*
X540010D01*
Y635881D01*
X539677Y635095D01*
X539653Y632451D01*
X539474Y628058D01*
X539145Y624836D01*
X538995Y623966D01*
X538875Y623471D01*
X538777Y623272D01*
X538768Y623149D01*
X538652Y622809D01*
X538662Y622659D01*
X535828Y619826D01*
X530500Y606962D01*
Y593038D01*
X535828Y580174D01*
X545674Y570328D01*
X558538Y565000D01*
X572462D01*
X585326Y570328D01*
X595172Y580174D01*
X600500Y593038D01*
Y606962D01*
X595172Y619826D01*
X592338Y622659D01*
X592348Y622809D01*
X592232Y623149D01*
X592223Y623272D01*
X592125Y623471D01*
X592005Y623966D01*
X591886Y624656D01*
X591346Y632602D01*
X591323Y635096D01*
X590990Y635882D01*
Y736510D01*
X794010D01*
Y635881D01*
X793677Y635095D01*
X793653Y632451D01*
X793474Y628058D01*
X793145Y624836D01*
X792995Y623966D01*
X792875Y623471D01*
X792777Y623272D01*
X792768Y623149D01*
X792652Y622809D01*
X792662Y622659D01*
X789828Y619826D01*
X784500Y606962D01*
Y593038D01*
X789828Y580174D01*
X799674Y570328D01*
X812538Y565000D01*
X826462D01*
X839326Y570328D01*
X849172Y580174D01*
X854500Y593038D01*
Y606962D01*
X849172Y619826D01*
X846338Y622659D01*
X846348Y622809D01*
X846232Y623149D01*
X846223Y623272D01*
X846125Y623471D01*
X846005Y623966D01*
X845886Y624656D01*
X845346Y632602D01*
X845323Y635096D01*
X844990Y635882D01*
Y736510D01*
X1048010D01*
Y635881D01*
X1047677Y635095D01*
X1047653Y632451D01*
X1047474Y628058D01*
X1047145Y624836D01*
X1046995Y623966D01*
X1046875Y623471D01*
X1046777Y623272D01*
X1046768Y623149D01*
X1046652Y622809D01*
X1046662Y622659D01*
X1043828Y619826D01*
X1038500Y606962D01*
Y593038D01*
X1043828Y580174D01*
X1053674Y570328D01*
X1066538Y565000D01*
X1080462D01*
X1093326Y570328D01*
X1103172Y580174D01*
X1108500Y593038D01*
Y606962D01*
X1103172Y619826D01*
X1100338Y622659D01*
X1100348Y622809D01*
X1100232Y623149D01*
X1100223Y623272D01*
X1100125Y623471D01*
X1100005Y623966D01*
X1099886Y624656D01*
X1099346Y632602D01*
X1099323Y635096D01*
X1098990Y635882D01*
Y736510D01*
X1259442D01*
X1302010Y693942D01*
Y635881D01*
X1301677Y635095D01*
X1301653Y632451D01*
X1301474Y628058D01*
X1301145Y624836D01*
X1300995Y623966D01*
X1300875Y623471D01*
X1300777Y623272D01*
X1300768Y623149D01*
X1300652Y622809D01*
X1300662Y622659D01*
X1297828Y619826D01*
X1292500Y606962D01*
Y593038D01*
X1297828Y580174D01*
X1307674Y570328D01*
X1320538Y565000D01*
X1334462D01*
X1347326Y570328D01*
X1357172Y580174D01*
X1362500Y593038D01*
Y606962D01*
X1357172Y619826D01*
X1354338Y622659D01*
X1354348Y622809D01*
X1354232Y623149D01*
X1354223Y623272D01*
X1354125Y623471D01*
X1354005Y623966D01*
X1353886Y624656D01*
X1353346Y632602D01*
X1353323Y635096D01*
X1352990Y635882D01*
Y704500D01*
X1351049Y714255D01*
X1345524Y722524D01*
X1288024Y780024D01*
X1279755Y785549D01*
X1270000Y787490D01*
D02*
G37*
G36*
X1461462Y635000D02*
X1447538D01*
X1434674Y629671D01*
X1424828Y619826D01*
X1419500Y606962D01*
Y593038D01*
X1424828Y580174D01*
X1427662Y577340D01*
X1427652Y577191D01*
X1427768Y576850D01*
X1427777Y576728D01*
X1427875Y576529D01*
X1427995Y576033D01*
X1428114Y575344D01*
X1428654Y567398D01*
X1428677Y564904D01*
X1429010Y564118D01*
Y512558D01*
X1066976Y150524D01*
X1061451Y142254D01*
X1059510Y132500D01*
Y35882D01*
X1059176Y35095D01*
X1059153Y32451D01*
X1058973Y28059D01*
X1058645Y24836D01*
X1058495Y23967D01*
X1058375Y23471D01*
X1058277Y23272D01*
X1058268Y23150D01*
X1058152Y22809D01*
X1058162Y22660D01*
X1055328Y19826D01*
X1051733Y11147D01*
X1038267D01*
X1034672Y19826D01*
X1031838Y22660D01*
X1031848Y22809D01*
X1031732Y23150D01*
X1031723Y23272D01*
X1031625Y23471D01*
X1031505Y23967D01*
X1031386Y24656D01*
X1030846Y32602D01*
X1030823Y35096D01*
X1030490Y35882D01*
Y295942D01*
X1218524Y483976D01*
X1224049Y492245D01*
X1225990Y502000D01*
Y564118D01*
X1226323Y564904D01*
X1226347Y567549D01*
X1226526Y571941D01*
X1226855Y575164D01*
X1227005Y576033D01*
X1227125Y576529D01*
X1227223Y576728D01*
X1227232Y576850D01*
X1227348Y577191D01*
X1227338Y577340D01*
X1230172Y580174D01*
X1235500Y593038D01*
Y606962D01*
X1230172Y619826D01*
X1220326Y629671D01*
X1207462Y635000D01*
X1193538D01*
X1180674Y629671D01*
X1170828Y619826D01*
X1165500Y606962D01*
Y593038D01*
X1170828Y580174D01*
X1173662Y577340D01*
X1173652Y577191D01*
X1173768Y576850D01*
X1173777Y576728D01*
X1173875Y576529D01*
X1173995Y576033D01*
X1174114Y575344D01*
X1174654Y567398D01*
X1174677Y564904D01*
X1175010Y564118D01*
Y512558D01*
X986976Y324524D01*
X981451Y316255D01*
X979510Y306500D01*
Y35882D01*
X979177Y35095D01*
X979153Y32451D01*
X978974Y28059D01*
X978645Y24836D01*
X978495Y23967D01*
X978375Y23471D01*
X978277Y23272D01*
X978268Y23150D01*
X978152Y22809D01*
X978162Y22660D01*
X975329Y19826D01*
X971733Y11146D01*
X958267D01*
X954671Y19826D01*
X951838Y22660D01*
X951847Y22809D01*
X951731Y23150D01*
X951723Y23272D01*
X951625Y23471D01*
X951505Y23967D01*
X951386Y24656D01*
X950845Y32602D01*
X950823Y35096D01*
X950489Y35882D01*
Y469942D01*
X964524Y483976D01*
X970049Y492245D01*
X971990Y502000D01*
Y564118D01*
X972323Y564904D01*
X972347Y567549D01*
X972526Y571941D01*
X972855Y575164D01*
X973005Y576033D01*
X973125Y576529D01*
X973223Y576728D01*
X973232Y576850D01*
X973348Y577191D01*
X973338Y577340D01*
X976172Y580174D01*
X981500Y593038D01*
Y606962D01*
X976172Y619826D01*
X966326Y629671D01*
X953462Y635000D01*
X939538D01*
X926674Y629671D01*
X916828Y619826D01*
X911500Y606962D01*
Y593038D01*
X916828Y580174D01*
X919662Y577340D01*
X919652Y577191D01*
X919768Y576850D01*
X919777Y576728D01*
X919875Y576529D01*
X919995Y576033D01*
X920114Y575344D01*
X920654Y567398D01*
X920677Y564904D01*
X921010Y564118D01*
Y512558D01*
X906976Y498524D01*
X901450Y490254D01*
X899510Y480500D01*
Y35882D01*
X899176Y35095D01*
X899153Y32451D01*
X898973Y28059D01*
X898644Y24836D01*
X898495Y23967D01*
X898375Y23471D01*
X898276Y23272D01*
X898268Y23150D01*
X898152Y22809D01*
X898162Y22660D01*
X895328Y19826D01*
X891733Y11147D01*
X878266D01*
X874671Y19826D01*
X871838Y22660D01*
X871847Y22809D01*
X871732Y23150D01*
X871723Y23272D01*
X871625Y23471D01*
X871505Y23967D01*
X871386Y24656D01*
X870845Y32602D01*
X870823Y35096D01*
X870489Y35882D01*
Y348800D01*
X868549Y358555D01*
X863024Y366824D01*
X717990Y511858D01*
Y564118D01*
X718323Y564904D01*
X718347Y567549D01*
X718526Y571941D01*
X718855Y575164D01*
X719005Y576033D01*
X719125Y576529D01*
X719223Y576728D01*
X719232Y576850D01*
X719348Y577191D01*
X719338Y577340D01*
X722172Y580174D01*
X727500Y593038D01*
Y606962D01*
X722172Y619826D01*
X712326Y629671D01*
X699462Y635000D01*
X685538D01*
X672674Y629671D01*
X662828Y619826D01*
X657500Y606962D01*
Y593038D01*
X662828Y580174D01*
X665662Y577340D01*
X665652Y577191D01*
X665768Y576850D01*
X665777Y576728D01*
X665875Y576529D01*
X665995Y576033D01*
X666114Y575344D01*
X666654Y567398D01*
X666677Y564904D01*
X667010Y564118D01*
Y501300D01*
X668951Y491546D01*
X674476Y483276D01*
X819510Y338242D01*
Y35882D01*
X819176Y35095D01*
X819153Y32451D01*
X818973Y28059D01*
X818645Y24836D01*
X818495Y23967D01*
X818375Y23471D01*
X818276Y23272D01*
X818268Y23150D01*
X818152Y22809D01*
X818162Y22660D01*
X815328Y19826D01*
X811733Y11147D01*
X798267D01*
X794672Y19826D01*
X791838Y22660D01*
X791848Y22809D01*
X791732Y23150D01*
X791723Y23272D01*
X791625Y23471D01*
X791505Y23967D01*
X791386Y24656D01*
X790846Y32602D01*
X790823Y35096D01*
X790490Y35882D01*
Y212900D01*
X788549Y222655D01*
X783024Y230924D01*
X513324Y500624D01*
X505055Y506149D01*
X495300Y508090D01*
X277258D01*
X229990Y555358D01*
Y564118D01*
X230323Y564904D01*
X230347Y567549D01*
X230526Y571941D01*
X230855Y575164D01*
X231005Y576033D01*
X231125Y576529D01*
X231223Y576728D01*
X231232Y576850D01*
X231348Y577191D01*
X231338Y577340D01*
X234171Y580174D01*
X239500Y593038D01*
Y606962D01*
X234171Y619826D01*
X224326Y629671D01*
X211462Y635000D01*
X197538D01*
X184674Y629671D01*
X174828Y619826D01*
X169500Y606962D01*
Y593038D01*
X174828Y580174D01*
X177662Y577340D01*
X177652Y577191D01*
X177768Y576850D01*
X177777Y576728D01*
X177875Y576529D01*
X177995Y576033D01*
X178114Y575344D01*
X178654Y567398D01*
X178677Y564904D01*
X179010Y564118D01*
Y544800D01*
X180951Y535046D01*
X186476Y526776D01*
X233430Y479823D01*
X228569Y468090D01*
X12458D01*
X-24010Y504558D01*
Y564118D01*
X-23677Y564904D01*
X-23653Y567549D01*
X-23474Y571941D01*
X-23145Y575164D01*
X-22995Y576033D01*
X-22875Y576529D01*
X-22777Y576728D01*
X-22768Y576850D01*
X-22652Y577191D01*
X-22662Y577340D01*
X-19829Y580174D01*
X-14500Y593038D01*
Y606962D01*
X-19829Y619826D01*
X-29674Y629671D01*
X-42538Y635000D01*
X-56462D01*
X-69326Y629671D01*
X-79172Y619826D01*
X-84500Y606962D01*
Y593038D01*
X-79172Y580174D01*
X-76338Y577340D01*
X-76348Y577191D01*
X-76232Y576850D01*
X-76223Y576728D01*
X-76125Y576529D01*
X-76005Y576033D01*
X-75886Y575344D01*
X-75346Y567398D01*
X-75323Y564904D01*
X-74990Y564118D01*
Y494000D01*
X-73049Y484245D01*
X-67524Y475976D01*
X-31371Y439823D01*
X-36231Y428090D01*
X-214242D01*
X-278010Y491858D01*
Y564118D01*
X-277677Y564904D01*
X-277653Y567549D01*
X-277474Y571941D01*
X-277145Y575164D01*
X-276995Y576033D01*
X-276875Y576529D01*
X-276777Y576728D01*
X-276768Y576850D01*
X-276652Y577191D01*
X-276662Y577340D01*
X-273829Y580174D01*
X-268500Y593038D01*
Y606962D01*
X-273829Y619826D01*
X-283674Y629671D01*
X-296538Y635000D01*
X-310462D01*
X-323326Y629671D01*
X-333172Y619826D01*
X-338500Y606962D01*
Y593038D01*
X-333172Y580174D01*
X-330338Y577340D01*
X-330348Y577191D01*
X-330232Y576850D01*
X-330223Y576728D01*
X-330125Y576529D01*
X-330005Y576033D01*
X-329886Y575344D01*
X-329346Y567398D01*
X-329323Y564904D01*
X-328990Y564118D01*
Y481300D01*
X-327049Y471545D01*
X-321524Y463276D01*
X-258071Y399823D01*
X-262931Y388090D01*
X-453642D01*
X-532010Y466458D01*
Y564118D01*
X-531677Y564904D01*
X-531653Y567549D01*
X-531474Y571941D01*
X-531145Y575164D01*
X-530995Y576033D01*
X-530875Y576529D01*
X-530777Y576728D01*
X-530768Y576850D01*
X-530652Y577191D01*
X-530662Y577340D01*
X-527829Y580174D01*
X-522500Y593038D01*
Y606962D01*
X-527829Y619826D01*
X-537674Y629671D01*
X-550538Y635000D01*
X-564462D01*
X-577326Y629671D01*
X-587172Y619826D01*
X-592500Y606962D01*
Y593038D01*
X-587172Y580174D01*
X-584338Y577340D01*
X-584348Y577191D01*
X-584232Y576850D01*
X-584223Y576728D01*
X-584125Y576529D01*
X-584005Y576033D01*
X-583886Y575344D01*
X-583346Y567398D01*
X-583323Y564904D01*
X-582990Y564118D01*
Y455900D01*
X-581049Y446145D01*
X-575524Y437876D01*
X-482224Y344576D01*
X-473955Y339051D01*
X-464200Y337111D01*
X435037D01*
X499510Y272637D01*
Y35882D01*
X499177Y35095D01*
X499153Y32451D01*
X498974Y28059D01*
X498645Y24836D01*
X498495Y23967D01*
X498375Y23471D01*
X498277Y23272D01*
X498268Y23150D01*
X498152Y22809D01*
X498162Y22660D01*
X495328Y19826D01*
X490000Y6962D01*
Y-6962D01*
X495328Y-19826D01*
X505174Y-29672D01*
X518038Y-35000D01*
X531962D01*
X544826Y-29672D01*
X554671Y-19826D01*
X558267Y-11147D01*
X571733D01*
X575328Y-19826D01*
X585174Y-29672D01*
X598038Y-35000D01*
X611962D01*
X624826Y-29672D01*
X634671Y-19826D01*
X638267Y-11146D01*
X651733D01*
X655328Y-19826D01*
X665174Y-29672D01*
X678038Y-35000D01*
X691962D01*
X704826Y-29672D01*
X714671Y-19826D01*
X718267Y-11146D01*
X731733D01*
X735328Y-19826D01*
X745174Y-29672D01*
X758038Y-35000D01*
X771962D01*
X784826Y-29672D01*
X794672Y-19826D01*
X798267Y-11147D01*
X811733D01*
X815328Y-19826D01*
X825174Y-29672D01*
X838038Y-35000D01*
X851962D01*
X864826Y-29672D01*
X874671Y-19826D01*
X878266Y-11147D01*
X891733D01*
X895328Y-19826D01*
X905174Y-29672D01*
X918038Y-35000D01*
X931962D01*
X944826Y-29672D01*
X954671Y-19826D01*
X958267Y-11146D01*
X971733D01*
X975329Y-19826D01*
X985174Y-29672D01*
X998038Y-35000D01*
X1011962D01*
X1024826Y-29672D01*
X1034672Y-19826D01*
X1038267Y-11147D01*
X1051733D01*
X1055328Y-19826D01*
X1065174Y-29672D01*
X1078038Y-35000D01*
X1091962D01*
X1104826Y-29672D01*
X1114671Y-19826D01*
X1120000Y-6962D01*
Y6962D01*
X1114671Y19826D01*
X1111838Y22660D01*
X1111847Y22809D01*
X1111732Y23150D01*
X1111723Y23272D01*
X1111625Y23471D01*
X1111505Y23967D01*
X1111386Y24656D01*
X1110845Y32602D01*
X1110823Y35096D01*
X1110490Y35882D01*
Y121942D01*
X1472524Y483976D01*
X1478049Y492245D01*
X1479990Y502000D01*
Y564118D01*
X1480323Y564904D01*
X1480347Y567549D01*
X1480526Y571941D01*
X1480855Y575164D01*
X1481005Y576033D01*
X1481125Y576529D01*
X1481223Y576728D01*
X1481232Y576850D01*
X1481348Y577191D01*
X1481338Y577340D01*
X1484172Y580174D01*
X1489500Y593038D01*
Y606962D01*
X1484172Y619826D01*
X1474326Y629671D01*
X1461462Y635000D01*
D02*
G37*
%LPD*%
G36*
X1342525Y632183D02*
X1343125Y623365D01*
X1343400Y621773D01*
X1343725Y620426D01*
X1344100Y619323D01*
X1344525Y618466D01*
X1345000Y617853D01*
X1310000D01*
X1310475Y618466D01*
X1310900Y619323D01*
X1311275Y620426D01*
X1311600Y621773D01*
X1311875Y623365D01*
X1312275Y627284D01*
X1312475Y632183D01*
X1312500Y635000D01*
X1342500D01*
X1342525Y632183D01*
D02*
G37*
G36*
X1088525D02*
X1089125Y623365D01*
X1089400Y621773D01*
X1089725Y620426D01*
X1090100Y619323D01*
X1090525Y618466D01*
X1091000Y617853D01*
X1056000D01*
X1056475Y618466D01*
X1056900Y619323D01*
X1057275Y620426D01*
X1057600Y621773D01*
X1057875Y623365D01*
X1058275Y627284D01*
X1058475Y632183D01*
X1058500Y635000D01*
X1088500D01*
X1088525Y632183D01*
D02*
G37*
G36*
X834525D02*
X835125Y623365D01*
X835400Y621773D01*
X835725Y620426D01*
X836100Y619323D01*
X836525Y618466D01*
X837000Y617853D01*
X802000D01*
X802475Y618466D01*
X802900Y619323D01*
X803275Y620426D01*
X803600Y621773D01*
X803875Y623365D01*
X804275Y627284D01*
X804475Y632183D01*
X804500Y635000D01*
X834500D01*
X834525Y632183D01*
D02*
G37*
G36*
X580525D02*
X581125Y623365D01*
X581400Y621773D01*
X581725Y620426D01*
X582100Y619323D01*
X582525Y618466D01*
X583000Y617853D01*
X548000D01*
X548475Y618466D01*
X548900Y619323D01*
X549275Y620426D01*
X549600Y621773D01*
X549875Y623365D01*
X550275Y627284D01*
X550475Y632183D01*
X550500Y635000D01*
X580500D01*
X580525Y632183D01*
D02*
G37*
G36*
X92525D02*
X93125Y623365D01*
X93400Y621773D01*
X93725Y620426D01*
X94100Y619323D01*
X94525Y618466D01*
X95000Y617853D01*
X60000D01*
X60475Y618466D01*
X60900Y619323D01*
X61275Y620426D01*
X61600Y621773D01*
X61875Y623365D01*
X62275Y627284D01*
X62475Y632183D01*
X62500Y635000D01*
X92500D01*
X92525Y632183D01*
D02*
G37*
G36*
X-161475D02*
X-160875Y623365D01*
X-160600Y621773D01*
X-160275Y620426D01*
X-159900Y619323D01*
X-159475Y618466D01*
X-159000Y617853D01*
X-194000D01*
X-193525Y618466D01*
X-193100Y619323D01*
X-192725Y620426D01*
X-192400Y621773D01*
X-192125Y623365D01*
X-191725Y627284D01*
X-191525Y632183D01*
X-191500Y635000D01*
X-161500D01*
X-161475Y632183D01*
D02*
G37*
G36*
X-415475D02*
X-414875Y623365D01*
X-414600Y621773D01*
X-414275Y620426D01*
X-413900Y619323D01*
X-413475Y618466D01*
X-413000Y617853D01*
X-448000D01*
X-447525Y618466D01*
X-447100Y619323D01*
X-446725Y620426D01*
X-446400Y621773D01*
X-446125Y623365D01*
X-445725Y627284D01*
X-445525Y632183D01*
X-445500Y635000D01*
X-415500D01*
X-415475Y632183D01*
D02*
G37*
G36*
X-669475D02*
X-668875Y623365D01*
X-668600Y621773D01*
X-668275Y620426D01*
X-667900Y619323D01*
X-667475Y618466D01*
X-667000Y617853D01*
X-702000D01*
X-701525Y618466D01*
X-701100Y619323D01*
X-700725Y620426D01*
X-700400Y621773D01*
X-700125Y623365D01*
X-699725Y627284D01*
X-699525Y632183D01*
X-699500Y635000D01*
X-669500D01*
X-669475Y632183D01*
D02*
G37*
G36*
X-667475Y581534D02*
X-667900Y580676D01*
X-668275Y579574D01*
X-668600Y578227D01*
X-668875Y576634D01*
X-669275Y572715D01*
X-669475Y567816D01*
X-669500Y565000D01*
X-699500D01*
X-699525Y567816D01*
X-700125Y576634D01*
X-700400Y578227D01*
X-700725Y579574D01*
X-701100Y580676D01*
X-701525Y581534D01*
X-702000Y582146D01*
X-667000D01*
X-667475Y581534D01*
D02*
G37*
G36*
X-499975Y32183D02*
X-499375Y23365D01*
X-499100Y21773D01*
X-498775Y20426D01*
X-498400Y19324D01*
X-497975Y18466D01*
X-497500Y17854D01*
X-532500D01*
X-532025Y18466D01*
X-531600Y19324D01*
X-531225Y20426D01*
X-530900Y21773D01*
X-530625Y23365D01*
X-530225Y27284D01*
X-530025Y32183D01*
X-530000Y35000D01*
X-500000D01*
X-499975Y32183D01*
D02*
G37*
G36*
X1471525Y581534D02*
X1471100Y580676D01*
X1470725Y579574D01*
X1470400Y578227D01*
X1470125Y576634D01*
X1469725Y572715D01*
X1469525Y567816D01*
X1469500Y565000D01*
X1439500D01*
X1439475Y567816D01*
X1438875Y576634D01*
X1438600Y578227D01*
X1438275Y579574D01*
X1437900Y580676D01*
X1437475Y581534D01*
X1437000Y582146D01*
X1472000D01*
X1471525Y581534D01*
D02*
G37*
G36*
X1217525D02*
X1217100Y580676D01*
X1216725Y579574D01*
X1216400Y578227D01*
X1216125Y576634D01*
X1215725Y572715D01*
X1215525Y567816D01*
X1215500Y565000D01*
X1185500D01*
X1185475Y567816D01*
X1184875Y576634D01*
X1184600Y578227D01*
X1184275Y579574D01*
X1183900Y580676D01*
X1183475Y581534D01*
X1183000Y582146D01*
X1218000D01*
X1217525Y581534D01*
D02*
G37*
G36*
X963525D02*
X963100Y580676D01*
X962725Y579574D01*
X962400Y578227D01*
X962125Y576634D01*
X961725Y572715D01*
X961525Y567816D01*
X961500Y565000D01*
X931500D01*
X931475Y567816D01*
X930875Y576634D01*
X930600Y578227D01*
X930275Y579574D01*
X929900Y580676D01*
X929475Y581534D01*
X929000Y582146D01*
X964000D01*
X963525Y581534D01*
D02*
G37*
G36*
X709525D02*
X709100Y580676D01*
X708725Y579574D01*
X708400Y578227D01*
X708125Y576634D01*
X707725Y572715D01*
X707525Y567816D01*
X707500Y565000D01*
X677500D01*
X677475Y567816D01*
X676875Y576634D01*
X676600Y578227D01*
X676275Y579574D01*
X675900Y580676D01*
X675475Y581534D01*
X675000Y582146D01*
X710000D01*
X709525Y581534D01*
D02*
G37*
G36*
X221525D02*
X221100Y580676D01*
X220725Y579574D01*
X220400Y578227D01*
X220125Y576634D01*
X219725Y572715D01*
X219525Y567816D01*
X219500Y565000D01*
X189500D01*
X189475Y567816D01*
X188875Y576634D01*
X188600Y578227D01*
X188275Y579574D01*
X187900Y580676D01*
X187475Y581534D01*
X187000Y582146D01*
X222000D01*
X221525Y581534D01*
D02*
G37*
G36*
X-32475D02*
X-32900Y580676D01*
X-33275Y579574D01*
X-33600Y578227D01*
X-33875Y576634D01*
X-34275Y572715D01*
X-34475Y567816D01*
X-34500Y565000D01*
X-64500D01*
X-64525Y567816D01*
X-65125Y576634D01*
X-65400Y578227D01*
X-65725Y579574D01*
X-66100Y580676D01*
X-66525Y581534D01*
X-67000Y582146D01*
X-32000D01*
X-32475Y581534D01*
D02*
G37*
G36*
X-286475D02*
X-286900Y580676D01*
X-287275Y579574D01*
X-287600Y578227D01*
X-287875Y576634D01*
X-288275Y572715D01*
X-288475Y567816D01*
X-288500Y565000D01*
X-318500D01*
X-318525Y567816D01*
X-319125Y576634D01*
X-319400Y578227D01*
X-319725Y579574D01*
X-320100Y580676D01*
X-320525Y581534D01*
X-321000Y582146D01*
X-286000D01*
X-286475Y581534D01*
D02*
G37*
G36*
X-540475D02*
X-540900Y580676D01*
X-541275Y579574D01*
X-541600Y578227D01*
X-541875Y576634D01*
X-542275Y572715D01*
X-542475Y567816D01*
X-542500Y565000D01*
X-572500D01*
X-572525Y567816D01*
X-573125Y576634D01*
X-573400Y578227D01*
X-573725Y579574D01*
X-574100Y580676D01*
X-574525Y581534D01*
X-575000Y582146D01*
X-540000D01*
X-540475Y581534D01*
D02*
G37*
G36*
X1100025Y32183D02*
X1100625Y23365D01*
X1100900Y21773D01*
X1101225Y20426D01*
X1101600Y19324D01*
X1102025Y18466D01*
X1102500Y17854D01*
X1067500D01*
X1067975Y18466D01*
X1068400Y19324D01*
X1068775Y20426D01*
X1069100Y21773D01*
X1069375Y23365D01*
X1069775Y27284D01*
X1069975Y32183D01*
X1070000Y35000D01*
X1100000D01*
X1100025Y32183D01*
D02*
G37*
G36*
X1020025D02*
X1020625Y23365D01*
X1020900Y21773D01*
X1021225Y20426D01*
X1021600Y19324D01*
X1022025Y18466D01*
X1022500Y17854D01*
X987500D01*
X987975Y18466D01*
X988400Y19324D01*
X988775Y20426D01*
X989100Y21773D01*
X989375Y23365D01*
X989775Y27284D01*
X989975Y32183D01*
X990000Y35000D01*
X1020000D01*
X1020025Y32183D01*
D02*
G37*
G36*
X940025D02*
X940625Y23365D01*
X940900Y21773D01*
X941225Y20426D01*
X941600Y19324D01*
X942025Y18466D01*
X942500Y17854D01*
X907500D01*
X907975Y18466D01*
X908400Y19324D01*
X908775Y20426D01*
X909100Y21773D01*
X909375Y23365D01*
X909775Y27284D01*
X909975Y32183D01*
X910000Y35000D01*
X940000D01*
X940025Y32183D01*
D02*
G37*
G36*
X860025D02*
X860625Y23365D01*
X860900Y21773D01*
X861225Y20426D01*
X861600Y19324D01*
X862025Y18466D01*
X862500Y17854D01*
X827500D01*
X827975Y18466D01*
X828400Y19324D01*
X828775Y20426D01*
X829100Y21773D01*
X829375Y23365D01*
X829775Y27284D01*
X829975Y32183D01*
X830000Y35000D01*
X860000D01*
X860025Y32183D01*
D02*
G37*
G36*
X780025D02*
X780625Y23365D01*
X780900Y21773D01*
X781225Y20426D01*
X781600Y19324D01*
X782025Y18466D01*
X782500Y17854D01*
X747500D01*
X747975Y18466D01*
X748400Y19324D01*
X748775Y20426D01*
X749100Y21773D01*
X749375Y23365D01*
X749775Y27284D01*
X749975Y32183D01*
X750000Y35000D01*
X780000D01*
X780025Y32183D01*
D02*
G37*
G36*
X700025D02*
X700625Y23365D01*
X700900Y21773D01*
X701225Y20426D01*
X701600Y19324D01*
X702025Y18466D01*
X702500Y17854D01*
X667500D01*
X667975Y18466D01*
X668400Y19324D01*
X668775Y20426D01*
X669100Y21773D01*
X669375Y23365D01*
X669775Y27284D01*
X669975Y32183D01*
X670000Y35000D01*
X700000D01*
X700025Y32183D01*
D02*
G37*
G36*
X620025D02*
X620625Y23365D01*
X620900Y21773D01*
X621225Y20426D01*
X621600Y19324D01*
X622025Y18466D01*
X622500Y17854D01*
X587500D01*
X587975Y18466D01*
X588400Y19324D01*
X588775Y20426D01*
X589100Y21773D01*
X589375Y23365D01*
X589775Y27284D01*
X589975Y32183D01*
X590000Y35000D01*
X620000D01*
X620025Y32183D01*
D02*
G37*
G36*
X540025D02*
X540625Y23365D01*
X540900Y21773D01*
X541225Y20426D01*
X541600Y19324D01*
X542025Y18466D01*
X542500Y17854D01*
X507500D01*
X507975Y18466D01*
X508400Y19324D01*
X508775Y20426D01*
X509100Y21773D01*
X509375Y23365D01*
X509775Y27284D01*
X509975Y32183D01*
X510000Y35000D01*
X540000D01*
X540025Y32183D01*
D02*
G37*
D12*
X-684500Y392400D02*
X-515000Y222900D01*
Y0D02*
Y222900D01*
X-684500Y392400D02*
Y600000D01*
X1073500D02*
Y760700D01*
X819500Y600000D02*
Y760700D01*
X565500Y600000D02*
Y760700D01*
X77500Y600000D02*
Y760700D01*
X-176500Y600000D02*
Y760700D01*
X-431800Y762000D02*
X1270000D01*
X-622300D02*
X-431800D01*
X-430500Y760700D01*
Y600000D02*
Y760700D01*
X-684500Y600000D02*
Y699800D01*
X-622300Y762000D01*
X1270000D02*
X1327500Y704500D01*
Y600000D02*
Y704500D01*
X-557500Y455900D02*
Y600000D01*
Y455900D02*
X-464200Y362600D01*
X445595D01*
X525000Y283195D01*
Y0D02*
Y283195D01*
X-303500Y481300D02*
Y600000D01*
X-224800Y402600D02*
X462163D01*
X-303500Y481300D02*
X-224800Y402600D01*
X462163D02*
X605000Y259764D01*
Y0D02*
Y259764D01*
X-49500Y494000D02*
Y600000D01*
X1900Y442600D02*
X478732D01*
X-49500Y494000D02*
X1900Y442600D01*
X478732D02*
X685000Y236332D01*
Y0D02*
Y236332D01*
X266700Y482600D02*
X495300D01*
X204500Y544800D02*
X266700Y482600D01*
X204500Y544800D02*
Y600000D01*
X495300Y482600D02*
X765000Y212900D01*
Y0D02*
Y212900D01*
X845000Y0D02*
Y348800D01*
X692500Y501300D02*
Y600000D01*
Y501300D02*
X845000Y348800D01*
X925000Y0D02*
Y480500D01*
X946500Y502000D02*
Y600000D01*
X925000Y480500D02*
X946500Y502000D01*
X1005000Y0D02*
Y306500D01*
X1200500Y502000D01*
Y600000D01*
X1454500Y502000D02*
Y600000D01*
X1085000Y132500D02*
X1454500Y502000D01*
X1085000Y0D02*
Y132500D01*
D14*
X10000Y2400000D02*
D03*
X260000D02*
D03*
X-740000D02*
D03*
X-240000D02*
D03*
X-490000D02*
D03*
X1510000D02*
D03*
X1260000D02*
D03*
X1010000D02*
D03*
X760000D02*
D03*
X510000D02*
D03*
D16*
X400001Y600000D02*
D03*
X1800001D02*
D03*
X1600001D02*
D03*
Y400000D02*
D03*
X1800001D02*
D03*
X1600001Y-0D02*
D03*
X1400001D02*
D03*
X1800001Y200000D02*
D03*
X1600001D02*
D03*
X1400001D02*
D03*
X400001Y-0D02*
D03*
X200001D02*
D03*
X400001Y200000D02*
D03*
X200001D02*
D03*
X1D02*
D03*
X-200000Y-0D02*
D03*
X-400000D02*
D03*
X-200000Y200000D02*
D03*
X-400000D02*
D03*
X-600000D02*
D03*
Y-0D02*
D03*
X-800000D02*
D03*
Y200000D02*
D03*
Y400000D02*
D03*
X-1000000Y200000D02*
D03*
Y400000D02*
D03*
X-800000Y600000D02*
D03*
X-1000000D02*
D03*
X946500Y600000D02*
D03*
X-515000Y0D02*
D03*
X525000D02*
D03*
X605000D02*
D03*
X685000D02*
D03*
X765000D02*
D03*
X845000D02*
D03*
X925000D02*
D03*
X1005000D02*
D03*
X1085000D02*
D03*
X1454500Y600000D02*
D03*
X1327500D02*
D03*
X1200500D02*
D03*
X1073500D02*
D03*
X819500D02*
D03*
X692500D02*
D03*
X565500D02*
D03*
X-684500D02*
D03*
X-430500D02*
D03*
X-176500D02*
D03*
X77500D02*
D03*
X204500D02*
D03*
X-49500D02*
D03*
X-303500D02*
D03*
X-557500D02*
D03*
D17*
X-825000Y4480000D02*
D03*
X1595000D02*
D03*
%TF.MD5,0ed93e22cf9b357b066ce9c8c5c12d2e*%
M02*
