%TF.GenerationSoftware,Altium Limited,Altium Designer,23.3.1 (30)*%
G04 Layer_Color=8388736*
%FSLAX45Y45*%
%MOMM*%
%TF.SameCoordinates,FDB9E7A7-A389-4C7E-9334-FC0DF1D9A675*%
%TF.FilePolarity,Negative*%
%TF.FileFunction,Soldermask,Top*%
%TF.Part,Single*%
G01*
G75*
%TA.AperFunction,NonConductor*%
%ADD25R,26.20000X2.92500*%
%TA.AperFunction,SMDPad,CuDef*%
%ADD26R,0.62000X0.52000*%
%TA.AperFunction,ConnectorPad*%
%ADD27R,0.62000X2.32000*%
%TA.AperFunction,ViaPad*%
%ADD28R,5.32000X5.32000*%
%TA.AperFunction,ComponentPad*%
%ADD29C,1.50240*%
%ADD30R,1.50240X1.50240*%
G36*
X1519900Y305000D02*
X-750100D01*
Y495000D01*
X1519900D01*
Y305000D01*
D02*
G37*
%LPC*%
G36*
X1146858Y461846D02*
D01*
X1122231Y447403D01*
Y428886D01*
X1110936D01*
D01*
Y409259D01*
X1122231D01*
Y368707D01*
Y366300D01*
Y364263D01*
Y362226D01*
X1122416Y360560D01*
Y357597D01*
X1122601Y355190D01*
X1122786Y353338D01*
Y352227D01*
X1122972Y351487D01*
Y351302D01*
X1123342Y349265D01*
X1123897Y347413D01*
X1124453Y345747D01*
X1125008Y344450D01*
X1125564Y343339D01*
X1125934Y342599D01*
X1126119Y342043D01*
X1126305Y341858D01*
X1127416Y340562D01*
X1128712Y339451D01*
X1131304Y337599D01*
X1132415Y337044D01*
X1133341Y336488D01*
X1134082Y336303D01*
X1134267Y336118D01*
X1136304Y335377D01*
X1138340Y334822D01*
X1140377Y334451D01*
X1142229Y334266D01*
X1143895Y334081D01*
X1145192Y333896D01*
X1110936D01*
X1165745D01*
D01*
X1146303D01*
X1150191Y334081D01*
X1153894Y334451D01*
X1157227Y335007D01*
X1160005Y335748D01*
X1162412Y336303D01*
X1164264Y336859D01*
X1165375Y337229D01*
X1165560Y337414D01*
X1165745D01*
X1163523Y356486D01*
X1161301Y355746D01*
X1159264Y355190D01*
X1157598Y354820D01*
X1156116Y354635D01*
X1155005Y354449D01*
X1154265Y354264D01*
X1153524D01*
X1151857Y354449D01*
X1150561Y354820D01*
X1149821Y355190D01*
X1149450Y355375D01*
X1148339Y356486D01*
X1147784Y357412D01*
X1147414Y358153D01*
X1147228Y358523D01*
Y358893D01*
X1147043Y359634D01*
Y361301D01*
Y363523D01*
X1146858Y365745D01*
Y367966D01*
Y369818D01*
Y370559D01*
Y371114D01*
Y371485D01*
Y371670D01*
Y409259D01*
X1163708D01*
Y428886D01*
X1146858D01*
Y461846D01*
D02*
G37*
G36*
X611173Y466475D02*
Y375188D01*
X585990Y382965D01*
X584509Y377965D01*
X582842Y373707D01*
X581176Y370188D01*
X579324Y367226D01*
X577843Y365004D01*
X576547Y363523D01*
X575621Y362597D01*
X575251Y362226D01*
X572288Y360004D01*
X569325Y358523D01*
X566363Y357412D01*
X563770Y356486D01*
X561363Y356116D01*
X559326Y355931D01*
X558586Y355746D01*
X557660D01*
X555067Y355931D01*
X552660Y356116D01*
X548216Y357412D01*
X544328Y358893D01*
X541180Y360930D01*
X538588Y362782D01*
X536736Y364263D01*
X535995Y365004D01*
X535440Y365559D01*
X535255Y365745D01*
X535070Y365930D01*
X533588Y367966D01*
X532292Y370374D01*
X530996Y372966D01*
X530070Y375743D01*
X528589Y381484D01*
X527478Y387224D01*
X527107Y390001D01*
X526922Y392408D01*
X526552Y394816D01*
Y396852D01*
X526367Y398334D01*
Y399630D01*
Y400556D01*
Y400741D01*
X526552Y405000D01*
X526737Y408888D01*
X527107Y412406D01*
X527663Y415739D01*
X528404Y418702D01*
X529144Y421479D01*
X529885Y423887D01*
X530811Y426109D01*
X531551Y427960D01*
X532292Y429627D01*
X533033Y430923D01*
X533773Y432034D01*
X534329Y432960D01*
X534699Y433515D01*
X535070Y433886D01*
Y434071D01*
X536736Y435922D01*
X538588Y437589D01*
X540439Y438885D01*
X542476Y439996D01*
X546365Y441848D01*
X550068Y443144D01*
X553216Y443885D01*
X554697Y444070D01*
X555808Y444255D01*
X556919Y444440D01*
X558215D01*
X561919Y444255D01*
X565252Y443514D01*
X568214Y442588D01*
X570807Y441477D01*
X572843Y440366D01*
X574325Y439441D01*
X575251Y438700D01*
X575621Y438515D01*
X578028Y436293D01*
X580250Y433700D01*
X581917Y431108D01*
X583213Y428516D01*
X584139Y426294D01*
X584694Y424627D01*
X585064Y423887D01*
Y423331D01*
X585250Y423146D01*
Y422961D01*
X610802Y429071D01*
X608951Y434441D01*
X606914Y439070D01*
X604692Y443144D01*
X602655Y446477D01*
X600618Y449069D01*
X599878Y450180D01*
X599137Y451106D01*
X598581Y451662D01*
X598026Y452217D01*
X597841Y452587D01*
X597656D01*
X594878Y454995D01*
X591730Y457217D01*
X588768Y459068D01*
X585620Y460549D01*
X582287Y462031D01*
X579139Y463142D01*
X575991Y464068D01*
X573029Y464808D01*
X570251Y465364D01*
X567659Y465734D01*
X565437Y466104D01*
X563400Y466290D01*
X561733Y466475D01*
X559511D01*
X554697Y466290D01*
X549883Y465734D01*
X545624Y464808D01*
X541365Y463697D01*
X537662Y462401D01*
X533959Y460920D01*
X530811Y459253D01*
X527848Y457587D01*
X525071Y455920D01*
X522849Y454254D01*
X520812Y452773D01*
X519145Y451476D01*
X517849Y450365D01*
X516923Y449440D01*
X516368Y448884D01*
X516183Y448699D01*
X513220Y445181D01*
X510813Y441477D01*
X508591Y437589D01*
X506739Y433515D01*
X505073Y429256D01*
X503776Y425183D01*
X502665Y421109D01*
X501740Y417221D01*
X500999Y413332D01*
X500629Y409999D01*
X500258Y406851D01*
X499888Y404259D01*
Y402037D01*
X499703Y400371D01*
Y398889D01*
X499888Y393334D01*
X500443Y388150D01*
X501184Y383150D01*
X502295Y378706D01*
X503406Y374447D01*
X504887Y370374D01*
X506369Y366856D01*
X507850Y363708D01*
X509331Y360745D01*
X510813Y358153D01*
X512294Y356116D01*
X513405Y354264D01*
X514516Y352968D01*
X515257Y351857D01*
X515812Y351302D01*
X515997Y351116D01*
X519145Y347969D01*
X522478Y345376D01*
X525996Y342969D01*
X529515Y341117D01*
X533033Y339451D01*
X536551Y337970D01*
X539884Y336859D01*
X543032Y335933D01*
X546180Y335192D01*
X548957Y334637D01*
X551549Y334266D01*
X553586Y334081D01*
X555438Y333896D01*
X556734Y333711D01*
X611173D01*
Y466475D01*
D02*
G37*
G36*
X1339245Y430923D02*
X1279252D01*
D01*
X1322951D01*
X1320729Y430738D01*
X1318877Y430553D01*
X1317026Y429997D01*
X1315544Y429442D01*
X1314248Y428886D01*
X1313137Y428516D01*
X1312582Y428145D01*
X1312396Y427960D01*
X1310545Y426664D01*
X1308878Y424812D01*
X1307027Y422776D01*
X1305545Y420739D01*
X1304064Y418702D01*
X1302953Y417035D01*
X1302212Y415924D01*
X1302027Y415739D01*
Y428886D01*
X1279252D01*
Y335933D01*
X1303879D01*
Y364448D01*
Y368707D01*
Y372596D01*
X1304064Y376114D01*
X1304249Y379262D01*
Y382224D01*
X1304434Y384631D01*
X1304619Y387039D01*
X1304805Y388890D01*
X1304990Y390557D01*
X1305175Y392038D01*
X1305360Y393149D01*
Y394075D01*
X1305545Y394630D01*
X1305730Y395186D01*
Y395556D01*
X1306471Y398149D01*
X1307397Y400371D01*
X1308323Y402222D01*
X1309249Y403518D01*
X1309989Y404629D01*
X1310730Y405370D01*
X1311100Y405740D01*
X1311285Y405926D01*
X1312767Y406851D01*
X1314248Y407592D01*
X1315729Y408148D01*
X1317026Y408518D01*
X1318137Y408703D01*
X1319248Y408888D01*
X1319988D01*
X1322025Y408703D01*
X1324062Y408333D01*
X1325914Y407592D01*
X1327765Y406851D01*
X1329247Y406111D01*
X1330358Y405370D01*
X1331283Y405000D01*
X1331469Y404815D01*
X1339245Y426109D01*
X1336283Y427775D01*
X1333505Y428886D01*
X1330728Y429812D01*
X1328136Y430367D01*
X1326099Y430738D01*
X1324432Y430923D01*
X1339245D01*
D02*
G37*
G36*
X1110380D02*
X1050387D01*
X1094086D01*
X1091864Y430738D01*
X1090012Y430553D01*
X1088160Y429997D01*
X1086679Y429442D01*
X1085383Y428886D01*
X1084272Y428516D01*
X1083716Y428145D01*
X1083531Y427960D01*
X1081680Y426664D01*
X1080013Y424812D01*
X1078161Y422776D01*
X1076680Y420739D01*
X1075199Y418702D01*
X1074088Y417035D01*
X1073347Y415924D01*
X1073162Y415739D01*
Y428886D01*
X1050387D01*
Y335933D01*
X1075014D01*
Y364448D01*
Y368707D01*
Y372596D01*
X1075199Y376114D01*
X1075384Y379262D01*
Y382224D01*
X1075569Y384631D01*
X1075754Y387039D01*
X1075939Y388890D01*
X1076125Y390557D01*
X1076310Y392038D01*
X1076495Y393149D01*
Y394075D01*
X1076680Y394630D01*
X1076865Y395186D01*
Y395556D01*
X1077606Y398149D01*
X1078532Y400371D01*
X1079458Y402222D01*
X1080383Y403518D01*
X1081124Y404629D01*
X1081865Y405370D01*
X1082235Y405740D01*
X1082420Y405926D01*
X1083902Y406851D01*
X1085383Y407592D01*
X1086864Y408148D01*
X1088160Y408518D01*
X1089271Y408703D01*
X1090382Y408888D01*
X1091123D01*
X1093160Y408703D01*
X1095197Y408333D01*
X1097048Y407592D01*
X1098900Y406851D01*
X1100381Y406111D01*
X1101492Y405370D01*
X1102418Y405000D01*
X1102603Y404815D01*
X1110380Y426109D01*
X1107418Y427775D01*
X1104640Y428886D01*
X1101863Y429812D01*
X1099270Y430367D01*
X1097234Y430738D01*
X1095567Y430923D01*
X1110380D01*
D02*
G37*
G36*
X797079D02*
X795783D01*
X792450Y430738D01*
X789117Y430182D01*
X786155Y429442D01*
X783192Y428516D01*
X780414Y427220D01*
X778007Y425923D01*
X775600Y424442D01*
X773563Y423146D01*
X771712Y421665D01*
X770045Y420183D01*
X768564Y418887D01*
X767453Y417591D01*
X766527Y416665D01*
X765786Y415924D01*
X765416Y415369D01*
X765231Y415184D01*
Y428886D01*
X742455D01*
Y335933D01*
X767083D01*
Y377780D01*
Y380558D01*
Y383150D01*
X767268Y385557D01*
X767453Y387594D01*
Y389631D01*
X767638Y391297D01*
X767823Y392964D01*
X768008Y394260D01*
X768379Y396482D01*
X768564Y397963D01*
X768934Y398889D01*
Y399074D01*
X769675Y401111D01*
X770786Y403148D01*
X771897Y404629D01*
X773008Y406111D01*
X774119Y407037D01*
X775045Y407962D01*
X775600Y408333D01*
X775785Y408518D01*
X777822Y409629D01*
X779859Y410555D01*
X781711Y411110D01*
X783562Y411666D01*
X785044Y411851D01*
X786155Y412036D01*
X787266D01*
X789117Y411851D01*
X790784Y411666D01*
X792080Y411295D01*
X793376Y410740D01*
X794487Y410184D01*
X795228Y409814D01*
X795598Y409629D01*
X795783Y409444D01*
X797079Y408518D01*
X798005Y407407D01*
X799672Y405185D01*
X800227Y404074D01*
X800598Y403333D01*
X800968Y402778D01*
Y402593D01*
X801338Y401667D01*
X801523Y400556D01*
X801894Y397778D01*
X802264Y394445D01*
X802449Y391297D01*
X802634Y388150D01*
Y386853D01*
Y385557D01*
Y384631D01*
Y383891D01*
Y383335D01*
Y383150D01*
Y335933D01*
X827261D01*
Y397408D01*
X827076Y400556D01*
X826891Y403518D01*
X826521Y405740D01*
X826336Y407592D01*
X825965Y408888D01*
X825780Y409814D01*
Y409999D01*
X825225Y412221D01*
X824484Y414073D01*
X823743Y415924D01*
X822818Y417406D01*
X822077Y418702D01*
X821521Y419628D01*
X821151Y420183D01*
X820966Y420368D01*
X819485Y422035D01*
X817818Y423516D01*
X816152Y424812D01*
X814485Y425923D01*
X813004Y426849D01*
X811708Y427405D01*
X810967Y427775D01*
X810597Y427960D01*
X808004Y428886D01*
X805412Y429627D01*
X803005Y430182D01*
X800783Y430553D01*
X798746Y430738D01*
X797079Y430923D01*
D02*
G37*
G36*
X-283920Y464808D02*
Y399074D01*
X-284105Y405740D01*
X-284475Y411851D01*
X-285031Y417406D01*
X-285957Y422590D01*
X-286882Y427405D01*
X-287808Y431663D01*
X-289104Y435552D01*
X-290215Y438885D01*
X-291326Y442033D01*
X-292437Y444440D01*
X-293548Y446662D01*
X-294474Y448513D01*
X-295400Y449810D01*
X-295955Y450735D01*
X-296326Y451291D01*
X-296511Y451476D01*
X-298548Y453883D01*
X-300770Y455920D01*
X-303177Y457587D01*
X-305584Y459253D01*
X-307991Y460549D01*
X-310398Y461475D01*
X-312620Y462401D01*
X-315028Y463142D01*
X-317250Y463697D01*
X-319101Y464067D01*
X-320953Y464438D01*
X-322434Y464623D01*
X-323730Y464808D01*
X-325582D01*
X-328915Y464623D01*
X-332063Y464253D01*
X-335211Y463512D01*
X-337988Y462771D01*
X-340580Y461660D01*
X-342988Y460549D01*
X-345024Y459438D01*
X-347061Y458142D01*
X-348728Y456846D01*
X-350394Y455735D01*
X-351690Y454624D01*
X-352616Y453513D01*
X-353542Y452772D01*
X-354098Y452032D01*
X-354468Y451661D01*
X-354653Y451476D01*
X-356875Y448328D01*
X-358727Y444625D01*
X-360393Y440736D01*
X-361875Y436663D01*
X-362986Y432404D01*
X-364097Y427960D01*
X-364837Y423701D01*
X-365578Y419442D01*
X-365948Y415369D01*
X-366319Y411665D01*
X-366689Y408147D01*
X-366874Y405185D01*
X-367059Y402777D01*
D01*
D01*
Y399259D01*
X-366874Y392593D01*
X-366504Y386483D01*
X-365948Y380743D01*
X-365208Y375558D01*
X-364467Y370929D01*
X-363541Y366670D01*
X-362430Y362967D01*
X-361319Y359634D01*
X-360393Y356856D01*
X-359282Y354264D01*
X-358356Y352227D01*
X-357431Y350561D01*
X-356875Y349450D01*
X-356320Y348524D01*
X-355949Y347968D01*
X-355764Y347783D01*
X-353542Y345191D01*
X-351135Y343154D01*
X-348728Y341117D01*
X-346135Y339636D01*
X-343728Y338155D01*
X-341136Y337044D01*
X-338729Y336118D01*
X-336322Y335377D01*
X-334100Y334636D01*
X-332063Y334266D01*
X-330211Y333896D01*
X-328730Y333711D01*
X-327434D01*
X-326323Y333525D01*
X-367059D01*
D01*
X-283920D01*
D01*
X-325582D01*
X-322249Y333711D01*
X-319101Y334081D01*
X-315953Y334822D01*
X-313176Y335562D01*
X-310584Y336488D01*
X-308176Y337599D01*
X-306140Y338895D01*
X-304103Y340191D01*
X-302436Y341302D01*
X-300770Y342599D01*
X-299474Y343709D01*
X-298363Y344635D01*
X-297622Y345376D01*
X-297066Y346117D01*
X-296696Y346487D01*
X-296511Y346672D01*
X-294289Y349820D01*
X-292437Y353523D01*
X-290586Y357412D01*
X-289289Y361671D01*
X-287993Y365929D01*
X-287067Y370188D01*
X-286142Y374632D01*
X-285401Y378891D01*
X-285031Y382965D01*
X-284660Y386668D01*
X-284290Y390186D01*
X-284105Y393149D01*
X-283920Y395556D01*
Y464808D01*
D02*
G37*
G36*
X723569Y430923D02*
X675425D01*
X670426Y430738D01*
X665797Y429997D01*
X661538Y429071D01*
X657835Y427960D01*
X656353Y427220D01*
X654872Y426664D01*
X653576Y426294D01*
X652650Y425738D01*
X651724Y425368D01*
X651169Y424998D01*
X650798Y424812D01*
X650613D01*
X646725Y422220D01*
X643392Y419443D01*
X640429Y416480D01*
X638022Y413703D01*
X636170Y411110D01*
X634689Y409073D01*
X634133Y408333D01*
X633948Y407777D01*
X633578Y407407D01*
Y407222D01*
X631541Y402963D01*
X630245Y398704D01*
X629134Y394816D01*
X628393Y391297D01*
X628023Y388150D01*
X627838Y386853D01*
Y385742D01*
X627653Y385002D01*
Y430923D01*
Y333896D01*
Y383706D01*
X627838Y377965D01*
X628578Y372596D01*
X629504Y367966D01*
X630060Y365930D01*
X630615Y364078D01*
X631171Y362412D01*
X631726Y360930D01*
X632282Y359634D01*
X632652Y358523D01*
X633022Y357597D01*
X633393Y357042D01*
X633578Y356671D01*
Y356486D01*
X636170Y352598D01*
X638948Y349265D01*
X641910Y346302D01*
X644688Y343895D01*
X647280Y342043D01*
X649317Y340747D01*
X650058Y340192D01*
X650613Y339821D01*
X650983Y339636D01*
X651169D01*
X655613Y337784D01*
X659871Y336303D01*
X663945Y335377D01*
X667834Y334637D01*
X670981Y334266D01*
X672278Y334081D01*
X673389D01*
X674314Y333896D01*
X675611D01*
X679499Y334081D01*
X683017Y334451D01*
X686535Y335192D01*
X689683Y336118D01*
X692831Y337044D01*
X695608Y338155D01*
X698201Y339451D01*
X700608Y340747D01*
X702645Y342043D01*
X704496Y343339D01*
X706163Y344450D01*
X707459Y345376D01*
X708570Y346302D01*
X709311Y347043D01*
X709681Y347413D01*
X709866Y347598D01*
X712273Y350376D01*
X714310Y353153D01*
X716162Y355931D01*
X717828Y358893D01*
X719125Y361856D01*
X720236Y364819D01*
X721161Y367596D01*
X721902Y370374D01*
X722458Y372781D01*
X722828Y375188D01*
X723198Y377225D01*
X723383Y379076D01*
X723569Y380558D01*
Y383150D01*
Y382595D01*
X723383Y386483D01*
X723013Y390186D01*
X722272Y393519D01*
X721532Y396852D01*
X720421Y399815D01*
X719310Y402778D01*
X718014Y405370D01*
X716903Y407777D01*
X715606Y409814D01*
X714310Y411851D01*
X713199Y413332D01*
X712088Y414813D01*
X711348Y415739D01*
X710607Y416665D01*
X710237Y417035D01*
X710051Y417221D01*
X707459Y419628D01*
X704682Y421665D01*
X701904Y423516D01*
X698941Y425183D01*
X695979Y426479D01*
X693201Y427590D01*
X690424Y428516D01*
X687646Y429256D01*
X685239Y429812D01*
X682832Y430182D01*
X680795Y430553D01*
X678944Y430738D01*
X677462Y430923D01*
X723569D01*
D02*
G37*
G36*
X-155600Y464067D02*
X-187448D01*
X-183189D01*
X-214482Y369262D01*
X-247072Y464067D01*
X-275032D01*
X-229111Y335933D01*
X-275032D01*
X-201150D01*
X-155600Y464067D01*
D02*
G37*
G36*
X936509Y428886D02*
X911327D01*
X893551Y381298D01*
X892440Y378521D01*
X891699Y375929D01*
X891329Y375003D01*
X891144Y374262D01*
X890959Y373707D01*
Y373521D01*
X890773Y372596D01*
X890403Y371485D01*
X889477Y368707D01*
X889107Y367596D01*
X888737Y366485D01*
X888551Y365745D01*
X888366Y365559D01*
X883367Y381298D01*
X865776Y428886D01*
X840038D01*
X877441Y335933D01*
X840038D01*
D01*
X936509D01*
D01*
X899661D01*
X936509Y428886D01*
D02*
G37*
G36*
X218806Y464068D02*
X117150D01*
Y442403D01*
X155109D01*
Y335933D01*
X181032D01*
Y442403D01*
X218806D01*
Y339266D01*
Y464068D01*
D02*
G37*
G36*
X328239D02*
X226583D01*
Y442403D01*
X264542D01*
Y335933D01*
X290465D01*
Y442403D01*
X328239D01*
Y337044D01*
Y464068D01*
D02*
G37*
G36*
X436006Y463142D02*
X345645D01*
Y335933D01*
X436006D01*
Y463142D01*
D02*
G37*
G36*
X-422609Y464808D02*
X-424461D01*
X-427608Y464623D01*
X-430571Y464438D01*
X-436311Y463512D01*
X-441126Y462031D01*
X-443348Y461290D01*
X-445384Y460364D01*
X-447236Y459623D01*
X-448717Y458698D01*
X-450199Y457957D01*
X-451310Y457401D01*
X-452236Y456661D01*
X-452791Y456290D01*
X-453161Y456105D01*
X-453347Y455920D01*
X-455383Y454068D01*
X-457235Y452217D01*
X-458902Y449995D01*
X-460383Y447588D01*
X-462605Y442773D01*
X-464457Y438144D01*
X-465012Y435737D01*
X-465568Y433700D01*
X-466123Y431849D01*
X-466308Y430182D01*
X-466679Y428701D01*
Y427775D01*
X-466864Y427034D01*
Y426849D01*
X-442422Y424442D01*
X-442051Y428145D01*
X-441311Y431293D01*
X-440570Y434071D01*
X-439644Y436107D01*
X-438904Y437774D01*
X-438163Y438885D01*
X-437607Y439625D01*
X-437422Y439811D01*
X-435571Y441292D01*
X-433534Y442403D01*
X-431497Y443329D01*
X-429460Y443884D01*
X-427794Y444255D01*
X-426312Y444440D01*
X-425016D01*
X-422239Y444255D01*
X-419832Y443699D01*
X-417795Y442958D01*
X-415943Y442218D01*
X-414647Y441477D01*
X-413536Y440736D01*
X-412980Y440181D01*
X-412795Y439996D01*
X-411314Y438144D01*
X-410203Y436107D01*
X-409462Y434071D01*
X-408907Y432034D01*
X-408536Y430182D01*
X-408351Y428516D01*
Y427590D01*
Y427405D01*
Y427219D01*
X-408536Y424442D01*
X-409092Y421850D01*
X-410018Y419257D01*
X-410944Y417035D01*
X-411869Y414998D01*
X-412795Y413517D01*
X-413351Y412591D01*
X-413536Y412221D01*
X-414277Y411110D01*
X-415388Y409814D01*
X-416869Y408147D01*
X-418350Y406666D01*
X-421683Y403148D01*
X-425016Y399630D01*
X-428349Y396297D01*
X-429830Y394815D01*
X-431312Y393704D01*
X-432423Y392593D01*
X-433163Y391853D01*
X-433719Y391297D01*
X-433904Y391112D01*
X-437607Y387594D01*
X-440940Y384261D01*
X-444088Y381113D01*
X-446866Y378336D01*
X-449458Y375558D01*
X-451680Y372966D01*
X-453717Y370744D01*
X-455383Y368522D01*
X-456865Y366670D01*
X-458161Y365004D01*
X-459272Y363707D01*
X-460013Y362411D01*
X-460753Y361671D01*
X-461124Y360930D01*
X-461494Y360560D01*
Y360374D01*
X-463901Y356116D01*
X-465753Y351672D01*
X-467234Y347598D01*
X-468345Y343895D01*
X-469086Y340562D01*
X-469271Y339266D01*
X-469456Y338155D01*
X-469641Y337229D01*
X-469826Y336488D01*
Y335933D01*
X-383724D01*
Y392038D01*
Y358708D01*
X-432608D01*
X-431127Y361115D01*
X-429460Y363152D01*
X-428719Y364078D01*
X-428164Y364818D01*
X-427794Y365189D01*
X-427608Y365374D01*
X-426868Y366115D01*
X-426127Y367040D01*
X-423905Y369077D01*
X-421498Y371484D01*
X-419091Y373892D01*
X-416684Y376114D01*
X-414647Y377965D01*
X-413906Y378706D01*
X-413351Y379261D01*
X-412980Y379447D01*
X-412795Y379632D01*
X-408722Y383520D01*
X-405389Y386668D01*
X-402611Y389631D01*
X-400389Y391853D01*
X-398723Y393704D01*
X-397612Y395000D01*
X-396871Y395926D01*
X-396686Y396111D01*
X-394279Y399259D01*
X-392242Y402222D01*
X-390575Y404999D01*
X-389279Y407407D01*
X-388168Y409443D01*
X-387427Y411110D01*
X-387057Y412036D01*
X-386872Y412406D01*
X-385761Y415369D01*
X-385020Y418331D01*
X-384465Y421109D01*
X-384094Y423701D01*
X-383909Y425738D01*
X-383724Y427405D01*
Y428886D01*
X-383909Y431663D01*
X-384280Y434441D01*
X-384650Y437033D01*
X-385391Y439440D01*
X-387242Y443699D01*
X-389094Y447402D01*
X-390205Y449069D01*
X-391131Y450365D01*
X-392057Y451661D01*
X-392982Y452587D01*
X-393723Y453328D01*
X-394093Y454068D01*
X-394464Y454254D01*
X-394649Y454439D01*
X-396686Y456290D01*
X-399093Y457957D01*
X-401315Y459253D01*
X-403907Y460364D01*
X-408722Y462216D01*
X-413536Y463512D01*
X-415758Y463882D01*
X-417795Y464253D01*
X-419646Y464438D01*
X-421313Y464623D01*
X-422609Y464808D01*
D02*
G37*
G36*
X-483343D02*
X-569446D01*
D01*
X-524080D01*
X-527228Y464623D01*
X-530190Y464438D01*
X-535931Y463512D01*
X-540745Y462031D01*
X-542967Y461290D01*
X-545004Y460364D01*
X-546855Y459623D01*
X-548337Y458698D01*
X-549818Y457957D01*
X-550929Y457401D01*
X-551855Y456661D01*
X-552410Y456290D01*
X-552781Y456105D01*
X-552966Y455920D01*
X-555003Y454068D01*
X-556854Y452217D01*
X-558521Y449995D01*
X-560002Y447588D01*
X-562224Y442773D01*
X-564076Y438144D01*
X-564631Y435737D01*
X-565187Y433700D01*
X-565742Y431849D01*
X-565927Y430182D01*
X-566298Y428701D01*
Y427775D01*
X-566483Y427034D01*
Y426849D01*
X-542041Y424442D01*
X-541671Y428145D01*
X-540930Y431293D01*
X-540189Y434071D01*
X-539264Y436107D01*
X-538523Y437774D01*
X-537782Y438885D01*
X-537227Y439625D01*
X-537042Y439811D01*
X-535190Y441292D01*
X-533153Y442403D01*
X-531116Y443329D01*
X-529079Y443884D01*
X-527413Y444255D01*
X-525932Y444440D01*
X-524635D01*
X-521858Y444255D01*
X-519451Y443699D01*
X-517414Y442958D01*
X-515562Y442218D01*
X-514266Y441477D01*
X-513155Y440736D01*
X-512600Y440181D01*
X-512415Y439996D01*
X-510933Y438144D01*
X-509822Y436107D01*
X-509082Y434071D01*
X-508526Y432034D01*
X-508156Y430182D01*
X-507971Y428516D01*
Y427590D01*
Y427405D01*
Y427219D01*
X-508156Y424442D01*
X-508711Y421850D01*
X-509637Y419257D01*
X-510563Y417035D01*
X-511489Y414998D01*
X-512415Y413517D01*
X-512970Y412591D01*
X-513155Y412221D01*
X-513896Y411110D01*
X-515007Y409814D01*
X-516488Y408147D01*
X-517969Y406666D01*
X-521302Y403148D01*
X-524635Y399630D01*
X-527968Y396297D01*
X-529450Y394815D01*
X-530931Y393704D01*
X-532042Y392593D01*
X-532783Y391853D01*
X-533338Y391297D01*
X-533523Y391112D01*
X-537227Y387594D01*
X-540560Y384261D01*
X-543708Y381113D01*
X-546485Y378336D01*
X-549077Y375558D01*
X-551299Y372966D01*
X-553336Y370744D01*
X-555003Y368522D01*
X-556484Y366670D01*
X-557780Y365004D01*
X-558891Y363707D01*
X-559632Y362411D01*
X-560373Y361671D01*
X-560743Y360930D01*
X-561113Y360560D01*
Y360374D01*
X-563520Y356116D01*
X-565372Y351672D01*
X-566853Y347598D01*
X-567964Y343895D01*
X-568705Y340562D01*
X-568890Y339266D01*
X-569075Y338155D01*
X-569260Y337229D01*
X-569446Y336488D01*
Y335933D01*
X-483343D01*
Y390557D01*
Y358708D01*
X-532227D01*
X-530746Y361115D01*
X-529079Y363152D01*
X-528339Y364078D01*
X-527783Y364818D01*
X-527413Y365189D01*
X-527228Y365374D01*
X-526487Y366115D01*
X-525746Y367040D01*
X-523524Y369077D01*
X-521117Y371484D01*
X-518710Y373892D01*
X-516303Y376114D01*
X-514266Y377965D01*
X-513526Y378706D01*
X-512970Y379261D01*
X-512600Y379447D01*
X-512415Y379632D01*
X-508341Y383520D01*
X-505008Y386668D01*
X-502230Y389631D01*
X-500008Y391853D01*
X-498342Y393704D01*
X-497231Y395000D01*
X-496490Y395926D01*
X-496305Y396111D01*
X-493898Y399259D01*
X-491861Y402222D01*
X-490195Y404999D01*
X-488898Y407407D01*
X-487787Y409443D01*
X-487047Y411110D01*
X-486676Y412036D01*
X-486491Y412406D01*
X-485380Y415369D01*
X-484640Y418331D01*
X-484084Y421109D01*
X-483714Y423701D01*
X-483529Y425738D01*
X-483343Y427405D01*
Y428886D01*
X-483529Y431663D01*
X-483899Y434441D01*
X-484269Y437033D01*
X-485010Y439440D01*
X-486862Y443699D01*
X-488713Y447402D01*
X-489824Y449069D01*
X-490750Y450365D01*
X-491676Y451661D01*
X-492602Y452587D01*
X-493342Y453328D01*
X-493713Y454068D01*
X-494083Y454254D01*
X-494268Y454439D01*
X-496305Y456290D01*
X-498712Y457957D01*
X-500934Y459253D01*
X-503527Y460364D01*
X-508341Y462216D01*
X-513155Y463512D01*
X-515377Y463882D01*
X-517414Y464253D01*
X-519266Y464438D01*
X-520932Y464623D01*
X-522228Y464808D01*
X-483343D01*
D01*
D02*
G37*
G36*
X56971Y430923D02*
X8828D01*
X3828Y430738D01*
X-801Y429997D01*
X-5060Y429071D01*
X-8763Y427960D01*
X-10244Y427220D01*
X-11726Y426664D01*
X-13022Y426294D01*
X-13948Y425738D01*
X-14873Y425368D01*
X-15429Y424998D01*
X-15799Y424812D01*
X-15984D01*
X-19873Y422220D01*
X-23206Y419443D01*
X-26169Y416480D01*
X-28576Y413702D01*
X-30427Y411110D01*
X-31909Y409073D01*
X-32464Y408332D01*
X-32649Y407777D01*
X-33020Y407407D01*
Y407221D01*
X-35057Y402963D01*
X-36353Y398704D01*
X-37464Y394815D01*
X-38204Y391297D01*
X-38575Y388149D01*
X-38760Y386853D01*
Y385742D01*
X-38945Y385002D01*
Y383705D01*
X-38760Y377965D01*
X-38019Y372595D01*
X-37093Y367966D01*
X-36538Y365929D01*
X-35982Y364078D01*
X-35427Y362411D01*
X-34871Y360930D01*
X-34316Y359634D01*
X-33946Y358523D01*
X-33575Y357597D01*
X-33205Y357041D01*
X-33020Y356671D01*
Y356486D01*
X-30427Y352597D01*
X-27650Y349264D01*
X-24687Y346302D01*
X-21910Y343895D01*
X-19317Y342043D01*
X-17281Y340747D01*
X-16540Y340192D01*
X-15984Y339821D01*
X-15614Y339636D01*
X-15429D01*
X-10985Y337784D01*
X-6726Y336303D01*
X-2653Y335377D01*
X1236Y334637D01*
X4384Y334266D01*
X5680Y334081D01*
X6791D01*
X7717Y333896D01*
X9013D01*
X12901Y334081D01*
X16420Y334451D01*
X19938Y335192D01*
X23086Y336118D01*
X26233Y337044D01*
X29011Y338155D01*
X31603Y339451D01*
X34010Y340747D01*
X36047Y342043D01*
X37899Y343339D01*
X39565Y344450D01*
X40861Y345376D01*
X41972Y346302D01*
X42713Y347043D01*
X43083Y347413D01*
X43269Y347598D01*
X45676Y350376D01*
X47713Y353153D01*
X49564Y355931D01*
X51231Y358893D01*
X52527Y361856D01*
X53638Y364819D01*
X54564Y367596D01*
X55304Y370374D01*
X55860Y372781D01*
X56230Y375188D01*
X56601Y377225D01*
X56786Y379076D01*
X56971Y380558D01*
Y335748D01*
Y382595D01*
X56786Y386483D01*
X56415Y390186D01*
X55675Y393519D01*
X54934Y396852D01*
X53823Y399815D01*
X52712Y402778D01*
X51416Y405370D01*
X50305Y407777D01*
X49009Y409814D01*
X47713Y411851D01*
X46602Y413332D01*
X45491Y414813D01*
X44750Y415739D01*
X44009Y416665D01*
X43639Y417035D01*
X43454Y417221D01*
X40861Y419628D01*
X38084Y421665D01*
X35307Y423516D01*
X32344Y425183D01*
X29381Y426479D01*
X26604Y427590D01*
X23826Y428516D01*
X21049Y429256D01*
X18642Y429812D01*
X16234Y430182D01*
X14198Y430553D01*
X12346Y430738D01*
X10865Y430923D01*
X56971D01*
D02*
G37*
G36*
X1260180D02*
X1217962D01*
D01*
X1215925D01*
X1212592Y430738D01*
X1209444Y430367D01*
X1206296Y429627D01*
X1203519Y428886D01*
X1200741Y427960D01*
X1198334Y426849D01*
X1195927Y425553D01*
X1193890Y424442D01*
X1192039Y423146D01*
X1190372Y421850D01*
X1188891Y420739D01*
X1187780Y419813D01*
X1186854Y419072D01*
X1186113Y418332D01*
X1185743Y417961D01*
X1185558Y417776D01*
X1183521Y415184D01*
X1181669Y412406D01*
X1180003Y409629D01*
X1178521Y406666D01*
X1177410Y403518D01*
X1176485Y400556D01*
X1175003Y394816D01*
X1174448Y392038D01*
X1174077Y389631D01*
X1173892Y387409D01*
X1173707Y385557D01*
X1173522Y383891D01*
Y381669D01*
X1173707Y378151D01*
X1173892Y374632D01*
X1174448Y371485D01*
X1175003Y368522D01*
X1175559Y365559D01*
X1176485Y362967D01*
X1177225Y360560D01*
X1178151Y358338D01*
X1178892Y356301D01*
X1179818Y354635D01*
X1180558Y353153D01*
X1181114Y351857D01*
X1181854Y350931D01*
X1182225Y350191D01*
X1182410Y349820D01*
X1182595Y349635D01*
X1185002Y346858D01*
X1187409Y344450D01*
X1190187Y342414D01*
X1193150Y340562D01*
X1196112Y339081D01*
X1199075Y337784D01*
X1202037Y336673D01*
X1205000Y335933D01*
X1207592Y335192D01*
X1210185Y334822D01*
X1212592Y334451D01*
X1214629Y334081D01*
X1216295D01*
X1217406Y333896D01*
X1173522D01*
X1260180D01*
Y380373D01*
X1259809Y385002D01*
X1259254Y389446D01*
X1258513Y393519D01*
X1257587Y397408D01*
X1256661Y400741D01*
X1255550Y403889D01*
X1254439Y406666D01*
X1253328Y409073D01*
X1252217Y411295D01*
X1251292Y412962D01*
X1250366Y414443D01*
X1249625Y415554D01*
X1249070Y416480D01*
X1248699Y416850D01*
X1248514Y417035D01*
X1246292Y419443D01*
X1243700Y421665D01*
X1241108Y423516D01*
X1238515Y424998D01*
X1235738Y426479D01*
X1232960Y427590D01*
X1230368Y428516D01*
X1227776Y429256D01*
X1225368Y429812D01*
X1223146Y430182D01*
X1221110Y430553D01*
X1219443Y430738D01*
X1217962Y430923D01*
X1260180D01*
D02*
G37*
G36*
X1031314D02*
X989097D01*
D01*
X987060D01*
X983727Y430738D01*
X980579Y430367D01*
X977431Y429627D01*
X974654Y428886D01*
X971876Y427960D01*
X969469Y426849D01*
X967062Y425553D01*
X965025Y424442D01*
X963173Y423146D01*
X961507Y421850D01*
X960026Y420739D01*
X958915Y419813D01*
X957989Y419072D01*
X957248Y418332D01*
X956878Y417961D01*
X956693Y417776D01*
X954656Y415184D01*
X952804Y412406D01*
X951138Y409629D01*
X949656Y406666D01*
X948545Y403518D01*
X947619Y400556D01*
X946138Y394816D01*
X945583Y392038D01*
X945212Y389631D01*
X945027Y387409D01*
X944842Y385557D01*
X944657Y383891D01*
Y381669D01*
X944842Y378151D01*
X945027Y374632D01*
X945583Y371485D01*
X946138Y368522D01*
X946694Y365559D01*
X947619Y362967D01*
X948360Y360560D01*
X949286Y358338D01*
X950027Y356301D01*
X950952Y354635D01*
X951693Y353153D01*
X952249Y351857D01*
X952989Y350931D01*
X953360Y350191D01*
X953545Y349820D01*
X953730Y349635D01*
X956137Y346858D01*
X958544Y344450D01*
X961322Y342414D01*
X964284Y340562D01*
X967247Y339081D01*
X970210Y337784D01*
X973172Y336673D01*
X976135Y335933D01*
X978727Y335192D01*
X981320Y334822D01*
X983727Y334451D01*
X985764Y334081D01*
X987430D01*
X988541Y333896D01*
X944657D01*
X1031314D01*
Y380373D01*
X1030944Y385002D01*
X1030389Y389446D01*
X1029648Y393519D01*
X1028722Y397408D01*
X1027796Y400741D01*
X1026685Y403889D01*
X1025574Y406666D01*
X1024463Y409073D01*
X1023352Y411295D01*
X1022426Y412962D01*
X1021501Y414443D01*
X1020760Y415554D01*
X1020204Y416480D01*
X1019834Y416850D01*
X1019649Y417035D01*
X1017427Y419443D01*
X1014835Y421665D01*
X1012242Y423516D01*
X1009650Y424998D01*
X1006873Y426479D01*
X1004095Y427590D01*
X1001503Y428516D01*
X998910Y429256D01*
X996503Y429812D01*
X994281Y430182D01*
X992244Y430553D01*
X990578Y430738D01*
X989097Y430923D01*
X1031314D01*
D02*
G37*
G36*
X-67090Y461845D02*
D01*
X-91717Y447402D01*
Y428886D01*
X-103012D01*
Y409258D01*
X-91717D01*
Y368707D01*
Y366300D01*
Y364263D01*
Y362226D01*
X-91532Y360560D01*
Y357597D01*
X-91347Y355190D01*
X-91162Y353338D01*
Y352227D01*
X-90977Y351486D01*
Y351301D01*
X-90606Y349264D01*
X-90051Y347413D01*
X-89495Y345746D01*
X-88940Y344450D01*
X-88384Y343339D01*
X-88014Y342599D01*
X-87829Y342043D01*
X-87644Y341858D01*
X-86533Y340562D01*
X-85237Y339451D01*
X-82644Y337599D01*
X-81533Y337044D01*
X-80607Y336488D01*
X-79867Y336303D01*
X-79682Y336118D01*
X-77645Y335377D01*
X-75608Y334822D01*
X-73571Y334451D01*
X-71719Y334266D01*
X-70053Y334081D01*
X-68757Y333896D01*
X-103012D01*
X-48203D01*
D01*
X-67646D01*
X-63757Y334081D01*
X-60054Y334451D01*
X-56721Y335007D01*
X-53944Y335747D01*
X-51536Y336303D01*
X-49685Y336858D01*
X-48574Y337229D01*
X-48389Y337414D01*
X-48203D01*
X-50425Y356486D01*
X-52647Y355745D01*
X-54684Y355190D01*
X-56351Y354819D01*
X-57832Y354634D01*
X-58943Y354449D01*
X-59684Y354264D01*
X-60424D01*
X-62091Y354449D01*
X-63387Y354819D01*
X-64128Y355190D01*
X-64498Y355375D01*
X-65609Y356486D01*
X-66164Y357412D01*
X-66535Y358152D01*
X-66720Y358523D01*
Y358893D01*
X-66905Y359634D01*
Y361300D01*
Y363522D01*
X-67090Y365744D01*
Y367966D01*
Y369818D01*
Y370559D01*
Y371114D01*
Y371484D01*
Y371670D01*
Y409258D01*
X-50240D01*
Y428886D01*
X-67090D01*
Y461845D01*
D02*
G37*
%LPD*%
G36*
X611173Y333711D02*
X557845D01*
X561733Y333896D01*
X565252Y334081D01*
X568770Y334637D01*
X571918Y335377D01*
X574880Y336118D01*
X577658Y336859D01*
X580250Y337784D01*
X582657Y338895D01*
X584694Y339821D01*
X586546Y340747D01*
X588212Y341488D01*
X589508Y342228D01*
X590619Y342969D01*
X591360Y343525D01*
X591730Y343710D01*
X591916Y343895D01*
X594323Y345932D01*
X596545Y348154D01*
X600618Y353153D01*
X603951Y358338D01*
X606544Y363337D01*
X607655Y365745D01*
X608580Y367966D01*
X609321Y370003D01*
X610062Y371670D01*
X610617Y373151D01*
X610988Y374262D01*
X611173Y375003D01*
Y333711D01*
D02*
G37*
G36*
X-323916Y444255D02*
X-322434Y444069D01*
X-321138Y443514D01*
X-320027Y442958D01*
X-319101Y442403D01*
X-318361Y442033D01*
X-317990Y441662D01*
X-317805Y441477D01*
X-316694Y440181D01*
X-315583Y438514D01*
X-314657Y436663D01*
X-313731Y434811D01*
X-313176Y432960D01*
X-312620Y431478D01*
X-312435Y430552D01*
X-312250Y430367D01*
Y430182D01*
X-311880Y428516D01*
X-311509Y426479D01*
X-311139Y424072D01*
X-310769Y421664D01*
X-310398Y416665D01*
X-310213Y411480D01*
X-310028Y409073D01*
Y406666D01*
X-309843Y404629D01*
Y402777D01*
Y401296D01*
Y400000D01*
Y399259D01*
Y399074D01*
Y395000D01*
X-310028Y391112D01*
Y387594D01*
X-310213Y384446D01*
X-310398Y381483D01*
X-310584Y378891D01*
X-310954Y376484D01*
X-311139Y374447D01*
X-311324Y372595D01*
X-311695Y371114D01*
X-311880Y369818D01*
X-312065Y368707D01*
X-312250Y367966D01*
Y367226D01*
X-312435Y367040D01*
Y366855D01*
X-313176Y364263D01*
X-314102Y362226D01*
X-315028Y360374D01*
X-315768Y359078D01*
X-316509Y357967D01*
X-317250Y357227D01*
X-317620Y356856D01*
X-317805Y356671D01*
X-319101Y355745D01*
X-320397Y355005D01*
X-321694Y354634D01*
X-322990Y354264D01*
X-323916Y354079D01*
X-324841Y353894D01*
X-325582D01*
X-327249Y354079D01*
X-328730Y354264D01*
X-330026Y354819D01*
X-331137Y355375D01*
X-332063Y355745D01*
X-332803Y356301D01*
X-333174Y356486D01*
X-333359Y356671D01*
X-334470Y357967D01*
X-335581Y359634D01*
X-336507Y361485D01*
X-337433Y363337D01*
X-337988Y365004D01*
X-338544Y366485D01*
X-338729Y367411D01*
X-338914Y367781D01*
X-339284Y369633D01*
X-339655Y371670D01*
X-340025Y373892D01*
X-340210Y376299D01*
X-340580Y381483D01*
X-340766Y386668D01*
X-340951Y389075D01*
Y391482D01*
X-341136Y393519D01*
Y395371D01*
Y396852D01*
Y398148D01*
Y398889D01*
Y399074D01*
Y403148D01*
X-340951Y407036D01*
Y410369D01*
X-340766Y413702D01*
X-340580Y416480D01*
X-340395Y419257D01*
X-340210Y421479D01*
X-339840Y423701D01*
X-339655Y425553D01*
X-339469Y427034D01*
X-339284Y428330D01*
X-339099Y429441D01*
X-338914Y430182D01*
Y430923D01*
X-338729Y431108D01*
Y431293D01*
X-337988Y433885D01*
X-337062Y436107D01*
X-336322Y437774D01*
X-335396Y439255D01*
X-334655Y440181D01*
X-334100Y440922D01*
X-333729Y441292D01*
X-333544Y441477D01*
X-332248Y442403D01*
X-330767Y443144D01*
X-329471Y443699D01*
X-328174Y444069D01*
X-327249Y444255D01*
X-326323Y444440D01*
X-325582D01*
X-323916Y444255D01*
D02*
G37*
G36*
X679129Y410555D02*
X682277Y409814D01*
X684869Y408518D01*
X687276Y407222D01*
X689128Y405926D01*
X690609Y404629D01*
X691350Y403889D01*
X691720Y403518D01*
X693942Y400556D01*
X695608Y397038D01*
X696719Y393519D01*
X697645Y390186D01*
X698016Y387224D01*
X698201Y385742D01*
Y384631D01*
X698386Y383706D01*
Y382965D01*
Y382595D01*
Y382409D01*
X698016Y377595D01*
X697275Y373151D01*
X696349Y369633D01*
X695053Y366485D01*
X693757Y364263D01*
X692831Y362412D01*
X692090Y361486D01*
X691720Y361115D01*
X689128Y358708D01*
X686535Y356857D01*
X683758Y355746D01*
X681166Y354820D01*
X678944Y354264D01*
X677277Y354079D01*
X676536Y353894D01*
X675611D01*
X672092Y354264D01*
X668945Y355005D01*
X666167Y356116D01*
X663945Y357597D01*
X661908Y358893D01*
X660427Y360004D01*
X659686Y360745D01*
X659316Y361115D01*
X657094Y364078D01*
X655613Y367596D01*
X654502Y371114D01*
X653576Y374632D01*
X653205Y377595D01*
X653020Y378891D01*
Y380187D01*
X652835Y381113D01*
Y381854D01*
Y382224D01*
Y382409D01*
X653205Y387224D01*
X653946Y391483D01*
X654872Y395186D01*
X656168Y398149D01*
X657279Y400371D01*
X658390Y402222D01*
X659131Y403148D01*
X659316Y403518D01*
X661908Y405926D01*
X664686Y407777D01*
X667463Y409073D01*
X670056Y409999D01*
X672278Y410555D01*
X673944Y410740D01*
X674685Y410925D01*
X675611D01*
X679129Y410555D01*
D02*
G37*
G36*
X436006Y357597D02*
X371568D01*
Y463142D01*
X436006D01*
Y357597D01*
D02*
G37*
G36*
X12531Y410555D02*
X15679Y409814D01*
X18271Y408518D01*
X20678Y407222D01*
X22530Y405926D01*
X24011Y404629D01*
X24752Y403889D01*
X25122Y403518D01*
X27344Y400556D01*
X29011Y397038D01*
X30122Y393519D01*
X31048Y390186D01*
X31418Y387224D01*
X31603Y385742D01*
Y384631D01*
X31788Y383706D01*
Y382965D01*
Y382595D01*
Y382409D01*
X31418Y377595D01*
X30677Y373151D01*
X29752Y369633D01*
X28455Y366485D01*
X27159Y364263D01*
X26233Y362412D01*
X25493Y361486D01*
X25122Y361115D01*
X22530Y358708D01*
X19938Y356857D01*
X17160Y355746D01*
X14568Y354820D01*
X12346Y354264D01*
X10679Y354079D01*
X9939Y353894D01*
X9013D01*
X5495Y354264D01*
X2347Y355005D01*
X-431Y356116D01*
X-2653Y357597D01*
X-4689Y358893D01*
X-6171Y360004D01*
X-6911Y360745D01*
X-7282Y361115D01*
X-9504Y364078D01*
X-10985Y367596D01*
X-12096Y371114D01*
X-13022Y374632D01*
X-13392Y377595D01*
X-13577Y378891D01*
Y380187D01*
X-13762Y381113D01*
Y381854D01*
Y382224D01*
Y382409D01*
X-13392Y387224D01*
X-12651Y391483D01*
X-11726Y395186D01*
X-10429Y398149D01*
X-9318Y400371D01*
X-8208Y402222D01*
X-7467Y403148D01*
X-7282Y403518D01*
X-4689Y405926D01*
X-1912Y407777D01*
X866Y409073D01*
X3458Y409999D01*
X5680Y410555D01*
X7346Y410740D01*
X8087Y410925D01*
X9013D01*
X12531Y410555D01*
D02*
G37*
G36*
X1220184Y411851D02*
X1222591Y411110D01*
X1224813Y410184D01*
X1226665Y409259D01*
X1228146Y408148D01*
X1229257Y407222D01*
X1229998Y406481D01*
X1230183Y406296D01*
X1231849Y404074D01*
X1233331Y401482D01*
X1234256Y398704D01*
X1234997Y396112D01*
X1235367Y393890D01*
X1235553Y391853D01*
X1235738Y391112D01*
Y390742D01*
Y390372D01*
Y390186D01*
X1199075D01*
X1199260Y393705D01*
X1199815Y396852D01*
X1200556Y399630D01*
X1201667Y401852D01*
X1202593Y403704D01*
X1203519Y405000D01*
X1204074Y405926D01*
X1204259Y406111D01*
X1206296Y408148D01*
X1208518Y409629D01*
X1210740Y410555D01*
X1212777Y411295D01*
X1214629Y411666D01*
X1216110Y412036D01*
X1217406D01*
X1220184Y411851D01*
D02*
G37*
G36*
X1260180Y333896D02*
X1218517D01*
X1223887Y334266D01*
X1228887Y335007D01*
X1233145Y336118D01*
X1236849Y337414D01*
X1238515Y338155D01*
X1239811Y338710D01*
X1241108Y339266D01*
X1242033Y339821D01*
X1242774Y340377D01*
X1243515Y340562D01*
X1243700Y340932D01*
X1243885D01*
X1247403Y343895D01*
X1250551Y347043D01*
X1253143Y350561D01*
X1255180Y353894D01*
X1256847Y356857D01*
X1257402Y358153D01*
X1257958Y359264D01*
X1258328Y360190D01*
X1258698Y360930D01*
X1258883Y361301D01*
Y361486D01*
X1234442Y365559D01*
X1233516Y363152D01*
X1232590Y360930D01*
X1231664Y359264D01*
X1230553Y357782D01*
X1229812Y356671D01*
X1229072Y355931D01*
X1228516Y355560D01*
X1228331Y355375D01*
X1226850Y354264D01*
X1225183Y353524D01*
X1223517Y352968D01*
X1222035Y352598D01*
X1220739Y352413D01*
X1219628Y352227D01*
X1218702D01*
X1215740Y352413D01*
X1212962Y353153D01*
X1210370Y354079D01*
X1208333Y355190D01*
X1206667Y356301D01*
X1205556Y357227D01*
X1204630Y357968D01*
X1204445Y358153D01*
X1202593Y360560D01*
X1201297Y363337D01*
X1200186Y366300D01*
X1199445Y368892D01*
X1199075Y371485D01*
X1198890Y373336D01*
X1198704Y374077D01*
Y374632D01*
Y375003D01*
Y375188D01*
X1260180D01*
Y333896D01*
D02*
G37*
G36*
X991319Y411851D02*
X993726Y411110D01*
X995948Y410184D01*
X997799Y409259D01*
X999281Y408148D01*
X1000392Y407222D01*
X1001132Y406481D01*
X1001318Y406296D01*
X1002984Y404074D01*
X1004465Y401482D01*
X1005391Y398704D01*
X1006132Y396112D01*
X1006502Y393890D01*
X1006687Y391853D01*
X1006873Y391112D01*
Y390742D01*
Y390372D01*
Y390186D01*
X970210D01*
X970395Y393705D01*
X970950Y396852D01*
X971691Y399630D01*
X972802Y401852D01*
X973728Y403704D01*
X974654Y405000D01*
X975209Y405926D01*
X975394Y406111D01*
X977431Y408148D01*
X979653Y409629D01*
X981875Y410555D01*
X983912Y411295D01*
X985764Y411666D01*
X987245Y412036D01*
X988541D01*
X991319Y411851D01*
D02*
G37*
G36*
X1031314Y333896D02*
X989652D01*
X995022Y334266D01*
X1000021Y335007D01*
X1004280Y336118D01*
X1007984Y337414D01*
X1009650Y338155D01*
X1010946Y338710D01*
X1012242Y339266D01*
X1013168Y339821D01*
X1013909Y340377D01*
X1014649Y340562D01*
X1014835Y340932D01*
X1015020D01*
X1018538Y343895D01*
X1021686Y347043D01*
X1024278Y350561D01*
X1026315Y353894D01*
X1027981Y356857D01*
X1028537Y358153D01*
X1029092Y359264D01*
X1029463Y360190D01*
X1029833Y360930D01*
X1030018Y361301D01*
Y361486D01*
X1005576Y365559D01*
X1004651Y363152D01*
X1003725Y360930D01*
X1002799Y359264D01*
X1001688Y357782D01*
X1000947Y356671D01*
X1000207Y355931D01*
X999651Y355560D01*
X999466Y355375D01*
X997985Y354264D01*
X996318Y353524D01*
X994652Y352968D01*
X993170Y352598D01*
X991874Y352413D01*
X990763Y352227D01*
X989837D01*
X986875Y352413D01*
X984097Y353153D01*
X981505Y354079D01*
X979468Y355190D01*
X977801Y356301D01*
X976690Y357227D01*
X975765Y357968D01*
X975579Y358153D01*
X973728Y360560D01*
X972432Y363337D01*
X971321Y366300D01*
X970580Y368892D01*
X970210Y371485D01*
X970024Y373336D01*
X969839Y374077D01*
Y374632D01*
Y375003D01*
Y375188D01*
X1031314D01*
Y333896D01*
D02*
G37*
D25*
X385000Y-203748D02*
D03*
D26*
X-489992Y1545000D02*
D03*
Y1455000D02*
D03*
X-239992Y1545000D02*
D03*
Y1455000D02*
D03*
X10008Y1545000D02*
D03*
Y1455000D02*
D03*
X260008Y1545000D02*
D03*
Y1455000D02*
D03*
X510008Y1545000D02*
D03*
Y1455000D02*
D03*
X760000Y1545000D02*
D03*
Y1455000D02*
D03*
X1010000Y1545000D02*
D03*
Y1455000D02*
D03*
X1260000Y1545000D02*
D03*
Y1455000D02*
D03*
D27*
X1525000Y-185000D02*
D03*
X1445000D02*
D03*
X1365000D02*
D03*
X1285000D02*
D03*
X1205000D02*
D03*
X1125000D02*
D03*
X1045000D02*
D03*
X965000D02*
D03*
X885000D02*
D03*
X805000D02*
D03*
X725000D02*
D03*
X645000D02*
D03*
X565000D02*
D03*
X485000D02*
D03*
X405000D02*
D03*
X325000D02*
D03*
X245000D02*
D03*
X165000D02*
D03*
X-235000D02*
D03*
X-315000D02*
D03*
X-395000D02*
D03*
X-475000D02*
D03*
X-555000D02*
D03*
X-635000D02*
D03*
X-715000D02*
D03*
X-795000D02*
D03*
D28*
X-825000Y4480000D02*
D03*
X1595000D02*
D03*
D29*
X10000Y2400000D02*
D03*
X260000D02*
D03*
X-740000D02*
D03*
X-240000D02*
D03*
X-490000D02*
D03*
X1260000D02*
D03*
X1010000D02*
D03*
X760000D02*
D03*
X510000D02*
D03*
D30*
X1510000D02*
D03*
%TF.MD5,86b5c595e4b6674791bf21f2b47b3205*%
M02*
