%TF.GenerationSoftware,Altium Limited,Altium Designer,23.3.1 (30)*%
G04 Layer_Color=32768*
%FSLAX45Y45*%
%MOMM*%
%TF.SameCoordinates,FDB9E7A7-A389-4C7E-9334-FC0DF1D9A675*%
%TF.FilePolarity,Positive*%
%TF.FileFunction,Other,Bottom_Assembly*%
%TF.Part,Single*%
G01*
G75*
%TA.AperFunction,NonConductor*%
%ADD34C,0.01000*%
%ADD35C,0.02000*%
D34*
X-790000Y450000D02*
X310000D01*
X-790000Y1250000D02*
X310000D01*
Y450000D02*
Y1250000D01*
X-790000Y450000D02*
Y1250000D01*
X680008Y2090000D02*
X840008D01*
Y1810000D02*
Y2090000D01*
X680008Y1810000D02*
Y2090000D01*
Y1810000D02*
X840008D01*
X430008Y2090000D02*
X590008D01*
Y1810000D02*
Y2090000D01*
X430008Y1810000D02*
Y2090000D01*
Y1810000D02*
X590008D01*
X930008Y2090000D02*
X1090008D01*
Y1810000D02*
Y2090000D01*
X930008Y1810000D02*
Y2090000D01*
Y1810000D02*
X1090008D01*
X180008Y2090000D02*
X340008D01*
Y1810000D02*
Y2090000D01*
X180008Y1810000D02*
Y2090000D01*
Y1810000D02*
X340008D01*
X-69992Y2090000D02*
X90008D01*
Y1810000D02*
Y2090000D01*
X-69992Y1810000D02*
Y2090000D01*
Y1810000D02*
X90008D01*
X-319993Y2090000D02*
X-159992D01*
Y1810000D02*
Y2090000D01*
X-319993Y1810000D02*
Y2090000D01*
Y1810000D02*
X-159992D01*
X-569993Y2090000D02*
X-409992D01*
Y1810000D02*
Y2090000D01*
X-569993Y1810000D02*
Y2090000D01*
Y1810000D02*
X-409992D01*
X1180008Y2090000D02*
X1340008D01*
Y1810000D02*
Y2090000D01*
X1180008Y1810000D02*
Y2090000D01*
Y1810000D02*
X1340008D01*
X460000Y450000D02*
X1560000D01*
X460000Y1250000D02*
X1560000D01*
Y450000D02*
Y1250000D01*
X460000Y450000D02*
Y1250000D01*
X1290000Y425000D02*
X1365000D01*
Y275000D02*
Y425000D01*
X1290000Y275000D02*
Y425000D01*
Y275000D02*
X1365000D01*
X1036000Y425000D02*
X1111000D01*
Y275000D02*
Y425000D01*
X1036000Y275000D02*
Y425000D01*
Y275000D02*
X1111000D01*
X782000Y425000D02*
X857000D01*
Y275000D02*
Y425000D01*
X782000Y275000D02*
Y425000D01*
Y275000D02*
X857000D01*
X-722000Y425000D02*
X-647000D01*
Y275000D02*
Y425000D01*
X-722000Y275000D02*
Y425000D01*
Y275000D02*
X-647000D01*
X40000Y425000D02*
X115000D01*
Y275000D02*
Y425000D01*
X40000Y275000D02*
Y425000D01*
Y275000D02*
X115000D01*
X-468000Y425000D02*
X-393000D01*
Y275000D02*
Y425000D01*
X-468000Y275000D02*
Y425000D01*
Y275000D02*
X-393000D01*
X528000Y425000D02*
X603000D01*
Y275000D02*
Y425000D01*
X528000Y275000D02*
Y425000D01*
Y275000D02*
X603000D01*
X-214000Y425000D02*
X-139000D01*
Y275000D02*
Y425000D01*
X-214000Y275000D02*
Y425000D01*
Y275000D02*
X-139000D01*
D35*
X-595000D02*
X-520000D01*
X-595000Y425000D02*
X-520000D01*
Y275000D02*
Y425000D01*
X-595000Y275000D02*
Y425000D01*
X909000Y275000D02*
X984000D01*
X909000Y425000D02*
X984000D01*
Y275000D02*
Y425000D01*
X909000Y275000D02*
Y425000D01*
X655000Y275000D02*
X730000D01*
X655000Y425000D02*
X730000D01*
Y275000D02*
Y425000D01*
X655000Y275000D02*
Y425000D01*
X167000Y275000D02*
X242000D01*
X167000Y425000D02*
X242000D01*
Y275000D02*
Y425000D01*
X167000Y275000D02*
Y425000D01*
X1163000Y275000D02*
X1238000D01*
X1163000Y425000D02*
X1238000D01*
Y275000D02*
Y425000D01*
X1163000Y275000D02*
Y425000D01*
X-87000Y275000D02*
X-12000D01*
X-87000Y425000D02*
X-12000D01*
Y275000D02*
Y425000D01*
X-87000Y275000D02*
Y425000D01*
X-341000Y275000D02*
X-266000D01*
X-341000Y425000D02*
X-266000D01*
Y275000D02*
Y425000D01*
X-341000Y275000D02*
Y425000D01*
X1417000Y275000D02*
X1492000D01*
X1417000Y425000D02*
X1492000D01*
Y275000D02*
Y425000D01*
X1417000Y275000D02*
Y425000D01*
%TF.MD5,636d7b5be574d0ec4f9c70e16d157269*%
M02*
