%TF.GenerationSoftware,Altium Limited,Altium Designer,23.3.1 (30)*%
G04 Layer_Color=8388736*
%FSLAX45Y45*%
%MOMM*%
%TF.SameCoordinates,FDB9E7A7-A389-4C7E-9334-FC0DF1D9A675*%
%TF.FilePolarity,Positive*%
%TF.FileFunction,Other,Top_Assembly*%
%TF.Part,Single*%
G01*
G75*
%TA.AperFunction,NonConductor*%
%ADD34C,0.01000*%
D34*
X-527492Y1425000D02*
Y1575000D01*
X-452492Y1425000D02*
Y1575000D01*
X-527492D02*
X-452492D01*
X-527492Y1425000D02*
X-452492D01*
X-277492D02*
Y1575000D01*
X-202492Y1425000D02*
Y1575000D01*
X-277492D02*
X-202492D01*
X-277492Y1425000D02*
X-202492D01*
X-27492D02*
Y1575000D01*
X47508Y1425000D02*
Y1575000D01*
X-27492D02*
X47508D01*
X-27492Y1425000D02*
X47508D01*
X222508D02*
Y1575000D01*
X297508Y1425000D02*
Y1575000D01*
X222508D02*
X297508D01*
X222508Y1425000D02*
X297508D01*
X472508D02*
Y1575000D01*
X547508Y1425000D02*
Y1575000D01*
X472508D02*
X547508D01*
X472508Y1425000D02*
X547508D01*
X722500D02*
Y1575000D01*
X797500Y1425000D02*
Y1575000D01*
X722500D02*
X797500D01*
X722500Y1425000D02*
X797500D01*
X972500D02*
Y1575000D01*
X1047500Y1425000D02*
Y1575000D01*
X972500D02*
X1047500D01*
X972500Y1425000D02*
X1047500D01*
X1222500D02*
Y1575000D01*
X1297500Y1425000D02*
Y1575000D01*
X1222500D02*
X1297500D01*
X1222500Y1425000D02*
X1297500D01*
X-915000Y3350000D02*
X1685000D01*
X-915000Y2100000D02*
X1685000D01*
X-915000D02*
Y3350000D01*
X1685000Y2100000D02*
Y3350000D01*
%TF.MD5,afc700c5a733eb4228787ee1d3e12662*%
M02*
