%TF.GenerationSoftware,Altium Limited,Altium Designer,23.3.1 (30)*%
G04 Layer_Color=255*
%FSLAX45Y45*%
%MOMM*%
%TF.SameCoordinates,FDB9E7A7-A389-4C7E-9334-FC0DF1D9A675*%
%TF.FilePolarity,Positive*%
%TF.FileFunction,Pads,Top*%
%TF.Part,Single*%
G01*
G75*
%TA.AperFunction,SMDPad,CuDef*%
%ADD10R,0.60000X0.50000*%
%TA.AperFunction,ConnectorPad*%
%ADD11R,0.60000X2.30000*%
%TA.AperFunction,ViaPad*%
%ADD13R,5.30000X5.30000*%
%TA.AperFunction,ComponentPad*%
%ADD14C,1.35000*%
%ADD15R,1.35000X1.35000*%
D10*
X-489992Y1545000D02*
D03*
Y1455000D02*
D03*
X-239992Y1545000D02*
D03*
Y1455000D02*
D03*
X10008Y1545000D02*
D03*
Y1455000D02*
D03*
X260008Y1545000D02*
D03*
Y1455000D02*
D03*
X510008Y1545000D02*
D03*
Y1455000D02*
D03*
X760000Y1545000D02*
D03*
Y1455000D02*
D03*
X1010000Y1545000D02*
D03*
Y1455000D02*
D03*
X1260000Y1545000D02*
D03*
Y1455000D02*
D03*
D11*
X1525000Y-185000D02*
D03*
X1445000D02*
D03*
X1365000D02*
D03*
X1285000D02*
D03*
X1205000D02*
D03*
X1125000D02*
D03*
X1045000D02*
D03*
X965000D02*
D03*
X885000D02*
D03*
X805000D02*
D03*
X725000D02*
D03*
X645000D02*
D03*
X565000D02*
D03*
X485000D02*
D03*
X405000D02*
D03*
X325000D02*
D03*
X245000D02*
D03*
X165000D02*
D03*
X-235000D02*
D03*
X-315000D02*
D03*
X-395000D02*
D03*
X-475000D02*
D03*
X-555000D02*
D03*
X-635000D02*
D03*
X-715000D02*
D03*
X-795000D02*
D03*
D13*
X-825000Y4480000D02*
D03*
X1595000D02*
D03*
D14*
X10000Y2400000D02*
D03*
X260000D02*
D03*
X-740000D02*
D03*
X-240000D02*
D03*
X-490000D02*
D03*
X1260000D02*
D03*
X1010000D02*
D03*
X760000D02*
D03*
X510000D02*
D03*
D15*
X1510000D02*
D03*
%TF.MD5,9d406e4e1640c9f54c243cf9e7581cbd*%
M02*
