%TF.GenerationSoftware,Altium Limited,Altium Designer,23.3.1 (30)*%
G04 Layer_Physical_Order=2*
G04 Layer_Color=36540*
%FSLAX45Y45*%
%MOMM*%
%TF.SameCoordinates,FDB9E7A7-A389-4C7E-9334-FC0DF1D9A675*%
%TF.FilePolarity,Positive*%
%TF.FileFunction,Copper,L2,Inr,Signal*%
%TF.Part,Single*%
G01*
G75*
%TA.AperFunction,Conductor*%
%ADD12C,0.30000*%
%TA.AperFunction,ComponentPad*%
%ADD14C,1.35000*%
%TA.AperFunction,ViaPad*%
%ADD16C,0.50000*%
%ADD17C,3.00000*%
G36*
X-669500Y1335000D02*
X-669475Y1332183D01*
X-668875Y1323365D01*
X-668600Y1321773D01*
X-668275Y1320426D01*
X-667900Y1319323D01*
X-667475Y1318466D01*
X-667000Y1317854D01*
X-702000D01*
X-701525Y1318466D01*
X-701100Y1319323D01*
X-700725Y1320426D01*
X-700400Y1321773D01*
X-700125Y1323365D01*
X-699725Y1327284D01*
X-699525Y1332183D01*
X-699500Y1335000D01*
X-669500D01*
D02*
G37*
G36*
X-504992Y1721500D02*
X-505017Y1724317D01*
X-505617Y1733134D01*
X-505892Y1734727D01*
X-506217Y1736074D01*
X-506592Y1737176D01*
X-507017Y1738034D01*
X-507492Y1738646D01*
X-472493D01*
X-472968Y1738034D01*
X-473393Y1737176D01*
X-473767Y1736074D01*
X-474093Y1734727D01*
X-474367Y1733134D01*
X-474767Y1729215D01*
X-474968Y1724317D01*
X-474992Y1721500D01*
X-504992D01*
D02*
G37*
G36*
X-415500Y1335000D02*
X-415475Y1332183D01*
X-414875Y1323365D01*
X-414600Y1321773D01*
X-414275Y1320426D01*
X-413900Y1319323D01*
X-413475Y1318466D01*
X-413000Y1317854D01*
X-448000D01*
X-447525Y1318466D01*
X-447100Y1319323D01*
X-446725Y1320426D01*
X-446400Y1321773D01*
X-446125Y1323365D01*
X-445725Y1327284D01*
X-445525Y1332183D01*
X-445500Y1335000D01*
X-415500D01*
D02*
G37*
G36*
X-254992Y1721500D02*
X-255017Y1724317D01*
X-255617Y1733134D01*
X-255892Y1734727D01*
X-256217Y1736074D01*
X-256592Y1737176D01*
X-257017Y1738034D01*
X-257492Y1738646D01*
X-222493D01*
X-222968Y1738034D01*
X-223392Y1737176D01*
X-223767Y1736074D01*
X-224093Y1734727D01*
X-224367Y1733134D01*
X-224767Y1729215D01*
X-224968Y1724317D01*
X-224992Y1721500D01*
X-254992D01*
D02*
G37*
G36*
X-161500Y1335000D02*
X-161475Y1332183D01*
X-160875Y1323365D01*
X-160600Y1321773D01*
X-160275Y1320426D01*
X-159900Y1319323D01*
X-159475Y1318466D01*
X-159000Y1317854D01*
X-194000D01*
X-193525Y1318466D01*
X-193100Y1319323D01*
X-192725Y1320426D01*
X-192400Y1321773D01*
X-192125Y1323365D01*
X-191725Y1327284D01*
X-191525Y1332183D01*
X-191500Y1335000D01*
X-161500D01*
D02*
G37*
G36*
X-4992Y1721500D02*
X-5017Y1724317D01*
X-5617Y1733134D01*
X-5892Y1734727D01*
X-6217Y1736074D01*
X-6592Y1737176D01*
X-7017Y1738034D01*
X-7492Y1738646D01*
X27507D01*
X27032Y1738034D01*
X26608Y1737176D01*
X26233Y1736074D01*
X25907Y1734727D01*
X25633Y1733134D01*
X25233Y1729215D01*
X25032Y1724317D01*
X25008Y1721500D01*
X-4992D01*
D02*
G37*
G36*
X92500Y1335000D02*
X92525Y1332183D01*
X93125Y1323365D01*
X93400Y1321773D01*
X93725Y1320426D01*
X94100Y1319323D01*
X94525Y1318466D01*
X95000Y1317854D01*
X60000D01*
X60475Y1318466D01*
X60900Y1319323D01*
X61275Y1320426D01*
X61600Y1321773D01*
X61875Y1323365D01*
X62275Y1327284D01*
X62475Y1332183D01*
X62500Y1335000D01*
X92500D01*
D02*
G37*
G36*
X245008Y1721500D02*
X244983Y1724317D01*
X244383Y1733134D01*
X244108Y1734727D01*
X243783Y1736074D01*
X243408Y1737176D01*
X242983Y1738034D01*
X242508Y1738646D01*
X277507D01*
X277032Y1738034D01*
X276608Y1737176D01*
X276233Y1736074D01*
X275908Y1734727D01*
X275633Y1733134D01*
X275233Y1729215D01*
X275032Y1724317D01*
X275008Y1721500D01*
X245008D01*
D02*
G37*
G36*
X580500Y1335000D02*
X580525Y1332183D01*
X581125Y1323365D01*
X581400Y1321773D01*
X581725Y1320426D01*
X582100Y1319323D01*
X582525Y1318466D01*
X583000Y1317854D01*
X548000D01*
X548475Y1318466D01*
X548900Y1319323D01*
X549275Y1320426D01*
X549600Y1321773D01*
X549875Y1323365D01*
X550275Y1327284D01*
X550475Y1332183D01*
X550500Y1335000D01*
X580500D01*
D02*
G37*
G36*
X834500D02*
X834525Y1332183D01*
X835125Y1323365D01*
X835400Y1321773D01*
X835725Y1320426D01*
X836100Y1319323D01*
X836525Y1318466D01*
X837000Y1317854D01*
X802000D01*
X802475Y1318466D01*
X802900Y1319323D01*
X803275Y1320426D01*
X803600Y1321773D01*
X803875Y1323365D01*
X804275Y1327284D01*
X804475Y1332183D01*
X804500Y1335000D01*
X834500D01*
D02*
G37*
G36*
X495008Y1721500D02*
X494983Y1724317D01*
X494383Y1733134D01*
X494108Y1734727D01*
X493783Y1736074D01*
X493408Y1737176D01*
X492983Y1738034D01*
X492508Y1738646D01*
X527507D01*
X527032Y1738034D01*
X526608Y1737176D01*
X526233Y1736074D01*
X525908Y1734727D01*
X525633Y1733134D01*
X525233Y1729215D01*
X525032Y1724317D01*
X525008Y1721500D01*
X495008D01*
D02*
G37*
G36*
X745008D02*
X744983Y1724317D01*
X744383Y1733134D01*
X744108Y1734727D01*
X743783Y1736074D01*
X743408Y1737176D01*
X742983Y1738034D01*
X742508Y1738646D01*
X777507D01*
X777032Y1738034D01*
X776608Y1737176D01*
X776233Y1736074D01*
X775908Y1734727D01*
X775633Y1733134D01*
X775233Y1729215D01*
X775032Y1724317D01*
X775008Y1721500D01*
X745008D01*
D02*
G37*
G36*
X1088500Y1335000D02*
X1088525Y1332183D01*
X1089125Y1323365D01*
X1089400Y1321773D01*
X1089725Y1320426D01*
X1090100Y1319323D01*
X1090525Y1318466D01*
X1091000Y1317854D01*
X1056000D01*
X1056475Y1318466D01*
X1056900Y1319323D01*
X1057275Y1320426D01*
X1057600Y1321773D01*
X1057875Y1323365D01*
X1058275Y1327284D01*
X1058475Y1332183D01*
X1058500Y1335000D01*
X1088500D01*
D02*
G37*
G36*
X1342500D02*
X1342525Y1332183D01*
X1343125Y1323365D01*
X1343400Y1321773D01*
X1343725Y1320426D01*
X1344100Y1319323D01*
X1344525Y1318466D01*
X1345000Y1317854D01*
X1310000D01*
X1310475Y1318466D01*
X1310900Y1319323D01*
X1311275Y1320426D01*
X1311600Y1321773D01*
X1311875Y1323365D01*
X1312275Y1327284D01*
X1312475Y1332183D01*
X1312500Y1335000D01*
X1342500D01*
D02*
G37*
G36*
X995008Y1721500D02*
X994983Y1724317D01*
X994383Y1733134D01*
X994108Y1734727D01*
X993783Y1736074D01*
X993408Y1737176D01*
X992983Y1738034D01*
X992508Y1738646D01*
X1027507D01*
X1027032Y1738034D01*
X1026608Y1737176D01*
X1026233Y1736074D01*
X1025908Y1734727D01*
X1025633Y1733134D01*
X1025233Y1729215D01*
X1025032Y1724317D01*
X1025008Y1721500D01*
X995008D01*
D02*
G37*
G36*
X1245008D02*
X1244983Y1724317D01*
X1244383Y1733134D01*
X1244108Y1734727D01*
X1243783Y1736074D01*
X1243408Y1737176D01*
X1242983Y1738034D01*
X1242508Y1738646D01*
X1277507D01*
X1277032Y1738034D01*
X1276608Y1737176D01*
X1276233Y1736074D01*
X1275908Y1734727D01*
X1275633Y1733134D01*
X1275233Y1729215D01*
X1275033Y1724317D01*
X1275008Y1721500D01*
X1245008D01*
D02*
G37*
D12*
X1260008Y1645515D02*
X1327500Y1578023D01*
Y1300000D02*
Y1578023D01*
X1010008Y1645515D02*
X1073500Y1582023D01*
Y1300000D02*
Y1582023D01*
X760008Y1645515D02*
X819500Y1586023D01*
Y1300000D02*
Y1586023D01*
X1260008Y1645515D02*
Y1756500D01*
X1010008Y1645515D02*
Y1756500D01*
X760008Y1645515D02*
Y1756500D01*
X510008Y1645515D02*
Y1756500D01*
X565500Y1300000D02*
Y1590023D01*
X510008Y1645515D02*
X565500Y1590023D01*
X77500Y1461800D02*
X260008Y1644307D01*
Y1756500D01*
X77500Y1300000D02*
Y1461800D01*
X10008Y1648307D02*
Y1756500D01*
X-176500Y1461800D02*
X10008Y1648307D01*
X-430500Y1461800D02*
X-239992Y1652307D01*
Y1756500D01*
X-176500Y1300000D02*
Y1461800D01*
X-430500Y1300000D02*
Y1461800D01*
X-489992Y1656308D02*
Y1756500D01*
X-684500Y1461800D02*
X-489992Y1656308D01*
X-684500Y1300000D02*
Y1461800D01*
D14*
X10000Y2400000D02*
D03*
X260000D02*
D03*
X-740000D02*
D03*
X-240000D02*
D03*
X-490000D02*
D03*
X1510000D02*
D03*
X1260000D02*
D03*
X1010000D02*
D03*
X760000D02*
D03*
X510000D02*
D03*
D16*
X1260008Y1756500D02*
D03*
X1010008D02*
D03*
X760008D02*
D03*
X510008D02*
D03*
X260008D02*
D03*
X10008D02*
D03*
X-239992D02*
D03*
X-489992D02*
D03*
X1327500Y1300000D02*
D03*
X1073500D02*
D03*
X819500D02*
D03*
X565500D02*
D03*
X77500D02*
D03*
X-176500D02*
D03*
X-430500D02*
D03*
X-684500D02*
D03*
D17*
X-825000Y4480000D02*
D03*
X1595000D02*
D03*
%TF.MD5,ff07711eaa9ed56756bbe40c27c19173*%
M02*
