%TF.GenerationSoftware,Altium Limited,Altium Designer,23.3.1 (30)*%
G04 Layer_Color=255*
%FSLAX45Y45*%
%MOMM*%
%TF.SameCoordinates,FDB9E7A7-A389-4C7E-9334-FC0DF1D9A675*%
%TF.FilePolarity,Positive*%
%TF.FileFunction,Pads,Bot*%
%TF.Part,Single*%
G01*
G75*
%TA.AperFunction,ConnectorPad*%
%ADD11R,0.60000X2.30000*%
%TA.AperFunction,ViaPad*%
%ADD13R,5.30000X5.30000*%
%TA.AperFunction,ComponentPad*%
%ADD14C,1.35000*%
%ADD15R,1.35000X1.35000*%
%TA.AperFunction,SMDPad,CuDef*%
%ADD18R,0.70000X1.00000*%
%ADD19R,1.40000X0.70000*%
%ADD20R,0.52000X0.47000*%
D11*
X1565000Y-185000D02*
D03*
X1485000D02*
D03*
X1405000D02*
D03*
X1325000D02*
D03*
X1245000D02*
D03*
X1165000D02*
D03*
X1085000D02*
D03*
X1005000D02*
D03*
X925000D02*
D03*
X845000D02*
D03*
X765000D02*
D03*
X685000D02*
D03*
X605000D02*
D03*
X525000D02*
D03*
X445000D02*
D03*
X365000D02*
D03*
X285000D02*
D03*
X205000D02*
D03*
X-195000D02*
D03*
X-275000D02*
D03*
X-355000D02*
D03*
X-435000D02*
D03*
X-515000D02*
D03*
X-595000D02*
D03*
X-675000D02*
D03*
X-755000D02*
D03*
D13*
X-825000Y4480000D02*
D03*
X1595000D02*
D03*
D14*
X10000Y2400000D02*
D03*
X260000D02*
D03*
X-740000D02*
D03*
X-240000D02*
D03*
X-490000D02*
D03*
X1260000D02*
D03*
X1010000D02*
D03*
X760000D02*
D03*
X510000D02*
D03*
D15*
X1510000D02*
D03*
D18*
X-430500Y500000D02*
D03*
X-303500D02*
D03*
X-176500D02*
D03*
X-49500D02*
D03*
Y1200000D02*
D03*
X-176500D02*
D03*
X-303500D02*
D03*
X-430500D02*
D03*
X-557500D02*
D03*
X77500D02*
D03*
Y500000D02*
D03*
X-557500D02*
D03*
X-684500Y1200000D02*
D03*
Y500000D02*
D03*
X204500Y1200000D02*
D03*
Y500000D02*
D03*
X819500D02*
D03*
X946500D02*
D03*
X1073500D02*
D03*
X1200500D02*
D03*
Y1200000D02*
D03*
X1073500D02*
D03*
X946500D02*
D03*
X819500D02*
D03*
X692500D02*
D03*
X1327500D02*
D03*
Y500000D02*
D03*
X692500D02*
D03*
X565500Y1200000D02*
D03*
Y500000D02*
D03*
X1454500Y1200000D02*
D03*
Y500000D02*
D03*
D19*
X760008Y2043500D02*
D03*
Y1856500D02*
D03*
X510008Y2043500D02*
D03*
Y1856500D02*
D03*
X1010008Y2043500D02*
D03*
Y1856500D02*
D03*
X260008Y2043500D02*
D03*
Y1856500D02*
D03*
X10008Y2043500D02*
D03*
Y1856500D02*
D03*
X-239992Y2043500D02*
D03*
Y1856500D02*
D03*
X-489992Y2043500D02*
D03*
Y1856500D02*
D03*
X1260008Y2043500D02*
D03*
Y1856500D02*
D03*
D20*
X-557500Y307000D02*
D03*
Y393000D02*
D03*
X1327500D02*
D03*
Y307000D02*
D03*
X1073500Y393000D02*
D03*
Y307000D02*
D03*
X819500Y393000D02*
D03*
Y307000D02*
D03*
X-684500Y393000D02*
D03*
Y307000D02*
D03*
X77500Y393000D02*
D03*
Y307000D02*
D03*
X946500D02*
D03*
Y393000D02*
D03*
X-430500D02*
D03*
Y307000D02*
D03*
X692500D02*
D03*
Y393000D02*
D03*
X565500D02*
D03*
Y307000D02*
D03*
X204500D02*
D03*
Y393000D02*
D03*
X1200500Y307000D02*
D03*
Y393000D02*
D03*
X-49500Y307000D02*
D03*
Y393000D02*
D03*
X-176500D02*
D03*
Y307000D02*
D03*
X-303500D02*
D03*
Y393000D02*
D03*
X1454500Y307000D02*
D03*
Y393000D02*
D03*
%TF.MD5,b662ce93364f80f6d5b2b26186e4451e*%
M02*
