G04*
G04 #@! TF.GenerationSoftware,Altium Limited,Altium Designer,23.3.1 (30)*
G04*
G04 Layer_Physical_Order=1*
G04 Layer_Color=255*
%FSLAX44Y44*%
%MOMM*%
G71*
G04*
G04 #@! TF.SameCoordinates,B0EE65AD-7F72-4637-8529-5AC13AF0589E*
G04*
G04*
G04 #@! TF.FilePolarity,Positive*
G04*
G01*
G75*
%ADD13R,0.6000X0.5000*%
%ADD20R,0.6000X2.3000*%
%ADD21C,0.3000*%
%ADD22R,5.3000X5.3000*%
%ADD23C,1.3500*%
%ADD24R,1.3500X1.3500*%
%ADD25C,0.5000*%
G36*
X185951Y110000D02*
X-108951D01*
X-108951Y275590D01*
X185951D01*
X185951Y110000D01*
D02*
G37*
G36*
X185951Y2049D02*
X175000D01*
X174938Y2036D01*
X174875Y2046D01*
X174091Y2007D01*
X173908Y1961D01*
X173719D01*
X172181Y1655D01*
X171949Y1559D01*
X171702Y1510D01*
X170253Y910D01*
X170045Y771D01*
X169813Y675D01*
X168509Y-197D01*
X168331Y-374D01*
X168123Y-514D01*
X167014Y-1623D01*
X166874Y-1831D01*
X166697Y-2009D01*
X165825Y-3313D01*
X165729Y-3545D01*
X165590Y-3753D01*
X165108Y-4918D01*
X10049D01*
Y0D01*
X10032Y83D01*
X10043Y167D01*
X9979Y1146D01*
X9914Y1388D01*
X9898Y1639D01*
X9391Y3530D01*
X9244Y3829D01*
X9136Y4144D01*
X8158Y5840D01*
X7938Y6091D01*
X7752Y6368D01*
X6368Y7752D01*
X6091Y7938D01*
X5840Y8158D01*
X4144Y9136D01*
X3829Y9244D01*
X3530Y9391D01*
X1639Y9898D01*
X1306Y9920D01*
X979Y9985D01*
X-979D01*
X-1306Y9920D01*
X-1639Y9898D01*
X-3530Y9391D01*
X-3829Y9244D01*
X-4145Y9136D01*
X-5840Y8158D01*
X-6091Y7938D01*
X-6368Y7752D01*
X-7753Y6368D01*
X-7938Y6091D01*
X-8158Y5840D01*
X-9136Y4144D01*
X-9244Y3829D01*
X-9391Y3530D01*
X-9898Y1639D01*
X-9914Y1388D01*
X-9979Y1146D01*
X-10043Y167D01*
X-10032Y83D01*
X-10049Y0D01*
Y-4918D01*
X-88108D01*
X-88590Y-3753D01*
X-88729Y-3545D01*
X-88825Y-3313D01*
X-89697Y-2009D01*
X-89874Y-1831D01*
X-90014Y-1623D01*
X-91123Y-514D01*
X-91331Y-374D01*
X-91509Y-197D01*
X-92813Y675D01*
X-93045Y771D01*
X-93253Y910D01*
X-94702Y1510D01*
X-94949Y1559D01*
X-95181Y1655D01*
X-96719Y1961D01*
X-96908D01*
X-97091Y2007D01*
X-97875Y2046D01*
X-97938Y2036D01*
X-98000Y2049D01*
X-108951D01*
Y69850D01*
X185951D01*
Y2049D01*
D02*
G37*
%LPC*%
G36*
X158750Y247750D02*
X152000D01*
Y241000D01*
X158750D01*
Y247750D01*
D02*
G37*
G36*
X-72980D02*
X-73000D01*
Y241000D01*
X-66250D01*
Y241020D01*
X-66778Y242991D01*
X-67799Y244759D01*
X-69241Y246201D01*
X-71009Y247222D01*
X-72980Y247750D01*
D02*
G37*
G36*
X150000D02*
X143250D01*
Y241000D01*
X150000D01*
Y247750D01*
D02*
G37*
G36*
X-75000D02*
X-75020D01*
X-76991Y247222D01*
X-78759Y246201D01*
X-80202Y244759D01*
X-81222Y242991D01*
X-81750Y241020D01*
Y241000D01*
X-75000D01*
Y247750D01*
D02*
G37*
G36*
X158750Y239000D02*
X152000D01*
Y232250D01*
X158750D01*
Y239000D01*
D02*
G37*
G36*
X150000D02*
X143250D01*
Y232250D01*
X150000D01*
Y239000D01*
D02*
G37*
G36*
X-66250D02*
X-73000D01*
Y232250D01*
X-72980D01*
X-71009Y232778D01*
X-69241Y233799D01*
X-67799Y235241D01*
X-66778Y237009D01*
X-66250Y238980D01*
Y239000D01*
D02*
G37*
G36*
X-75000D02*
X-81750D01*
Y238980D01*
X-81222Y237009D01*
X-80202Y235241D01*
X-78759Y233799D01*
X-76991Y232778D01*
X-75020Y232250D01*
X-75000D01*
Y239000D01*
D02*
G37*
G36*
X135890Y256352D02*
X-58420D01*
X-59185Y256035D01*
X-59502Y255270D01*
Y226060D01*
X-59185Y225295D01*
X-58420Y224978D01*
X135890D01*
X136655Y225295D01*
X136972Y226060D01*
Y255270D01*
X136655Y256035D01*
X135890Y256352D01*
D02*
G37*
G36*
X126697Y179150D02*
X125305D01*
X124018Y178617D01*
X123034Y177633D01*
X122501Y176346D01*
Y174954D01*
X123034Y173667D01*
X123317Y173384D01*
X123316Y173369D01*
X123328Y173335D01*
X123328Y173323D01*
X123338Y173303D01*
X123350Y173253D01*
X123362Y173184D01*
X123416Y172390D01*
X123418Y172140D01*
X123452Y172062D01*
Y160072D01*
X123419Y159997D01*
X123405Y159460D01*
X123367Y159023D01*
X123349Y158915D01*
X122577Y158000D01*
X122000D01*
X121948Y156969D01*
X121958Y156946D01*
X121954Y156854D01*
X122000Y156770D01*
Y151000D01*
X130000D01*
Y156730D01*
X130000Y156770D01*
X130046Y156854D01*
X130042Y156946D01*
X130052Y156969D01*
X130000Y158000D01*
X129423Y158000D01*
X128652Y158916D01*
X128634Y159024D01*
X128597Y159460D01*
X128583Y159997D01*
X128550Y160072D01*
Y172062D01*
X128583Y172140D01*
X128585Y172405D01*
X128603Y172844D01*
X128636Y173166D01*
X128651Y173253D01*
X128663Y173303D01*
X128673Y173323D01*
X128674Y173335D01*
X128686Y173369D01*
X128685Y173384D01*
X128968Y173667D01*
X129501Y174954D01*
Y176346D01*
X128968Y177633D01*
X127983Y178617D01*
X126697Y179150D01*
D02*
G37*
G36*
X101697D02*
X100305D01*
X99018Y178617D01*
X98034Y177633D01*
X97501Y176346D01*
Y174954D01*
X98034Y173667D01*
X98317Y173384D01*
X98316Y173369D01*
X98328Y173335D01*
X98328Y173323D01*
X98338Y173303D01*
X98350Y173253D01*
X98362Y173184D01*
X98416Y172390D01*
X98418Y172140D01*
X98452Y172062D01*
Y160072D01*
X98419Y159997D01*
X98405Y159460D01*
X98367Y159023D01*
X98349Y158915D01*
X97577Y158000D01*
X97000D01*
X96948Y156969D01*
X96958Y156946D01*
X96954Y156854D01*
X97000Y156770D01*
Y151000D01*
X105000D01*
Y156730D01*
X105000Y156770D01*
X105046Y156854D01*
X105042Y156946D01*
X105052Y156969D01*
X105000Y158000D01*
X104423Y158000D01*
X103652Y158916D01*
X103634Y159024D01*
X103597Y159460D01*
X103583Y159997D01*
X103550Y160072D01*
Y172062D01*
X103583Y172140D01*
X103585Y172405D01*
X103603Y172844D01*
X103636Y173166D01*
X103651Y173253D01*
X103663Y173303D01*
X103673Y173323D01*
X103674Y173335D01*
X103686Y173369D01*
X103685Y173384D01*
X103968Y173667D01*
X104501Y174954D01*
Y176346D01*
X103968Y177633D01*
X102983Y178617D01*
X101697Y179150D01*
D02*
G37*
G36*
X76697D02*
X75305D01*
X74018Y178617D01*
X73034Y177633D01*
X72501Y176346D01*
Y174954D01*
X73034Y173667D01*
X73317Y173384D01*
X73316Y173369D01*
X73328Y173335D01*
X73328Y173323D01*
X73338Y173303D01*
X73350Y173253D01*
X73362Y173184D01*
X73416Y172390D01*
X73418Y172140D01*
X73452Y172062D01*
Y160072D01*
X73419Y159997D01*
X73405Y159460D01*
X73367Y159023D01*
X73349Y158915D01*
X72577Y158000D01*
X72000D01*
X71948Y156969D01*
X71958Y156946D01*
X71954Y156854D01*
X72000Y156770D01*
Y151000D01*
X80000D01*
Y156730D01*
X80000Y156770D01*
X80046Y156854D01*
X80042Y156946D01*
X80052Y156969D01*
X80000Y158000D01*
X79423Y158000D01*
X78652Y158916D01*
X78634Y159024D01*
X78597Y159460D01*
X78583Y159997D01*
X78550Y160072D01*
Y172062D01*
X78583Y172140D01*
X78585Y172405D01*
X78603Y172844D01*
X78636Y173166D01*
X78651Y173253D01*
X78663Y173303D01*
X78673Y173323D01*
X78674Y173335D01*
X78685Y173369D01*
X78685Y173384D01*
X78968Y173667D01*
X79501Y174954D01*
Y176346D01*
X78968Y177633D01*
X77983Y178617D01*
X76697Y179150D01*
D02*
G37*
G36*
X51697D02*
X50305D01*
X49018Y178617D01*
X48034Y177633D01*
X47501Y176346D01*
Y174954D01*
X48034Y173667D01*
X48317Y173384D01*
X48316Y173369D01*
X48328Y173335D01*
X48328Y173323D01*
X48338Y173303D01*
X48350Y173253D01*
X48362Y173184D01*
X48416Y172390D01*
X48418Y172140D01*
X48452Y172062D01*
Y160072D01*
X48419Y159997D01*
X48405Y159460D01*
X48367Y159024D01*
X48349Y158915D01*
X47578Y158000D01*
X47001D01*
X46949Y156969D01*
X46959Y156946D01*
X46955Y156854D01*
X47001Y156770D01*
Y151000D01*
X55001D01*
Y156730D01*
X55001Y156770D01*
X55047Y156854D01*
X55043Y156946D01*
X55053Y156969D01*
X55001Y158000D01*
X54424Y158000D01*
X53652Y158915D01*
X53634Y159024D01*
X53597Y159460D01*
X53583Y159997D01*
X53550Y160072D01*
Y172062D01*
X53583Y172140D01*
X53585Y172405D01*
X53603Y172844D01*
X53636Y173166D01*
X53651Y173253D01*
X53663Y173303D01*
X53673Y173323D01*
X53674Y173335D01*
X53685Y173369D01*
X53685Y173384D01*
X53968Y173667D01*
X54501Y174954D01*
Y176346D01*
X53968Y177633D01*
X52983Y178617D01*
X51697Y179150D01*
D02*
G37*
G36*
X26697D02*
X25305D01*
X24018Y178617D01*
X23034Y177633D01*
X22501Y176346D01*
Y174954D01*
X23034Y173667D01*
X23317Y173384D01*
X23316Y173369D01*
X23328Y173335D01*
X23328Y173323D01*
X23338Y173303D01*
X23350Y173253D01*
X23362Y173184D01*
X23416Y172390D01*
X23418Y172140D01*
X23452Y172062D01*
Y160072D01*
X23419Y159997D01*
X23405Y159460D01*
X23367Y159024D01*
X23349Y158915D01*
X22578Y158000D01*
X22001D01*
X21949Y156969D01*
X21959Y156946D01*
X21955Y156854D01*
X22001Y156770D01*
Y151000D01*
X30001D01*
Y156730D01*
X30001Y156770D01*
X30047Y156854D01*
X30043Y156946D01*
X30053Y156969D01*
X30001Y158000D01*
X29424Y158000D01*
X28652Y158915D01*
X28634Y159024D01*
X28597Y159460D01*
X28583Y159997D01*
X28550Y160072D01*
Y172062D01*
X28583Y172140D01*
X28585Y172405D01*
X28603Y172844D01*
X28636Y173166D01*
X28651Y173253D01*
X28663Y173303D01*
X28673Y173323D01*
X28674Y173335D01*
X28686Y173369D01*
X28685Y173384D01*
X28968Y173667D01*
X29501Y174954D01*
Y176346D01*
X28968Y177633D01*
X27983Y178617D01*
X26697Y179150D01*
D02*
G37*
G36*
X1697D02*
X305D01*
X-982Y178617D01*
X-1966Y177633D01*
X-2499Y176346D01*
Y174954D01*
X-1966Y173667D01*
X-1683Y173384D01*
X-1684Y173369D01*
X-1672Y173335D01*
X-1672Y173323D01*
X-1662Y173303D01*
X-1650Y173253D01*
X-1638Y173184D01*
X-1584Y172390D01*
X-1582Y172140D01*
X-1548Y172062D01*
Y160072D01*
X-1581Y159997D01*
X-1595Y159460D01*
X-1633Y159024D01*
X-1650Y158915D01*
X-2422Y158000D01*
X-2999D01*
X-3051Y156969D01*
X-3041Y156946D01*
X-3045Y156854D01*
X-2999Y156770D01*
Y151000D01*
X5001D01*
Y156730D01*
X5001Y156770D01*
X5046Y156854D01*
X5043Y156946D01*
X5053Y156969D01*
X5001Y158000D01*
X4424Y158000D01*
X3652Y158915D01*
X3634Y159024D01*
X3597Y159460D01*
X3583Y159997D01*
X3550Y160072D01*
Y172062D01*
X3583Y172140D01*
X3585Y172405D01*
X3603Y172844D01*
X3636Y173166D01*
X3651Y173253D01*
X3663Y173303D01*
X3673Y173323D01*
X3674Y173335D01*
X3686Y173369D01*
X3684Y173384D01*
X3968Y173667D01*
X4501Y174954D01*
Y176346D01*
X3968Y177633D01*
X2983Y178617D01*
X1697Y179150D01*
D02*
G37*
G36*
X-23303D02*
X-24695D01*
X-25982Y178617D01*
X-26966Y177633D01*
X-27499Y176346D01*
Y174954D01*
X-26966Y173667D01*
X-26683Y173384D01*
X-26684Y173369D01*
X-26672Y173335D01*
X-26672Y173323D01*
X-26662Y173303D01*
X-26650Y173253D01*
X-26638Y173184D01*
X-26584Y172390D01*
X-26582Y172140D01*
X-26548Y172062D01*
Y160072D01*
X-26581Y159997D01*
X-26595Y159460D01*
X-26633Y159024D01*
X-26651Y158915D01*
X-27422Y158000D01*
X-27999D01*
X-28051Y156969D01*
X-28041Y156946D01*
X-28045Y156854D01*
X-27999Y156770D01*
Y151000D01*
X-19999D01*
Y156730D01*
X-19999Y156770D01*
X-19954Y156854D01*
X-19957Y156946D01*
X-19947Y156969D01*
X-19999Y158000D01*
X-20576Y158000D01*
X-21348Y158915D01*
X-21366Y159024D01*
X-21403Y159460D01*
X-21417Y159997D01*
X-21450Y160072D01*
Y172062D01*
X-21417Y172140D01*
X-21415Y172405D01*
X-21397Y172844D01*
X-21364Y173166D01*
X-21349Y173253D01*
X-21337Y173303D01*
X-21327Y173323D01*
X-21326Y173335D01*
X-21314Y173369D01*
X-21316Y173384D01*
X-21032Y173667D01*
X-20499Y174954D01*
Y176346D01*
X-21032Y177633D01*
X-22017Y178617D01*
X-23303Y179150D01*
D02*
G37*
G36*
X-48303D02*
X-49695D01*
X-50982Y178617D01*
X-51966Y177633D01*
X-52499Y176346D01*
Y174954D01*
X-51966Y173667D01*
X-51683Y173384D01*
X-51684Y173369D01*
X-51672Y173335D01*
X-51672Y173323D01*
X-51662Y173303D01*
X-51650Y173253D01*
X-51638Y173184D01*
X-51584Y172390D01*
X-51582Y172140D01*
X-51548Y172062D01*
Y160072D01*
X-51581Y159997D01*
X-51595Y159460D01*
X-51633Y159024D01*
X-51651Y158915D01*
X-52422Y158000D01*
X-52999D01*
X-53051Y156969D01*
X-53041Y156946D01*
X-53045Y156854D01*
X-52999Y156770D01*
Y151000D01*
X-44999D01*
Y156730D01*
X-44999Y156770D01*
X-44953Y156854D01*
X-44957Y156946D01*
X-44947Y156969D01*
X-44999Y158000D01*
X-45576Y158000D01*
X-46348Y158915D01*
X-46366Y159024D01*
X-46403Y159460D01*
X-46417Y159997D01*
X-46450Y160072D01*
Y172062D01*
X-46417Y172140D01*
X-46415Y172405D01*
X-46397Y172844D01*
X-46364Y173166D01*
X-46349Y173253D01*
X-46337Y173303D01*
X-46327Y173323D01*
X-46326Y173335D01*
X-46315Y173369D01*
X-46315Y173384D01*
X-46032Y173667D01*
X-45499Y174954D01*
Y176346D01*
X-46032Y177633D01*
X-47017Y178617D01*
X-48303Y179150D01*
D02*
G37*
G36*
X5001Y149000D02*
X2001D01*
Y146500D01*
X5001D01*
Y149000D01*
D02*
G37*
G36*
X-19999D02*
X-22999D01*
Y146500D01*
X-19999D01*
Y149000D01*
D02*
G37*
G36*
X-44999D02*
X-47999D01*
Y146500D01*
X-44999D01*
Y149000D01*
D02*
G37*
G36*
X55001D02*
X52001D01*
Y146500D01*
X55001D01*
Y149000D01*
D02*
G37*
G36*
X30001D02*
X27001D01*
Y146500D01*
X30001D01*
Y149000D01*
D02*
G37*
G36*
X1D02*
X-2999D01*
Y146500D01*
X1D01*
Y149000D01*
D02*
G37*
G36*
X-24999D02*
X-27999D01*
Y146500D01*
X-24999D01*
Y149000D01*
D02*
G37*
G36*
X-49999D02*
X-52999D01*
Y146500D01*
X-49999D01*
Y149000D01*
D02*
G37*
G36*
X50001D02*
X47001D01*
Y146500D01*
X50001D01*
Y149000D01*
D02*
G37*
G36*
X25001D02*
X22001D01*
Y146500D01*
X25001D01*
Y149000D01*
D02*
G37*
G36*
X130000D02*
X127000D01*
Y146500D01*
X130000D01*
Y149000D01*
D02*
G37*
G36*
X105000D02*
X102000D01*
Y146500D01*
X105000D01*
Y149000D01*
D02*
G37*
G36*
X80000D02*
X77000D01*
Y146500D01*
X80000D01*
Y149000D01*
D02*
G37*
G36*
X125000D02*
X122000D01*
Y146500D01*
X125000D01*
Y149000D01*
D02*
G37*
G36*
X100000D02*
X97000D01*
Y146500D01*
X100000D01*
Y149000D01*
D02*
G37*
G36*
X75000D02*
X72000D01*
Y146500D01*
X75000D01*
Y149000D01*
D02*
G37*
G36*
X130000Y144500D02*
X127000D01*
Y142000D01*
X130000D01*
Y144500D01*
D02*
G37*
G36*
X125000D02*
X122000D01*
Y142000D01*
X125000D01*
Y144500D01*
D02*
G37*
G36*
X105000D02*
X102000D01*
Y142000D01*
X105000D01*
Y144500D01*
D02*
G37*
G36*
X100000D02*
X97000D01*
Y142000D01*
X100000D01*
Y144500D01*
D02*
G37*
G36*
X80000D02*
X77000D01*
Y142000D01*
X80000D01*
Y144500D01*
D02*
G37*
G36*
X75000D02*
X72000D01*
Y142000D01*
X75000D01*
Y144500D01*
D02*
G37*
G36*
X55001Y144500D02*
X52001D01*
Y142000D01*
X55001D01*
Y144500D01*
D02*
G37*
G36*
X50001D02*
X47001D01*
Y142000D01*
X50001D01*
Y144500D01*
D02*
G37*
G36*
X30001D02*
X27001D01*
Y142000D01*
X30001D01*
Y144500D01*
D02*
G37*
G36*
X25001D02*
X22001D01*
Y142000D01*
X25001D01*
Y144500D01*
D02*
G37*
G36*
X5001D02*
X2001D01*
Y142000D01*
X5001D01*
Y144500D01*
D02*
G37*
G36*
X1D02*
X-2999D01*
Y142000D01*
X1D01*
Y144500D01*
D02*
G37*
G36*
X-19999D02*
X-22999D01*
Y142000D01*
X-19999D01*
Y144500D01*
D02*
G37*
G36*
X-24999D02*
X-27999D01*
Y142000D01*
X-24999D01*
Y144500D01*
D02*
G37*
G36*
X-44999D02*
X-47999D01*
Y142000D01*
X-44999D01*
Y144500D01*
D02*
G37*
G36*
X-49999D02*
X-52999D01*
Y142000D01*
X-49999D01*
Y144500D01*
D02*
G37*
G36*
X133446Y133500D02*
X132054D01*
X130767Y132967D01*
X129783Y131983D01*
X129250Y130696D01*
Y129304D01*
X129783Y128017D01*
X130767Y127033D01*
X132054Y126500D01*
X133446D01*
X134733Y127033D01*
X135717Y128017D01*
X136250Y129304D01*
Y130696D01*
X135717Y131983D01*
X134733Y132967D01*
X133446Y133500D01*
D02*
G37*
G36*
X108046D02*
X106654D01*
X105367Y132967D01*
X104383Y131983D01*
X103850Y130696D01*
Y129304D01*
X104383Y128017D01*
X105367Y127033D01*
X106654Y126500D01*
X108046D01*
X109333Y127033D01*
X110317Y128017D01*
X110850Y129304D01*
Y130696D01*
X110317Y131983D01*
X109333Y132967D01*
X108046Y133500D01*
D02*
G37*
G36*
X82646D02*
X81254D01*
X79967Y132967D01*
X78983Y131983D01*
X78450Y130696D01*
Y129304D01*
X78983Y128017D01*
X79967Y127033D01*
X81254Y126500D01*
X82646D01*
X83933Y127033D01*
X84917Y128017D01*
X85450Y129304D01*
Y130696D01*
X84917Y131983D01*
X83933Y132967D01*
X82646Y133500D01*
D02*
G37*
G36*
X57246D02*
X55854D01*
X54567Y132967D01*
X53583Y131983D01*
X53050Y130696D01*
Y129304D01*
X53583Y128017D01*
X54567Y127033D01*
X55854Y126500D01*
X57246D01*
X58533Y127033D01*
X59517Y128017D01*
X60050Y129304D01*
Y130696D01*
X59517Y131983D01*
X58533Y132967D01*
X57246Y133500D01*
D02*
G37*
G36*
X8446D02*
X7054D01*
X5767Y132967D01*
X4783Y131983D01*
X4250Y130696D01*
Y129304D01*
X4783Y128017D01*
X5767Y127033D01*
X7054Y126500D01*
X8446D01*
X9733Y127033D01*
X10717Y128017D01*
X11250Y129304D01*
Y130696D01*
X10717Y131983D01*
X9733Y132967D01*
X8446Y133500D01*
D02*
G37*
G36*
X-16954D02*
X-18346D01*
X-19633Y132967D01*
X-20617Y131983D01*
X-21150Y130696D01*
Y129304D01*
X-20617Y128017D01*
X-19633Y127033D01*
X-18346Y126500D01*
X-16954D01*
X-15667Y127033D01*
X-14683Y128017D01*
X-14150Y129304D01*
Y130696D01*
X-14683Y131983D01*
X-15667Y132967D01*
X-16954Y133500D01*
D02*
G37*
G36*
X-42354D02*
X-43746D01*
X-45033Y132967D01*
X-46017Y131983D01*
X-46550Y130696D01*
Y129304D01*
X-46017Y128017D01*
X-45033Y127033D01*
X-43746Y126500D01*
X-42354D01*
X-41067Y127033D01*
X-40083Y128017D01*
X-39550Y129304D01*
Y130696D01*
X-40083Y131983D01*
X-41067Y132967D01*
X-42354Y133500D01*
D02*
G37*
G36*
X-67754D02*
X-69146D01*
X-70433Y132967D01*
X-71417Y131983D01*
X-71950Y130696D01*
Y129304D01*
X-71417Y128017D01*
X-70433Y127033D01*
X-69146Y126500D01*
X-67754D01*
X-66467Y127033D01*
X-65483Y128017D01*
X-64950Y129304D01*
Y130696D01*
X-65483Y131983D01*
X-66467Y132967D01*
X-67754Y133500D01*
D02*
G37*
%LPD*%
G36*
X127703Y173803D02*
X127661Y173718D01*
X127623Y173607D01*
X127591Y173473D01*
X127563Y173313D01*
X127523Y172922D01*
X127503Y172432D01*
X127501Y172150D01*
X124501D01*
X124498Y172432D01*
X124438Y173313D01*
X124411Y173473D01*
X124378Y173607D01*
X124341Y173718D01*
X124298Y173803D01*
X124251Y173865D01*
X127751D01*
X127703Y173803D01*
D02*
G37*
G36*
X127515Y159399D02*
X127559Y158890D01*
X127633Y158440D01*
X127736Y158049D01*
X127868Y157719D01*
X128029Y157450D01*
X128220Y157240D01*
X128441Y157090D01*
X128690Y157000D01*
X128969Y156969D01*
X123031D01*
X123310Y157000D01*
X123560Y157090D01*
X123780Y157240D01*
X123972Y157450D01*
X124133Y157719D01*
X124265Y158049D01*
X124368Y158440D01*
X124442Y158890D01*
X124486Y159399D01*
X124501Y159970D01*
X127501D01*
X127515Y159399D01*
D02*
G37*
G36*
X102703Y173803D02*
X102661Y173718D01*
X102623Y173607D01*
X102591Y173473D01*
X102563Y173313D01*
X102523Y172922D01*
X102503Y172432D01*
X102501Y172150D01*
X99501D01*
X99498Y172432D01*
X99438Y173313D01*
X99411Y173473D01*
X99378Y173607D01*
X99341Y173718D01*
X99298Y173803D01*
X99251Y173865D01*
X102751D01*
X102703Y173803D01*
D02*
G37*
G36*
X102515Y159399D02*
X102559Y158890D01*
X102633Y158440D01*
X102736Y158049D01*
X102868Y157719D01*
X103029Y157450D01*
X103220Y157240D01*
X103441Y157090D01*
X103690Y157000D01*
X103969Y156969D01*
X98031D01*
X98310Y157000D01*
X98560Y157090D01*
X98780Y157240D01*
X98972Y157450D01*
X99133Y157719D01*
X99265Y158049D01*
X99368Y158440D01*
X99442Y158890D01*
X99486Y159399D01*
X99501Y159970D01*
X102501D01*
X102515Y159399D01*
D02*
G37*
G36*
X77703Y173803D02*
X77661Y173718D01*
X77623Y173607D01*
X77591Y173473D01*
X77563Y173313D01*
X77523Y172922D01*
X77503Y172432D01*
X77501Y172150D01*
X74501D01*
X74498Y172432D01*
X74438Y173313D01*
X74411Y173473D01*
X74378Y173607D01*
X74341Y173718D01*
X74298Y173803D01*
X74251Y173865D01*
X77751D01*
X77703Y173803D01*
D02*
G37*
G36*
X77515Y159399D02*
X77559Y158890D01*
X77633Y158440D01*
X77736Y158049D01*
X77868Y157719D01*
X78029Y157450D01*
X78220Y157240D01*
X78441Y157090D01*
X78690Y157000D01*
X78969Y156969D01*
X73031D01*
X73310Y157000D01*
X73560Y157090D01*
X73780Y157240D01*
X73972Y157450D01*
X74133Y157719D01*
X74265Y158049D01*
X74368Y158440D01*
X74442Y158890D01*
X74486Y159399D01*
X74501Y159970D01*
X77501D01*
X77515Y159399D01*
D02*
G37*
G36*
X52703Y173803D02*
X52661Y173718D01*
X52623Y173607D01*
X52591Y173473D01*
X52563Y173313D01*
X52523Y172922D01*
X52503Y172432D01*
X52501Y172150D01*
X49501D01*
X49498Y172432D01*
X49438Y173313D01*
X49411Y173473D01*
X49378Y173607D01*
X49341Y173718D01*
X49298Y173803D01*
X49251Y173865D01*
X52751D01*
X52703Y173803D01*
D02*
G37*
G36*
X52516Y159399D02*
X52559Y158890D01*
X52633Y158440D01*
X52736Y158049D01*
X52868Y157719D01*
X53030Y157450D01*
X53221Y157240D01*
X53441Y157090D01*
X53691Y157000D01*
X53970Y156969D01*
X48031D01*
X48310Y157000D01*
X48560Y157090D01*
X48781Y157240D01*
X48972Y157450D01*
X49133Y157719D01*
X49266Y158049D01*
X49369Y158440D01*
X49442Y158890D01*
X49486Y159399D01*
X49501Y159970D01*
X52501D01*
X52516Y159399D01*
D02*
G37*
G36*
X27703Y173803D02*
X27661Y173718D01*
X27623Y173607D01*
X27591Y173473D01*
X27563Y173313D01*
X27523Y172922D01*
X27503Y172432D01*
X27501Y172150D01*
X24501D01*
X24498Y172432D01*
X24438Y173313D01*
X24411Y173473D01*
X24378Y173607D01*
X24341Y173718D01*
X24298Y173803D01*
X24251Y173865D01*
X27751D01*
X27703Y173803D01*
D02*
G37*
G36*
X27515Y159399D02*
X27559Y158890D01*
X27633Y158440D01*
X27736Y158049D01*
X27868Y157719D01*
X28030Y157450D01*
X28221Y157240D01*
X28441Y157090D01*
X28691Y157000D01*
X28970Y156969D01*
X23031D01*
X23310Y157000D01*
X23560Y157090D01*
X23781Y157240D01*
X23972Y157450D01*
X24133Y157719D01*
X24266Y158049D01*
X24369Y158440D01*
X24442Y158890D01*
X24486Y159399D01*
X24501Y159970D01*
X27501D01*
X27515Y159399D01*
D02*
G37*
G36*
X2703Y173803D02*
X2661Y173718D01*
X2623Y173607D01*
X2591Y173473D01*
X2563Y173313D01*
X2523Y172922D01*
X2503Y172432D01*
X2501Y172150D01*
X-499D01*
X-502Y172432D01*
X-562Y173313D01*
X-589Y173473D01*
X-622Y173607D01*
X-659Y173718D01*
X-702Y173803D01*
X-749Y173865D01*
X2751D01*
X2703Y173803D01*
D02*
G37*
G36*
X2515Y159399D02*
X2560Y158890D01*
X2633Y158440D01*
X2736Y158049D01*
X2868Y157719D01*
X3030Y157450D01*
X3221Y157240D01*
X3441Y157090D01*
X3691Y157000D01*
X3970Y156969D01*
X-1969D01*
X-1690Y157000D01*
X-1440Y157090D01*
X-1219Y157240D01*
X-1028Y157450D01*
X-867Y157719D01*
X-734Y158049D01*
X-632Y158440D01*
X-558Y158890D01*
X-514Y159399D01*
X-499Y159970D01*
X2501D01*
X2515Y159399D01*
D02*
G37*
G36*
X-22297Y173803D02*
X-22339Y173718D01*
X-22377Y173607D01*
X-22409Y173473D01*
X-22437Y173313D01*
X-22477Y172922D01*
X-22497Y172432D01*
X-22499Y172150D01*
X-25499D01*
X-25502Y172432D01*
X-25562Y173313D01*
X-25589Y173473D01*
X-25622Y173607D01*
X-25659Y173718D01*
X-25702Y173803D01*
X-25749Y173865D01*
X-22249D01*
X-22297Y173803D01*
D02*
G37*
G36*
X-22485Y159399D02*
X-22441Y158890D01*
X-22367Y158440D01*
X-22264Y158049D01*
X-22132Y157719D01*
X-21970Y157450D01*
X-21779Y157240D01*
X-21559Y157090D01*
X-21309Y157000D01*
X-21030Y156969D01*
X-26969D01*
X-26690Y157000D01*
X-26440Y157090D01*
X-26219Y157240D01*
X-26028Y157450D01*
X-25867Y157719D01*
X-25734Y158049D01*
X-25631Y158440D01*
X-25558Y158890D01*
X-25514Y159399D01*
X-25499Y159970D01*
X-22499D01*
X-22485Y159399D01*
D02*
G37*
G36*
X-47297Y173803D02*
X-47339Y173718D01*
X-47377Y173607D01*
X-47409Y173473D01*
X-47437Y173313D01*
X-47477Y172922D01*
X-47497Y172432D01*
X-47499Y172150D01*
X-50499D01*
X-50502Y172432D01*
X-50562Y173313D01*
X-50589Y173473D01*
X-50622Y173607D01*
X-50659Y173718D01*
X-50702Y173803D01*
X-50749Y173865D01*
X-47249D01*
X-47297Y173803D01*
D02*
G37*
G36*
X-47484Y159399D02*
X-47441Y158890D01*
X-47367Y158440D01*
X-47264Y158049D01*
X-47132Y157719D01*
X-46970Y157450D01*
X-46779Y157240D01*
X-46559Y157090D01*
X-46309Y157000D01*
X-46030Y156969D01*
X-51969D01*
X-51690Y157000D01*
X-51440Y157090D01*
X-51219Y157240D01*
X-51028Y157450D01*
X-50867Y157719D01*
X-50734Y158049D01*
X-50631Y158440D01*
X-50558Y158890D01*
X-50514Y159399D01*
X-50499Y159970D01*
X-47499D01*
X-47484Y159399D01*
D02*
G37*
%LPC*%
G36*
X146146Y63500D02*
X144754D01*
X143467Y62967D01*
X142483Y61983D01*
X141950Y60696D01*
Y59304D01*
X142483Y58017D01*
X143467Y57033D01*
X144754Y56500D01*
X146146D01*
X147433Y57033D01*
X148417Y58017D01*
X148950Y59304D01*
Y60696D01*
X148417Y61983D01*
X147433Y62967D01*
X146146Y63500D01*
D02*
G37*
G36*
X133446D02*
X132054D01*
X130767Y62967D01*
X129783Y61983D01*
X129250Y60696D01*
Y59304D01*
X129783Y58017D01*
X130767Y57033D01*
X132054Y56500D01*
X133446D01*
X134733Y57033D01*
X135717Y58017D01*
X136250Y59304D01*
Y60696D01*
X135717Y61983D01*
X134733Y62967D01*
X133446Y63500D01*
D02*
G37*
G36*
X120746D02*
X119354D01*
X118067Y62967D01*
X117083Y61983D01*
X116550Y60696D01*
Y59304D01*
X117083Y58017D01*
X118067Y57033D01*
X119354Y56500D01*
X120746D01*
X122033Y57033D01*
X123017Y58017D01*
X123550Y59304D01*
Y60696D01*
X123017Y61983D01*
X122033Y62967D01*
X120746Y63500D01*
D02*
G37*
G36*
X108046D02*
X106654D01*
X105367Y62967D01*
X104383Y61983D01*
X103850Y60696D01*
Y59304D01*
X104383Y58017D01*
X105367Y57033D01*
X106654Y56500D01*
X108046D01*
X109333Y57033D01*
X110317Y58017D01*
X110850Y59304D01*
Y60696D01*
X110317Y61983D01*
X109333Y62967D01*
X108046Y63500D01*
D02*
G37*
G36*
X95346D02*
X93954D01*
X92667Y62967D01*
X91683Y61983D01*
X91150Y60696D01*
Y59304D01*
X91683Y58017D01*
X92667Y57033D01*
X93954Y56500D01*
X95346D01*
X96633Y57033D01*
X97617Y58017D01*
X98150Y59304D01*
Y60696D01*
X97617Y61983D01*
X96633Y62967D01*
X95346Y63500D01*
D02*
G37*
G36*
X82646D02*
X81254D01*
X79967Y62967D01*
X78983Y61983D01*
X78450Y60696D01*
Y59304D01*
X78983Y58017D01*
X79967Y57033D01*
X81254Y56500D01*
X82646D01*
X83933Y57033D01*
X84917Y58017D01*
X85450Y59304D01*
Y60696D01*
X84917Y61983D01*
X83933Y62967D01*
X82646Y63500D01*
D02*
G37*
G36*
X69946D02*
X68554D01*
X67267Y62967D01*
X66283Y61983D01*
X65750Y60696D01*
Y59304D01*
X66283Y58017D01*
X67267Y57033D01*
X68554Y56500D01*
X69946D01*
X71233Y57033D01*
X72217Y58017D01*
X72750Y59304D01*
Y60696D01*
X72217Y61983D01*
X71233Y62967D01*
X69946Y63500D01*
D02*
G37*
G36*
X57246D02*
X55854D01*
X54567Y62967D01*
X53583Y61983D01*
X53050Y60696D01*
Y59304D01*
X53583Y58017D01*
X54567Y57033D01*
X55854Y56500D01*
X57246D01*
X58533Y57033D01*
X59517Y58017D01*
X60050Y59304D01*
Y60696D01*
X59517Y61983D01*
X58533Y62967D01*
X57246Y63500D01*
D02*
G37*
G36*
X21146D02*
X19754D01*
X18467Y62967D01*
X17483Y61983D01*
X16950Y60696D01*
Y59304D01*
X17483Y58017D01*
X18467Y57033D01*
X19754Y56500D01*
X21146D01*
X22433Y57033D01*
X23417Y58017D01*
X23950Y59304D01*
Y60696D01*
X23417Y61983D01*
X22433Y62967D01*
X21146Y63500D01*
D02*
G37*
G36*
X8446D02*
X7054D01*
X5767Y62967D01*
X4783Y61983D01*
X4250Y60696D01*
Y59304D01*
X4783Y58017D01*
X5767Y57033D01*
X7054Y56500D01*
X8446D01*
X9733Y57033D01*
X10717Y58017D01*
X11250Y59304D01*
Y60696D01*
X10717Y61983D01*
X9733Y62967D01*
X8446Y63500D01*
D02*
G37*
G36*
X-4254D02*
X-5646D01*
X-6933Y62967D01*
X-7917Y61983D01*
X-8450Y60696D01*
Y59304D01*
X-7917Y58017D01*
X-6933Y57033D01*
X-5646Y56500D01*
X-4254D01*
X-2967Y57033D01*
X-1983Y58017D01*
X-1450Y59304D01*
Y60696D01*
X-1983Y61983D01*
X-2967Y62967D01*
X-4254Y63500D01*
D02*
G37*
G36*
X-16954D02*
X-18346D01*
X-19633Y62967D01*
X-20617Y61983D01*
X-21150Y60696D01*
Y59304D01*
X-20617Y58017D01*
X-19633Y57033D01*
X-18346Y56500D01*
X-16954D01*
X-15667Y57033D01*
X-14683Y58017D01*
X-14150Y59304D01*
Y60696D01*
X-14683Y61983D01*
X-15667Y62967D01*
X-16954Y63500D01*
D02*
G37*
G36*
X-29654D02*
X-31046D01*
X-32333Y62967D01*
X-33317Y61983D01*
X-33850Y60696D01*
Y59304D01*
X-33317Y58017D01*
X-32333Y57033D01*
X-31046Y56500D01*
X-29654D01*
X-28367Y57033D01*
X-27383Y58017D01*
X-26850Y59304D01*
Y60696D01*
X-27383Y61983D01*
X-28367Y62967D01*
X-29654Y63500D01*
D02*
G37*
G36*
X-42354D02*
X-43746D01*
X-45033Y62967D01*
X-46017Y61983D01*
X-46550Y60696D01*
Y59304D01*
X-46017Y58017D01*
X-45033Y57033D01*
X-43746Y56500D01*
X-42354D01*
X-41067Y57033D01*
X-40083Y58017D01*
X-39550Y59304D01*
Y60696D01*
X-40083Y61983D01*
X-41067Y62967D01*
X-42354Y63500D01*
D02*
G37*
G36*
X-55054D02*
X-56446D01*
X-57733Y62967D01*
X-58717Y61983D01*
X-59250Y60696D01*
Y59304D01*
X-58717Y58017D01*
X-57733Y57033D01*
X-56446Y56500D01*
X-55054D01*
X-53767Y57033D01*
X-52783Y58017D01*
X-52250Y59304D01*
Y60696D01*
X-52783Y61983D01*
X-53767Y62967D01*
X-55054Y63500D01*
D02*
G37*
G36*
X-67754D02*
X-69146D01*
X-70433Y62967D01*
X-71417Y61983D01*
X-71950Y60696D01*
Y59304D01*
X-71417Y58017D01*
X-70433Y57033D01*
X-69146Y56500D01*
X-67754D01*
X-66467Y57033D01*
X-65483Y58017D01*
X-64950Y59304D01*
Y60696D01*
X-65483Y61983D01*
X-66467Y62967D01*
X-67754Y63500D01*
D02*
G37*
G36*
X109196Y3500D02*
X107804D01*
X106517Y2967D01*
X105533Y1983D01*
X105173Y1115D01*
X103827D01*
X103467Y1983D01*
X102483Y2967D01*
X101196Y3500D01*
X99804D01*
X98517Y2967D01*
X97533Y1983D01*
X97173Y1115D01*
X95827D01*
X95467Y1983D01*
X94483Y2967D01*
X93196Y3500D01*
X91804D01*
X90517Y2967D01*
X89533Y1983D01*
X89173Y1115D01*
X87827D01*
X87467Y1983D01*
X86483Y2967D01*
X85196Y3500D01*
X83804D01*
X82517Y2967D01*
X81533Y1983D01*
X81173Y1115D01*
X79827D01*
X79467Y1983D01*
X78483Y2967D01*
X77196Y3500D01*
X75804D01*
X74517Y2967D01*
X73533Y1983D01*
X73173Y1115D01*
X71827D01*
X71467Y1983D01*
X70483Y2967D01*
X69196Y3500D01*
X67804D01*
X66517Y2967D01*
X65533Y1983D01*
X65173Y1115D01*
X63827D01*
X63467Y1983D01*
X62483Y2967D01*
X61196Y3500D01*
X59804D01*
X58517Y2967D01*
X57533Y1983D01*
X57173Y1115D01*
X55827D01*
X55467Y1983D01*
X54483Y2967D01*
X53196Y3500D01*
X51804D01*
X50517Y2967D01*
X49533Y1983D01*
X49000Y696D01*
Y-696D01*
X49533Y-1983D01*
X50517Y-2967D01*
X51804Y-3500D01*
X53196D01*
X54483Y-2967D01*
X55467Y-1983D01*
X55827Y-1115D01*
X57173D01*
X57533Y-1983D01*
X58517Y-2967D01*
X59804Y-3500D01*
X61196D01*
X62483Y-2967D01*
X63467Y-1983D01*
X63827Y-1115D01*
X65173D01*
X65533Y-1983D01*
X66517Y-2967D01*
X67804Y-3500D01*
X69196D01*
X70483Y-2967D01*
X71467Y-1983D01*
X71827Y-1115D01*
X73173D01*
X73533Y-1983D01*
X74517Y-2967D01*
X75804Y-3500D01*
X77196D01*
X78483Y-2967D01*
X79467Y-1983D01*
X79827Y-1115D01*
X81173D01*
X81533Y-1983D01*
X82517Y-2967D01*
X83804Y-3500D01*
X85196D01*
X86483Y-2967D01*
X87467Y-1983D01*
X87827Y-1115D01*
X89173D01*
X89533Y-1983D01*
X90517Y-2967D01*
X91804Y-3500D01*
X93196D01*
X94483Y-2967D01*
X95467Y-1983D01*
X95827Y-1115D01*
X97173D01*
X97533Y-1983D01*
X98517Y-2967D01*
X99804Y-3500D01*
X101196D01*
X102483Y-2967D01*
X103467Y-1983D01*
X103827Y-1115D01*
X105173D01*
X105533Y-1983D01*
X106517Y-2967D01*
X107804Y-3500D01*
X109196D01*
X110483Y-2967D01*
X111467Y-1983D01*
X112000Y-696D01*
Y696D01*
X111467Y1983D01*
X110483Y2967D01*
X109196Y3500D01*
D02*
G37*
G36*
X-50804D02*
X-52196D01*
X-53483Y2967D01*
X-54467Y1983D01*
X-55000Y696D01*
Y-696D01*
X-54467Y-1983D01*
X-53483Y-2967D01*
X-52196Y-3500D01*
X-50804D01*
X-49517Y-2967D01*
X-48533Y-1983D01*
X-48000Y-696D01*
Y696D01*
X-48533Y1983D01*
X-49517Y2967D01*
X-50804Y3500D01*
D02*
G37*
%LPD*%
D13*
X-48999Y154500D02*
D03*
Y145500D02*
D03*
X-23999Y154500D02*
D03*
Y145500D02*
D03*
X1001Y154500D02*
D03*
Y145500D02*
D03*
X26001Y154500D02*
D03*
Y145500D02*
D03*
X51001Y154500D02*
D03*
Y145500D02*
D03*
X76000Y154500D02*
D03*
Y145500D02*
D03*
X101000Y154500D02*
D03*
Y145500D02*
D03*
X126000Y154500D02*
D03*
Y145500D02*
D03*
D20*
X152500Y-18500D02*
D03*
X144500D02*
D03*
X136500D02*
D03*
X128500D02*
D03*
X120500D02*
D03*
X112500D02*
D03*
X104500D02*
D03*
X96500D02*
D03*
X88500D02*
D03*
X80500D02*
D03*
X72500D02*
D03*
X64500D02*
D03*
X56500D02*
D03*
X48500D02*
D03*
X40500D02*
D03*
X32500D02*
D03*
X24500D02*
D03*
X16500D02*
D03*
X-23500D02*
D03*
X-31500D02*
D03*
X-39500D02*
D03*
X-47500D02*
D03*
X-55500D02*
D03*
X-63500D02*
D03*
X-71500D02*
D03*
X-79500D02*
D03*
D21*
X112500D02*
Y-3810D01*
X152500Y-18500D02*
Y0D01*
X128500Y-18500D02*
Y0D01*
X40500Y-18500D02*
Y0D01*
X16500Y-18500D02*
Y0D01*
X-23500Y-18500D02*
Y0D01*
X126001Y154500D02*
Y175650D01*
X101001Y154500D02*
Y175650D01*
X76001Y154500D02*
Y175650D01*
X51001Y154500D02*
Y175650D01*
X26001Y154500D02*
Y175650D01*
X1001Y154500D02*
Y175650D01*
X-23999Y154500D02*
Y175650D01*
X-48999Y154500D02*
Y175650D01*
D22*
X-82500Y448000D02*
D03*
X159500D02*
D03*
D23*
X1000Y240000D02*
D03*
X26000D02*
D03*
X-74000D02*
D03*
X-24000D02*
D03*
X-49000D02*
D03*
X126000D02*
D03*
X101000D02*
D03*
X76000D02*
D03*
X51000D02*
D03*
D24*
X151000D02*
D03*
D25*
X-55750Y130000D02*
D03*
X40000Y60000D02*
D03*
X180000D02*
D03*
X160000D02*
D03*
Y40000D02*
D03*
X180000D02*
D03*
X160000Y-0D02*
D03*
X140000D02*
D03*
X180000Y20000D02*
D03*
X160000D02*
D03*
X140000D02*
D03*
X145450Y130000D02*
D03*
X120050D02*
D03*
X94650D02*
D03*
X69250D02*
D03*
X-30350D02*
D03*
X-4950D02*
D03*
X20450D02*
D03*
X40000Y-0D02*
D03*
X20000D02*
D03*
X40000Y20000D02*
D03*
X20000D02*
D03*
X0D02*
D03*
X-20000Y-0D02*
D03*
X-40000D02*
D03*
X-20000Y20000D02*
D03*
X-40000D02*
D03*
X-60000D02*
D03*
Y-0D02*
D03*
X-80000D02*
D03*
Y20000D02*
D03*
Y40000D02*
D03*
X-100000Y20000D02*
D03*
Y40000D02*
D03*
X-80000Y60000D02*
D03*
X-100000D02*
D03*
X94650Y60000D02*
D03*
X-51500Y0D02*
D03*
X52500D02*
D03*
X60500D02*
D03*
X68500D02*
D03*
X76500D02*
D03*
X84500D02*
D03*
X92500D02*
D03*
X100500D02*
D03*
X108500D02*
D03*
X145450Y60000D02*
D03*
X132750D02*
D03*
X120050D02*
D03*
X107350D02*
D03*
X81950D02*
D03*
X69250D02*
D03*
X56550D02*
D03*
X-68450D02*
D03*
X-43050D02*
D03*
X-17650D02*
D03*
X7750D02*
D03*
X20450D02*
D03*
X-4950D02*
D03*
X-30350D02*
D03*
X-55750D02*
D03*
X126001Y175650D02*
D03*
X101001D02*
D03*
X76001D02*
D03*
X51001D02*
D03*
X26001D02*
D03*
X1001D02*
D03*
X-23999D02*
D03*
X-48999D02*
D03*
X132750Y130000D02*
D03*
X107350D02*
D03*
X81950D02*
D03*
X56550D02*
D03*
X7750D02*
D03*
X-17650D02*
D03*
X-43050D02*
D03*
X-68450D02*
D03*
M02*
