G04*
G04 #@! TF.GenerationSoftware,Altium Limited,Altium Designer,23.3.1 (30)*
G04*
G04 Layer_Color=8388736*
%FSLAX44Y44*%
%MOMM*%
G71*
G04*
G04 #@! TF.SameCoordinates,B0EE65AD-7F72-4637-8529-5AC13AF0589E*
G04*
G04*
G04 #@! TF.FilePolarity,Negative*
G04*
G01*
G75*
%ADD14R,26.2000X2.9250*%
%ADD15R,0.6200X0.5200*%
%ADD16R,0.6200X2.3200*%
%ADD17R,5.3200X5.3200*%
%ADD18C,1.5024*%
%ADD19R,1.5024X1.5024*%
G36*
X151990Y30500D02*
X-75010D01*
Y49500D01*
X151990D01*
Y30500D01*
D02*
G37*
%LPC*%
G36*
X114686Y46185D02*
D01*
X112223Y44740D01*
Y42889D01*
X111094D01*
D01*
Y40926D01*
X112223D01*
Y36871D01*
Y36630D01*
Y36426D01*
Y36223D01*
X112242Y36056D01*
Y35760D01*
X112260Y35519D01*
X112279Y35334D01*
Y35223D01*
X112297Y35149D01*
Y35130D01*
X112334Y34927D01*
X112390Y34741D01*
X112445Y34575D01*
X112501Y34445D01*
X112556Y34334D01*
X112593Y34260D01*
X112612Y34204D01*
X112631Y34186D01*
X112742Y34056D01*
X112871Y33945D01*
X113130Y33760D01*
X113242Y33704D01*
X113334Y33649D01*
X113408Y33630D01*
X113427Y33612D01*
X113630Y33538D01*
X113834Y33482D01*
X114038Y33445D01*
X114223Y33427D01*
X114389Y33408D01*
X114519Y33390D01*
X111094D01*
X116574D01*
D01*
X114630D01*
X115019Y33408D01*
X115389Y33445D01*
X115723Y33501D01*
X116000Y33575D01*
X116241Y33630D01*
X116426Y33686D01*
X116538Y33723D01*
X116556Y33741D01*
X116574D01*
X116352Y35649D01*
X116130Y35575D01*
X115926Y35519D01*
X115760Y35482D01*
X115612Y35464D01*
X115500Y35445D01*
X115427Y35426D01*
X115352D01*
X115186Y35445D01*
X115056Y35482D01*
X114982Y35519D01*
X114945Y35538D01*
X114834Y35649D01*
X114778Y35741D01*
X114741Y35815D01*
X114723Y35852D01*
Y35889D01*
X114704Y35963D01*
Y36130D01*
Y36352D01*
X114686Y36574D01*
Y36797D01*
Y36982D01*
Y37056D01*
Y37111D01*
Y37148D01*
Y37167D01*
Y40926D01*
X116371D01*
Y42889D01*
X114686D01*
Y46185D01*
D02*
G37*
G36*
X61117Y46648D02*
Y37519D01*
X58599Y38296D01*
X58451Y37796D01*
X58284Y37371D01*
X58118Y37019D01*
X57932Y36723D01*
X57784Y36500D01*
X57655Y36352D01*
X57562Y36260D01*
X57525Y36223D01*
X57229Y36000D01*
X56933Y35852D01*
X56636Y35741D01*
X56377Y35649D01*
X56136Y35612D01*
X55933Y35593D01*
X55859Y35575D01*
X55766D01*
X55507Y35593D01*
X55266Y35612D01*
X54822Y35741D01*
X54433Y35889D01*
X54118Y36093D01*
X53859Y36278D01*
X53674Y36426D01*
X53600Y36500D01*
X53544Y36556D01*
X53526Y36574D01*
X53507Y36593D01*
X53359Y36797D01*
X53229Y37037D01*
X53100Y37297D01*
X53007Y37574D01*
X52859Y38148D01*
X52748Y38722D01*
X52711Y39000D01*
X52692Y39241D01*
X52655Y39482D01*
Y39685D01*
X52637Y39833D01*
Y39963D01*
Y40056D01*
Y40074D01*
X52655Y40500D01*
X52674Y40889D01*
X52711Y41241D01*
X52766Y41574D01*
X52840Y41870D01*
X52914Y42148D01*
X52989Y42389D01*
X53081Y42611D01*
X53155Y42796D01*
X53229Y42963D01*
X53303Y43092D01*
X53377Y43203D01*
X53433Y43296D01*
X53470Y43351D01*
X53507Y43389D01*
Y43407D01*
X53674Y43592D01*
X53859Y43759D01*
X54044Y43889D01*
X54248Y44000D01*
X54637Y44185D01*
X55007Y44314D01*
X55322Y44388D01*
X55470Y44407D01*
X55581Y44426D01*
X55692Y44444D01*
X55821D01*
X56192Y44426D01*
X56525Y44351D01*
X56821Y44259D01*
X57081Y44148D01*
X57284Y44037D01*
X57432Y43944D01*
X57525Y43870D01*
X57562Y43851D01*
X57803Y43629D01*
X58025Y43370D01*
X58192Y43111D01*
X58321Y42852D01*
X58414Y42629D01*
X58469Y42463D01*
X58506Y42389D01*
Y42333D01*
X58525Y42315D01*
Y42296D01*
X61080Y42907D01*
X60895Y43444D01*
X60691Y43907D01*
X60469Y44314D01*
X60265Y44648D01*
X60062Y44907D01*
X59988Y45018D01*
X59914Y45111D01*
X59858Y45166D01*
X59803Y45222D01*
X59784Y45259D01*
X59766D01*
X59488Y45500D01*
X59173Y45722D01*
X58877Y45907D01*
X58562Y46055D01*
X58229Y46203D01*
X57914Y46314D01*
X57599Y46407D01*
X57303Y46481D01*
X57025Y46536D01*
X56766Y46573D01*
X56544Y46610D01*
X56340Y46629D01*
X56173Y46648D01*
X55951D01*
X55470Y46629D01*
X54988Y46573D01*
X54562Y46481D01*
X54137Y46370D01*
X53766Y46240D01*
X53396Y46092D01*
X53081Y45925D01*
X52785Y45759D01*
X52507Y45592D01*
X52285Y45425D01*
X52081Y45277D01*
X51915Y45148D01*
X51785Y45037D01*
X51692Y44944D01*
X51637Y44888D01*
X51618Y44870D01*
X51322Y44518D01*
X51081Y44148D01*
X50859Y43759D01*
X50674Y43351D01*
X50507Y42926D01*
X50378Y42518D01*
X50266Y42111D01*
X50174Y41722D01*
X50100Y41333D01*
X50063Y41000D01*
X50026Y40685D01*
X49989Y40426D01*
Y40204D01*
X49970Y40037D01*
Y39889D01*
X49989Y39333D01*
X50044Y38815D01*
X50118Y38315D01*
X50230Y37871D01*
X50341Y37445D01*
X50489Y37037D01*
X50637Y36686D01*
X50785Y36371D01*
X50933Y36075D01*
X51081Y35815D01*
X51229Y35612D01*
X51340Y35426D01*
X51452Y35297D01*
X51526Y35186D01*
X51581Y35130D01*
X51600Y35112D01*
X51915Y34797D01*
X52248Y34538D01*
X52600Y34297D01*
X52951Y34112D01*
X53303Y33945D01*
X53655Y33797D01*
X53988Y33686D01*
X54303Y33593D01*
X54618Y33519D01*
X54896Y33464D01*
X55155Y33427D01*
X55359Y33408D01*
X55544Y33390D01*
X55673Y33371D01*
X61117D01*
Y46648D01*
D02*
G37*
G36*
X133925Y43092D02*
X127925D01*
D01*
X132295D01*
X132073Y43074D01*
X131888Y43055D01*
X131703Y43000D01*
X131554Y42944D01*
X131425Y42889D01*
X131314Y42852D01*
X131258Y42814D01*
X131240Y42796D01*
X131054Y42666D01*
X130888Y42481D01*
X130703Y42278D01*
X130555Y42074D01*
X130406Y41870D01*
X130295Y41704D01*
X130221Y41592D01*
X130203Y41574D01*
Y42889D01*
X127925D01*
Y33593D01*
X130388D01*
Y36445D01*
Y36871D01*
Y37260D01*
X130406Y37611D01*
X130425Y37926D01*
Y38222D01*
X130443Y38463D01*
X130462Y38704D01*
X130480Y38889D01*
X130499Y39056D01*
X130518Y39204D01*
X130536Y39315D01*
Y39407D01*
X130555Y39463D01*
X130573Y39519D01*
Y39556D01*
X130647Y39815D01*
X130740Y40037D01*
X130832Y40222D01*
X130925Y40352D01*
X130999Y40463D01*
X131073Y40537D01*
X131110Y40574D01*
X131129Y40593D01*
X131277Y40685D01*
X131425Y40759D01*
X131573Y40815D01*
X131703Y40852D01*
X131814Y40870D01*
X131925Y40889D01*
X131999D01*
X132203Y40870D01*
X132406Y40833D01*
X132591Y40759D01*
X132776Y40685D01*
X132925Y40611D01*
X133036Y40537D01*
X133128Y40500D01*
X133147Y40482D01*
X133925Y42611D01*
X133628Y42778D01*
X133350Y42889D01*
X133073Y42981D01*
X132814Y43037D01*
X132610Y43074D01*
X132443Y43092D01*
X133925D01*
D02*
G37*
G36*
X111038D02*
X105039D01*
X109409D01*
X109186Y43074D01*
X109001Y43055D01*
X108816Y43000D01*
X108668Y42944D01*
X108538Y42889D01*
X108427Y42852D01*
X108372Y42814D01*
X108353Y42796D01*
X108168Y42666D01*
X108001Y42481D01*
X107816Y42278D01*
X107668Y42074D01*
X107520Y41870D01*
X107409Y41704D01*
X107335Y41592D01*
X107316Y41574D01*
Y42889D01*
X105039D01*
Y33593D01*
X107501D01*
Y36445D01*
Y36871D01*
Y37260D01*
X107520Y37611D01*
X107538Y37926D01*
Y38222D01*
X107557Y38463D01*
X107575Y38704D01*
X107594Y38889D01*
X107612Y39056D01*
X107631Y39204D01*
X107649Y39315D01*
Y39407D01*
X107668Y39463D01*
X107687Y39519D01*
Y39556D01*
X107761Y39815D01*
X107853Y40037D01*
X107946Y40222D01*
X108038Y40352D01*
X108112Y40463D01*
X108187Y40537D01*
X108223Y40574D01*
X108242Y40593D01*
X108390Y40685D01*
X108538Y40759D01*
X108686Y40815D01*
X108816Y40852D01*
X108927Y40870D01*
X109038Y40889D01*
X109112D01*
X109316Y40870D01*
X109520Y40833D01*
X109705Y40759D01*
X109890Y40685D01*
X110038Y40611D01*
X110149Y40537D01*
X110242Y40500D01*
X110260Y40482D01*
X111038Y42611D01*
X110742Y42778D01*
X110464Y42889D01*
X110186Y42981D01*
X109927Y43037D01*
X109723Y43074D01*
X109557Y43092D01*
X111038D01*
D02*
G37*
G36*
X79708D02*
X79578D01*
X79245Y43074D01*
X78912Y43018D01*
X78615Y42944D01*
X78319Y42852D01*
X78041Y42722D01*
X77801Y42592D01*
X77560Y42444D01*
X77356Y42315D01*
X77171Y42167D01*
X77004Y42018D01*
X76856Y41889D01*
X76745Y41759D01*
X76653Y41666D01*
X76579Y41592D01*
X76542Y41537D01*
X76523Y41518D01*
Y42889D01*
X74246D01*
Y33593D01*
X76708D01*
Y37778D01*
Y38056D01*
Y38315D01*
X76727Y38556D01*
X76745Y38759D01*
Y38963D01*
X76764Y39130D01*
X76782Y39296D01*
X76801Y39426D01*
X76838Y39648D01*
X76856Y39796D01*
X76893Y39889D01*
Y39907D01*
X76968Y40111D01*
X77079Y40315D01*
X77190Y40463D01*
X77301Y40611D01*
X77412Y40704D01*
X77505Y40796D01*
X77560Y40833D01*
X77579Y40852D01*
X77782Y40963D01*
X77986Y41055D01*
X78171Y41111D01*
X78356Y41167D01*
X78504Y41185D01*
X78615Y41204D01*
X78727D01*
X78912Y41185D01*
X79078Y41167D01*
X79208Y41129D01*
X79338Y41074D01*
X79449Y41018D01*
X79523Y40981D01*
X79560Y40963D01*
X79578Y40944D01*
X79708Y40852D01*
X79801Y40741D01*
X79967Y40518D01*
X80023Y40407D01*
X80060Y40333D01*
X80097Y40278D01*
Y40259D01*
X80134Y40167D01*
X80152Y40056D01*
X80189Y39778D01*
X80226Y39444D01*
X80245Y39130D01*
X80263Y38815D01*
Y38685D01*
Y38556D01*
Y38463D01*
Y38389D01*
Y38333D01*
Y38315D01*
Y33593D01*
X82726D01*
Y39741D01*
X82708Y40056D01*
X82689Y40352D01*
X82652Y40574D01*
X82634Y40759D01*
X82597Y40889D01*
X82578Y40981D01*
Y41000D01*
X82522Y41222D01*
X82448Y41407D01*
X82374Y41592D01*
X82282Y41741D01*
X82208Y41870D01*
X82152Y41963D01*
X82115Y42018D01*
X82097Y42037D01*
X81948Y42203D01*
X81782Y42352D01*
X81615Y42481D01*
X81448Y42592D01*
X81300Y42685D01*
X81171Y42741D01*
X81097Y42778D01*
X81060Y42796D01*
X80800Y42889D01*
X80541Y42963D01*
X80301Y43018D01*
X80078Y43055D01*
X79875Y43074D01*
X79708Y43092D01*
D02*
G37*
G36*
X-28392Y46481D02*
Y39907D01*
X-28410Y40574D01*
X-28447Y41185D01*
X-28503Y41741D01*
X-28596Y42259D01*
X-28688Y42741D01*
X-28781Y43166D01*
X-28910Y43555D01*
X-29021Y43889D01*
X-29133Y44203D01*
X-29244Y44444D01*
X-29355Y44666D01*
X-29447Y44851D01*
X-29540Y44981D01*
X-29595Y45073D01*
X-29633Y45129D01*
X-29651Y45148D01*
X-29855Y45388D01*
X-30077Y45592D01*
X-30318Y45759D01*
X-30558Y45925D01*
X-30799Y46055D01*
X-31040Y46147D01*
X-31262Y46240D01*
X-31503Y46314D01*
X-31725Y46370D01*
X-31910Y46407D01*
X-32095Y46444D01*
X-32243Y46462D01*
X-32373Y46481D01*
X-32558D01*
X-32891Y46462D01*
X-33206Y46425D01*
X-33521Y46351D01*
X-33799Y46277D01*
X-34058Y46166D01*
X-34299Y46055D01*
X-34502Y45944D01*
X-34706Y45814D01*
X-34873Y45685D01*
X-35039Y45574D01*
X-35169Y45462D01*
X-35262Y45351D01*
X-35354Y45277D01*
X-35410Y45203D01*
X-35447Y45166D01*
X-35465Y45148D01*
X-35687Y44833D01*
X-35873Y44462D01*
X-36039Y44074D01*
X-36188Y43666D01*
X-36299Y43240D01*
X-36410Y42796D01*
X-36484Y42370D01*
X-36558Y41944D01*
X-36595Y41537D01*
X-36632Y41167D01*
X-36669Y40815D01*
X-36687Y40518D01*
X-36706Y40278D01*
D01*
D01*
Y39926D01*
X-36687Y39259D01*
X-36650Y38648D01*
X-36595Y38074D01*
X-36521Y37556D01*
X-36447Y37093D01*
X-36354Y36667D01*
X-36243Y36297D01*
X-36132Y35963D01*
X-36039Y35686D01*
X-35928Y35426D01*
X-35836Y35223D01*
X-35743Y35056D01*
X-35687Y34945D01*
X-35632Y34852D01*
X-35595Y34797D01*
X-35576Y34778D01*
X-35354Y34519D01*
X-35113Y34315D01*
X-34873Y34112D01*
X-34613Y33964D01*
X-34373Y33816D01*
X-34114Y33704D01*
X-33873Y33612D01*
X-33632Y33538D01*
X-33410Y33464D01*
X-33206Y33427D01*
X-33021Y33390D01*
X-32873Y33371D01*
X-32743D01*
X-32632Y33352D01*
X-36706D01*
D01*
X-28392D01*
D01*
X-32558D01*
X-32225Y33371D01*
X-31910Y33408D01*
X-31595Y33482D01*
X-31318Y33556D01*
X-31058Y33649D01*
X-30818Y33760D01*
X-30614Y33890D01*
X-30410Y34019D01*
X-30244Y34130D01*
X-30077Y34260D01*
X-29947Y34371D01*
X-29836Y34464D01*
X-29762Y34538D01*
X-29707Y34612D01*
X-29670Y34649D01*
X-29651Y34667D01*
X-29429Y34982D01*
X-29244Y35352D01*
X-29059Y35741D01*
X-28929Y36167D01*
X-28799Y36593D01*
X-28707Y37019D01*
X-28614Y37463D01*
X-28540Y37889D01*
X-28503Y38296D01*
X-28466Y38667D01*
X-28429Y39019D01*
X-28410Y39315D01*
X-28392Y39556D01*
Y46481D01*
D02*
G37*
G36*
X72357Y43092D02*
X67543D01*
X67043Y43074D01*
X66580Y43000D01*
X66154Y42907D01*
X65784Y42796D01*
X65635Y42722D01*
X65487Y42666D01*
X65358Y42629D01*
X65265Y42574D01*
X65172Y42537D01*
X65117Y42500D01*
X65080Y42481D01*
X65061D01*
X64672Y42222D01*
X64339Y41944D01*
X64043Y41648D01*
X63802Y41370D01*
X63617Y41111D01*
X63469Y40907D01*
X63413Y40833D01*
X63395Y40778D01*
X63358Y40741D01*
Y40722D01*
X63154Y40296D01*
X63025Y39870D01*
X62913Y39482D01*
X62839Y39130D01*
X62802Y38815D01*
X62784Y38685D01*
Y38574D01*
X62765Y38500D01*
Y43092D01*
Y33390D01*
Y38371D01*
X62784Y37796D01*
X62858Y37260D01*
X62950Y36797D01*
X63006Y36593D01*
X63061Y36408D01*
X63117Y36241D01*
X63173Y36093D01*
X63228Y35963D01*
X63265Y35852D01*
X63302Y35760D01*
X63339Y35704D01*
X63358Y35667D01*
Y35649D01*
X63617Y35260D01*
X63895Y34927D01*
X64191Y34630D01*
X64469Y34390D01*
X64728Y34204D01*
X64932Y34075D01*
X65006Y34019D01*
X65061Y33982D01*
X65098Y33964D01*
X65117D01*
X65561Y33778D01*
X65987Y33630D01*
X66395Y33538D01*
X66783Y33464D01*
X67098Y33427D01*
X67228Y33408D01*
X67339D01*
X67431Y33390D01*
X67561D01*
X67950Y33408D01*
X68302Y33445D01*
X68653Y33519D01*
X68968Y33612D01*
X69283Y33704D01*
X69561Y33816D01*
X69820Y33945D01*
X70061Y34075D01*
X70265Y34204D01*
X70450Y34334D01*
X70616Y34445D01*
X70746Y34538D01*
X70857Y34630D01*
X70931Y34704D01*
X70968Y34741D01*
X70987Y34760D01*
X71227Y35038D01*
X71431Y35315D01*
X71616Y35593D01*
X71783Y35889D01*
X71912Y36186D01*
X72024Y36482D01*
X72116Y36760D01*
X72190Y37037D01*
X72246Y37278D01*
X72283Y37519D01*
X72320Y37722D01*
X72338Y37908D01*
X72357Y38056D01*
Y38315D01*
Y38259D01*
X72338Y38648D01*
X72301Y39019D01*
X72227Y39352D01*
X72153Y39685D01*
X72042Y39982D01*
X71931Y40278D01*
X71801Y40537D01*
X71690Y40778D01*
X71561Y40981D01*
X71431Y41185D01*
X71320Y41333D01*
X71209Y41481D01*
X71135Y41574D01*
X71061Y41666D01*
X71024Y41704D01*
X71005Y41722D01*
X70746Y41963D01*
X70468Y42167D01*
X70190Y42352D01*
X69894Y42518D01*
X69598Y42648D01*
X69320Y42759D01*
X69042Y42852D01*
X68765Y42926D01*
X68524Y42981D01*
X68283Y43018D01*
X68080Y43055D01*
X67894Y43074D01*
X67746Y43092D01*
X72357D01*
D02*
G37*
G36*
X-15560Y46407D02*
X-18745D01*
X-18319D01*
X-21448Y36926D01*
X-24707Y46407D01*
X-27503D01*
X-22911Y33593D01*
X-27503D01*
X-20115D01*
X-15560Y46407D01*
D02*
G37*
G36*
X93651Y42889D02*
X91133D01*
X89355Y38130D01*
X89244Y37852D01*
X89170Y37593D01*
X89133Y37500D01*
X89114Y37426D01*
X89096Y37371D01*
Y37352D01*
X89077Y37260D01*
X89040Y37148D01*
X88948Y36871D01*
X88911Y36760D01*
X88874Y36648D01*
X88855Y36574D01*
X88837Y36556D01*
X88337Y38130D01*
X86578Y42889D01*
X84004D01*
X87744Y33593D01*
X84004D01*
D01*
X93651D01*
D01*
X89966D01*
X93651Y42889D01*
D02*
G37*
G36*
X21881Y46407D02*
X11715D01*
Y44240D01*
X15511D01*
Y33593D01*
X18103D01*
Y44240D01*
X21881D01*
Y33927D01*
Y46407D01*
D02*
G37*
G36*
X32824D02*
X22658D01*
Y44240D01*
X26454D01*
Y33593D01*
X29046D01*
Y44240D01*
X32824D01*
Y33704D01*
Y46407D01*
D02*
G37*
G36*
X43601Y46314D02*
X34564D01*
Y33593D01*
X43601D01*
Y46314D01*
D02*
G37*
G36*
X-42261Y46481D02*
X-42446D01*
X-42761Y46462D01*
X-43057Y46444D01*
X-43631Y46351D01*
X-44113Y46203D01*
X-44335Y46129D01*
X-44538Y46036D01*
X-44724Y45962D01*
X-44872Y45870D01*
X-45020Y45796D01*
X-45131Y45740D01*
X-45224Y45666D01*
X-45279Y45629D01*
X-45316Y45610D01*
X-45335Y45592D01*
X-45538Y45407D01*
X-45724Y45222D01*
X-45890Y44999D01*
X-46038Y44759D01*
X-46260Y44277D01*
X-46446Y43814D01*
X-46501Y43574D01*
X-46557Y43370D01*
X-46612Y43185D01*
X-46631Y43018D01*
X-46668Y42870D01*
Y42778D01*
X-46686Y42703D01*
Y42685D01*
X-44242Y42444D01*
X-44205Y42814D01*
X-44131Y43129D01*
X-44057Y43407D01*
X-43964Y43611D01*
X-43890Y43777D01*
X-43816Y43889D01*
X-43761Y43962D01*
X-43742Y43981D01*
X-43557Y44129D01*
X-43353Y44240D01*
X-43150Y44333D01*
X-42946Y44388D01*
X-42779Y44426D01*
X-42631Y44444D01*
X-42502D01*
X-42224Y44426D01*
X-41983Y44370D01*
X-41779Y44296D01*
X-41594Y44222D01*
X-41465Y44148D01*
X-41354Y44074D01*
X-41298Y44018D01*
X-41280Y44000D01*
X-41131Y43814D01*
X-41020Y43611D01*
X-40946Y43407D01*
X-40891Y43203D01*
X-40854Y43018D01*
X-40835Y42852D01*
Y42759D01*
Y42741D01*
Y42722D01*
X-40854Y42444D01*
X-40909Y42185D01*
X-41002Y41926D01*
X-41094Y41704D01*
X-41187Y41500D01*
X-41280Y41352D01*
X-41335Y41259D01*
X-41354Y41222D01*
X-41428Y41111D01*
X-41539Y40981D01*
X-41687Y40815D01*
X-41835Y40667D01*
X-42168Y40315D01*
X-42502Y39963D01*
X-42835Y39630D01*
X-42983Y39481D01*
X-43131Y39370D01*
X-43242Y39259D01*
X-43316Y39185D01*
X-43372Y39130D01*
X-43390Y39111D01*
X-43761Y38759D01*
X-44094Y38426D01*
X-44409Y38111D01*
X-44687Y37834D01*
X-44946Y37556D01*
X-45168Y37297D01*
X-45372Y37074D01*
X-45538Y36852D01*
X-45686Y36667D01*
X-45816Y36500D01*
X-45927Y36371D01*
X-46001Y36241D01*
X-46075Y36167D01*
X-46112Y36093D01*
X-46149Y36056D01*
Y36037D01*
X-46390Y35612D01*
X-46575Y35167D01*
X-46723Y34760D01*
X-46835Y34390D01*
X-46909Y34056D01*
X-46927Y33927D01*
X-46946Y33816D01*
X-46964Y33723D01*
X-46983Y33649D01*
Y33593D01*
X-38372D01*
Y39204D01*
Y35871D01*
X-43261D01*
X-43113Y36112D01*
X-42946Y36315D01*
X-42872Y36408D01*
X-42816Y36482D01*
X-42779Y36519D01*
X-42761Y36537D01*
X-42687Y36611D01*
X-42613Y36704D01*
X-42390Y36908D01*
X-42150Y37148D01*
X-41909Y37389D01*
X-41668Y37611D01*
X-41465Y37796D01*
X-41391Y37871D01*
X-41335Y37926D01*
X-41298Y37945D01*
X-41280Y37963D01*
X-40872Y38352D01*
X-40539Y38667D01*
X-40261Y38963D01*
X-40039Y39185D01*
X-39872Y39370D01*
X-39761Y39500D01*
X-39687Y39593D01*
X-39669Y39611D01*
X-39428Y39926D01*
X-39224Y40222D01*
X-39058Y40500D01*
X-38928Y40741D01*
X-38817Y40944D01*
X-38743Y41111D01*
X-38706Y41204D01*
X-38687Y41241D01*
X-38576Y41537D01*
X-38502Y41833D01*
X-38447Y42111D01*
X-38409Y42370D01*
X-38391Y42574D01*
X-38372Y42741D01*
Y42889D01*
X-38391Y43166D01*
X-38428Y43444D01*
X-38465Y43703D01*
X-38539Y43944D01*
X-38724Y44370D01*
X-38909Y44740D01*
X-39021Y44907D01*
X-39113Y45037D01*
X-39206Y45166D01*
X-39298Y45259D01*
X-39372Y45333D01*
X-39409Y45407D01*
X-39446Y45425D01*
X-39465Y45444D01*
X-39669Y45629D01*
X-39909Y45796D01*
X-40132Y45925D01*
X-40391Y46036D01*
X-40872Y46222D01*
X-41354Y46351D01*
X-41576Y46388D01*
X-41779Y46425D01*
X-41965Y46444D01*
X-42131Y46462D01*
X-42261Y46481D01*
D02*
G37*
G36*
X-48334D02*
X-56945D01*
D01*
X-52408D01*
X-52723Y46462D01*
X-53019Y46444D01*
X-53593Y46351D01*
X-54075Y46203D01*
X-54297Y46129D01*
X-54500Y46036D01*
X-54686Y45962D01*
X-54834Y45870D01*
X-54982Y45796D01*
X-55093Y45740D01*
X-55185Y45666D01*
X-55241Y45629D01*
X-55278Y45610D01*
X-55297Y45592D01*
X-55500Y45407D01*
X-55685Y45222D01*
X-55852Y44999D01*
X-56000Y44759D01*
X-56222Y44277D01*
X-56408Y43814D01*
X-56463Y43574D01*
X-56519Y43370D01*
X-56574Y43185D01*
X-56593Y43018D01*
X-56630Y42870D01*
Y42778D01*
X-56648Y42703D01*
Y42685D01*
X-54204Y42444D01*
X-54167Y42814D01*
X-54093Y43129D01*
X-54019Y43407D01*
X-53926Y43611D01*
X-53852Y43777D01*
X-53778Y43889D01*
X-53723Y43962D01*
X-53704Y43981D01*
X-53519Y44129D01*
X-53315Y44240D01*
X-53112Y44333D01*
X-52908Y44388D01*
X-52741Y44426D01*
X-52593Y44444D01*
X-52463D01*
X-52186Y44426D01*
X-51945Y44370D01*
X-51741Y44296D01*
X-51556Y44222D01*
X-51427Y44148D01*
X-51315Y44074D01*
X-51260Y44018D01*
X-51241Y44000D01*
X-51093Y43814D01*
X-50982Y43611D01*
X-50908Y43407D01*
X-50853Y43203D01*
X-50816Y43018D01*
X-50797Y42852D01*
Y42759D01*
Y42741D01*
Y42722D01*
X-50816Y42444D01*
X-50871Y42185D01*
X-50964Y41926D01*
X-51056Y41704D01*
X-51149Y41500D01*
X-51241Y41352D01*
X-51297Y41259D01*
X-51315Y41222D01*
X-51390Y41111D01*
X-51501Y40981D01*
X-51649Y40815D01*
X-51797Y40667D01*
X-52130Y40315D01*
X-52463Y39963D01*
X-52797Y39630D01*
X-52945Y39481D01*
X-53093Y39370D01*
X-53204Y39259D01*
X-53278Y39185D01*
X-53334Y39130D01*
X-53352Y39111D01*
X-53723Y38759D01*
X-54056Y38426D01*
X-54371Y38111D01*
X-54648Y37834D01*
X-54908Y37556D01*
X-55130Y37297D01*
X-55334Y37074D01*
X-55500Y36852D01*
X-55648Y36667D01*
X-55778Y36500D01*
X-55889Y36371D01*
X-55963Y36241D01*
X-56037Y36167D01*
X-56074Y36093D01*
X-56111Y36056D01*
Y36037D01*
X-56352Y35612D01*
X-56537Y35167D01*
X-56685Y34760D01*
X-56796Y34390D01*
X-56870Y34056D01*
X-56889Y33927D01*
X-56908Y33816D01*
X-56926Y33723D01*
X-56945Y33649D01*
Y33593D01*
X-48334D01*
Y39056D01*
Y35871D01*
X-53223D01*
X-53075Y36112D01*
X-52908Y36315D01*
X-52834Y36408D01*
X-52778Y36482D01*
X-52741Y36519D01*
X-52723Y36537D01*
X-52649Y36611D01*
X-52575Y36704D01*
X-52352Y36908D01*
X-52112Y37148D01*
X-51871Y37389D01*
X-51630Y37611D01*
X-51427Y37796D01*
X-51353Y37871D01*
X-51297Y37926D01*
X-51260Y37945D01*
X-51241Y37963D01*
X-50834Y38352D01*
X-50501Y38667D01*
X-50223Y38963D01*
X-50001Y39185D01*
X-49834Y39370D01*
X-49723Y39500D01*
X-49649Y39593D01*
X-49630Y39611D01*
X-49390Y39926D01*
X-49186Y40222D01*
X-49019Y40500D01*
X-48890Y40741D01*
X-48779Y40944D01*
X-48705Y41111D01*
X-48668Y41204D01*
X-48649Y41241D01*
X-48538Y41537D01*
X-48464Y41833D01*
X-48408Y42111D01*
X-48371Y42370D01*
X-48353Y42574D01*
X-48334Y42741D01*
Y42889D01*
X-48353Y43166D01*
X-48390Y43444D01*
X-48427Y43703D01*
X-48501Y43944D01*
X-48686Y44370D01*
X-48871Y44740D01*
X-48982Y44907D01*
X-49075Y45037D01*
X-49168Y45166D01*
X-49260Y45259D01*
X-49334Y45333D01*
X-49371Y45407D01*
X-49408Y45425D01*
X-49427Y45444D01*
X-49630Y45629D01*
X-49871Y45796D01*
X-50093Y45925D01*
X-50353Y46036D01*
X-50834Y46222D01*
X-51315Y46351D01*
X-51538Y46388D01*
X-51741Y46425D01*
X-51927Y46444D01*
X-52093Y46462D01*
X-52223Y46481D01*
X-48334D01*
D01*
D02*
G37*
G36*
X5697Y43092D02*
X883D01*
X383Y43074D01*
X-80Y43000D01*
X-506Y42907D01*
X-876Y42796D01*
X-1024Y42722D01*
X-1173Y42666D01*
X-1302Y42629D01*
X-1395Y42574D01*
X-1487Y42537D01*
X-1543Y42500D01*
X-1580Y42481D01*
X-1598D01*
X-1987Y42222D01*
X-2321Y41944D01*
X-2617Y41648D01*
X-2858Y41370D01*
X-3043Y41111D01*
X-3191Y40907D01*
X-3246Y40833D01*
X-3265Y40778D01*
X-3302Y40741D01*
Y40722D01*
X-3506Y40296D01*
X-3635Y39870D01*
X-3746Y39481D01*
X-3820Y39130D01*
X-3857Y38815D01*
X-3876Y38685D01*
Y38574D01*
X-3895Y38500D01*
Y38370D01*
X-3876Y37796D01*
X-3802Y37260D01*
X-3709Y36797D01*
X-3654Y36593D01*
X-3598Y36408D01*
X-3543Y36241D01*
X-3487Y36093D01*
X-3432Y35963D01*
X-3395Y35852D01*
X-3358Y35760D01*
X-3320Y35704D01*
X-3302Y35667D01*
Y35649D01*
X-3043Y35260D01*
X-2765Y34926D01*
X-2469Y34630D01*
X-2191Y34390D01*
X-1932Y34204D01*
X-1728Y34075D01*
X-1654Y34019D01*
X-1598Y33982D01*
X-1561Y33964D01*
X-1543D01*
X-1098Y33778D01*
X-673Y33630D01*
X-265Y33538D01*
X124Y33464D01*
X438Y33427D01*
X568Y33408D01*
X679D01*
X772Y33390D01*
X901D01*
X1290Y33408D01*
X1642Y33445D01*
X1994Y33519D01*
X2309Y33612D01*
X2623Y33704D01*
X2901Y33816D01*
X3160Y33945D01*
X3401Y34075D01*
X3605Y34204D01*
X3790Y34334D01*
X3956Y34445D01*
X4086Y34538D01*
X4197Y34630D01*
X4271Y34704D01*
X4308Y34741D01*
X4327Y34760D01*
X4568Y35038D01*
X4771Y35315D01*
X4956Y35593D01*
X5123Y35889D01*
X5253Y36186D01*
X5364Y36482D01*
X5456Y36760D01*
X5530Y37037D01*
X5586Y37278D01*
X5623Y37519D01*
X5660Y37722D01*
X5679Y37908D01*
X5697Y38056D01*
Y33575D01*
Y38259D01*
X5679Y38648D01*
X5641Y39019D01*
X5567Y39352D01*
X5493Y39685D01*
X5382Y39982D01*
X5271Y40278D01*
X5142Y40537D01*
X5031Y40778D01*
X4901Y40981D01*
X4771Y41185D01*
X4660Y41333D01*
X4549Y41481D01*
X4475Y41574D01*
X4401Y41666D01*
X4364Y41704D01*
X4345Y41722D01*
X4086Y41963D01*
X3808Y42167D01*
X3531Y42352D01*
X3234Y42518D01*
X2938Y42648D01*
X2660Y42759D01*
X2383Y42852D01*
X2105Y42926D01*
X1864Y42981D01*
X1623Y43018D01*
X1420Y43055D01*
X1235Y43074D01*
X1086Y43092D01*
X5697D01*
D02*
G37*
G36*
X126018D02*
X121796D01*
D01*
X121593D01*
X121259Y43074D01*
X120944Y43037D01*
X120630Y42963D01*
X120352Y42889D01*
X120074Y42796D01*
X119833Y42685D01*
X119593Y42555D01*
X119389Y42444D01*
X119204Y42315D01*
X119037Y42185D01*
X118889Y42074D01*
X118778Y41981D01*
X118685Y41907D01*
X118611Y41833D01*
X118574Y41796D01*
X118556Y41778D01*
X118352Y41518D01*
X118167Y41241D01*
X118000Y40963D01*
X117852Y40667D01*
X117741Y40352D01*
X117648Y40056D01*
X117500Y39482D01*
X117445Y39204D01*
X117408Y38963D01*
X117389Y38741D01*
X117371Y38556D01*
X117352Y38389D01*
Y38167D01*
X117371Y37815D01*
X117389Y37463D01*
X117445Y37148D01*
X117500Y36852D01*
X117556Y36556D01*
X117648Y36297D01*
X117723Y36056D01*
X117815Y35834D01*
X117889Y35630D01*
X117982Y35464D01*
X118056Y35315D01*
X118111Y35186D01*
X118185Y35093D01*
X118223Y35019D01*
X118241Y34982D01*
X118259Y34964D01*
X118500Y34686D01*
X118741Y34445D01*
X119019Y34241D01*
X119315Y34056D01*
X119611Y33908D01*
X119908Y33778D01*
X120204Y33667D01*
X120500Y33593D01*
X120759Y33519D01*
X121018Y33482D01*
X121259Y33445D01*
X121463Y33408D01*
X121629D01*
X121741Y33390D01*
X117352D01*
X126018D01*
Y38037D01*
X125981Y38500D01*
X125925Y38945D01*
X125851Y39352D01*
X125759Y39741D01*
X125666Y40074D01*
X125555Y40389D01*
X125444Y40667D01*
X125333Y40907D01*
X125222Y41129D01*
X125129Y41296D01*
X125037Y41444D01*
X124963Y41555D01*
X124907Y41648D01*
X124870Y41685D01*
X124851Y41704D01*
X124629Y41944D01*
X124370Y42167D01*
X124111Y42352D01*
X123851Y42500D01*
X123574Y42648D01*
X123296Y42759D01*
X123037Y42852D01*
X122778Y42926D01*
X122537Y42981D01*
X122315Y43018D01*
X122111Y43055D01*
X121944Y43074D01*
X121796Y43092D01*
X126018D01*
D02*
G37*
G36*
X103131D02*
X98910D01*
D01*
X98706D01*
X98373Y43074D01*
X98058Y43037D01*
X97743Y42963D01*
X97465Y42889D01*
X97188Y42796D01*
X96947Y42685D01*
X96706Y42555D01*
X96503Y42444D01*
X96317Y42315D01*
X96151Y42185D01*
X96003Y42074D01*
X95892Y41981D01*
X95799Y41907D01*
X95725Y41833D01*
X95688Y41796D01*
X95669Y41778D01*
X95466Y41518D01*
X95280Y41241D01*
X95114Y40963D01*
X94966Y40667D01*
X94854Y40352D01*
X94762Y40056D01*
X94614Y39482D01*
X94558Y39204D01*
X94521Y38963D01*
X94503Y38741D01*
X94484Y38556D01*
X94466Y38389D01*
Y38167D01*
X94484Y37815D01*
X94503Y37463D01*
X94558Y37148D01*
X94614Y36852D01*
X94669Y36556D01*
X94762Y36297D01*
X94836Y36056D01*
X94929Y35834D01*
X95003Y35630D01*
X95095Y35464D01*
X95169Y35315D01*
X95225Y35186D01*
X95299Y35093D01*
X95336Y35019D01*
X95354Y34982D01*
X95373Y34964D01*
X95614Y34686D01*
X95854Y34445D01*
X96132Y34241D01*
X96428Y34056D01*
X96725Y33908D01*
X97021Y33778D01*
X97317Y33667D01*
X97613Y33593D01*
X97873Y33519D01*
X98132Y33482D01*
X98373Y33445D01*
X98576Y33408D01*
X98743D01*
X98854Y33390D01*
X94466D01*
X103131D01*
Y38037D01*
X103094Y38500D01*
X103039Y38945D01*
X102965Y39352D01*
X102872Y39741D01*
X102780Y40074D01*
X102669Y40389D01*
X102557Y40667D01*
X102446Y40907D01*
X102335Y41129D01*
X102243Y41296D01*
X102150Y41444D01*
X102076Y41555D01*
X102020Y41648D01*
X101983Y41685D01*
X101965Y41704D01*
X101743Y41944D01*
X101483Y42167D01*
X101224Y42352D01*
X100965Y42500D01*
X100687Y42648D01*
X100409Y42759D01*
X100150Y42852D01*
X99891Y42926D01*
X99650Y42981D01*
X99428Y43018D01*
X99224Y43055D01*
X99058Y43074D01*
X98910Y43092D01*
X103131D01*
D02*
G37*
G36*
X-6709Y46185D02*
D01*
X-9172Y44740D01*
Y42889D01*
X-10301D01*
Y40926D01*
X-9172D01*
Y36871D01*
Y36630D01*
Y36426D01*
Y36223D01*
X-9153Y36056D01*
Y35760D01*
X-9135Y35519D01*
X-9116Y35334D01*
Y35223D01*
X-9098Y35149D01*
Y35130D01*
X-9061Y34926D01*
X-9005Y34741D01*
X-8949Y34575D01*
X-8894Y34445D01*
X-8838Y34334D01*
X-8801Y34260D01*
X-8783Y34204D01*
X-8764Y34186D01*
X-8653Y34056D01*
X-8524Y33945D01*
X-8264Y33760D01*
X-8153Y33704D01*
X-8061Y33649D01*
X-7987Y33630D01*
X-7968Y33612D01*
X-7764Y33538D01*
X-7561Y33482D01*
X-7357Y33445D01*
X-7172Y33427D01*
X-7005Y33408D01*
X-6876Y33390D01*
X-10301D01*
X-4820D01*
D01*
X-6765D01*
X-6376Y33408D01*
X-6005Y33445D01*
X-5672Y33501D01*
X-5394Y33575D01*
X-5154Y33630D01*
X-4969Y33686D01*
X-4857Y33723D01*
X-4839Y33741D01*
X-4820D01*
X-5042Y35649D01*
X-5265Y35575D01*
X-5468Y35519D01*
X-5635Y35482D01*
X-5783Y35463D01*
X-5894Y35445D01*
X-5968Y35426D01*
X-6042D01*
X-6209Y35445D01*
X-6339Y35482D01*
X-6413Y35519D01*
X-6450Y35538D01*
X-6561Y35649D01*
X-6616Y35741D01*
X-6654Y35815D01*
X-6672Y35852D01*
Y35889D01*
X-6690Y35963D01*
Y36130D01*
Y36352D01*
X-6709Y36574D01*
Y36797D01*
Y36982D01*
Y37056D01*
Y37111D01*
Y37148D01*
Y37167D01*
Y40926D01*
X-5024D01*
Y42889D01*
X-6709D01*
Y46185D01*
D02*
G37*
%LPD*%
G36*
X61117Y33371D02*
X55785D01*
X56173Y33390D01*
X56525Y33408D01*
X56877Y33464D01*
X57192Y33538D01*
X57488Y33612D01*
X57766Y33686D01*
X58025Y33778D01*
X58266Y33890D01*
X58469Y33982D01*
X58655Y34075D01*
X58821Y34149D01*
X58951Y34223D01*
X59062Y34297D01*
X59136Y34353D01*
X59173Y34371D01*
X59192Y34390D01*
X59432Y34593D01*
X59654Y34815D01*
X60062Y35315D01*
X60395Y35834D01*
X60654Y36334D01*
X60766Y36574D01*
X60858Y36797D01*
X60932Y37000D01*
X61006Y37167D01*
X61062Y37315D01*
X61099Y37426D01*
X61117Y37500D01*
Y33371D01*
D02*
G37*
G36*
X-32392Y44426D02*
X-32243Y44407D01*
X-32114Y44351D01*
X-32003Y44296D01*
X-31910Y44240D01*
X-31836Y44203D01*
X-31799Y44166D01*
X-31781Y44148D01*
X-31669Y44018D01*
X-31558Y43851D01*
X-31466Y43666D01*
X-31373Y43481D01*
X-31318Y43296D01*
X-31262Y43148D01*
X-31244Y43055D01*
X-31225Y43037D01*
Y43018D01*
X-31188Y42852D01*
X-31151Y42648D01*
X-31114Y42407D01*
X-31077Y42166D01*
X-31040Y41666D01*
X-31021Y41148D01*
X-31003Y40907D01*
Y40667D01*
X-30984Y40463D01*
Y40278D01*
Y40130D01*
Y40000D01*
Y39926D01*
Y39907D01*
Y39500D01*
X-31003Y39111D01*
Y38759D01*
X-31021Y38445D01*
X-31040Y38148D01*
X-31058Y37889D01*
X-31095Y37648D01*
X-31114Y37445D01*
X-31132Y37260D01*
X-31170Y37111D01*
X-31188Y36982D01*
X-31207Y36871D01*
X-31225Y36797D01*
Y36723D01*
X-31244Y36704D01*
Y36686D01*
X-31318Y36426D01*
X-31410Y36223D01*
X-31503Y36037D01*
X-31577Y35908D01*
X-31651Y35797D01*
X-31725Y35723D01*
X-31762Y35686D01*
X-31781Y35667D01*
X-31910Y35575D01*
X-32040Y35501D01*
X-32169Y35463D01*
X-32299Y35426D01*
X-32392Y35408D01*
X-32484Y35389D01*
X-32558D01*
X-32725Y35408D01*
X-32873Y35426D01*
X-33003Y35482D01*
X-33114Y35538D01*
X-33206Y35575D01*
X-33280Y35630D01*
X-33317Y35649D01*
X-33336Y35667D01*
X-33447Y35797D01*
X-33558Y35963D01*
X-33651Y36149D01*
X-33743Y36334D01*
X-33799Y36500D01*
X-33854Y36648D01*
X-33873Y36741D01*
X-33891Y36778D01*
X-33928Y36963D01*
X-33965Y37167D01*
X-34002Y37389D01*
X-34021Y37630D01*
X-34058Y38148D01*
X-34077Y38667D01*
X-34095Y38907D01*
Y39148D01*
X-34114Y39352D01*
Y39537D01*
Y39685D01*
Y39815D01*
Y39889D01*
Y39907D01*
Y40315D01*
X-34095Y40704D01*
Y41037D01*
X-34077Y41370D01*
X-34058Y41648D01*
X-34039Y41926D01*
X-34021Y42148D01*
X-33984Y42370D01*
X-33965Y42555D01*
X-33947Y42703D01*
X-33928Y42833D01*
X-33910Y42944D01*
X-33891Y43018D01*
Y43092D01*
X-33873Y43111D01*
Y43129D01*
X-33799Y43389D01*
X-33706Y43611D01*
X-33632Y43777D01*
X-33540Y43925D01*
X-33465Y44018D01*
X-33410Y44092D01*
X-33373Y44129D01*
X-33354Y44148D01*
X-33225Y44240D01*
X-33077Y44314D01*
X-32947Y44370D01*
X-32817Y44407D01*
X-32725Y44426D01*
X-32632Y44444D01*
X-32558D01*
X-32392Y44426D01*
D02*
G37*
G36*
X67913Y41055D02*
X68228Y40981D01*
X68487Y40852D01*
X68728Y40722D01*
X68913Y40593D01*
X69061Y40463D01*
X69135Y40389D01*
X69172Y40352D01*
X69394Y40056D01*
X69561Y39704D01*
X69672Y39352D01*
X69764Y39019D01*
X69802Y38722D01*
X69820Y38574D01*
Y38463D01*
X69839Y38371D01*
Y38296D01*
Y38259D01*
Y38241D01*
X69802Y37759D01*
X69728Y37315D01*
X69635Y36963D01*
X69505Y36648D01*
X69376Y36426D01*
X69283Y36241D01*
X69209Y36149D01*
X69172Y36112D01*
X68913Y35871D01*
X68653Y35686D01*
X68376Y35575D01*
X68117Y35482D01*
X67894Y35426D01*
X67728Y35408D01*
X67654Y35389D01*
X67561D01*
X67209Y35426D01*
X66894Y35501D01*
X66617Y35612D01*
X66395Y35760D01*
X66191Y35889D01*
X66043Y36000D01*
X65969Y36075D01*
X65932Y36112D01*
X65709Y36408D01*
X65561Y36760D01*
X65450Y37111D01*
X65358Y37463D01*
X65321Y37759D01*
X65302Y37889D01*
Y38019D01*
X65283Y38111D01*
Y38185D01*
Y38222D01*
Y38241D01*
X65321Y38722D01*
X65395Y39148D01*
X65487Y39519D01*
X65617Y39815D01*
X65728Y40037D01*
X65839Y40222D01*
X65913Y40315D01*
X65932Y40352D01*
X66191Y40593D01*
X66469Y40778D01*
X66746Y40907D01*
X67006Y41000D01*
X67228Y41055D01*
X67394Y41074D01*
X67469Y41093D01*
X67561D01*
X67913Y41055D01*
D02*
G37*
G36*
X43601Y35760D02*
X37157D01*
Y46314D01*
X43601D01*
Y35760D01*
D02*
G37*
G36*
X1253Y41055D02*
X1568Y40981D01*
X1827Y40852D01*
X2068Y40722D01*
X2253Y40593D01*
X2401Y40463D01*
X2475Y40389D01*
X2512Y40352D01*
X2734Y40056D01*
X2901Y39704D01*
X3012Y39352D01*
X3105Y39019D01*
X3142Y38722D01*
X3160Y38574D01*
Y38463D01*
X3179Y38371D01*
Y38296D01*
Y38259D01*
Y38241D01*
X3142Y37759D01*
X3068Y37315D01*
X2975Y36963D01*
X2846Y36648D01*
X2716Y36426D01*
X2623Y36241D01*
X2549Y36149D01*
X2512Y36112D01*
X2253Y35871D01*
X1994Y35686D01*
X1716Y35575D01*
X1457Y35482D01*
X1235Y35426D01*
X1068Y35408D01*
X994Y35389D01*
X901D01*
X549Y35426D01*
X235Y35501D01*
X-43Y35612D01*
X-265Y35760D01*
X-469Y35889D01*
X-617Y36000D01*
X-691Y36075D01*
X-728Y36112D01*
X-950Y36408D01*
X-1098Y36760D01*
X-1210Y37111D01*
X-1302Y37463D01*
X-1339Y37759D01*
X-1358Y37889D01*
Y38019D01*
X-1376Y38111D01*
Y38185D01*
Y38222D01*
Y38241D01*
X-1339Y38722D01*
X-1265Y39148D01*
X-1173Y39519D01*
X-1043Y39815D01*
X-932Y40037D01*
X-821Y40222D01*
X-747Y40315D01*
X-728Y40352D01*
X-469Y40593D01*
X-191Y40778D01*
X87Y40907D01*
X346Y41000D01*
X568Y41055D01*
X735Y41074D01*
X809Y41093D01*
X901D01*
X1253Y41055D01*
D02*
G37*
G36*
X122018Y41185D02*
X122259Y41111D01*
X122481Y41018D01*
X122667Y40926D01*
X122815Y40815D01*
X122926Y40722D01*
X123000Y40648D01*
X123018Y40630D01*
X123185Y40407D01*
X123333Y40148D01*
X123426Y39870D01*
X123500Y39611D01*
X123537Y39389D01*
X123555Y39185D01*
X123574Y39111D01*
Y39074D01*
Y39037D01*
Y39019D01*
X119908D01*
X119926Y39371D01*
X119981Y39685D01*
X120056Y39963D01*
X120167Y40185D01*
X120259Y40370D01*
X120352Y40500D01*
X120407Y40593D01*
X120426Y40611D01*
X120630Y40815D01*
X120852Y40963D01*
X121074Y41055D01*
X121278Y41129D01*
X121463Y41167D01*
X121611Y41204D01*
X121741D01*
X122018Y41185D01*
D02*
G37*
G36*
X126018Y33390D02*
X121852D01*
X122389Y33427D01*
X122889Y33501D01*
X123315Y33612D01*
X123685Y33741D01*
X123851Y33816D01*
X123981Y33871D01*
X124111Y33927D01*
X124203Y33982D01*
X124277Y34038D01*
X124352Y34056D01*
X124370Y34093D01*
X124389D01*
X124740Y34390D01*
X125055Y34704D01*
X125314Y35056D01*
X125518Y35389D01*
X125685Y35686D01*
X125740Y35815D01*
X125796Y35926D01*
X125833Y36019D01*
X125870Y36093D01*
X125888Y36130D01*
Y36149D01*
X123444Y36556D01*
X123352Y36315D01*
X123259Y36093D01*
X123166Y35926D01*
X123055Y35778D01*
X122981Y35667D01*
X122907Y35593D01*
X122852Y35556D01*
X122833Y35538D01*
X122685Y35426D01*
X122518Y35352D01*
X122352Y35297D01*
X122204Y35260D01*
X122074Y35241D01*
X121963Y35223D01*
X121870D01*
X121574Y35241D01*
X121296Y35315D01*
X121037Y35408D01*
X120833Y35519D01*
X120667Y35630D01*
X120556Y35723D01*
X120463Y35797D01*
X120444Y35815D01*
X120259Y36056D01*
X120130Y36334D01*
X120019Y36630D01*
X119944Y36889D01*
X119908Y37148D01*
X119889Y37334D01*
X119870Y37408D01*
Y37463D01*
Y37500D01*
Y37519D01*
X126018D01*
Y33390D01*
D02*
G37*
G36*
X99132Y41185D02*
X99373Y41111D01*
X99595Y41018D01*
X99780Y40926D01*
X99928Y40815D01*
X100039Y40722D01*
X100113Y40648D01*
X100132Y40630D01*
X100298Y40407D01*
X100447Y40148D01*
X100539Y39870D01*
X100613Y39611D01*
X100650Y39389D01*
X100669Y39185D01*
X100687Y39111D01*
Y39074D01*
Y39037D01*
Y39019D01*
X97021D01*
X97039Y39371D01*
X97095Y39685D01*
X97169Y39963D01*
X97280Y40185D01*
X97373Y40370D01*
X97465Y40500D01*
X97521Y40593D01*
X97539Y40611D01*
X97743Y40815D01*
X97965Y40963D01*
X98188Y41055D01*
X98391Y41129D01*
X98576Y41167D01*
X98724Y41204D01*
X98854D01*
X99132Y41185D01*
D02*
G37*
G36*
X103131Y33390D02*
X98965D01*
X99502Y33427D01*
X100002Y33501D01*
X100428Y33612D01*
X100798Y33741D01*
X100965Y33816D01*
X101095Y33871D01*
X101224Y33927D01*
X101317Y33982D01*
X101391Y34038D01*
X101465Y34056D01*
X101483Y34093D01*
X101502D01*
X101854Y34390D01*
X102169Y34704D01*
X102428Y35056D01*
X102632Y35389D01*
X102798Y35686D01*
X102854Y35815D01*
X102909Y35926D01*
X102946Y36019D01*
X102983Y36093D01*
X103002Y36130D01*
Y36149D01*
X100558Y36556D01*
X100465Y36315D01*
X100372Y36093D01*
X100280Y35926D01*
X100169Y35778D01*
X100095Y35667D01*
X100021Y35593D01*
X99965Y35556D01*
X99947Y35538D01*
X99798Y35426D01*
X99632Y35352D01*
X99465Y35297D01*
X99317Y35260D01*
X99187Y35241D01*
X99076Y35223D01*
X98984D01*
X98687Y35241D01*
X98410Y35315D01*
X98151Y35408D01*
X97947Y35519D01*
X97780Y35630D01*
X97669Y35723D01*
X97577Y35797D01*
X97558Y35815D01*
X97373Y36056D01*
X97243Y36334D01*
X97132Y36630D01*
X97058Y36889D01*
X97021Y37148D01*
X97002Y37334D01*
X96984Y37408D01*
Y37463D01*
Y37500D01*
Y37519D01*
X103131D01*
Y33390D01*
D02*
G37*
D14*
X38500Y-20375D02*
D03*
D15*
X-48999Y154500D02*
D03*
Y145500D02*
D03*
X-23999Y154500D02*
D03*
Y145500D02*
D03*
X1001Y154500D02*
D03*
Y145500D02*
D03*
X26001Y154500D02*
D03*
Y145500D02*
D03*
X51001Y154500D02*
D03*
Y145500D02*
D03*
X76000Y154500D02*
D03*
Y145500D02*
D03*
X101000Y154500D02*
D03*
Y145500D02*
D03*
X126000Y154500D02*
D03*
Y145500D02*
D03*
D16*
X152500Y-18500D02*
D03*
X144500D02*
D03*
X136500D02*
D03*
X128500D02*
D03*
X120500D02*
D03*
X112500D02*
D03*
X104500D02*
D03*
X96500D02*
D03*
X88500D02*
D03*
X80500D02*
D03*
X72500D02*
D03*
X64500D02*
D03*
X56500D02*
D03*
X48500D02*
D03*
X40500D02*
D03*
X32500D02*
D03*
X24500D02*
D03*
X16500D02*
D03*
X-23500D02*
D03*
X-31500D02*
D03*
X-39500D02*
D03*
X-47500D02*
D03*
X-55500D02*
D03*
X-63500D02*
D03*
X-71500D02*
D03*
X-79500D02*
D03*
D17*
X-82500Y448000D02*
D03*
X159500D02*
D03*
D18*
X1000Y240000D02*
D03*
X26000D02*
D03*
X-74000D02*
D03*
X-24000D02*
D03*
X-49000D02*
D03*
X126000D02*
D03*
X101000D02*
D03*
X76000D02*
D03*
X51000D02*
D03*
D19*
X151000D02*
D03*
M02*
