G04*
G04 #@! TF.GenerationSoftware,Altium Limited,Altium Designer,23.3.1 (30)*
G04*
G04 Layer_Color=128*
%FSLAX44Y44*%
%MOMM*%
G71*
G04*
G04 #@! TF.SameCoordinates,B0EE65AD-7F72-4637-8529-5AC13AF0589E*
G04*
G04*
G04 #@! TF.FilePolarity,Positive*
G04*
G01*
G75*
%ADD27R,0.7000X1.0000*%
%ADD28R,1.4000X0.7000*%
%ADD29R,0.5200X0.4700*%
D27*
X-43050Y50000D02*
D03*
X-30350D02*
D03*
X-17650D02*
D03*
X-4950D02*
D03*
Y120000D02*
D03*
X-17650D02*
D03*
X-30350D02*
D03*
X-43050D02*
D03*
X-55750D02*
D03*
X7750D02*
D03*
Y50000D02*
D03*
X-55750D02*
D03*
X-68450Y120000D02*
D03*
Y50000D02*
D03*
X20450Y120000D02*
D03*
Y50000D02*
D03*
X81950D02*
D03*
X94650D02*
D03*
X107350D02*
D03*
X120050D02*
D03*
Y120000D02*
D03*
X107350D02*
D03*
X94650D02*
D03*
X81950D02*
D03*
X69250D02*
D03*
X132750D02*
D03*
Y50000D02*
D03*
X69250D02*
D03*
X56550Y120000D02*
D03*
Y50000D02*
D03*
X145450Y120000D02*
D03*
Y50000D02*
D03*
D28*
X76001Y204350D02*
D03*
Y185650D02*
D03*
X51001Y204350D02*
D03*
Y185650D02*
D03*
X101001Y204350D02*
D03*
Y185650D02*
D03*
X26001Y204350D02*
D03*
Y185650D02*
D03*
X1001Y204350D02*
D03*
Y185650D02*
D03*
X-23999Y204350D02*
D03*
Y185650D02*
D03*
X-48999Y204350D02*
D03*
Y185650D02*
D03*
X126001Y204350D02*
D03*
Y185650D02*
D03*
D29*
X-55750Y30700D02*
D03*
Y39300D02*
D03*
X132750D02*
D03*
Y30700D02*
D03*
X107350Y39300D02*
D03*
Y30700D02*
D03*
X81950Y39300D02*
D03*
Y30700D02*
D03*
X-68450Y39300D02*
D03*
Y30700D02*
D03*
X7750Y39300D02*
D03*
Y30700D02*
D03*
X94650D02*
D03*
Y39300D02*
D03*
X-43050D02*
D03*
Y30700D02*
D03*
X69250D02*
D03*
Y39300D02*
D03*
X56550D02*
D03*
Y30700D02*
D03*
X20450D02*
D03*
Y39300D02*
D03*
X120050Y30700D02*
D03*
Y39300D02*
D03*
X-4950Y30700D02*
D03*
Y39300D02*
D03*
X-17650D02*
D03*
Y30700D02*
D03*
X-30350D02*
D03*
Y39300D02*
D03*
X145450Y30700D02*
D03*
Y39300D02*
D03*
M02*
