G04*
G04 #@! TF.GenerationSoftware,Altium Limited,Altium Designer,23.3.1 (30)*
G04*
G04 Layer_Color=16711935*
%FSLAX44Y44*%
%MOMM*%
G71*
G04*
G04 #@! TF.SameCoordinates,B0EE65AD-7F72-4637-8529-5AC13AF0589E*
G04*
G04*
G04 #@! TF.FilePolarity,Positive*
G04*
G01*
G75*
%ADD34C,0.0100*%
%ADD35C,0.0200*%
D34*
X-79000Y125000D02*
X31000D01*
Y45000D02*
Y125000D01*
X-79000Y45000D02*
Y125000D01*
Y45000D02*
X31000D01*
X-26500Y85000D02*
X-21500D01*
X-24000Y82500D02*
Y87500D01*
X73501Y195000D02*
X78501D01*
X76001Y192500D02*
Y197500D01*
X84001Y181000D02*
Y209000D01*
X68001Y181000D02*
Y209000D01*
X84001D01*
X68001Y181000D02*
X84001D01*
X48501Y195000D02*
X53501D01*
X51001Y192500D02*
Y197500D01*
X59001Y181000D02*
Y209000D01*
X43001Y181000D02*
Y209000D01*
X59001D01*
X43001Y181000D02*
X59001D01*
X98501Y195000D02*
X103501D01*
X101001Y192500D02*
Y197500D01*
X109001Y181000D02*
Y209000D01*
X93001Y181000D02*
Y209000D01*
X109001D01*
X93001Y181000D02*
X109001D01*
X23501Y195000D02*
X28501D01*
X26001Y192500D02*
Y197500D01*
X34001Y181000D02*
Y209000D01*
X18001Y181000D02*
Y209000D01*
X34001D01*
X18001Y181000D02*
X34001D01*
X-1499Y195000D02*
X3501D01*
X1001Y192500D02*
Y197500D01*
X9001Y181000D02*
Y209000D01*
X-6999Y181000D02*
Y209000D01*
X9001D01*
X-6999Y181000D02*
X9001D01*
X-26499Y195000D02*
X-21499D01*
X-23999Y192500D02*
Y197500D01*
X-15999Y181000D02*
Y209000D01*
X-31999Y181000D02*
Y209000D01*
X-15999D01*
X-31999Y181000D02*
X-15999D01*
X-51499Y195000D02*
X-46499D01*
X-48999Y192500D02*
Y197500D01*
X-40999Y181000D02*
Y209000D01*
X-56999Y181000D02*
Y209000D01*
X-40999D01*
X-56999Y181000D02*
X-40999D01*
X123501Y195000D02*
X128501D01*
X126001Y192500D02*
Y197500D01*
X134001Y181000D02*
Y209000D01*
X118001Y181000D02*
Y209000D01*
X134001D01*
X118001Y181000D02*
X134001D01*
X46000Y125000D02*
X156000D01*
Y45000D02*
Y125000D01*
X46000Y45000D02*
Y125000D01*
Y45000D02*
X156000D01*
X98500Y85000D02*
X103500D01*
X101000Y82500D02*
Y87500D01*
X130250Y35000D02*
X135250D01*
X132750Y32500D02*
Y37500D01*
X136500Y27500D02*
Y42500D01*
X129000Y27500D02*
Y42500D01*
X136500D01*
X129000Y27500D02*
X136500D01*
X104850Y35000D02*
X109850D01*
X107350Y32500D02*
Y37500D01*
X111100Y27500D02*
Y42500D01*
X103600Y27500D02*
Y42500D01*
X111100D01*
X103600Y27500D02*
X111100D01*
X79450Y35000D02*
X84450D01*
X81950Y32500D02*
Y37500D01*
X85700Y27500D02*
Y42500D01*
X78200Y27500D02*
Y42500D01*
X85700D01*
X78200Y27500D02*
X85700D01*
X-70950Y35000D02*
X-65950D01*
X-68450Y32500D02*
Y37500D01*
X-64700Y27500D02*
Y42500D01*
X-72200Y27500D02*
Y42500D01*
X-64700D01*
X-72200Y27500D02*
X-64700D01*
X5250Y35000D02*
X10250D01*
X7750Y32500D02*
Y37500D01*
X11500Y27500D02*
Y42500D01*
X4000Y27500D02*
Y42500D01*
X11500D01*
X4000Y27500D02*
X11500D01*
X-45550Y35000D02*
X-40550D01*
X-43050Y32500D02*
Y37500D01*
X-39300Y27500D02*
Y42500D01*
X-46800Y27500D02*
Y42500D01*
X-39300D01*
X-46800Y27500D02*
X-39300D01*
X54050Y35000D02*
X59050D01*
X56550Y32500D02*
Y37500D01*
X60300Y27500D02*
Y42500D01*
X52800Y27500D02*
Y42500D01*
X60300D01*
X52800Y27500D02*
X60300D01*
X-20150Y35000D02*
X-15150D01*
X-17650Y32500D02*
Y37500D01*
X-13900Y27500D02*
Y42500D01*
X-21400Y27500D02*
Y42500D01*
X-13900D01*
X-21400Y27500D02*
X-13900D01*
D35*
X-59500D02*
X-52000D01*
Y42500D01*
X-59500Y27500D02*
Y42500D01*
X-55750Y32500D02*
Y37500D01*
X-58250Y35000D02*
X-53250D01*
X-59500Y42500D02*
X-52000D01*
X90900Y27500D02*
X98400D01*
Y42500D01*
X90900Y27500D02*
Y42500D01*
X94650Y32500D02*
Y37500D01*
X92150Y35000D02*
X97150D01*
X90900Y42500D02*
X98400D01*
X65500Y27500D02*
X73000D01*
Y42500D01*
X65500Y27500D02*
Y42500D01*
X69250Y32500D02*
Y37500D01*
X66750Y35000D02*
X71750D01*
X65500Y42500D02*
X73000D01*
X16700Y27500D02*
X24200D01*
Y42500D01*
X16700Y27500D02*
Y42500D01*
X20450Y32500D02*
Y37500D01*
X17950Y35000D02*
X22950D01*
X16700Y42500D02*
X24200D01*
X116300Y27500D02*
X123800D01*
Y42500D01*
X116300Y27500D02*
Y42500D01*
X120050Y32500D02*
Y37500D01*
X117550Y35000D02*
X122550D01*
X116300Y42500D02*
X123800D01*
X-8700Y27500D02*
X-1200D01*
Y42500D01*
X-8700Y27500D02*
Y42500D01*
X-4950Y32500D02*
Y37500D01*
X-7450Y35000D02*
X-2450D01*
X-8700Y42500D02*
X-1200D01*
X-34100Y27500D02*
X-26600D01*
Y42500D01*
X-34100Y27500D02*
Y42500D01*
X-30350Y32500D02*
Y37500D01*
X-32850Y35000D02*
X-27850D01*
X-34100Y42500D02*
X-26600D01*
X141700Y27500D02*
X149200D01*
Y42500D01*
X141700Y27500D02*
Y42500D01*
X145450Y32500D02*
Y37500D01*
X142950Y35000D02*
X147950D01*
X141700Y42500D02*
X149200D01*
M02*
