G04*
G04 #@! TF.GenerationSoftware,Altium Limited,Altium Designer,23.3.1 (30)*
G04*
G04 Layer_Color=255*
%FSLAX44Y44*%
%MOMM*%
G71*
G04*
G04 #@! TF.SameCoordinates,B0EE65AD-7F72-4637-8529-5AC13AF0589E*
G04*
G04*
G04 #@! TF.FilePolarity,Positive*
G04*
G01*
G75*
%ADD20R,0.6000X2.3000*%
%ADD22R,5.3000X5.3000*%
%ADD23C,1.3500*%
%ADD24R,1.3500X1.3500*%
%ADD27R,0.7000X1.0000*%
%ADD28R,1.4000X0.7000*%
%ADD29R,0.5200X0.4700*%
D20*
X156500Y-18500D02*
D03*
X148500D02*
D03*
X140500D02*
D03*
X132500D02*
D03*
X124500D02*
D03*
X116500D02*
D03*
X108500D02*
D03*
X100500D02*
D03*
X92500D02*
D03*
X84500D02*
D03*
X76500D02*
D03*
X68500D02*
D03*
X60500D02*
D03*
X52500D02*
D03*
X44500D02*
D03*
X36500D02*
D03*
X28500D02*
D03*
X20500D02*
D03*
X-19500D02*
D03*
X-27500D02*
D03*
X-35500D02*
D03*
X-43500D02*
D03*
X-51500D02*
D03*
X-59500D02*
D03*
X-67500D02*
D03*
X-75500D02*
D03*
D22*
X-82500Y448000D02*
D03*
X159500D02*
D03*
D23*
X1000Y240000D02*
D03*
X26000D02*
D03*
X-74000D02*
D03*
X-24000D02*
D03*
X-49000D02*
D03*
X126000D02*
D03*
X101000D02*
D03*
X76000D02*
D03*
X51000D02*
D03*
D24*
X151000D02*
D03*
D27*
X-43050Y50000D02*
D03*
X-30350D02*
D03*
X-17650D02*
D03*
X-4950D02*
D03*
Y120000D02*
D03*
X-17650D02*
D03*
X-30350D02*
D03*
X-43050D02*
D03*
X-55750D02*
D03*
X7750D02*
D03*
Y50000D02*
D03*
X-55750D02*
D03*
X-68450Y120000D02*
D03*
Y50000D02*
D03*
X20450Y120000D02*
D03*
Y50000D02*
D03*
X81950D02*
D03*
X94650D02*
D03*
X107350D02*
D03*
X120050D02*
D03*
Y120000D02*
D03*
X107350D02*
D03*
X94650D02*
D03*
X81950D02*
D03*
X69250D02*
D03*
X132750D02*
D03*
Y50000D02*
D03*
X69250D02*
D03*
X56550Y120000D02*
D03*
Y50000D02*
D03*
X145450Y120000D02*
D03*
Y50000D02*
D03*
D28*
X76001Y204350D02*
D03*
Y185650D02*
D03*
X51001Y204350D02*
D03*
Y185650D02*
D03*
X101001Y204350D02*
D03*
Y185650D02*
D03*
X26001Y204350D02*
D03*
Y185650D02*
D03*
X1001Y204350D02*
D03*
Y185650D02*
D03*
X-23999Y204350D02*
D03*
Y185650D02*
D03*
X-48999Y204350D02*
D03*
Y185650D02*
D03*
X126001Y204350D02*
D03*
Y185650D02*
D03*
D29*
X-55750Y30700D02*
D03*
Y39300D02*
D03*
X132750D02*
D03*
Y30700D02*
D03*
X107350Y39300D02*
D03*
Y30700D02*
D03*
X81950Y39300D02*
D03*
Y30700D02*
D03*
X-68450Y39300D02*
D03*
Y30700D02*
D03*
X7750Y39300D02*
D03*
Y30700D02*
D03*
X94650D02*
D03*
Y39300D02*
D03*
X-43050D02*
D03*
Y30700D02*
D03*
X69250D02*
D03*
Y39300D02*
D03*
X56550D02*
D03*
Y30700D02*
D03*
X20450D02*
D03*
Y39300D02*
D03*
X120050Y30700D02*
D03*
Y39300D02*
D03*
X-4950Y30700D02*
D03*
Y39300D02*
D03*
X-17650D02*
D03*
Y30700D02*
D03*
X-30350D02*
D03*
Y39300D02*
D03*
X145450Y30700D02*
D03*
Y39300D02*
D03*
M02*
