G04*
G04 #@! TF.GenerationSoftware,Altium Limited,Altium Designer,23.3.1 (30)*
G04*
G04 Layer_Physical_Order=4*
G04 Layer_Color=16711680*
%FSLAX44Y44*%
%MOMM*%
G71*
G04*
G04 #@! TF.SameCoordinates,B0EE65AD-7F72-4637-8529-5AC13AF0589E*
G04*
G04*
G04 #@! TF.FilePolarity,Positive*
G04*
G01*
G75*
%ADD20R,0.6000X2.3000*%
%ADD21C,0.3000*%
%ADD22R,5.3000X5.3000*%
%ADD23C,1.3500*%
%ADD24R,1.3500X1.3500*%
%ADD25C,0.5000*%
%ADD27R,0.7000X1.0000*%
%ADD28R,1.4000X0.7000*%
%ADD29R,0.5200X0.4700*%
G36*
X185951Y110000D02*
X-108951D01*
X-108951Y275590D01*
X185951D01*
X185951Y110000D01*
D02*
G37*
G36*
X185951Y2049D02*
X175000D01*
X174938Y2036D01*
X174875Y2046D01*
X174091Y2007D01*
X173908Y1961D01*
X173719D01*
X172181Y1655D01*
X171949Y1559D01*
X171702Y1510D01*
X170253Y910D01*
X170045Y771D01*
X169813Y675D01*
X168509Y-197D01*
X168331Y-374D01*
X168123Y-514D01*
X167014Y-1623D01*
X166874Y-1831D01*
X166697Y-2009D01*
X165825Y-3313D01*
X165729Y-3545D01*
X165590Y-3753D01*
X165108Y-4918D01*
X111049D01*
Y-3588D01*
X111082Y-3510D01*
X111085Y-3245D01*
X111103Y-2806D01*
X111136Y-2484D01*
X111151Y-2397D01*
X111163Y-2347D01*
X111172Y-2327D01*
X111173Y-2315D01*
X111185Y-2281D01*
X111184Y-2266D01*
X111467Y-1983D01*
X112000Y-696D01*
Y696D01*
X111467Y1983D01*
X110483Y2967D01*
X109196Y3500D01*
X107804D01*
X106517Y2967D01*
X105533Y1983D01*
X105173Y1115D01*
X103827D01*
X103467Y1983D01*
X102483Y2967D01*
X101196Y3500D01*
X99804D01*
X98517Y2967D01*
X97533Y1983D01*
X97173Y1115D01*
X95827D01*
X95467Y1983D01*
X94483Y2967D01*
X93196Y3500D01*
X91804D01*
X90517Y2967D01*
X89533Y1983D01*
X89173Y1115D01*
X87827D01*
X87467Y1983D01*
X86483Y2967D01*
X85196Y3500D01*
X83804D01*
X82517Y2967D01*
X81533Y1983D01*
X81173Y1115D01*
X79827D01*
X79467Y1983D01*
X78483Y2967D01*
X77196Y3500D01*
X75804D01*
X74517Y2967D01*
X73533Y1983D01*
X73173Y1115D01*
X71827D01*
X71467Y1983D01*
X70483Y2967D01*
X69196Y3500D01*
X67804D01*
X66517Y2967D01*
X65533Y1983D01*
X65173Y1115D01*
X63827D01*
X63467Y1983D01*
X62483Y2967D01*
X61196Y3500D01*
X59804D01*
X58517Y2967D01*
X57533Y1983D01*
X57173Y1115D01*
X55827D01*
X55467Y1983D01*
X54483Y2967D01*
X53196Y3500D01*
X51804D01*
X50517Y2967D01*
X49533Y1983D01*
X49000Y696D01*
Y-696D01*
X49533Y-1983D01*
X49816Y-2266D01*
X49815Y-2281D01*
X49827Y-2315D01*
X49828Y-2327D01*
X49837Y-2347D01*
X49850Y-2397D01*
X49861Y-2466D01*
X49915Y-3260D01*
X49918Y-3510D01*
X49951Y-3588D01*
Y-4918D01*
X10049D01*
Y0D01*
X10032Y83D01*
X10043Y167D01*
X9979Y1146D01*
X9914Y1388D01*
X9898Y1639D01*
X9391Y3530D01*
X9244Y3829D01*
X9136Y4144D01*
X8158Y5840D01*
X7938Y6091D01*
X7752Y6368D01*
X6368Y7752D01*
X6091Y7938D01*
X5840Y8158D01*
X4144Y9136D01*
X3829Y9244D01*
X3530Y9391D01*
X1639Y9898D01*
X1306Y9920D01*
X979Y9985D01*
X-979D01*
X-1306Y9920D01*
X-1639Y9898D01*
X-3530Y9391D01*
X-3829Y9244D01*
X-4145Y9136D01*
X-5840Y8158D01*
X-6091Y7938D01*
X-6368Y7752D01*
X-7753Y6368D01*
X-7938Y6091D01*
X-8158Y5840D01*
X-9136Y4144D01*
X-9244Y3829D01*
X-9391Y3530D01*
X-9898Y1639D01*
X-9914Y1388D01*
X-9979Y1146D01*
X-10043Y167D01*
X-10032Y83D01*
X-10049Y0D01*
Y-4918D01*
X-48951D01*
Y-3588D01*
X-48918Y-3510D01*
X-48915Y-3245D01*
X-48897Y-2806D01*
X-48864Y-2484D01*
X-48850Y-2397D01*
X-48837Y-2347D01*
X-48828Y-2327D01*
X-48827Y-2315D01*
X-48815Y-2281D01*
X-48816Y-2266D01*
X-48533Y-1983D01*
X-48000Y-696D01*
Y696D01*
X-48533Y1983D01*
X-49517Y2967D01*
X-50804Y3500D01*
X-52196D01*
X-53483Y2967D01*
X-54467Y1983D01*
X-55000Y696D01*
Y-696D01*
X-54467Y-1983D01*
X-54184Y-2266D01*
X-54185Y-2281D01*
X-54173Y-2315D01*
X-54172Y-2327D01*
X-54163Y-2347D01*
X-54151Y-2397D01*
X-54139Y-2466D01*
X-54085Y-3260D01*
X-54082Y-3510D01*
X-54049Y-3588D01*
Y-4918D01*
X-88108D01*
X-88590Y-3753D01*
X-88729Y-3545D01*
X-88825Y-3313D01*
X-89697Y-2009D01*
X-89874Y-1831D01*
X-90014Y-1623D01*
X-91123Y-514D01*
X-91331Y-374D01*
X-91509Y-197D01*
X-92813Y675D01*
X-93045Y771D01*
X-93253Y910D01*
X-94702Y1510D01*
X-94949Y1559D01*
X-95181Y1655D01*
X-96719Y1961D01*
X-96908D01*
X-97091Y2007D01*
X-97875Y2046D01*
X-97938Y2036D01*
X-98000Y2049D01*
X-108951D01*
Y69850D01*
X185951D01*
Y2049D01*
D02*
G37*
G36*
X110203Y-1847D02*
X110160Y-1932D01*
X110122Y-2043D01*
X110090Y-2177D01*
X110063Y-2336D01*
X110022Y-2728D01*
X110002Y-3218D01*
X110000Y-3500D01*
X107000D01*
X106997Y-3218D01*
X106938Y-2336D01*
X106910Y-2177D01*
X106877Y-2043D01*
X106840Y-1932D01*
X106798Y-1847D01*
X106750Y-1785D01*
X110250D01*
X110203Y-1847D01*
D02*
G37*
G36*
X102203D02*
X102160Y-1932D01*
X102122Y-2043D01*
X102090Y-2177D01*
X102063Y-2336D01*
X102022Y-2728D01*
X102002Y-3218D01*
X102000Y-3500D01*
X99000D01*
X98997Y-3218D01*
X98938Y-2336D01*
X98910Y-2177D01*
X98877Y-2043D01*
X98840Y-1932D01*
X98798Y-1847D01*
X98750Y-1785D01*
X102250D01*
X102203Y-1847D01*
D02*
G37*
G36*
X94202D02*
X94160Y-1932D01*
X94122Y-2043D01*
X94090Y-2177D01*
X94062Y-2336D01*
X94023Y-2728D01*
X94003Y-3218D01*
X94000Y-3500D01*
X91000D01*
X90997Y-3218D01*
X90938Y-2336D01*
X90910Y-2177D01*
X90878Y-2043D01*
X90840Y-1932D01*
X90798Y-1847D01*
X90750Y-1785D01*
X94250D01*
X94202Y-1847D01*
D02*
G37*
G36*
X86202D02*
X86160Y-1932D01*
X86123Y-2043D01*
X86090Y-2177D01*
X86062Y-2336D01*
X86023Y-2728D01*
X86003Y-3218D01*
X86000Y-3500D01*
X83000D01*
X82998Y-3218D01*
X82937Y-2336D01*
X82910Y-2177D01*
X82878Y-2043D01*
X82840Y-1932D01*
X82797Y-1847D01*
X82750Y-1785D01*
X86250D01*
X86202Y-1847D01*
D02*
G37*
G36*
X78203D02*
X78160Y-1932D01*
X78123Y-2043D01*
X78090Y-2177D01*
X78063Y-2336D01*
X78022Y-2728D01*
X78003Y-3218D01*
X78000Y-3500D01*
X75000D01*
X74998Y-3218D01*
X74938Y-2336D01*
X74910Y-2177D01*
X74878Y-2043D01*
X74840Y-1932D01*
X74798Y-1847D01*
X74750Y-1785D01*
X78250D01*
X78203Y-1847D01*
D02*
G37*
G36*
X70202D02*
X70160Y-1932D01*
X70122Y-2043D01*
X70090Y-2177D01*
X70062Y-2336D01*
X70023Y-2728D01*
X70002Y-3218D01*
X70000Y-3500D01*
X67000D01*
X66997Y-3218D01*
X66937Y-2336D01*
X66910Y-2177D01*
X66877Y-2043D01*
X66840Y-1932D01*
X66797Y-1847D01*
X66750Y-1785D01*
X70250D01*
X70202Y-1847D01*
D02*
G37*
G36*
X62203D02*
X62160Y-1932D01*
X62123Y-2043D01*
X62090Y-2177D01*
X62063Y-2336D01*
X62023Y-2728D01*
X62003Y-3218D01*
X62000Y-3500D01*
X59000D01*
X58998Y-3218D01*
X58938Y-2336D01*
X58910Y-2177D01*
X58878Y-2043D01*
X58840Y-1932D01*
X58797Y-1847D01*
X58750Y-1785D01*
X62250D01*
X62203Y-1847D01*
D02*
G37*
G36*
X54202D02*
X54160Y-1932D01*
X54123Y-2043D01*
X54090Y-2177D01*
X54062Y-2336D01*
X54022Y-2728D01*
X54002Y-3218D01*
X54000Y-3500D01*
X51000D01*
X50998Y-3218D01*
X50938Y-2336D01*
X50910Y-2177D01*
X50877Y-2043D01*
X50840Y-1932D01*
X50798Y-1847D01*
X50750Y-1785D01*
X54250D01*
X54202Y-1847D01*
D02*
G37*
G36*
X-49798D02*
X-49840Y-1932D01*
X-49878Y-2043D01*
X-49910Y-2177D01*
X-49938Y-2336D01*
X-49977Y-2728D01*
X-49998Y-3218D01*
X-50000Y-3500D01*
X-53000D01*
X-53003Y-3218D01*
X-53063Y-2336D01*
X-53090Y-2177D01*
X-53123Y-2043D01*
X-53160Y-1932D01*
X-53203Y-1847D01*
X-53250Y-1785D01*
X-49750D01*
X-49798Y-1847D01*
D02*
G37*
%LPC*%
G36*
X126001Y261604D02*
X121786Y261189D01*
X117733Y259960D01*
X113998Y257963D01*
X113501Y257555D01*
X113003Y257963D01*
X109268Y259960D01*
X105216Y261189D01*
X101001Y261604D01*
X96786Y261189D01*
X92733Y259960D01*
X88998Y257963D01*
X88501Y257555D01*
X88003Y257963D01*
X84268Y259960D01*
X80216Y261189D01*
X76001Y261604D01*
X71786Y261189D01*
X67733Y259960D01*
X63998Y257963D01*
X63501Y257555D01*
X63003Y257963D01*
X59268Y259960D01*
X55216Y261189D01*
X51001Y261604D01*
X46786Y261189D01*
X42733Y259960D01*
X38998Y257963D01*
X38501Y257555D01*
X38003Y257963D01*
X34268Y259960D01*
X30215Y261189D01*
X26001Y261604D01*
X21786Y261189D01*
X17733Y259960D01*
X13998Y257963D01*
X13501Y257555D01*
X13003Y257963D01*
X9268Y259960D01*
X5215Y261189D01*
X1001Y261604D01*
X-3214Y261189D01*
X-7267Y259960D01*
X-11002Y257963D01*
X-11499Y257555D01*
X-11997Y257963D01*
X-15732Y259960D01*
X-19784Y261189D01*
X-23999Y261604D01*
X-28214Y261189D01*
X-32267Y259960D01*
X-36002Y257963D01*
X-36499Y257555D01*
X-36997Y257963D01*
X-40732Y259960D01*
X-44784Y261189D01*
X-48999Y261604D01*
X-53214Y261189D01*
X-57267Y259960D01*
X-61002Y257963D01*
X-64276Y255276D01*
X-66962Y252003D01*
X-68959Y248267D01*
X-69238Y247348D01*
X-70419Y246881D01*
X-71009Y247222D01*
X-72980Y247750D01*
X-73000D01*
Y240000D01*
Y232250D01*
X-72980D01*
X-71873Y232546D01*
X-70603Y231610D01*
Y204350D01*
X-70188Y200135D01*
X-68959Y196082D01*
X-66962Y192347D01*
X-64276Y189074D01*
X-61002Y186387D01*
X-57267Y184390D01*
X-56999Y184309D01*
Y181150D01*
X-52142D01*
X-52114Y181135D01*
X-51957Y181118D01*
X-51951Y181116D01*
X-51945Y181112D01*
X-51909Y181073D01*
X-51845Y180967D01*
X-51768Y180776D01*
X-51694Y180498D01*
X-51634Y180136D01*
X-51595Y179695D01*
X-51582Y179160D01*
X-51582Y179160D01*
X-51584Y178895D01*
X-51602Y178456D01*
X-51635Y178134D01*
X-51650Y178047D01*
X-51662Y177997D01*
X-51672Y177977D01*
X-51672Y177965D01*
X-51684Y177931D01*
X-51683Y177916D01*
X-51966Y177633D01*
X-52499Y176346D01*
Y174954D01*
X-51966Y173667D01*
X-50982Y172683D01*
X-49695Y172150D01*
X-48303D01*
X-47017Y172683D01*
X-46032Y173667D01*
X-45499Y174954D01*
Y176346D01*
X-46032Y177633D01*
X-46315Y177916D01*
X-46315Y177931D01*
X-46326Y177965D01*
X-46327Y177977D01*
X-46337Y177997D01*
X-46349Y178047D01*
X-46361Y178116D01*
X-46415Y178910D01*
X-46417Y179160D01*
X-46417Y179160D01*
X-46403Y179695D01*
X-46365Y180136D01*
X-46305Y180498D01*
X-46231Y180776D01*
X-46153Y180967D01*
X-46089Y181073D01*
X-46054Y181112D01*
X-46048Y181116D01*
X-46042Y181118D01*
X-45885Y181135D01*
X-45857Y181150D01*
X-40999D01*
Y184309D01*
X-40732Y184390D01*
X-36997Y186387D01*
X-36499Y186795D01*
X-36002Y186387D01*
X-32267Y184390D01*
X-31999Y184309D01*
Y181150D01*
X-27142D01*
X-27114Y181135D01*
X-26957Y181118D01*
X-26951Y181116D01*
X-26945Y181112D01*
X-26909Y181073D01*
X-26845Y180967D01*
X-26768Y180776D01*
X-26694Y180498D01*
X-26634Y180136D01*
X-26595Y179695D01*
X-26581Y179160D01*
X-26582Y179160D01*
X-26584Y178895D01*
X-26602Y178456D01*
X-26635Y178134D01*
X-26650Y178047D01*
X-26662Y177997D01*
X-26672Y177977D01*
X-26672Y177965D01*
X-26684Y177931D01*
X-26683Y177916D01*
X-26966Y177633D01*
X-27499Y176346D01*
Y174954D01*
X-26966Y173667D01*
X-25982Y172683D01*
X-24695Y172150D01*
X-23303D01*
X-22017Y172683D01*
X-21032Y173667D01*
X-20499Y174954D01*
Y176346D01*
X-21032Y177633D01*
X-21316Y177916D01*
X-21314Y177931D01*
X-21326Y177965D01*
X-21327Y177977D01*
X-21337Y177997D01*
X-21349Y178047D01*
X-21361Y178116D01*
X-21415Y178910D01*
X-21417Y179160D01*
X-21417Y179160D01*
X-21403Y179695D01*
X-21365Y180136D01*
X-21305Y180498D01*
X-21231Y180776D01*
X-21153Y180967D01*
X-21089Y181073D01*
X-21054Y181112D01*
X-21048Y181116D01*
X-21042Y181118D01*
X-20885Y181135D01*
X-20857Y181150D01*
X-15999D01*
Y184309D01*
X-15732Y184390D01*
X-11997Y186387D01*
X-11499Y186795D01*
X-11002Y186387D01*
X-7267Y184390D01*
X-6999Y184309D01*
Y181150D01*
X-2142D01*
X-2114Y181135D01*
X-1957Y181118D01*
X-1951Y181116D01*
X-1945Y181112D01*
X-1909Y181073D01*
X-1845Y180967D01*
X-1768Y180776D01*
X-1694Y180498D01*
X-1634Y180136D01*
X-1595Y179695D01*
X-1582Y179160D01*
X-1582Y179160D01*
X-1584Y178895D01*
X-1602Y178456D01*
X-1635Y178134D01*
X-1650Y178047D01*
X-1662Y177997D01*
X-1672Y177977D01*
X-1672Y177965D01*
X-1684Y177931D01*
X-1683Y177916D01*
X-1966Y177633D01*
X-2499Y176346D01*
Y174954D01*
X-1966Y173667D01*
X-982Y172683D01*
X305Y172150D01*
X1697D01*
X2983Y172683D01*
X3968Y173667D01*
X4501Y174954D01*
Y176346D01*
X3968Y177633D01*
X3684Y177916D01*
X3686Y177931D01*
X3674Y177965D01*
X3673Y177977D01*
X3663Y177997D01*
X3651Y178047D01*
X3639Y178116D01*
X3585Y178910D01*
X3583Y179160D01*
X3583Y179160D01*
X3597Y179695D01*
X3635Y180136D01*
X3695Y180498D01*
X3769Y180776D01*
X3847Y180967D01*
X3911Y181073D01*
X3946Y181112D01*
X3952Y181116D01*
X3958Y181118D01*
X4115Y181135D01*
X4143Y181150D01*
X9001D01*
Y184309D01*
X9268Y184390D01*
X13003Y186387D01*
X13501Y186795D01*
X13998Y186387D01*
X17733Y184390D01*
X18001Y184309D01*
Y181150D01*
X22858D01*
X22886Y181135D01*
X23043Y181118D01*
X23049Y181116D01*
X23055Y181112D01*
X23091Y181073D01*
X23155Y180967D01*
X23232Y180776D01*
X23306Y180498D01*
X23366Y180136D01*
X23405Y179695D01*
X23419Y179160D01*
X23418Y179160D01*
X23416Y178895D01*
X23398Y178456D01*
X23365Y178134D01*
X23350Y178047D01*
X23338Y177997D01*
X23328Y177977D01*
X23328Y177965D01*
X23316Y177931D01*
X23317Y177916D01*
X23034Y177633D01*
X22501Y176346D01*
Y174954D01*
X23034Y173667D01*
X24018Y172683D01*
X25305Y172150D01*
X26697D01*
X27983Y172683D01*
X28968Y173667D01*
X29501Y174954D01*
Y176346D01*
X28968Y177633D01*
X28685Y177916D01*
X28686Y177931D01*
X28674Y177965D01*
X28673Y177977D01*
X28663Y177997D01*
X28651Y178047D01*
X28639Y178116D01*
X28585Y178910D01*
X28583Y179160D01*
X28583Y179160D01*
X28597Y179695D01*
X28635Y180136D01*
X28695Y180498D01*
X28769Y180776D01*
X28847Y180967D01*
X28911Y181073D01*
X28946Y181112D01*
X28952Y181116D01*
X28958Y181118D01*
X29115Y181135D01*
X29143Y181150D01*
X34001D01*
Y184309D01*
X34268Y184390D01*
X38003Y186387D01*
X38501Y186795D01*
X38998Y186387D01*
X42733Y184390D01*
X43001Y184309D01*
Y181150D01*
X47858D01*
X47886Y181135D01*
X48043Y181118D01*
X48049Y181116D01*
X48055Y181112D01*
X48091Y181073D01*
X48155Y180967D01*
X48232Y180776D01*
X48306Y180498D01*
X48366Y180136D01*
X48405Y179695D01*
X48418Y179160D01*
X48418Y179160D01*
X48416Y178895D01*
X48398Y178456D01*
X48365Y178134D01*
X48350Y178047D01*
X48338Y177997D01*
X48328Y177977D01*
X48328Y177965D01*
X48316Y177931D01*
X48317Y177916D01*
X48034Y177633D01*
X47501Y176346D01*
Y174954D01*
X48034Y173667D01*
X49018Y172683D01*
X50305Y172150D01*
X51697D01*
X52983Y172683D01*
X53968Y173667D01*
X54501Y174954D01*
Y176346D01*
X53968Y177633D01*
X53685Y177916D01*
X53685Y177931D01*
X53674Y177965D01*
X53673Y177977D01*
X53663Y177997D01*
X53651Y178047D01*
X53639Y178116D01*
X53585Y178910D01*
X53583Y179160D01*
X53583Y179160D01*
X53597Y179695D01*
X53635Y180136D01*
X53695Y180498D01*
X53769Y180776D01*
X53847Y180967D01*
X53911Y181073D01*
X53946Y181112D01*
X53952Y181116D01*
X53958Y181118D01*
X54115Y181135D01*
X54143Y181150D01*
X59001D01*
Y184309D01*
X59268Y184390D01*
X63003Y186387D01*
X63501Y186795D01*
X63998Y186387D01*
X67733Y184390D01*
X68001Y184309D01*
Y181150D01*
X72858D01*
X72886Y181135D01*
X73043Y181118D01*
X73049Y181116D01*
X73055Y181112D01*
X73091Y181073D01*
X73155Y180967D01*
X73232Y180776D01*
X73306Y180498D01*
X73366Y180136D01*
X73405Y179695D01*
X73418Y179160D01*
X73418Y179160D01*
X73416Y178895D01*
X73398Y178456D01*
X73365Y178134D01*
X73350Y178047D01*
X73338Y177997D01*
X73328Y177977D01*
X73328Y177965D01*
X73316Y177931D01*
X73317Y177916D01*
X73034Y177633D01*
X72501Y176346D01*
Y174954D01*
X73034Y173667D01*
X74018Y172683D01*
X75305Y172150D01*
X76697D01*
X77983Y172683D01*
X78968Y173667D01*
X79501Y174954D01*
Y176346D01*
X78968Y177633D01*
X78685Y177916D01*
X78685Y177931D01*
X78674Y177965D01*
X78673Y177977D01*
X78663Y177997D01*
X78651Y178047D01*
X78639Y178116D01*
X78585Y178910D01*
X78583Y179160D01*
X78583Y179160D01*
X78597Y179695D01*
X78635Y180136D01*
X78695Y180498D01*
X78769Y180776D01*
X78847Y180967D01*
X78911Y181073D01*
X78946Y181112D01*
X78952Y181116D01*
X78958Y181118D01*
X79115Y181135D01*
X79143Y181150D01*
X84001D01*
Y184309D01*
X84268Y184390D01*
X88003Y186387D01*
X88501Y186795D01*
X88998Y186387D01*
X92733Y184390D01*
X93001Y184309D01*
Y181150D01*
X97858D01*
X97886Y181135D01*
X98043Y181118D01*
X98049Y181116D01*
X98055Y181112D01*
X98091Y181073D01*
X98155Y180967D01*
X98232Y180776D01*
X98306Y180498D01*
X98366Y180136D01*
X98405Y179695D01*
X98419Y179160D01*
X98418Y179160D01*
X98416Y178895D01*
X98398Y178456D01*
X98365Y178134D01*
X98350Y178047D01*
X98338Y177997D01*
X98328Y177977D01*
X98328Y177965D01*
X98316Y177931D01*
X98317Y177916D01*
X98034Y177633D01*
X97501Y176346D01*
Y174954D01*
X98034Y173667D01*
X99018Y172683D01*
X100305Y172150D01*
X101697D01*
X102983Y172683D01*
X103968Y173667D01*
X104501Y174954D01*
Y176346D01*
X103968Y177633D01*
X103685Y177916D01*
X103686Y177931D01*
X103674Y177965D01*
X103673Y177977D01*
X103663Y177997D01*
X103651Y178047D01*
X103639Y178116D01*
X103585Y178910D01*
X103583Y179160D01*
X103583Y179160D01*
X103597Y179695D01*
X103635Y180136D01*
X103695Y180498D01*
X103769Y180776D01*
X103847Y180967D01*
X103911Y181073D01*
X103946Y181112D01*
X103952Y181116D01*
X103958Y181118D01*
X104115Y181135D01*
X104143Y181150D01*
X109001D01*
Y184309D01*
X109268Y184390D01*
X113003Y186387D01*
X113501Y186795D01*
X113998Y186387D01*
X117733Y184390D01*
X118001Y184309D01*
Y181150D01*
X122858D01*
X122886Y181135D01*
X123043Y181118D01*
X123049Y181116D01*
X123055Y181112D01*
X123091Y181073D01*
X123155Y180967D01*
X123232Y180776D01*
X123306Y180498D01*
X123366Y180136D01*
X123405Y179695D01*
X123419Y179160D01*
X123418Y179160D01*
X123416Y178895D01*
X123398Y178456D01*
X123365Y178134D01*
X123350Y178047D01*
X123338Y177997D01*
X123328Y177977D01*
X123328Y177965D01*
X123316Y177931D01*
X123317Y177916D01*
X123034Y177633D01*
X122501Y176346D01*
Y174954D01*
X123034Y173667D01*
X124018Y172683D01*
X125305Y172150D01*
X126697D01*
X127983Y172683D01*
X128968Y173667D01*
X129501Y174954D01*
Y176346D01*
X128968Y177633D01*
X128685Y177916D01*
X128686Y177931D01*
X128674Y177965D01*
X128673Y177977D01*
X128663Y177997D01*
X128651Y178047D01*
X128639Y178116D01*
X128585Y178910D01*
X128583Y179160D01*
X128583Y179160D01*
X128597Y179695D01*
X128635Y180136D01*
X128695Y180498D01*
X128769Y180776D01*
X128847Y180967D01*
X128911Y181073D01*
X128946Y181112D01*
X128952Y181116D01*
X128958Y181118D01*
X129115Y181135D01*
X129143Y181150D01*
X134001D01*
Y184309D01*
X134268Y184390D01*
X138003Y186387D01*
X141277Y189074D01*
X143964Y192347D01*
X145960Y196082D01*
X147190Y200135D01*
X147605Y204350D01*
Y232250D01*
X150000D01*
Y240000D01*
Y247750D01*
X146117D01*
X145960Y248267D01*
X143964Y252003D01*
X141277Y255276D01*
X138003Y257963D01*
X134268Y259960D01*
X130216Y261189D01*
X126001Y261604D01*
D02*
G37*
G36*
X158750Y247750D02*
X152000D01*
Y241000D01*
X158750D01*
Y247750D01*
D02*
G37*
G36*
X-75000D02*
X-75020D01*
X-76991Y247222D01*
X-78759Y246201D01*
X-80202Y244759D01*
X-81222Y242991D01*
X-81750Y241020D01*
Y241000D01*
X-75000D01*
Y247750D01*
D02*
G37*
G36*
X158750Y239000D02*
X152000D01*
Y232250D01*
X158750D01*
Y239000D01*
D02*
G37*
G36*
X-75000D02*
X-81750D01*
Y238980D01*
X-81222Y237009D01*
X-80202Y235241D01*
X-78759Y233799D01*
X-76991Y232778D01*
X-75020Y232250D01*
X-75000D01*
Y239000D01*
D02*
G37*
G36*
X149950Y126000D02*
X146450D01*
Y121000D01*
X149950D01*
Y126000D01*
D02*
G37*
G36*
X144450D02*
X140950D01*
Y121000D01*
X144450D01*
Y126000D01*
D02*
G37*
G36*
X124550D02*
X121050D01*
Y121000D01*
X124550D01*
Y126000D01*
D02*
G37*
G36*
X119050D02*
X115550D01*
Y121000D01*
X119050D01*
Y126000D01*
D02*
G37*
G36*
X99150D02*
X95650D01*
Y121000D01*
X99150D01*
Y126000D01*
D02*
G37*
G36*
X93650D02*
X90150D01*
Y121000D01*
X93650D01*
Y126000D01*
D02*
G37*
G36*
X73750D02*
X70250D01*
Y121000D01*
X73750D01*
Y126000D01*
D02*
G37*
G36*
X68250D02*
X64750D01*
Y121000D01*
X68250D01*
Y126000D01*
D02*
G37*
G36*
X24950D02*
X21450D01*
Y121000D01*
X24950D01*
Y126000D01*
D02*
G37*
G36*
X19450D02*
X15950D01*
Y121000D01*
X19450D01*
Y126000D01*
D02*
G37*
G36*
X-450D02*
X-3950D01*
Y121000D01*
X-450D01*
Y126000D01*
D02*
G37*
G36*
X-5950D02*
X-9450D01*
Y121000D01*
X-5950D01*
Y126000D01*
D02*
G37*
G36*
X-25850D02*
X-29350D01*
Y121000D01*
X-25850D01*
Y126000D01*
D02*
G37*
G36*
X-31350D02*
X-34850D01*
Y121000D01*
X-31350D01*
Y126000D01*
D02*
G37*
G36*
X-51250D02*
X-54750D01*
Y121000D01*
X-51250D01*
Y126000D01*
D02*
G37*
G36*
X-56750D02*
X-60250D01*
Y121000D01*
X-56750D01*
Y126000D01*
D02*
G37*
G36*
X149950Y119000D02*
X146450D01*
Y114000D01*
X149950D01*
Y119000D01*
D02*
G37*
G36*
X144450D02*
X140950D01*
Y114000D01*
X144450D01*
Y119000D01*
D02*
G37*
G36*
X133446Y133500D02*
X132054D01*
X130767Y132967D01*
X129783Y131983D01*
X129250Y130696D01*
Y129304D01*
X129783Y128017D01*
X130066Y127734D01*
X130065Y127719D01*
X130077Y127685D01*
X130078Y127673D01*
X130087Y127653D01*
X130099Y127603D01*
X130111Y127534D01*
X130133Y127216D01*
X130115Y127014D01*
X130056Y126652D01*
X129981Y126374D01*
X129904Y126183D01*
X129840Y126077D01*
X129804Y126038D01*
X129798Y126034D01*
X129793Y126032D01*
X129636Y126015D01*
X129607Y126000D01*
X128250D01*
Y114000D01*
X137250D01*
Y126000D01*
X135893D01*
X135864Y126015D01*
X135707Y126032D01*
X135702Y126034D01*
X135695Y126038D01*
X135660Y126077D01*
X135596Y126183D01*
X135519Y126374D01*
X135444Y126652D01*
X135385Y127014D01*
X135361Y127280D01*
X135386Y127516D01*
X135400Y127603D01*
X135413Y127653D01*
X135422Y127673D01*
X135423Y127685D01*
X135435Y127719D01*
X135434Y127734D01*
X135717Y128017D01*
X136250Y129304D01*
Y130696D01*
X135717Y131983D01*
X134733Y132967D01*
X133446Y133500D01*
D02*
G37*
G36*
X124550Y119000D02*
X121050D01*
Y114000D01*
X124550D01*
Y119000D01*
D02*
G37*
G36*
X119050D02*
X115550D01*
Y114000D01*
X119050D01*
Y119000D01*
D02*
G37*
G36*
X108046Y133500D02*
X106654D01*
X105367Y132967D01*
X104383Y131983D01*
X103850Y130696D01*
Y129304D01*
X104383Y128017D01*
X104666Y127734D01*
X104665Y127719D01*
X104677Y127685D01*
X104678Y127673D01*
X104688Y127653D01*
X104699Y127603D01*
X104711Y127534D01*
X104733Y127216D01*
X104715Y127014D01*
X104656Y126652D01*
X104581Y126374D01*
X104504Y126183D01*
X104440Y126077D01*
X104404Y126038D01*
X104398Y126034D01*
X104393Y126032D01*
X104236Y126015D01*
X104207Y126000D01*
X102850D01*
Y114000D01*
X111850D01*
Y126000D01*
X110493D01*
X110464Y126015D01*
X110307Y126032D01*
X110302Y126034D01*
X110295Y126038D01*
X110260Y126077D01*
X110196Y126183D01*
X110119Y126374D01*
X110044Y126652D01*
X109985Y127014D01*
X109961Y127280D01*
X109986Y127516D01*
X110000Y127603D01*
X110013Y127653D01*
X110022Y127673D01*
X110023Y127685D01*
X110035Y127719D01*
X110034Y127734D01*
X110317Y128017D01*
X110850Y129304D01*
Y130696D01*
X110317Y131983D01*
X109333Y132967D01*
X108046Y133500D01*
D02*
G37*
G36*
X99150Y119000D02*
X95650D01*
Y114000D01*
X99150D01*
Y119000D01*
D02*
G37*
G36*
X93650D02*
X90150D01*
Y114000D01*
X93650D01*
Y119000D01*
D02*
G37*
G36*
X82646Y133500D02*
X81254D01*
X79967Y132967D01*
X78983Y131983D01*
X78450Y130696D01*
Y129304D01*
X78983Y128017D01*
X79266Y127734D01*
X79265Y127719D01*
X79277Y127685D01*
X79278Y127673D01*
X79288Y127653D01*
X79300Y127603D01*
X79311Y127534D01*
X79333Y127216D01*
X79315Y127014D01*
X79256Y126652D01*
X79181Y126374D01*
X79104Y126183D01*
X79040Y126077D01*
X79005Y126038D01*
X78998Y126034D01*
X78993Y126032D01*
X78836Y126015D01*
X78807Y126000D01*
X77450D01*
Y114000D01*
X86450D01*
Y126000D01*
X85093D01*
X85064Y126015D01*
X84907Y126032D01*
X84902Y126034D01*
X84895Y126038D01*
X84860Y126077D01*
X84796Y126183D01*
X84719Y126374D01*
X84644Y126652D01*
X84585Y127014D01*
X84561Y127280D01*
X84586Y127516D01*
X84600Y127603D01*
X84613Y127653D01*
X84622Y127673D01*
X84623Y127685D01*
X84635Y127719D01*
X84634Y127734D01*
X84917Y128017D01*
X85450Y129304D01*
Y130696D01*
X84917Y131983D01*
X83933Y132967D01*
X82646Y133500D01*
D02*
G37*
G36*
X73750Y119000D02*
X70250D01*
Y114000D01*
X73750D01*
Y119000D01*
D02*
G37*
G36*
X68250D02*
X64750D01*
Y114000D01*
X68250D01*
Y119000D01*
D02*
G37*
G36*
X57246Y133500D02*
X55854D01*
X54567Y132967D01*
X53583Y131983D01*
X53050Y130696D01*
Y129304D01*
X53583Y128017D01*
X53866Y127734D01*
X53865Y127719D01*
X53877Y127685D01*
X53878Y127673D01*
X53888Y127653D01*
X53899Y127603D01*
X53911Y127534D01*
X53933Y127216D01*
X53915Y127014D01*
X53856Y126652D01*
X53781Y126374D01*
X53704Y126183D01*
X53640Y126077D01*
X53604Y126038D01*
X53598Y126034D01*
X53593Y126032D01*
X53436Y126015D01*
X53407Y126000D01*
X52050D01*
Y114000D01*
X61050D01*
Y126000D01*
X59693D01*
X59664Y126015D01*
X59507Y126032D01*
X59502Y126034D01*
X59496Y126038D01*
X59460Y126077D01*
X59396Y126183D01*
X59318Y126374D01*
X59244Y126652D01*
X59185Y127014D01*
X59161Y127280D01*
X59186Y127516D01*
X59201Y127603D01*
X59212Y127653D01*
X59222Y127673D01*
X59223Y127685D01*
X59235Y127719D01*
X59234Y127734D01*
X59517Y128017D01*
X60050Y129304D01*
Y130696D01*
X59517Y131983D01*
X58533Y132967D01*
X57246Y133500D01*
D02*
G37*
G36*
X24950Y119000D02*
X21450D01*
Y114000D01*
X24950D01*
Y119000D01*
D02*
G37*
G36*
X19450D02*
X15950D01*
Y114000D01*
X19450D01*
Y119000D01*
D02*
G37*
G36*
X8446Y133500D02*
X7054D01*
X5767Y132967D01*
X4783Y131983D01*
X4250Y130696D01*
Y129304D01*
X4783Y128017D01*
X5066Y127734D01*
X5065Y127719D01*
X5077Y127685D01*
X5078Y127673D01*
X5088Y127653D01*
X5099Y127603D01*
X5111Y127534D01*
X5133Y127216D01*
X5115Y127014D01*
X5056Y126652D01*
X4981Y126374D01*
X4904Y126183D01*
X4840Y126077D01*
X4805Y126038D01*
X4798Y126034D01*
X4793Y126032D01*
X4636Y126015D01*
X4607Y126000D01*
X3250D01*
Y114000D01*
X12250D01*
Y126000D01*
X10893D01*
X10864Y126015D01*
X10707Y126032D01*
X10702Y126034D01*
X10696Y126038D01*
X10660Y126077D01*
X10596Y126183D01*
X10518Y126374D01*
X10444Y126652D01*
X10385Y127014D01*
X10361Y127280D01*
X10386Y127516D01*
X10401Y127603D01*
X10412Y127653D01*
X10422Y127673D01*
X10423Y127685D01*
X10435Y127719D01*
X10434Y127734D01*
X10717Y128017D01*
X11250Y129304D01*
Y130696D01*
X10717Y131983D01*
X9733Y132967D01*
X8446Y133500D01*
D02*
G37*
G36*
X-450Y119000D02*
X-3950D01*
Y114000D01*
X-450D01*
Y119000D01*
D02*
G37*
G36*
X-5950D02*
X-9450D01*
Y114000D01*
X-5950D01*
Y119000D01*
D02*
G37*
G36*
X-16954Y133500D02*
X-18346D01*
X-19633Y132967D01*
X-20617Y131983D01*
X-21150Y130696D01*
Y129304D01*
X-20617Y128017D01*
X-20334Y127734D01*
X-20335Y127719D01*
X-20323Y127685D01*
X-20322Y127673D01*
X-20312Y127653D01*
X-20301Y127603D01*
X-20289Y127534D01*
X-20267Y127216D01*
X-20285Y127014D01*
X-20344Y126652D01*
X-20419Y126374D01*
X-20496Y126183D01*
X-20560Y126077D01*
X-20596Y126038D01*
X-20602Y126034D01*
X-20607Y126032D01*
X-20764Y126015D01*
X-20793Y126000D01*
X-22150D01*
Y114000D01*
X-13150D01*
Y126000D01*
X-14507D01*
X-14536Y126015D01*
X-14693Y126032D01*
X-14698Y126034D01*
X-14705Y126038D01*
X-14740Y126077D01*
X-14804Y126183D01*
X-14882Y126374D01*
X-14956Y126652D01*
X-15015Y127014D01*
X-15039Y127280D01*
X-15014Y127516D01*
X-15000Y127603D01*
X-14987Y127653D01*
X-14978Y127673D01*
X-14977Y127685D01*
X-14965Y127719D01*
X-14966Y127734D01*
X-14683Y128017D01*
X-14150Y129304D01*
Y130696D01*
X-14683Y131983D01*
X-15667Y132967D01*
X-16954Y133500D01*
D02*
G37*
G36*
X-25850Y119000D02*
X-29350D01*
Y114000D01*
X-25850D01*
Y119000D01*
D02*
G37*
G36*
X-31350D02*
X-34850D01*
Y114000D01*
X-31350D01*
Y119000D01*
D02*
G37*
G36*
X-42354Y133500D02*
X-43746D01*
X-45033Y132967D01*
X-46017Y131983D01*
X-46550Y130696D01*
Y129304D01*
X-46017Y128017D01*
X-45734Y127734D01*
X-45735Y127719D01*
X-45723Y127685D01*
X-45722Y127673D01*
X-45712Y127653D01*
X-45700Y127603D01*
X-45689Y127534D01*
X-45667Y127216D01*
X-45685Y127014D01*
X-45744Y126652D01*
X-45819Y126374D01*
X-45896Y126183D01*
X-45960Y126077D01*
X-45995Y126038D01*
X-46002Y126034D01*
X-46007Y126032D01*
X-46164Y126015D01*
X-46193Y126000D01*
X-47550D01*
Y114000D01*
X-38550D01*
Y126000D01*
X-39907D01*
X-39936Y126015D01*
X-40093Y126032D01*
X-40098Y126034D01*
X-40104Y126038D01*
X-40140Y126077D01*
X-40204Y126183D01*
X-40282Y126374D01*
X-40356Y126652D01*
X-40415Y127014D01*
X-40439Y127280D01*
X-40415Y127516D01*
X-40399Y127603D01*
X-40388Y127653D01*
X-40378Y127673D01*
X-40377Y127685D01*
X-40365Y127719D01*
X-40366Y127734D01*
X-40083Y128017D01*
X-39550Y129304D01*
Y130696D01*
X-40083Y131983D01*
X-41067Y132967D01*
X-42354Y133500D01*
D02*
G37*
G36*
X-51250Y119000D02*
X-54750D01*
Y114000D01*
X-51250D01*
Y119000D01*
D02*
G37*
G36*
X-56750D02*
X-60250D01*
Y114000D01*
X-56750D01*
Y119000D01*
D02*
G37*
G36*
X-67754Y133500D02*
X-69146D01*
X-70433Y132967D01*
X-71417Y131983D01*
X-71950Y130696D01*
Y129304D01*
X-71417Y128017D01*
X-71134Y127734D01*
X-71135Y127719D01*
X-71123Y127685D01*
X-71122Y127673D01*
X-71112Y127653D01*
X-71101Y127603D01*
X-71089Y127534D01*
X-71067Y127216D01*
X-71085Y127014D01*
X-71144Y126652D01*
X-71219Y126374D01*
X-71296Y126183D01*
X-71360Y126077D01*
X-71396Y126038D01*
X-71402Y126034D01*
X-71407Y126032D01*
X-71564Y126015D01*
X-71593Y126000D01*
X-72950D01*
Y114000D01*
X-63950D01*
Y126000D01*
X-65307D01*
X-65336Y126015D01*
X-65493Y126032D01*
X-65498Y126034D01*
X-65504Y126038D01*
X-65540Y126077D01*
X-65604Y126183D01*
X-65682Y126374D01*
X-65756Y126652D01*
X-65815Y127014D01*
X-65839Y127280D01*
X-65814Y127516D01*
X-65799Y127603D01*
X-65788Y127653D01*
X-65778Y127673D01*
X-65777Y127685D01*
X-65765Y127719D01*
X-65766Y127734D01*
X-65483Y128017D01*
X-64950Y129304D01*
Y130696D01*
X-65483Y131983D01*
X-66467Y132967D01*
X-67754Y133500D01*
D02*
G37*
%LPD*%
G36*
X127516Y210244D02*
X127561Y209729D01*
X127636Y209274D01*
X127741Y208880D01*
X127876Y208547D01*
X128041Y208274D01*
X128236Y208062D01*
X128461Y207910D01*
X128716Y207819D01*
X129001Y207789D01*
X123001D01*
X123286Y207819D01*
X123541Y207910D01*
X123766Y208062D01*
X123961Y208274D01*
X124126Y208547D01*
X124261Y208880D01*
X124366Y209274D01*
X124441Y209729D01*
X124486Y210244D01*
X124501Y210819D01*
X127501D01*
X127516Y210244D01*
D02*
G37*
G36*
X102516D02*
X102561Y209729D01*
X102636Y209274D01*
X102741Y208880D01*
X102876Y208547D01*
X103041Y208274D01*
X103236Y208062D01*
X103461Y207910D01*
X103716Y207819D01*
X104001Y207789D01*
X98001D01*
X98286Y207819D01*
X98541Y207910D01*
X98766Y208062D01*
X98961Y208274D01*
X99126Y208547D01*
X99261Y208880D01*
X99366Y209274D01*
X99441Y209729D01*
X99486Y210244D01*
X99501Y210819D01*
X102501D01*
X102516Y210244D01*
D02*
G37*
G36*
X77516D02*
X77561Y209729D01*
X77636Y209274D01*
X77741Y208880D01*
X77876Y208547D01*
X78041Y208274D01*
X78236Y208062D01*
X78461Y207910D01*
X78716Y207819D01*
X79001Y207789D01*
X73001D01*
X73286Y207819D01*
X73541Y207910D01*
X73766Y208062D01*
X73961Y208274D01*
X74126Y208547D01*
X74261Y208880D01*
X74366Y209274D01*
X74441Y209729D01*
X74486Y210244D01*
X74501Y210819D01*
X77501D01*
X77516Y210244D01*
D02*
G37*
G36*
X52516D02*
X52561Y209729D01*
X52636Y209274D01*
X52741Y208880D01*
X52876Y208547D01*
X53041Y208274D01*
X53236Y208062D01*
X53461Y207910D01*
X53716Y207819D01*
X54001Y207789D01*
X48001D01*
X48286Y207819D01*
X48541Y207910D01*
X48766Y208062D01*
X48961Y208274D01*
X49126Y208547D01*
X49261Y208880D01*
X49366Y209274D01*
X49441Y209729D01*
X49486Y210244D01*
X49501Y210819D01*
X52501D01*
X52516Y210244D01*
D02*
G37*
G36*
X27516D02*
X27561Y209729D01*
X27636Y209274D01*
X27741Y208880D01*
X27876Y208547D01*
X28041Y208274D01*
X28236Y208062D01*
X28461Y207910D01*
X28716Y207819D01*
X29001Y207789D01*
X23001D01*
X23286Y207819D01*
X23541Y207910D01*
X23766Y208062D01*
X23961Y208274D01*
X24126Y208547D01*
X24261Y208880D01*
X24366Y209274D01*
X24441Y209729D01*
X24486Y210244D01*
X24501Y210819D01*
X27501D01*
X27516Y210244D01*
D02*
G37*
G36*
X2516D02*
X2561Y209729D01*
X2636Y209274D01*
X2741Y208880D01*
X2876Y208547D01*
X3041Y208274D01*
X3236Y208062D01*
X3461Y207910D01*
X3716Y207819D01*
X4001Y207789D01*
X-1999D01*
X-1714Y207819D01*
X-1459Y207910D01*
X-1234Y208062D01*
X-1039Y208274D01*
X-874Y208547D01*
X-739Y208880D01*
X-634Y209274D01*
X-559Y209729D01*
X-514Y210244D01*
X-499Y210819D01*
X2501D01*
X2516Y210244D01*
D02*
G37*
G36*
X-22484D02*
X-22439Y209729D01*
X-22364Y209274D01*
X-22259Y208880D01*
X-22124Y208547D01*
X-21959Y208274D01*
X-21764Y208062D01*
X-21539Y207910D01*
X-21284Y207819D01*
X-20999Y207789D01*
X-26999D01*
X-26714Y207819D01*
X-26459Y207910D01*
X-26234Y208062D01*
X-26039Y208274D01*
X-25874Y208547D01*
X-25739Y208880D01*
X-25634Y209274D01*
X-25559Y209729D01*
X-25514Y210244D01*
X-25499Y210819D01*
X-22499D01*
X-22484Y210244D01*
D02*
G37*
G36*
X-47484D02*
X-47439Y209729D01*
X-47364Y209274D01*
X-47259Y208880D01*
X-47124Y208547D01*
X-46959Y208274D01*
X-46764Y208062D01*
X-46539Y207910D01*
X-46284Y207819D01*
X-45999Y207789D01*
X-51999D01*
X-51714Y207819D01*
X-51459Y207910D01*
X-51234Y208062D01*
X-51039Y208274D01*
X-50874Y208547D01*
X-50739Y208880D01*
X-50634Y209274D01*
X-50559Y209729D01*
X-50514Y210244D01*
X-50499Y210819D01*
X-47499D01*
X-47484Y210244D01*
D02*
G37*
G36*
X128716Y182181D02*
X128461Y182090D01*
X128236Y181938D01*
X128041Y181726D01*
X127876Y181453D01*
X127741Y181120D01*
X127636Y180726D01*
X127561Y180271D01*
X127516Y179756D01*
X127501Y179181D01*
X124501D01*
X124486Y179756D01*
X124441Y180271D01*
X124366Y180726D01*
X124261Y181120D01*
X124126Y181453D01*
X123961Y181726D01*
X123766Y181938D01*
X123541Y182090D01*
X123286Y182181D01*
X123001Y182211D01*
X129001D01*
X128716Y182181D01*
D02*
G37*
G36*
X103716D02*
X103461Y182090D01*
X103236Y181938D01*
X103041Y181726D01*
X102876Y181453D01*
X102741Y181120D01*
X102636Y180726D01*
X102561Y180271D01*
X102516Y179756D01*
X102501Y179181D01*
X99501D01*
X99486Y179756D01*
X99441Y180271D01*
X99366Y180726D01*
X99261Y181120D01*
X99126Y181453D01*
X98961Y181726D01*
X98766Y181938D01*
X98541Y182090D01*
X98286Y182181D01*
X98001Y182211D01*
X104001D01*
X103716Y182181D01*
D02*
G37*
G36*
X78716D02*
X78461Y182090D01*
X78236Y181938D01*
X78041Y181726D01*
X77876Y181453D01*
X77741Y181120D01*
X77636Y180726D01*
X77561Y180271D01*
X77516Y179756D01*
X77501Y179181D01*
X74501D01*
X74486Y179756D01*
X74441Y180271D01*
X74366Y180726D01*
X74261Y181120D01*
X74126Y181453D01*
X73961Y181726D01*
X73766Y181938D01*
X73541Y182090D01*
X73286Y182181D01*
X73001Y182211D01*
X79001D01*
X78716Y182181D01*
D02*
G37*
G36*
X53716D02*
X53461Y182090D01*
X53236Y181938D01*
X53041Y181726D01*
X52876Y181453D01*
X52741Y181120D01*
X52636Y180726D01*
X52561Y180271D01*
X52516Y179756D01*
X52501Y179181D01*
X49501D01*
X49486Y179756D01*
X49441Y180271D01*
X49366Y180726D01*
X49261Y181120D01*
X49126Y181453D01*
X48961Y181726D01*
X48766Y181938D01*
X48541Y182090D01*
X48286Y182181D01*
X48001Y182211D01*
X54001D01*
X53716Y182181D01*
D02*
G37*
G36*
X28716D02*
X28461Y182090D01*
X28236Y181938D01*
X28041Y181726D01*
X27876Y181453D01*
X27741Y181120D01*
X27636Y180726D01*
X27561Y180271D01*
X27516Y179756D01*
X27501Y179181D01*
X24501D01*
X24486Y179756D01*
X24441Y180271D01*
X24366Y180726D01*
X24261Y181120D01*
X24126Y181453D01*
X23961Y181726D01*
X23766Y181938D01*
X23541Y182090D01*
X23286Y182181D01*
X23001Y182211D01*
X29001D01*
X28716Y182181D01*
D02*
G37*
G36*
X3716D02*
X3461Y182090D01*
X3236Y181938D01*
X3041Y181726D01*
X2876Y181453D01*
X2741Y181120D01*
X2636Y180726D01*
X2561Y180271D01*
X2516Y179756D01*
X2501Y179181D01*
X-499D01*
X-514Y179756D01*
X-559Y180271D01*
X-634Y180726D01*
X-739Y181120D01*
X-874Y181453D01*
X-1039Y181726D01*
X-1234Y181938D01*
X-1459Y182090D01*
X-1714Y182181D01*
X-1999Y182211D01*
X4001D01*
X3716Y182181D01*
D02*
G37*
G36*
X-21284D02*
X-21539Y182090D01*
X-21764Y181938D01*
X-21959Y181726D01*
X-22124Y181453D01*
X-22259Y181120D01*
X-22364Y180726D01*
X-22439Y180271D01*
X-22484Y179756D01*
X-22499Y179181D01*
X-25499D01*
X-25514Y179756D01*
X-25559Y180271D01*
X-25634Y180726D01*
X-25739Y181120D01*
X-25874Y181453D01*
X-26039Y181726D01*
X-26234Y181938D01*
X-26459Y182090D01*
X-26714Y182181D01*
X-26999Y182211D01*
X-20999D01*
X-21284Y182181D01*
D02*
G37*
G36*
X-46284D02*
X-46539Y182090D01*
X-46764Y181938D01*
X-46959Y181726D01*
X-47124Y181453D01*
X-47259Y181120D01*
X-47364Y180726D01*
X-47439Y180271D01*
X-47484Y179756D01*
X-47499Y179181D01*
X-50499D01*
X-50514Y179756D01*
X-50559Y180271D01*
X-50634Y180726D01*
X-50739Y181120D01*
X-50874Y181453D01*
X-51039Y181726D01*
X-51234Y181938D01*
X-51459Y182090D01*
X-51714Y182181D01*
X-51999Y182211D01*
X-45999D01*
X-46284Y182181D01*
D02*
G37*
G36*
X127503Y178868D02*
X127563Y177987D01*
X127591Y177827D01*
X127623Y177693D01*
X127661Y177582D01*
X127703Y177497D01*
X127751Y177435D01*
X124251D01*
X124298Y177497D01*
X124341Y177582D01*
X124378Y177693D01*
X124411Y177827D01*
X124438Y177987D01*
X124478Y178378D01*
X124498Y178868D01*
X124501Y179150D01*
X127501D01*
X127503Y178868D01*
D02*
G37*
G36*
X102503D02*
X102563Y177987D01*
X102591Y177827D01*
X102623Y177693D01*
X102661Y177582D01*
X102703Y177497D01*
X102751Y177435D01*
X99251D01*
X99298Y177497D01*
X99341Y177582D01*
X99378Y177693D01*
X99411Y177827D01*
X99438Y177987D01*
X99478Y178378D01*
X99498Y178868D01*
X99501Y179150D01*
X102501D01*
X102503Y178868D01*
D02*
G37*
G36*
X77503D02*
X77563Y177987D01*
X77591Y177827D01*
X77623Y177693D01*
X77661Y177582D01*
X77703Y177497D01*
X77751Y177435D01*
X74251D01*
X74298Y177497D01*
X74341Y177582D01*
X74378Y177693D01*
X74411Y177827D01*
X74438Y177987D01*
X74478Y178378D01*
X74498Y178868D01*
X74501Y179150D01*
X77501D01*
X77503Y178868D01*
D02*
G37*
G36*
X52503D02*
X52563Y177987D01*
X52591Y177827D01*
X52623Y177693D01*
X52661Y177582D01*
X52703Y177497D01*
X52751Y177435D01*
X49251D01*
X49298Y177497D01*
X49341Y177582D01*
X49378Y177693D01*
X49411Y177827D01*
X49438Y177987D01*
X49478Y178378D01*
X49498Y178868D01*
X49501Y179150D01*
X52501D01*
X52503Y178868D01*
D02*
G37*
G36*
X27503D02*
X27563Y177987D01*
X27591Y177827D01*
X27623Y177693D01*
X27661Y177582D01*
X27703Y177497D01*
X27751Y177435D01*
X24251D01*
X24298Y177497D01*
X24341Y177582D01*
X24378Y177693D01*
X24411Y177827D01*
X24438Y177987D01*
X24478Y178378D01*
X24498Y178868D01*
X24501Y179150D01*
X27501D01*
X27503Y178868D01*
D02*
G37*
G36*
X2503D02*
X2563Y177987D01*
X2591Y177827D01*
X2623Y177693D01*
X2661Y177582D01*
X2703Y177497D01*
X2751Y177435D01*
X-749D01*
X-702Y177497D01*
X-659Y177582D01*
X-622Y177693D01*
X-589Y177827D01*
X-562Y177987D01*
X-522Y178378D01*
X-502Y178868D01*
X-499Y179150D01*
X2501D01*
X2503Y178868D01*
D02*
G37*
G36*
X-22497D02*
X-22437Y177987D01*
X-22409Y177827D01*
X-22377Y177693D01*
X-22339Y177582D01*
X-22297Y177497D01*
X-22249Y177435D01*
X-25749D01*
X-25702Y177497D01*
X-25659Y177582D01*
X-25622Y177693D01*
X-25589Y177827D01*
X-25562Y177987D01*
X-25522Y178378D01*
X-25502Y178868D01*
X-25499Y179150D01*
X-22499D01*
X-22497Y178868D01*
D02*
G37*
G36*
X-47497D02*
X-47437Y177987D01*
X-47409Y177827D01*
X-47377Y177693D01*
X-47339Y177582D01*
X-47297Y177497D01*
X-47249Y177435D01*
X-50749D01*
X-50702Y177497D01*
X-50659Y177582D01*
X-50622Y177693D01*
X-50589Y177827D01*
X-50562Y177987D01*
X-50522Y178378D01*
X-50502Y178868D01*
X-50499Y179150D01*
X-47499D01*
X-47497Y178868D01*
D02*
G37*
G36*
X134452Y128153D02*
X134410Y128068D01*
X134373Y127957D01*
X134340Y127823D01*
X134312Y127663D01*
X134274Y127288D01*
X134310Y126878D01*
X134385Y126424D01*
X134490Y126030D01*
X134625Y125697D01*
X134790Y125424D01*
X134985Y125212D01*
X135210Y125060D01*
X135465Y124969D01*
X135750Y124939D01*
X129750D01*
X130035Y124969D01*
X130290Y125060D01*
X130515Y125212D01*
X130710Y125424D01*
X130875Y125697D01*
X131010Y126030D01*
X131115Y126424D01*
X131190Y126878D01*
X131219Y127206D01*
X131187Y127663D01*
X131160Y127823D01*
X131128Y127957D01*
X131090Y128068D01*
X131047Y128153D01*
X131000Y128215D01*
X134500D01*
X134452Y128153D01*
D02*
G37*
G36*
X109052D02*
X109010Y128068D01*
X108973Y127957D01*
X108940Y127823D01*
X108912Y127663D01*
X108874Y127288D01*
X108910Y126878D01*
X108985Y126424D01*
X109090Y126030D01*
X109225Y125697D01*
X109390Y125424D01*
X109585Y125212D01*
X109810Y125060D01*
X110065Y124969D01*
X110350Y124939D01*
X104350D01*
X104635Y124969D01*
X104890Y125060D01*
X105115Y125212D01*
X105310Y125424D01*
X105475Y125697D01*
X105610Y126030D01*
X105715Y126424D01*
X105790Y126878D01*
X105819Y127206D01*
X105787Y127663D01*
X105760Y127823D01*
X105728Y127957D01*
X105690Y128068D01*
X105647Y128153D01*
X105600Y128215D01*
X109100D01*
X109052Y128153D01*
D02*
G37*
G36*
X83652D02*
X83610Y128068D01*
X83573Y127957D01*
X83540Y127823D01*
X83512Y127663D01*
X83474Y127288D01*
X83510Y126878D01*
X83585Y126424D01*
X83690Y126030D01*
X83825Y125697D01*
X83990Y125424D01*
X84185Y125212D01*
X84410Y125060D01*
X84665Y124969D01*
X84950Y124939D01*
X78950D01*
X79235Y124969D01*
X79490Y125060D01*
X79715Y125212D01*
X79910Y125424D01*
X80075Y125697D01*
X80210Y126030D01*
X80315Y126424D01*
X80390Y126878D01*
X80419Y127206D01*
X80387Y127663D01*
X80360Y127823D01*
X80328Y127957D01*
X80290Y128068D01*
X80247Y128153D01*
X80200Y128215D01*
X83700D01*
X83652Y128153D01*
D02*
G37*
G36*
X58253D02*
X58210Y128068D01*
X58172Y127957D01*
X58140Y127823D01*
X58113Y127663D01*
X58074Y127288D01*
X58110Y126878D01*
X58185Y126424D01*
X58290Y126030D01*
X58425Y125697D01*
X58590Y125424D01*
X58785Y125212D01*
X59010Y125060D01*
X59265Y124969D01*
X59550Y124939D01*
X53550D01*
X53835Y124969D01*
X54090Y125060D01*
X54315Y125212D01*
X54510Y125424D01*
X54675Y125697D01*
X54810Y126030D01*
X54915Y126424D01*
X54990Y126878D01*
X55019Y127206D01*
X54988Y127663D01*
X54960Y127823D01*
X54928Y127957D01*
X54890Y128068D01*
X54847Y128153D01*
X54800Y128215D01*
X58300D01*
X58253Y128153D01*
D02*
G37*
G36*
X9452D02*
X9410Y128068D01*
X9373Y127957D01*
X9340Y127823D01*
X9312Y127663D01*
X9274Y127288D01*
X9310Y126878D01*
X9385Y126424D01*
X9490Y126030D01*
X9625Y125697D01*
X9790Y125424D01*
X9985Y125212D01*
X10210Y125060D01*
X10465Y124969D01*
X10750Y124939D01*
X4750D01*
X5035Y124969D01*
X5290Y125060D01*
X5515Y125212D01*
X5710Y125424D01*
X5875Y125697D01*
X6010Y126030D01*
X6115Y126424D01*
X6190Y126878D01*
X6219Y127206D01*
X6187Y127663D01*
X6160Y127823D01*
X6127Y127957D01*
X6090Y128068D01*
X6047Y128153D01*
X6000Y128215D01*
X9500D01*
X9452Y128153D01*
D02*
G37*
G36*
X-15948D02*
X-15990Y128068D01*
X-16027Y127957D01*
X-16060Y127823D01*
X-16087Y127663D01*
X-16126Y127288D01*
X-16090Y126878D01*
X-16015Y126424D01*
X-15910Y126030D01*
X-15775Y125697D01*
X-15610Y125424D01*
X-15415Y125212D01*
X-15190Y125060D01*
X-14935Y124969D01*
X-14650Y124939D01*
X-20650D01*
X-20365Y124969D01*
X-20110Y125060D01*
X-19885Y125212D01*
X-19690Y125424D01*
X-19525Y125697D01*
X-19390Y126030D01*
X-19285Y126424D01*
X-19210Y126878D01*
X-19181Y127206D01*
X-19212Y127663D01*
X-19240Y127823D01*
X-19273Y127957D01*
X-19310Y128068D01*
X-19353Y128153D01*
X-19400Y128215D01*
X-15900D01*
X-15948Y128153D01*
D02*
G37*
G36*
X-41347D02*
X-41390Y128068D01*
X-41427Y127957D01*
X-41460Y127823D01*
X-41487Y127663D01*
X-41526Y127288D01*
X-41490Y126878D01*
X-41415Y126424D01*
X-41310Y126030D01*
X-41175Y125697D01*
X-41010Y125424D01*
X-40815Y125212D01*
X-40590Y125060D01*
X-40335Y124969D01*
X-40050Y124939D01*
X-46050D01*
X-45765Y124969D01*
X-45510Y125060D01*
X-45285Y125212D01*
X-45090Y125424D01*
X-44925Y125697D01*
X-44790Y126030D01*
X-44685Y126424D01*
X-44610Y126878D01*
X-44581Y127206D01*
X-44612Y127663D01*
X-44640Y127823D01*
X-44672Y127957D01*
X-44710Y128068D01*
X-44752Y128153D01*
X-44800Y128215D01*
X-41300D01*
X-41347Y128153D01*
D02*
G37*
G36*
X-66747D02*
X-66790Y128068D01*
X-66828Y127957D01*
X-66860Y127823D01*
X-66887Y127663D01*
X-66926Y127288D01*
X-66890Y126878D01*
X-66815Y126424D01*
X-66710Y126030D01*
X-66575Y125697D01*
X-66410Y125424D01*
X-66215Y125212D01*
X-65990Y125060D01*
X-65735Y124969D01*
X-65450Y124939D01*
X-71450D01*
X-71165Y124969D01*
X-70910Y125060D01*
X-70685Y125212D01*
X-70490Y125424D01*
X-70325Y125697D01*
X-70190Y126030D01*
X-70085Y126424D01*
X-70010Y126878D01*
X-69981Y127206D01*
X-70012Y127663D01*
X-70040Y127823D01*
X-70072Y127957D01*
X-70110Y128068D01*
X-70153Y128153D01*
X-70200Y128215D01*
X-66700D01*
X-66747Y128153D01*
D02*
G37*
%LPC*%
G36*
X133446Y63500D02*
X132054D01*
X130767Y62967D01*
X129783Y61983D01*
X129250Y60696D01*
Y59304D01*
X129783Y58017D01*
X130066Y57734D01*
X130065Y57719D01*
X130077Y57685D01*
X130078Y57673D01*
X130087Y57653D01*
X130099Y57603D01*
X130111Y57534D01*
X130133Y57216D01*
X130115Y57014D01*
X130056Y56652D01*
X129981Y56374D01*
X129904Y56183D01*
X129840Y56077D01*
X129804Y56038D01*
X129798Y56034D01*
X129793Y56032D01*
X129636Y56015D01*
X129607Y56000D01*
X128250D01*
Y44000D01*
X137250D01*
Y56000D01*
X135893D01*
X135864Y56015D01*
X135707Y56032D01*
X135702Y56034D01*
X135695Y56038D01*
X135660Y56077D01*
X135596Y56183D01*
X135519Y56374D01*
X135444Y56652D01*
X135385Y57014D01*
X135361Y57280D01*
X135386Y57516D01*
X135400Y57603D01*
X135413Y57653D01*
X135422Y57673D01*
X135423Y57685D01*
X135435Y57719D01*
X135434Y57734D01*
X135717Y58017D01*
X136250Y59304D01*
Y60696D01*
X135717Y61983D01*
X134733Y62967D01*
X133446Y63500D01*
D02*
G37*
G36*
X108046D02*
X106654D01*
X105367Y62967D01*
X104383Y61983D01*
X103850Y60696D01*
Y59304D01*
X104383Y58017D01*
X104666Y57734D01*
X104665Y57719D01*
X104677Y57685D01*
X104678Y57673D01*
X104688Y57653D01*
X104699Y57603D01*
X104711Y57534D01*
X104733Y57216D01*
X104715Y57014D01*
X104656Y56652D01*
X104581Y56374D01*
X104504Y56183D01*
X104440Y56077D01*
X104404Y56038D01*
X104398Y56034D01*
X104393Y56032D01*
X104236Y56015D01*
X104207Y56000D01*
X102850D01*
Y44000D01*
X111850D01*
Y56000D01*
X110493D01*
X110464Y56015D01*
X110307Y56032D01*
X110302Y56034D01*
X110295Y56038D01*
X110260Y56077D01*
X110196Y56183D01*
X110119Y56374D01*
X110044Y56652D01*
X109985Y57014D01*
X109961Y57280D01*
X109986Y57516D01*
X110000Y57603D01*
X110013Y57653D01*
X110022Y57673D01*
X110023Y57685D01*
X110035Y57719D01*
X110034Y57734D01*
X110317Y58017D01*
X110850Y59304D01*
Y60696D01*
X110317Y61983D01*
X109333Y62967D01*
X108046Y63500D01*
D02*
G37*
G36*
X82646D02*
X81254D01*
X79967Y62967D01*
X78983Y61983D01*
X78450Y60696D01*
Y59304D01*
X78983Y58017D01*
X79266Y57734D01*
X79265Y57719D01*
X79277Y57685D01*
X79278Y57673D01*
X79288Y57653D01*
X79300Y57603D01*
X79311Y57534D01*
X79333Y57216D01*
X79315Y57014D01*
X79256Y56652D01*
X79181Y56374D01*
X79104Y56183D01*
X79040Y56077D01*
X79005Y56038D01*
X78998Y56034D01*
X78993Y56032D01*
X78836Y56015D01*
X78807Y56000D01*
X77450D01*
Y44000D01*
X86450D01*
Y56000D01*
X85093D01*
X85064Y56015D01*
X84907Y56032D01*
X84902Y56034D01*
X84895Y56038D01*
X84860Y56077D01*
X84796Y56183D01*
X84719Y56374D01*
X84644Y56652D01*
X84585Y57014D01*
X84561Y57280D01*
X84586Y57516D01*
X84600Y57603D01*
X84613Y57653D01*
X84622Y57673D01*
X84623Y57685D01*
X84635Y57719D01*
X84634Y57734D01*
X84917Y58017D01*
X85450Y59304D01*
Y60696D01*
X84917Y61983D01*
X83933Y62967D01*
X82646Y63500D01*
D02*
G37*
G36*
X57246D02*
X55854D01*
X54567Y62967D01*
X53583Y61983D01*
X53050Y60696D01*
Y59304D01*
X53583Y58017D01*
X53866Y57734D01*
X53865Y57719D01*
X53877Y57685D01*
X53878Y57673D01*
X53888Y57653D01*
X53899Y57603D01*
X53911Y57534D01*
X53933Y57216D01*
X53915Y57014D01*
X53856Y56652D01*
X53781Y56374D01*
X53704Y56183D01*
X53640Y56077D01*
X53604Y56038D01*
X53598Y56034D01*
X53593Y56032D01*
X53436Y56015D01*
X53407Y56000D01*
X52050D01*
Y44000D01*
X61050D01*
Y56000D01*
X59693D01*
X59664Y56015D01*
X59507Y56032D01*
X59502Y56034D01*
X59496Y56038D01*
X59460Y56077D01*
X59396Y56183D01*
X59318Y56374D01*
X59244Y56652D01*
X59185Y57014D01*
X59161Y57280D01*
X59186Y57516D01*
X59201Y57603D01*
X59212Y57653D01*
X59222Y57673D01*
X59223Y57685D01*
X59235Y57719D01*
X59234Y57734D01*
X59517Y58017D01*
X60050Y59304D01*
Y60696D01*
X59517Y61983D01*
X58533Y62967D01*
X57246Y63500D01*
D02*
G37*
G36*
X8446D02*
X7054D01*
X5767Y62967D01*
X4783Y61983D01*
X4250Y60696D01*
Y59304D01*
X4783Y58017D01*
X5066Y57734D01*
X5065Y57719D01*
X5077Y57685D01*
X5078Y57673D01*
X5088Y57653D01*
X5099Y57603D01*
X5111Y57534D01*
X5133Y57216D01*
X5115Y57014D01*
X5056Y56652D01*
X4981Y56374D01*
X4904Y56183D01*
X4840Y56077D01*
X4805Y56038D01*
X4798Y56034D01*
X4793Y56032D01*
X4636Y56015D01*
X4607Y56000D01*
X3250D01*
Y44000D01*
X12250D01*
Y56000D01*
X10893D01*
X10864Y56015D01*
X10707Y56032D01*
X10702Y56034D01*
X10696Y56038D01*
X10660Y56077D01*
X10596Y56183D01*
X10518Y56374D01*
X10444Y56652D01*
X10385Y57014D01*
X10361Y57280D01*
X10386Y57516D01*
X10401Y57603D01*
X10412Y57653D01*
X10422Y57673D01*
X10423Y57685D01*
X10435Y57719D01*
X10434Y57734D01*
X10717Y58017D01*
X11250Y59304D01*
Y60696D01*
X10717Y61983D01*
X9733Y62967D01*
X8446Y63500D01*
D02*
G37*
G36*
X-16954D02*
X-18346D01*
X-19633Y62967D01*
X-20617Y61983D01*
X-21150Y60696D01*
Y59304D01*
X-20617Y58017D01*
X-20334Y57734D01*
X-20335Y57719D01*
X-20323Y57685D01*
X-20322Y57673D01*
X-20312Y57653D01*
X-20301Y57603D01*
X-20289Y57534D01*
X-20267Y57216D01*
X-20285Y57014D01*
X-20344Y56652D01*
X-20419Y56374D01*
X-20496Y56183D01*
X-20560Y56077D01*
X-20596Y56038D01*
X-20602Y56034D01*
X-20607Y56032D01*
X-20764Y56015D01*
X-20793Y56000D01*
X-22150D01*
Y44000D01*
X-13150D01*
Y56000D01*
X-14507D01*
X-14536Y56015D01*
X-14693Y56032D01*
X-14698Y56034D01*
X-14705Y56038D01*
X-14740Y56077D01*
X-14804Y56183D01*
X-14882Y56374D01*
X-14956Y56652D01*
X-15015Y57014D01*
X-15039Y57280D01*
X-15014Y57516D01*
X-15000Y57603D01*
X-14987Y57653D01*
X-14978Y57673D01*
X-14977Y57685D01*
X-14965Y57719D01*
X-14966Y57734D01*
X-14683Y58017D01*
X-14150Y59304D01*
Y60696D01*
X-14683Y61983D01*
X-15667Y62967D01*
X-16954Y63500D01*
D02*
G37*
G36*
X-42354D02*
X-43746D01*
X-45033Y62967D01*
X-46017Y61983D01*
X-46550Y60696D01*
Y59304D01*
X-46017Y58017D01*
X-45734Y57734D01*
X-45735Y57719D01*
X-45723Y57685D01*
X-45722Y57673D01*
X-45712Y57653D01*
X-45700Y57603D01*
X-45689Y57534D01*
X-45667Y57216D01*
X-45685Y57014D01*
X-45744Y56652D01*
X-45819Y56374D01*
X-45896Y56183D01*
X-45960Y56077D01*
X-45995Y56038D01*
X-46002Y56034D01*
X-46007Y56032D01*
X-46164Y56015D01*
X-46193Y56000D01*
X-47550D01*
Y44000D01*
X-38550D01*
Y56000D01*
X-39907D01*
X-39936Y56015D01*
X-40093Y56032D01*
X-40098Y56034D01*
X-40104Y56038D01*
X-40140Y56077D01*
X-40204Y56183D01*
X-40282Y56374D01*
X-40356Y56652D01*
X-40415Y57014D01*
X-40439Y57280D01*
X-40415Y57516D01*
X-40399Y57603D01*
X-40388Y57653D01*
X-40378Y57673D01*
X-40377Y57685D01*
X-40365Y57719D01*
X-40366Y57734D01*
X-40083Y58017D01*
X-39550Y59304D01*
Y60696D01*
X-40083Y61983D01*
X-41067Y62967D01*
X-42354Y63500D01*
D02*
G37*
G36*
X-67754D02*
X-69146D01*
X-70433Y62967D01*
X-71417Y61983D01*
X-71950Y60696D01*
Y59304D01*
X-71417Y58017D01*
X-71134Y57734D01*
X-71135Y57719D01*
X-71123Y57685D01*
X-71122Y57673D01*
X-71112Y57653D01*
X-71101Y57603D01*
X-71089Y57534D01*
X-71067Y57216D01*
X-71085Y57014D01*
X-71144Y56652D01*
X-71219Y56374D01*
X-71296Y56183D01*
X-71360Y56077D01*
X-71396Y56038D01*
X-71402Y56034D01*
X-71407Y56032D01*
X-71564Y56015D01*
X-71593Y56000D01*
X-72950D01*
Y44000D01*
X-63950D01*
Y56000D01*
X-65307D01*
X-65336Y56015D01*
X-65493Y56032D01*
X-65498Y56034D01*
X-65504Y56038D01*
X-65540Y56077D01*
X-65604Y56183D01*
X-65682Y56374D01*
X-65756Y56652D01*
X-65815Y57014D01*
X-65839Y57280D01*
X-65814Y57516D01*
X-65799Y57603D01*
X-65788Y57653D01*
X-65778Y57673D01*
X-65777Y57685D01*
X-65765Y57719D01*
X-65766Y57734D01*
X-65483Y58017D01*
X-64950Y59304D01*
Y60696D01*
X-65483Y61983D01*
X-66467Y62967D01*
X-67754Y63500D01*
D02*
G37*
G36*
X146146D02*
X144754D01*
X143467Y62967D01*
X142483Y61983D01*
X141950Y60696D01*
Y59304D01*
X142483Y58017D01*
X142766Y57734D01*
X142765Y57719D01*
X142777Y57685D01*
X142778Y57673D01*
X142788Y57653D01*
X142800Y57603D01*
X142811Y57534D01*
X142833Y57216D01*
X142815Y57014D01*
X142756Y56652D01*
X142682Y56374D01*
X142604Y56183D01*
X142540Y56077D01*
X142505Y56038D01*
X142498Y56034D01*
X142493Y56032D01*
X142336Y56015D01*
X142307Y56000D01*
X140950D01*
Y44000D01*
X141272D01*
X141488Y43775D01*
X141494Y43758D01*
X141523Y42405D01*
X140881Y41922D01*
X140406Y41890D01*
X139865Y41882D01*
X139788Y41849D01*
X138426D01*
X138352Y41882D01*
X137513Y41907D01*
X136350Y42073D01*
Y42073D01*
X136350D01*
Y42650D01*
X135319Y42702D01*
X135227Y42663D01*
X135115Y42682D01*
X135066Y42650D01*
X129150D01*
Y35950D01*
X135066D01*
X135115Y35917D01*
X135227Y35936D01*
X135319Y35898D01*
X136350Y35950D01*
Y36527D01*
X136350D01*
Y36527D01*
X137514Y36691D01*
X137794Y36710D01*
X138335Y36718D01*
X138412Y36751D01*
X139775D01*
X139848Y36718D01*
X140687Y36693D01*
X141850Y36527D01*
Y36527D01*
X141850D01*
Y35950D01*
X142880Y35898D01*
X142973Y35936D01*
X143085Y35918D01*
X143134Y35950D01*
X149050D01*
Y41380D01*
X149050Y41394D01*
X149090Y41461D01*
X149086Y41582D01*
X149102Y41620D01*
X149050Y42650D01*
X149018Y42903D01*
X149289Y43647D01*
X149628Y44000D01*
X149950D01*
Y56000D01*
X148593D01*
X148564Y56015D01*
X148407Y56032D01*
X148402Y56034D01*
X148396Y56038D01*
X148360Y56077D01*
X148296Y56183D01*
X148218Y56374D01*
X148144Y56652D01*
X148085Y57014D01*
X148061Y57280D01*
X148085Y57516D01*
X148101Y57603D01*
X148112Y57653D01*
X148122Y57673D01*
X148123Y57685D01*
X148135Y57719D01*
X148134Y57734D01*
X148417Y58017D01*
X148950Y59304D01*
Y60696D01*
X148417Y61983D01*
X147433Y62967D01*
X146146Y63500D01*
D02*
G37*
G36*
X120746D02*
X119354D01*
X118067Y62967D01*
X117083Y61983D01*
X116550Y60696D01*
Y59304D01*
X117083Y58017D01*
X117366Y57734D01*
X117365Y57719D01*
X117377Y57685D01*
X117378Y57673D01*
X117388Y57653D01*
X117400Y57603D01*
X117411Y57534D01*
X117433Y57216D01*
X117415Y57014D01*
X117356Y56652D01*
X117282Y56374D01*
X117204Y56183D01*
X117140Y56077D01*
X117105Y56038D01*
X117098Y56034D01*
X117093Y56032D01*
X116936Y56015D01*
X116907Y56000D01*
X115550D01*
Y44000D01*
X115872D01*
X116088Y43775D01*
X116094Y43758D01*
X116123Y42405D01*
X115481Y41922D01*
X115006Y41890D01*
X114465Y41882D01*
X114388Y41849D01*
X113026D01*
X112952Y41882D01*
X112113Y41907D01*
X110950Y42073D01*
Y42073D01*
X110950D01*
Y42650D01*
X109920Y42702D01*
X109827Y42663D01*
X109715Y42682D01*
X109666Y42650D01*
X103750D01*
Y35950D01*
X109666D01*
X109715Y35917D01*
X109827Y35936D01*
X109920Y35898D01*
X110950Y35950D01*
Y36527D01*
X110950D01*
Y36527D01*
X112114Y36691D01*
X112394Y36710D01*
X112935Y36718D01*
X113012Y36751D01*
X114375D01*
X114448Y36718D01*
X115287Y36693D01*
X116450Y36527D01*
Y36527D01*
X116450D01*
Y35950D01*
X117480Y35898D01*
X117573Y35936D01*
X117685Y35918D01*
X117734Y35950D01*
X123650D01*
Y41380D01*
X123650Y41394D01*
X123690Y41461D01*
X123686Y41582D01*
X123702Y41620D01*
X123650Y42650D01*
X123618Y42903D01*
X123889Y43647D01*
X124228Y44000D01*
X124550D01*
Y56000D01*
X123193D01*
X123164Y56015D01*
X123007Y56032D01*
X123002Y56034D01*
X122996Y56038D01*
X122960Y56077D01*
X122896Y56183D01*
X122818Y56374D01*
X122744Y56652D01*
X122685Y57014D01*
X122661Y57280D01*
X122685Y57516D01*
X122701Y57603D01*
X122712Y57653D01*
X122722Y57673D01*
X122723Y57685D01*
X122735Y57719D01*
X122734Y57734D01*
X123017Y58017D01*
X123550Y59304D01*
Y60696D01*
X123017Y61983D01*
X122033Y62967D01*
X120746Y63500D01*
D02*
G37*
G36*
X95346D02*
X93954D01*
X92667Y62967D01*
X91683Y61983D01*
X91150Y60696D01*
Y59304D01*
X91683Y58017D01*
X91966Y57734D01*
X91965Y57719D01*
X91977Y57685D01*
X91978Y57673D01*
X91987Y57653D01*
X92000Y57603D01*
X92011Y57534D01*
X92033Y57216D01*
X92015Y57014D01*
X91956Y56652D01*
X91882Y56374D01*
X91804Y56183D01*
X91740Y56077D01*
X91705Y56038D01*
X91698Y56034D01*
X91693Y56032D01*
X91536Y56015D01*
X91507Y56000D01*
X90150D01*
Y44000D01*
X90472D01*
X90688Y43775D01*
X90694Y43758D01*
X90723Y42405D01*
X90081Y41922D01*
X89606Y41890D01*
X89065Y41882D01*
X88988Y41849D01*
X87626D01*
X87552Y41882D01*
X86713Y41907D01*
X85550Y42073D01*
Y42073D01*
X85550D01*
Y42650D01*
X84520Y42702D01*
X84427Y42663D01*
X84315Y42682D01*
X84266Y42650D01*
X78350D01*
Y35950D01*
X84266D01*
X84315Y35917D01*
X84427Y35936D01*
X84520Y35898D01*
X85550Y35950D01*
Y36527D01*
X85550D01*
Y36527D01*
X86713Y36691D01*
X86994Y36710D01*
X87535Y36718D01*
X87612Y36751D01*
X88975D01*
X89048Y36718D01*
X89887Y36693D01*
X91050Y36527D01*
Y36527D01*
X91050D01*
Y35950D01*
X92080Y35898D01*
X92173Y35936D01*
X92285Y35918D01*
X92334Y35950D01*
X98250D01*
Y41380D01*
X98250Y41394D01*
X98290Y41461D01*
X98286Y41582D01*
X98302Y41620D01*
X98250Y42650D01*
X98218Y42903D01*
X98489Y43647D01*
X98828Y44000D01*
X99150D01*
Y56000D01*
X97793D01*
X97764Y56015D01*
X97607Y56032D01*
X97602Y56034D01*
X97596Y56038D01*
X97560Y56077D01*
X97496Y56183D01*
X97418Y56374D01*
X97344Y56652D01*
X97285Y57014D01*
X97261Y57280D01*
X97285Y57516D01*
X97301Y57603D01*
X97312Y57653D01*
X97322Y57673D01*
X97323Y57685D01*
X97335Y57719D01*
X97334Y57734D01*
X97617Y58017D01*
X98150Y59304D01*
Y60696D01*
X97617Y61983D01*
X96633Y62967D01*
X95346Y63500D01*
D02*
G37*
G36*
X69946D02*
X68554D01*
X67267Y62967D01*
X66283Y61983D01*
X65750Y60696D01*
Y59304D01*
X66283Y58017D01*
X66566Y57734D01*
X66565Y57719D01*
X66577Y57685D01*
X66578Y57673D01*
X66588Y57653D01*
X66599Y57603D01*
X66611Y57534D01*
X66633Y57216D01*
X66615Y57014D01*
X66556Y56652D01*
X66481Y56374D01*
X66404Y56183D01*
X66340Y56077D01*
X66304Y56038D01*
X66298Y56034D01*
X66293Y56032D01*
X66136Y56015D01*
X66107Y56000D01*
X64750D01*
Y44000D01*
X65072D01*
X65288Y43775D01*
X65293Y43758D01*
X65323Y42405D01*
X64681Y41922D01*
X64206Y41890D01*
X63665Y41882D01*
X63588Y41849D01*
X62225D01*
X62152Y41882D01*
X61313Y41907D01*
X60150Y42073D01*
Y42073D01*
X60150D01*
Y42650D01*
X59120Y42702D01*
X59027Y42663D01*
X58915Y42682D01*
X58866Y42650D01*
X52950D01*
Y35950D01*
X58866D01*
X58915Y35917D01*
X59027Y35936D01*
X59120Y35898D01*
X60150Y35950D01*
Y36527D01*
X60150D01*
Y36527D01*
X61314Y36691D01*
X61594Y36710D01*
X62135Y36718D01*
X62212Y36751D01*
X63575D01*
X63648Y36718D01*
X64487Y36693D01*
X65650Y36527D01*
Y36527D01*
X65650D01*
Y35950D01*
X66680Y35898D01*
X66773Y35936D01*
X66885Y35918D01*
X66934Y35950D01*
X72850D01*
Y41380D01*
X72850Y41394D01*
X72890Y41461D01*
X72886Y41582D01*
X72902Y41620D01*
X72850Y42650D01*
X72818Y42903D01*
X73089Y43647D01*
X73428Y44000D01*
X73750D01*
Y56000D01*
X72393D01*
X72364Y56015D01*
X72207Y56032D01*
X72202Y56034D01*
X72196Y56038D01*
X72160Y56077D01*
X72096Y56183D01*
X72018Y56374D01*
X71944Y56652D01*
X71885Y57014D01*
X71861Y57280D01*
X71885Y57516D01*
X71901Y57603D01*
X71912Y57653D01*
X71922Y57673D01*
X71923Y57685D01*
X71935Y57719D01*
X71934Y57734D01*
X72217Y58017D01*
X72750Y59304D01*
Y60696D01*
X72217Y61983D01*
X71233Y62967D01*
X69946Y63500D01*
D02*
G37*
G36*
X21146D02*
X19754D01*
X18467Y62967D01*
X17483Y61983D01*
X16950Y60696D01*
Y59304D01*
X17483Y58017D01*
X17766Y57734D01*
X17765Y57719D01*
X17777Y57685D01*
X17778Y57673D01*
X17787Y57653D01*
X17800Y57603D01*
X17811Y57534D01*
X17833Y57216D01*
X17815Y57014D01*
X17756Y56652D01*
X17681Y56374D01*
X17604Y56183D01*
X17540Y56077D01*
X17505Y56038D01*
X17498Y56034D01*
X17493Y56032D01*
X17336Y56015D01*
X17307Y56000D01*
X15950D01*
Y44000D01*
X16272D01*
X16488Y43775D01*
X16494Y43758D01*
X16523Y42405D01*
X15881Y41922D01*
X15406Y41890D01*
X14865Y41882D01*
X14788Y41849D01*
X13426D01*
X13352Y41882D01*
X12513Y41907D01*
X11350Y42073D01*
Y42073D01*
X11350D01*
Y42650D01*
X10319Y42702D01*
X10227Y42663D01*
X10115Y42682D01*
X10066Y42650D01*
X4150D01*
Y35950D01*
X10066D01*
X10115Y35917D01*
X10227Y35936D01*
X10319Y35898D01*
X11350Y35950D01*
Y36527D01*
X11350D01*
Y36527D01*
X12514Y36691D01*
X12794Y36710D01*
X13335Y36718D01*
X13412Y36751D01*
X14775D01*
X14848Y36718D01*
X15687Y36693D01*
X16850Y36527D01*
Y36527D01*
X16850D01*
Y35950D01*
X17881Y35898D01*
X17973Y35936D01*
X18085Y35918D01*
X18134Y35950D01*
X24050D01*
Y41380D01*
X24050Y41394D01*
X24090Y41461D01*
X24086Y41582D01*
X24102Y41620D01*
X24050Y42650D01*
X24018Y42903D01*
X24289Y43647D01*
X24628Y44000D01*
X24950D01*
Y56000D01*
X23593D01*
X23564Y56015D01*
X23407Y56032D01*
X23402Y56034D01*
X23396Y56038D01*
X23360Y56077D01*
X23296Y56183D01*
X23219Y56374D01*
X23144Y56652D01*
X23085Y57014D01*
X23061Y57280D01*
X23085Y57516D01*
X23101Y57603D01*
X23112Y57653D01*
X23122Y57673D01*
X23123Y57685D01*
X23135Y57719D01*
X23134Y57734D01*
X23417Y58017D01*
X23950Y59304D01*
Y60696D01*
X23417Y61983D01*
X22433Y62967D01*
X21146Y63500D01*
D02*
G37*
G36*
X-4254D02*
X-5646D01*
X-6933Y62967D01*
X-7917Y61983D01*
X-8450Y60696D01*
Y59304D01*
X-7917Y58017D01*
X-7634Y57734D01*
X-7635Y57719D01*
X-7623Y57685D01*
X-7622Y57673D01*
X-7613Y57653D01*
X-7600Y57603D01*
X-7589Y57534D01*
X-7567Y57216D01*
X-7585Y57014D01*
X-7644Y56652D01*
X-7718Y56374D01*
X-7796Y56183D01*
X-7860Y56077D01*
X-7896Y56038D01*
X-7902Y56034D01*
X-7907Y56032D01*
X-8064Y56015D01*
X-8093Y56000D01*
X-9450D01*
Y44000D01*
X-9128D01*
X-8912Y43775D01*
X-8906Y43758D01*
X-8877Y42405D01*
X-9519Y41922D01*
X-9994Y41890D01*
X-10535Y41882D01*
X-10612Y41849D01*
X-11975D01*
X-12048Y41882D01*
X-12887Y41907D01*
X-14050Y42073D01*
Y42073D01*
X-14050D01*
Y42650D01*
X-15080Y42702D01*
X-15173Y42663D01*
X-15285Y42682D01*
X-15334Y42650D01*
X-21250D01*
Y35950D01*
X-15334D01*
X-15285Y35917D01*
X-15173Y35936D01*
X-15080Y35898D01*
X-14050Y35950D01*
Y36527D01*
X-14050D01*
Y36527D01*
X-12887Y36691D01*
X-12606Y36710D01*
X-12065Y36718D01*
X-11988Y36751D01*
X-10625D01*
X-10552Y36718D01*
X-9713Y36693D01*
X-8550Y36527D01*
Y36527D01*
X-8550D01*
Y35950D01*
X-7520Y35898D01*
X-7427Y35936D01*
X-7315Y35918D01*
X-7266Y35950D01*
X-1350D01*
Y41380D01*
X-1350Y41394D01*
X-1310Y41461D01*
X-1314Y41582D01*
X-1298Y41620D01*
X-1350Y42650D01*
X-1382Y42903D01*
X-1111Y43647D01*
X-772Y44000D01*
X-450D01*
Y56000D01*
X-1807D01*
X-1836Y56015D01*
X-1993Y56032D01*
X-1998Y56034D01*
X-2005Y56038D01*
X-2040Y56077D01*
X-2104Y56183D01*
X-2182Y56374D01*
X-2256Y56652D01*
X-2315Y57014D01*
X-2339Y57280D01*
X-2315Y57516D01*
X-2299Y57603D01*
X-2288Y57653D01*
X-2278Y57673D01*
X-2277Y57685D01*
X-2265Y57719D01*
X-2266Y57734D01*
X-1983Y58017D01*
X-1450Y59304D01*
Y60696D01*
X-1983Y61983D01*
X-2967Y62967D01*
X-4254Y63500D01*
D02*
G37*
G36*
X-29654D02*
X-31046D01*
X-32333Y62967D01*
X-33317Y61983D01*
X-33850Y60696D01*
Y59304D01*
X-33317Y58017D01*
X-33034Y57734D01*
X-33035Y57719D01*
X-33023Y57685D01*
X-33022Y57673D01*
X-33012Y57653D01*
X-33001Y57603D01*
X-32989Y57534D01*
X-32967Y57216D01*
X-32985Y57014D01*
X-33044Y56652D01*
X-33119Y56374D01*
X-33196Y56183D01*
X-33260Y56077D01*
X-33296Y56038D01*
X-33302Y56034D01*
X-33307Y56032D01*
X-33464Y56015D01*
X-33493Y56000D01*
X-34850D01*
Y44000D01*
X-34528D01*
X-34312Y43775D01*
X-34306Y43758D01*
X-34277Y42405D01*
X-34919Y41922D01*
X-35394Y41890D01*
X-35935Y41882D01*
X-36012Y41849D01*
X-37374D01*
X-37448Y41882D01*
X-38287Y41907D01*
X-39450Y42073D01*
Y42073D01*
X-39450D01*
Y42650D01*
X-40480Y42702D01*
X-40573Y42663D01*
X-40685Y42682D01*
X-40734Y42650D01*
X-46650D01*
Y35950D01*
X-40734D01*
X-40685Y35917D01*
X-40573Y35936D01*
X-40480Y35898D01*
X-39450Y35950D01*
Y36527D01*
X-39450D01*
Y36527D01*
X-38286Y36691D01*
X-38006Y36710D01*
X-37465Y36718D01*
X-37388Y36751D01*
X-36026D01*
X-35952Y36718D01*
X-35113Y36693D01*
X-33950Y36527D01*
Y36527D01*
X-33950D01*
Y35950D01*
X-32919Y35898D01*
X-32827Y35936D01*
X-32715Y35918D01*
X-32666Y35950D01*
X-26750D01*
Y41380D01*
X-26750Y41394D01*
X-26710Y41461D01*
X-26714Y41582D01*
X-26698Y41620D01*
X-26750Y42650D01*
X-26782Y42903D01*
X-26511Y43647D01*
X-26172Y44000D01*
X-25850D01*
Y56000D01*
X-27207D01*
X-27236Y56015D01*
X-27393Y56032D01*
X-27398Y56034D01*
X-27404Y56038D01*
X-27440Y56077D01*
X-27504Y56183D01*
X-27582Y56374D01*
X-27656Y56652D01*
X-27715Y57014D01*
X-27739Y57280D01*
X-27715Y57516D01*
X-27699Y57603D01*
X-27687Y57653D01*
X-27678Y57673D01*
X-27677Y57685D01*
X-27665Y57719D01*
X-27666Y57734D01*
X-27383Y58017D01*
X-26850Y59304D01*
Y60696D01*
X-27383Y61983D01*
X-28367Y62967D01*
X-29654Y63500D01*
D02*
G37*
G36*
X-55054D02*
X-56446D01*
X-57733Y62967D01*
X-58717Y61983D01*
X-59250Y60696D01*
Y59304D01*
X-58717Y58017D01*
X-58434Y57734D01*
X-58435Y57719D01*
X-58423Y57685D01*
X-58422Y57673D01*
X-58412Y57653D01*
X-58401Y57603D01*
X-58389Y57534D01*
X-58367Y57216D01*
X-58385Y57014D01*
X-58444Y56652D01*
X-58519Y56374D01*
X-58596Y56183D01*
X-58660Y56077D01*
X-58696Y56038D01*
X-58702Y56034D01*
X-58707Y56032D01*
X-58864Y56015D01*
X-58893Y56000D01*
X-60250D01*
Y44000D01*
X-59928D01*
X-59712Y43775D01*
X-59707Y43758D01*
X-59677Y42405D01*
X-60319Y41922D01*
X-60794Y41890D01*
X-61335Y41882D01*
X-61412Y41849D01*
X-62775D01*
X-62848Y41882D01*
X-63687Y41907D01*
X-64850Y42073D01*
Y42073D01*
X-64850D01*
Y42650D01*
X-65880Y42702D01*
X-65973Y42663D01*
X-66085Y42682D01*
X-66134Y42650D01*
X-72050D01*
Y35950D01*
X-66134D01*
X-66085Y35917D01*
X-65973Y35936D01*
X-65880Y35898D01*
X-64850Y35950D01*
Y36527D01*
X-64850D01*
Y36527D01*
X-63686Y36691D01*
X-63406Y36710D01*
X-62865Y36718D01*
X-62788Y36751D01*
X-61425D01*
X-61352Y36718D01*
X-60513Y36693D01*
X-59350Y36527D01*
Y36527D01*
X-59350D01*
Y35950D01*
X-58320Y35898D01*
X-58227Y35936D01*
X-58115Y35918D01*
X-58066Y35950D01*
X-52150D01*
Y41380D01*
X-52150Y41394D01*
X-52110Y41461D01*
X-52114Y41582D01*
X-52098Y41620D01*
X-52150Y42650D01*
X-52182Y42903D01*
X-51911Y43647D01*
X-51572Y44000D01*
X-51250D01*
Y56000D01*
X-52607D01*
X-52636Y56015D01*
X-52793Y56032D01*
X-52798Y56034D01*
X-52804Y56038D01*
X-52840Y56077D01*
X-52904Y56183D01*
X-52982Y56374D01*
X-53056Y56652D01*
X-53115Y57014D01*
X-53139Y57280D01*
X-53115Y57516D01*
X-53099Y57603D01*
X-53088Y57653D01*
X-53078Y57673D01*
X-53077Y57685D01*
X-53065Y57719D01*
X-53066Y57734D01*
X-52783Y58017D01*
X-52250Y59304D01*
Y60696D01*
X-52783Y61983D01*
X-53767Y62967D01*
X-55054Y63500D01*
D02*
G37*
G36*
X24050Y34050D02*
X21450D01*
Y31700D01*
X24050D01*
Y34050D01*
D02*
G37*
G36*
X11350D02*
X8750D01*
Y31700D01*
X11350D01*
Y34050D01*
D02*
G37*
G36*
X-1350D02*
X-3950D01*
Y31700D01*
X-1350D01*
Y34050D01*
D02*
G37*
G36*
X-14050D02*
X-16650D01*
Y31700D01*
X-14050D01*
Y34050D01*
D02*
G37*
G36*
X-26750D02*
X-29350D01*
Y31700D01*
X-26750D01*
Y34050D01*
D02*
G37*
G36*
X-39450D02*
X-42050D01*
Y31700D01*
X-39450D01*
Y34050D01*
D02*
G37*
G36*
X-52150D02*
X-54750D01*
Y31700D01*
X-52150D01*
Y34050D01*
D02*
G37*
G36*
X-64850D02*
X-67450D01*
Y31700D01*
X-64850D01*
Y34050D01*
D02*
G37*
G36*
X149050D02*
X146450D01*
Y31700D01*
X149050D01*
Y34050D01*
D02*
G37*
G36*
X136350D02*
X133750D01*
Y31700D01*
X136350D01*
Y34050D01*
D02*
G37*
G36*
X123650D02*
X121050D01*
Y31700D01*
X123650D01*
Y34050D01*
D02*
G37*
G36*
X110950D02*
X108350D01*
Y31700D01*
X110950D01*
Y34050D01*
D02*
G37*
G36*
X98250D02*
X95650D01*
Y31700D01*
X98250D01*
Y34050D01*
D02*
G37*
G36*
X85550D02*
X82950D01*
Y31700D01*
X85550D01*
Y34050D01*
D02*
G37*
G36*
X72850D02*
X70250D01*
Y31700D01*
X72850D01*
Y34050D01*
D02*
G37*
G36*
X60150D02*
X57550D01*
Y31700D01*
X60150D01*
Y34050D01*
D02*
G37*
G36*
X144450D02*
X141850D01*
Y31700D01*
X144450D01*
Y34050D01*
D02*
G37*
G36*
X131750D02*
X129150D01*
Y31700D01*
X131750D01*
Y34050D01*
D02*
G37*
G36*
X119050D02*
X116450D01*
Y31700D01*
X119050D01*
Y34050D01*
D02*
G37*
G36*
X106350D02*
X103750D01*
Y31700D01*
X106350D01*
Y34050D01*
D02*
G37*
G36*
X93650D02*
X91050D01*
Y31700D01*
X93650D01*
Y34050D01*
D02*
G37*
G36*
X80950D02*
X78350D01*
Y31700D01*
X80950D01*
Y34050D01*
D02*
G37*
G36*
X68250D02*
X65650D01*
Y31700D01*
X68250D01*
Y34050D01*
D02*
G37*
G36*
X55550D02*
X52950D01*
Y31700D01*
X55550D01*
Y34050D01*
D02*
G37*
G36*
X19450D02*
X16850D01*
Y31700D01*
X19450D01*
Y34050D01*
D02*
G37*
G36*
X6750D02*
X4150D01*
Y31700D01*
X6750D01*
Y34050D01*
D02*
G37*
G36*
X-5950D02*
X-8550D01*
Y31700D01*
X-5950D01*
Y34050D01*
D02*
G37*
G36*
X-18650D02*
X-21250D01*
Y31700D01*
X-18650D01*
Y34050D01*
D02*
G37*
G36*
X-31350D02*
X-33950D01*
Y31700D01*
X-31350D01*
Y34050D01*
D02*
G37*
G36*
X-44050D02*
X-46650D01*
Y31700D01*
X-44050D01*
Y34050D01*
D02*
G37*
G36*
X-56750D02*
X-59350D01*
Y31700D01*
X-56750D01*
Y34050D01*
D02*
G37*
G36*
X-69450D02*
X-72050D01*
Y31700D01*
X-69450D01*
Y34050D01*
D02*
G37*
G36*
X149050Y29700D02*
X146450D01*
Y27350D01*
X149050D01*
Y29700D01*
D02*
G37*
G36*
X144450D02*
X141850D01*
Y27350D01*
X144450D01*
Y29700D01*
D02*
G37*
G36*
X136350D02*
X133750D01*
Y27350D01*
X136350D01*
Y29700D01*
D02*
G37*
G36*
X131750D02*
X129150D01*
Y27350D01*
X131750D01*
Y29700D01*
D02*
G37*
G36*
X123650D02*
X121050D01*
Y27350D01*
X123650D01*
Y29700D01*
D02*
G37*
G36*
X119050D02*
X116450D01*
Y27350D01*
X119050D01*
Y29700D01*
D02*
G37*
G36*
X110950D02*
X108350D01*
Y27350D01*
X110950D01*
Y29700D01*
D02*
G37*
G36*
X106350D02*
X103750D01*
Y27350D01*
X106350D01*
Y29700D01*
D02*
G37*
G36*
X98250D02*
X95650D01*
Y27350D01*
X98250D01*
Y29700D01*
D02*
G37*
G36*
X93650D02*
X91050D01*
Y27350D01*
X93650D01*
Y29700D01*
D02*
G37*
G36*
X85550D02*
X82950D01*
Y27350D01*
X85550D01*
Y29700D01*
D02*
G37*
G36*
X80950D02*
X78350D01*
Y27350D01*
X80950D01*
Y29700D01*
D02*
G37*
G36*
X72850D02*
X70250D01*
Y27350D01*
X72850D01*
Y29700D01*
D02*
G37*
G36*
X68250D02*
X65650D01*
Y27350D01*
X68250D01*
Y29700D01*
D02*
G37*
G36*
X60150D02*
X57550D01*
Y27350D01*
X60150D01*
Y29700D01*
D02*
G37*
G36*
X55550D02*
X52950D01*
Y27350D01*
X55550D01*
Y29700D01*
D02*
G37*
G36*
X24050D02*
X21450D01*
Y27350D01*
X24050D01*
Y29700D01*
D02*
G37*
G36*
X19450D02*
X16850D01*
Y27350D01*
X19450D01*
Y29700D01*
D02*
G37*
G36*
X11350D02*
X8750D01*
Y27350D01*
X11350D01*
Y29700D01*
D02*
G37*
G36*
X6750D02*
X4150D01*
Y27350D01*
X6750D01*
Y29700D01*
D02*
G37*
G36*
X-1350D02*
X-3950D01*
Y27350D01*
X-1350D01*
Y29700D01*
D02*
G37*
G36*
X-5950D02*
X-8550D01*
Y27350D01*
X-5950D01*
Y29700D01*
D02*
G37*
G36*
X-14050D02*
X-16650D01*
Y27350D01*
X-14050D01*
Y29700D01*
D02*
G37*
G36*
X-18650D02*
X-21250D01*
Y27350D01*
X-18650D01*
Y29700D01*
D02*
G37*
G36*
X-26750D02*
X-29350D01*
Y27350D01*
X-26750D01*
Y29700D01*
D02*
G37*
G36*
X-31350D02*
X-33950D01*
Y27350D01*
X-31350D01*
Y29700D01*
D02*
G37*
G36*
X-39450D02*
X-42050D01*
Y27350D01*
X-39450D01*
Y29700D01*
D02*
G37*
G36*
X-44050D02*
X-46650D01*
Y27350D01*
X-44050D01*
Y29700D01*
D02*
G37*
G36*
X-52150D02*
X-54750D01*
Y27350D01*
X-52150D01*
Y29700D01*
D02*
G37*
G36*
X-56750D02*
X-59350D01*
Y27350D01*
X-56750D01*
Y29700D01*
D02*
G37*
G36*
X-64850D02*
X-67450D01*
Y27350D01*
X-64850D01*
Y29700D01*
D02*
G37*
G36*
X-69450D02*
X-72050D01*
Y27350D01*
X-69450D01*
Y29700D01*
D02*
G37*
%LPD*%
G36*
X134452Y58153D02*
X134410Y58068D01*
X134373Y57957D01*
X134340Y57823D01*
X134312Y57663D01*
X134274Y57288D01*
X134310Y56878D01*
X134385Y56424D01*
X134490Y56030D01*
X134625Y55697D01*
X134790Y55424D01*
X134985Y55212D01*
X135210Y55060D01*
X135465Y54969D01*
X135750Y54939D01*
X129750D01*
X130035Y54969D01*
X130290Y55060D01*
X130515Y55212D01*
X130710Y55424D01*
X130875Y55697D01*
X131010Y56030D01*
X131115Y56424D01*
X131190Y56878D01*
X131219Y57206D01*
X131187Y57663D01*
X131160Y57823D01*
X131128Y57957D01*
X131090Y58068D01*
X131047Y58153D01*
X131000Y58215D01*
X134500D01*
X134452Y58153D01*
D02*
G37*
G36*
X109052D02*
X109010Y58068D01*
X108973Y57957D01*
X108940Y57823D01*
X108912Y57663D01*
X108874Y57288D01*
X108910Y56878D01*
X108985Y56424D01*
X109090Y56030D01*
X109225Y55697D01*
X109390Y55424D01*
X109585Y55212D01*
X109810Y55060D01*
X110065Y54969D01*
X110350Y54939D01*
X104350D01*
X104635Y54969D01*
X104890Y55060D01*
X105115Y55212D01*
X105310Y55424D01*
X105475Y55697D01*
X105610Y56030D01*
X105715Y56424D01*
X105790Y56878D01*
X105819Y57206D01*
X105787Y57663D01*
X105760Y57823D01*
X105728Y57957D01*
X105690Y58068D01*
X105647Y58153D01*
X105600Y58215D01*
X109100D01*
X109052Y58153D01*
D02*
G37*
G36*
X83652D02*
X83610Y58068D01*
X83573Y57957D01*
X83540Y57823D01*
X83512Y57663D01*
X83474Y57288D01*
X83510Y56878D01*
X83585Y56424D01*
X83690Y56030D01*
X83825Y55697D01*
X83990Y55424D01*
X84185Y55212D01*
X84410Y55060D01*
X84665Y54969D01*
X84950Y54939D01*
X78950D01*
X79235Y54969D01*
X79490Y55060D01*
X79715Y55212D01*
X79910Y55424D01*
X80075Y55697D01*
X80210Y56030D01*
X80315Y56424D01*
X80390Y56878D01*
X80419Y57206D01*
X80387Y57663D01*
X80360Y57823D01*
X80328Y57957D01*
X80290Y58068D01*
X80247Y58153D01*
X80200Y58215D01*
X83700D01*
X83652Y58153D01*
D02*
G37*
G36*
X58253D02*
X58210Y58068D01*
X58172Y57957D01*
X58140Y57823D01*
X58113Y57663D01*
X58074Y57288D01*
X58110Y56878D01*
X58185Y56424D01*
X58290Y56030D01*
X58425Y55697D01*
X58590Y55424D01*
X58785Y55212D01*
X59010Y55060D01*
X59265Y54969D01*
X59550Y54939D01*
X53550D01*
X53835Y54969D01*
X54090Y55060D01*
X54315Y55212D01*
X54510Y55424D01*
X54675Y55697D01*
X54810Y56030D01*
X54915Y56424D01*
X54990Y56878D01*
X55019Y57206D01*
X54988Y57663D01*
X54960Y57823D01*
X54928Y57957D01*
X54890Y58068D01*
X54847Y58153D01*
X54800Y58215D01*
X58300D01*
X58253Y58153D01*
D02*
G37*
G36*
X9452D02*
X9410Y58068D01*
X9373Y57957D01*
X9340Y57823D01*
X9312Y57663D01*
X9274Y57288D01*
X9310Y56878D01*
X9385Y56424D01*
X9490Y56030D01*
X9625Y55697D01*
X9790Y55424D01*
X9985Y55212D01*
X10210Y55060D01*
X10465Y54969D01*
X10750Y54939D01*
X4750D01*
X5035Y54969D01*
X5290Y55060D01*
X5515Y55212D01*
X5710Y55424D01*
X5875Y55697D01*
X6010Y56030D01*
X6115Y56424D01*
X6190Y56878D01*
X6219Y57206D01*
X6187Y57663D01*
X6160Y57823D01*
X6127Y57957D01*
X6090Y58068D01*
X6047Y58153D01*
X6000Y58215D01*
X9500D01*
X9452Y58153D01*
D02*
G37*
G36*
X-15948D02*
X-15990Y58068D01*
X-16027Y57957D01*
X-16060Y57823D01*
X-16087Y57663D01*
X-16126Y57288D01*
X-16090Y56878D01*
X-16015Y56424D01*
X-15910Y56030D01*
X-15775Y55697D01*
X-15610Y55424D01*
X-15415Y55212D01*
X-15190Y55060D01*
X-14935Y54969D01*
X-14650Y54939D01*
X-20650D01*
X-20365Y54969D01*
X-20110Y55060D01*
X-19885Y55212D01*
X-19690Y55424D01*
X-19525Y55697D01*
X-19390Y56030D01*
X-19285Y56424D01*
X-19210Y56878D01*
X-19181Y57206D01*
X-19212Y57663D01*
X-19240Y57823D01*
X-19273Y57957D01*
X-19310Y58068D01*
X-19353Y58153D01*
X-19400Y58215D01*
X-15900D01*
X-15948Y58153D01*
D02*
G37*
G36*
X-41347D02*
X-41390Y58068D01*
X-41427Y57957D01*
X-41460Y57823D01*
X-41487Y57663D01*
X-41526Y57288D01*
X-41490Y56878D01*
X-41415Y56424D01*
X-41310Y56030D01*
X-41175Y55697D01*
X-41010Y55424D01*
X-40815Y55212D01*
X-40590Y55060D01*
X-40335Y54969D01*
X-40050Y54939D01*
X-46050D01*
X-45765Y54969D01*
X-45510Y55060D01*
X-45285Y55212D01*
X-45090Y55424D01*
X-44925Y55697D01*
X-44790Y56030D01*
X-44685Y56424D01*
X-44610Y56878D01*
X-44581Y57206D01*
X-44612Y57663D01*
X-44640Y57823D01*
X-44672Y57957D01*
X-44710Y58068D01*
X-44752Y58153D01*
X-44800Y58215D01*
X-41300D01*
X-41347Y58153D01*
D02*
G37*
G36*
X-66747D02*
X-66790Y58068D01*
X-66828Y57957D01*
X-66860Y57823D01*
X-66887Y57663D01*
X-66926Y57288D01*
X-66890Y56878D01*
X-66815Y56424D01*
X-66710Y56030D01*
X-66575Y55697D01*
X-66410Y55424D01*
X-66215Y55212D01*
X-65990Y55060D01*
X-65735Y54969D01*
X-65450Y54939D01*
X-71450D01*
X-71165Y54969D01*
X-70910Y55060D01*
X-70685Y55212D01*
X-70490Y55424D01*
X-70325Y55697D01*
X-70190Y56030D01*
X-70085Y56424D01*
X-70010Y56878D01*
X-69981Y57206D01*
X-70012Y57663D01*
X-70040Y57823D01*
X-70072Y57957D01*
X-70110Y58068D01*
X-70153Y58153D01*
X-70200Y58215D01*
X-66700D01*
X-66747Y58153D01*
D02*
G37*
G36*
X147153D02*
X147110Y58068D01*
X147072Y57957D01*
X147040Y57823D01*
X147013Y57663D01*
X146974Y57288D01*
X147010Y56878D01*
X147085Y56424D01*
X147190Y56030D01*
X147325Y55697D01*
X147490Y55424D01*
X147685Y55212D01*
X147910Y55060D01*
X148165Y54969D01*
X148450Y54939D01*
X142450D01*
X142735Y54969D01*
X142990Y55060D01*
X143215Y55212D01*
X143410Y55424D01*
X143575Y55697D01*
X143710Y56030D01*
X143815Y56424D01*
X143890Y56878D01*
X143919Y57206D01*
X143888Y57663D01*
X143860Y57823D01*
X143827Y57957D01*
X143790Y58068D01*
X143748Y58153D01*
X143700Y58215D01*
X147200D01*
X147153Y58153D01*
D02*
G37*
G36*
X148165Y45001D02*
X147910Y44910D01*
X147685Y44760D01*
X147490Y44550D01*
X147325Y44281D01*
X147190Y43951D01*
X147085Y43561D01*
X147032Y43245D01*
X147046Y43089D01*
X147121Y42699D01*
X147217Y42369D01*
X147335Y42099D01*
X147474Y41890D01*
X147634Y41740D01*
X147816Y41649D01*
X148020Y41620D01*
X142880D01*
X143084Y41649D01*
X143265Y41740D01*
X143426Y41890D01*
X143565Y42099D01*
X143683Y42369D01*
X143779Y42699D01*
X143854Y43089D01*
X143870Y43229D01*
X143815Y43561D01*
X143710Y43951D01*
X143575Y44281D01*
X143410Y44550D01*
X143215Y44760D01*
X142990Y44910D01*
X142735Y45001D01*
X142450Y45030D01*
X148450D01*
X148165Y45001D01*
D02*
G37*
G36*
X142880Y36981D02*
X142851Y37136D01*
X142760Y37276D01*
X142611Y37398D01*
X142401Y37505D01*
X142130Y37595D01*
X141800Y37669D01*
X141411Y37726D01*
X140961Y37767D01*
X139881Y37800D01*
Y40800D01*
X140450Y40808D01*
X141411Y40874D01*
X141800Y40931D01*
X142130Y41005D01*
X142401Y41095D01*
X142611Y41202D01*
X142760Y41325D01*
X142851Y41464D01*
X142880Y41620D01*
Y36981D01*
D02*
G37*
G36*
X135350Y41464D02*
X135440Y41325D01*
X135590Y41202D01*
X135800Y41095D01*
X136069Y41005D01*
X136399Y40931D01*
X136790Y40874D01*
X137240Y40833D01*
X138320Y40800D01*
Y37800D01*
X137750Y37792D01*
X136790Y37726D01*
X136399Y37669D01*
X136069Y37595D01*
X135800Y37505D01*
X135590Y37398D01*
X135440Y37276D01*
X135350Y37136D01*
X135319Y36981D01*
Y41620D01*
X135350Y41464D01*
D02*
G37*
G36*
X121753Y58153D02*
X121710Y58068D01*
X121672Y57957D01*
X121640Y57823D01*
X121613Y57663D01*
X121574Y57288D01*
X121610Y56878D01*
X121685Y56424D01*
X121790Y56030D01*
X121925Y55697D01*
X122090Y55424D01*
X122285Y55212D01*
X122510Y55060D01*
X122765Y54969D01*
X123050Y54939D01*
X117050D01*
X117335Y54969D01*
X117590Y55060D01*
X117815Y55212D01*
X118010Y55424D01*
X118175Y55697D01*
X118310Y56030D01*
X118415Y56424D01*
X118490Y56878D01*
X118519Y57206D01*
X118488Y57663D01*
X118460Y57823D01*
X118427Y57957D01*
X118390Y58068D01*
X118348Y58153D01*
X118300Y58215D01*
X121800D01*
X121753Y58153D01*
D02*
G37*
G36*
X122765Y45001D02*
X122510Y44910D01*
X122285Y44760D01*
X122090Y44550D01*
X121925Y44281D01*
X121790Y43951D01*
X121685Y43561D01*
X121632Y43245D01*
X121646Y43089D01*
X121721Y42699D01*
X121817Y42369D01*
X121935Y42099D01*
X122074Y41890D01*
X122234Y41740D01*
X122416Y41649D01*
X122619Y41620D01*
X117480D01*
X117684Y41649D01*
X117865Y41740D01*
X118026Y41890D01*
X118165Y42099D01*
X118283Y42369D01*
X118379Y42699D01*
X118454Y43089D01*
X118470Y43229D01*
X118415Y43561D01*
X118310Y43951D01*
X118175Y44281D01*
X118010Y44550D01*
X117815Y44760D01*
X117590Y44910D01*
X117335Y45001D01*
X117050Y45030D01*
X123050D01*
X122765Y45001D01*
D02*
G37*
G36*
X117480Y36981D02*
X117451Y37136D01*
X117360Y37276D01*
X117211Y37398D01*
X117001Y37505D01*
X116730Y37595D01*
X116400Y37669D01*
X116011Y37726D01*
X115561Y37767D01*
X114480Y37800D01*
Y40800D01*
X115050Y40808D01*
X116011Y40874D01*
X116400Y40931D01*
X116730Y41005D01*
X117001Y41095D01*
X117211Y41202D01*
X117360Y41325D01*
X117451Y41464D01*
X117480Y41620D01*
Y36981D01*
D02*
G37*
G36*
X109950Y41464D02*
X110040Y41325D01*
X110190Y41202D01*
X110400Y41095D01*
X110669Y41005D01*
X110999Y40931D01*
X111390Y40874D01*
X111840Y40833D01*
X112920Y40800D01*
Y37800D01*
X112350Y37792D01*
X111390Y37726D01*
X110999Y37669D01*
X110669Y37595D01*
X110400Y37505D01*
X110190Y37398D01*
X110040Y37276D01*
X109950Y37136D01*
X109920Y36981D01*
Y41620D01*
X109950Y41464D01*
D02*
G37*
G36*
X96353Y58153D02*
X96310Y58068D01*
X96272Y57957D01*
X96240Y57823D01*
X96213Y57663D01*
X96174Y57288D01*
X96210Y56878D01*
X96285Y56424D01*
X96390Y56030D01*
X96525Y55697D01*
X96690Y55424D01*
X96885Y55212D01*
X97110Y55060D01*
X97365Y54969D01*
X97650Y54939D01*
X91650D01*
X91935Y54969D01*
X92190Y55060D01*
X92415Y55212D01*
X92610Y55424D01*
X92775Y55697D01*
X92910Y56030D01*
X93015Y56424D01*
X93090Y56878D01*
X93119Y57206D01*
X93088Y57663D01*
X93060Y57823D01*
X93027Y57957D01*
X92990Y58068D01*
X92948Y58153D01*
X92900Y58215D01*
X96400D01*
X96353Y58153D01*
D02*
G37*
G36*
X97365Y45001D02*
X97110Y44910D01*
X96885Y44760D01*
X96690Y44550D01*
X96525Y44281D01*
X96390Y43951D01*
X96285Y43561D01*
X96232Y43245D01*
X96246Y43089D01*
X96321Y42699D01*
X96417Y42369D01*
X96535Y42099D01*
X96674Y41890D01*
X96834Y41740D01*
X97016Y41649D01*
X97219Y41620D01*
X92080D01*
X92284Y41649D01*
X92465Y41740D01*
X92626Y41890D01*
X92765Y42099D01*
X92883Y42369D01*
X92979Y42699D01*
X93054Y43089D01*
X93070Y43229D01*
X93015Y43561D01*
X92910Y43951D01*
X92775Y44281D01*
X92610Y44550D01*
X92415Y44760D01*
X92190Y44910D01*
X91935Y45001D01*
X91650Y45030D01*
X97650D01*
X97365Y45001D01*
D02*
G37*
G36*
X92080Y36981D02*
X92051Y37136D01*
X91960Y37276D01*
X91811Y37398D01*
X91601Y37505D01*
X91330Y37595D01*
X91000Y37669D01*
X90611Y37726D01*
X90161Y37767D01*
X89080Y37800D01*
Y40800D01*
X89650Y40808D01*
X90611Y40874D01*
X91000Y40931D01*
X91330Y41005D01*
X91601Y41095D01*
X91811Y41202D01*
X91960Y41325D01*
X92051Y41464D01*
X92080Y41620D01*
Y36981D01*
D02*
G37*
G36*
X84550Y41464D02*
X84640Y41325D01*
X84789Y41202D01*
X85000Y41095D01*
X85269Y41005D01*
X85599Y40931D01*
X85990Y40874D01*
X86440Y40833D01*
X87520Y40800D01*
Y37800D01*
X86950Y37792D01*
X85990Y37726D01*
X85599Y37669D01*
X85269Y37595D01*
X85000Y37505D01*
X84789Y37398D01*
X84640Y37276D01*
X84550Y37136D01*
X84520Y36981D01*
Y41620D01*
X84550Y41464D01*
D02*
G37*
G36*
X70953Y58153D02*
X70910Y58068D01*
X70873Y57957D01*
X70840Y57823D01*
X70813Y57663D01*
X70774Y57288D01*
X70810Y56878D01*
X70885Y56424D01*
X70990Y56030D01*
X71125Y55697D01*
X71290Y55424D01*
X71485Y55212D01*
X71710Y55060D01*
X71965Y54969D01*
X72250Y54939D01*
X66250D01*
X66535Y54969D01*
X66790Y55060D01*
X67015Y55212D01*
X67210Y55424D01*
X67375Y55697D01*
X67510Y56030D01*
X67615Y56424D01*
X67690Y56878D01*
X67719Y57206D01*
X67688Y57663D01*
X67660Y57823D01*
X67628Y57957D01*
X67590Y58068D01*
X67547Y58153D01*
X67500Y58215D01*
X71000D01*
X70953Y58153D01*
D02*
G37*
G36*
X71965Y45001D02*
X71710Y44910D01*
X71485Y44760D01*
X71290Y44550D01*
X71125Y44281D01*
X70990Y43951D01*
X70885Y43561D01*
X70832Y43245D01*
X70846Y43089D01*
X70921Y42699D01*
X71017Y42369D01*
X71135Y42099D01*
X71274Y41890D01*
X71434Y41740D01*
X71616Y41649D01*
X71820Y41620D01*
X66680D01*
X66884Y41649D01*
X67066Y41740D01*
X67226Y41890D01*
X67365Y42099D01*
X67483Y42369D01*
X67579Y42699D01*
X67654Y43089D01*
X67670Y43229D01*
X67615Y43561D01*
X67510Y43951D01*
X67375Y44281D01*
X67210Y44550D01*
X67015Y44760D01*
X66790Y44910D01*
X66535Y45001D01*
X66250Y45030D01*
X72250D01*
X71965Y45001D01*
D02*
G37*
G36*
X66680Y36981D02*
X66651Y37136D01*
X66561Y37276D01*
X66410Y37398D01*
X66200Y37505D01*
X65931Y37595D01*
X65601Y37669D01*
X65210Y37726D01*
X64760Y37767D01*
X63681Y37800D01*
Y40800D01*
X64250Y40808D01*
X65210Y40874D01*
X65601Y40931D01*
X65931Y41005D01*
X66200Y41095D01*
X66410Y41202D01*
X66561Y41325D01*
X66651Y41464D01*
X66680Y41620D01*
Y36981D01*
D02*
G37*
G36*
X59149Y41464D02*
X59240Y41325D01*
X59390Y41202D01*
X59599Y41095D01*
X59869Y41005D01*
X60199Y40931D01*
X60589Y40874D01*
X61040Y40833D01*
X62119Y40800D01*
Y37800D01*
X61550Y37792D01*
X60589Y37726D01*
X60199Y37669D01*
X59869Y37595D01*
X59599Y37505D01*
X59390Y37398D01*
X59240Y37276D01*
X59149Y37136D01*
X59120Y36981D01*
Y41620D01*
X59149Y41464D01*
D02*
G37*
G36*
X22153Y58153D02*
X22110Y58068D01*
X22073Y57957D01*
X22040Y57823D01*
X22013Y57663D01*
X21974Y57288D01*
X22010Y56878D01*
X22085Y56424D01*
X22190Y56030D01*
X22325Y55697D01*
X22490Y55424D01*
X22685Y55212D01*
X22910Y55060D01*
X23165Y54969D01*
X23450Y54939D01*
X17450D01*
X17735Y54969D01*
X17990Y55060D01*
X18215Y55212D01*
X18410Y55424D01*
X18575Y55697D01*
X18710Y56030D01*
X18815Y56424D01*
X18890Y56878D01*
X18919Y57206D01*
X18887Y57663D01*
X18860Y57823D01*
X18828Y57957D01*
X18790Y58068D01*
X18748Y58153D01*
X18700Y58215D01*
X22200D01*
X22153Y58153D01*
D02*
G37*
G36*
X23165Y45001D02*
X22910Y44910D01*
X22685Y44760D01*
X22490Y44550D01*
X22325Y44281D01*
X22190Y43951D01*
X22085Y43561D01*
X22032Y43245D01*
X22046Y43089D01*
X22121Y42699D01*
X22217Y42369D01*
X22335Y42099D01*
X22474Y41890D01*
X22634Y41740D01*
X22816Y41649D01*
X23019Y41620D01*
X17881D01*
X18084Y41649D01*
X18266Y41740D01*
X18426Y41890D01*
X18565Y42099D01*
X18683Y42369D01*
X18779Y42699D01*
X18854Y43089D01*
X18870Y43229D01*
X18815Y43561D01*
X18710Y43951D01*
X18575Y44281D01*
X18410Y44550D01*
X18215Y44760D01*
X17990Y44910D01*
X17735Y45001D01*
X17450Y45030D01*
X23450D01*
X23165Y45001D01*
D02*
G37*
G36*
X17881Y36981D02*
X17851Y37136D01*
X17760Y37276D01*
X17610Y37398D01*
X17400Y37505D01*
X17131Y37595D01*
X16801Y37669D01*
X16410Y37726D01*
X15961Y37767D01*
X14880Y37800D01*
Y40800D01*
X15451Y40808D01*
X16410Y40874D01*
X16801Y40931D01*
X17131Y41005D01*
X17400Y41095D01*
X17610Y41202D01*
X17760Y41325D01*
X17851Y41464D01*
X17881Y41620D01*
Y36981D01*
D02*
G37*
G36*
X10350Y41464D02*
X10439Y41325D01*
X10589Y41202D01*
X10799Y41095D01*
X11070Y41005D01*
X11400Y40931D01*
X11789Y40874D01*
X12240Y40833D01*
X13319Y40800D01*
Y37800D01*
X12750Y37792D01*
X11789Y37726D01*
X11400Y37669D01*
X11070Y37595D01*
X10799Y37505D01*
X10589Y37398D01*
X10439Y37276D01*
X10350Y37136D01*
X10319Y36981D01*
Y41620D01*
X10350Y41464D01*
D02*
G37*
G36*
X-3248Y58153D02*
X-3290Y58068D01*
X-3327Y57957D01*
X-3360Y57823D01*
X-3388Y57663D01*
X-3426Y57288D01*
X-3390Y56878D01*
X-3315Y56424D01*
X-3210Y56030D01*
X-3075Y55697D01*
X-2910Y55424D01*
X-2715Y55212D01*
X-2490Y55060D01*
X-2235Y54969D01*
X-1950Y54939D01*
X-7950D01*
X-7665Y54969D01*
X-7410Y55060D01*
X-7185Y55212D01*
X-6990Y55424D01*
X-6825Y55697D01*
X-6690Y56030D01*
X-6585Y56424D01*
X-6510Y56878D01*
X-6481Y57206D01*
X-6513Y57663D01*
X-6540Y57823D01*
X-6572Y57957D01*
X-6610Y58068D01*
X-6653Y58153D01*
X-6700Y58215D01*
X-3200D01*
X-3248Y58153D01*
D02*
G37*
G36*
X-2235Y45001D02*
X-2490Y44910D01*
X-2715Y44760D01*
X-2910Y44550D01*
X-3075Y44281D01*
X-3210Y43951D01*
X-3315Y43561D01*
X-3368Y43245D01*
X-3354Y43089D01*
X-3279Y42699D01*
X-3183Y42369D01*
X-3065Y42099D01*
X-2926Y41890D01*
X-2765Y41740D01*
X-2584Y41649D01*
X-2380Y41620D01*
X-7520D01*
X-7316Y41649D01*
X-7135Y41740D01*
X-6974Y41890D01*
X-6835Y42099D01*
X-6717Y42369D01*
X-6621Y42699D01*
X-6546Y43089D01*
X-6530Y43229D01*
X-6585Y43561D01*
X-6690Y43951D01*
X-6825Y44281D01*
X-6990Y44550D01*
X-7185Y44760D01*
X-7410Y44910D01*
X-7665Y45001D01*
X-7950Y45030D01*
X-1950D01*
X-2235Y45001D01*
D02*
G37*
G36*
X-7520Y36981D02*
X-7549Y37136D01*
X-7639Y37276D01*
X-7789Y37398D01*
X-8000Y37505D01*
X-8270Y37595D01*
X-8600Y37669D01*
X-8989Y37726D01*
X-9439Y37767D01*
X-10519Y37800D01*
Y40800D01*
X-9949Y40808D01*
X-8989Y40874D01*
X-8600Y40931D01*
X-8270Y41005D01*
X-8000Y41095D01*
X-7789Y41202D01*
X-7639Y41325D01*
X-7549Y41464D01*
X-7520Y41620D01*
Y36981D01*
D02*
G37*
G36*
X-15050Y41464D02*
X-14961Y41325D01*
X-14811Y41202D01*
X-14600Y41095D01*
X-14331Y41005D01*
X-14001Y40931D01*
X-13611Y40874D01*
X-13161Y40833D01*
X-12081Y40800D01*
Y37800D01*
X-12651Y37792D01*
X-13611Y37726D01*
X-14001Y37669D01*
X-14331Y37595D01*
X-14600Y37505D01*
X-14811Y37398D01*
X-14961Y37276D01*
X-15050Y37136D01*
X-15080Y36981D01*
Y41620D01*
X-15050Y41464D01*
D02*
G37*
G36*
X-28647Y58153D02*
X-28690Y58068D01*
X-28728Y57957D01*
X-28760Y57823D01*
X-28788Y57663D01*
X-28826Y57288D01*
X-28790Y56878D01*
X-28715Y56424D01*
X-28610Y56030D01*
X-28475Y55697D01*
X-28310Y55424D01*
X-28115Y55212D01*
X-27890Y55060D01*
X-27635Y54969D01*
X-27350Y54939D01*
X-33350D01*
X-33065Y54969D01*
X-32810Y55060D01*
X-32585Y55212D01*
X-32390Y55424D01*
X-32225Y55697D01*
X-32090Y56030D01*
X-31985Y56424D01*
X-31910Y56878D01*
X-31881Y57206D01*
X-31913Y57663D01*
X-31940Y57823D01*
X-31972Y57957D01*
X-32010Y58068D01*
X-32053Y58153D01*
X-32100Y58215D01*
X-28600D01*
X-28647Y58153D01*
D02*
G37*
G36*
X-27635Y45001D02*
X-27890Y44910D01*
X-28115Y44760D01*
X-28310Y44550D01*
X-28475Y44281D01*
X-28610Y43951D01*
X-28715Y43561D01*
X-28768Y43245D01*
X-28754Y43089D01*
X-28679Y42699D01*
X-28583Y42369D01*
X-28465Y42099D01*
X-28326Y41890D01*
X-28166Y41740D01*
X-27984Y41649D01*
X-27780Y41620D01*
X-32919D01*
X-32716Y41649D01*
X-32534Y41740D01*
X-32374Y41890D01*
X-32235Y42099D01*
X-32117Y42369D01*
X-32021Y42699D01*
X-31946Y43089D01*
X-31930Y43229D01*
X-31985Y43561D01*
X-32090Y43951D01*
X-32225Y44281D01*
X-32390Y44550D01*
X-32585Y44760D01*
X-32810Y44910D01*
X-33065Y45001D01*
X-33350Y45030D01*
X-27350D01*
X-27635Y45001D01*
D02*
G37*
G36*
X-32919Y36981D02*
X-32950Y37136D01*
X-33040Y37276D01*
X-33189Y37398D01*
X-33400Y37505D01*
X-33670Y37595D01*
X-34000Y37669D01*
X-34390Y37726D01*
X-34839Y37767D01*
X-35919Y37800D01*
Y40800D01*
X-35350Y40808D01*
X-34390Y40874D01*
X-34000Y40931D01*
X-33670Y41005D01*
X-33400Y41095D01*
X-33189Y41202D01*
X-33040Y41325D01*
X-32950Y41464D01*
X-32919Y41620D01*
Y36981D01*
D02*
G37*
G36*
X-40451Y41464D02*
X-40360Y41325D01*
X-40210Y41202D01*
X-40001Y41095D01*
X-39731Y41005D01*
X-39400Y40931D01*
X-39011Y40874D01*
X-38561Y40833D01*
X-37480Y40800D01*
Y37800D01*
X-38050Y37792D01*
X-39011Y37726D01*
X-39400Y37669D01*
X-39731Y37595D01*
X-40001Y37505D01*
X-40210Y37398D01*
X-40360Y37276D01*
X-40451Y37136D01*
X-40480Y36981D01*
Y41620D01*
X-40451Y41464D01*
D02*
G37*
G36*
X-54047Y58153D02*
X-54090Y58068D01*
X-54127Y57957D01*
X-54160Y57823D01*
X-54187Y57663D01*
X-54226Y57288D01*
X-54190Y56878D01*
X-54115Y56424D01*
X-54010Y56030D01*
X-53875Y55697D01*
X-53710Y55424D01*
X-53515Y55212D01*
X-53290Y55060D01*
X-53035Y54969D01*
X-52750Y54939D01*
X-58750D01*
X-58465Y54969D01*
X-58210Y55060D01*
X-57985Y55212D01*
X-57790Y55424D01*
X-57625Y55697D01*
X-57490Y56030D01*
X-57385Y56424D01*
X-57310Y56878D01*
X-57281Y57206D01*
X-57312Y57663D01*
X-57340Y57823D01*
X-57372Y57957D01*
X-57410Y58068D01*
X-57453Y58153D01*
X-57500Y58215D01*
X-54000D01*
X-54047Y58153D01*
D02*
G37*
G36*
X-53035Y45001D02*
X-53290Y44910D01*
X-53515Y44760D01*
X-53710Y44550D01*
X-53875Y44281D01*
X-54010Y43951D01*
X-54115Y43561D01*
X-54168Y43245D01*
X-54154Y43089D01*
X-54079Y42699D01*
X-53983Y42369D01*
X-53865Y42099D01*
X-53726Y41890D01*
X-53566Y41740D01*
X-53384Y41649D01*
X-53180Y41620D01*
X-58320D01*
X-58116Y41649D01*
X-57934Y41740D01*
X-57774Y41890D01*
X-57635Y42099D01*
X-57517Y42369D01*
X-57421Y42699D01*
X-57346Y43089D01*
X-57330Y43229D01*
X-57385Y43561D01*
X-57490Y43951D01*
X-57625Y44281D01*
X-57790Y44550D01*
X-57985Y44760D01*
X-58210Y44910D01*
X-58465Y45001D01*
X-58750Y45030D01*
X-52750D01*
X-53035Y45001D01*
D02*
G37*
G36*
X-58320Y36981D02*
X-58349Y37136D01*
X-58439Y37276D01*
X-58590Y37398D01*
X-58800Y37505D01*
X-59069Y37595D01*
X-59399Y37669D01*
X-59790Y37726D01*
X-60240Y37767D01*
X-61319Y37800D01*
Y40800D01*
X-60750Y40808D01*
X-59790Y40874D01*
X-59399Y40931D01*
X-59069Y41005D01*
X-58800Y41095D01*
X-58590Y41202D01*
X-58439Y41325D01*
X-58349Y41464D01*
X-58320Y41620D01*
Y36981D01*
D02*
G37*
G36*
X-65851Y41464D02*
X-65760Y41325D01*
X-65610Y41202D01*
X-65401Y41095D01*
X-65131Y41005D01*
X-64801Y40931D01*
X-64411Y40874D01*
X-63960Y40833D01*
X-62881Y40800D01*
Y37800D01*
X-63450Y37792D01*
X-64411Y37726D01*
X-64801Y37669D01*
X-65131Y37595D01*
X-65401Y37505D01*
X-65610Y37398D01*
X-65760Y37276D01*
X-65851Y37136D01*
X-65880Y36981D01*
Y41620D01*
X-65851Y41464D01*
D02*
G37*
D20*
X156500Y-18500D02*
D03*
X148500D02*
D03*
X140500D02*
D03*
X132500D02*
D03*
X124500D02*
D03*
X116500D02*
D03*
X108500D02*
D03*
X100500D02*
D03*
X92500D02*
D03*
X84500D02*
D03*
X76500D02*
D03*
X68500D02*
D03*
X60500D02*
D03*
X52500D02*
D03*
X44500D02*
D03*
X36500D02*
D03*
X28500D02*
D03*
X20500D02*
D03*
X-19500D02*
D03*
X-27500D02*
D03*
X-35500D02*
D03*
X-43500D02*
D03*
X-51500D02*
D03*
X-59500D02*
D03*
X-67500D02*
D03*
X-75500D02*
D03*
D21*
X20500D02*
Y0D01*
X-19500Y-18500D02*
Y0D01*
X156500Y-18500D02*
Y0D01*
X132500Y-18500D02*
Y0D01*
X116500Y-18500D02*
Y0D01*
X44500Y-18500D02*
Y0D01*
X94650Y50000D02*
Y60000D01*
Y39300D02*
Y50000D01*
X-51500Y-18500D02*
Y0D01*
X52500Y-18500D02*
Y0D01*
X60500Y-18500D02*
Y0D01*
X68500Y-18500D02*
Y0D01*
X76500Y-18500D02*
Y0D01*
X84500Y-18500D02*
Y0D01*
X92500Y-18500D02*
Y0D01*
X100500Y-18500D02*
Y0D01*
X108500Y-18500D02*
Y0D01*
X145450Y50000D02*
Y60000D01*
X132750Y50000D02*
Y60000D01*
X120050Y50000D02*
Y60000D01*
X107350Y50000D02*
Y60000D01*
X81950Y50000D02*
Y60000D01*
X69250Y50000D02*
Y60000D01*
X56550Y50000D02*
Y60000D01*
X-68450Y50000D02*
Y60000D01*
X-43050Y50000D02*
Y60000D01*
X-17650Y50000D02*
Y60000D01*
X7750Y50000D02*
Y60000D01*
X20450Y50000D02*
Y60000D01*
X-4950Y50000D02*
Y60000D01*
X-30350Y50000D02*
Y60000D01*
X-55750Y50000D02*
Y60000D01*
X132750Y39300D02*
X145450D01*
Y50000D01*
X107350Y39300D02*
X120050D01*
Y50000D01*
X81950Y39300D02*
X94650D01*
X56550D02*
X69250D01*
Y50000D01*
X7750Y39300D02*
X20450D01*
Y50000D01*
X-17650Y39300D02*
X-4950D01*
Y50000D01*
X-43050Y39300D02*
X-30350D01*
Y50000D01*
X-55750Y39300D02*
Y50000D01*
X-68450Y39300D02*
X-55750D01*
X-48999Y204350D02*
Y240000D01*
X-23999Y204350D02*
Y240000D01*
X1001Y204350D02*
Y240000D01*
X26001Y204350D02*
Y240000D01*
X51001Y204350D02*
Y240000D01*
X76001Y204350D02*
Y240000D01*
X101001Y204350D02*
Y240000D01*
X126001Y204350D02*
Y240000D01*
Y175650D02*
Y185650D01*
X101001Y175650D02*
Y185650D01*
X76001Y175650D02*
Y185650D01*
X51001Y175650D02*
Y185650D01*
X26001Y175650D02*
Y185650D01*
X1001Y175650D02*
Y185650D01*
X-23999Y175650D02*
Y185650D01*
X-48999Y175650D02*
Y185650D01*
X132750Y120000D02*
Y130000D01*
X107350Y120000D02*
Y130000D01*
X81950Y120000D02*
Y130000D01*
X56550Y120000D02*
Y130000D01*
X7750Y120000D02*
Y130000D01*
X-17650Y120000D02*
Y130000D01*
X-43050Y120000D02*
Y130000D01*
X-68450Y120000D02*
Y130000D01*
D22*
X-82500Y448000D02*
D03*
X159500D02*
D03*
D23*
X1000Y240000D02*
D03*
X26000D02*
D03*
X-74000D02*
D03*
X-24000D02*
D03*
X-49000D02*
D03*
X126000D02*
D03*
X101000D02*
D03*
X76000D02*
D03*
X51000D02*
D03*
D24*
X151000D02*
D03*
D25*
X-55750Y130000D02*
D03*
X40000Y60000D02*
D03*
X180000D02*
D03*
X160000D02*
D03*
Y40000D02*
D03*
X180000D02*
D03*
X160000Y-0D02*
D03*
X140000D02*
D03*
X180000Y20000D02*
D03*
X160000D02*
D03*
X140000D02*
D03*
X145450Y130000D02*
D03*
X120050D02*
D03*
X94650D02*
D03*
X69250D02*
D03*
X-30350D02*
D03*
X-4950D02*
D03*
X20450D02*
D03*
X40000Y-0D02*
D03*
X20000D02*
D03*
X40000Y20000D02*
D03*
X20000D02*
D03*
X0D02*
D03*
X-20000Y-0D02*
D03*
X-40000D02*
D03*
X-20000Y20000D02*
D03*
X-40000D02*
D03*
X-60000D02*
D03*
Y-0D02*
D03*
X-80000D02*
D03*
Y20000D02*
D03*
Y40000D02*
D03*
X-100000Y20000D02*
D03*
Y40000D02*
D03*
X-80000Y60000D02*
D03*
X-100000D02*
D03*
X94650Y60000D02*
D03*
X-51500Y0D02*
D03*
X52500D02*
D03*
X60500D02*
D03*
X68500D02*
D03*
X76500D02*
D03*
X84500D02*
D03*
X92500D02*
D03*
X100500D02*
D03*
X108500D02*
D03*
X145450Y60000D02*
D03*
X132750D02*
D03*
X120050D02*
D03*
X107350D02*
D03*
X81950D02*
D03*
X69250D02*
D03*
X56550D02*
D03*
X-68450D02*
D03*
X-43050D02*
D03*
X-17650D02*
D03*
X7750D02*
D03*
X20450D02*
D03*
X-4950D02*
D03*
X-30350D02*
D03*
X-55750D02*
D03*
X126001Y175650D02*
D03*
X101001D02*
D03*
X76001D02*
D03*
X51001D02*
D03*
X26001D02*
D03*
X1001D02*
D03*
X-23999D02*
D03*
X-48999D02*
D03*
X132750Y130000D02*
D03*
X107350D02*
D03*
X81950D02*
D03*
X56550D02*
D03*
X7750D02*
D03*
X-17650D02*
D03*
X-43050D02*
D03*
X-68450D02*
D03*
D27*
X-43050Y50000D02*
D03*
X-30350D02*
D03*
X-17650D02*
D03*
X-4950D02*
D03*
Y120000D02*
D03*
X-17650D02*
D03*
X-30350D02*
D03*
X-43050D02*
D03*
X-55750D02*
D03*
X7750D02*
D03*
Y50000D02*
D03*
X-55750D02*
D03*
X-68450Y120000D02*
D03*
Y50000D02*
D03*
X20450Y120000D02*
D03*
Y50000D02*
D03*
X81950D02*
D03*
X94650D02*
D03*
X107350D02*
D03*
X120050D02*
D03*
Y120000D02*
D03*
X107350D02*
D03*
X94650D02*
D03*
X81950D02*
D03*
X69250D02*
D03*
X132750D02*
D03*
Y50000D02*
D03*
X69250D02*
D03*
X56550Y120000D02*
D03*
Y50000D02*
D03*
X145450Y120000D02*
D03*
Y50000D02*
D03*
D28*
X76001Y204350D02*
D03*
Y185650D02*
D03*
X51001Y204350D02*
D03*
Y185650D02*
D03*
X101001Y204350D02*
D03*
Y185650D02*
D03*
X26001Y204350D02*
D03*
Y185650D02*
D03*
X1001Y204350D02*
D03*
Y185650D02*
D03*
X-23999Y204350D02*
D03*
Y185650D02*
D03*
X-48999Y204350D02*
D03*
Y185650D02*
D03*
X126001Y204350D02*
D03*
Y185650D02*
D03*
D29*
X-55750Y30700D02*
D03*
Y39300D02*
D03*
X132750D02*
D03*
Y30700D02*
D03*
X107350Y39300D02*
D03*
Y30700D02*
D03*
X81950Y39300D02*
D03*
Y30700D02*
D03*
X-68450Y39300D02*
D03*
Y30700D02*
D03*
X7750Y39300D02*
D03*
Y30700D02*
D03*
X94650D02*
D03*
Y39300D02*
D03*
X-43050D02*
D03*
Y30700D02*
D03*
X69250D02*
D03*
Y39300D02*
D03*
X56550D02*
D03*
Y30700D02*
D03*
X20450D02*
D03*
Y39300D02*
D03*
X120050Y30700D02*
D03*
Y39300D02*
D03*
X-4950Y30700D02*
D03*
Y39300D02*
D03*
X-17650D02*
D03*
Y30700D02*
D03*
X-30350D02*
D03*
Y39300D02*
D03*
X145450Y30700D02*
D03*
Y39300D02*
D03*
M02*
