G04*
G04 #@! TF.GenerationSoftware,Altium Limited,Altium Designer,23.3.1 (30)*
G04*
G04 Layer_Color=32896*
%FSLAX44Y44*%
%MOMM*%
G71*
G04*
G04 #@! TF.SameCoordinates,B0EE65AD-7F72-4637-8529-5AC13AF0589E*
G04*
G04*
G04 #@! TF.FilePolarity,Positive*
G04*
G01*
G75*
%ADD34C,0.0100*%
D34*
X-48999Y147500D02*
Y152500D01*
X-51499Y150000D02*
X-46499D01*
X-52749Y157500D02*
X-45249D01*
X-52749Y142500D02*
X-45249D01*
X-52749D02*
Y157500D01*
X-45249Y142500D02*
Y157500D01*
X-23999Y147500D02*
Y152500D01*
X-26499Y150000D02*
X-21499D01*
X-27749Y157500D02*
X-20249D01*
X-27749Y142500D02*
X-20249D01*
X-27749D02*
Y157500D01*
X-20249Y142500D02*
Y157500D01*
X1001Y147500D02*
Y152500D01*
X-1499Y150000D02*
X3501D01*
X-2749Y157500D02*
X4751D01*
X-2749Y142500D02*
X4751D01*
X-2749D02*
Y157500D01*
X4751Y142500D02*
Y157500D01*
X26001Y147500D02*
Y152500D01*
X23501Y150000D02*
X28501D01*
X22251Y157500D02*
X29751D01*
X22251Y142500D02*
X29751D01*
X22251D02*
Y157500D01*
X29751Y142500D02*
Y157500D01*
X51001Y147500D02*
Y152500D01*
X48501Y150000D02*
X53501D01*
X47251Y157500D02*
X54751D01*
X47251Y142500D02*
X54751D01*
X47251D02*
Y157500D01*
X54751Y142500D02*
Y157500D01*
X76000Y147500D02*
Y152500D01*
X73500Y150000D02*
X78500D01*
X72250Y157500D02*
X79750D01*
X72250Y142500D02*
X79750D01*
X72250D02*
Y157500D01*
X79750Y142500D02*
Y157500D01*
X101000Y147500D02*
Y152500D01*
X98500Y150000D02*
X103500D01*
X97250Y157500D02*
X104750D01*
X97250Y142500D02*
X104750D01*
X97250D02*
Y157500D01*
X104750Y142500D02*
Y157500D01*
X126000Y147500D02*
Y152500D01*
X123500Y150000D02*
X128500D01*
X122250Y157500D02*
X129750D01*
X122250Y142500D02*
X129750D01*
X122250D02*
Y157500D01*
X129750Y142500D02*
Y157500D01*
X36000Y240000D02*
X41000D01*
X38500Y237500D02*
Y242500D01*
X168500Y210000D02*
Y335000D01*
X-91500D02*
X168500D01*
X-91500Y210000D02*
Y335000D01*
Y210000D02*
X168500D01*
M02*
