G04*
G04 #@! TF.GenerationSoftware,Altium Limited,Altium Designer,23.3.1 (30)*
G04*
G04 Layer_Physical_Order=3*
G04 Layer_Color=16440176*
%FSLAX44Y44*%
%MOMM*%
G71*
G04*
G04 #@! TF.SameCoordinates,B0EE65AD-7F72-4637-8529-5AC13AF0589E*
G04*
G04*
G04 #@! TF.FilePolarity,Positive*
G04*
G01*
G75*
%ADD21C,0.3000*%
%ADD23C,1.3500*%
%ADD25C,0.5000*%
%ADD26C,3.0000*%
G36*
X185951Y2049D02*
X175000D01*
X174938Y2036D01*
X174875Y2046D01*
X174091Y2007D01*
X173908Y1961D01*
X173719D01*
X172181Y1655D01*
X171949Y1559D01*
X171702Y1510D01*
X170253Y910D01*
X170045Y771D01*
X169813Y675D01*
X168509Y-197D01*
X168331Y-374D01*
X168123Y-514D01*
X167014Y-1623D01*
X166874Y-1831D01*
X166697Y-2009D01*
X165825Y-3313D01*
X165729Y-3545D01*
X165590Y-3753D01*
X164990Y-5202D01*
X164941Y-5449D01*
X164845Y-5681D01*
X164539Y-7219D01*
Y-7408D01*
X164493Y-7591D01*
X164454Y-8375D01*
X164464Y-8438D01*
X164451Y-8500D01*
Y-29951D01*
X10049D01*
X10049Y0D01*
X10032Y83D01*
X10043Y167D01*
X9979Y1146D01*
X9914Y1388D01*
X9898Y1639D01*
X9391Y3530D01*
X9244Y3829D01*
X9136Y4144D01*
X8158Y5840D01*
X7938Y6091D01*
X7752Y6368D01*
X6368Y7752D01*
X6091Y7938D01*
X5840Y8158D01*
X4144Y9136D01*
X3829Y9244D01*
X3530Y9391D01*
X1639Y9898D01*
X1306Y9920D01*
X979Y9985D01*
X-979D01*
X-1306Y9920D01*
X-1639Y9898D01*
X-3530Y9391D01*
X-3829Y9244D01*
X-4145Y9136D01*
X-5840Y8158D01*
X-6091Y7938D01*
X-6368Y7752D01*
X-7753Y6368D01*
X-7938Y6091D01*
X-8158Y5840D01*
X-9136Y4144D01*
X-9244Y3829D01*
X-9391Y3530D01*
X-9898Y1639D01*
X-9914Y1388D01*
X-9979Y1146D01*
X-10043Y167D01*
X-10032Y83D01*
X-10049Y0D01*
Y-29951D01*
X-87451D01*
Y-8500D01*
X-87464Y-8438D01*
X-87454Y-8375D01*
X-87493Y-7591D01*
X-87539Y-7408D01*
Y-7219D01*
X-87845Y-5681D01*
X-87941Y-5448D01*
X-87990Y-5202D01*
X-88590Y-3753D01*
X-88729Y-3545D01*
X-88825Y-3313D01*
X-89697Y-2009D01*
X-89874Y-1831D01*
X-90014Y-1623D01*
X-91123Y-514D01*
X-91331Y-374D01*
X-91509Y-197D01*
X-92813Y675D01*
X-93045Y771D01*
X-93253Y910D01*
X-94702Y1510D01*
X-94949Y1559D01*
X-95181Y1655D01*
X-96719Y1961D01*
X-96908D01*
X-97091Y2007D01*
X-97875Y2046D01*
X-97938Y2036D01*
X-98000Y2049D01*
X-108951D01*
X-108951Y86360D01*
X185951D01*
X185951Y2049D01*
D02*
G37*
%LPC*%
G36*
X127000Y78749D02*
X-62230D01*
X-63205Y78555D01*
X-64032Y78002D01*
X-70252Y71782D01*
X-70805Y70956D01*
X-70999Y69980D01*
Y63588D01*
X-71032Y63509D01*
X-71035Y63245D01*
X-71053Y62806D01*
X-71086Y62484D01*
X-71101Y62397D01*
X-71112Y62347D01*
X-71122Y62327D01*
X-71123Y62315D01*
X-71135Y62281D01*
X-71134Y62266D01*
X-71417Y61983D01*
X-71950Y60696D01*
Y59304D01*
X-71417Y58017D01*
X-71134Y57734D01*
X-71135Y57719D01*
X-71123Y57685D01*
X-71122Y57673D01*
X-71112Y57653D01*
X-71101Y57603D01*
X-71089Y57534D01*
X-71035Y56740D01*
X-71032Y56490D01*
X-70999Y56412D01*
Y39240D01*
X-70805Y38265D01*
X-70252Y37438D01*
X-54049Y21234D01*
Y3588D01*
X-54082Y3510D01*
X-54085Y3245D01*
X-54103Y2806D01*
X-54135Y2484D01*
X-54151Y2397D01*
X-54163Y2347D01*
X-54172Y2327D01*
X-54173Y2315D01*
X-54185Y2281D01*
X-54184Y2266D01*
X-54467Y1983D01*
X-55000Y696D01*
Y-696D01*
X-54467Y-1983D01*
X-53483Y-2967D01*
X-52196Y-3500D01*
X-50804D01*
X-49517Y-2967D01*
X-48533Y-1983D01*
X-48000Y-696D01*
Y696D01*
X-48533Y1983D01*
X-48816Y2266D01*
X-48815Y2281D01*
X-48827Y2315D01*
X-48828Y2327D01*
X-48837Y2347D01*
X-48850Y2397D01*
X-48861Y2466D01*
X-48915Y3260D01*
X-48918Y3510D01*
X-48951Y3588D01*
Y22290D01*
X-49145Y23266D01*
X-49698Y24092D01*
X-65901Y40296D01*
Y56412D01*
X-65868Y56490D01*
X-65865Y56755D01*
X-65847Y57194D01*
X-65814Y57516D01*
X-65799Y57603D01*
X-65788Y57653D01*
X-65778Y57673D01*
X-65777Y57685D01*
X-65765Y57719D01*
X-65766Y57734D01*
X-65483Y58017D01*
X-64950Y59304D01*
Y60696D01*
X-65483Y61983D01*
X-65766Y62266D01*
X-65765Y62281D01*
X-65777Y62315D01*
X-65778Y62327D01*
X-65788Y62347D01*
X-65799Y62397D01*
X-65811Y62466D01*
X-65866Y63260D01*
X-65868Y63510D01*
X-65901Y63588D01*
Y68924D01*
X-61174Y73651D01*
X-45599D01*
Y63588D01*
X-45632Y63509D01*
X-45635Y63245D01*
X-45653Y62806D01*
X-45686Y62484D01*
X-45700Y62397D01*
X-45712Y62347D01*
X-45722Y62327D01*
X-45723Y62315D01*
X-45735Y62281D01*
X-45734Y62266D01*
X-46017Y61983D01*
X-46550Y60696D01*
Y59304D01*
X-46017Y58017D01*
X-45033Y57033D01*
X-43746Y56500D01*
X-42354D01*
X-41067Y57033D01*
X-40083Y58017D01*
X-39550Y59304D01*
Y60696D01*
X-40083Y61983D01*
X-40366Y62266D01*
X-40365Y62281D01*
X-40377Y62315D01*
X-40378Y62327D01*
X-40388Y62347D01*
X-40399Y62397D01*
X-40411Y62466D01*
X-40465Y63260D01*
X-40468Y63510D01*
X-40501Y63588D01*
Y73651D01*
X-20199D01*
Y63588D01*
X-20232Y63509D01*
X-20235Y63245D01*
X-20253Y62806D01*
X-20285Y62484D01*
X-20301Y62397D01*
X-20312Y62347D01*
X-20322Y62327D01*
X-20323Y62315D01*
X-20335Y62281D01*
X-20334Y62266D01*
X-20617Y61983D01*
X-21150Y60696D01*
Y59304D01*
X-20617Y58017D01*
X-19633Y57033D01*
X-18346Y56500D01*
X-16954D01*
X-15667Y57033D01*
X-14683Y58017D01*
X-14150Y59304D01*
Y60696D01*
X-14683Y61983D01*
X-14966Y62266D01*
X-14965Y62281D01*
X-14977Y62315D01*
X-14978Y62327D01*
X-14987Y62347D01*
X-15000Y62397D01*
X-15011Y62466D01*
X-15065Y63260D01*
X-15068Y63510D01*
X-15101Y63588D01*
Y73651D01*
X5201D01*
Y63588D01*
X5168Y63509D01*
X5165Y63245D01*
X5147Y62806D01*
X5114Y62484D01*
X5099Y62397D01*
X5088Y62347D01*
X5078Y62327D01*
X5077Y62315D01*
X5065Y62281D01*
X5066Y62266D01*
X4783Y61983D01*
X4250Y60696D01*
Y59304D01*
X4783Y58017D01*
X5767Y57033D01*
X7054Y56500D01*
X8446D01*
X9733Y57033D01*
X10717Y58017D01*
X11250Y59304D01*
Y60696D01*
X10717Y61983D01*
X10434Y62266D01*
X10435Y62281D01*
X10423Y62315D01*
X10422Y62327D01*
X10412Y62347D01*
X10401Y62397D01*
X10389Y62466D01*
X10335Y63260D01*
X10332Y63510D01*
X10299Y63588D01*
Y73651D01*
X54001D01*
Y63588D01*
X53968Y63509D01*
X53965Y63245D01*
X53947Y62806D01*
X53914Y62484D01*
X53899Y62397D01*
X53888Y62347D01*
X53878Y62327D01*
X53877Y62315D01*
X53865Y62281D01*
X53866Y62266D01*
X53583Y61983D01*
X53050Y60696D01*
Y59304D01*
X53583Y58017D01*
X54567Y57033D01*
X55854Y56500D01*
X57246D01*
X58533Y57033D01*
X59517Y58017D01*
X60050Y59304D01*
Y60696D01*
X59517Y61983D01*
X59234Y62266D01*
X59235Y62281D01*
X59223Y62315D01*
X59222Y62327D01*
X59212Y62347D01*
X59201Y62397D01*
X59189Y62466D01*
X59135Y63260D01*
X59132Y63510D01*
X59099Y63588D01*
Y73651D01*
X79401D01*
Y63588D01*
X79368Y63509D01*
X79365Y63245D01*
X79347Y62806D01*
X79314Y62484D01*
X79300Y62397D01*
X79288Y62347D01*
X79278Y62327D01*
X79277Y62315D01*
X79265Y62281D01*
X79266Y62266D01*
X78983Y61983D01*
X78450Y60696D01*
Y59304D01*
X78983Y58017D01*
X79967Y57033D01*
X81254Y56500D01*
X82646D01*
X83933Y57033D01*
X84917Y58017D01*
X85450Y59304D01*
Y60696D01*
X84917Y61983D01*
X84634Y62266D01*
X84635Y62281D01*
X84623Y62315D01*
X84622Y62327D01*
X84613Y62347D01*
X84600Y62397D01*
X84589Y62466D01*
X84535Y63260D01*
X84532Y63510D01*
X84499Y63588D01*
Y73651D01*
X104801D01*
Y63588D01*
X104768Y63509D01*
X104765Y63245D01*
X104747Y62806D01*
X104714Y62484D01*
X104699Y62397D01*
X104688Y62347D01*
X104678Y62327D01*
X104677Y62315D01*
X104665Y62281D01*
X104666Y62266D01*
X104383Y61983D01*
X103850Y60696D01*
Y59304D01*
X104383Y58017D01*
X105367Y57033D01*
X106654Y56500D01*
X108046D01*
X109333Y57033D01*
X110317Y58017D01*
X110850Y59304D01*
Y60696D01*
X110317Y61983D01*
X110034Y62266D01*
X110035Y62281D01*
X110023Y62315D01*
X110022Y62327D01*
X110013Y62347D01*
X110000Y62397D01*
X109989Y62466D01*
X109935Y63260D01*
X109932Y63510D01*
X109899Y63588D01*
Y73651D01*
X125944D01*
X130201Y69394D01*
Y63588D01*
X130168Y63509D01*
X130165Y63245D01*
X130147Y62806D01*
X130114Y62484D01*
X130099Y62397D01*
X130087Y62347D01*
X130078Y62327D01*
X130077Y62315D01*
X130065Y62281D01*
X130066Y62266D01*
X129783Y61983D01*
X129250Y60696D01*
Y59304D01*
X129783Y58017D01*
X130767Y57033D01*
X132054Y56500D01*
X133446D01*
X134733Y57033D01*
X135717Y58017D01*
X136250Y59304D01*
Y60696D01*
X135717Y61983D01*
X135434Y62266D01*
X135435Y62281D01*
X135423Y62315D01*
X135422Y62327D01*
X135413Y62347D01*
X135400Y62397D01*
X135389Y62466D01*
X135335Y63260D01*
X135332Y63510D01*
X135299Y63588D01*
Y70450D01*
X135105Y71425D01*
X134552Y72252D01*
X128802Y78002D01*
X127976Y78555D01*
X127000Y78749D01*
D02*
G37*
G36*
X146146Y63500D02*
X144754D01*
X143467Y62967D01*
X142483Y61983D01*
X141950Y60696D01*
Y59304D01*
X142483Y58017D01*
X142766Y57734D01*
X142765Y57719D01*
X142777Y57685D01*
X142778Y57673D01*
X142788Y57653D01*
X142800Y57603D01*
X142811Y57534D01*
X142865Y56740D01*
X142868Y56490D01*
X142901Y56412D01*
Y51256D01*
X106698Y15052D01*
X106145Y14225D01*
X105951Y13250D01*
Y3588D01*
X105918Y3510D01*
X105915Y3245D01*
X105897Y2806D01*
X105864Y2484D01*
X105850Y2397D01*
X105837Y2347D01*
X105828Y2327D01*
X105827Y2315D01*
X105815Y2281D01*
X105816Y2266D01*
X105533Y1983D01*
X105173Y1115D01*
X103827D01*
X103467Y1983D01*
X103184Y2266D01*
X103185Y2281D01*
X103173Y2315D01*
X103172Y2327D01*
X103162Y2347D01*
X103151Y2397D01*
X103139Y2466D01*
X103085Y3260D01*
X103082Y3510D01*
X103049Y3588D01*
Y29594D01*
X121852Y48398D01*
X122405Y49225D01*
X122599Y50200D01*
Y56412D01*
X122632Y56490D01*
X122635Y56755D01*
X122653Y57194D01*
X122685Y57516D01*
X122701Y57603D01*
X122712Y57653D01*
X122722Y57673D01*
X122723Y57685D01*
X122735Y57719D01*
X122734Y57734D01*
X123017Y58017D01*
X123550Y59304D01*
Y60696D01*
X123017Y61983D01*
X122033Y62967D01*
X120746Y63500D01*
X119354D01*
X118067Y62967D01*
X117083Y61983D01*
X116550Y60696D01*
Y59304D01*
X117083Y58017D01*
X117366Y57734D01*
X117365Y57719D01*
X117377Y57685D01*
X117378Y57673D01*
X117388Y57653D01*
X117400Y57603D01*
X117411Y57534D01*
X117465Y56740D01*
X117468Y56490D01*
X117501Y56412D01*
Y51256D01*
X98698Y32452D01*
X98145Y31625D01*
X97951Y30650D01*
Y3588D01*
X97918Y3510D01*
X97915Y3245D01*
X97897Y2806D01*
X97865Y2484D01*
X97850Y2397D01*
X97837Y2347D01*
X97828Y2327D01*
X97827Y2315D01*
X97815Y2281D01*
X97816Y2266D01*
X97533Y1983D01*
X97173Y1115D01*
X95827D01*
X95467Y1983D01*
X95184Y2266D01*
X95185Y2281D01*
X95173Y2315D01*
X95172Y2327D01*
X95162Y2347D01*
X95150Y2397D01*
X95139Y2466D01*
X95084Y3260D01*
X95082Y3510D01*
X95049Y3588D01*
Y46994D01*
X96452Y48398D01*
X97005Y49225D01*
X97199Y50200D01*
Y56412D01*
X97232Y56490D01*
X97235Y56755D01*
X97253Y57194D01*
X97285Y57516D01*
X97301Y57603D01*
X97312Y57653D01*
X97322Y57673D01*
X97323Y57685D01*
X97335Y57719D01*
X97334Y57734D01*
X97617Y58017D01*
X98150Y59304D01*
Y60696D01*
X97617Y61983D01*
X96633Y62967D01*
X95346Y63500D01*
X93954D01*
X92667Y62967D01*
X91683Y61983D01*
X91150Y60696D01*
Y59304D01*
X91683Y58017D01*
X91966Y57734D01*
X91965Y57719D01*
X91977Y57685D01*
X91978Y57673D01*
X91987Y57653D01*
X92000Y57603D01*
X92011Y57534D01*
X92065Y56740D01*
X92068Y56490D01*
X92101Y56412D01*
Y51256D01*
X90698Y49852D01*
X90145Y49025D01*
X89951Y48050D01*
Y3588D01*
X89918Y3510D01*
X89915Y3245D01*
X89897Y2806D01*
X89864Y2484D01*
X89850Y2397D01*
X89838Y2347D01*
X89828Y2327D01*
X89827Y2315D01*
X89815Y2281D01*
X89816Y2266D01*
X89533Y1983D01*
X89173Y1115D01*
X87827D01*
X87467Y1983D01*
X87184Y2266D01*
X87185Y2281D01*
X87173Y2315D01*
X87172Y2327D01*
X87163Y2347D01*
X87150Y2397D01*
X87139Y2466D01*
X87085Y3260D01*
X87082Y3510D01*
X87049Y3588D01*
Y34880D01*
X86855Y35856D01*
X86302Y36682D01*
X71799Y51186D01*
Y56412D01*
X71832Y56490D01*
X71835Y56755D01*
X71853Y57194D01*
X71885Y57516D01*
X71901Y57603D01*
X71912Y57653D01*
X71922Y57673D01*
X71923Y57685D01*
X71935Y57719D01*
X71934Y57734D01*
X72217Y58017D01*
X72750Y59304D01*
Y60696D01*
X72217Y61983D01*
X71233Y62967D01*
X69946Y63500D01*
X68554D01*
X67267Y62967D01*
X66283Y61983D01*
X65750Y60696D01*
Y59304D01*
X66283Y58017D01*
X66566Y57734D01*
X66565Y57719D01*
X66577Y57685D01*
X66578Y57673D01*
X66588Y57653D01*
X66599Y57603D01*
X66611Y57534D01*
X66665Y56740D01*
X66668Y56490D01*
X66701Y56412D01*
Y50130D01*
X66895Y49155D01*
X67448Y48328D01*
X81951Y33824D01*
Y3588D01*
X81918Y3510D01*
X81915Y3245D01*
X81897Y2806D01*
X81865Y2484D01*
X81849Y2397D01*
X81838Y2347D01*
X81828Y2327D01*
X81827Y2315D01*
X81815Y2281D01*
X81816Y2266D01*
X81533Y1983D01*
X81173Y1115D01*
X79827D01*
X79467Y1983D01*
X79184Y2266D01*
X79185Y2281D01*
X79173Y2315D01*
X79172Y2327D01*
X79163Y2347D01*
X79151Y2397D01*
X79139Y2466D01*
X79085Y3260D01*
X79082Y3510D01*
X79049Y3588D01*
Y21290D01*
X78855Y22266D01*
X78302Y23092D01*
X51332Y50062D01*
X50505Y50615D01*
X49530Y50809D01*
X27726D01*
X22999Y55536D01*
Y56412D01*
X23032Y56490D01*
X23035Y56755D01*
X23053Y57194D01*
X23085Y57516D01*
X23101Y57603D01*
X23112Y57653D01*
X23122Y57673D01*
X23123Y57685D01*
X23135Y57719D01*
X23134Y57734D01*
X23417Y58017D01*
X23950Y59304D01*
Y60696D01*
X23417Y61983D01*
X22433Y62967D01*
X21146Y63500D01*
X19754D01*
X18467Y62967D01*
X17483Y61983D01*
X16950Y60696D01*
Y59304D01*
X17483Y58017D01*
X17766Y57734D01*
X17765Y57719D01*
X17777Y57685D01*
X17778Y57673D01*
X17787Y57653D01*
X17800Y57603D01*
X17811Y57534D01*
X17865Y56740D01*
X17868Y56490D01*
X17901Y56412D01*
Y54480D01*
X18095Y53505D01*
X18648Y52678D01*
X23343Y47982D01*
X22857Y46809D01*
X1246D01*
X-2401Y50456D01*
Y56412D01*
X-2368Y56490D01*
X-2365Y56755D01*
X-2347Y57194D01*
X-2315Y57516D01*
X-2299Y57603D01*
X-2288Y57653D01*
X-2278Y57673D01*
X-2277Y57685D01*
X-2265Y57719D01*
X-2266Y57734D01*
X-1983Y58017D01*
X-1450Y59304D01*
Y60696D01*
X-1983Y61983D01*
X-2967Y62967D01*
X-4254Y63500D01*
X-5646D01*
X-6933Y62967D01*
X-7917Y61983D01*
X-8450Y60696D01*
Y59304D01*
X-7917Y58017D01*
X-7634Y57734D01*
X-7635Y57719D01*
X-7623Y57685D01*
X-7622Y57673D01*
X-7613Y57653D01*
X-7600Y57603D01*
X-7589Y57534D01*
X-7535Y56740D01*
X-7532Y56490D01*
X-7499Y56412D01*
Y49400D01*
X-7305Y48425D01*
X-6752Y47598D01*
X-3137Y43982D01*
X-3623Y42809D01*
X-21424D01*
X-27801Y49186D01*
Y56412D01*
X-27768Y56490D01*
X-27765Y56755D01*
X-27747Y57194D01*
X-27715Y57516D01*
X-27699Y57603D01*
X-27687Y57653D01*
X-27678Y57673D01*
X-27677Y57685D01*
X-27665Y57719D01*
X-27666Y57734D01*
X-27383Y58017D01*
X-26850Y59304D01*
Y60696D01*
X-27383Y61983D01*
X-28367Y62967D01*
X-29654Y63500D01*
X-31046D01*
X-32333Y62967D01*
X-33317Y61983D01*
X-33850Y60696D01*
Y59304D01*
X-33317Y58017D01*
X-33034Y57734D01*
X-33035Y57719D01*
X-33023Y57685D01*
X-33022Y57673D01*
X-33012Y57653D01*
X-33001Y57603D01*
X-32989Y57534D01*
X-32935Y56740D01*
X-32932Y56490D01*
X-32899Y56412D01*
Y48130D01*
X-32705Y47154D01*
X-32152Y46328D01*
X-25807Y39982D01*
X-26293Y38809D01*
X-45364D01*
X-53201Y46646D01*
Y56412D01*
X-53168Y56490D01*
X-53165Y56755D01*
X-53147Y57194D01*
X-53115Y57516D01*
X-53099Y57603D01*
X-53088Y57653D01*
X-53078Y57673D01*
X-53077Y57685D01*
X-53065Y57719D01*
X-53066Y57734D01*
X-52783Y58017D01*
X-52250Y59304D01*
Y60696D01*
X-52783Y61983D01*
X-53767Y62967D01*
X-55054Y63500D01*
X-56446D01*
X-57733Y62967D01*
X-58717Y61983D01*
X-59250Y60696D01*
Y59304D01*
X-58717Y58017D01*
X-58434Y57734D01*
X-58435Y57719D01*
X-58423Y57685D01*
X-58422Y57673D01*
X-58412Y57653D01*
X-58401Y57603D01*
X-58389Y57534D01*
X-58335Y56740D01*
X-58332Y56490D01*
X-58299Y56412D01*
Y45590D01*
X-58105Y44615D01*
X-57552Y43788D01*
X-48222Y34458D01*
X-47396Y33905D01*
X-46420Y33711D01*
X43504D01*
X49951Y27264D01*
Y3588D01*
X49918Y3510D01*
X49915Y3245D01*
X49897Y2806D01*
X49865Y2484D01*
X49850Y2397D01*
X49837Y2347D01*
X49828Y2327D01*
X49827Y2315D01*
X49815Y2281D01*
X49816Y2266D01*
X49533Y1983D01*
X49000Y696D01*
Y-696D01*
X49533Y-1983D01*
X50517Y-2967D01*
X51804Y-3500D01*
X53196D01*
X54483Y-2967D01*
X55467Y-1983D01*
X55827Y-1115D01*
X57173D01*
X57533Y-1983D01*
X58517Y-2967D01*
X59804Y-3500D01*
X61196D01*
X62483Y-2967D01*
X63467Y-1983D01*
X63827Y-1115D01*
X65173D01*
X65533Y-1983D01*
X66517Y-2967D01*
X67804Y-3500D01*
X69196D01*
X70483Y-2967D01*
X71467Y-1983D01*
X71827Y-1115D01*
X73173D01*
X73533Y-1983D01*
X74517Y-2967D01*
X75804Y-3500D01*
X77196D01*
X78483Y-2967D01*
X79467Y-1983D01*
X79827Y-1115D01*
X81173D01*
X81533Y-1983D01*
X82517Y-2967D01*
X83804Y-3500D01*
X85196D01*
X86483Y-2967D01*
X87467Y-1983D01*
X87827Y-1115D01*
X89173D01*
X89533Y-1983D01*
X90517Y-2967D01*
X91804Y-3500D01*
X93196D01*
X94483Y-2967D01*
X95467Y-1983D01*
X95827Y-1115D01*
X97173D01*
X97533Y-1983D01*
X98517Y-2967D01*
X99804Y-3500D01*
X101196D01*
X102483Y-2967D01*
X103467Y-1983D01*
X103827Y-1115D01*
X105173D01*
X105533Y-1983D01*
X106517Y-2967D01*
X107804Y-3500D01*
X109196D01*
X110483Y-2967D01*
X111467Y-1983D01*
X112000Y-696D01*
Y696D01*
X111467Y1983D01*
X111184Y2266D01*
X111185Y2281D01*
X111173Y2315D01*
X111172Y2327D01*
X111163Y2347D01*
X111151Y2397D01*
X111139Y2466D01*
X111084Y3260D01*
X111082Y3510D01*
X111049Y3588D01*
Y12194D01*
X147252Y48398D01*
X147805Y49225D01*
X147999Y50200D01*
Y56412D01*
X148032Y56490D01*
X148035Y56755D01*
X148053Y57194D01*
X148085Y57516D01*
X148101Y57603D01*
X148112Y57653D01*
X148122Y57673D01*
X148123Y57685D01*
X148135Y57719D01*
X148134Y57734D01*
X148417Y58017D01*
X148950Y59304D01*
Y60696D01*
X148417Y61983D01*
X147433Y62967D01*
X146146Y63500D01*
D02*
G37*
%LPD*%
G36*
X134253Y63218D02*
X134312Y62337D01*
X134340Y62177D01*
X134373Y62043D01*
X134410Y61932D01*
X134452Y61847D01*
X134500Y61785D01*
X131000D01*
X131047Y61847D01*
X131090Y61932D01*
X131128Y62043D01*
X131160Y62177D01*
X131187Y62337D01*
X131228Y62728D01*
X131248Y63218D01*
X131250Y63500D01*
X134250D01*
X134253Y63218D01*
D02*
G37*
G36*
X108853D02*
X108912Y62337D01*
X108940Y62177D01*
X108973Y62043D01*
X109010Y61932D01*
X109052Y61847D01*
X109100Y61785D01*
X105600D01*
X105647Y61847D01*
X105690Y61932D01*
X105728Y62043D01*
X105760Y62177D01*
X105787Y62337D01*
X105828Y62728D01*
X105848Y63218D01*
X105850Y63500D01*
X108850D01*
X108853Y63218D01*
D02*
G37*
G36*
X83453D02*
X83512Y62337D01*
X83540Y62177D01*
X83573Y62043D01*
X83610Y61932D01*
X83652Y61847D01*
X83700Y61785D01*
X80200D01*
X80247Y61847D01*
X80290Y61932D01*
X80328Y62043D01*
X80360Y62177D01*
X80387Y62337D01*
X80428Y62728D01*
X80448Y63218D01*
X80450Y63500D01*
X83450D01*
X83453Y63218D01*
D02*
G37*
G36*
X58053D02*
X58113Y62337D01*
X58140Y62177D01*
X58172Y62043D01*
X58210Y61932D01*
X58253Y61847D01*
X58300Y61785D01*
X54800D01*
X54847Y61847D01*
X54890Y61932D01*
X54928Y62043D01*
X54960Y62177D01*
X54988Y62337D01*
X55027Y62728D01*
X55047Y63218D01*
X55050Y63500D01*
X58050D01*
X58053Y63218D01*
D02*
G37*
G36*
X9252D02*
X9312Y62337D01*
X9340Y62177D01*
X9373Y62043D01*
X9410Y61932D01*
X9452Y61847D01*
X9500Y61785D01*
X6000D01*
X6047Y61847D01*
X6090Y61932D01*
X6127Y62043D01*
X6160Y62177D01*
X6187Y62337D01*
X6227Y62728D01*
X6248Y63218D01*
X6250Y63500D01*
X9250D01*
X9252Y63218D01*
D02*
G37*
G36*
X-16148D02*
X-16087Y62337D01*
X-16060Y62177D01*
X-16027Y62043D01*
X-15990Y61932D01*
X-15948Y61847D01*
X-15900Y61785D01*
X-19400D01*
X-19353Y61847D01*
X-19310Y61932D01*
X-19273Y62043D01*
X-19240Y62177D01*
X-19212Y62337D01*
X-19173Y62728D01*
X-19152Y63218D01*
X-19150Y63500D01*
X-16150D01*
X-16148Y63218D01*
D02*
G37*
G36*
X-41547D02*
X-41487Y62337D01*
X-41460Y62177D01*
X-41427Y62043D01*
X-41390Y61932D01*
X-41347Y61847D01*
X-41300Y61785D01*
X-44800D01*
X-44752Y61847D01*
X-44710Y61932D01*
X-44672Y62043D01*
X-44640Y62177D01*
X-44612Y62337D01*
X-44573Y62728D01*
X-44552Y63218D01*
X-44550Y63500D01*
X-41550D01*
X-41547Y63218D01*
D02*
G37*
G36*
X-66947D02*
X-66887Y62337D01*
X-66860Y62177D01*
X-66828Y62043D01*
X-66790Y61932D01*
X-66747Y61847D01*
X-66700Y61785D01*
X-70200D01*
X-70153Y61847D01*
X-70110Y61932D01*
X-70072Y62043D01*
X-70040Y62177D01*
X-70012Y62337D01*
X-69973Y62728D01*
X-69953Y63218D01*
X-69950Y63500D01*
X-66950D01*
X-66947Y63218D01*
D02*
G37*
G36*
X-66747Y58153D02*
X-66790Y58068D01*
X-66828Y57957D01*
X-66860Y57823D01*
X-66887Y57663D01*
X-66927Y57271D01*
X-66947Y56782D01*
X-66950Y56500D01*
X-69950D01*
X-69953Y56782D01*
X-70012Y57663D01*
X-70040Y57823D01*
X-70072Y57957D01*
X-70110Y58068D01*
X-70153Y58153D01*
X-70200Y58215D01*
X-66700D01*
X-66747Y58153D01*
D02*
G37*
G36*
X-49998Y3218D02*
X-49938Y2336D01*
X-49910Y2177D01*
X-49878Y2043D01*
X-49840Y1932D01*
X-49798Y1847D01*
X-49750Y1785D01*
X-53250D01*
X-53203Y1847D01*
X-53160Y1932D01*
X-53123Y2043D01*
X-53090Y2177D01*
X-53063Y2336D01*
X-53022Y2728D01*
X-53003Y3218D01*
X-53000Y3500D01*
X-50000D01*
X-49998Y3218D01*
D02*
G37*
G36*
X147153Y58153D02*
X147110Y58068D01*
X147072Y57957D01*
X147040Y57823D01*
X147013Y57663D01*
X146973Y57271D01*
X146952Y56782D01*
X146950Y56500D01*
X143950D01*
X143947Y56782D01*
X143888Y57663D01*
X143860Y57823D01*
X143827Y57957D01*
X143790Y58068D01*
X143748Y58153D01*
X143700Y58215D01*
X147200D01*
X147153Y58153D01*
D02*
G37*
G36*
X121753D02*
X121710Y58068D01*
X121672Y57957D01*
X121640Y57823D01*
X121613Y57663D01*
X121573Y57271D01*
X121552Y56782D01*
X121550Y56500D01*
X118550D01*
X118547Y56782D01*
X118488Y57663D01*
X118460Y57823D01*
X118427Y57957D01*
X118390Y58068D01*
X118348Y58153D01*
X118300Y58215D01*
X121800D01*
X121753Y58153D01*
D02*
G37*
G36*
X96353D02*
X96310Y58068D01*
X96272Y57957D01*
X96240Y57823D01*
X96213Y57663D01*
X96173Y57271D01*
X96152Y56782D01*
X96150Y56500D01*
X93150D01*
X93147Y56782D01*
X93088Y57663D01*
X93060Y57823D01*
X93027Y57957D01*
X92990Y58068D01*
X92948Y58153D01*
X92900Y58215D01*
X96400D01*
X96353Y58153D01*
D02*
G37*
G36*
X70953D02*
X70910Y58068D01*
X70873Y57957D01*
X70840Y57823D01*
X70813Y57663D01*
X70773Y57271D01*
X70753Y56782D01*
X70750Y56500D01*
X67750D01*
X67748Y56782D01*
X67688Y57663D01*
X67660Y57823D01*
X67628Y57957D01*
X67590Y58068D01*
X67547Y58153D01*
X67500Y58215D01*
X71000D01*
X70953Y58153D01*
D02*
G37*
G36*
X22153D02*
X22110Y58068D01*
X22073Y57957D01*
X22040Y57823D01*
X22013Y57663D01*
X21972Y57271D01*
X21953Y56782D01*
X21950Y56500D01*
X18950D01*
X18947Y56782D01*
X18887Y57663D01*
X18860Y57823D01*
X18828Y57957D01*
X18790Y58068D01*
X18748Y58153D01*
X18700Y58215D01*
X22200D01*
X22153Y58153D01*
D02*
G37*
G36*
X-3248D02*
X-3290Y58068D01*
X-3327Y57957D01*
X-3360Y57823D01*
X-3388Y57663D01*
X-3428Y57271D01*
X-3447Y56782D01*
X-3450Y56500D01*
X-6450D01*
X-6453Y56782D01*
X-6513Y57663D01*
X-6540Y57823D01*
X-6572Y57957D01*
X-6610Y58068D01*
X-6653Y58153D01*
X-6700Y58215D01*
X-3200D01*
X-3248Y58153D01*
D02*
G37*
G36*
X-28647D02*
X-28690Y58068D01*
X-28728Y57957D01*
X-28760Y57823D01*
X-28788Y57663D01*
X-28828Y57271D01*
X-28847Y56782D01*
X-28850Y56500D01*
X-31850D01*
X-31853Y56782D01*
X-31913Y57663D01*
X-31940Y57823D01*
X-31972Y57957D01*
X-32010Y58068D01*
X-32053Y58153D01*
X-32100Y58215D01*
X-28600D01*
X-28647Y58153D01*
D02*
G37*
G36*
X-54047D02*
X-54090Y58068D01*
X-54127Y57957D01*
X-54160Y57823D01*
X-54187Y57663D01*
X-54227Y57271D01*
X-54247Y56782D01*
X-54250Y56500D01*
X-57250D01*
X-57252Y56782D01*
X-57312Y57663D01*
X-57340Y57823D01*
X-57372Y57957D01*
X-57410Y58068D01*
X-57453Y58153D01*
X-57500Y58215D01*
X-54000D01*
X-54047Y58153D01*
D02*
G37*
G36*
X110002Y3218D02*
X110063Y2336D01*
X110090Y2177D01*
X110122Y2043D01*
X110160Y1932D01*
X110203Y1847D01*
X110250Y1785D01*
X106750D01*
X106798Y1847D01*
X106840Y1932D01*
X106877Y2043D01*
X106910Y2177D01*
X106938Y2336D01*
X106978Y2728D01*
X106997Y3218D01*
X107000Y3500D01*
X110000D01*
X110002Y3218D01*
D02*
G37*
G36*
X102002D02*
X102063Y2336D01*
X102090Y2177D01*
X102122Y2043D01*
X102160Y1932D01*
X102203Y1847D01*
X102250Y1785D01*
X98750D01*
X98798Y1847D01*
X98840Y1932D01*
X98877Y2043D01*
X98910Y2177D01*
X98938Y2336D01*
X98977Y2728D01*
X98997Y3218D01*
X99000Y3500D01*
X102000D01*
X102002Y3218D01*
D02*
G37*
G36*
X94003D02*
X94062Y2336D01*
X94090Y2177D01*
X94122Y2043D01*
X94160Y1932D01*
X94202Y1847D01*
X94250Y1785D01*
X90750D01*
X90798Y1847D01*
X90840Y1932D01*
X90878Y2043D01*
X90910Y2177D01*
X90938Y2336D01*
X90977Y2728D01*
X90997Y3218D01*
X91000Y3500D01*
X94000D01*
X94003Y3218D01*
D02*
G37*
G36*
X86003D02*
X86062Y2336D01*
X86090Y2177D01*
X86123Y2043D01*
X86160Y1932D01*
X86202Y1847D01*
X86250Y1785D01*
X82750D01*
X82797Y1847D01*
X82840Y1932D01*
X82878Y2043D01*
X82910Y2177D01*
X82937Y2336D01*
X82978Y2728D01*
X82998Y3218D01*
X83000Y3500D01*
X86000D01*
X86003Y3218D01*
D02*
G37*
G36*
X78003D02*
X78063Y2336D01*
X78090Y2177D01*
X78123Y2043D01*
X78160Y1932D01*
X78203Y1847D01*
X78250Y1785D01*
X74750D01*
X74798Y1847D01*
X74840Y1932D01*
X74878Y2043D01*
X74910Y2177D01*
X74938Y2336D01*
X74977Y2728D01*
X74998Y3218D01*
X75000Y3500D01*
X78000D01*
X78003Y3218D01*
D02*
G37*
G36*
X70002D02*
X70062Y2336D01*
X70090Y2177D01*
X70122Y2043D01*
X70160Y1932D01*
X70202Y1847D01*
X70250Y1785D01*
X66750D01*
X66797Y1847D01*
X66840Y1932D01*
X66877Y2043D01*
X66910Y2177D01*
X66937Y2336D01*
X66978Y2728D01*
X66997Y3218D01*
X67000Y3500D01*
X70000D01*
X70002Y3218D01*
D02*
G37*
G36*
X62003D02*
X62063Y2336D01*
X62090Y2177D01*
X62123Y2043D01*
X62160Y1932D01*
X62203Y1847D01*
X62250Y1785D01*
X58750D01*
X58797Y1847D01*
X58840Y1932D01*
X58878Y2043D01*
X58910Y2177D01*
X58938Y2336D01*
X58977Y2728D01*
X58998Y3218D01*
X59000Y3500D01*
X62000D01*
X62003Y3218D01*
D02*
G37*
G36*
X54002D02*
X54062Y2336D01*
X54090Y2177D01*
X54123Y2043D01*
X54160Y1932D01*
X54202Y1847D01*
X54250Y1785D01*
X50750D01*
X50798Y1847D01*
X50840Y1932D01*
X50877Y2043D01*
X50910Y2177D01*
X50938Y2336D01*
X50978Y2728D01*
X50998Y3218D01*
X51000Y3500D01*
X54000D01*
X54002Y3218D01*
D02*
G37*
D21*
X-68450Y39240D02*
X-51500Y22290D01*
Y0D02*
Y22290D01*
X-68450Y39240D02*
Y60000D01*
X107350D02*
Y76070D01*
X81950Y60000D02*
Y76070D01*
X56550Y60000D02*
Y76070D01*
X7750Y60000D02*
Y76070D01*
X-17650Y60000D02*
Y76070D01*
X-43180Y76200D02*
X127000D01*
X-62230D02*
X-43180D01*
X-43050Y76070D01*
Y60000D02*
Y76070D01*
X-68450Y60000D02*
Y69980D01*
X-62230Y76200D01*
X127000D02*
X132750Y70450D01*
Y60000D02*
Y70450D01*
X-55750Y45590D02*
Y60000D01*
Y45590D02*
X-46420Y36260D01*
X44559D01*
X52500Y28319D01*
Y0D02*
Y28319D01*
X-30350Y48130D02*
Y60000D01*
X-22480Y40260D02*
X46216D01*
X-30350Y48130D02*
X-22480Y40260D01*
X46216D02*
X60500Y25976D01*
Y0D02*
Y25976D01*
X-4950Y49400D02*
Y60000D01*
X190Y44260D02*
X47873D01*
X-4950Y49400D02*
X190Y44260D01*
X47873D02*
X68500Y23633D01*
Y0D02*
Y23633D01*
X26670Y48260D02*
X49530D01*
X20450Y54480D02*
X26670Y48260D01*
X20450Y54480D02*
Y60000D01*
X49530Y48260D02*
X76500Y21290D01*
Y0D02*
Y21290D01*
X84500Y0D02*
Y34880D01*
X69250Y50130D02*
Y60000D01*
Y50130D02*
X84500Y34880D01*
X92500Y0D02*
Y48050D01*
X94650Y50200D02*
Y60000D01*
X92500Y48050D02*
X94650Y50200D01*
X100500Y0D02*
Y30650D01*
X120050Y50200D01*
Y60000D01*
X145450Y50200D02*
Y60000D01*
X108500Y13250D02*
X145450Y50200D01*
X108500Y0D02*
Y13250D01*
D23*
X1000Y240000D02*
D03*
X26000D02*
D03*
X-74000D02*
D03*
X-24000D02*
D03*
X-49000D02*
D03*
X151000D02*
D03*
X126000D02*
D03*
X101000D02*
D03*
X76000D02*
D03*
X51000D02*
D03*
D25*
X40000Y60000D02*
D03*
X180000D02*
D03*
X160000D02*
D03*
Y40000D02*
D03*
X180000D02*
D03*
X160000Y-0D02*
D03*
X140000D02*
D03*
X180000Y20000D02*
D03*
X160000D02*
D03*
X140000D02*
D03*
X40000Y-0D02*
D03*
X20000D02*
D03*
X40000Y20000D02*
D03*
X20000D02*
D03*
X0D02*
D03*
X-20000Y-0D02*
D03*
X-40000D02*
D03*
X-20000Y20000D02*
D03*
X-40000D02*
D03*
X-60000D02*
D03*
Y-0D02*
D03*
X-80000D02*
D03*
Y20000D02*
D03*
Y40000D02*
D03*
X-100000Y20000D02*
D03*
Y40000D02*
D03*
X-80000Y60000D02*
D03*
X-100000D02*
D03*
X94650Y60000D02*
D03*
X-51500Y0D02*
D03*
X52500D02*
D03*
X60500D02*
D03*
X68500D02*
D03*
X76500D02*
D03*
X84500D02*
D03*
X92500D02*
D03*
X100500D02*
D03*
X108500D02*
D03*
X145450Y60000D02*
D03*
X132750D02*
D03*
X120050D02*
D03*
X107350D02*
D03*
X81950D02*
D03*
X69250D02*
D03*
X56550D02*
D03*
X-68450D02*
D03*
X-43050D02*
D03*
X-17650D02*
D03*
X7750D02*
D03*
X20450D02*
D03*
X-4950D02*
D03*
X-30350D02*
D03*
X-55750D02*
D03*
D26*
X-82500Y448000D02*
D03*
X159500D02*
D03*
M02*
