G04*
G04 #@! TF.GenerationSoftware,Altium Limited,Altium Designer,23.3.1 (30)*
G04*
G04 Layer_Color=32768*
%FSLAX44Y44*%
%MOMM*%
G71*
G04*
G04 #@! TF.SameCoordinates,B0EE65AD-7F72-4637-8529-5AC13AF0589E*
G04*
G04*
G04 #@! TF.FilePolarity,Positive*
G04*
G01*
G75*
%ADD34C,0.0100*%
%ADD35C,0.0200*%
D34*
X-79000Y45000D02*
X31000D01*
X-79000Y125000D02*
X31000D01*
Y45000D02*
Y125000D01*
X-79000Y45000D02*
Y125000D01*
X68001Y209000D02*
X84001D01*
Y181000D02*
Y209000D01*
X68001Y181000D02*
Y209000D01*
Y181000D02*
X84001D01*
X43001Y209000D02*
X59001D01*
Y181000D02*
Y209000D01*
X43001Y181000D02*
Y209000D01*
Y181000D02*
X59001D01*
X93001Y209000D02*
X109001D01*
Y181000D02*
Y209000D01*
X93001Y181000D02*
Y209000D01*
Y181000D02*
X109001D01*
X18001Y209000D02*
X34001D01*
Y181000D02*
Y209000D01*
X18001Y181000D02*
Y209000D01*
Y181000D02*
X34001D01*
X-6999Y209000D02*
X9001D01*
Y181000D02*
Y209000D01*
X-6999Y181000D02*
Y209000D01*
Y181000D02*
X9001D01*
X-31999Y209000D02*
X-15999D01*
Y181000D02*
Y209000D01*
X-31999Y181000D02*
Y209000D01*
Y181000D02*
X-15999D01*
X-56999Y209000D02*
X-40999D01*
Y181000D02*
Y209000D01*
X-56999Y181000D02*
Y209000D01*
Y181000D02*
X-40999D01*
X118001Y209000D02*
X134001D01*
Y181000D02*
Y209000D01*
X118001Y181000D02*
Y209000D01*
Y181000D02*
X134001D01*
X46000Y45000D02*
X156000D01*
X46000Y125000D02*
X156000D01*
Y45000D02*
Y125000D01*
X46000Y45000D02*
Y125000D01*
X129000Y42500D02*
X136500D01*
Y27500D02*
Y42500D01*
X129000Y27500D02*
Y42500D01*
Y27500D02*
X136500D01*
X103600Y42500D02*
X111100D01*
Y27500D02*
Y42500D01*
X103600Y27500D02*
Y42500D01*
Y27500D02*
X111100D01*
X78200Y42500D02*
X85700D01*
Y27500D02*
Y42500D01*
X78200Y27500D02*
Y42500D01*
Y27500D02*
X85700D01*
X-72200Y42500D02*
X-64700D01*
Y27500D02*
Y42500D01*
X-72200Y27500D02*
Y42500D01*
Y27500D02*
X-64700D01*
X4000Y42500D02*
X11500D01*
Y27500D02*
Y42500D01*
X4000Y27500D02*
Y42500D01*
Y27500D02*
X11500D01*
X-46800Y42500D02*
X-39300D01*
Y27500D02*
Y42500D01*
X-46800Y27500D02*
Y42500D01*
Y27500D02*
X-39300D01*
X52800Y42500D02*
X60300D01*
Y27500D02*
Y42500D01*
X52800Y27500D02*
Y42500D01*
Y27500D02*
X60300D01*
X-21400Y42500D02*
X-13900D01*
Y27500D02*
Y42500D01*
X-21400Y27500D02*
Y42500D01*
Y27500D02*
X-13900D01*
D35*
X-59500D02*
X-52000D01*
X-59500Y42500D02*
X-52000D01*
Y27500D02*
Y42500D01*
X-59500Y27500D02*
Y42500D01*
X90900Y27500D02*
X98400D01*
X90900Y42500D02*
X98400D01*
Y27500D02*
Y42500D01*
X90900Y27500D02*
Y42500D01*
X65500Y27500D02*
X73000D01*
X65500Y42500D02*
X73000D01*
Y27500D02*
Y42500D01*
X65500Y27500D02*
Y42500D01*
X16700Y27500D02*
X24200D01*
X16700Y42500D02*
X24200D01*
Y27500D02*
Y42500D01*
X16700Y27500D02*
Y42500D01*
X116300Y27500D02*
X123800D01*
X116300Y42500D02*
X123800D01*
Y27500D02*
Y42500D01*
X116300Y27500D02*
Y42500D01*
X-8700Y27500D02*
X-1200D01*
X-8700Y42500D02*
X-1200D01*
Y27500D02*
Y42500D01*
X-8700Y27500D02*
Y42500D01*
X-34100Y27500D02*
X-26600D01*
X-34100Y42500D02*
X-26600D01*
Y27500D02*
Y42500D01*
X-34100Y27500D02*
Y42500D01*
X141700Y27500D02*
X149200D01*
X141700Y42500D02*
X149200D01*
Y27500D02*
Y42500D01*
X141700Y27500D02*
Y42500D01*
M02*
