G04*
G04 #@! TF.GenerationSoftware,Altium Limited,Altium Designer,23.3.1 (30)*
G04*
G04 Layer_Color=255*
%FSLAX44Y44*%
%MOMM*%
G71*
G04*
G04 #@! TF.SameCoordinates,B0EE65AD-7F72-4637-8529-5AC13AF0589E*
G04*
G04*
G04 #@! TF.FilePolarity,Positive*
G04*
G01*
G75*
%ADD13R,0.6000X0.5000*%
%ADD20R,0.6000X2.3000*%
%ADD22R,5.3000X5.3000*%
%ADD23C,1.3500*%
%ADD24R,1.3500X1.3500*%
D13*
X-48999Y154500D02*
D03*
Y145500D02*
D03*
X-23999Y154500D02*
D03*
Y145500D02*
D03*
X1001Y154500D02*
D03*
Y145500D02*
D03*
X26001Y154500D02*
D03*
Y145500D02*
D03*
X51001Y154500D02*
D03*
Y145500D02*
D03*
X76000Y154500D02*
D03*
Y145500D02*
D03*
X101000Y154500D02*
D03*
Y145500D02*
D03*
X126000Y154500D02*
D03*
Y145500D02*
D03*
D20*
X152500Y-18500D02*
D03*
X144500D02*
D03*
X136500D02*
D03*
X128500D02*
D03*
X120500D02*
D03*
X112500D02*
D03*
X104500D02*
D03*
X96500D02*
D03*
X88500D02*
D03*
X80500D02*
D03*
X72500D02*
D03*
X64500D02*
D03*
X56500D02*
D03*
X48500D02*
D03*
X40500D02*
D03*
X32500D02*
D03*
X24500D02*
D03*
X16500D02*
D03*
X-23500D02*
D03*
X-31500D02*
D03*
X-39500D02*
D03*
X-47500D02*
D03*
X-55500D02*
D03*
X-63500D02*
D03*
X-71500D02*
D03*
X-79500D02*
D03*
D22*
X-82500Y448000D02*
D03*
X159500D02*
D03*
D23*
X1000Y240000D02*
D03*
X26000D02*
D03*
X-74000D02*
D03*
X-24000D02*
D03*
X-49000D02*
D03*
X126000D02*
D03*
X101000D02*
D03*
X76000D02*
D03*
X51000D02*
D03*
D24*
X151000D02*
D03*
M02*
