G04*
G04 #@! TF.GenerationSoftware,Altium Limited,Altium Designer,23.3.1 (30)*
G04*
G04 Layer_Color=16711935*
%FSLAX44Y44*%
%MOMM*%
G71*
G04*
G04 #@! TF.SameCoordinates,B0EE65AD-7F72-4637-8529-5AC13AF0589E*
G04*
G04*
G04 #@! TF.FilePolarity,Negative*
G04*
G01*
G75*
%ADD14R,26.2000X2.9250*%
%ADD16R,0.6200X2.3200*%
%ADD17R,5.3200X5.3200*%
%ADD18C,1.5024*%
%ADD19R,1.5024X1.5024*%
%ADD30R,0.7200X1.0200*%
%ADD31R,1.4200X0.7200*%
%ADD32R,0.5400X0.4900*%
G36*
X178000Y140500D02*
X-102000D01*
Y159500D01*
X178000D01*
Y140500D01*
D02*
G37*
%LPC*%
G36*
X86791Y156185D02*
Y152888D01*
X85662D01*
Y154740D01*
X83199Y156185D01*
Y152888D01*
X81514D01*
Y150926D01*
X83199D01*
Y147167D01*
Y147148D01*
Y147111D01*
Y147056D01*
Y146982D01*
Y146797D01*
Y146574D01*
X83181Y146352D01*
Y146130D01*
Y145963D01*
X83162Y145889D01*
Y145852D01*
X83144Y145815D01*
X83106Y145741D01*
X83051Y145649D01*
X82940Y145538D01*
X82903Y145519D01*
X82829Y145482D01*
X82699Y145445D01*
X82533Y145426D01*
X82458D01*
X82384Y145445D01*
X82273Y145463D01*
X82125Y145482D01*
X81959Y145519D01*
X81755Y145575D01*
X81533Y145649D01*
X81310Y143741D01*
X81329D01*
X81347Y143723D01*
X81459Y143686D01*
X81644Y143630D01*
X81884Y143575D01*
X82162Y143501D01*
X82495Y143445D01*
X82866Y143408D01*
X83255Y143390D01*
X86791D01*
Y156185D01*
D02*
G37*
G36*
X-34604D02*
Y152888D01*
X-35733D01*
Y154740D01*
X-38196Y156185D01*
Y152888D01*
X-39881D01*
Y150926D01*
X-38196D01*
Y147167D01*
Y147148D01*
Y147111D01*
Y147056D01*
Y146982D01*
Y146797D01*
Y146574D01*
X-38214Y146352D01*
Y146130D01*
Y145963D01*
X-38233Y145889D01*
Y145852D01*
X-38251Y145815D01*
X-38288Y145741D01*
X-38344Y145649D01*
X-38455Y145538D01*
X-38492Y145519D01*
X-38566Y145482D01*
X-38696Y145445D01*
X-38862Y145426D01*
X-38936D01*
X-39011Y145445D01*
X-39122Y145463D01*
X-39270Y145482D01*
X-39436Y145519D01*
X-39640Y145575D01*
X-39862Y145649D01*
X-40084Y143741D01*
X-40066D01*
X-40047Y143723D01*
X-39936Y143686D01*
X-39751Y143630D01*
X-39510Y143575D01*
X-39233Y143501D01*
X-38899Y143445D01*
X-38529Y143408D01*
X-38140Y143390D01*
X-34604D01*
Y156185D01*
D02*
G37*
G36*
X129492Y156481D02*
X128713D01*
X128583Y156462D01*
X128417Y156444D01*
X128231Y156425D01*
X128028Y156388D01*
X127806Y156351D01*
X127324Y156222D01*
X126843Y156036D01*
X126583Y155925D01*
X126361Y155796D01*
X126121Y155629D01*
X125917Y155444D01*
X125898Y155425D01*
X125861Y155407D01*
X125824Y155333D01*
X125750Y155259D01*
X125658Y155166D01*
X125565Y155036D01*
X125472Y154907D01*
X125361Y154740D01*
X125176Y154370D01*
X124991Y153944D01*
X124917Y153703D01*
X124880Y153444D01*
X124843Y153166D01*
X124824Y152889D01*
Y152740D01*
X124843Y152574D01*
X124861Y152370D01*
X124899Y152111D01*
X124954Y151833D01*
X125028Y151537D01*
X125139Y151241D01*
X125158Y151204D01*
X125195Y151111D01*
X125269Y150944D01*
X125380Y150741D01*
X125510Y150500D01*
X125676Y150222D01*
X125880Y149926D01*
X126121Y149611D01*
X126139Y149593D01*
X126213Y149500D01*
X126324Y149370D01*
X126491Y149185D01*
X126713Y148963D01*
X126991Y148667D01*
X127324Y148352D01*
X127732Y147963D01*
X127750Y147945D01*
X127787Y147926D01*
X127843Y147871D01*
X127917Y147796D01*
X128120Y147611D01*
X128361Y147389D01*
X128602Y147148D01*
X128842Y146908D01*
X129065Y146704D01*
X129139Y146611D01*
X129213Y146537D01*
X129231Y146519D01*
X129268Y146482D01*
X129324Y146408D01*
X129398Y146315D01*
X129565Y146111D01*
X129713Y145871D01*
X124824D01*
Y143593D01*
X133435D01*
Y143649D01*
X133416Y143723D01*
X133398Y143815D01*
X133379Y143926D01*
X133361Y144056D01*
X133287Y144389D01*
X133175Y144760D01*
X133027Y145167D01*
X132842Y145611D01*
X132601Y146037D01*
Y146056D01*
X132564Y146093D01*
X132527Y146167D01*
X132453Y146241D01*
X132379Y146371D01*
X132268Y146500D01*
X132139Y146667D01*
X131990Y146852D01*
X131824Y147074D01*
X131620Y147297D01*
X131398Y147556D01*
X131139Y147833D01*
X130861Y148111D01*
X130546Y148426D01*
X130213Y148759D01*
X129842Y149111D01*
X129824Y149130D01*
X129768Y149185D01*
X129694Y149259D01*
X129583Y149370D01*
X129435Y149481D01*
X129287Y149630D01*
X128954Y149963D01*
X128620Y150315D01*
X128287Y150667D01*
X128139Y150815D01*
X127991Y150981D01*
X127880Y151111D01*
X127806Y151222D01*
X127787Y151259D01*
X127732Y151352D01*
X127639Y151500D01*
X127546Y151704D01*
X127454Y151926D01*
X127361Y152185D01*
X127306Y152444D01*
X127287Y152722D01*
Y152740D01*
Y152759D01*
Y152851D01*
X127306Y153018D01*
X127343Y153203D01*
X127398Y153407D01*
X127472Y153611D01*
X127583Y153814D01*
X127732Y154000D01*
X127750Y154018D01*
X127806Y154074D01*
X127917Y154148D01*
X128046Y154222D01*
X128231Y154296D01*
X128435Y154370D01*
X128676Y154425D01*
X128954Y154444D01*
X129083D01*
X129231Y154425D01*
X129398Y154388D01*
X129602Y154333D01*
X129805Y154240D01*
X130009Y154129D01*
X130194Y153981D01*
X130213Y153962D01*
X130268Y153889D01*
X130342Y153777D01*
X130416Y153611D01*
X130509Y153407D01*
X130583Y153129D01*
X130657Y152815D01*
X130694Y152444D01*
X133138Y152685D01*
Y152703D01*
X133120Y152778D01*
Y152870D01*
X133083Y153018D01*
X133064Y153185D01*
X133009Y153370D01*
X132953Y153574D01*
X132898Y153814D01*
X132712Y154277D01*
X132490Y154759D01*
X132342Y155000D01*
X132176Y155222D01*
X131990Y155407D01*
X131787Y155592D01*
X131768Y155611D01*
X131731Y155629D01*
X131676Y155666D01*
X131583Y155740D01*
X131472Y155796D01*
X131324Y155870D01*
X131176Y155962D01*
X130990Y156036D01*
X130787Y156129D01*
X130565Y156203D01*
X130083Y156351D01*
X129509Y156444D01*
X129213Y156462D01*
X128898Y156481D01*
X129492D01*
D02*
G37*
G36*
X118936D02*
X118751D01*
X118621Y156462D01*
X118455Y156444D01*
X118270Y156425D01*
X118066Y156388D01*
X117844Y156351D01*
X117362Y156222D01*
X116881Y156036D01*
X116622Y155925D01*
X116399Y155796D01*
X116159Y155629D01*
X115955Y155444D01*
X115936Y155425D01*
X115899Y155407D01*
X115862Y155333D01*
X115788Y155259D01*
X115696Y155166D01*
X115603Y155036D01*
X115511Y154907D01*
X115400Y154740D01*
X115214Y154370D01*
X115029Y153944D01*
X114955Y153703D01*
X114918Y153444D01*
X114881Y153166D01*
X114862Y152889D01*
Y152740D01*
X114881Y152574D01*
X114900Y152370D01*
X114937Y152111D01*
X114992Y151833D01*
X115066Y151537D01*
X115177Y151241D01*
X115196Y151204D01*
X115233Y151111D01*
X115307Y150944D01*
X115418Y150741D01*
X115548Y150500D01*
X115714Y150222D01*
X115918Y149926D01*
X116159Y149611D01*
X116177Y149593D01*
X116251Y149500D01*
X116362Y149370D01*
X116529Y149185D01*
X116751Y148963D01*
X117029Y148667D01*
X117362Y148352D01*
X117770Y147963D01*
X117788Y147945D01*
X117825Y147926D01*
X117881Y147871D01*
X117955Y147796D01*
X118158Y147611D01*
X118399Y147389D01*
X118640Y147148D01*
X118881Y146908D01*
X119103Y146704D01*
X119177Y146611D01*
X119251Y146537D01*
X119269Y146519D01*
X119306Y146482D01*
X119362Y146408D01*
X119436Y146315D01*
X119603Y146111D01*
X119751Y145871D01*
X114862D01*
Y143593D01*
X123473D01*
Y143667D01*
Y143649D01*
X123454Y143723D01*
X123436Y143815D01*
X123417Y143926D01*
X123399Y144056D01*
X123325Y144389D01*
X123214Y144760D01*
X123065Y145167D01*
X122880Y145611D01*
X122640Y146037D01*
Y146056D01*
X122602Y146093D01*
X122565Y146167D01*
X122491Y146241D01*
X122417Y146371D01*
X122306Y146500D01*
X122177Y146667D01*
X122028Y146852D01*
X121862Y147074D01*
X121658Y147297D01*
X121436Y147556D01*
X121177Y147833D01*
X120899Y148111D01*
X120584Y148426D01*
X120251Y148759D01*
X119881Y149111D01*
X119862Y149130D01*
X119806Y149185D01*
X119732Y149259D01*
X119621Y149370D01*
X119473Y149481D01*
X119325Y149630D01*
X118992Y149963D01*
X118658Y150315D01*
X118325Y150667D01*
X118177Y150815D01*
X118029Y150981D01*
X117918Y151111D01*
X117844Y151222D01*
X117825Y151259D01*
X117770Y151352D01*
X117677Y151500D01*
X117584Y151704D01*
X117492Y151926D01*
X117399Y152185D01*
X117344Y152444D01*
X117325Y152722D01*
Y152740D01*
Y152759D01*
Y152851D01*
X117344Y153018D01*
X117381Y153203D01*
X117436Y153407D01*
X117510Y153611D01*
X117621Y153814D01*
X117770Y154000D01*
X117788Y154018D01*
X117844Y154074D01*
X117955Y154148D01*
X118084Y154222D01*
X118270Y154296D01*
X118473Y154370D01*
X118714Y154425D01*
X118992Y154444D01*
X119121D01*
X119269Y154425D01*
X119436Y154388D01*
X119640Y154333D01*
X119843Y154240D01*
X120047Y154129D01*
X120232Y153981D01*
X120251Y153962D01*
X120306Y153889D01*
X120380Y153777D01*
X120455Y153611D01*
X120547Y153407D01*
X120621Y153129D01*
X120695Y152815D01*
X120732Y152444D01*
X123176Y152685D01*
Y152703D01*
X123158Y152778D01*
Y152870D01*
X123121Y153018D01*
X123102Y153185D01*
X123047Y153370D01*
X122991Y153574D01*
X122936Y153814D01*
X122751Y154277D01*
X122528Y154759D01*
X122380Y155000D01*
X122214Y155222D01*
X122028Y155407D01*
X121825Y155592D01*
X121806Y155611D01*
X121769Y155629D01*
X121714Y155666D01*
X121621Y155740D01*
X121510Y155796D01*
X121362Y155870D01*
X121214Y155962D01*
X121028Y156036D01*
X120825Y156129D01*
X120603Y156203D01*
X120121Y156351D01*
X119547Y156444D01*
X119251Y156462D01*
X118936Y156481D01*
D02*
G37*
G36*
X-28549Y153092D02*
Y152888D01*
X-30826D01*
Y151574D01*
X-30845Y151592D01*
X-30919Y151704D01*
X-31030Y151870D01*
X-31178Y152074D01*
X-31326Y152277D01*
X-31511Y152481D01*
X-31678Y152666D01*
X-31863Y152796D01*
X-31882Y152815D01*
X-31937Y152851D01*
X-32048Y152888D01*
X-32178Y152944D01*
X-32326Y153000D01*
X-32511Y153055D01*
X-32696Y153074D01*
X-32919Y153092D01*
X-28549D01*
X-33067D01*
X-33233Y153074D01*
X-33437Y153037D01*
X-33696Y152981D01*
X-33974Y152888D01*
X-34252Y152777D01*
X-34548Y152611D01*
X-33770Y150481D01*
X-33752Y150500D01*
X-33659Y150537D01*
X-33548Y150611D01*
X-33400Y150685D01*
X-33215Y150759D01*
X-33030Y150833D01*
X-32826Y150870D01*
X-32622Y150889D01*
X-32548D01*
X-32437Y150870D01*
X-32326Y150852D01*
X-32196Y150815D01*
X-32048Y150759D01*
X-31900Y150685D01*
X-31752Y150592D01*
X-31733Y150574D01*
X-31696Y150537D01*
X-31622Y150463D01*
X-31548Y150352D01*
X-31456Y150222D01*
X-31363Y150037D01*
X-31270Y149815D01*
X-31196Y149556D01*
Y149518D01*
X-31178Y149463D01*
X-31159Y149407D01*
Y149315D01*
X-31141Y149204D01*
X-31122Y149056D01*
X-31104Y148889D01*
X-31085Y148704D01*
X-31067Y148463D01*
X-31048Y148222D01*
Y147926D01*
X-31030Y147611D01*
X-31011Y147260D01*
Y146871D01*
Y146445D01*
Y143593D01*
X-28549D01*
Y153092D01*
D02*
G37*
G36*
X2245D02*
Y152888D01*
X-33D01*
Y151518D01*
X-52Y151537D01*
X-89Y151592D01*
X-163Y151666D01*
X-255Y151759D01*
X-366Y151889D01*
X-514Y152018D01*
X-681Y152166D01*
X-866Y152315D01*
X-1070Y152444D01*
X-1311Y152592D01*
X-1551Y152722D01*
X-1829Y152851D01*
X-2125Y152944D01*
X-2422Y153018D01*
X-2755Y153074D01*
X-3088Y153092D01*
X2245D01*
X-6236D01*
X-3218D01*
X-3385Y153074D01*
X-3588Y153055D01*
X-3810Y153018D01*
X-4051Y152963D01*
X-4310Y152888D01*
X-4570Y152796D01*
X-4607Y152777D01*
X-4681Y152740D01*
X-4810Y152685D01*
X-4958Y152592D01*
X-5125Y152481D01*
X-5292Y152352D01*
X-5458Y152203D01*
X-5606Y152037D01*
X-5625Y152018D01*
X-5662Y151963D01*
X-5718Y151870D01*
X-5792Y151741D01*
X-5884Y151592D01*
X-5958Y151407D01*
X-6032Y151222D01*
X-6088Y151000D01*
Y150981D01*
X-6107Y150889D01*
X-6144Y150759D01*
X-6162Y150574D01*
X-6199Y150352D01*
X-6218Y150056D01*
X-6236Y149741D01*
Y143593D01*
X-3773D01*
Y148315D01*
Y148334D01*
Y148389D01*
Y148463D01*
Y148556D01*
Y148685D01*
Y148815D01*
X-3755Y149130D01*
X-3736Y149445D01*
X-3699Y149778D01*
X-3662Y150056D01*
X-3644Y150167D01*
X-3607Y150259D01*
Y150278D01*
X-3570Y150333D01*
X-3533Y150407D01*
X-3477Y150518D01*
X-3311Y150741D01*
X-3218Y150852D01*
X-3088Y150944D01*
X-3070Y150963D01*
X-3033Y150981D01*
X-2959Y151018D01*
X-2848Y151074D01*
X-2718Y151130D01*
X-2588Y151166D01*
X-2422Y151185D01*
X-2236Y151203D01*
X-2125D01*
X-2014Y151185D01*
X-1866Y151166D01*
X-1681Y151111D01*
X-1496Y151055D01*
X-1292Y150963D01*
X-1089Y150852D01*
X-1070Y150833D01*
X-1014Y150796D01*
X-922Y150704D01*
X-811Y150611D01*
X-700Y150463D01*
X-589Y150315D01*
X-477Y150111D01*
X-403Y149907D01*
Y149889D01*
X-366Y149796D01*
X-348Y149648D01*
X-311Y149426D01*
X-292Y149296D01*
X-274Y149130D01*
X-255Y148963D01*
Y148759D01*
X-237Y148556D01*
X-218Y148315D01*
Y148056D01*
Y147778D01*
Y143593D01*
X2245D01*
Y153092D01*
D02*
G37*
G36*
X-40862Y153092D02*
X-45306D01*
X-45454Y153074D01*
X-45621Y153055D01*
X-45825Y153018D01*
X-46047Y152981D01*
X-46287Y152926D01*
X-46547Y152851D01*
X-46806Y152759D01*
X-47084Y152648D01*
X-47361Y152500D01*
X-47621Y152352D01*
X-47880Y152166D01*
X-48139Y151944D01*
X-48361Y151704D01*
X-48380Y151685D01*
X-48417Y151648D01*
X-48472Y151555D01*
X-48547Y151444D01*
X-48639Y151296D01*
X-48732Y151129D01*
X-48843Y150907D01*
X-48954Y150667D01*
X-49065Y150389D01*
X-49176Y150074D01*
X-49269Y149741D01*
X-49361Y149352D01*
X-49435Y148945D01*
X-49491Y148500D01*
X-49528Y148037D01*
Y148185D01*
Y147519D01*
X-43380D01*
Y147500D01*
Y147463D01*
Y147408D01*
X-43399Y147333D01*
X-43417Y147148D01*
X-43454Y146889D01*
X-43528Y146630D01*
X-43640Y146334D01*
X-43769Y146056D01*
X-43954Y145815D01*
X-43973Y145797D01*
X-44065Y145723D01*
X-44177Y145630D01*
X-44343Y145519D01*
X-44547Y145408D01*
X-44806Y145315D01*
X-45084Y145241D01*
X-45380Y145223D01*
X-45473D01*
X-45584Y145241D01*
X-45714Y145260D01*
X-45862Y145297D01*
X-46028Y145352D01*
X-46195Y145426D01*
X-46343Y145537D01*
X-46362Y145556D01*
X-46417Y145593D01*
X-46491Y145667D01*
X-46565Y145778D01*
X-46676Y145926D01*
X-46769Y146093D01*
X-46862Y146315D01*
X-46954Y146556D01*
X-49398Y146149D01*
Y146130D01*
X-49380Y146093D01*
X-49343Y146019D01*
X-49306Y145926D01*
X-49250Y145815D01*
X-49195Y145686D01*
X-49028Y145389D01*
X-48824Y145056D01*
X-48565Y144704D01*
X-48250Y144389D01*
X-47898Y144093D01*
X-47880D01*
X-47861Y144056D01*
X-47787Y144038D01*
X-47713Y143982D01*
X-47621Y143926D01*
X-47491Y143871D01*
X-47361Y143815D01*
X-47195Y143741D01*
X-46824Y143612D01*
X-46399Y143501D01*
X-45899Y143427D01*
X-45362Y143390D01*
X-45251D01*
X-45139Y143408D01*
X-44973D01*
X-44769Y143445D01*
X-44528Y143482D01*
X-44269Y143519D01*
X-44010Y143593D01*
X-43714Y143667D01*
X-43417Y143778D01*
X-43121Y143908D01*
X-42825Y144056D01*
X-42529Y144241D01*
X-42251Y144445D01*
X-42010Y144686D01*
X-41769Y144963D01*
X-41751Y144982D01*
X-41732Y145019D01*
X-41695Y145093D01*
X-41621Y145186D01*
X-41566Y145315D01*
X-41492Y145463D01*
X-41399Y145630D01*
X-41325Y145834D01*
X-41233Y146056D01*
X-41158Y146297D01*
X-41066Y146556D01*
X-41010Y146852D01*
X-40955Y147148D01*
X-40899Y147463D01*
X-40881Y147815D01*
X-40862Y148167D01*
Y143593D01*
Y148389D01*
X-40881Y148556D01*
X-40899Y148741D01*
X-40918Y148963D01*
X-40955Y149204D01*
X-41010Y149481D01*
X-41158Y150056D01*
X-41251Y150352D01*
X-41362Y150667D01*
X-41510Y150963D01*
X-41677Y151241D01*
X-41862Y151518D01*
X-42066Y151777D01*
X-42084Y151796D01*
X-42121Y151833D01*
X-42195Y151907D01*
X-42288Y151981D01*
X-42399Y152074D01*
X-42547Y152185D01*
X-42714Y152315D01*
X-42899Y152444D01*
X-43103Y152555D01*
X-43343Y152685D01*
X-43584Y152796D01*
X-43862Y152888D01*
X-44140Y152963D01*
X-44454Y153037D01*
X-44769Y153074D01*
X-45102Y153092D01*
X-40862D01*
D02*
G37*
G36*
X103993Y156407D02*
X95235D01*
X101197D01*
X97938Y146926D01*
X94809Y156407D01*
X92050D01*
D01*
X96605Y143593D01*
X92050D01*
X99401D01*
X103993Y156407D01*
D02*
G37*
G36*
X41926Y156314D02*
X39333D01*
Y145760D01*
X32889D01*
D01*
Y143593D01*
X41926D01*
Y156314D01*
D02*
G37*
G36*
X133435Y156481D02*
D01*
Y145723D01*
Y156481D01*
D02*
G37*
G36*
X123473D02*
D01*
Y145575D01*
Y156481D01*
D02*
G37*
G36*
X26520Y156647D02*
X15373D01*
X20317D01*
X20150Y156629D01*
X19946Y156610D01*
X19724Y156573D01*
X19465Y156536D01*
X19187Y156481D01*
X18891Y156407D01*
X18576Y156314D01*
X18261Y156203D01*
X17928Y156055D01*
X17613Y155907D01*
X17317Y155722D01*
X17002Y155499D01*
X16724Y155259D01*
X16706D01*
X16688Y155222D01*
X16632Y155166D01*
X16576Y155111D01*
X16502Y155018D01*
X16428Y154907D01*
X16225Y154648D01*
X16021Y154314D01*
X15799Y153907D01*
X15595Y153444D01*
X15410Y152907D01*
X17965Y152296D01*
Y152315D01*
X17984Y152333D01*
Y152389D01*
X18021Y152463D01*
X18076Y152629D01*
X18169Y152851D01*
X18298Y153111D01*
X18465Y153370D01*
X18687Y153629D01*
X18928Y153851D01*
X18965Y153870D01*
X19058Y153944D01*
X19206Y154037D01*
X19409Y154148D01*
X19669Y154259D01*
X19965Y154351D01*
X20298Y154425D01*
X20668Y154444D01*
X20798D01*
X20909Y154425D01*
X21020Y154407D01*
X21168Y154388D01*
X21483Y154314D01*
X21854Y154185D01*
X22242Y154000D01*
X22446Y153888D01*
X22631Y153759D01*
X22817Y153592D01*
X22983Y153407D01*
Y153389D01*
X23020Y153351D01*
X23057Y153296D01*
X23113Y153203D01*
X23187Y153092D01*
X23261Y152963D01*
X23335Y152796D01*
X23409Y152611D01*
X23502Y152389D01*
X23576Y152148D01*
X23650Y151870D01*
X23724Y151574D01*
X23779Y151241D01*
X23816Y150889D01*
X23835Y150500D01*
X23853Y150074D01*
Y150056D01*
Y149963D01*
Y149833D01*
X23835Y149685D01*
Y149481D01*
X23798Y149241D01*
X23779Y149000D01*
X23742Y148722D01*
X23631Y148148D01*
X23483Y147574D01*
X23391Y147296D01*
X23261Y147037D01*
X23131Y146797D01*
X22983Y146593D01*
X22965Y146574D01*
X22946Y146556D01*
X22891Y146500D01*
X22817Y146426D01*
X22631Y146278D01*
X22372Y146093D01*
X22057Y145889D01*
X21668Y145741D01*
X21224Y145611D01*
X20983Y145593D01*
X20724Y145575D01*
X20631D01*
X20557Y145593D01*
X20354Y145611D01*
X20113Y145649D01*
X19854Y145741D01*
X19557Y145852D01*
X19261Y146000D01*
X18965Y146223D01*
X18928Y146260D01*
X18835Y146352D01*
X18706Y146500D01*
X18558Y146722D01*
X18372Y147019D01*
X18206Y147371D01*
X18039Y147796D01*
X17891Y148296D01*
X15373Y147519D01*
Y147500D01*
X15391Y147426D01*
X15428Y147315D01*
X15484Y147167D01*
X15558Y147000D01*
X15632Y146797D01*
X15725Y146574D01*
X15836Y146334D01*
X16095Y145834D01*
X16428Y145315D01*
X16836Y144815D01*
X17058Y144593D01*
X17299Y144389D01*
X17317Y144371D01*
X17354Y144352D01*
X17428Y144297D01*
X17539Y144223D01*
X17669Y144149D01*
X17836Y144075D01*
X18021Y143982D01*
X18224Y143890D01*
X18465Y143778D01*
X18724Y143686D01*
X19002Y143612D01*
X19298Y143538D01*
X19613Y143464D01*
X19965Y143408D01*
X20317Y143390D01*
X20706Y143371D01*
X26520D01*
X20817D01*
X20946Y143390D01*
X21131Y143408D01*
X21335Y143427D01*
X21594Y143464D01*
X21872Y143519D01*
X22187Y143593D01*
X22502Y143686D01*
X22835Y143797D01*
X23187Y143945D01*
X23539Y144112D01*
X23890Y144297D01*
X24242Y144538D01*
X24576Y144797D01*
X24890Y145112D01*
X24909Y145130D01*
X24964Y145186D01*
X25038Y145297D01*
X25150Y145426D01*
X25261Y145611D01*
X25409Y145815D01*
X25557Y146074D01*
X25705Y146371D01*
X25853Y146685D01*
X26001Y147037D01*
X26149Y147445D01*
X26261Y147871D01*
X26372Y148315D01*
X26446Y148815D01*
X26501Y149333D01*
X26520Y149889D01*
Y150037D01*
X26501Y150204D01*
Y150426D01*
X26464Y150685D01*
X26427Y151000D01*
X26390Y151333D01*
X26316Y151722D01*
X26223Y152111D01*
X26112Y152518D01*
X25983Y152926D01*
X25816Y153351D01*
X25631Y153759D01*
X25409Y154148D01*
X25168Y154518D01*
X24872Y154870D01*
X24853Y154888D01*
X24798Y154944D01*
X24705Y155036D01*
X24576Y155148D01*
X24409Y155277D01*
X24205Y155425D01*
X23983Y155592D01*
X23705Y155759D01*
X23409Y155925D01*
X23094Y156092D01*
X22724Y156240D01*
X22353Y156370D01*
X21928Y156481D01*
X21502Y156573D01*
X21020Y156629D01*
X20539Y156647D01*
X26520D01*
D02*
G37*
G36*
X-17976Y153092D02*
X-22420D01*
X-22568Y153074D01*
X-22734Y153055D01*
X-22938Y153018D01*
X-23160Y152981D01*
X-23401Y152926D01*
X-23660Y152851D01*
X-23919Y152759D01*
X-24197Y152648D01*
X-24475Y152500D01*
X-24734Y152352D01*
X-24993Y152166D01*
X-25253Y151944D01*
X-25475Y151704D01*
X-25493Y151685D01*
X-25530Y151648D01*
X-25586Y151555D01*
X-25660Y151444D01*
X-25753Y151296D01*
X-25845Y151130D01*
X-25956Y150907D01*
X-26067Y150667D01*
X-26179Y150389D01*
X-26290Y150074D01*
X-26382Y149741D01*
X-26475Y149352D01*
X-26549Y148945D01*
X-26604Y148500D01*
X-26641Y148037D01*
Y148111D01*
Y147519D01*
X-20494D01*
Y147500D01*
Y147463D01*
Y147408D01*
X-20512Y147334D01*
X-20531Y147148D01*
X-20568Y146889D01*
X-20642Y146630D01*
X-20753Y146334D01*
X-20883Y146056D01*
X-21068Y145815D01*
X-21086Y145797D01*
X-21179Y145723D01*
X-21290Y145630D01*
X-21457Y145519D01*
X-21660Y145408D01*
X-21920Y145315D01*
X-22197Y145241D01*
X-22494Y145223D01*
X-22586D01*
X-22697Y145241D01*
X-22827Y145260D01*
X-22975Y145297D01*
X-23142Y145352D01*
X-23308Y145426D01*
X-23456Y145538D01*
X-23475Y145556D01*
X-23531Y145593D01*
X-23605Y145667D01*
X-23679Y145778D01*
X-23790Y145926D01*
X-23882Y146093D01*
X-23975Y146315D01*
X-24068Y146556D01*
X-26512Y146149D01*
Y146130D01*
X-26493Y146093D01*
X-26456Y146019D01*
X-26419Y145926D01*
X-26364Y145815D01*
X-26308Y145686D01*
X-26141Y145389D01*
X-25938Y145056D01*
X-25679Y144704D01*
X-25364Y144389D01*
X-25012Y144093D01*
X-24993D01*
X-24975Y144056D01*
X-24901Y144038D01*
X-24827Y143982D01*
X-24734Y143926D01*
X-24604Y143871D01*
X-24475Y143815D01*
X-24308Y143741D01*
X-23938Y143612D01*
X-23512Y143501D01*
X-23012Y143427D01*
X-22475Y143390D01*
X-22364D01*
X-22253Y143408D01*
X-22086D01*
X-21883Y143445D01*
X-21642Y143482D01*
X-21383Y143519D01*
X-21123Y143593D01*
X-20827Y143667D01*
X-20531Y143778D01*
X-20235Y143908D01*
X-19938Y144056D01*
X-19642Y144241D01*
X-19364Y144445D01*
X-19124Y144686D01*
X-18883Y144963D01*
X-18864Y144982D01*
X-18846Y145019D01*
X-18809Y145093D01*
X-18735Y145186D01*
X-18679Y145315D01*
X-18605Y145463D01*
X-18513Y145630D01*
X-18439Y145834D01*
X-18346Y146056D01*
X-18272Y146297D01*
X-18179Y146556D01*
X-18124Y146852D01*
X-18068Y147148D01*
X-18013Y147463D01*
X-17994Y147815D01*
X-17976Y148167D01*
Y144112D01*
Y148389D01*
X-17994Y148556D01*
X-18013Y148741D01*
X-18031Y148963D01*
X-18068Y149204D01*
X-18124Y149481D01*
X-18272Y150056D01*
X-18364Y150352D01*
X-18476Y150667D01*
X-18624Y150963D01*
X-18790Y151241D01*
X-18975Y151518D01*
X-19179Y151777D01*
X-19198Y151796D01*
X-19235Y151833D01*
X-19309Y151907D01*
X-19401Y151981D01*
X-19512Y152074D01*
X-19661Y152185D01*
X-19827Y152315D01*
X-20012Y152444D01*
X-20216Y152555D01*
X-20457Y152685D01*
X-20698Y152796D01*
X-20975Y152888D01*
X-21253Y152963D01*
X-21568Y153037D01*
X-21883Y153074D01*
X-22216Y153092D01*
X-17976D01*
D02*
G37*
G36*
X103993Y156407D02*
D01*
Y143945D01*
Y156407D01*
D02*
G37*
G36*
X64775D02*
X54609D01*
Y154240D01*
X58387D01*
Y143593D01*
X54609D01*
D01*
X64775D01*
Y156407D01*
D02*
G37*
G36*
X53832D02*
X43666D01*
Y154240D01*
X47443D01*
Y143593D01*
X43666D01*
D01*
X53832D01*
Y156407D01*
D02*
G37*
G36*
X-218Y143593D02*
X-1996D01*
X-218D01*
D01*
D02*
G37*
G36*
X-7514Y152888D02*
X-17161D01*
D01*
X-13476Y143593D01*
X-11254D01*
X-7514Y152888D01*
D01*
D02*
G37*
G36*
X-51435Y153092D02*
X-55953D01*
X-56120Y153074D01*
X-56323Y153037D01*
X-56583Y152981D01*
X-56860Y152888D01*
X-57138Y152777D01*
X-57435Y152611D01*
X-56657Y150481D01*
X-56638Y150500D01*
X-56546Y150537D01*
X-56435Y150611D01*
X-56287Y150685D01*
X-56101Y150759D01*
X-55916Y150833D01*
X-55712Y150870D01*
X-55509Y150889D01*
X-55435D01*
X-55324Y150870D01*
X-55212Y150852D01*
X-55083Y150815D01*
X-54935Y150759D01*
X-54787Y150685D01*
X-54639Y150592D01*
X-54620Y150574D01*
X-54583Y150537D01*
X-54509Y150463D01*
X-54435Y150352D01*
X-54342Y150222D01*
X-54250Y150037D01*
X-54157Y149815D01*
X-54083Y149556D01*
Y149518D01*
X-54064Y149463D01*
X-54046Y149407D01*
Y149315D01*
X-54027Y149204D01*
X-54009Y149056D01*
X-53990Y148889D01*
X-53972Y148704D01*
X-53953Y148463D01*
X-53935Y148222D01*
Y147926D01*
X-53916Y147611D01*
X-53898Y147260D01*
Y146871D01*
Y146445D01*
Y143593D01*
X-51435D01*
Y153092D01*
D02*
G37*
G36*
X13725Y153092D02*
X4133D01*
X8744D01*
X8596Y153074D01*
X8411Y153055D01*
X8207Y153018D01*
X7966Y152981D01*
X7725Y152926D01*
X7448Y152851D01*
X7170Y152759D01*
X6892Y152648D01*
X6596Y152518D01*
X6300Y152352D01*
X6022Y152166D01*
X5744Y151963D01*
X5485Y151722D01*
X5466Y151704D01*
X5429Y151666D01*
X5355Y151574D01*
X5281Y151481D01*
X5170Y151333D01*
X5059Y151185D01*
X4929Y150981D01*
X4800Y150778D01*
X4689Y150537D01*
X4559Y150278D01*
X4448Y149981D01*
X4337Y149685D01*
X4263Y149352D01*
X4189Y149019D01*
X4152Y148648D01*
X4133Y148259D01*
D01*
D01*
Y148056D01*
X4152Y147908D01*
X4170Y147722D01*
X4207Y147519D01*
X4244Y147278D01*
X4300Y147037D01*
X4374Y146760D01*
X4466Y146482D01*
X4578Y146186D01*
X4707Y145889D01*
X4874Y145593D01*
X5059Y145315D01*
X5263Y145037D01*
X5503Y144760D01*
X5522Y144741D01*
X5559Y144704D01*
X5633Y144630D01*
X5744Y144538D01*
X5874Y144445D01*
X6040Y144334D01*
X6226Y144204D01*
X6429Y144075D01*
X6670Y143945D01*
X6929Y143815D01*
X7207Y143704D01*
X7522Y143612D01*
X7836Y143519D01*
X8188Y143445D01*
X8540Y143408D01*
X8929Y143390D01*
X9059D01*
X9151Y143408D01*
X9262D01*
X9392Y143427D01*
X9707Y143464D01*
X10096Y143538D01*
X10503Y143630D01*
X10929Y143778D01*
X11373Y143963D01*
X11392D01*
X11429Y143982D01*
X11484Y144019D01*
X11558Y144075D01*
X11762Y144204D01*
X12021Y144389D01*
X12299Y144630D01*
X12595Y144926D01*
X12873Y145260D01*
X13132Y145649D01*
Y145667D01*
X13151Y145704D01*
X13188Y145760D01*
X13225Y145852D01*
X13262Y145963D01*
X13317Y146093D01*
X13373Y146241D01*
X13428Y146408D01*
X13484Y146593D01*
X13540Y146797D01*
X13632Y147260D01*
X13706Y147796D01*
X13725Y148371D01*
Y143445D01*
Y148500D01*
X13706Y148574D01*
Y148685D01*
X13688Y148815D01*
X13651Y149130D01*
X13577Y149481D01*
X13466Y149870D01*
X13336Y150296D01*
X13132Y150722D01*
Y150741D01*
X13095Y150778D01*
X13077Y150833D01*
X13021Y150907D01*
X12873Y151111D01*
X12688Y151370D01*
X12447Y151648D01*
X12151Y151944D01*
X11818Y152222D01*
X11429Y152481D01*
X11410D01*
X11373Y152500D01*
X11318Y152537D01*
X11225Y152574D01*
X11133Y152629D01*
X11003Y152666D01*
X10855Y152722D01*
X10707Y152796D01*
X10336Y152907D01*
X9910Y153000D01*
X9448Y153074D01*
X8947Y153092D01*
X13725D01*
D01*
D02*
G37*
G36*
X80385D02*
X75404D01*
X75255Y153074D01*
X75070Y153055D01*
X74867Y153018D01*
X74626Y152981D01*
X74385Y152926D01*
X74107Y152851D01*
X73830Y152759D01*
X73552Y152648D01*
X73256Y152518D01*
X72959Y152352D01*
X72682Y152166D01*
X72404Y151963D01*
X72145Y151722D01*
X72126Y151704D01*
X72089Y151666D01*
X72015Y151574D01*
X71941Y151481D01*
X71830Y151333D01*
X71719Y151185D01*
X71589Y150981D01*
X71460Y150778D01*
X71349Y150537D01*
X71219Y150278D01*
X71108Y149981D01*
X70997Y149685D01*
X70923Y149352D01*
X70848Y149019D01*
X70812Y148648D01*
X70793Y148259D01*
Y143390D01*
Y148056D01*
X70812Y147908D01*
X70830Y147722D01*
X70867Y147519D01*
X70904Y147278D01*
X70960Y147037D01*
X71034Y146760D01*
X71126Y146482D01*
X71237Y146186D01*
X71367Y145889D01*
X71534Y145593D01*
X71719Y145315D01*
X71922Y145037D01*
X72163Y144760D01*
X72182Y144741D01*
X72219Y144704D01*
X72293Y144630D01*
X72404Y144538D01*
X72533Y144445D01*
X72700Y144334D01*
X72885Y144204D01*
X73089Y144075D01*
X73330Y143945D01*
X73589Y143815D01*
X73867Y143704D01*
X74181Y143612D01*
X74496Y143519D01*
X74848Y143445D01*
X75200Y143408D01*
X75589Y143390D01*
X75718D01*
X75811Y143408D01*
X75922D01*
X76052Y143427D01*
X76367Y143464D01*
X76755Y143538D01*
X77163Y143630D01*
X77589Y143778D01*
X78033Y143963D01*
X78052D01*
X78088Y143982D01*
X78144Y144019D01*
X78218Y144075D01*
X78422Y144204D01*
X78681Y144389D01*
X78959Y144630D01*
X79255Y144926D01*
X79533Y145260D01*
X79792Y145649D01*
Y145667D01*
X79811Y145704D01*
X79848Y145760D01*
X79885Y145852D01*
X79922Y145963D01*
X79977Y146093D01*
X80033Y146241D01*
X80088Y146408D01*
X80144Y146593D01*
X80199Y146797D01*
X80292Y147260D01*
X80366Y147796D01*
X80385Y148371D01*
Y148500D01*
X80366Y148574D01*
Y148685D01*
X80347Y148815D01*
X80310Y149130D01*
X80236Y149481D01*
X80125Y149870D01*
X79996Y150296D01*
X79792Y150722D01*
Y150741D01*
X79755Y150778D01*
X79736Y150833D01*
X79681Y150907D01*
X79533Y151111D01*
X79348Y151370D01*
X79107Y151648D01*
X78811Y151944D01*
X78477Y152222D01*
X78088Y152481D01*
X78070D01*
X78033Y152500D01*
X77977Y152537D01*
X77885Y152574D01*
X77792Y152629D01*
X77663Y152666D01*
X77515Y152722D01*
X77366Y152796D01*
X76996Y152907D01*
X76570Y153000D01*
X76107Y153074D01*
X75607Y153092D01*
X80385D01*
D02*
G37*
G36*
X113196Y156481D02*
X104882Y156481D01*
D01*
X108863Y156481D01*
X108734Y156462D01*
X108585Y156444D01*
X108400Y156407D01*
X108215Y156370D01*
X107993Y156314D01*
X107752Y156240D01*
X107530Y156147D01*
X107289Y156055D01*
X107049Y155925D01*
X106808Y155759D01*
X106567Y155592D01*
X106345Y155388D01*
X106141Y155148D01*
X106123Y155129D01*
X106086Y155073D01*
X106030Y154981D01*
X105938Y154851D01*
X105845Y154666D01*
X105734Y154444D01*
X105623Y154203D01*
X105512Y153889D01*
X105400Y153555D01*
X105271Y153166D01*
X105178Y152740D01*
X105086Y152259D01*
X104993Y151741D01*
X104938Y151185D01*
X104901Y150574D01*
X104882Y149907D01*
Y143352D01*
Y149556D01*
X104901Y149315D01*
X104919Y149019D01*
X104956Y148667D01*
X104993Y148296D01*
X105030Y147889D01*
X105104Y147463D01*
X105197Y147019D01*
X105289Y146593D01*
X105419Y146167D01*
X105549Y145741D01*
X105734Y145352D01*
X105919Y144982D01*
X106141Y144667D01*
X106160Y144649D01*
X106197Y144612D01*
X106252Y144538D01*
X106326Y144464D01*
X106437Y144371D01*
X106567Y144260D01*
X106734Y144130D01*
X106900Y144019D01*
X107104Y143890D01*
X107308Y143760D01*
X107548Y143649D01*
X107808Y143556D01*
X108085Y143482D01*
X108400Y143408D01*
X108715Y143371D01*
X109048Y143352D01*
X109122D01*
X109233Y143371D01*
X109363D01*
X109511Y143390D01*
X109696Y143427D01*
X109900Y143464D01*
X110122Y143538D01*
X110363Y143612D01*
X110604Y143704D01*
X110863Y143815D01*
X111104Y143964D01*
X111363Y144112D01*
X111604Y144315D01*
X111844Y144519D01*
X112066Y144778D01*
X112085Y144797D01*
X112122Y144852D01*
X112178Y144945D01*
X112233Y145056D01*
X112326Y145223D01*
X112418Y145426D01*
X112529Y145686D01*
X112622Y145963D01*
X112733Y146297D01*
X112844Y146667D01*
X112937Y147093D01*
X113011Y147556D01*
X113085Y148074D01*
X113140Y148648D01*
X113177Y149259D01*
X113196Y149926D01*
Y156481D01*
D02*
G37*
%LPD*%
G36*
X86791Y143390D02*
X83366D01*
X83495Y143408D01*
X83662Y143427D01*
X83847Y143445D01*
X84051Y143482D01*
X84255Y143538D01*
X84458Y143612D01*
X84477Y143630D01*
X84551Y143649D01*
X84643Y143704D01*
X84754Y143760D01*
X85014Y143945D01*
X85143Y144056D01*
X85254Y144186D01*
X85273Y144204D01*
X85292Y144260D01*
X85329Y144334D01*
X85384Y144445D01*
X85440Y144575D01*
X85495Y144741D01*
X85551Y144926D01*
X85588Y145130D01*
Y145149D01*
X85606Y145223D01*
Y145334D01*
X85625Y145519D01*
X85643Y145760D01*
Y146056D01*
X85662Y146223D01*
Y146426D01*
Y146630D01*
Y146871D01*
Y150926D01*
X86791D01*
Y143390D01*
D02*
G37*
G36*
X-34604D02*
X-38029D01*
X-37899Y143408D01*
X-37733Y143427D01*
X-37548Y143445D01*
X-37344Y143482D01*
X-37140Y143538D01*
X-36937Y143612D01*
X-36918Y143630D01*
X-36844Y143649D01*
X-36751Y143704D01*
X-36640Y143760D01*
X-36381Y143945D01*
X-36251Y144056D01*
X-36140Y144186D01*
X-36122Y144204D01*
X-36103Y144260D01*
X-36066Y144334D01*
X-36011Y144445D01*
X-35955Y144575D01*
X-35900Y144741D01*
X-35844Y144926D01*
X-35807Y145130D01*
Y145149D01*
X-35789Y145223D01*
Y145334D01*
X-35770Y145519D01*
X-35752Y145760D01*
Y146056D01*
X-35733Y146223D01*
Y146426D01*
Y146630D01*
Y146871D01*
Y150926D01*
X-34604D01*
Y143390D01*
D02*
G37*
G36*
X-44973Y151166D02*
X-44788Y151129D01*
X-44584Y151055D01*
X-44362Y150963D01*
X-44140Y150815D01*
X-43936Y150611D01*
X-43917Y150592D01*
X-43862Y150500D01*
X-43769Y150370D01*
X-43677Y150185D01*
X-43566Y149963D01*
X-43492Y149685D01*
X-43436Y149370D01*
X-43417Y149018D01*
X-47084D01*
Y149037D01*
Y149074D01*
Y149111D01*
X-47065Y149185D01*
X-47047Y149389D01*
X-47010Y149611D01*
X-46936Y149870D01*
X-46843Y150148D01*
X-46695Y150407D01*
X-46528Y150630D01*
X-46510Y150648D01*
X-46436Y150722D01*
X-46325Y150815D01*
X-46176Y150926D01*
X-45991Y151018D01*
X-45769Y151111D01*
X-45528Y151185D01*
X-45251Y151203D01*
X-45121D01*
X-44973Y151166D01*
D02*
G37*
G36*
X-22086Y151166D02*
X-21901Y151130D01*
X-21697Y151055D01*
X-21475Y150963D01*
X-21253Y150815D01*
X-21049Y150611D01*
X-21031Y150592D01*
X-20975Y150500D01*
X-20883Y150370D01*
X-20790Y150185D01*
X-20679Y149963D01*
X-20605Y149685D01*
X-20549Y149370D01*
X-20531Y149019D01*
X-24197D01*
Y149037D01*
Y149074D01*
Y149111D01*
X-24179Y149185D01*
X-24160Y149389D01*
X-24123Y149611D01*
X-24049Y149870D01*
X-23956Y150148D01*
X-23808Y150407D01*
X-23642Y150630D01*
X-23623Y150648D01*
X-23549Y150722D01*
X-23438Y150815D01*
X-23290Y150926D01*
X-23105Y151018D01*
X-22882Y151111D01*
X-22642Y151185D01*
X-22364Y151203D01*
X-22234D01*
X-22086Y151166D01*
D02*
G37*
G36*
X64775Y143593D02*
X60979D01*
Y154240D01*
X64775D01*
Y143593D01*
D02*
G37*
G36*
X53832D02*
X50036D01*
Y154240D01*
X53832D01*
Y143593D01*
D02*
G37*
G36*
X-11847Y148130D02*
X-12347Y146556D01*
X-12365Y146574D01*
X-12384Y146648D01*
X-12421Y146760D01*
X-12458Y146871D01*
X-12550Y147148D01*
X-12587Y147260D01*
X-12606Y147352D01*
Y147371D01*
X-12624Y147426D01*
X-12643Y147500D01*
X-12680Y147593D01*
X-12754Y147852D01*
X-12865Y148130D01*
X-14643Y152888D01*
X-10087D01*
X-11847Y148130D01*
D02*
G37*
G36*
X-51435Y152888D02*
X-53713D01*
Y151574D01*
X-53731Y151592D01*
X-53805Y151704D01*
X-53916Y151870D01*
X-54064Y152074D01*
X-54213Y152277D01*
X-54398Y152481D01*
X-54564Y152666D01*
X-54750Y152796D01*
X-54768Y152815D01*
X-54824Y152851D01*
X-54935Y152888D01*
X-55064Y152944D01*
X-55212Y153000D01*
X-55398Y153055D01*
X-55583Y153074D01*
X-55805Y153092D01*
X-51435D01*
Y152888D01*
D02*
G37*
G36*
X9096Y151074D02*
X9262Y151055D01*
X9485Y151000D01*
X9744Y150907D01*
X10022Y150778D01*
X10299Y150592D01*
X10559Y150352D01*
X10577Y150315D01*
X10651Y150222D01*
X10762Y150037D01*
X10873Y149815D01*
X11003Y149518D01*
X11095Y149148D01*
X11170Y148722D01*
X11207Y148241D01*
Y148222D01*
Y148185D01*
Y148111D01*
X11188Y148019D01*
Y147889D01*
X11170Y147759D01*
X11133Y147463D01*
X11040Y147111D01*
X10929Y146760D01*
X10781Y146408D01*
X10559Y146111D01*
X10521Y146074D01*
X10447Y146000D01*
X10299Y145889D01*
X10096Y145760D01*
X9873Y145611D01*
X9596Y145500D01*
X9281Y145426D01*
X8929Y145389D01*
X8836D01*
X8762Y145408D01*
X8596Y145426D01*
X8374Y145482D01*
X8114Y145575D01*
X7836Y145686D01*
X7577Y145871D01*
X7318Y146111D01*
X7281Y146149D01*
X7207Y146241D01*
X7114Y146426D01*
X6985Y146648D01*
X6855Y146963D01*
X6763Y147315D01*
X6689Y147759D01*
X6651Y148241D01*
Y148259D01*
Y148296D01*
Y148371D01*
X6670Y148463D01*
Y148574D01*
X6689Y148722D01*
X6726Y149019D01*
X6818Y149352D01*
X6929Y149704D01*
X7096Y150056D01*
X7318Y150352D01*
X7355Y150389D01*
X7429Y150463D01*
X7577Y150592D01*
X7763Y150722D01*
X8003Y150852D01*
X8262Y150981D01*
X8577Y151055D01*
X8929Y151092D01*
X9022D01*
X9096Y151074D01*
D02*
G37*
G36*
X75755D02*
X75922Y151055D01*
X76144Y151000D01*
X76403Y150907D01*
X76681Y150778D01*
X76959Y150592D01*
X77218Y150352D01*
X77237Y150315D01*
X77311Y150222D01*
X77422Y150037D01*
X77533Y149815D01*
X77663Y149518D01*
X77755Y149148D01*
X77829Y148722D01*
X77866Y148241D01*
Y148222D01*
Y148185D01*
Y148111D01*
X77848Y148019D01*
Y147889D01*
X77829Y147759D01*
X77792Y147463D01*
X77700Y147111D01*
X77589Y146760D01*
X77440Y146408D01*
X77218Y146111D01*
X77181Y146074D01*
X77107Y146000D01*
X76959Y145889D01*
X76755Y145760D01*
X76533Y145611D01*
X76255Y145500D01*
X75941Y145426D01*
X75589Y145389D01*
X75496D01*
X75422Y145408D01*
X75255Y145426D01*
X75033Y145482D01*
X74774Y145575D01*
X74496Y145686D01*
X74237Y145871D01*
X73978Y146111D01*
X73941Y146149D01*
X73867Y146241D01*
X73774Y146426D01*
X73644Y146648D01*
X73515Y146963D01*
X73422Y147315D01*
X73348Y147759D01*
X73311Y148241D01*
Y148259D01*
Y148296D01*
Y148371D01*
X73330Y148463D01*
Y148574D01*
X73348Y148722D01*
X73385Y149019D01*
X73478Y149352D01*
X73589Y149704D01*
X73756Y150056D01*
X73978Y150352D01*
X74015Y150389D01*
X74089Y150463D01*
X74237Y150592D01*
X74422Y150722D01*
X74663Y150852D01*
X74922Y150981D01*
X75237Y151055D01*
X75589Y151092D01*
X75681D01*
X75755Y151074D01*
D02*
G37*
G36*
X113196Y150278D02*
X113177Y150518D01*
X113159Y150815D01*
X113122Y151166D01*
X113085Y151537D01*
X113048Y151944D01*
X112974Y152370D01*
X112900Y152796D01*
X112789Y153240D01*
X112677Y153666D01*
X112529Y154074D01*
X112363Y154462D01*
X112178Y154833D01*
X111955Y155148D01*
X111937Y155166D01*
X111900Y155203D01*
X111844Y155277D01*
X111752Y155351D01*
X111659Y155462D01*
X111530Y155574D01*
X111363Y155685D01*
X111196Y155814D01*
X110992Y155944D01*
X110789Y156055D01*
X110548Y156166D01*
X110289Y156277D01*
X110011Y156351D01*
X109696Y156425D01*
X109382Y156462D01*
X109048Y156481D01*
X113196D01*
Y150278D01*
D02*
G37*
G36*
X109215Y154425D02*
X109307Y154407D01*
X109437Y154370D01*
X109567Y154314D01*
X109715Y154240D01*
X109845Y154148D01*
X109863Y154129D01*
X109900Y154092D01*
X109956Y154018D01*
X110030Y153926D01*
X110122Y153777D01*
X110196Y153611D01*
X110289Y153389D01*
X110363Y153129D01*
Y153111D01*
X110381Y153092D01*
Y153018D01*
X110400Y152944D01*
X110419Y152833D01*
X110437Y152703D01*
X110456Y152555D01*
X110474Y152370D01*
X110511Y152148D01*
X110530Y151926D01*
X110548Y151648D01*
X110567Y151370D01*
X110585Y151037D01*
Y150704D01*
X110604Y150315D01*
Y149907D01*
Y149889D01*
Y149815D01*
Y149685D01*
Y149537D01*
Y149352D01*
X110585Y149148D01*
Y148907D01*
X110567Y148667D01*
X110548Y148148D01*
X110511Y147630D01*
X110493Y147389D01*
X110456Y147167D01*
X110419Y146963D01*
X110381Y146778D01*
X110363Y146741D01*
X110344Y146649D01*
X110289Y146500D01*
X110233Y146334D01*
X110141Y146149D01*
X110048Y145963D01*
X109937Y145797D01*
X109826Y145667D01*
X109808Y145649D01*
X109770Y145630D01*
X109696Y145575D01*
X109604Y145538D01*
X109493Y145482D01*
X109363Y145426D01*
X109215Y145408D01*
X109048Y145389D01*
X108974D01*
X108882Y145408D01*
X108789Y145426D01*
X108659Y145463D01*
X108530Y145500D01*
X108400Y145575D01*
X108271Y145667D01*
X108252Y145686D01*
X108215Y145723D01*
X108141Y145797D01*
X108067Y145908D01*
X107993Y146037D01*
X107900Y146223D01*
X107808Y146426D01*
X107734Y146685D01*
Y146704D01*
X107715Y146722D01*
Y146797D01*
X107697Y146871D01*
X107678Y146982D01*
X107660Y147111D01*
X107622Y147260D01*
X107604Y147445D01*
X107585Y147648D01*
X107548Y147889D01*
X107530Y148148D01*
X107511Y148445D01*
X107493Y148759D01*
Y149111D01*
X107474Y149500D01*
Y149907D01*
Y149926D01*
Y150000D01*
Y150130D01*
Y150278D01*
Y150463D01*
X107493Y150667D01*
Y150907D01*
X107511Y151148D01*
X107530Y151666D01*
X107567Y152166D01*
X107604Y152407D01*
X107641Y152648D01*
X107678Y152851D01*
X107715Y153018D01*
Y153037D01*
X107734Y153055D01*
X107752Y153148D01*
X107808Y153296D01*
X107863Y153481D01*
X107956Y153666D01*
X108048Y153851D01*
X108160Y154018D01*
X108271Y154148D01*
X108289Y154166D01*
X108326Y154203D01*
X108400Y154240D01*
X108493Y154296D01*
X108604Y154351D01*
X108734Y154407D01*
X108882Y154425D01*
X109048Y154444D01*
X109122D01*
X109215Y154425D01*
D02*
G37*
D14*
X38500Y-20375D02*
D03*
D16*
X156500Y-18500D02*
D03*
X148500D02*
D03*
X140500D02*
D03*
X132500D02*
D03*
X124500D02*
D03*
X116500D02*
D03*
X108500D02*
D03*
X100500D02*
D03*
X92500D02*
D03*
X84500D02*
D03*
X76500D02*
D03*
X68500D02*
D03*
X60500D02*
D03*
X52500D02*
D03*
X44500D02*
D03*
X36500D02*
D03*
X28500D02*
D03*
X20500D02*
D03*
X-19500D02*
D03*
X-27500D02*
D03*
X-35500D02*
D03*
X-43500D02*
D03*
X-51500D02*
D03*
X-59500D02*
D03*
X-67500D02*
D03*
X-75500D02*
D03*
D17*
X-82500Y448000D02*
D03*
X159500D02*
D03*
D18*
X1000Y240000D02*
D03*
X26000D02*
D03*
X-74000D02*
D03*
X-24000D02*
D03*
X-49000D02*
D03*
X126000D02*
D03*
X101000D02*
D03*
X76000D02*
D03*
X51000D02*
D03*
D19*
X151000D02*
D03*
D30*
X-43050Y50000D02*
D03*
X-30350D02*
D03*
X-17650D02*
D03*
X-4950D02*
D03*
Y120000D02*
D03*
X-17650D02*
D03*
X-30350D02*
D03*
X-43050D02*
D03*
X-55750D02*
D03*
X7750D02*
D03*
Y50000D02*
D03*
X-55750D02*
D03*
X-68450Y120000D02*
D03*
Y50000D02*
D03*
X20450Y120000D02*
D03*
Y50000D02*
D03*
X81950D02*
D03*
X94650D02*
D03*
X107350D02*
D03*
X120050D02*
D03*
Y120000D02*
D03*
X107350D02*
D03*
X94650D02*
D03*
X81950D02*
D03*
X69250D02*
D03*
X132750D02*
D03*
Y50000D02*
D03*
X69250D02*
D03*
X56550Y120000D02*
D03*
Y50000D02*
D03*
X145450Y120000D02*
D03*
Y50000D02*
D03*
D31*
X76001Y204350D02*
D03*
Y185650D02*
D03*
X51001Y204350D02*
D03*
Y185650D02*
D03*
X101001Y204350D02*
D03*
Y185650D02*
D03*
X26001Y204350D02*
D03*
Y185650D02*
D03*
X1001Y204350D02*
D03*
Y185650D02*
D03*
X-23999Y204350D02*
D03*
Y185650D02*
D03*
X-48999Y204350D02*
D03*
Y185650D02*
D03*
X126001Y204350D02*
D03*
Y185650D02*
D03*
D32*
X-55750Y30700D02*
D03*
Y39300D02*
D03*
X132750D02*
D03*
Y30700D02*
D03*
X107350Y39300D02*
D03*
Y30700D02*
D03*
X81950Y39300D02*
D03*
Y30700D02*
D03*
X-68450Y39300D02*
D03*
Y30700D02*
D03*
X7750Y39300D02*
D03*
Y30700D02*
D03*
X94650D02*
D03*
Y39300D02*
D03*
X-43050D02*
D03*
Y30700D02*
D03*
X69250D02*
D03*
Y39300D02*
D03*
X56550D02*
D03*
Y30700D02*
D03*
X20450D02*
D03*
Y39300D02*
D03*
X120050Y30700D02*
D03*
Y39300D02*
D03*
X-4950Y30700D02*
D03*
Y39300D02*
D03*
X-17650D02*
D03*
Y30700D02*
D03*
X-30350D02*
D03*
Y39300D02*
D03*
X145450Y30700D02*
D03*
Y39300D02*
D03*
M02*
