M48
;Layer_Color=9474304
;FILE_FORMAT=4:4
METRIC,LZ
;TYPE=PLATED
T1F00S00C0.2000
T2F00S00C1.0000
T3F00S00C2.6000
%
T01
X-0002Y-0
Y0002
X0
X0002
Y-0
X0004
X000525Y0
X000605
X000685
X000765
X000845
X000925
X001005
X001085
X0014Y-0
X0016
Y0002
Y0004
Y0006
X0014545Y0006
X0013275
X0012005
X0010735
X0009465
X0008195
X0006925
X0005655
X0004Y0006
X0002045Y0006
X0000775
X-0000495
X-0001765
X-0003035
Y0013
X-0001765
X-0000495
X0000775
X0002045
X0005655
X0006925
X0008195
X0009465
X0010735
X0012005
X0013275
X0014545
X00126001Y0017565
X00101001
X00076001
X00051001
X00026001
X00001001
X-00023999
X0004Y0002
X0014
X0018
Y0004
Y0006
X-0004305Y0006
X-0005575
X-0006845
X-0008Y0006
Y0004
Y0002
X-0006
X-0004
Y-0
X-000515Y0
X-0006Y-0
X-0008
X-001Y0002
Y0004
Y0006
X-0006845Y0013
X-0005575
X-0004305
X-00048999Y0017565
T02
X-00024Y0024
X00001
X00026
X00051
X00076
X00101
X00126
X00151
X-00049
X-00074
T03
X-000825Y00448
X001595
M30
