G04*
G04 #@! TF.GenerationSoftware,Altium Limited,Altium Designer,24.7.2 (38)*
G04*
G04 Layer_Physical_Order=3*
G04 Layer_Color=16440176*
%FSLAX25Y25*%
%MOIN*%
G70*
G04*
G04 #@! TF.SameCoordinates,4FEF5C06-4E4D-4149-9763-4A6A228635AC*
G04*
G04*
G04 #@! TF.FilePolarity,Positive*
G04*
G01*
G75*
%ADD38C,0.01968*%
%ADD39C,0.01181*%
%ADD40C,0.07087*%
%ADD43C,0.01968*%
G36*
X58052Y13602D02*
X53740D01*
X53716Y13597D01*
X53691Y13601D01*
X53382Y13586D01*
X53310Y13567D01*
X53236D01*
X52630Y13447D01*
X52539Y13409D01*
X52442Y13390D01*
X51871Y13154D01*
X51789Y13099D01*
X51698Y13061D01*
X51185Y12718D01*
X51115Y12648D01*
X51033Y12593D01*
X50596Y12156D01*
X50541Y12074D01*
X50471Y12004D01*
X50128Y11491D01*
X50090Y11400D01*
X50035Y11317D01*
X49799Y10747D01*
X49780Y10650D01*
X49742Y10559D01*
X49621Y9953D01*
Y9879D01*
X49603Y9807D01*
X49588Y9498D01*
X49592Y9473D01*
X49587Y9449D01*
Y1003D01*
X-11201D01*
X-11201Y12795D01*
X-11208Y12828D01*
X-11203Y12861D01*
X-11229Y13246D01*
X-11254Y13342D01*
X-11261Y13440D01*
X-11460Y14185D01*
X-11518Y14303D01*
X-11560Y14427D01*
X-11946Y15094D01*
X-12032Y15193D01*
X-12105Y15302D01*
X-12650Y15847D01*
X-12760Y15920D01*
X-12858Y16007D01*
X-13526Y16392D01*
X-13650Y16434D01*
X-13768Y16493D01*
X-14512Y16692D01*
X-14643Y16701D01*
X-14772Y16726D01*
X-15543D01*
X-15672Y16701D01*
X-15803Y16692D01*
X-16547Y16493D01*
X-16665Y16434D01*
X-16789Y16392D01*
X-17457Y16007D01*
X-17555Y15920D01*
X-17665Y15847D01*
X-18210Y15302D01*
X-18283Y15193D01*
X-18369Y15094D01*
X-18755Y14427D01*
X-18797Y14303D01*
X-18855Y14185D01*
X-19054Y13440D01*
X-19061Y13342D01*
X-19086Y13246D01*
X-19112Y12861D01*
X-19107Y12828D01*
X-19114Y12795D01*
Y1003D01*
X-49587D01*
Y9449D01*
X-49592Y9473D01*
X-49588Y9498D01*
X-49603Y9807D01*
X-49621Y9879D01*
Y9953D01*
X-49742Y10559D01*
X-49780Y10650D01*
X-49799Y10747D01*
X-50035Y11317D01*
X-50090Y11400D01*
X-50128Y11491D01*
X-50471Y12004D01*
X-50541Y12074D01*
X-50596Y12156D01*
X-51033Y12593D01*
X-51115Y12648D01*
X-51185Y12718D01*
X-51698Y13061D01*
X-51789Y13099D01*
X-51871Y13154D01*
X-52442Y13390D01*
X-52539Y13409D01*
X-52630Y13447D01*
X-53236Y13567D01*
X-53310D01*
X-53382Y13586D01*
X-53691Y13601D01*
X-53716Y13597D01*
X-53740Y13602D01*
X-58052D01*
Y68795D01*
X-32500D01*
Y52165D01*
Y51774D01*
X-32423Y51390D01*
X-32124Y50666D01*
X-31906Y50341D01*
X-31352Y49787D01*
X-31027Y49569D01*
X-30303Y49270D01*
X-29919Y49193D01*
X-29136D01*
X-28752Y49270D01*
X-28029Y49569D01*
X-27703Y49787D01*
X-27149Y50341D01*
X-26932Y50666D01*
X-26632Y51390D01*
X-26555Y51774D01*
Y52165D01*
Y68795D01*
X-2972D01*
Y51665D01*
Y51274D01*
X-2896Y50890D01*
X-2596Y50166D01*
X-2378Y49841D01*
X-1825Y49287D01*
X-1499Y49069D01*
X-776Y48770D01*
X-392Y48693D01*
X392D01*
X776Y48770D01*
X1499Y49069D01*
X1825Y49287D01*
X2378Y49841D01*
X2596Y50166D01*
X2896Y50890D01*
X2972Y51274D01*
Y51665D01*
Y68795D01*
X26555D01*
Y52146D01*
Y51754D01*
X26632Y51370D01*
X26932Y50647D01*
X27149Y50321D01*
X27703Y49767D01*
X28028Y49550D01*
X28752Y49250D01*
X29136Y49174D01*
X29919D01*
X30303Y49250D01*
X31027Y49550D01*
X31352Y49767D01*
X31906Y50321D01*
X32124Y50647D01*
X32423Y51370D01*
X32500Y51754D01*
Y52146D01*
Y68795D01*
X58052D01*
Y13602D01*
D02*
G37*
%LPC*%
G36*
X48739Y54724D02*
X48426D01*
X48137Y54605D01*
X47915Y54383D01*
X47795Y54094D01*
Y53780D01*
X47915Y53491D01*
X48137Y53269D01*
X48426Y53150D01*
X48739D01*
X49029Y53269D01*
X49250Y53491D01*
X49370Y53780D01*
Y54094D01*
X49250Y54383D01*
X49029Y54605D01*
X48739Y54724D01*
D02*
G37*
G36*
X42125D02*
X41812D01*
X41522Y54605D01*
X41301Y54383D01*
X41181Y54094D01*
Y53780D01*
X41301Y53491D01*
X41522Y53269D01*
X41812Y53150D01*
X42125D01*
X42415Y53269D01*
X42636Y53491D01*
X42756Y53780D01*
Y54094D01*
X42636Y54383D01*
X42415Y54605D01*
X42125Y54724D01*
D02*
G37*
G36*
X18227D02*
X17914D01*
X17625Y54605D01*
X17403Y54383D01*
X17284Y54094D01*
Y53780D01*
X17403Y53491D01*
X17625Y53269D01*
X17914Y53150D01*
X18227D01*
X18517Y53269D01*
X18738Y53491D01*
X18858Y53780D01*
Y54094D01*
X18738Y54383D01*
X18517Y54605D01*
X18227Y54724D01*
D02*
G37*
G36*
X11613D02*
X11300D01*
X11011Y54605D01*
X10789Y54383D01*
X10669Y54094D01*
Y53780D01*
X10789Y53491D01*
X11011Y53269D01*
X11300Y53150D01*
X11613D01*
X11903Y53269D01*
X12124Y53491D01*
X12244Y53780D01*
Y54094D01*
X12124Y54383D01*
X11903Y54605D01*
X11613Y54724D01*
D02*
G37*
G36*
X-11300D02*
X-11613D01*
X-11903Y54605D01*
X-12124Y54383D01*
X-12244Y54094D01*
Y53780D01*
X-12124Y53491D01*
X-11903Y53269D01*
X-11613Y53150D01*
X-11300D01*
X-11011Y53269D01*
X-10789Y53491D01*
X-10669Y53780D01*
Y54094D01*
X-10789Y54383D01*
X-11011Y54605D01*
X-11300Y54724D01*
D02*
G37*
G36*
X-17914D02*
X-18227D01*
X-18517Y54605D01*
X-18738Y54383D01*
X-18858Y54094D01*
Y53780D01*
X-18738Y53491D01*
X-18517Y53269D01*
X-18227Y53150D01*
X-17914D01*
X-17625Y53269D01*
X-17403Y53491D01*
X-17284Y53780D01*
Y54094D01*
X-17403Y54383D01*
X-17625Y54605D01*
X-17914Y54724D01*
D02*
G37*
G36*
X-41812D02*
X-42125D01*
X-42415Y54605D01*
X-42636Y54383D01*
X-42756Y54094D01*
Y53780D01*
X-42636Y53491D01*
X-42415Y53269D01*
X-42125Y53150D01*
X-41812D01*
X-41522Y53269D01*
X-41301Y53491D01*
X-41181Y53780D01*
Y54094D01*
X-41301Y54383D01*
X-41522Y54605D01*
X-41812Y54724D01*
D02*
G37*
G36*
X-48426D02*
X-48739D01*
X-49029Y54605D01*
X-49250Y54383D01*
X-49370Y54094D01*
Y53780D01*
X-49250Y53491D01*
X-49029Y53269D01*
X-48739Y53150D01*
X-48426D01*
X-48137Y53269D01*
X-47915Y53491D01*
X-47795Y53780D01*
Y54094D01*
X-47915Y54383D01*
X-48137Y54605D01*
X-48426Y54724D01*
D02*
G37*
G36*
X52243Y55315D02*
X51694D01*
X51188Y55105D01*
X50800Y54718D01*
X50591Y54211D01*
Y53663D01*
X50800Y53156D01*
X50912Y53045D01*
X50911Y53039D01*
X50916Y53026D01*
X50916Y53021D01*
X50920Y53013D01*
X50925Y52993D01*
X50930Y52966D01*
X50951Y52653D01*
X50952Y52555D01*
X50965Y52524D01*
Y47384D01*
X47616Y44035D01*
X26416D01*
X26386Y44048D01*
X24905Y44074D01*
X24593Y44098D01*
X24512Y44109D01*
X24487Y44115D01*
X24403Y44200D01*
X24275Y44253D01*
X24160Y44330D01*
X24024Y44357D01*
X23896Y44409D01*
X23758D01*
X23622Y44436D01*
X8961D01*
X8890Y45809D01*
X8878Y45836D01*
Y45958D01*
X9916Y46997D01*
X19000D01*
X19384Y47073D01*
X19710Y47290D01*
X22166Y49747D01*
X22384Y50073D01*
X22460Y50457D01*
Y52524D01*
X22473Y52555D01*
X22474Y52659D01*
X22481Y52832D01*
X22494Y52959D01*
X22500Y52993D01*
X22505Y53013D01*
X22509Y53021D01*
X22509Y53026D01*
X22514Y53039D01*
X22513Y53045D01*
X22625Y53156D01*
X22835Y53663D01*
Y54211D01*
X22625Y54718D01*
X22237Y55105D01*
X21731Y55315D01*
X21183D01*
X20676Y55105D01*
X20289Y54718D01*
X20079Y54211D01*
Y53663D01*
X20289Y53156D01*
X20400Y53045D01*
X20400Y53039D01*
X20404Y53026D01*
X20405Y53021D01*
X20409Y53013D01*
X20413Y52993D01*
X20418Y52966D01*
X20439Y52653D01*
X20440Y52555D01*
X20453Y52524D01*
Y50872D01*
X18584Y49003D01*
X9500D01*
X9116Y48927D01*
X8790Y48710D01*
X7164Y47084D01*
X6947Y46758D01*
X6870Y46374D01*
Y45825D01*
X6857Y45795D01*
X6833Y44436D01*
X-6581D01*
X-6959Y44528D01*
X-6969Y44545D01*
Y52608D01*
X-6956Y52638D01*
X-6953Y52844D01*
X-6946Y52998D01*
X-6935Y53105D01*
X-6932Y53127D01*
X-6931Y53128D01*
X-6903Y53156D01*
X-6693Y53663D01*
Y54211D01*
X-6903Y54718D01*
X-7290Y55105D01*
X-7797Y55315D01*
X-8345D01*
X-8851Y55105D01*
X-9239Y54718D01*
X-9449Y54211D01*
Y53663D01*
X-9239Y53156D01*
X-9034Y52952D01*
X-9034Y52944D01*
X-9026Y52926D01*
X-9026Y52921D01*
X-9023Y52917D01*
X-9020Y52907D01*
X-9013Y52873D01*
X-9007Y52832D01*
X-8990Y52588D01*
X-8989Y52489D01*
X-8979Y52465D01*
X-8986Y52441D01*
X-8976Y52423D01*
Y44436D01*
X-22414D01*
X-22764Y44585D01*
X-22769Y44593D01*
Y45773D01*
X-22846Y46157D01*
X-23063Y46482D01*
X-24790Y48210D01*
X-25116Y48427D01*
X-25500Y48504D01*
X-35584D01*
X-37579Y50498D01*
Y52524D01*
X-37566Y52555D01*
X-37565Y52659D01*
X-37558Y52832D01*
X-37545Y52959D01*
X-37539Y52993D01*
X-37534Y53013D01*
X-37531Y53021D01*
X-37530Y53026D01*
X-37526Y53039D01*
X-37526Y53045D01*
X-37415Y53156D01*
X-37205Y53663D01*
Y54211D01*
X-37415Y54718D01*
X-37802Y55105D01*
X-38309Y55315D01*
X-38857D01*
X-39363Y55105D01*
X-39751Y54718D01*
X-39961Y54211D01*
Y53663D01*
X-39751Y53156D01*
X-39639Y53045D01*
X-39640Y53039D01*
X-39635Y53026D01*
X-39635Y53021D01*
X-39631Y53013D01*
X-39626Y52993D01*
X-39621Y52966D01*
X-39600Y52653D01*
X-39599Y52555D01*
X-39586Y52524D01*
Y50083D01*
X-39510Y49699D01*
X-39292Y49373D01*
X-36710Y46790D01*
X-36384Y46573D01*
X-36000Y46496D01*
X-25916D01*
X-24776Y45357D01*
Y44436D01*
X-29969D01*
X-30506Y44330D01*
X-30962Y44025D01*
X-36426Y38560D01*
X-36731Y38105D01*
X-36838Y37567D01*
Y12795D01*
X-36811Y12660D01*
Y12521D01*
X-36758Y12393D01*
X-36731Y12258D01*
X-36654Y12143D01*
X-36601Y12015D01*
X-36503Y11917D01*
X-36426Y11802D01*
X-36312Y11725D01*
X-36214Y11627D01*
X-36086Y11574D01*
X-35971Y11497D01*
X-35835Y11470D01*
X-35707Y11417D01*
X-35569D01*
X-35433Y11390D01*
X-35297Y11417D01*
X-35159D01*
X-35031Y11470D01*
X-34895Y11497D01*
X-34780Y11574D01*
X-34653Y11627D01*
X-34555Y11725D01*
X-34440Y11802D01*
X-34363Y11917D01*
X-34265Y12015D01*
X-34212Y12143D01*
X-34135Y12258D01*
X-34108Y12393D01*
X-34055Y12521D01*
Y12660D01*
X-34028Y12795D01*
Y36985D01*
X-29386Y41627D01*
X23622D01*
X23758Y41654D01*
X23896D01*
X24024Y41706D01*
X24160Y41734D01*
X24275Y41810D01*
X24403Y41863D01*
X24455Y41915D01*
X26400Y42015D01*
X26426Y42028D01*
X48031D01*
X48415Y42104D01*
X48741Y42322D01*
X52678Y46259D01*
X52896Y46584D01*
X52972Y46968D01*
Y52524D01*
X52985Y52555D01*
X52986Y52659D01*
X52993Y52832D01*
X53006Y52959D01*
X53012Y52993D01*
X53017Y53013D01*
X53021Y53021D01*
X53021Y53026D01*
X53026Y53039D01*
X53025Y53045D01*
X53137Y53156D01*
X53347Y53663D01*
Y54211D01*
X53137Y54718D01*
X52749Y55105D01*
X52243Y55315D01*
D02*
G37*
G36*
X27716Y30315D02*
X27402D01*
X27113Y30195D01*
X26891Y29974D01*
X26772Y29684D01*
Y29371D01*
X26891Y29081D01*
X27113Y28860D01*
X27402Y28740D01*
X27716D01*
X28005Y28860D01*
X28227Y29081D01*
X28346Y29371D01*
Y29684D01*
X28227Y29974D01*
X28005Y30195D01*
X27716Y30315D01*
D02*
G37*
G36*
X19842D02*
X19528D01*
X19239Y30195D01*
X19017Y29974D01*
X18898Y29684D01*
Y29371D01*
X19017Y29081D01*
X19239Y28860D01*
X19528Y28740D01*
X19842D01*
X20131Y28860D01*
X20353Y29081D01*
X20472Y29371D01*
Y29684D01*
X20353Y29974D01*
X20131Y30195D01*
X19842Y30315D01*
D02*
G37*
G36*
X11968D02*
X11654D01*
X11365Y30195D01*
X11144Y29974D01*
X11024Y29684D01*
Y29371D01*
X11144Y29081D01*
X11365Y28860D01*
X11654Y28740D01*
X11968D01*
X12257Y28860D01*
X12478Y29081D01*
X12598Y29371D01*
Y29684D01*
X12478Y29974D01*
X12257Y30195D01*
X11968Y30315D01*
D02*
G37*
G36*
X4094D02*
X3780D01*
X3491Y30195D01*
X3269Y29974D01*
X3150Y29684D01*
Y29371D01*
X3269Y29081D01*
X3491Y28860D01*
X3780Y28740D01*
X4094D01*
X4383Y28860D01*
X4605Y29081D01*
X4724Y29371D01*
Y29684D01*
X4605Y29974D01*
X4383Y30195D01*
X4094Y30315D01*
D02*
G37*
G36*
X-3780D02*
X-4094D01*
X-4383Y30195D01*
X-4605Y29974D01*
X-4724Y29684D01*
Y29371D01*
X-4605Y29081D01*
X-4383Y28860D01*
X-4094Y28740D01*
X-3780D01*
X-3491Y28860D01*
X-3269Y29081D01*
X-3150Y29371D01*
Y29684D01*
X-3269Y29974D01*
X-3491Y30195D01*
X-3780Y30315D01*
D02*
G37*
G36*
X-11654D02*
X-11968D01*
X-12257Y30195D01*
X-12479Y29974D01*
X-12598Y29684D01*
Y29371D01*
X-12479Y29081D01*
X-12257Y28860D01*
X-11968Y28740D01*
X-11654D01*
X-11365Y28860D01*
X-11144Y29081D01*
X-11024Y29371D01*
Y29684D01*
X-11144Y29974D01*
X-11365Y30195D01*
X-11654Y30315D01*
D02*
G37*
G36*
X-19528D02*
X-19842D01*
X-20131Y30195D01*
X-20353Y29974D01*
X-20472Y29684D01*
Y29371D01*
X-20353Y29081D01*
X-20131Y28860D01*
X-19842Y28740D01*
X-19528D01*
X-19239Y28860D01*
X-19017Y29081D01*
X-18898Y29371D01*
Y29684D01*
X-19017Y29974D01*
X-19239Y30195D01*
X-19528Y30315D01*
D02*
G37*
G36*
X-27402D02*
X-27716D01*
X-28005Y30195D01*
X-28227Y29974D01*
X-28346Y29684D01*
Y29371D01*
X-28227Y29081D01*
X-28005Y28860D01*
X-27716Y28740D01*
X-27402D01*
X-27113Y28860D01*
X-26891Y29081D01*
X-26772Y29371D01*
Y29684D01*
X-26891Y29974D01*
X-27113Y30195D01*
X-27402Y30315D01*
D02*
G37*
G36*
X27716Y13583D02*
X27402D01*
X27113Y13463D01*
X26891Y13241D01*
X26772Y12952D01*
Y12639D01*
X26891Y12349D01*
X27113Y12128D01*
X27402Y12008D01*
X27716D01*
X28005Y12128D01*
X28227Y12349D01*
X28346Y12639D01*
Y12952D01*
X28227Y13241D01*
X28005Y13463D01*
X27716Y13583D01*
D02*
G37*
G36*
X24566D02*
X24253D01*
X23963Y13463D01*
X23742Y13241D01*
X23622Y12952D01*
Y12639D01*
X23742Y12349D01*
X23963Y12128D01*
X24253Y12008D01*
X24566D01*
X24856Y12128D01*
X25077Y12349D01*
X25197Y12639D01*
Y12952D01*
X25077Y13241D01*
X24856Y13463D01*
X24566Y13583D01*
D02*
G37*
G36*
X21417D02*
X21103D01*
X20814Y13463D01*
X20592Y13241D01*
X20472Y12952D01*
Y12639D01*
X20592Y12349D01*
X20814Y12128D01*
X21103Y12008D01*
X21417D01*
X21706Y12128D01*
X21927Y12349D01*
X22047Y12639D01*
Y12952D01*
X21927Y13241D01*
X21706Y13463D01*
X21417Y13583D01*
D02*
G37*
G36*
X18267D02*
X17954D01*
X17664Y13463D01*
X17443Y13241D01*
X17323Y12952D01*
Y12639D01*
X17443Y12349D01*
X17664Y12128D01*
X17954Y12008D01*
X18267D01*
X18556Y12128D01*
X18778Y12349D01*
X18898Y12639D01*
Y12952D01*
X18778Y13241D01*
X18556Y13463D01*
X18267Y13583D01*
D02*
G37*
G36*
X15117D02*
X14804D01*
X14515Y13463D01*
X14293Y13241D01*
X14173Y12952D01*
Y12639D01*
X14293Y12349D01*
X14515Y12128D01*
X14804Y12008D01*
X15117D01*
X15407Y12128D01*
X15628Y12349D01*
X15748Y12639D01*
Y12952D01*
X15628Y13241D01*
X15407Y13463D01*
X15117Y13583D01*
D02*
G37*
G36*
X11968D02*
X11654D01*
X11365Y13463D01*
X11144Y13241D01*
X11024Y12952D01*
Y12639D01*
X11144Y12349D01*
X11365Y12128D01*
X11654Y12008D01*
X11968D01*
X12257Y12128D01*
X12478Y12349D01*
X12598Y12639D01*
Y12952D01*
X12478Y13241D01*
X12257Y13463D01*
X11968Y13583D01*
D02*
G37*
G36*
X8818D02*
X8505D01*
X8215Y13463D01*
X7994Y13241D01*
X7874Y12952D01*
Y12639D01*
X7994Y12349D01*
X8215Y12128D01*
X8505Y12008D01*
X8818D01*
X9107Y12128D01*
X9329Y12349D01*
X9449Y12639D01*
Y12952D01*
X9329Y13241D01*
X9107Y13463D01*
X8818Y13583D01*
D02*
G37*
G36*
X5668D02*
X5355D01*
X5066Y13463D01*
X4844Y13241D01*
X4724Y12952D01*
Y12639D01*
X4844Y12349D01*
X5066Y12128D01*
X5355Y12008D01*
X5668D01*
X5958Y12128D01*
X6179Y12349D01*
X6299Y12639D01*
Y12952D01*
X6179Y13241D01*
X5958Y13463D01*
X5668Y13583D01*
D02*
G37*
%LPD*%
G36*
X52639Y53210D02*
X52622Y53176D01*
X52607Y53133D01*
X52595Y53080D01*
X52584Y53017D01*
X52568Y52863D01*
X52560Y52670D01*
X52559Y52559D01*
X51378D01*
X51377Y52670D01*
X51353Y53017D01*
X51342Y53080D01*
X51330Y53133D01*
X51315Y53176D01*
X51298Y53210D01*
X51279Y53234D01*
X52658D01*
X52639Y53210D01*
D02*
G37*
G36*
X22127D02*
X22110Y53176D01*
X22095Y53133D01*
X22083Y53080D01*
X22072Y53017D01*
X22056Y52863D01*
X22048Y52670D01*
X22047Y52559D01*
X20866D01*
X20865Y52670D01*
X20842Y53017D01*
X20831Y53080D01*
X20818Y53133D01*
X20803Y53176D01*
X20786Y53210D01*
X20768Y53234D01*
X22146D01*
X22127Y53210D01*
D02*
G37*
G36*
X-37912D02*
X-37929Y53176D01*
X-37944Y53133D01*
X-37957Y53080D01*
X-37968Y53017D01*
X-37983Y52863D01*
X-37991Y52670D01*
X-37992Y52559D01*
X-39173D01*
X-39174Y52670D01*
X-39198Y53017D01*
X-39209Y53080D01*
X-39222Y53133D01*
X-39236Y53176D01*
X-39253Y53210D01*
X-39272Y53234D01*
X-37894D01*
X-37912Y53210D01*
D02*
G37*
G36*
X-7328Y53285D02*
X-7339Y53254D01*
X-7349Y53213D01*
X-7358Y53162D01*
X-7371Y53029D01*
X-7379Y52857D01*
X-7382Y52644D01*
X-8563Y52494D01*
X-8564Y52605D01*
X-8583Y52878D01*
X-8594Y52951D01*
X-8607Y53013D01*
X-8623Y53067D01*
X-8642Y53110D01*
X-8663Y53144D01*
X-8686Y53169D01*
X-7315Y53307D01*
X-7328Y53285D01*
D02*
G37*
G36*
X8570Y43727D02*
X7178D01*
X7198Y43767D01*
X7216Y43843D01*
X7232Y43957D01*
X7257Y44295D01*
X7283Y45787D01*
X8465D01*
X8570Y43727D01*
D02*
G37*
G36*
X-7381Y44364D02*
X-7362Y44090D01*
X-7351Y44018D01*
X-7338Y43955D01*
X-7322Y43902D01*
X-7303Y43858D01*
X-7282Y43824D01*
X-7259Y43800D01*
X-8630Y43662D01*
X-8617Y43683D01*
X-8606Y43714D01*
X-8596Y43755D01*
X-8587Y43806D01*
X-8574Y43939D01*
X-8566Y44112D01*
X-8563Y44325D01*
X-7382Y44474D01*
X-7381Y44364D01*
D02*
G37*
G36*
X-23181Y44392D02*
X-23161Y44119D01*
X-23149Y44047D01*
X-23134Y43985D01*
X-23117Y43932D01*
X-23097Y43889D01*
X-23074Y43856D01*
X-23049Y43832D01*
X-24410Y43621D01*
X-24401Y43639D01*
X-24394Y43667D01*
X-24386Y43706D01*
X-24380Y43755D01*
X-24367Y43965D01*
X-24363Y44270D01*
X-23182Y44502D01*
X-23181Y44392D01*
D02*
G37*
G36*
X24357Y43708D02*
X24434Y43690D01*
X24547Y43674D01*
X24886Y43648D01*
X26378Y43622D01*
Y42441D01*
X24318Y42335D01*
Y43728D01*
X24357Y43708D01*
D02*
G37*
D38*
X25000Y185000D02*
X37500Y172500D01*
X25000Y185000D02*
Y222441D01*
X5000Y186500D02*
X19764Y171736D01*
X5000Y186500D02*
Y222441D01*
X-15000Y177000D02*
Y222441D01*
Y177000D02*
X-9764Y171764D01*
X-35000Y207500D02*
Y222441D01*
Y207500D02*
X-30500Y203000D01*
Y179000D02*
Y203000D01*
X-40276Y169224D02*
X-30500Y179000D01*
X-40276Y146653D02*
Y169224D01*
X37500Y172500D02*
X45500D01*
X50276Y167724D01*
Y146653D02*
Y167724D01*
X19764Y146653D02*
Y171736D01*
X-9764Y146653D02*
Y171764D01*
X-7874Y43031D02*
X7874D01*
X-23622D02*
X-7874D01*
X-35433Y12795D02*
Y37567D01*
X-29969Y43031D02*
X-23622D01*
X-35433Y37567D02*
X-29969Y43031D01*
X7874D02*
X23622D01*
D39*
X48031D01*
X51968Y46968D02*
Y53937D01*
X48031Y43031D02*
X51968Y46968D01*
X7874Y43031D02*
Y46374D01*
X9500Y48000D01*
X19000D02*
X21457Y50457D01*
X9500Y48000D02*
X19000D01*
X21457Y50457D02*
Y53937D01*
X-7972Y43130D02*
X-7874Y43031D01*
X-8071Y53937D02*
X-7972Y53839D01*
Y43130D02*
Y53839D01*
X-23773Y43182D02*
X-23622Y43031D01*
X-23773Y43182D02*
Y45773D01*
X-36000Y47500D02*
X-25500D01*
X-23773Y45773D01*
X-38583Y50083D02*
X-36000Y47500D01*
X-38583Y50083D02*
Y53937D01*
D40*
X5000Y222441D02*
D03*
X-15000D02*
D03*
X-35000D02*
D03*
X25000D02*
D03*
D43*
X-31496Y32480D02*
D03*
X31496D02*
D03*
X23622D02*
D03*
X15748D02*
D03*
X7874D02*
D03*
X0D02*
D03*
X-7874D02*
D03*
X-15748D02*
D03*
X-23622D02*
D03*
X45276Y51181D02*
D03*
X14764D02*
D03*
X-14764D02*
D03*
X-45276D02*
D03*
X55118Y19685D02*
D03*
X-55118D02*
D03*
Y35433D02*
D03*
X55118D02*
D03*
Y51181D02*
D03*
X35433D02*
D03*
X24606D02*
D03*
X4921D02*
D03*
X-4921D02*
D03*
X-24606D02*
D03*
X-55118D02*
D03*
X-35433D02*
D03*
X35433Y66929D02*
D03*
X55118D02*
D03*
X4921D02*
D03*
X24606D02*
D03*
X-24606D02*
D03*
X-4921D02*
D03*
X-35433D02*
D03*
X-55118D02*
D03*
X50276Y146653D02*
D03*
X19764D02*
D03*
X-9764D02*
D03*
X-40276D02*
D03*
X-7874Y43031D02*
D03*
X51968Y53937D02*
D03*
X21457D02*
D03*
X-8071D02*
D03*
X-38583D02*
D03*
X7874Y43031D02*
D03*
X23622D02*
D03*
X-23622D02*
D03*
X-35433Y12795D02*
D03*
M02*
