G04*
G04 #@! TF.GenerationSoftware,Altium Limited,Altium Designer,22.1.2 (22)*
G04*
G04 Layer_Color=2752767*
%FSLAX25Y25*%
%MOIN*%
G70*
G04*
G04 #@! TF.SameCoordinates,0E3957D1-4792-4D0B-97BD-F84BD75C4E9A*
G04*
G04*
G04 #@! TF.FilePolarity,Positive*
G04*
G01*
G75*
%ADD37C,0.00200*%
%ADD38C,0.00267*%
D37*
X-406Y199987D02*
Y201587D01*
X1194D01*
Y199987D01*
X-406D01*
X9436D02*
Y201587D01*
X11036D01*
Y199987D01*
X9436D01*
X-29934D02*
Y201587D01*
X-28334D01*
Y199987D01*
X-29934D01*
X-10249D02*
Y201587D01*
X-8649D01*
Y199987D01*
X-10249D01*
X-20091D02*
Y201587D01*
X-18491D01*
Y199987D01*
X-20091D01*
X58649D02*
Y201587D01*
X60249D01*
Y199987D01*
X58649D01*
X48806D02*
Y201587D01*
X50406D01*
Y199987D01*
X48806D01*
X38964D02*
Y201587D01*
X40564D01*
Y199987D01*
X38964D01*
X29121D02*
Y201587D01*
X30721D01*
Y199987D01*
X29121D01*
X19279D02*
Y201587D01*
X20879D01*
Y199987D01*
X19279D01*
X-21949Y70657D02*
X-22749Y72257D01*
X-21149D01*
X-21949Y70657D01*
X-11949D02*
X-12749Y72257D01*
X-11149D01*
X-11949Y70657D01*
X-1949D02*
X-2749Y72257D01*
X-1149D01*
X-1949Y70657D01*
X8051D02*
X7251Y72257D01*
X8851D01*
X8051Y70657D01*
X27264D02*
X26464Y72257D01*
X28064D01*
X27264Y70657D01*
X37264D02*
X36464Y72257D01*
X38064D01*
X37264Y70657D01*
X47264D02*
X46464Y72257D01*
X48064D01*
X47264Y70657D01*
X57264D02*
X56464Y72257D01*
X58064D01*
X57264Y70657D01*
X-20276Y3137D02*
X-21076Y4737D01*
X-19476D01*
X-20276Y3137D01*
X-24449Y59948D02*
X-25249Y61548D01*
X-23649D01*
X-24449Y59948D01*
X20669Y3137D02*
X19869Y4737D01*
X21469D01*
X20669Y3137D01*
X-14449Y59948D02*
X-15249Y61548D01*
X-13649D01*
X-14449Y59948D01*
X23819Y5105D02*
X23019Y6706D01*
X24619D01*
X23819Y5105D01*
X-4449Y59948D02*
X-5249Y61548D01*
X-3649D01*
X-4449Y59948D01*
X26969Y3137D02*
X26169Y4737D01*
X27768D01*
X26969Y3137D01*
X5551Y59948D02*
X4751Y61548D01*
X6351D01*
X5551Y59948D01*
X30118Y5105D02*
X29318Y6706D01*
X30918D01*
X30118Y5105D01*
X24764Y59948D02*
X23964Y61548D01*
X25564D01*
X24764Y59948D01*
X33268Y3137D02*
X32468Y4737D01*
X34068D01*
X33268Y3137D01*
X34764Y59948D02*
X33964Y61548D01*
X35564D01*
X34764Y59948D01*
X36417Y5105D02*
X35617Y6706D01*
X37217D01*
X36417Y5105D01*
X44764Y59948D02*
X43964Y61548D01*
X45564D01*
X44764Y59948D01*
X39567Y3137D02*
X38767Y4737D01*
X40367D01*
X39567Y3137D01*
X54764Y59948D02*
X53964Y61548D01*
X55564D01*
X54764Y59948D01*
X42717Y5105D02*
X41916Y6706D01*
X43516D01*
X42717Y5105D01*
X-19291Y157665D02*
X-20091Y159265D01*
X-18491D01*
X-19291Y157665D01*
Y139948D02*
X-20091Y141548D01*
X-18491D01*
X-19291Y139948D01*
X-21949Y95460D02*
X-22749Y97060D01*
X-21149D01*
X-21949Y95460D01*
X-9449Y157665D02*
X-10249Y159265D01*
X-8649D01*
X-9449Y157665D01*
Y139948D02*
X-10249Y141548D01*
X-8649D01*
X-9449Y139948D01*
X-11949Y95460D02*
X-12749Y97060D01*
X-11149D01*
X-11949Y95460D01*
X394Y157665D02*
X-406Y159265D01*
X1194D01*
X394Y157665D01*
Y139948D02*
X-406Y141548D01*
X1194D01*
X394Y139948D01*
X-1949Y95460D02*
X-2749Y97060D01*
X-1149D01*
X-1949Y95460D01*
X10236Y157665D02*
X9436Y159265D01*
X11036D01*
X10236Y157665D01*
Y139948D02*
X9436Y141548D01*
X11036D01*
X10236Y139948D01*
X8051Y95460D02*
X7251Y97060D01*
X8851D01*
X8051Y95460D01*
X20079Y157665D02*
X19279Y159265D01*
X20879D01*
X20079Y157665D01*
Y139948D02*
X19279Y141548D01*
X20879D01*
X20079Y139948D01*
X27264Y95460D02*
X26464Y97060D01*
X28064D01*
X27264Y95460D01*
X29921Y157665D02*
X29121Y159265D01*
X30721D01*
X29921Y157665D01*
Y139948D02*
X29121Y141548D01*
X30721D01*
X29921Y139948D01*
X37264Y95460D02*
X36464Y97060D01*
X38064D01*
X37264Y95460D01*
X39764Y157665D02*
X38964Y159265D01*
X40564D01*
X39764Y157665D01*
Y139948D02*
X38964Y141548D01*
X40564D01*
X39764Y139948D01*
X47264Y95460D02*
X46464Y97060D01*
X48064D01*
X47264Y95460D01*
X49606Y157665D02*
X48806Y159265D01*
X50406D01*
X49606Y157665D01*
Y139948D02*
X48806Y141548D01*
X50406D01*
X49606Y139948D01*
X57264Y95460D02*
X56464Y97060D01*
X58064D01*
X57264Y95460D01*
X59894Y2377D02*
X59094Y3977D01*
X60694D01*
X59894Y2377D01*
X52020D02*
X51220Y3977D01*
X52820D01*
X52020Y2377D01*
X-34594D02*
X-35394Y3977D01*
X-33794D01*
X-34594Y2377D01*
Y18125D02*
X-35394Y19725D01*
X-33794D01*
X-34594Y18125D01*
Y10251D02*
X-35394Y11851D01*
X-33794D01*
X-34594Y10251D01*
Y25999D02*
X-35394Y27599D01*
X-33794D01*
X-34594Y25999D01*
Y33873D02*
X-35394Y35473D01*
X-33794D01*
X-34594Y33873D01*
Y41747D02*
X-35394Y43347D01*
X-33794D01*
X-34594Y41747D01*
Y49621D02*
X-35394Y51221D01*
X-33794D01*
X-34594Y49621D01*
Y57495D02*
X-35394Y59095D01*
X-33794D01*
X-34594Y57495D01*
X-26720Y2377D02*
X-27520Y3977D01*
X-25920D01*
X-26720Y2377D01*
Y18125D02*
X-27520Y19725D01*
X-25920D01*
X-26720Y18125D01*
Y25999D02*
X-27520Y27599D01*
X-25920D01*
X-26720Y25999D01*
Y33873D02*
X-27520Y35473D01*
X-25920D01*
X-26720Y33873D01*
Y41747D02*
X-27520Y43347D01*
X-25920D01*
X-26720Y41747D01*
Y49621D02*
X-27520Y51221D01*
X-25920D01*
X-26720Y49621D01*
X-18846Y10251D02*
X-19646Y11851D01*
X-18046D01*
X-18846Y10251D01*
Y18125D02*
X-19646Y19725D01*
X-18046D01*
X-18846Y18125D01*
Y25999D02*
X-19646Y27599D01*
X-18046D01*
X-18846Y25999D01*
Y33873D02*
X-19646Y35473D01*
X-18046D01*
X-18846Y33873D01*
Y41747D02*
X-19646Y43347D01*
X-18046D01*
X-18846Y41747D01*
Y49621D02*
X-19646Y51221D01*
X-18046D01*
X-18846Y49621D01*
X-10972Y2377D02*
X-11772Y3977D01*
X-10172D01*
X-10972Y2377D01*
Y10251D02*
X-11772Y11851D01*
X-10172D01*
X-10972Y10251D01*
Y18125D02*
X-11772Y19725D01*
X-10172D01*
X-10972Y18125D01*
Y25999D02*
X-11772Y27599D01*
X-10172D01*
X-10972Y25999D01*
Y33873D02*
X-11772Y35473D01*
X-10172D01*
X-10972Y33873D01*
Y49621D02*
X-11772Y51221D01*
X-10172D01*
X-10972Y49621D01*
X-3098Y10251D02*
X-3898Y11851D01*
X-2298D01*
X-3098Y10251D01*
Y18125D02*
X-3898Y19725D01*
X-2298D01*
X-3098Y18125D01*
Y25999D02*
X-3898Y27599D01*
X-2298D01*
X-3098Y25999D01*
Y33873D02*
X-3898Y35473D01*
X-2298D01*
X-3098Y33873D01*
X4776Y2377D02*
X3976Y3977D01*
X5576D01*
X4776Y2377D01*
Y10251D02*
X3976Y11851D01*
X5576D01*
X4776Y10251D01*
Y18125D02*
X3976Y19725D01*
X5576D01*
X4776Y18125D01*
Y25999D02*
X3976Y27599D01*
X5576D01*
X4776Y25999D01*
Y33873D02*
X3976Y35473D01*
X5576D01*
X4776Y33873D01*
X12650Y2377D02*
X11850Y3977D01*
X13450D01*
X12650Y2377D01*
Y10251D02*
X11850Y11851D01*
X13450D01*
X12650Y10251D01*
Y18125D02*
X11850Y19725D01*
X13450D01*
X12650Y18125D01*
Y25999D02*
X11850Y27599D01*
X13450D01*
X12650Y25999D01*
Y33873D02*
X11850Y35473D01*
X13450D01*
X12650Y33873D01*
Y49621D02*
X11850Y51221D01*
X13450D01*
X12650Y49621D01*
Y57495D02*
X11850Y59095D01*
X13450D01*
X12650Y57495D01*
X20524Y49621D02*
X19724Y51221D01*
X21324D01*
X20524Y49621D01*
X52020Y10251D02*
X51220Y11851D01*
X52820D01*
X52020Y10251D01*
Y18125D02*
X51220Y19725D01*
X52820D01*
X52020Y18125D01*
Y25999D02*
X51220Y27599D01*
X52820D01*
X52020Y25999D01*
Y33873D02*
X51220Y35473D01*
X52820D01*
X52020Y33873D01*
Y41747D02*
X51220Y43347D01*
X52820D01*
X52020Y41747D01*
X59894Y10251D02*
X59094Y11851D01*
X60694D01*
X59894Y10251D01*
Y18125D02*
X59094Y19725D01*
X60694D01*
X59894Y18125D01*
Y25999D02*
X59094Y27599D01*
X60694D01*
X59894Y25999D01*
Y33873D02*
X59094Y35473D01*
X60694D01*
X59894Y33873D01*
Y41747D02*
X59094Y43347D01*
X60694D01*
X59894Y41747D01*
Y49621D02*
X59094Y51221D01*
X60694D01*
X59894Y49621D01*
Y57495D02*
X59094Y59095D01*
X60694D01*
X59894Y57495D01*
X67768Y2377D02*
X66968Y3977D01*
X68568D01*
X67768Y2377D01*
Y10251D02*
X66968Y11851D01*
X68568D01*
X67768Y10251D01*
Y18125D02*
X66968Y19725D01*
X68568D01*
X67768Y18125D01*
Y25999D02*
X66968Y27599D01*
X68568D01*
X67768Y25999D01*
Y33873D02*
X66968Y35473D01*
X68568D01*
X67768Y33873D01*
Y41747D02*
X66968Y43347D01*
X68568D01*
X67768Y41747D01*
Y49621D02*
X66968Y51221D01*
X68568D01*
X67768Y49621D01*
Y57495D02*
X66968Y59095D01*
X68568D01*
X67768Y57495D01*
D38*
X-31680Y176378D02*
G03*
X-31680Y176378I-800J0D01*
G01*
X63595D02*
G03*
X63595Y176378I-800J0D01*
G01*
M02*
