G04*
G04 #@! TF.GenerationSoftware,Altium Limited,Altium Designer,22.1.2 (22)*
G04*
G04 Layer_Physical_Order=1*
G04 Layer_Color=255*
%FSLAX25Y25*%
%MOIN*%
G70*
G04*
G04 #@! TF.SameCoordinates,6C204DCC-978F-4A87-A690-EB2E95B516E8*
G04*
G04*
G04 #@! TF.FilePolarity,Positive*
G04*
G01*
G75*
%ADD11C,0.00787*%
%ADD14R,0.02362X0.01968*%
%ADD15R,0.01850X0.02047*%
%ADD16R,0.05512X0.02756*%
%ADD17R,0.02047X0.01850*%
%ADD18R,0.02756X0.03937*%
G04:AMPARAMS|DCode=19|XSize=23.62mil|YSize=8.66mil|CornerRadius=0.26mil|HoleSize=0mil|Usage=FLASHONLY|Rotation=180.000|XOffset=0mil|YOffset=0mil|HoleType=Round|Shape=RoundedRectangle|*
%AMROUNDEDRECTD19*
21,1,0.02362,0.00814,0,0,180.0*
21,1,0.02310,0.00866,0,0,180.0*
1,1,0.00052,-0.01155,0.00407*
1,1,0.00052,0.01155,0.00407*
1,1,0.00052,0.01155,-0.00407*
1,1,0.00052,-0.01155,-0.00407*
%
%ADD19ROUNDEDRECTD19*%
G04:AMPARAMS|DCode=20|XSize=23.62mil|YSize=8.66mil|CornerRadius=0.26mil|HoleSize=0mil|Usage=FLASHONLY|Rotation=270.000|XOffset=0mil|YOffset=0mil|HoleType=Round|Shape=RoundedRectangle|*
%AMROUNDEDRECTD20*
21,1,0.02362,0.00814,0,0,270.0*
21,1,0.02310,0.00866,0,0,270.0*
1,1,0.00052,-0.00407,-0.01155*
1,1,0.00052,-0.00407,0.01155*
1,1,0.00052,0.00407,0.01155*
1,1,0.00052,0.00407,-0.01155*
%
%ADD20ROUNDEDRECTD20*%
%ADD33R,0.02362X0.09055*%
%ADD34C,0.01181*%
%ADD35C,0.01500*%
%ADD36C,0.01968*%
%ADD37C,0.05315*%
%ADD38R,0.05315X0.05315*%
%ADD39R,0.20866X0.20866*%
%ADD40C,0.01968*%
G36*
X57657Y61949D02*
X58681D01*
Y62992D01*
X73209D01*
Y807D01*
X68898D01*
X68873Y802D01*
X68848Y805D01*
X68540Y790D01*
X68468Y772D01*
X68393D01*
X67788Y652D01*
X67696Y614D01*
X67599Y595D01*
X67029Y358D01*
X66947Y303D01*
X66855Y266D01*
X66342Y-77D01*
X66272Y-147D01*
X66190Y-202D01*
X65753Y-639D01*
X65698Y-721D01*
X65629Y-791D01*
X65286Y-1304D01*
X65248Y-1396D01*
X65193Y-1478D01*
X65003Y-1936D01*
X57693D01*
Y-390D01*
X57693Y-390D01*
X57631Y-82D01*
X57458Y178D01*
X55568Y2068D01*
X55307Y2242D01*
X55000Y2303D01*
X53833D01*
X52968Y3167D01*
Y4785D01*
X53159Y4912D01*
X53463Y5368D01*
X53570Y5906D01*
X53463Y6443D01*
X53159Y6899D01*
X52703Y7203D01*
X52165Y7310D01*
X51628Y7203D01*
X51172Y6899D01*
X50867Y6443D01*
X50760Y5906D01*
X50867Y5368D01*
X51172Y4912D01*
X51363Y4785D01*
Y2835D01*
X51424Y2527D01*
X51598Y2267D01*
X52932Y932D01*
X52932Y932D01*
X53193Y758D01*
X53500Y697D01*
X54667D01*
X56087Y-722D01*
Y-1936D01*
X3956D01*
Y0D01*
X3950Y33D01*
X3954Y66D01*
X3929Y451D01*
X3903Y546D01*
X3897Y645D01*
X3697Y1390D01*
X3639Y1507D01*
X3597Y1632D01*
X3212Y2299D01*
X3125Y2398D01*
X3052Y2507D01*
X2507Y3052D01*
X2398Y3125D01*
X2299Y3212D01*
X1632Y3597D01*
X1508Y3639D01*
X1390Y3697D01*
X645Y3897D01*
X514Y3905D01*
X385Y3931D01*
X-385D01*
X-514Y3905D01*
X-645Y3897D01*
X-1390Y3697D01*
X-1507Y3639D01*
X-1632Y3597D01*
X-2299Y3212D01*
X-2398Y3125D01*
X-2507Y3052D01*
X-3052Y2507D01*
X-3125Y2398D01*
X-3212Y2299D01*
X-3597Y1632D01*
X-3639Y1508D01*
X-3697Y1390D01*
X-3897Y645D01*
X-3903Y546D01*
X-3929Y451D01*
X-3954Y66D01*
X-3950Y33D01*
X-3956Y0D01*
Y-1936D01*
X-20847D01*
Y1946D01*
X-20258Y2536D01*
X-19738Y2639D01*
X-19282Y2944D01*
X-18978Y3399D01*
X-18871Y3937D01*
X-18978Y4475D01*
X-19282Y4930D01*
X-19738Y5235D01*
X-20276Y5342D01*
X-20813Y5235D01*
X-21269Y4930D01*
X-21574Y4475D01*
X-21677Y3955D01*
X-22560Y3072D01*
X-22777Y2746D01*
X-22854Y2362D01*
Y-1936D01*
X-34688D01*
X-34878Y-1478D01*
X-34933Y-1396D01*
X-34971Y-1304D01*
X-35314Y-791D01*
X-35384Y-721D01*
X-35438Y-639D01*
X-35875Y-202D01*
X-35957Y-147D01*
X-36027Y-77D01*
X-36540Y266D01*
X-36632Y303D01*
X-36714Y358D01*
X-37284Y595D01*
X-37381Y614D01*
X-37473Y652D01*
X-38078Y772D01*
X-38153D01*
X-38225Y790D01*
X-38533Y805D01*
X-38558Y802D01*
X-38583Y807D01*
X-42894D01*
Y62992D01*
X-28366D01*
Y61949D01*
X-27343D01*
Y63268D01*
X-26555D01*
Y61949D01*
X-25532D01*
Y62992D01*
X-23366D01*
Y61949D01*
X-22343D01*
Y63268D01*
X-21555D01*
Y61949D01*
X-20531D01*
Y62992D01*
X-18366D01*
Y61949D01*
X-17343D01*
Y63268D01*
X-16555D01*
Y61949D01*
X-15531D01*
Y62992D01*
X-13366D01*
Y61949D01*
X-12342D01*
Y63268D01*
X-11555D01*
Y61949D01*
X-10531D01*
Y62992D01*
X-8366D01*
Y61949D01*
X-7343D01*
Y63268D01*
X-6555D01*
Y61949D01*
X-5531D01*
Y62992D01*
X-3366D01*
Y61949D01*
X-2342D01*
Y63268D01*
X-1555D01*
Y61949D01*
X-532D01*
Y62992D01*
X1634D01*
Y61949D01*
X2657D01*
Y63268D01*
X3445D01*
Y61949D01*
X4468D01*
Y62992D01*
X6634D01*
Y61949D01*
X7658D01*
Y63268D01*
X8445D01*
Y61949D01*
X9469D01*
Y62992D01*
X20846D01*
Y61949D01*
X21870D01*
Y63268D01*
X22658D01*
Y61949D01*
X23681D01*
Y62992D01*
X25846D01*
Y61949D01*
X26870D01*
Y63268D01*
X27657D01*
Y61949D01*
X28681D01*
Y62992D01*
X30847D01*
Y61949D01*
X31870D01*
Y63268D01*
X32658D01*
Y61949D01*
X33681D01*
Y62992D01*
X35846D01*
Y61949D01*
X36870D01*
Y63268D01*
X37657D01*
Y61949D01*
X38681D01*
Y62992D01*
X40846D01*
Y61949D01*
X41870D01*
Y63268D01*
X42658D01*
Y61949D01*
X43681D01*
Y62992D01*
X45847D01*
Y61949D01*
X46870D01*
Y63268D01*
X47657D01*
Y61949D01*
X48681D01*
Y62992D01*
X50846D01*
Y61949D01*
X51870D01*
Y63268D01*
X52658D01*
Y61949D01*
X53681D01*
Y62992D01*
X55847D01*
Y61949D01*
X56870D01*
Y63268D01*
X57657D01*
Y61949D01*
D02*
G37*
G36*
X73209Y187205D02*
X51968D01*
Y165551D01*
X73209D01*
X73209Y86614D01*
X-42894D01*
X-42894Y165551D01*
X-21654D01*
Y187205D01*
X-42894D01*
Y234233D01*
X73209D01*
Y187205D01*
D02*
G37*
%LPC*%
G36*
X17520Y60460D02*
X16982Y60353D01*
X16526Y60049D01*
X16222Y59593D01*
X16115Y59055D01*
X16160Y58830D01*
X15474Y58145D01*
X15157Y58088D01*
X14841Y58145D01*
X14155Y58830D01*
X14200Y59055D01*
X14093Y59593D01*
X13789Y60049D01*
X13333Y60353D01*
X12795Y60460D01*
X12258Y60353D01*
X11802Y60049D01*
X11497Y59593D01*
X11390Y59055D01*
X11497Y58517D01*
X11802Y58062D01*
X12258Y57757D01*
X12795Y57650D01*
X13020Y57695D01*
X13567Y57148D01*
Y54023D01*
X13067Y53816D01*
X11990Y54893D01*
X12035Y55118D01*
X11928Y55656D01*
X11623Y56112D01*
X11168Y56416D01*
X10630Y56523D01*
X10092Y56416D01*
X9636Y56112D01*
X9332Y55656D01*
X9225Y55118D01*
X9332Y54580D01*
X9636Y54125D01*
X10092Y53820D01*
X10630Y53713D01*
X10855Y53758D01*
X11992Y52620D01*
Y51296D01*
X11934Y51155D01*
Y48845D01*
X11536Y48499D01*
X11247D01*
X11105Y48441D01*
X9695D01*
X8355Y49780D01*
X8095Y49954D01*
X7787Y50015D01*
X6358D01*
Y50630D01*
X5842D01*
Y51732D01*
X6358D01*
Y54567D01*
X3720D01*
Y51732D01*
X4236D01*
Y50630D01*
X3720D01*
Y47795D01*
X6358D01*
Y48410D01*
X7455D01*
X8582Y47282D01*
X8600Y47210D01*
X8521Y46698D01*
X8503Y46674D01*
X8438Y46631D01*
X7886Y46078D01*
X6358D01*
Y46693D01*
X3720D01*
Y43858D01*
X4236D01*
Y42756D01*
X3720D01*
Y39921D01*
X6358D01*
Y42756D01*
X5842D01*
Y43858D01*
X6358D01*
Y44473D01*
X7994D01*
X8173Y44306D01*
X8282Y44084D01*
X8298Y43986D01*
X8292Y43976D01*
X8254Y43944D01*
X7777Y43849D01*
X7322Y43545D01*
X7017Y43089D01*
X6910Y42551D01*
X7017Y42013D01*
X7322Y41558D01*
X7331Y41551D01*
Y41051D01*
X7322Y41045D01*
X7017Y40589D01*
X6910Y40051D01*
X7017Y39513D01*
X7322Y39058D01*
X7777Y38753D01*
X8315Y38646D01*
X8547Y38183D01*
X7225Y36860D01*
X7000Y36905D01*
X6462Y36798D01*
X6007Y36494D01*
X5702Y36038D01*
X5595Y35500D01*
X5702Y34962D01*
X6007Y34506D01*
X6462Y34202D01*
X7000Y34095D01*
X7538Y34202D01*
X7993Y34506D01*
X8222Y34849D01*
X8375Y34885D01*
X8625D01*
X8778Y34849D01*
X9007Y34506D01*
X9462Y34202D01*
X10000Y34095D01*
X10538Y34202D01*
X10993Y34506D01*
X11298Y34962D01*
X11405Y35500D01*
X11362Y35717D01*
X11706Y36039D01*
X12146Y35857D01*
Y35827D01*
X14784D01*
Y36850D01*
X14784D01*
X14578Y37350D01*
X14938Y37710D01*
X14938Y37710D01*
X14952Y37732D01*
X15064Y37781D01*
X15544Y37803D01*
X15553Y37800D01*
X16002Y37350D01*
X15939Y36850D01*
X15531D01*
Y34016D01*
X16048D01*
Y33375D01*
X15857Y33247D01*
X15552Y32792D01*
X15445Y32254D01*
X15552Y31716D01*
X15857Y31260D01*
X16313Y30956D01*
X16850Y30849D01*
X17388Y30956D01*
X17844Y31260D01*
X18148Y31716D01*
X18255Y32254D01*
X18148Y32792D01*
X17844Y33247D01*
X17653Y33375D01*
Y34016D01*
X18169D01*
Y36850D01*
X17653D01*
Y37638D01*
X17653Y37638D01*
X17592Y37945D01*
X17418Y38206D01*
X17418Y38206D01*
X17182Y38442D01*
X17389Y38942D01*
X17927D01*
X18248Y39075D01*
X18381Y39396D01*
Y40157D01*
X17520D01*
Y40945D01*
X18381D01*
Y41706D01*
X18779Y42052D01*
X19069D01*
X19210Y42111D01*
X20754D01*
X22094Y40771D01*
X22094Y40771D01*
X22354Y40597D01*
X22661Y40536D01*
X23957D01*
Y39921D01*
X24473D01*
Y39224D01*
X24534Y38917D01*
X24708Y38657D01*
X25432Y37932D01*
X25693Y37758D01*
X26000Y37697D01*
X28379D01*
X28506Y37506D01*
X28962Y37202D01*
X29500Y37095D01*
X30038Y37202D01*
X30494Y37506D01*
X30798Y37962D01*
X30905Y38500D01*
X30798Y39038D01*
X30494Y39494D01*
X30344Y39593D01*
X30028Y39878D01*
X30009Y40036D01*
X30274Y40407D01*
X30810Y40401D01*
X30847Y40345D01*
X31303Y40041D01*
X31841Y39934D01*
X32378Y40041D01*
X32834Y40345D01*
X33138Y40801D01*
X33246Y41339D01*
X33138Y41876D01*
X32834Y42332D01*
X32378Y42637D01*
X31841Y42744D01*
X31303Y42637D01*
X30847Y42332D01*
X30720Y42141D01*
X29980D01*
Y42756D01*
X27343D01*
Y39921D01*
X27831D01*
X27912Y39852D01*
X28090Y39421D01*
X27972Y39303D01*
X26704D01*
X26616Y39430D01*
X26594Y39921D01*
X26594D01*
Y42756D01*
X23957D01*
Y42141D01*
X22994D01*
X21820Y43316D01*
X21824Y43415D01*
X22096Y43871D01*
X22634Y43978D01*
X23090Y44282D01*
X23217Y44473D01*
X23957D01*
Y43858D01*
X26594D01*
Y46693D01*
X23957D01*
Y46078D01*
X23217D01*
X23090Y46269D01*
X22940Y46369D01*
Y46971D01*
X22994Y47006D01*
X23298Y47462D01*
X23405Y48000D01*
X23298Y48538D01*
X22994Y48994D01*
X22984Y49000D01*
Y49500D01*
X22994Y49507D01*
X23298Y49962D01*
X23405Y50500D01*
X23298Y51038D01*
X22994Y51493D01*
X22538Y51798D01*
X22000Y51905D01*
X21462Y51798D01*
X21007Y51493D01*
X20702Y51038D01*
X20646Y50758D01*
X18881Y48993D01*
X18381Y49200D01*
Y51155D01*
X18323Y51296D01*
Y52620D01*
X19460Y53758D01*
X19685Y53713D01*
X20223Y53820D01*
X20678Y54125D01*
X20983Y54580D01*
X21090Y55118D01*
X20983Y55656D01*
X20678Y56112D01*
X20223Y56416D01*
X19685Y56523D01*
X19147Y56416D01*
X18692Y56112D01*
X18387Y55656D01*
X18280Y55118D01*
X18325Y54893D01*
X17248Y53816D01*
X16748Y54023D01*
Y57148D01*
X17295Y57695D01*
X17520Y57650D01*
X18057Y57757D01*
X18513Y58062D01*
X18818Y58517D01*
X18925Y59055D01*
X18818Y59593D01*
X18513Y60049D01*
X18057Y60353D01*
X17520Y60460D01*
D02*
G37*
G36*
X2972Y54567D02*
X335D01*
Y53952D01*
X-828D01*
X-955Y54143D01*
X-1411Y54448D01*
X-1949Y54555D01*
X-2486Y54448D01*
X-2942Y54143D01*
X-3247Y53687D01*
X-3354Y53150D01*
X-3247Y52612D01*
X-2942Y52156D01*
X-2486Y51852D01*
X-1949Y51745D01*
X-1411Y51852D01*
X-955Y52156D01*
X-828Y52347D01*
X335D01*
Y51732D01*
X2972D01*
Y54567D01*
D02*
G37*
G36*
Y50630D02*
X2047D01*
Y49606D01*
X2972D01*
Y50630D01*
D02*
G37*
G36*
X1260D02*
X335D01*
Y49606D01*
X1260D01*
Y50630D01*
D02*
G37*
G36*
X2972Y48819D02*
X2047D01*
Y47795D01*
X2972D01*
Y48819D01*
D02*
G37*
G36*
X1260D02*
X335D01*
Y47795D01*
X1260D01*
Y48819D01*
D02*
G37*
G36*
X29980Y46693D02*
X29055D01*
Y45669D01*
X29980D01*
Y46693D01*
D02*
G37*
G36*
X28268D02*
X27343D01*
Y45669D01*
X28268D01*
Y46693D01*
D02*
G37*
G36*
X2972D02*
X2047D01*
Y45669D01*
X2972D01*
Y46693D01*
D02*
G37*
G36*
X1260D02*
X335D01*
Y45669D01*
X1260D01*
Y46693D01*
D02*
G37*
G36*
X29980Y44882D02*
X29055D01*
Y43858D01*
X29980D01*
Y44882D01*
D02*
G37*
G36*
X28268D02*
X27343D01*
Y43858D01*
X28268D01*
Y44882D01*
D02*
G37*
G36*
X2972Y44882D02*
X2047D01*
Y43858D01*
X2972D01*
Y44882D01*
D02*
G37*
G36*
X1260D02*
X335D01*
Y43858D01*
X1260D01*
Y44882D01*
D02*
G37*
G36*
X2972Y42756D02*
X335D01*
Y42141D01*
X-828D01*
X-955Y42332D01*
X-1411Y42637D01*
X-1949Y42744D01*
X-2486Y42637D01*
X-2942Y42332D01*
X-3247Y41876D01*
X-3354Y41339D01*
X-3247Y40801D01*
X-2942Y40345D01*
X-2486Y40041D01*
X-1949Y39934D01*
X-1411Y40041D01*
X-955Y40345D01*
X-828Y40536D01*
X335D01*
Y39921D01*
X2972D01*
Y42756D01*
D02*
G37*
G36*
X14784Y35039D02*
X13858D01*
Y34016D01*
X14784D01*
Y35039D01*
D02*
G37*
G36*
X13071D02*
X12146D01*
Y34016D01*
X13071D01*
Y35039D01*
D02*
G37*
G36*
X42717Y6708D02*
X42409Y6647D01*
X42149Y6473D01*
X41975Y6213D01*
X41914Y5906D01*
X41975Y5598D01*
X42149Y5338D01*
X42409Y5164D01*
X42717Y5103D01*
X43024Y5164D01*
X43284Y5338D01*
X43458Y5598D01*
X43519Y5906D01*
X43458Y6213D01*
X43284Y6473D01*
X43024Y6647D01*
X42717Y6708D01*
D02*
G37*
G36*
X36417D02*
X36110Y6647D01*
X35850Y6473D01*
X35676Y6213D01*
X35614Y5906D01*
X35676Y5598D01*
X35850Y5338D01*
X36110Y5164D01*
X36417Y5103D01*
X36724Y5164D01*
X36985Y5338D01*
X37159Y5598D01*
X37220Y5906D01*
X37159Y6213D01*
X36985Y6473D01*
X36724Y6647D01*
X36417Y6708D01*
D02*
G37*
G36*
X30118D02*
X29811Y6647D01*
X29550Y6473D01*
X29376Y6213D01*
X29315Y5906D01*
X29376Y5598D01*
X29550Y5338D01*
X29811Y5164D01*
X30118Y5103D01*
X30425Y5164D01*
X30686Y5338D01*
X30860Y5598D01*
X30921Y5906D01*
X30860Y6213D01*
X30686Y6473D01*
X30425Y6647D01*
X30118Y6708D01*
D02*
G37*
G36*
X23819D02*
X23512Y6647D01*
X23251Y6473D01*
X23077Y6213D01*
X23016Y5906D01*
X23077Y5598D01*
X23251Y5338D01*
X23512Y5164D01*
X23819Y5103D01*
X24126Y5164D01*
X24387Y5338D01*
X24561Y5598D01*
X24622Y5906D01*
X24561Y6213D01*
X24387Y6473D01*
X24126Y6647D01*
X23819Y6708D01*
D02*
G37*
G36*
X58464Y6708D02*
X58157Y6647D01*
X57897Y6473D01*
X57723Y6213D01*
X57662Y5906D01*
X57723Y5598D01*
X57897Y5338D01*
X58157Y5164D01*
X58464Y5103D01*
X58772Y5164D01*
X59032Y5338D01*
X59206Y5598D01*
X59267Y5906D01*
X59206Y6213D01*
X59032Y6473D01*
X58772Y6647D01*
X58464Y6708D01*
D02*
G37*
G36*
X39567Y4740D02*
X39260Y4679D01*
X38999Y4505D01*
X38825Y4244D01*
X38764Y3937D01*
X38825Y3630D01*
X38999Y3369D01*
X39260Y3195D01*
X39567Y3134D01*
X39874Y3195D01*
X40135Y3369D01*
X40309Y3630D01*
X40370Y3937D01*
X40309Y4244D01*
X40135Y4505D01*
X39874Y4679D01*
X39567Y4740D01*
D02*
G37*
G36*
X33268D02*
X32961Y4679D01*
X32700Y4505D01*
X32526Y4244D01*
X32465Y3937D01*
X32526Y3630D01*
X32700Y3369D01*
X32961Y3195D01*
X33268Y3134D01*
X33575Y3195D01*
X33835Y3369D01*
X34009Y3630D01*
X34071Y3937D01*
X34009Y4244D01*
X33835Y4505D01*
X33575Y4679D01*
X33268Y4740D01*
D02*
G37*
G36*
X26969D02*
X26661Y4679D01*
X26401Y4505D01*
X26227Y4244D01*
X26166Y3937D01*
X26227Y3630D01*
X26401Y3369D01*
X26661Y3195D01*
X26969Y3134D01*
X27276Y3195D01*
X27536Y3369D01*
X27710Y3630D01*
X27771Y3937D01*
X27710Y4244D01*
X27536Y4505D01*
X27276Y4679D01*
X26969Y4740D01*
D02*
G37*
G36*
X20669D02*
X20362Y4679D01*
X20102Y4505D01*
X19928Y4244D01*
X19866Y3937D01*
X19928Y3630D01*
X20102Y3369D01*
X20362Y3195D01*
X20669Y3134D01*
X20977Y3195D01*
X21237Y3369D01*
X21411Y3630D01*
X21472Y3937D01*
X21411Y4244D01*
X21237Y4505D01*
X20977Y4679D01*
X20669Y4740D01*
D02*
G37*
G36*
X55315Y4740D02*
X55008Y4679D01*
X54747Y4505D01*
X54573Y4244D01*
X54512Y3937D01*
X54573Y3630D01*
X54747Y3369D01*
X55008Y3195D01*
X55315Y3134D01*
X55622Y3195D01*
X55883Y3369D01*
X56057Y3630D01*
X56118Y3937D01*
X56057Y4244D01*
X55883Y4505D01*
X55622Y4679D01*
X55315Y4740D01*
D02*
G37*
G36*
X-28740Y203813D02*
Y201181D01*
X-26108D01*
X-26161Y201584D01*
X-26469Y202326D01*
X-26958Y202963D01*
X-27595Y203453D01*
X-28337Y203760D01*
X-28740Y203813D01*
D02*
G37*
G36*
X62500Y203839D02*
X59842D01*
Y201181D01*
X62500D01*
Y203839D01*
D02*
G37*
G36*
X-29528Y203813D02*
X-29930Y203760D01*
X-30673Y203453D01*
X-31310Y202963D01*
X-31799Y202326D01*
X-32107Y201584D01*
X-32160Y201181D01*
X-29528D01*
Y203813D01*
D02*
G37*
G36*
X59055Y203839D02*
X56398D01*
Y201181D01*
X59055D01*
Y203839D01*
D02*
G37*
G36*
X-29528Y200394D02*
X-32160D01*
X-32107Y199991D01*
X-31799Y199249D01*
X-31310Y198611D01*
X-30673Y198122D01*
X-29930Y197815D01*
X-29528Y197762D01*
Y200394D01*
D02*
G37*
G36*
X-26108D02*
X-28740D01*
Y197762D01*
X-28337Y197815D01*
X-27595Y198122D01*
X-26958Y198611D01*
X-26469Y199249D01*
X-26161Y199991D01*
X-26108Y200394D01*
D02*
G37*
G36*
X62500D02*
X59842D01*
Y197736D01*
X62500D01*
Y200394D01*
D02*
G37*
G36*
X59055D02*
X56398D01*
Y197736D01*
X59055D01*
Y200394D01*
D02*
G37*
G36*
X54528Y207119D02*
X-24213D01*
X-24514Y206994D01*
X-24639Y206693D01*
Y194882D01*
X-24514Y194581D01*
X-24213Y194456D01*
X54528D01*
X54829Y194581D01*
X54954Y194882D01*
Y206693D01*
X54829Y206994D01*
X54528Y207119D01*
D02*
G37*
G36*
X49606Y159870D02*
X49069Y159763D01*
X48613Y159458D01*
X48308Y159003D01*
X48201Y158465D01*
X48308Y157927D01*
X48440Y157730D01*
Y155059D01*
X46457D01*
Y151516D01*
X52756D01*
Y155059D01*
X50772D01*
Y157730D01*
X50904Y157927D01*
X51011Y158465D01*
X50904Y159003D01*
X50600Y159458D01*
X50144Y159763D01*
X49606Y159870D01*
D02*
G37*
G36*
X39764D02*
X39226Y159763D01*
X38770Y159458D01*
X38466Y159003D01*
X38359Y158465D01*
X38466Y157927D01*
X38598Y157730D01*
Y155059D01*
X36615D01*
Y151516D01*
X42914D01*
Y155059D01*
X40930D01*
Y157730D01*
X41062Y157927D01*
X41169Y158465D01*
X41062Y159003D01*
X40757Y159458D01*
X40301Y159763D01*
X39764Y159870D01*
D02*
G37*
G36*
X29921D02*
X29384Y159763D01*
X28928Y159458D01*
X28623Y159003D01*
X28516Y158465D01*
X28623Y157927D01*
X28755Y157730D01*
Y155059D01*
X26772D01*
Y151516D01*
X33071D01*
Y155059D01*
X31087D01*
Y157730D01*
X31219Y157927D01*
X31326Y158465D01*
X31219Y159003D01*
X30915Y159458D01*
X30459Y159763D01*
X29921Y159870D01*
D02*
G37*
G36*
X20079D02*
X19541Y159763D01*
X19085Y159458D01*
X18781Y159003D01*
X18674Y158465D01*
X18781Y157927D01*
X18913Y157730D01*
Y155059D01*
X16929D01*
Y151516D01*
X23229D01*
Y155059D01*
X21245D01*
Y157730D01*
X21377Y157927D01*
X21484Y158465D01*
X21377Y159003D01*
X21072Y159458D01*
X20616Y159763D01*
X20079Y159870D01*
D02*
G37*
G36*
X10236D02*
X9699Y159763D01*
X9243Y159458D01*
X8938Y159003D01*
X8831Y158465D01*
X8938Y157927D01*
X9070Y157730D01*
Y155059D01*
X7087D01*
Y151516D01*
X13386D01*
Y155059D01*
X11402D01*
Y157730D01*
X11534Y157927D01*
X11641Y158465D01*
X11534Y159003D01*
X11230Y159458D01*
X10774Y159763D01*
X10236Y159870D01*
D02*
G37*
G36*
X394D02*
X-144Y159763D01*
X-600Y159458D01*
X-904Y159003D01*
X-1011Y158465D01*
X-904Y157927D01*
X-772Y157730D01*
Y155059D01*
X-2756D01*
Y151516D01*
X3544D01*
Y155059D01*
X1560D01*
Y157730D01*
X1692Y157927D01*
X1799Y158465D01*
X1692Y159003D01*
X1387Y159458D01*
X931Y159763D01*
X394Y159870D01*
D02*
G37*
G36*
X-9449D02*
X-9986Y159763D01*
X-10442Y159458D01*
X-10747Y159003D01*
X-10854Y158465D01*
X-10747Y157927D01*
X-10615Y157730D01*
Y155059D01*
X-12598D01*
Y151516D01*
X-6299D01*
Y155059D01*
X-8283D01*
Y157730D01*
X-8151Y157927D01*
X-8044Y158465D01*
X-8151Y159003D01*
X-8455Y159458D01*
X-8911Y159763D01*
X-9449Y159870D01*
D02*
G37*
G36*
X-19291D02*
X-19829Y159763D01*
X-20285Y159458D01*
X-20589Y159003D01*
X-20696Y158465D01*
X-20589Y157927D01*
X-20458Y157730D01*
Y155059D01*
X-22441D01*
Y151516D01*
X-16141D01*
Y155059D01*
X-18125D01*
Y157730D01*
X-17993Y157927D01*
X-17886Y158465D01*
X-17993Y159003D01*
X-18298Y159458D01*
X-18754Y159763D01*
X-19291Y159870D01*
D02*
G37*
G36*
X52756Y147697D02*
X46457D01*
Y144153D01*
X48440D01*
Y141483D01*
X48308Y141286D01*
X48201Y140748D01*
X48308Y140210D01*
X48440Y140013D01*
Y137008D01*
X48031D01*
Y134252D01*
X51181D01*
Y137008D01*
X50772D01*
Y140013D01*
X50904Y140210D01*
X51011Y140748D01*
X50904Y141286D01*
X50772Y141483D01*
Y144153D01*
X52756D01*
Y147697D01*
D02*
G37*
G36*
X42914D02*
X36615D01*
Y144153D01*
X38598D01*
Y141483D01*
X38466Y141286D01*
X38359Y140748D01*
X38466Y140210D01*
X38598Y140013D01*
Y137008D01*
X38189D01*
Y134252D01*
X41339D01*
Y137008D01*
X40930D01*
Y140013D01*
X41062Y140210D01*
X41169Y140748D01*
X41062Y141286D01*
X40930Y141483D01*
Y144153D01*
X42914D01*
Y147697D01*
D02*
G37*
G36*
X33071D02*
X26772D01*
Y144153D01*
X28755D01*
Y141483D01*
X28623Y141286D01*
X28516Y140748D01*
X28623Y140210D01*
X28755Y140013D01*
Y137008D01*
X28346D01*
Y134252D01*
X31496D01*
Y137008D01*
X31087D01*
Y140013D01*
X31219Y140210D01*
X31326Y140748D01*
X31219Y141286D01*
X31087Y141483D01*
Y144153D01*
X33071D01*
Y147697D01*
D02*
G37*
G36*
X23229D02*
X16929D01*
Y144153D01*
X18913D01*
Y141483D01*
X18781Y141286D01*
X18674Y140748D01*
X18781Y140210D01*
X18913Y140013D01*
Y137008D01*
X18504D01*
Y134252D01*
X21654D01*
Y137008D01*
X21245D01*
Y140013D01*
X21377Y140210D01*
X21484Y140748D01*
X21377Y141286D01*
X21245Y141483D01*
Y144153D01*
X23229D01*
Y147697D01*
D02*
G37*
G36*
X13386D02*
X7087D01*
Y144153D01*
X9070D01*
Y141483D01*
X8938Y141286D01*
X8831Y140748D01*
X8938Y140210D01*
X9070Y140013D01*
Y137008D01*
X8661D01*
Y134252D01*
X11811D01*
Y137008D01*
X11402D01*
Y140013D01*
X11534Y140210D01*
X11641Y140748D01*
X11534Y141286D01*
X11402Y141483D01*
Y144153D01*
X13386D01*
Y147697D01*
D02*
G37*
G36*
X3544D02*
X-2756D01*
Y144153D01*
X-772D01*
Y141483D01*
X-904Y141286D01*
X-1011Y140748D01*
X-904Y140210D01*
X-772Y140013D01*
Y137008D01*
X-1181D01*
Y134252D01*
X1969D01*
Y137008D01*
X1560D01*
Y140013D01*
X1692Y140210D01*
X1799Y140748D01*
X1692Y141286D01*
X1560Y141483D01*
Y144153D01*
X3544D01*
Y147697D01*
D02*
G37*
G36*
X-6299D02*
X-12598D01*
Y144153D01*
X-10615D01*
Y141483D01*
X-10747Y141286D01*
X-10854Y140748D01*
X-10747Y140210D01*
X-10615Y140013D01*
Y137008D01*
X-11024D01*
Y134252D01*
X-7874D01*
Y137008D01*
X-8283D01*
Y140013D01*
X-8151Y140210D01*
X-8044Y140748D01*
X-8151Y141286D01*
X-8283Y141483D01*
Y144153D01*
X-6299D01*
Y147697D01*
D02*
G37*
G36*
X-16141D02*
X-22441D01*
Y144153D01*
X-20458D01*
Y141483D01*
X-20589Y141286D01*
X-20696Y140748D01*
X-20589Y140210D01*
X-20458Y140013D01*
Y137008D01*
X-20866D01*
Y134252D01*
X-17717D01*
Y137008D01*
X-18125D01*
Y140013D01*
X-17993Y140210D01*
X-17886Y140748D01*
X-17993Y141286D01*
X-18125Y141483D01*
Y144153D01*
X-16141D01*
Y147697D01*
D02*
G37*
G36*
X51181Y133465D02*
X50000D01*
Y132480D01*
X51181D01*
Y133465D01*
D02*
G37*
G36*
X41339D02*
X40157D01*
Y132480D01*
X41339D01*
Y133465D01*
D02*
G37*
G36*
X31496D02*
X30315D01*
Y132480D01*
X31496D01*
Y133465D01*
D02*
G37*
G36*
X21654D02*
X20472D01*
Y132480D01*
X21654D01*
Y133465D01*
D02*
G37*
G36*
X11811D02*
X10630D01*
Y132480D01*
X11811D01*
Y133465D01*
D02*
G37*
G36*
X1969D02*
X787D01*
Y132480D01*
X1969D01*
Y133465D01*
D02*
G37*
G36*
X-7874D02*
X-9055D01*
Y132480D01*
X-7874D01*
Y133465D01*
D02*
G37*
G36*
X-17717D02*
X-18898D01*
Y132480D01*
X-17717D01*
Y133465D01*
D02*
G37*
G36*
X49213D02*
X48031D01*
Y132480D01*
X49213D01*
Y133465D01*
D02*
G37*
G36*
X9843D02*
X8661D01*
Y132480D01*
X9843D01*
Y133465D01*
D02*
G37*
G36*
X39370D02*
X38189D01*
Y132480D01*
X39370D01*
Y133465D01*
D02*
G37*
G36*
X29528D02*
X28346D01*
Y132480D01*
X29528D01*
Y133465D01*
D02*
G37*
G36*
X19685D02*
X18504D01*
Y132480D01*
X19685D01*
Y133465D01*
D02*
G37*
G36*
X-0D02*
X-1181D01*
Y132480D01*
X-0D01*
Y133465D01*
D02*
G37*
G36*
X-9843D02*
X-11024D01*
Y132480D01*
X-9843D01*
Y133465D01*
D02*
G37*
G36*
X-19685D02*
X-20866D01*
Y132480D01*
X-19685D01*
Y133465D01*
D02*
G37*
G36*
X51181Y131693D02*
X50000D01*
Y130709D01*
X51181D01*
Y131693D01*
D02*
G37*
G36*
X49213D02*
X48031D01*
Y130709D01*
X49213D01*
Y131693D01*
D02*
G37*
G36*
X41339D02*
X40157D01*
Y130709D01*
X41339D01*
Y131693D01*
D02*
G37*
G36*
X39370D02*
X38189D01*
Y130709D01*
X39370D01*
Y131693D01*
D02*
G37*
G36*
X31496D02*
X30315D01*
Y130709D01*
X31496D01*
Y131693D01*
D02*
G37*
G36*
X29528D02*
X28346D01*
Y130709D01*
X29528D01*
Y131693D01*
D02*
G37*
G36*
X21654D02*
X20472D01*
Y130709D01*
X21654D01*
Y131693D01*
D02*
G37*
G36*
X19685D02*
X18504D01*
Y130709D01*
X19685D01*
Y131693D01*
D02*
G37*
G36*
X11811D02*
X10630D01*
Y130709D01*
X11811D01*
Y131693D01*
D02*
G37*
G36*
X9843D02*
X8661D01*
Y130709D01*
X9843D01*
Y131693D01*
D02*
G37*
G36*
X1969D02*
X787D01*
Y130709D01*
X1969D01*
Y131693D01*
D02*
G37*
G36*
X-0D02*
X-1181D01*
Y130709D01*
X-0D01*
Y131693D01*
D02*
G37*
G36*
X-7874D02*
X-9055D01*
Y130709D01*
X-7874D01*
Y131693D01*
D02*
G37*
G36*
X-9843D02*
X-11024D01*
Y130709D01*
X-9843D01*
Y131693D01*
D02*
G37*
G36*
X-17717D02*
X-18898D01*
Y130709D01*
X-17717D01*
Y131693D01*
D02*
G37*
G36*
X-19685D02*
X-20866D01*
Y130709D01*
X-19685D01*
Y131693D01*
D02*
G37*
G36*
X54035Y100787D02*
X52658D01*
Y98819D01*
X54035D01*
Y100787D01*
D02*
G37*
G36*
X-5177D02*
X-6555D01*
Y98819D01*
X-5177D01*
Y100787D01*
D02*
G37*
G36*
X44035D02*
X42658D01*
Y98819D01*
X44035D01*
Y100787D01*
D02*
G37*
G36*
X4823D02*
X3445D01*
Y98819D01*
X4823D01*
Y100787D01*
D02*
G37*
G36*
X-15177D02*
X-16555D01*
Y98819D01*
X-15177D01*
Y100787D01*
D02*
G37*
G36*
X24035D02*
X22658D01*
Y98819D01*
X24035D01*
Y100787D01*
D02*
G37*
G36*
X-25177D02*
X-26555D01*
Y98819D01*
X-25177D01*
Y100787D01*
D02*
G37*
G36*
X34035D02*
X32658D01*
Y98819D01*
X34035D01*
Y100787D01*
D02*
G37*
G36*
X-7343D02*
X-8721D01*
Y98819D01*
X-7343D01*
Y100787D01*
D02*
G37*
G36*
X51870D02*
X50492D01*
Y98819D01*
X51870D01*
Y100787D01*
D02*
G37*
G36*
X2657D02*
X1280D01*
Y98819D01*
X2657D01*
Y100787D01*
D02*
G37*
G36*
X41870D02*
X40492D01*
Y98819D01*
X41870D01*
Y100787D01*
D02*
G37*
G36*
X21870D02*
X20492D01*
Y98819D01*
X21870D01*
Y100787D01*
D02*
G37*
G36*
X-17343D02*
X-18721D01*
Y98819D01*
X-17343D01*
Y100787D01*
D02*
G37*
G36*
X31870D02*
X30492D01*
Y98819D01*
X31870D01*
Y100787D01*
D02*
G37*
G36*
X-27343D02*
X-28721D01*
Y98819D01*
X-27343D01*
Y100787D01*
D02*
G37*
G36*
X54035Y98032D02*
X52658D01*
Y96063D01*
X54035D01*
Y98032D01*
D02*
G37*
G36*
X51870D02*
X50492D01*
Y96063D01*
X51870D01*
Y98032D01*
D02*
G37*
G36*
X44035D02*
X42658D01*
Y96063D01*
X44035D01*
Y98032D01*
D02*
G37*
G36*
X41870D02*
X40492D01*
Y96063D01*
X41870D01*
Y98032D01*
D02*
G37*
G36*
X34035D02*
X32658D01*
Y96063D01*
X34035D01*
Y98032D01*
D02*
G37*
G36*
X31870D02*
X30492D01*
Y96063D01*
X31870D01*
Y98032D01*
D02*
G37*
G36*
X24035D02*
X22658D01*
Y96063D01*
X24035D01*
Y98032D01*
D02*
G37*
G36*
X21870D02*
X20492D01*
Y96063D01*
X21870D01*
Y98032D01*
D02*
G37*
G36*
X4823D02*
X3445D01*
Y96063D01*
X4823D01*
Y98032D01*
D02*
G37*
G36*
X2657D02*
X1280D01*
Y96063D01*
X2657D01*
Y98032D01*
D02*
G37*
G36*
X-5177D02*
X-6555D01*
Y96063D01*
X-5177D01*
Y98032D01*
D02*
G37*
G36*
X-7343D02*
X-8721D01*
Y96063D01*
X-7343D01*
Y98032D01*
D02*
G37*
G36*
X-15177D02*
X-16555D01*
Y96063D01*
X-15177D01*
Y98032D01*
D02*
G37*
G36*
X-17343D02*
X-18721D01*
Y96063D01*
X-17343D01*
Y98032D01*
D02*
G37*
G36*
X-25177D02*
X-26555D01*
Y96063D01*
X-25177D01*
Y98032D01*
D02*
G37*
G36*
X-27343D02*
X-28721D01*
Y96063D01*
X-27343D01*
Y98032D01*
D02*
G37*
G36*
X57264Y103570D02*
X56726Y103463D01*
X56270Y103159D01*
X55966Y102703D01*
X55859Y102165D01*
X55966Y101628D01*
X56098Y101430D01*
Y100787D01*
X55492D01*
Y96063D01*
X56678D01*
X56818Y95970D01*
X57264Y95881D01*
X57710Y95970D01*
X57849Y96063D01*
X59035D01*
Y100787D01*
X58430D01*
Y101430D01*
X58562Y101628D01*
X58669Y102165D01*
X58562Y102703D01*
X58257Y103159D01*
X57801Y103463D01*
X57264Y103570D01*
D02*
G37*
G36*
X47264D02*
X46726Y103463D01*
X46270Y103159D01*
X45966Y102703D01*
X45859Y102165D01*
X45966Y101628D01*
X46098Y101430D01*
Y100787D01*
X45492D01*
Y96063D01*
X46678D01*
X46817Y95970D01*
X47264Y95881D01*
X47710Y95970D01*
X47849Y96063D01*
X49035D01*
Y100787D01*
X48430D01*
Y101430D01*
X48562Y101628D01*
X48669Y102165D01*
X48562Y102703D01*
X48257Y103159D01*
X47801Y103463D01*
X47264Y103570D01*
D02*
G37*
G36*
X37264D02*
X36726Y103463D01*
X36270Y103159D01*
X35966Y102703D01*
X35859Y102165D01*
X35966Y101628D01*
X36098Y101430D01*
Y100787D01*
X35492D01*
Y96063D01*
X36678D01*
X36817Y95970D01*
X37264Y95881D01*
X37710Y95970D01*
X37849Y96063D01*
X39035D01*
Y100787D01*
X38430D01*
Y101430D01*
X38562Y101628D01*
X38669Y102165D01*
X38562Y102703D01*
X38257Y103159D01*
X37801Y103463D01*
X37264Y103570D01*
D02*
G37*
G36*
X27264D02*
X26726Y103463D01*
X26270Y103159D01*
X25966Y102703D01*
X25859Y102165D01*
X25966Y101628D01*
X26098Y101430D01*
Y100787D01*
X25492D01*
Y96063D01*
X26678D01*
X26818Y95970D01*
X27264Y95881D01*
X27710Y95970D01*
X27849Y96063D01*
X29035D01*
Y100787D01*
X28430D01*
Y101430D01*
X28562Y101628D01*
X28669Y102165D01*
X28562Y102703D01*
X28257Y103159D01*
X27801Y103463D01*
X27264Y103570D01*
D02*
G37*
G36*
X8051D02*
X7514Y103463D01*
X7058Y103159D01*
X6753Y102703D01*
X6646Y102165D01*
X6753Y101628D01*
X6885Y101430D01*
Y100787D01*
X6279D01*
Y96063D01*
X7466D01*
X7605Y95970D01*
X8051Y95881D01*
X8497Y95970D01*
X8637Y96063D01*
X9823D01*
Y100787D01*
X9217D01*
Y101430D01*
X9349Y101628D01*
X9456Y102165D01*
X9349Y102703D01*
X9045Y103159D01*
X8589Y103463D01*
X8051Y103570D01*
D02*
G37*
G36*
X-1949D02*
X-2486Y103463D01*
X-2942Y103159D01*
X-3247Y102703D01*
X-3354Y102165D01*
X-3247Y101628D01*
X-3115Y101430D01*
Y100787D01*
X-3720D01*
Y96063D01*
X-2534D01*
X-2395Y95970D01*
X-1949Y95881D01*
X-1503Y95970D01*
X-1363Y96063D01*
X-177D01*
Y100787D01*
X-783D01*
Y101430D01*
X-651Y101628D01*
X-544Y102165D01*
X-651Y102703D01*
X-955Y103159D01*
X-1411Y103463D01*
X-1949Y103570D01*
D02*
G37*
G36*
X-11949D02*
X-12487Y103463D01*
X-12942Y103159D01*
X-13247Y102703D01*
X-13354Y102165D01*
X-13247Y101628D01*
X-13115Y101430D01*
Y100787D01*
X-13721D01*
Y96063D01*
X-12534D01*
X-12395Y95970D01*
X-11949Y95881D01*
X-11503Y95970D01*
X-11363Y96063D01*
X-10177D01*
Y100787D01*
X-10783D01*
Y101430D01*
X-10651Y101628D01*
X-10544Y102165D01*
X-10651Y102703D01*
X-10955Y103159D01*
X-11411Y103463D01*
X-11949Y103570D01*
D02*
G37*
G36*
X-21949D02*
X-22487Y103463D01*
X-22942Y103159D01*
X-23247Y102703D01*
X-23354Y102165D01*
X-23247Y101628D01*
X-23115Y101430D01*
Y100787D01*
X-23720D01*
Y96063D01*
X-22534D01*
X-22395Y95970D01*
X-21949Y95881D01*
X-21503Y95970D01*
X-21363Y96063D01*
X-20177D01*
Y100787D01*
X-20783D01*
Y101430D01*
X-20651Y101628D01*
X-20544Y102165D01*
X-20651Y102703D01*
X-20955Y103159D01*
X-21411Y103463D01*
X-21949Y103570D01*
D02*
G37*
%LPD*%
D11*
X26000Y38500D02*
X29500D01*
X25276Y39224D02*
X26000Y38500D01*
X25276Y39224D02*
Y41339D01*
X52165Y2835D02*
X53500Y1500D01*
X52165Y2835D02*
Y5906D01*
X53500Y1500D02*
X55000D01*
X56890Y-390D01*
Y-7283D02*
Y-390D01*
X14370Y50000D02*
Y57480D01*
X12795Y59055D02*
X14370Y57480D01*
X15945D02*
X17520Y59055D01*
X15945Y50000D02*
Y57480D01*
X17520Y52953D02*
X19685Y55118D01*
X17520Y50000D02*
Y52953D01*
X10630Y55118D02*
X12795Y52953D01*
Y50000D02*
Y52953D01*
X12756Y40142D02*
X12795Y40182D01*
Y40551D01*
X11642Y40142D02*
X12756D01*
X7000Y35500D02*
X11642Y40142D01*
X10000Y35500D02*
X12081Y37581D01*
X13673D02*
X14370Y38278D01*
X12081Y37581D02*
X13673D01*
X14370Y38278D02*
Y40551D01*
X8315Y42551D02*
X10252Y44488D01*
X12402D01*
X8315Y40051D02*
X8541Y40277D01*
X11654Y42913D02*
X12402D01*
X8541Y40277D02*
X9017D01*
X11654Y42913D01*
X16850Y32254D02*
Y35433D01*
X-1526Y53150D02*
X1654D01*
X-1526Y41339D02*
X1654D01*
X28661Y41339D02*
X31841D01*
X18661Y47638D02*
X21298Y50274D01*
X21774D01*
X17913Y47638D02*
X18661D01*
X21774Y50274D02*
X22000Y50500D01*
X17913Y46063D02*
X20063D01*
X22000Y48000D01*
X15984Y38504D02*
Y40512D01*
X16850Y35433D02*
Y37638D01*
X15945Y40551D02*
X15984Y40512D01*
Y38504D02*
X16850Y37638D01*
X22661Y41339D02*
X25276D01*
X21087Y42913D02*
X22661Y41339D01*
X17913Y42913D02*
X21087D01*
X21309Y44488D02*
X22096Y45276D01*
X17913Y44488D02*
X21309D01*
X22096Y45276D02*
X25276D01*
X5039Y49213D02*
Y53150D01*
Y49213D02*
X7787D01*
X9362Y47638D02*
X12402D01*
X7787Y49213D02*
X9362Y47638D01*
X9006Y46063D02*
X12402D01*
X5039Y45276D02*
X8219D01*
X9006Y46063D01*
X5039Y45276D02*
X5039Y45276D01*
Y41339D02*
Y45276D01*
X45000Y-6575D02*
Y1784D01*
D14*
X29921Y135630D02*
D03*
Y132087D02*
D03*
X-9449Y135630D02*
D03*
Y132087D02*
D03*
X394Y135630D02*
D03*
Y132087D02*
D03*
X49606Y135630D02*
D03*
Y132087D02*
D03*
X-19291Y135630D02*
D03*
Y132087D02*
D03*
X10236Y135630D02*
D03*
Y132087D02*
D03*
X39764Y135630D02*
D03*
Y132087D02*
D03*
X20079Y135630D02*
D03*
Y132087D02*
D03*
D15*
X5039Y41339D02*
D03*
X1654D02*
D03*
X1654Y45276D02*
D03*
X5039D02*
D03*
X25276Y41339D02*
D03*
X28661D02*
D03*
X1654Y49213D02*
D03*
X5039D02*
D03*
X28661Y45276D02*
D03*
X25276D02*
D03*
X13465Y35433D02*
D03*
X16850D02*
D03*
X5039Y53150D02*
D03*
X1654D02*
D03*
D16*
X39764Y145925D02*
D03*
Y153287D02*
D03*
X10237Y145925D02*
D03*
Y153287D02*
D03*
X20079Y145925D02*
D03*
Y153287D02*
D03*
X49607Y145925D02*
D03*
Y153287D02*
D03*
X-19291Y145925D02*
D03*
Y153287D02*
D03*
X-9448Y145925D02*
D03*
Y153287D02*
D03*
X29922Y145925D02*
D03*
Y153287D02*
D03*
X394Y145925D02*
D03*
Y153287D02*
D03*
D17*
X32264Y66654D02*
D03*
Y63268D02*
D03*
X22264Y66654D02*
D03*
Y63268D02*
D03*
X-21949D02*
D03*
Y66654D02*
D03*
X8051Y63268D02*
D03*
Y66654D02*
D03*
X-1949Y63268D02*
D03*
Y66654D02*
D03*
X-6949D02*
D03*
Y63268D02*
D03*
X47264D02*
D03*
Y66654D02*
D03*
X-16949D02*
D03*
Y63268D02*
D03*
X37264D02*
D03*
Y66654D02*
D03*
X3051D02*
D03*
Y63268D02*
D03*
X-11949D02*
D03*
Y66654D02*
D03*
X27264Y63268D02*
D03*
Y66654D02*
D03*
X52264D02*
D03*
Y63268D02*
D03*
X42264Y66654D02*
D03*
Y63268D02*
D03*
X-26949Y66654D02*
D03*
Y63268D02*
D03*
X57264D02*
D03*
Y66654D02*
D03*
D18*
X47264Y70866D02*
D03*
X42264D02*
D03*
X37264D02*
D03*
X32264D02*
D03*
Y98425D02*
D03*
X37264D02*
D03*
X42264D02*
D03*
X47264D02*
D03*
X52264D02*
D03*
X27264D02*
D03*
Y70866D02*
D03*
X52264D02*
D03*
X57264Y98425D02*
D03*
Y70866D02*
D03*
X22264Y98425D02*
D03*
Y70866D02*
D03*
X-1949D02*
D03*
X-6949D02*
D03*
X-11949D02*
D03*
X-16949D02*
D03*
Y98425D02*
D03*
X-11949D02*
D03*
X-6949D02*
D03*
X-1949D02*
D03*
X3051D02*
D03*
X-21949D02*
D03*
Y70866D02*
D03*
X3051D02*
D03*
X8051Y98425D02*
D03*
Y70866D02*
D03*
X-26949Y98425D02*
D03*
Y70866D02*
D03*
D19*
X17913Y42913D02*
D03*
Y44488D02*
D03*
Y46063D02*
D03*
Y47638D02*
D03*
X12402D02*
D03*
Y46063D02*
D03*
Y44488D02*
D03*
Y42913D02*
D03*
D20*
X17520Y50000D02*
D03*
X15945D02*
D03*
X14370D02*
D03*
X12795D02*
D03*
Y40551D02*
D03*
X14370D02*
D03*
X15945D02*
D03*
X17520D02*
D03*
D33*
X-31299Y-7283D02*
D03*
X-28150D02*
D03*
X-25000D02*
D03*
X-21850D02*
D03*
X-18701D02*
D03*
X-15551D02*
D03*
X-12402D02*
D03*
X-9252D02*
D03*
X6496D02*
D03*
X9646D02*
D03*
X12795D02*
D03*
X15945D02*
D03*
X19094D02*
D03*
X22244D02*
D03*
X25394D02*
D03*
X28543D02*
D03*
X31693D02*
D03*
X34843D02*
D03*
X37992D02*
D03*
X41142D02*
D03*
X44291D02*
D03*
X47441D02*
D03*
X50591D02*
D03*
X53740D02*
D03*
X56890D02*
D03*
X60039D02*
D03*
D34*
X-21850Y2362D02*
X-20276Y3937D01*
X-21850Y-7283D02*
Y2362D01*
D35*
X-4449Y66654D02*
X-1949D01*
X-6949D02*
X-4449D01*
X-6949D02*
Y72244D01*
X-6949Y72244D02*
X-6949Y72244D01*
X57264Y72244D02*
Y77362D01*
X47264Y72244D02*
Y77362D01*
X37264Y72244D02*
Y77362D01*
X27264Y72244D02*
Y77362D01*
X8051Y72244D02*
Y77362D01*
X-1949Y72244D02*
Y77362D01*
X-11949Y72244D02*
Y77362D01*
X-21949Y72244D02*
Y77362D01*
X-24449Y66654D02*
X-21949D01*
X-26949D02*
X-24449D01*
X-26949Y72244D02*
X-26949Y72244D01*
Y66654D02*
Y72244D01*
X-14449Y66654D02*
X-11949D01*
X-16949D02*
X-14449D01*
X-16949D02*
Y72244D01*
X-16949Y72244D02*
X-16949Y72244D01*
X5551Y66654D02*
X8051D01*
X3051D02*
X5551D01*
X3051D02*
Y72244D01*
X3051Y72244D02*
X3051Y72244D01*
X24764Y66654D02*
X27264D01*
X22264D02*
X24764D01*
X22264D02*
Y72244D01*
X22264Y72244D02*
X22264Y72244D01*
X34764Y66654D02*
X37264D01*
X32264D02*
X34764D01*
X32264D02*
Y72244D01*
X32264Y72244D02*
X32264Y72244D01*
X44764Y66654D02*
X47264D01*
X42264D02*
X44764D01*
X42264D02*
Y72244D01*
X42264Y72244D02*
X42264Y72244D01*
X54764Y66654D02*
X57264D01*
X52264D02*
X54764D01*
X52264D02*
Y72244D01*
X52264Y72244D02*
X52264Y72244D01*
X-19291Y153347D02*
Y158465D01*
Y140748D02*
Y145867D01*
Y135630D02*
Y140748D01*
X-21949Y97047D02*
Y102165D01*
X-9449Y153347D02*
Y158465D01*
Y140748D02*
Y145867D01*
Y135630D02*
Y140748D01*
X-11949Y97047D02*
Y102165D01*
X394Y153347D02*
Y158465D01*
Y140748D02*
Y145867D01*
Y135630D02*
Y140748D01*
X-1949Y97047D02*
Y102165D01*
X10236Y153347D02*
Y158465D01*
Y140748D02*
Y145867D01*
Y135630D02*
Y140748D01*
X8051Y97047D02*
Y102165D01*
X20079Y153347D02*
Y158465D01*
X27264Y97047D02*
Y102165D01*
X20079Y135630D02*
Y145867D01*
X29921Y153347D02*
Y158465D01*
X37264Y97047D02*
Y102165D01*
X29921Y135630D02*
Y145867D01*
X39764Y153347D02*
Y158465D01*
X47264Y97047D02*
Y102165D01*
X39764Y135630D02*
Y145867D01*
X49606Y153347D02*
Y158465D01*
X57264Y97047D02*
Y102165D01*
X49606Y135630D02*
Y145867D01*
D36*
X6496Y-7284D02*
Y1677D01*
X15945Y-7284D02*
Y1677D01*
X50590Y-7284D02*
Y1677D01*
X60039Y-7284D02*
Y1677D01*
X-9252Y-7284D02*
Y1677D01*
D37*
X394Y200787D02*
D03*
X10236D02*
D03*
X-29134D02*
D03*
X-9449D02*
D03*
X-19291D02*
D03*
X49606D02*
D03*
X39764D02*
D03*
X29921D02*
D03*
X20079D02*
D03*
D38*
X59449D02*
D03*
D39*
X-32480Y176378D02*
D03*
X62795D02*
D03*
D40*
X-8000Y47000D02*
D03*
X-5000Y34500D02*
D03*
X11500Y11000D02*
D03*
X1500Y37500D02*
D03*
X-38000Y8500D02*
D03*
X70500Y7500D02*
D03*
X70000Y77000D02*
D03*
X-36500D02*
D03*
X47000Y9000D02*
D03*
X24500Y53000D02*
D03*
X26500Y58500D02*
D03*
X15000Y64000D02*
D03*
X3000Y58500D02*
D03*
X9000Y52000D02*
D03*
X-7035Y54358D02*
D03*
X-18846D02*
D03*
X69736D02*
D03*
X63831Y42547D02*
D03*
X69736Y30736D02*
D03*
X63831Y18925D02*
D03*
X57925Y54358D02*
D03*
X52020Y42547D02*
D03*
X57925Y30736D02*
D03*
X52020Y18925D02*
D03*
X46114Y54358D02*
D03*
X40209Y42547D02*
D03*
X46114Y30736D02*
D03*
X40209Y18925D02*
D03*
X34303Y54358D02*
D03*
Y30736D02*
D03*
X16587Y18925D02*
D03*
X10681Y30736D02*
D03*
X4775Y18925D02*
D03*
X-7035D02*
D03*
X-12941Y30736D02*
D03*
X-18846Y18925D02*
D03*
X-30658Y42547D02*
D03*
X-24752Y30736D02*
D03*
X-30658Y18925D02*
D03*
X-36563Y54358D02*
D03*
Y30736D02*
D03*
X29500Y38500D02*
D03*
X52165Y5906D02*
D03*
X12795Y59055D02*
D03*
X-4449Y66654D02*
D03*
X7000Y35500D02*
D03*
X10000D02*
D03*
X8315Y40051D02*
D03*
Y42551D02*
D03*
X16850Y32254D02*
D03*
X-1949Y53150D02*
D03*
Y41339D02*
D03*
X31841Y41339D02*
D03*
X22000Y48000D02*
D03*
Y50500D02*
D03*
X22096Y45276D02*
D03*
X19685Y55118D02*
D03*
X10630D02*
D03*
X17520Y59055D02*
D03*
X-20276Y3937D02*
D03*
X57264Y77362D02*
D03*
X47264D02*
D03*
X37264D02*
D03*
X27264D02*
D03*
X8051D02*
D03*
X-1949D02*
D03*
X-11949D02*
D03*
X-21949D02*
D03*
X-24449Y66654D02*
D03*
X-14449D02*
D03*
X5551D02*
D03*
X24764D02*
D03*
X34764D02*
D03*
X44764D02*
D03*
X54764D02*
D03*
X-19291Y158465D02*
D03*
X-21949Y102165D02*
D03*
X-19291Y140748D02*
D03*
X-9449Y158465D02*
D03*
X-11949Y102165D02*
D03*
X-9449Y140748D02*
D03*
X394Y158465D02*
D03*
X-1949Y102165D02*
D03*
X394Y140748D02*
D03*
X10236Y158465D02*
D03*
X8051Y102165D02*
D03*
X10236Y140748D02*
D03*
X20079Y158465D02*
D03*
X27264Y102165D02*
D03*
X20079Y140748D02*
D03*
X29921Y158465D02*
D03*
X37264Y102165D02*
D03*
X29921Y140748D02*
D03*
X39764Y158465D02*
D03*
X47264Y102165D02*
D03*
X39764Y140748D02*
D03*
X49606Y158465D02*
D03*
X57264Y102165D02*
D03*
X49606Y140748D02*
D03*
M02*
