G04*
G04 #@! TF.GenerationSoftware,Altium Limited,Altium Designer,22.1.2 (22)*
G04*
G04 Layer_Physical_Order=3*
G04 Layer_Color=16440176*
%FSLAX25Y25*%
%MOIN*%
G70*
G04*
G04 #@! TF.SameCoordinates,6C204DCC-978F-4A87-A690-EB2E95B516E8*
G04*
G04*
G04 #@! TF.FilePolarity,Positive*
G04*
G01*
G75*
%ADD11C,0.00787*%
%ADD40C,0.01968*%
%ADD41C,0.01575*%
G36*
X73209Y807D02*
X68898D01*
X68873Y802D01*
X68848Y805D01*
X68540Y790D01*
X68468Y772D01*
X68393D01*
X67788Y652D01*
X67696Y614D01*
X67599Y595D01*
X67029Y358D01*
X66947Y303D01*
X66855Y266D01*
X66342Y-77D01*
X66272Y-147D01*
X66190Y-202D01*
X65753Y-639D01*
X65698Y-721D01*
X65629Y-791D01*
X65286Y-1304D01*
X65248Y-1396D01*
X65193Y-1478D01*
X64957Y-2048D01*
X64951Y-2074D01*
X3956D01*
Y0D01*
X3950Y33D01*
X3954Y66D01*
X3929Y451D01*
X3903Y546D01*
X3897Y645D01*
X3697Y1390D01*
X3639Y1507D01*
X3597Y1632D01*
X3212Y2299D01*
X3125Y2398D01*
X3052Y2507D01*
X2507Y3052D01*
X2398Y3125D01*
X2299Y3212D01*
X1632Y3597D01*
X1508Y3639D01*
X1390Y3697D01*
X645Y3897D01*
X514Y3905D01*
X385Y3931D01*
X-385D01*
X-514Y3905D01*
X-645Y3897D01*
X-1390Y3697D01*
X-1507Y3639D01*
X-1632Y3597D01*
X-2299Y3212D01*
X-2398Y3125D01*
X-2507Y3052D01*
X-3052Y2507D01*
X-3125Y2398D01*
X-3212Y2299D01*
X-3597Y1632D01*
X-3639Y1508D01*
X-3697Y1390D01*
X-3897Y645D01*
X-3903Y546D01*
X-3929Y451D01*
X-3954Y66D01*
X-3950Y33D01*
X-3956Y0D01*
Y-2074D01*
X-34637D01*
X-34642Y-2048D01*
X-34878Y-1478D01*
X-34933Y-1396D01*
X-34971Y-1304D01*
X-35314Y-791D01*
X-35384Y-721D01*
X-35438Y-639D01*
X-35875Y-202D01*
X-35957Y-147D01*
X-36027Y-77D01*
X-36540Y266D01*
X-36632Y303D01*
X-36714Y358D01*
X-37284Y595D01*
X-37381Y614D01*
X-37473Y652D01*
X-38078Y772D01*
X-38153D01*
X-38225Y790D01*
X-38533Y805D01*
X-38558Y802D01*
X-38583Y807D01*
X-42894D01*
Y80000D01*
X73209D01*
Y807D01*
D02*
G37*
%LPC*%
G36*
X57264Y78767D02*
X56726Y78660D01*
X56586Y78567D01*
X47942D01*
X47801Y78660D01*
X47264Y78767D01*
X46726Y78660D01*
X46586Y78567D01*
X37942D01*
X37801Y78660D01*
X37264Y78767D01*
X36726Y78660D01*
X36586Y78567D01*
X27942D01*
X27801Y78660D01*
X27264Y78767D01*
X26726Y78660D01*
X26586Y78567D01*
X8729D01*
X8589Y78660D01*
X8051Y78767D01*
X7514Y78660D01*
X7373Y78567D01*
X-1271D01*
X-1411Y78660D01*
X-1949Y78767D01*
X-2486Y78660D01*
X-2627Y78567D01*
X-11271D01*
X-11411Y78660D01*
X-11949Y78767D01*
X-12487Y78660D01*
X-12627Y78567D01*
X-21271D01*
X-21411Y78660D01*
X-21949Y78767D01*
X-22487Y78660D01*
X-22942Y78356D01*
X-23247Y77900D01*
X-23354Y77362D01*
X-23247Y76825D01*
X-22942Y76369D01*
X-22487Y76064D01*
X-21949Y75957D01*
X-21411Y76064D01*
X-21271Y76158D01*
X-12627D01*
X-12487Y76064D01*
X-11949Y75957D01*
X-11411Y76064D01*
X-11271Y76158D01*
X-3153D01*
Y53828D01*
X-3247Y53687D01*
X-3354Y53150D01*
X-3247Y52612D01*
X-3153Y52472D01*
Y42017D01*
X-3247Y41876D01*
X-3354Y41339D01*
X-3247Y40801D01*
X-3153Y40661D01*
Y29550D01*
X-21127Y11576D01*
X-21388Y11185D01*
X-21480Y10724D01*
X-21480Y10724D01*
Y4615D01*
X-21574Y4475D01*
X-21680Y3937D01*
X-21574Y3399D01*
X-21269Y2944D01*
X-20813Y2639D01*
X-20276Y2532D01*
X-19738Y2639D01*
X-19282Y2944D01*
X-18978Y3399D01*
X-18871Y3937D01*
X-18978Y4475D01*
X-19071Y4615D01*
Y10226D01*
X-1097Y28200D01*
X-836Y28590D01*
X-745Y29051D01*
Y40661D01*
X-651Y40801D01*
X-544Y41339D01*
X-651Y41876D01*
X-745Y42017D01*
Y51945D01*
X2352D01*
X9873Y44424D01*
X9873Y44424D01*
X10264Y44163D01*
X10724Y44071D01*
X10724Y44071D01*
X21418D01*
X21559Y43978D01*
X22096Y43871D01*
X22634Y43978D01*
X22774Y44071D01*
X29726D01*
X30636Y43161D01*
Y42017D01*
X30542Y41876D01*
X30436Y41339D01*
X30542Y40801D01*
X30636Y40661D01*
Y39117D01*
X30136Y38965D01*
X30068Y39068D01*
X29807Y39242D01*
X29500Y39303D01*
X29193Y39242D01*
X28932Y39068D01*
X28758Y38807D01*
X28697Y38500D01*
X28758Y38193D01*
X28932Y37932D01*
X29193Y37758D01*
X29500Y37697D01*
X29807Y37758D01*
X30068Y37932D01*
X30136Y38035D01*
X30636Y37883D01*
Y36339D01*
X27755Y33458D01*
X17528D01*
X17388Y33552D01*
X16850Y33659D01*
X16313Y33552D01*
X15857Y33247D01*
X15552Y32792D01*
X15445Y32254D01*
X15552Y31716D01*
X15857Y31260D01*
X16313Y30956D01*
X16850Y30849D01*
X17388Y30956D01*
X17528Y31050D01*
X28254D01*
X28254Y31050D01*
X28715Y31141D01*
X29105Y31402D01*
X32692Y34989D01*
X32953Y35380D01*
X33045Y35840D01*
X33045Y35841D01*
Y40661D01*
X33138Y40801D01*
X33246Y41339D01*
X33138Y41876D01*
X33045Y42017D01*
Y43659D01*
X33045Y43659D01*
X32953Y44120D01*
X32692Y44511D01*
X31076Y46127D01*
X30685Y46388D01*
X30224Y46480D01*
X30224Y46480D01*
X22774D01*
X22634Y46574D01*
X22096Y46681D01*
X21559Y46574D01*
X21418Y46480D01*
X11223D01*
X3702Y54001D01*
X3311Y54262D01*
X2850Y54354D01*
X2850Y54354D01*
X-745D01*
Y76158D01*
X7373D01*
X7514Y76064D01*
X8051Y75957D01*
X8589Y76064D01*
X8729Y76158D01*
X26586D01*
X26726Y76064D01*
X27264Y75957D01*
X27801Y76064D01*
X27942Y76158D01*
X36586D01*
X36726Y76064D01*
X37264Y75957D01*
X37801Y76064D01*
X37942Y76158D01*
X46586D01*
X46726Y76064D01*
X47264Y75957D01*
X47801Y76064D01*
X47942Y76158D01*
X56586D01*
X56726Y76064D01*
X57264Y75957D01*
X57801Y76064D01*
X58257Y76369D01*
X58562Y76825D01*
X58669Y77362D01*
X58562Y77900D01*
X58257Y78356D01*
X57801Y78660D01*
X57264Y78767D01*
D02*
G37*
G36*
X54764Y67456D02*
X54457Y67395D01*
X54196Y67221D01*
X54022Y66961D01*
X53961Y66654D01*
X54022Y66346D01*
X54196Y66086D01*
X54457Y65912D01*
X54764Y65851D01*
X55071Y65912D01*
X55331Y66086D01*
X55506Y66346D01*
X55567Y66654D01*
X55506Y66961D01*
X55331Y67221D01*
X55071Y67395D01*
X54764Y67456D01*
D02*
G37*
G36*
X44764D02*
X44457Y67395D01*
X44196Y67221D01*
X44022Y66961D01*
X43961Y66654D01*
X44022Y66346D01*
X44196Y66086D01*
X44457Y65912D01*
X44764Y65851D01*
X45071Y65912D01*
X45331Y66086D01*
X45505Y66346D01*
X45567Y66654D01*
X45505Y66961D01*
X45331Y67221D01*
X45071Y67395D01*
X44764Y67456D01*
D02*
G37*
G36*
X34764D02*
X34457Y67395D01*
X34196Y67221D01*
X34022Y66961D01*
X33961Y66654D01*
X34022Y66346D01*
X34196Y66086D01*
X34457Y65912D01*
X34764Y65851D01*
X35071Y65912D01*
X35331Y66086D01*
X35506Y66346D01*
X35567Y66654D01*
X35506Y66961D01*
X35331Y67221D01*
X35071Y67395D01*
X34764Y67456D01*
D02*
G37*
G36*
X24764D02*
X24457Y67395D01*
X24196Y67221D01*
X24022Y66961D01*
X23961Y66654D01*
X24022Y66346D01*
X24196Y66086D01*
X24457Y65912D01*
X24764Y65851D01*
X25071Y65912D01*
X25332Y66086D01*
X25506Y66346D01*
X25567Y66654D01*
X25506Y66961D01*
X25332Y67221D01*
X25071Y67395D01*
X24764Y67456D01*
D02*
G37*
G36*
X5551D02*
X5244Y67395D01*
X4984Y67221D01*
X4809Y66961D01*
X4748Y66654D01*
X4809Y66346D01*
X4984Y66086D01*
X5244Y65912D01*
X5551Y65851D01*
X5858Y65912D01*
X6119Y66086D01*
X6293Y66346D01*
X6354Y66654D01*
X6293Y66961D01*
X6119Y67221D01*
X5858Y67395D01*
X5551Y67456D01*
D02*
G37*
G36*
X-4449D02*
X-4756Y67395D01*
X-5017Y67221D01*
X-5190Y66961D01*
X-5252Y66654D01*
X-5190Y66346D01*
X-5017Y66086D01*
X-4756Y65912D01*
X-4449Y65851D01*
X-4142Y65912D01*
X-3881Y66086D01*
X-3707Y66346D01*
X-3646Y66654D01*
X-3707Y66961D01*
X-3881Y67221D01*
X-4142Y67395D01*
X-4449Y67456D01*
D02*
G37*
G36*
X-14449D02*
X-14756Y67395D01*
X-15017Y67221D01*
X-15191Y66961D01*
X-15252Y66654D01*
X-15191Y66346D01*
X-15017Y66086D01*
X-14756Y65912D01*
X-14449Y65851D01*
X-14142Y65912D01*
X-13881Y66086D01*
X-13707Y66346D01*
X-13646Y66654D01*
X-13707Y66961D01*
X-13881Y67221D01*
X-14142Y67395D01*
X-14449Y67456D01*
D02*
G37*
G36*
X-24449D02*
X-24756Y67395D01*
X-25016Y67221D01*
X-25190Y66961D01*
X-25252Y66654D01*
X-25190Y66346D01*
X-25016Y66086D01*
X-24756Y65912D01*
X-24449Y65851D01*
X-24142Y65912D01*
X-23881Y66086D01*
X-23707Y66346D01*
X-23646Y66654D01*
X-23707Y66961D01*
X-23881Y67221D01*
X-24142Y67395D01*
X-24449Y67456D01*
D02*
G37*
G36*
X17520Y59858D02*
X17212Y59797D01*
X16952Y59623D01*
X16778Y59362D01*
X16717Y59055D01*
X16778Y58748D01*
X16952Y58487D01*
X17212Y58313D01*
X17520Y58252D01*
X17827Y58313D01*
X18087Y58487D01*
X18261Y58748D01*
X18323Y59055D01*
X18261Y59362D01*
X18087Y59623D01*
X17827Y59797D01*
X17520Y59858D01*
D02*
G37*
G36*
X12795D02*
X12488Y59797D01*
X12228Y59623D01*
X12054Y59362D01*
X11992Y59055D01*
X12054Y58748D01*
X12228Y58487D01*
X12488Y58313D01*
X12795Y58252D01*
X13103Y58313D01*
X13363Y58487D01*
X13537Y58748D01*
X13598Y59055D01*
X13537Y59362D01*
X13363Y59623D01*
X13103Y59797D01*
X12795Y59858D01*
D02*
G37*
G36*
X19685Y55921D02*
X19378Y55860D01*
X19117Y55686D01*
X18943Y55425D01*
X18882Y55118D01*
X18943Y54811D01*
X19117Y54550D01*
X19378Y54376D01*
X19685Y54315D01*
X19992Y54376D01*
X20253Y54550D01*
X20427Y54811D01*
X20488Y55118D01*
X20427Y55425D01*
X20253Y55686D01*
X19992Y55860D01*
X19685Y55921D01*
D02*
G37*
G36*
X10630D02*
X10323Y55860D01*
X10062Y55686D01*
X9888Y55425D01*
X9827Y55118D01*
X9888Y54811D01*
X10062Y54550D01*
X10323Y54376D01*
X10630Y54315D01*
X10937Y54376D01*
X11198Y54550D01*
X11372Y54811D01*
X11433Y55118D01*
X11372Y55425D01*
X11198Y55686D01*
X10937Y55860D01*
X10630Y55921D01*
D02*
G37*
G36*
X22000Y51303D02*
X21693Y51242D01*
X21432Y51068D01*
X21258Y50807D01*
X21197Y50500D01*
X21258Y50193D01*
X21432Y49932D01*
X21693Y49758D01*
X22000Y49697D01*
X22307Y49758D01*
X22568Y49932D01*
X22742Y50193D01*
X22803Y50500D01*
X22742Y50807D01*
X22568Y51068D01*
X22307Y51242D01*
X22000Y51303D01*
D02*
G37*
G36*
Y48803D02*
X21693Y48742D01*
X21432Y48568D01*
X21258Y48307D01*
X21197Y48000D01*
X21258Y47693D01*
X21432Y47432D01*
X21693Y47258D01*
X22000Y47197D01*
X22307Y47258D01*
X22568Y47432D01*
X22742Y47693D01*
X22803Y48000D01*
X22742Y48307D01*
X22568Y48568D01*
X22307Y48742D01*
X22000Y48803D01*
D02*
G37*
G36*
X8315Y43354D02*
X8008Y43293D01*
X7747Y43119D01*
X7573Y42858D01*
X7512Y42551D01*
X7573Y42244D01*
X7747Y41984D01*
X8008Y41809D01*
X8315Y41748D01*
X8622Y41809D01*
X8883Y41984D01*
X9057Y42244D01*
X9118Y42551D01*
X9057Y42858D01*
X8883Y43119D01*
X8622Y43293D01*
X8315Y43354D01*
D02*
G37*
G36*
Y40854D02*
X8008Y40793D01*
X7747Y40619D01*
X7573Y40358D01*
X7512Y40051D01*
X7573Y39744D01*
X7747Y39483D01*
X8008Y39309D01*
X8315Y39248D01*
X8622Y39309D01*
X8883Y39483D01*
X9057Y39744D01*
X9118Y40051D01*
X9057Y40358D01*
X8883Y40619D01*
X8622Y40793D01*
X8315Y40854D01*
D02*
G37*
G36*
X10000Y36905D02*
X9462Y36798D01*
X9007Y36494D01*
X8778Y36151D01*
X8625Y36115D01*
X8375D01*
X8222Y36151D01*
X7993Y36494D01*
X7538Y36798D01*
X7000Y36905D01*
X6462Y36798D01*
X6007Y36494D01*
X5702Y36038D01*
X5595Y35500D01*
X5702Y34962D01*
X6007Y34506D01*
X6197Y34379D01*
Y21500D01*
X6258Y21193D01*
X6432Y20932D01*
X15932Y11432D01*
X16193Y11258D01*
X16500Y11197D01*
X16500Y11197D01*
X53667D01*
X54512Y10352D01*
Y5058D01*
X54321Y4930D01*
X54017Y4475D01*
X53910Y3937D01*
X54017Y3399D01*
X54321Y2944D01*
X54777Y2639D01*
X55315Y2532D01*
X55853Y2639D01*
X56308Y2944D01*
X56613Y3399D01*
X56720Y3937D01*
X56613Y4475D01*
X56308Y4930D01*
X56118Y5058D01*
Y9764D01*
X56580Y9955D01*
X57662Y8873D01*
Y7026D01*
X57471Y6899D01*
X57166Y6443D01*
X57060Y5906D01*
X57166Y5368D01*
X57471Y4912D01*
X57927Y4608D01*
X58464Y4501D01*
X59002Y4608D01*
X59458Y4912D01*
X59763Y5368D01*
X59869Y5906D01*
X59763Y6443D01*
X59458Y6899D01*
X59267Y7026D01*
Y9206D01*
X59206Y9513D01*
X59032Y9774D01*
X55057Y13749D01*
X54796Y13923D01*
X54489Y13984D01*
X17322D01*
X8984Y22322D01*
Y31349D01*
X10568Y32932D01*
X10568Y32932D01*
X10742Y33193D01*
X10803Y33500D01*
Y34379D01*
X10993Y34506D01*
X11298Y34962D01*
X11405Y35500D01*
X11298Y36038D01*
X10993Y36494D01*
X10538Y36798D01*
X10000Y36905D01*
D02*
G37*
G36*
X42717Y6708D02*
X42409Y6647D01*
X42149Y6473D01*
X41975Y6213D01*
X41914Y5906D01*
X41975Y5598D01*
X42149Y5338D01*
X42409Y5164D01*
X42717Y5103D01*
X43024Y5164D01*
X43284Y5338D01*
X43458Y5598D01*
X43519Y5906D01*
X43458Y6213D01*
X43284Y6473D01*
X43024Y6647D01*
X42717Y6708D01*
D02*
G37*
G36*
X36417D02*
X36110Y6647D01*
X35850Y6473D01*
X35676Y6213D01*
X35614Y5906D01*
X35676Y5598D01*
X35850Y5338D01*
X36110Y5164D01*
X36417Y5103D01*
X36724Y5164D01*
X36985Y5338D01*
X37159Y5598D01*
X37220Y5906D01*
X37159Y6213D01*
X36985Y6473D01*
X36724Y6647D01*
X36417Y6708D01*
D02*
G37*
G36*
X30118D02*
X29811Y6647D01*
X29550Y6473D01*
X29376Y6213D01*
X29315Y5906D01*
X29376Y5598D01*
X29550Y5338D01*
X29811Y5164D01*
X30118Y5103D01*
X30425Y5164D01*
X30686Y5338D01*
X30860Y5598D01*
X30921Y5906D01*
X30860Y6213D01*
X30686Y6473D01*
X30425Y6647D01*
X30118Y6708D01*
D02*
G37*
G36*
X23819D02*
X23512Y6647D01*
X23251Y6473D01*
X23077Y6213D01*
X23016Y5906D01*
X23077Y5598D01*
X23251Y5338D01*
X23512Y5164D01*
X23819Y5103D01*
X24126Y5164D01*
X24387Y5338D01*
X24561Y5598D01*
X24622Y5906D01*
X24561Y6213D01*
X24387Y6473D01*
X24126Y6647D01*
X23819Y6708D01*
D02*
G37*
G36*
X52165Y6708D02*
X51858Y6647D01*
X51598Y6473D01*
X51424Y6213D01*
X51363Y5906D01*
X51424Y5598D01*
X51598Y5338D01*
X51858Y5164D01*
X52165Y5103D01*
X52473Y5164D01*
X52733Y5338D01*
X52907Y5598D01*
X52968Y5906D01*
X52907Y6213D01*
X52733Y6473D01*
X52473Y6647D01*
X52165Y6708D01*
D02*
G37*
G36*
X39567Y4740D02*
X39260Y4679D01*
X38999Y4505D01*
X38825Y4244D01*
X38764Y3937D01*
X38825Y3630D01*
X38999Y3369D01*
X39260Y3195D01*
X39567Y3134D01*
X39874Y3195D01*
X40135Y3369D01*
X40309Y3630D01*
X40370Y3937D01*
X40309Y4244D01*
X40135Y4505D01*
X39874Y4679D01*
X39567Y4740D01*
D02*
G37*
G36*
X33268D02*
X32961Y4679D01*
X32700Y4505D01*
X32526Y4244D01*
X32465Y3937D01*
X32526Y3630D01*
X32700Y3369D01*
X32961Y3195D01*
X33268Y3134D01*
X33575Y3195D01*
X33835Y3369D01*
X34009Y3630D01*
X34071Y3937D01*
X34009Y4244D01*
X33835Y4505D01*
X33575Y4679D01*
X33268Y4740D01*
D02*
G37*
G36*
X26969D02*
X26661Y4679D01*
X26401Y4505D01*
X26227Y4244D01*
X26166Y3937D01*
X26227Y3630D01*
X26401Y3369D01*
X26661Y3195D01*
X26969Y3134D01*
X27276Y3195D01*
X27536Y3369D01*
X27710Y3630D01*
X27771Y3937D01*
X27710Y4244D01*
X27536Y4505D01*
X27276Y4679D01*
X26969Y4740D01*
D02*
G37*
G36*
X20669D02*
X20362Y4679D01*
X20102Y4505D01*
X19928Y4244D01*
X19866Y3937D01*
X19928Y3630D01*
X20102Y3369D01*
X20362Y3195D01*
X20669Y3134D01*
X20977Y3195D01*
X21237Y3369D01*
X21411Y3630D01*
X21472Y3937D01*
X21411Y4244D01*
X21237Y4505D01*
X20977Y4679D01*
X20669Y4740D01*
D02*
G37*
%LPD*%
D11*
X55315Y3937D02*
Y10685D01*
X16500Y12000D02*
X54000D01*
X55315Y10685D01*
X16989Y13181D02*
X54489D01*
X58464Y5906D02*
Y9206D01*
X54489Y13181D02*
X58464Y9206D01*
X7000Y21500D02*
X16500Y12000D01*
X8181Y21989D02*
X16989Y13181D01*
X8181Y21989D02*
Y31681D01*
X10000Y33500D01*
Y35500D01*
X7000Y21500D02*
Y35500D01*
D40*
X-8000Y47000D02*
D03*
X-5000Y34500D02*
D03*
X11500Y11000D02*
D03*
X1500Y37500D02*
D03*
X-38000Y8500D02*
D03*
X70500Y7500D02*
D03*
X70000Y77000D02*
D03*
X-36500D02*
D03*
X47000Y9000D02*
D03*
X24500Y53000D02*
D03*
X26500Y58500D02*
D03*
X15000Y64000D02*
D03*
X3000Y58500D02*
D03*
X9000Y52000D02*
D03*
X-7035Y54358D02*
D03*
X-18846D02*
D03*
X69736D02*
D03*
X63831Y42547D02*
D03*
X69736Y30736D02*
D03*
X63831Y18925D02*
D03*
X57925Y54358D02*
D03*
X52020Y42547D02*
D03*
X57925Y30736D02*
D03*
X52020Y18925D02*
D03*
X46114Y54358D02*
D03*
X40209Y42547D02*
D03*
X46114Y30736D02*
D03*
X40209Y18925D02*
D03*
X34303Y54358D02*
D03*
Y30736D02*
D03*
X16587Y18925D02*
D03*
X10681Y30736D02*
D03*
X4775Y18925D02*
D03*
X-7035D02*
D03*
X-12941Y30736D02*
D03*
X-18846Y18925D02*
D03*
X-30658Y42547D02*
D03*
X-24752Y30736D02*
D03*
X-30658Y18925D02*
D03*
X-36563Y54358D02*
D03*
Y30736D02*
D03*
X55315Y3937D02*
D03*
X58464Y5906D02*
D03*
X7000Y35500D02*
D03*
X10000D02*
D03*
X16850Y32254D02*
D03*
X-1949Y53150D02*
D03*
Y41339D02*
D03*
X31841Y41339D02*
D03*
X22096Y45276D02*
D03*
X-20276Y3937D02*
D03*
X57264Y77362D02*
D03*
X47264D02*
D03*
X37264D02*
D03*
X27264D02*
D03*
X8051D02*
D03*
X-1949D02*
D03*
X-11949D02*
D03*
X-21949D02*
D03*
D41*
X22096Y45276D02*
X30224D01*
X10724D02*
X22096D01*
X-20276Y3937D02*
Y10724D01*
X-1949Y29051D01*
Y41339D01*
Y53150D01*
X16850Y32254D02*
X28254D01*
X31841Y35840D01*
Y41339D01*
Y43659D01*
X30224Y45276D02*
X31841Y43659D01*
X-1949Y53150D02*
X2850D01*
X10724Y45276D01*
X-1949Y53150D02*
Y77362D01*
X-21949D02*
X-11949D01*
X-1949D01*
X8051D01*
X27264D01*
X37264D01*
X47264D01*
X57264D01*
M02*
