G04*
G04 #@! TF.GenerationSoftware,Altium Limited,Altium Designer,24.7.2 (38)*
G04*
G04 Layer_Color=2752767*
%FSLAX25Y25*%
%MOIN*%
G70*
G04*
G04 #@! TF.SameCoordinates,4FEF5C06-4E4D-4149-9763-4A6A228635AC*
G04*
G04*
G04 #@! TF.FilePolarity,Positive*
G04*
G01*
G75*
%ADD47C,0.00200*%
%ADD48C,0.00267*%
D47*
X4200Y221641D02*
Y223241D01*
X5800D01*
Y221641D01*
X4200D01*
X-5800D02*
Y223241D01*
X-4200D01*
Y221641D01*
X-5800D01*
X-15800D02*
Y223241D01*
X-14200D01*
Y221641D01*
X-15800D01*
X-25800D02*
Y223241D01*
X-24200D01*
Y221641D01*
X-25800D01*
X-35800D02*
Y223241D01*
X-34200D01*
Y221641D01*
X-35800D01*
X-45800D02*
Y223241D01*
X-44200D01*
Y221641D01*
X-45800D01*
X44200D02*
Y223241D01*
X45800D01*
Y221641D01*
X44200D01*
X34200D02*
Y223241D01*
X35800D01*
Y221641D01*
X34200D01*
X24200D02*
Y223241D01*
X25800D01*
Y221641D01*
X24200D01*
X14200D02*
Y223241D01*
X15800D01*
Y221641D01*
X14200D01*
X-31496Y31680D02*
X-31096Y32080D01*
X-30696D01*
X-31096Y32480D01*
X-30696Y32880D01*
X-31096D01*
X-31496Y33280D01*
X-31896Y32880D01*
X-32296D01*
X-31896Y32480D01*
X-32296Y32080D01*
X-31896D01*
X-31496Y31680D01*
X31496D02*
X31896Y32080D01*
X32296D01*
X31896Y32480D01*
X32296Y32880D01*
X31896D01*
X31496Y33280D01*
X31096Y32880D01*
X30696D01*
X31096Y32480D01*
X30696Y32080D01*
X31096D01*
X31496Y31680D01*
X23622D02*
X24022Y32080D01*
X24422D01*
X24022Y32480D01*
X24422Y32880D01*
X24022D01*
X23622Y33280D01*
X23222Y32880D01*
X22822D01*
X23222Y32480D01*
X22822Y32080D01*
X23222D01*
X23622Y31680D01*
X15748D02*
X16148Y32080D01*
X16548D01*
X16148Y32480D01*
X16548Y32880D01*
X16148D01*
X15748Y33280D01*
X15348Y32880D01*
X14948D01*
X15348Y32480D01*
X14948Y32080D01*
X15348D01*
X15748Y31680D01*
X7874D02*
X8274Y32080D01*
X8674D01*
X8274Y32480D01*
X8674Y32880D01*
X8274D01*
X7874Y33280D01*
X7474Y32880D01*
X7074D01*
X7474Y32480D01*
X7074Y32080D01*
X7474D01*
X7874Y31680D01*
X0D02*
X400Y32080D01*
X800D01*
X400Y32480D01*
X800Y32880D01*
X400D01*
X0Y33280D01*
X-400Y32880D01*
X-800D01*
X-400Y32480D01*
X-800Y32080D01*
X-400D01*
X0Y31680D01*
X-7874D02*
X-7474Y32080D01*
X-7074D01*
X-7474Y32480D01*
X-7074Y32880D01*
X-7474D01*
X-7874Y33280D01*
X-8274Y32880D01*
X-8674D01*
X-8274Y32480D01*
X-8674Y32080D01*
X-8274D01*
X-7874Y31680D01*
X-15748D02*
X-15348Y32080D01*
X-14948D01*
X-15348Y32480D01*
X-14948Y32880D01*
X-15348D01*
X-15748Y33280D01*
X-16148Y32880D01*
X-16548D01*
X-16148Y32480D01*
X-16548Y32080D01*
X-16148D01*
X-15748Y31680D01*
X-23622D02*
X-23222Y32080D01*
X-22822D01*
X-23222Y32480D01*
X-22822Y32880D01*
X-23222D01*
X-23622Y33280D01*
X-24022Y32880D01*
X-24422D01*
X-24022Y32480D01*
X-24422Y32080D01*
X-24022D01*
X-23622Y31680D01*
X45276Y50381D02*
X45676Y50781D01*
X46076D01*
X45676Y51181D01*
X46076Y51581D01*
X45676D01*
X45276Y51981D01*
X44876Y51581D01*
X44476D01*
X44876Y51181D01*
X44476Y50781D01*
X44876D01*
X45276Y50381D01*
X14764D02*
X15164Y50781D01*
X15564D01*
X15164Y51181D01*
X15564Y51581D01*
X15164D01*
X14764Y51981D01*
X14364Y51581D01*
X13964D01*
X14364Y51181D01*
X13964Y50781D01*
X14364D01*
X14764Y50381D01*
X-14764D02*
X-14364Y50781D01*
X-13964D01*
X-14364Y51181D01*
X-13964Y51581D01*
X-14364D01*
X-14764Y51981D01*
X-15164Y51581D01*
X-15564D01*
X-15164Y51181D01*
X-15564Y50781D01*
X-15164D01*
X-14764Y50381D01*
X-45276D02*
X-44876Y50781D01*
X-44476D01*
X-44876Y51181D01*
X-44476Y51581D01*
X-44876D01*
X-45276Y51981D01*
X-45676Y51581D01*
X-46076D01*
X-45676Y51181D01*
X-46076Y50781D01*
X-45676D01*
X-45276Y50381D01*
X55118Y18885D02*
X55518Y19285D01*
X55918D01*
X55518Y19685D01*
X55918Y20085D01*
X55518D01*
X55118Y20485D01*
X54718Y20085D01*
X54318D01*
X54718Y19685D01*
X54318Y19285D01*
X54718D01*
X55118Y18885D01*
X-55118D02*
X-54718Y19285D01*
X-54318D01*
X-54718Y19685D01*
X-54318Y20085D01*
X-54718D01*
X-55118Y20485D01*
X-55518Y20085D01*
X-55918D01*
X-55518Y19685D01*
X-55918Y19285D01*
X-55518D01*
X-55118Y18885D01*
Y34633D02*
X-54718Y35033D01*
X-54318D01*
X-54718Y35433D01*
X-54318Y35833D01*
X-54718D01*
X-55118Y36233D01*
X-55518Y35833D01*
X-55918D01*
X-55518Y35433D01*
X-55918Y35033D01*
X-55518D01*
X-55118Y34633D01*
X55118D02*
X55518Y35033D01*
X55918D01*
X55518Y35433D01*
X55918Y35833D01*
X55518D01*
X55118Y36233D01*
X54718Y35833D01*
X54318D01*
X54718Y35433D01*
X54318Y35033D01*
X54718D01*
X55118Y34633D01*
Y50381D02*
X55518Y50781D01*
X55918D01*
X55518Y51181D01*
X55918Y51581D01*
X55518D01*
X55118Y51981D01*
X54718Y51581D01*
X54318D01*
X54718Y51181D01*
X54318Y50781D01*
X54718D01*
X55118Y50381D01*
X35433D02*
X35833Y50781D01*
X36233D01*
X35833Y51181D01*
X36233Y51581D01*
X35833D01*
X35433Y51981D01*
X35033Y51581D01*
X34633D01*
X35033Y51181D01*
X34633Y50781D01*
X35033D01*
X35433Y50381D01*
X24606D02*
X25006Y50781D01*
X25406D01*
X25006Y51181D01*
X25406Y51581D01*
X25006D01*
X24606Y51981D01*
X24206Y51581D01*
X23806D01*
X24206Y51181D01*
X23806Y50781D01*
X24206D01*
X24606Y50381D01*
X4921D02*
X5321Y50781D01*
X5721D01*
X5321Y51181D01*
X5721Y51581D01*
X5321D01*
X4921Y51981D01*
X4521Y51581D01*
X4121D01*
X4521Y51181D01*
X4121Y50781D01*
X4521D01*
X4921Y50381D01*
X-4921D02*
X-4521Y50781D01*
X-4121D01*
X-4521Y51181D01*
X-4121Y51581D01*
X-4521D01*
X-4921Y51981D01*
X-5321Y51581D01*
X-5721D01*
X-5321Y51181D01*
X-5721Y50781D01*
X-5321D01*
X-4921Y50381D01*
X-24606D02*
X-24206Y50781D01*
X-23806D01*
X-24206Y51181D01*
X-23806Y51581D01*
X-24206D01*
X-24606Y51981D01*
X-25006Y51581D01*
X-25406D01*
X-25006Y51181D01*
X-25406Y50781D01*
X-25006D01*
X-24606Y50381D01*
X-55118D02*
X-54718Y50781D01*
X-54318D01*
X-54718Y51181D01*
X-54318Y51581D01*
X-54718D01*
X-55118Y51981D01*
X-55518Y51581D01*
X-55918D01*
X-55518Y51181D01*
X-55918Y50781D01*
X-55518D01*
X-55118Y50381D01*
X-35433D02*
X-35033Y50781D01*
X-34633D01*
X-35033Y51181D01*
X-34633Y51581D01*
X-35033D01*
X-35433Y51981D01*
X-35833Y51581D01*
X-36233D01*
X-35833Y51181D01*
X-36233Y50781D01*
X-35833D01*
X-35433Y50381D01*
X35433Y66129D02*
X35833Y66529D01*
X36233D01*
X35833Y66929D01*
X36233Y67329D01*
X35833D01*
X35433Y67729D01*
X35033Y67329D01*
X34633D01*
X35033Y66929D01*
X34633Y66529D01*
X35033D01*
X35433Y66129D01*
X55118D02*
X55518Y66529D01*
X55918D01*
X55518Y66929D01*
X55918Y67329D01*
X55518D01*
X55118Y67729D01*
X54718Y67329D01*
X54318D01*
X54718Y66929D01*
X54318Y66529D01*
X54718D01*
X55118Y66129D01*
X4921D02*
X5321Y66529D01*
X5721D01*
X5321Y66929D01*
X5721Y67329D01*
X5321D01*
X4921Y67729D01*
X4521Y67329D01*
X4121D01*
X4521Y66929D01*
X4121Y66529D01*
X4521D01*
X4921Y66129D01*
X24606D02*
X25006Y66529D01*
X25406D01*
X25006Y66929D01*
X25406Y67329D01*
X25006D01*
X24606Y67729D01*
X24206Y67329D01*
X23806D01*
X24206Y66929D01*
X23806Y66529D01*
X24206D01*
X24606Y66129D01*
X-24606D02*
X-24206Y66529D01*
X-23806D01*
X-24206Y66929D01*
X-23806Y67329D01*
X-24206D01*
X-24606Y67729D01*
X-25006Y67329D01*
X-25406D01*
X-25006Y66929D01*
X-25406Y66529D01*
X-25006D01*
X-24606Y66129D01*
X-4921D02*
X-4521Y66529D01*
X-4121D01*
X-4521Y66929D01*
X-4121Y67329D01*
X-4521D01*
X-4921Y67729D01*
X-5321Y67329D01*
X-5721D01*
X-5321Y66929D01*
X-5721Y66529D01*
X-5321D01*
X-4921Y66129D01*
X-35433D02*
X-35033Y66529D01*
X-34633D01*
X-35033Y66929D01*
X-34633Y67329D01*
X-35033D01*
X-35433Y67729D01*
X-35833Y67329D01*
X-36233D01*
X-35833Y66929D01*
X-36233Y66529D01*
X-35833D01*
X-35433Y66129D01*
X-55118D02*
X-54718Y66529D01*
X-54318D01*
X-54718Y66929D01*
X-54318Y67329D01*
X-54718D01*
X-55118Y67729D01*
X-55518Y67329D01*
X-55918D01*
X-55518Y66929D01*
X-55918Y66529D01*
X-55518D01*
X-55118Y66129D01*
X-50276Y145853D02*
X-49876Y146254D01*
X-49476D01*
X-49876Y146653D01*
X-49476Y147054D01*
X-49876D01*
X-50276Y147453D01*
X-50676Y147054D01*
X-51076D01*
X-50676Y146653D01*
X-51076Y146254D01*
X-50676D01*
X-50276Y145853D01*
X40276D02*
X40676Y146254D01*
X41076D01*
X40676Y146653D01*
X41076Y147054D01*
X40676D01*
X40276Y147453D01*
X39876Y147054D01*
X39476D01*
X39876Y146653D01*
X39476Y146254D01*
X39876D01*
X40276Y145853D01*
X9764D02*
X10164Y146254D01*
X10564D01*
X10164Y146653D01*
X10564Y147054D01*
X10164D01*
X9764Y147453D01*
X9364Y147054D01*
X8964D01*
X9364Y146653D01*
X8964Y146254D01*
X9364D01*
X9764Y145853D01*
X-19764D02*
X-19364Y146254D01*
X-18964D01*
X-19364Y146653D01*
X-18964Y147054D01*
X-19364D01*
X-19764Y147453D01*
X-20164Y147054D01*
X-20564D01*
X-20164Y146653D01*
X-20564Y146254D01*
X-20164D01*
X-19764Y145853D01*
X50276D02*
X50676Y146254D01*
X51076D01*
X50676Y146653D01*
X51076Y147054D01*
X50676D01*
X50276Y147453D01*
X49876Y147054D01*
X49476D01*
X49876Y146653D01*
X49476Y146254D01*
X49876D01*
X50276Y145853D01*
X19764D02*
X20164Y146254D01*
X20564D01*
X20164Y146653D01*
X20564Y147054D01*
X20164D01*
X19764Y147453D01*
X19364Y147054D01*
X18964D01*
X19364Y146653D01*
X18964Y146254D01*
X19364D01*
X19764Y145853D01*
X-9764D02*
X-9364Y146254D01*
X-8964D01*
X-9364Y146653D01*
X-8964Y147054D01*
X-9364D01*
X-9764Y147453D01*
X-10164Y147054D01*
X-10564D01*
X-10164Y146653D01*
X-10564Y146254D01*
X-10164D01*
X-9764Y145853D01*
X-40276D02*
X-39876Y146254D01*
X-39476D01*
X-39876Y146653D01*
X-39476Y147054D01*
X-39876D01*
X-40276Y147453D01*
X-40676Y147054D01*
X-41076D01*
X-40676Y146653D01*
X-41076Y146254D01*
X-40676D01*
X-40276Y145853D01*
X-7874Y42232D02*
X-7474Y42632D01*
X-7074D01*
X-7474Y43031D01*
X-7074Y43431D01*
X-7474D01*
X-7874Y43832D01*
X-8274Y43431D01*
X-8674D01*
X-8274Y43031D01*
X-8674Y42632D01*
X-8274D01*
X-7874Y42232D01*
X51968Y53137D02*
X52368Y53537D01*
X52768D01*
X52368Y53937D01*
X52768Y54337D01*
X52368D01*
X51968Y54737D01*
X51569Y54337D01*
X51169D01*
X51569Y53937D01*
X51169Y53537D01*
X51569D01*
X51968Y53137D01*
X21457D02*
X21857Y53537D01*
X22257D01*
X21857Y53937D01*
X22257Y54337D01*
X21857D01*
X21457Y54737D01*
X21057Y54337D01*
X20657D01*
X21057Y53937D01*
X20657Y53537D01*
X21057D01*
X21457Y53137D01*
X-8071D02*
X-7671Y53537D01*
X-7271D01*
X-7671Y53937D01*
X-7271Y54337D01*
X-7671D01*
X-8071Y54737D01*
X-8471Y54337D01*
X-8871D01*
X-8471Y53937D01*
X-8871Y53537D01*
X-8471D01*
X-8071Y53137D01*
X-38583D02*
X-38183Y53537D01*
X-37783D01*
X-38183Y53937D01*
X-37783Y54337D01*
X-38183D01*
X-38583Y54737D01*
X-38983Y54337D01*
X-39383D01*
X-38983Y53937D01*
X-39383Y53537D01*
X-38983D01*
X-38583Y53137D01*
X7874Y42232D02*
X8274Y42632D01*
X8674D01*
X8274Y43031D01*
X8674Y43431D01*
X8274D01*
X7874Y43832D01*
X7474Y43431D01*
X7074D01*
X7474Y43031D01*
X7074Y42632D01*
X7474D01*
X7874Y42232D01*
X23622D02*
X24022Y42632D01*
X24422D01*
X24022Y43031D01*
X24422Y43431D01*
X24022D01*
X23622Y43832D01*
X23222Y43431D01*
X22822D01*
X23222Y43031D01*
X22822Y42632D01*
X23222D01*
X23622Y42232D01*
X-23622D02*
X-23222Y42632D01*
X-22822D01*
X-23222Y43031D01*
X-22822Y43431D01*
X-23222D01*
X-23622Y43832D01*
X-24022Y43431D01*
X-24422D01*
X-24022Y43031D01*
X-24422Y42632D01*
X-24022D01*
X-23622Y42232D01*
X-11811Y28728D02*
X-11411Y29128D01*
X-11011D01*
X-11411Y29528D01*
X-11011Y29928D01*
X-11411D01*
X-11811Y30328D01*
X-12211Y29928D01*
X-12611D01*
X-12211Y29528D01*
X-12611Y29128D01*
X-12211D01*
X-11811Y28728D01*
X8661Y11995D02*
X9061Y12395D01*
X9461D01*
X9061Y12795D01*
X9461Y13195D01*
X9061D01*
X8661Y13595D01*
X8261Y13195D01*
X7861D01*
X8261Y12795D01*
X7861Y12395D01*
X8261D01*
X8661Y11995D01*
X18110D02*
X18510Y12395D01*
X18910D01*
X18510Y12795D01*
X18910Y13195D01*
X18510D01*
X18110Y13595D01*
X17710Y13195D01*
X17310D01*
X17710Y12795D01*
X17310Y12395D01*
X17710D01*
X18110Y11995D01*
X41969Y53137D02*
X42369Y53537D01*
X42768D01*
X42369Y53937D01*
X42768Y54337D01*
X42369D01*
X41969Y54737D01*
X41568Y54337D01*
X41168D01*
X41568Y53937D01*
X41168Y53537D01*
X41568D01*
X41969Y53137D01*
X48583D02*
X48983Y53537D01*
X49383D01*
X48983Y53937D01*
X49383Y54337D01*
X48983D01*
X48583Y54737D01*
X48183Y54337D01*
X47783D01*
X48183Y53937D01*
X47783Y53537D01*
X48183D01*
X48583Y53137D01*
X18071D02*
X18471Y53537D01*
X18871D01*
X18471Y53937D01*
X18871Y54337D01*
X18471D01*
X18071Y54737D01*
X17671Y54337D01*
X17271D01*
X17671Y53937D01*
X17271Y53537D01*
X17671D01*
X18071Y53137D01*
X11457D02*
X11857Y53537D01*
X12257D01*
X11857Y53937D01*
X12257Y54337D01*
X11857D01*
X11457Y54737D01*
X11057Y54337D01*
X10657D01*
X11057Y53937D01*
X10657Y53537D01*
X11057D01*
X11457Y53137D01*
X-18071D02*
X-17671Y53537D01*
X-17271D01*
X-17671Y53937D01*
X-17271Y54337D01*
X-17671D01*
X-18071Y54737D01*
X-18471Y54337D01*
X-18871D01*
X-18471Y53937D01*
X-18871Y53537D01*
X-18471D01*
X-18071Y53137D01*
X-11457D02*
X-11057Y53537D01*
X-10657D01*
X-11057Y53937D01*
X-10657Y54337D01*
X-11057D01*
X-11457Y54737D01*
X-11857Y54337D01*
X-12257D01*
X-11857Y53937D01*
X-12257Y53537D01*
X-11857D01*
X-11457Y53137D01*
X-48583D02*
X-48183Y53537D01*
X-47783D01*
X-48183Y53937D01*
X-47783Y54337D01*
X-48183D01*
X-48583Y54737D01*
X-48983Y54337D01*
X-49383D01*
X-48983Y53937D01*
X-49383Y53537D01*
X-48983D01*
X-48583Y53137D01*
X-41969D02*
X-41568Y53537D01*
X-41168D01*
X-41568Y53937D01*
X-41168Y54337D01*
X-41568D01*
X-41969Y54737D01*
X-42369Y54337D01*
X-42768D01*
X-42369Y53937D01*
X-42768Y53537D01*
X-42369D01*
X-41969Y53137D01*
X27559Y28728D02*
X27959Y29128D01*
X28359D01*
X27959Y29528D01*
X28359Y29928D01*
X27959D01*
X27559Y30328D01*
X27159Y29928D01*
X26759D01*
X27159Y29528D01*
X26759Y29128D01*
X27159D01*
X27559Y28728D01*
X19685D02*
X20085Y29128D01*
X20485D01*
X20085Y29528D01*
X20485Y29928D01*
X20085D01*
X19685Y30328D01*
X19285Y29928D01*
X18885D01*
X19285Y29528D01*
X18885Y29128D01*
X19285D01*
X19685Y28728D01*
X11811D02*
X12211Y29128D01*
X12611D01*
X12211Y29528D01*
X12611Y29928D01*
X12211D01*
X11811Y30328D01*
X11411Y29928D01*
X11011D01*
X11411Y29528D01*
X11011Y29128D01*
X11411D01*
X11811Y28728D01*
X3937D02*
X4337Y29128D01*
X4737D01*
X4337Y29528D01*
X4737Y29928D01*
X4337D01*
X3937Y30328D01*
X3537Y29928D01*
X3137D01*
X3537Y29528D01*
X3137Y29128D01*
X3537D01*
X3937Y28728D01*
X-3937D02*
X-3537Y29128D01*
X-3137D01*
X-3537Y29528D01*
X-3137Y29928D01*
X-3537D01*
X-3937Y30328D01*
X-4337Y29928D01*
X-4737D01*
X-4337Y29528D01*
X-4737Y29128D01*
X-4337D01*
X-3937Y28728D01*
X-19685D02*
X-19285Y29128D01*
X-18885D01*
X-19285Y29528D01*
X-18885Y29928D01*
X-19285D01*
X-19685Y30328D01*
X-20085Y29928D01*
X-20485D01*
X-20085Y29528D01*
X-20485Y29128D01*
X-20085D01*
X-19685Y28728D01*
X-27559D02*
X-27159Y29128D01*
X-26759D01*
X-27159Y29528D01*
X-26759Y29928D01*
X-27159D01*
X-27559Y30328D01*
X-27959Y29928D01*
X-28359D01*
X-27959Y29528D01*
X-28359Y29128D01*
X-27959D01*
X-27559Y28728D01*
X14961Y11995D02*
X15361Y12395D01*
X15761D01*
X15361Y12795D01*
X15761Y13195D01*
X15361D01*
X14961Y13595D01*
X14561Y13195D01*
X14161D01*
X14561Y12795D01*
X14161Y12395D01*
X14561D01*
X14961Y11995D01*
X11811D02*
X12211Y12395D01*
X12611D01*
X12211Y12795D01*
X12611Y13195D01*
X12211D01*
X11811Y13595D01*
X11411Y13195D01*
X11011D01*
X11411Y12795D01*
X11011Y12395D01*
X11411D01*
X11811Y11995D01*
X27559D02*
X27959Y12395D01*
X28359D01*
X27959Y12795D01*
X28359Y13195D01*
X27959D01*
X27559Y13595D01*
X27159Y13195D01*
X26759D01*
X27159Y12795D01*
X26759Y12395D01*
X27159D01*
X27559Y11995D01*
X24409D02*
X24810Y12395D01*
X25210D01*
X24810Y12795D01*
X25210Y13195D01*
X24810D01*
X24409Y13595D01*
X24010Y13195D01*
X23609D01*
X24010Y12795D01*
X23609Y12395D01*
X24010D01*
X24409Y11995D01*
X21260D02*
X21660Y12395D01*
X22060D01*
X21660Y12795D01*
X22060Y13195D01*
X21660D01*
X21260Y13595D01*
X20860Y13195D01*
X20460D01*
X20860Y12795D01*
X20460Y12395D01*
X20860D01*
X21260Y11995D01*
X5512D02*
X5912Y12395D01*
X6312D01*
X5912Y12795D01*
X6312Y13195D01*
X5912D01*
X5512Y13595D01*
X5112Y13195D01*
X4712D01*
X5112Y12795D01*
X4712Y12395D01*
X5112D01*
X5512Y11995D01*
X-35433D02*
X-35033Y12395D01*
X-34633D01*
X-35033Y12795D01*
X-34633Y13195D01*
X-35033D01*
X-35433Y13595D01*
X-35833Y13195D01*
X-36233D01*
X-35833Y12795D01*
X-36233Y12395D01*
X-35833D01*
X-35433Y11995D01*
D48*
X48438Y189173D02*
G03*
X48438Y189173I-800J0D01*
G01*
X-46838D02*
G03*
X-46838Y189173I-800J0D01*
G01*
M02*
