G04*
G04 #@! TF.GenerationSoftware,Altium Limited,Altium Designer,22.1.2 (22)*
G04*
G04 Layer_Physical_Order=1*
G04 Layer_Color=255*
%FSLAX25Y25*%
%MOIN*%
G70*
G04*
G04 #@! TF.SameCoordinates,0E3957D1-4792-4D0B-97BD-F84BD75C4E9A*
G04*
G04*
G04 #@! TF.FilePolarity,Positive*
G04*
G01*
G75*
%ADD13C,0.00787*%
%ADD14R,0.02362X0.01968*%
%ADD15R,0.02756X0.03937*%
%ADD16R,0.05512X0.02756*%
%ADD17R,0.02047X0.01850*%
%ADD27R,0.02362X0.09055*%
%ADD28C,0.01500*%
%ADD29C,0.01968*%
%ADD30C,0.05315*%
%ADD31R,0.05315X0.05315*%
%ADD32R,0.20866X0.20866*%
%ADD33C,0.01968*%
G36*
X73209Y807D02*
X68898D01*
X68873Y802D01*
X68848Y805D01*
X68540Y790D01*
X68468Y772D01*
X68393D01*
X67788Y652D01*
X67696Y614D01*
X67599Y595D01*
X67029Y358D01*
X66947Y303D01*
X66855Y266D01*
X66342Y-77D01*
X66272Y-147D01*
X66190Y-202D01*
X65753Y-639D01*
X65698Y-721D01*
X65629Y-791D01*
X65286Y-1304D01*
X65248Y-1396D01*
X65193Y-1478D01*
X65003Y-1936D01*
X3956D01*
Y0D01*
X3950Y33D01*
X3954Y66D01*
X3929Y451D01*
X3903Y546D01*
X3897Y645D01*
X3697Y1390D01*
X3639Y1507D01*
X3597Y1632D01*
X3212Y2299D01*
X3125Y2398D01*
X3052Y2507D01*
X2507Y3052D01*
X2398Y3125D01*
X2299Y3212D01*
X1632Y3597D01*
X1508Y3639D01*
X1390Y3697D01*
X645Y3897D01*
X514Y3905D01*
X385Y3931D01*
X-385D01*
X-514Y3905D01*
X-645Y3897D01*
X-1390Y3697D01*
X-1507Y3639D01*
X-1632Y3597D01*
X-2299Y3212D01*
X-2398Y3125D01*
X-2507Y3052D01*
X-3052Y2507D01*
X-3125Y2398D01*
X-3212Y2299D01*
X-3597Y1632D01*
X-3639Y1508D01*
X-3697Y1390D01*
X-3897Y645D01*
X-3903Y546D01*
X-3929Y451D01*
X-3954Y66D01*
X-3950Y33D01*
X-3956Y0D01*
Y-1936D01*
X-34688D01*
X-34878Y-1478D01*
X-34933Y-1396D01*
X-34971Y-1304D01*
X-35314Y-791D01*
X-35384Y-721D01*
X-35438Y-639D01*
X-35875Y-202D01*
X-35957Y-147D01*
X-36027Y-77D01*
X-36540Y266D01*
X-36632Y303D01*
X-36714Y358D01*
X-37284Y595D01*
X-37381Y614D01*
X-37473Y652D01*
X-38078Y772D01*
X-38153D01*
X-38225Y790D01*
X-38533Y805D01*
X-38558Y802D01*
X-38583Y807D01*
X-42894D01*
Y62992D01*
X-28721D01*
Y62598D01*
X-28115D01*
Y62067D01*
X-28366D01*
Y59429D01*
X-25532D01*
Y59429D01*
X-25032Y59480D01*
X-24986Y59450D01*
X-24449Y59343D01*
X-23911Y59450D01*
X-23866Y59480D01*
X-23366Y59429D01*
Y59429D01*
X-20531D01*
Y62067D01*
X-23366D01*
Y62067D01*
X-23866Y62016D01*
X-23911Y62046D01*
X-24449Y62153D01*
X-24986Y62046D01*
X-25032Y62016D01*
X-25532Y62067D01*
X-25552Y62098D01*
X-25277Y62598D01*
X-25177D01*
Y62992D01*
X-23720D01*
Y62598D01*
X-20177D01*
Y62992D01*
X-18721D01*
Y62598D01*
X-18115D01*
Y62067D01*
X-18366D01*
Y59429D01*
X-15531D01*
Y59429D01*
X-15032Y59480D01*
X-14987Y59450D01*
X-14449Y59343D01*
X-13911Y59450D01*
X-13866Y59480D01*
X-13366Y59429D01*
Y59429D01*
X-10531D01*
Y62067D01*
X-13366D01*
Y62067D01*
X-13866Y62016D01*
X-13911Y62046D01*
X-14449Y62153D01*
X-14987Y62046D01*
X-15032Y62016D01*
X-15531Y62067D01*
X-15552Y62098D01*
X-15277Y62598D01*
X-15177D01*
Y62992D01*
X-13721D01*
Y62598D01*
X-10177D01*
Y62992D01*
X-8721D01*
Y62598D01*
X-8115D01*
Y62067D01*
X-8366D01*
Y59429D01*
X-5531D01*
Y59429D01*
X-5032Y59480D01*
X-4986Y59450D01*
X-4449Y59343D01*
X-3911Y59450D01*
X-3866Y59480D01*
X-3366Y59429D01*
Y59429D01*
X-532D01*
Y62067D01*
X-3366D01*
Y62067D01*
X-3866Y62016D01*
X-3911Y62046D01*
X-4449Y62153D01*
X-4986Y62046D01*
X-5032Y62016D01*
X-5531Y62067D01*
X-5551Y62098D01*
X-5277Y62598D01*
X-5177D01*
Y62992D01*
X-3720D01*
Y62598D01*
X-177D01*
Y62992D01*
X1280D01*
Y62598D01*
X1885D01*
Y62067D01*
X1634D01*
Y59429D01*
X4468D01*
Y59429D01*
X4969Y59480D01*
X5014Y59450D01*
X5551Y59343D01*
X6089Y59450D01*
X6134Y59480D01*
X6634Y59429D01*
Y59429D01*
X9469D01*
Y62067D01*
X6634D01*
Y62067D01*
X6134Y62016D01*
X6089Y62046D01*
X5551Y62153D01*
X5014Y62046D01*
X4969Y62016D01*
X4468Y62067D01*
X4448Y62098D01*
X4723Y62598D01*
X4823D01*
Y62992D01*
X6279D01*
Y62598D01*
X9823D01*
Y62992D01*
X20492D01*
Y62598D01*
X21098D01*
Y62067D01*
X20846D01*
Y59429D01*
X23681D01*
Y59429D01*
X24181Y59480D01*
X24226Y59450D01*
X24764Y59343D01*
X25301Y59450D01*
X25346Y59480D01*
X25846Y59429D01*
Y59429D01*
X28681D01*
Y62067D01*
X25846D01*
Y62067D01*
X25346Y62016D01*
X25301Y62046D01*
X24764Y62153D01*
X24226Y62046D01*
X24181Y62016D01*
X23681Y62067D01*
X23661Y62098D01*
X23936Y62598D01*
X24035D01*
Y62992D01*
X25492D01*
Y62598D01*
X29035D01*
Y62992D01*
X30492D01*
Y62598D01*
X31098D01*
Y62067D01*
X30847D01*
Y59429D01*
X33681D01*
Y59429D01*
X34181Y59480D01*
X34226Y59450D01*
X34764Y59343D01*
X35301Y59450D01*
X35346Y59480D01*
X35846Y59429D01*
Y59429D01*
X38681D01*
Y62067D01*
X35846D01*
Y62067D01*
X35346Y62016D01*
X35301Y62046D01*
X34764Y62153D01*
X34226Y62046D01*
X34181Y62016D01*
X33681Y62067D01*
X33661Y62098D01*
X33936Y62598D01*
X34035D01*
Y62992D01*
X35492D01*
Y62598D01*
X39035D01*
Y62992D01*
X40492D01*
Y62598D01*
X41098D01*
Y62067D01*
X40846D01*
Y59429D01*
X43681D01*
Y59429D01*
X44181Y59480D01*
X44226Y59450D01*
X44764Y59343D01*
X45301Y59450D01*
X45347Y59480D01*
X45847Y59429D01*
Y59429D01*
X48681D01*
Y62067D01*
X45847D01*
Y62067D01*
X45347Y62016D01*
X45301Y62046D01*
X44764Y62153D01*
X44226Y62046D01*
X44181Y62016D01*
X43681Y62067D01*
X43661Y62098D01*
X43936Y62598D01*
X44035D01*
Y62992D01*
X45492D01*
Y62598D01*
X49035D01*
Y62992D01*
X50492D01*
Y62598D01*
X51098D01*
Y62067D01*
X50846D01*
Y59429D01*
X53681D01*
Y59429D01*
X54181Y59480D01*
X54226Y59450D01*
X54764Y59343D01*
X55301Y59450D01*
X55347Y59480D01*
X55847Y59429D01*
Y59429D01*
X58681D01*
Y62067D01*
X55847D01*
Y62067D01*
X55347Y62016D01*
X55301Y62046D01*
X54764Y62153D01*
X54226Y62046D01*
X54181Y62016D01*
X53681Y62067D01*
X53661Y62098D01*
X53936Y62598D01*
X54035D01*
Y62992D01*
X55492D01*
Y62598D01*
X59035D01*
Y62992D01*
X73209D01*
Y807D01*
D02*
G37*
G36*
X73209Y187205D02*
X51968D01*
Y165551D01*
X73209D01*
X73209Y86614D01*
X-42894D01*
X-42894Y165551D01*
X-21654D01*
Y187205D01*
X-42894D01*
Y234233D01*
X73209D01*
Y187205D01*
D02*
G37*
%LPC*%
G36*
X58681Y58681D02*
X57657D01*
Y57756D01*
X58681D01*
Y58681D01*
D02*
G37*
G36*
X48681D02*
X47657D01*
Y57756D01*
X48681D01*
Y58681D01*
D02*
G37*
G36*
X38681D02*
X37657D01*
Y57756D01*
X38681D01*
Y58681D01*
D02*
G37*
G36*
X28681D02*
X27657D01*
Y57756D01*
X28681D01*
Y58681D01*
D02*
G37*
G36*
X9469D02*
X8445D01*
Y57756D01*
X9469D01*
Y58681D01*
D02*
G37*
G36*
X-532D02*
X-1555D01*
Y57756D01*
X-532D01*
Y58681D01*
D02*
G37*
G36*
X-10531D02*
X-11555D01*
Y57756D01*
X-10531D01*
Y58681D01*
D02*
G37*
G36*
X-20531D02*
X-21555D01*
Y57756D01*
X-20531D01*
Y58681D01*
D02*
G37*
G36*
X56870D02*
X55847D01*
Y57756D01*
X56870D01*
Y58681D01*
D02*
G37*
G36*
X46870D02*
X45847D01*
Y57756D01*
X46870D01*
Y58681D01*
D02*
G37*
G36*
X36870D02*
X35846D01*
Y57756D01*
X36870D01*
Y58681D01*
D02*
G37*
G36*
X26870D02*
X25846D01*
Y57756D01*
X26870D01*
Y58681D01*
D02*
G37*
G36*
X-2342D02*
X-3366D01*
Y57756D01*
X-2342D01*
Y58681D01*
D02*
G37*
G36*
X-12342D02*
X-13366D01*
Y57756D01*
X-12342D01*
Y58681D01*
D02*
G37*
G36*
X-22343D02*
X-23366D01*
Y57756D01*
X-22343D01*
Y58681D01*
D02*
G37*
G36*
X7658D02*
X6634D01*
Y57756D01*
X7658D01*
Y58681D01*
D02*
G37*
G36*
X4468D02*
X3445D01*
Y57756D01*
X4468D01*
Y58681D01*
D02*
G37*
G36*
X-5531D02*
X-6555D01*
Y57756D01*
X-5531D01*
Y58681D01*
D02*
G37*
G36*
X-15531D02*
X-16555D01*
Y57756D01*
X-15531D01*
Y58681D01*
D02*
G37*
G36*
X-25532D02*
X-26555D01*
Y57756D01*
X-25532D01*
Y58681D01*
D02*
G37*
G36*
X-7343D02*
X-8366D01*
Y57756D01*
X-7343D01*
Y58681D01*
D02*
G37*
G36*
X-17343D02*
X-18366D01*
Y57756D01*
X-17343D01*
Y58681D01*
D02*
G37*
G36*
X-27343D02*
X-28366D01*
Y57756D01*
X-27343D01*
Y58681D01*
D02*
G37*
G36*
X2657D02*
X1634D01*
Y57756D01*
X2657D01*
Y58681D01*
D02*
G37*
G36*
X53681D02*
X52658D01*
Y57756D01*
X53681D01*
Y58681D01*
D02*
G37*
G36*
X43681D02*
X42658D01*
Y57756D01*
X43681D01*
Y58681D01*
D02*
G37*
G36*
X33681D02*
X32658D01*
Y57756D01*
X33681D01*
Y58681D01*
D02*
G37*
G36*
X23681D02*
X22658D01*
Y57756D01*
X23681D01*
Y58681D01*
D02*
G37*
G36*
X21870D02*
X20846D01*
Y57756D01*
X21870D01*
Y58681D01*
D02*
G37*
G36*
X51870D02*
X50846D01*
Y57756D01*
X51870D01*
Y58681D01*
D02*
G37*
G36*
X41870D02*
X40846D01*
Y57756D01*
X41870D01*
Y58681D01*
D02*
G37*
G36*
X31870D02*
X30847D01*
Y57756D01*
X31870D01*
Y58681D01*
D02*
G37*
G36*
X58681Y56968D02*
X57657D01*
Y56043D01*
X58681D01*
Y56968D01*
D02*
G37*
G36*
X56870D02*
X55847D01*
Y56043D01*
X56870D01*
Y56968D01*
D02*
G37*
G36*
X53681Y56968D02*
X52658D01*
Y56043D01*
X53681D01*
Y56968D01*
D02*
G37*
G36*
X51870D02*
X50846D01*
Y56043D01*
X51870D01*
Y56968D01*
D02*
G37*
G36*
X48681Y56968D02*
X47657D01*
Y56043D01*
X48681D01*
Y56968D01*
D02*
G37*
G36*
X46870D02*
X45847D01*
Y56043D01*
X46870D01*
Y56968D01*
D02*
G37*
G36*
X43681Y56968D02*
X42658D01*
Y56043D01*
X43681D01*
Y56968D01*
D02*
G37*
G36*
X41870D02*
X40846D01*
Y56043D01*
X41870D01*
Y56968D01*
D02*
G37*
G36*
X38681Y56968D02*
X37657D01*
Y56043D01*
X38681D01*
Y56968D01*
D02*
G37*
G36*
X36870D02*
X35846D01*
Y56043D01*
X36870D01*
Y56968D01*
D02*
G37*
G36*
X33681Y56968D02*
X32658D01*
Y56043D01*
X33681D01*
Y56968D01*
D02*
G37*
G36*
X31870D02*
X30847D01*
Y56043D01*
X31870D01*
Y56968D01*
D02*
G37*
G36*
X28681Y56968D02*
X27657D01*
Y56043D01*
X28681D01*
Y56968D01*
D02*
G37*
G36*
X26870D02*
X25846D01*
Y56043D01*
X26870D01*
Y56968D01*
D02*
G37*
G36*
X23681Y56968D02*
X22658D01*
Y56043D01*
X23681D01*
Y56968D01*
D02*
G37*
G36*
X21870D02*
X20846D01*
Y56043D01*
X21870D01*
Y56968D01*
D02*
G37*
G36*
X9469Y56968D02*
X8445D01*
Y56043D01*
X9469D01*
Y56968D01*
D02*
G37*
G36*
X7658D02*
X6634D01*
Y56043D01*
X7658D01*
Y56968D01*
D02*
G37*
G36*
X4468Y56968D02*
X3445D01*
Y56043D01*
X4468D01*
Y56968D01*
D02*
G37*
G36*
X2657D02*
X1634D01*
Y56043D01*
X2657D01*
Y56968D01*
D02*
G37*
G36*
X-532Y56968D02*
X-1555D01*
Y56043D01*
X-532D01*
Y56968D01*
D02*
G37*
G36*
X-2342D02*
X-3366D01*
Y56043D01*
X-2342D01*
Y56968D01*
D02*
G37*
G36*
X-5531Y56968D02*
X-6555D01*
Y56043D01*
X-5531D01*
Y56968D01*
D02*
G37*
G36*
X-7343D02*
X-8366D01*
Y56043D01*
X-7343D01*
Y56968D01*
D02*
G37*
G36*
X-10531Y56968D02*
X-11555D01*
Y56043D01*
X-10531D01*
Y56968D01*
D02*
G37*
G36*
X-12342D02*
X-13366D01*
Y56043D01*
X-12342D01*
Y56968D01*
D02*
G37*
G36*
X-15531Y56968D02*
X-16555D01*
Y56043D01*
X-15531D01*
Y56968D01*
D02*
G37*
G36*
X-17343D02*
X-18366D01*
Y56043D01*
X-17343D01*
Y56968D01*
D02*
G37*
G36*
X-20531Y56968D02*
X-21555D01*
Y56043D01*
X-20531D01*
Y56968D01*
D02*
G37*
G36*
X-22343D02*
X-23366D01*
Y56043D01*
X-22343D01*
Y56968D01*
D02*
G37*
G36*
X-25532Y56968D02*
X-26555D01*
Y56043D01*
X-25532D01*
Y56968D01*
D02*
G37*
G36*
X-27343D02*
X-28366D01*
Y56043D01*
X-27343D01*
Y56968D01*
D02*
G37*
G36*
X42717Y6708D02*
X42409Y6647D01*
X42149Y6473D01*
X41975Y6213D01*
X41914Y5906D01*
X41975Y5598D01*
X42149Y5338D01*
X42409Y5164D01*
X42717Y5103D01*
X43024Y5164D01*
X43284Y5338D01*
X43458Y5598D01*
X43519Y5906D01*
X43458Y6213D01*
X43284Y6473D01*
X43024Y6647D01*
X42717Y6708D01*
D02*
G37*
G36*
X36417D02*
X36110Y6647D01*
X35850Y6473D01*
X35676Y6213D01*
X35614Y5906D01*
X35676Y5598D01*
X35850Y5338D01*
X36110Y5164D01*
X36417Y5103D01*
X36724Y5164D01*
X36985Y5338D01*
X37159Y5598D01*
X37220Y5906D01*
X37159Y6213D01*
X36985Y6473D01*
X36724Y6647D01*
X36417Y6708D01*
D02*
G37*
G36*
X30118D02*
X29811Y6647D01*
X29550Y6473D01*
X29376Y6213D01*
X29315Y5906D01*
X29376Y5598D01*
X29550Y5338D01*
X29811Y5164D01*
X30118Y5103D01*
X30425Y5164D01*
X30686Y5338D01*
X30860Y5598D01*
X30921Y5906D01*
X30860Y6213D01*
X30686Y6473D01*
X30425Y6647D01*
X30118Y6708D01*
D02*
G37*
G36*
X23819D02*
X23512Y6647D01*
X23251Y6473D01*
X23077Y6213D01*
X23016Y5906D01*
X23077Y5598D01*
X23251Y5338D01*
X23512Y5164D01*
X23819Y5103D01*
X24126Y5164D01*
X24387Y5338D01*
X24561Y5598D01*
X24622Y5906D01*
X24561Y6213D01*
X24387Y6473D01*
X24126Y6647D01*
X23819Y6708D01*
D02*
G37*
G36*
X39567Y4740D02*
X39260Y4679D01*
X38999Y4505D01*
X38825Y4244D01*
X38764Y3937D01*
X38825Y3630D01*
X38999Y3369D01*
X39260Y3195D01*
X39567Y3134D01*
X39874Y3195D01*
X40135Y3369D01*
X40309Y3630D01*
X40370Y3937D01*
X40309Y4244D01*
X40135Y4505D01*
X39874Y4679D01*
X39567Y4740D01*
D02*
G37*
G36*
X33268D02*
X32961Y4679D01*
X32700Y4505D01*
X32526Y4244D01*
X32465Y3937D01*
X32526Y3630D01*
X32700Y3369D01*
X32961Y3195D01*
X33268Y3134D01*
X33575Y3195D01*
X33835Y3369D01*
X34009Y3630D01*
X34071Y3937D01*
X34009Y4244D01*
X33835Y4505D01*
X33575Y4679D01*
X33268Y4740D01*
D02*
G37*
G36*
X26969D02*
X26661Y4679D01*
X26401Y4505D01*
X26227Y4244D01*
X26166Y3937D01*
X26227Y3630D01*
X26401Y3369D01*
X26661Y3195D01*
X26969Y3134D01*
X27276Y3195D01*
X27536Y3369D01*
X27710Y3630D01*
X27771Y3937D01*
X27710Y4244D01*
X27536Y4505D01*
X27276Y4679D01*
X26969Y4740D01*
D02*
G37*
G36*
X20669D02*
X20362Y4679D01*
X20102Y4505D01*
X19928Y4244D01*
X19866Y3937D01*
X19928Y3630D01*
X20102Y3369D01*
X20362Y3195D01*
X20669Y3134D01*
X20977Y3195D01*
X21237Y3369D01*
X21411Y3630D01*
X21472Y3937D01*
X21411Y4244D01*
X21237Y4505D01*
X20977Y4679D01*
X20669Y4740D01*
D02*
G37*
G36*
X-20276D02*
X-20583Y4679D01*
X-20843Y4505D01*
X-21017Y4244D01*
X-21078Y3937D01*
X-21017Y3630D01*
X-20843Y3369D01*
X-20583Y3195D01*
X-20276Y3134D01*
X-19968Y3195D01*
X-19708Y3369D01*
X-19534Y3630D01*
X-19473Y3937D01*
X-19534Y4244D01*
X-19708Y4505D01*
X-19968Y4679D01*
X-20276Y4740D01*
D02*
G37*
G36*
X-28740Y203813D02*
Y201181D01*
X-26108D01*
X-26161Y201584D01*
X-26469Y202326D01*
X-26958Y202963D01*
X-27595Y203453D01*
X-28337Y203760D01*
X-28740Y203813D01*
D02*
G37*
G36*
X62500Y203839D02*
X59842D01*
Y201181D01*
X62500D01*
Y203839D01*
D02*
G37*
G36*
X-29528Y203813D02*
X-29930Y203760D01*
X-30673Y203453D01*
X-31310Y202963D01*
X-31799Y202326D01*
X-32107Y201584D01*
X-32160Y201181D01*
X-29528D01*
Y203813D01*
D02*
G37*
G36*
X59055Y203839D02*
X56398D01*
Y201181D01*
X59055D01*
Y203839D01*
D02*
G37*
G36*
X-29528Y200394D02*
X-32160D01*
X-32107Y199991D01*
X-31799Y199249D01*
X-31310Y198611D01*
X-30673Y198122D01*
X-29930Y197815D01*
X-29528Y197762D01*
Y200394D01*
D02*
G37*
G36*
X-26108D02*
X-28740D01*
Y197762D01*
X-28337Y197815D01*
X-27595Y198122D01*
X-26958Y198611D01*
X-26469Y199249D01*
X-26161Y199991D01*
X-26108Y200394D01*
D02*
G37*
G36*
X62500D02*
X59842D01*
Y197736D01*
X62500D01*
Y200394D01*
D02*
G37*
G36*
X59055D02*
X56398D01*
Y197736D01*
X59055D01*
Y200394D01*
D02*
G37*
G36*
X54528Y207119D02*
X-24213D01*
X-24514Y206994D01*
X-24639Y206693D01*
Y194882D01*
X-24514Y194581D01*
X-24213Y194456D01*
X54528D01*
X54829Y194581D01*
X54954Y194882D01*
Y206693D01*
X54829Y206994D01*
X54528Y207119D01*
D02*
G37*
G36*
X49606Y165153D02*
X48302Y165024D01*
X47047Y164644D01*
X45891Y164026D01*
X45034Y163322D01*
X44685Y163240D01*
X44336Y163322D01*
X43479Y164026D01*
X42323Y164644D01*
X41069Y165024D01*
X39764Y165153D01*
X38459Y165024D01*
X37205Y164644D01*
X36048Y164026D01*
X35192Y163322D01*
X34843Y163240D01*
X34493Y163322D01*
X33637Y164026D01*
X32480Y164644D01*
X31226Y165024D01*
X29921Y165153D01*
X28617Y165024D01*
X27362Y164644D01*
X26206Y164026D01*
X25349Y163322D01*
X25000Y163240D01*
X24651Y163322D01*
X23794Y164026D01*
X22638Y164644D01*
X21383Y165024D01*
X20079Y165153D01*
X18774Y165024D01*
X17519Y164644D01*
X16363Y164026D01*
X15507Y163322D01*
X15157Y163240D01*
X14808Y163322D01*
X13952Y164026D01*
X12796Y164644D01*
X11541Y165024D01*
X10236Y165153D01*
X8931Y165024D01*
X7677Y164644D01*
X6521Y164026D01*
X5664Y163322D01*
X5315Y163240D01*
X4966Y163322D01*
X4109Y164026D01*
X2953Y164644D01*
X1698Y165024D01*
X394Y165153D01*
X-911Y165024D01*
X-2166Y164644D01*
X-3322Y164026D01*
X-4179Y163322D01*
X-4528Y163240D01*
X-4877Y163322D01*
X-5733Y164026D01*
X-6889Y164644D01*
X-8144Y165024D01*
X-9449Y165153D01*
X-10753Y165024D01*
X-12008Y164644D01*
X-13164Y164026D01*
X-14021Y163322D01*
X-14370Y163240D01*
X-14719Y163322D01*
X-15576Y164026D01*
X-16732Y164644D01*
X-17987Y165024D01*
X-19291Y165153D01*
X-20596Y165024D01*
X-21851Y164644D01*
X-23007Y164026D01*
X-24020Y163194D01*
X-24852Y162180D01*
X-25470Y161024D01*
X-25850Y159770D01*
X-25979Y158465D01*
Y153347D01*
X-25850Y152042D01*
X-25470Y150787D01*
X-24852Y149631D01*
X-24020Y148618D01*
X-23007Y147786D01*
X-22441Y147484D01*
Y144153D01*
X-20458D01*
Y141483D01*
X-20589Y141286D01*
X-20696Y140748D01*
X-20589Y140210D01*
X-20458Y140013D01*
Y137008D01*
X-20866D01*
Y134252D01*
X-17717D01*
Y137008D01*
X-18125D01*
Y140013D01*
X-17993Y140210D01*
X-17886Y140748D01*
X-17993Y141286D01*
X-18125Y141483D01*
Y144153D01*
X-16141D01*
Y147484D01*
X-15576Y147786D01*
X-14719Y148489D01*
X-14370Y148572D01*
X-14021Y148489D01*
X-13164Y147786D01*
X-12598Y147484D01*
Y144153D01*
X-10615D01*
Y141483D01*
X-10747Y141286D01*
X-10854Y140748D01*
X-10747Y140210D01*
X-10615Y140013D01*
Y137008D01*
X-11024D01*
Y134252D01*
X-7874D01*
Y137008D01*
X-8283D01*
Y140013D01*
X-8151Y140210D01*
X-8044Y140748D01*
X-8151Y141286D01*
X-8283Y141483D01*
Y144153D01*
X-6299D01*
Y147484D01*
X-5733Y147786D01*
X-4877Y148489D01*
X-4528Y148572D01*
X-4179Y148489D01*
X-3322Y147786D01*
X-2756Y147484D01*
Y144153D01*
X-772D01*
Y141483D01*
X-904Y141286D01*
X-1011Y140748D01*
X-904Y140210D01*
X-772Y140013D01*
Y137008D01*
X-1181D01*
Y134252D01*
X1969D01*
Y137008D01*
X1560D01*
Y140013D01*
X1692Y140210D01*
X1799Y140748D01*
X1692Y141286D01*
X1560Y141483D01*
Y144153D01*
X3544D01*
Y147484D01*
X4109Y147786D01*
X4966Y148489D01*
X5315Y148572D01*
X5664Y148489D01*
X6521Y147786D01*
X7087Y147484D01*
Y144153D01*
X9070D01*
Y141483D01*
X8938Y141286D01*
X8831Y140748D01*
X8938Y140210D01*
X9070Y140013D01*
Y137008D01*
X8661D01*
Y134252D01*
X11811D01*
Y137008D01*
X11402D01*
Y140013D01*
X11534Y140210D01*
X11641Y140748D01*
X11534Y141286D01*
X11402Y141483D01*
Y144153D01*
X13386D01*
Y147484D01*
X13952Y147786D01*
X14808Y148489D01*
X15157Y148572D01*
X15507Y148489D01*
X16363Y147786D01*
X16929Y147484D01*
Y144153D01*
X18913D01*
Y141483D01*
X18781Y141286D01*
X18674Y140748D01*
X18781Y140210D01*
X18913Y140013D01*
Y137008D01*
X18504D01*
Y134252D01*
X21654D01*
Y137008D01*
X21245D01*
Y140013D01*
X21377Y140210D01*
X21484Y140748D01*
X21377Y141286D01*
X21245Y141483D01*
Y144153D01*
X23229D01*
Y147484D01*
X23794Y147786D01*
X24651Y148489D01*
X25000Y148572D01*
X25349Y148489D01*
X26206Y147786D01*
X26772Y147484D01*
Y144153D01*
X28755D01*
Y141483D01*
X28623Y141286D01*
X28516Y140748D01*
X28623Y140210D01*
X28755Y140013D01*
Y137008D01*
X28346D01*
Y134252D01*
X31496D01*
Y137008D01*
X31087D01*
Y140013D01*
X31219Y140210D01*
X31326Y140748D01*
X31219Y141286D01*
X31087Y141483D01*
Y144153D01*
X33071D01*
Y147484D01*
X33637Y147786D01*
X34493Y148489D01*
X34843Y148572D01*
X35192Y148489D01*
X36048Y147786D01*
X36615Y147484D01*
Y144153D01*
X38598D01*
Y141483D01*
X38466Y141286D01*
X38359Y140748D01*
X38466Y140210D01*
X38598Y140013D01*
Y137008D01*
X38189D01*
Y134252D01*
X41339D01*
Y137008D01*
X40930D01*
Y140013D01*
X41062Y140210D01*
X41169Y140748D01*
X41062Y141286D01*
X40930Y141483D01*
Y144153D01*
X42914D01*
Y147484D01*
X43479Y147786D01*
X44336Y148489D01*
X44685Y148572D01*
X45034Y148489D01*
X45891Y147786D01*
X46457Y147484D01*
Y144153D01*
X48440D01*
Y141483D01*
X48308Y141286D01*
X48201Y140748D01*
X48308Y140210D01*
X48440Y140013D01*
Y137008D01*
X48031D01*
Y134252D01*
X51181D01*
Y137008D01*
X50772D01*
Y140013D01*
X50904Y140210D01*
X51011Y140748D01*
X50904Y141286D01*
X50772Y141483D01*
Y144153D01*
X52756D01*
Y147484D01*
X53322Y147786D01*
X54335Y148618D01*
X55167Y149631D01*
X55785Y150787D01*
X56165Y152042D01*
X56294Y153347D01*
Y158465D01*
X56165Y159770D01*
X55785Y161024D01*
X55167Y162180D01*
X54335Y163194D01*
X53322Y164026D01*
X52166Y164644D01*
X50911Y165024D01*
X49606Y165153D01*
D02*
G37*
G36*
X51181Y133465D02*
X50000D01*
Y132480D01*
X51181D01*
Y133465D01*
D02*
G37*
G36*
X41339D02*
X40157D01*
Y132480D01*
X41339D01*
Y133465D01*
D02*
G37*
G36*
X31496D02*
X30315D01*
Y132480D01*
X31496D01*
Y133465D01*
D02*
G37*
G36*
X21654D02*
X20472D01*
Y132480D01*
X21654D01*
Y133465D01*
D02*
G37*
G36*
X11811D02*
X10630D01*
Y132480D01*
X11811D01*
Y133465D01*
D02*
G37*
G36*
X1969D02*
X787D01*
Y132480D01*
X1969D01*
Y133465D01*
D02*
G37*
G36*
X-7874D02*
X-9055D01*
Y132480D01*
X-7874D01*
Y133465D01*
D02*
G37*
G36*
X-17717D02*
X-18898D01*
Y132480D01*
X-17717D01*
Y133465D01*
D02*
G37*
G36*
X49213D02*
X48031D01*
Y132480D01*
X49213D01*
Y133465D01*
D02*
G37*
G36*
X9843D02*
X8661D01*
Y132480D01*
X9843D01*
Y133465D01*
D02*
G37*
G36*
X39370D02*
X38189D01*
Y132480D01*
X39370D01*
Y133465D01*
D02*
G37*
G36*
X29528D02*
X28346D01*
Y132480D01*
X29528D01*
Y133465D01*
D02*
G37*
G36*
X19685D02*
X18504D01*
Y132480D01*
X19685D01*
Y133465D01*
D02*
G37*
G36*
X-0D02*
X-1181D01*
Y132480D01*
X-0D01*
Y133465D01*
D02*
G37*
G36*
X-9843D02*
X-11024D01*
Y132480D01*
X-9843D01*
Y133465D01*
D02*
G37*
G36*
X-19685D02*
X-20866D01*
Y132480D01*
X-19685D01*
Y133465D01*
D02*
G37*
G36*
X51181Y131693D02*
X50000D01*
Y130709D01*
X51181D01*
Y131693D01*
D02*
G37*
G36*
X49213D02*
X48031D01*
Y130709D01*
X49213D01*
Y131693D01*
D02*
G37*
G36*
X41339D02*
X40157D01*
Y130709D01*
X41339D01*
Y131693D01*
D02*
G37*
G36*
X39370D02*
X38189D01*
Y130709D01*
X39370D01*
Y131693D01*
D02*
G37*
G36*
X31496D02*
X30315D01*
Y130709D01*
X31496D01*
Y131693D01*
D02*
G37*
G36*
X29528D02*
X28346D01*
Y130709D01*
X29528D01*
Y131693D01*
D02*
G37*
G36*
X21654D02*
X20472D01*
Y130709D01*
X21654D01*
Y131693D01*
D02*
G37*
G36*
X19685D02*
X18504D01*
Y130709D01*
X19685D01*
Y131693D01*
D02*
G37*
G36*
X11811D02*
X10630D01*
Y130709D01*
X11811D01*
Y131693D01*
D02*
G37*
G36*
X9843D02*
X8661D01*
Y130709D01*
X9843D01*
Y131693D01*
D02*
G37*
G36*
X1969D02*
X787D01*
Y130709D01*
X1969D01*
Y131693D01*
D02*
G37*
G36*
X-0D02*
X-1181D01*
Y130709D01*
X-0D01*
Y131693D01*
D02*
G37*
G36*
X-7874D02*
X-9055D01*
Y130709D01*
X-7874D01*
Y131693D01*
D02*
G37*
G36*
X-9843D02*
X-11024D01*
Y130709D01*
X-9843D01*
Y131693D01*
D02*
G37*
G36*
X-17717D02*
X-18898D01*
Y130709D01*
X-17717D01*
Y131693D01*
D02*
G37*
G36*
X-19685D02*
X-20866D01*
Y130709D01*
X-19685D01*
Y131693D01*
D02*
G37*
G36*
X54035Y94882D02*
X52658D01*
Y92913D01*
X54035D01*
Y94882D01*
D02*
G37*
G36*
X-5177D02*
X-6555D01*
Y92913D01*
X-5177D01*
Y94882D01*
D02*
G37*
G36*
X44035D02*
X42658D01*
Y92913D01*
X44035D01*
Y94882D01*
D02*
G37*
G36*
X4823D02*
X3445D01*
Y92913D01*
X4823D01*
Y94882D01*
D02*
G37*
G36*
X-15177D02*
X-16555D01*
Y92913D01*
X-15177D01*
Y94882D01*
D02*
G37*
G36*
X24035D02*
X22658D01*
Y92913D01*
X24035D01*
Y94882D01*
D02*
G37*
G36*
X-25177D02*
X-26555D01*
Y92913D01*
X-25177D01*
Y94882D01*
D02*
G37*
G36*
X34035D02*
X32658D01*
Y92913D01*
X34035D01*
Y94882D01*
D02*
G37*
G36*
X-7343D02*
X-8721D01*
Y92913D01*
X-7343D01*
Y94882D01*
D02*
G37*
G36*
X51870D02*
X50492D01*
Y92913D01*
X51870D01*
Y94882D01*
D02*
G37*
G36*
X2657D02*
X1280D01*
Y92913D01*
X2657D01*
Y94882D01*
D02*
G37*
G36*
X41870D02*
X40492D01*
Y92913D01*
X41870D01*
Y94882D01*
D02*
G37*
G36*
X21870D02*
X20492D01*
Y92913D01*
X21870D01*
Y94882D01*
D02*
G37*
G36*
X-17343D02*
X-18721D01*
Y92913D01*
X-17343D01*
Y94882D01*
D02*
G37*
G36*
X31870D02*
X30492D01*
Y92913D01*
X31870D01*
Y94882D01*
D02*
G37*
G36*
X-27343D02*
X-28721D01*
Y92913D01*
X-27343D01*
Y94882D01*
D02*
G37*
G36*
X-26949Y92520D02*
D01*
D01*
D01*
D02*
G37*
G36*
X54035Y92126D02*
X52658D01*
Y90158D01*
X54035D01*
Y92126D01*
D02*
G37*
G36*
X51870D02*
X50492D01*
Y90158D01*
X51870D01*
Y92126D01*
D02*
G37*
G36*
X44035D02*
X42658D01*
Y90158D01*
X44035D01*
Y92126D01*
D02*
G37*
G36*
X41870D02*
X40492D01*
Y90158D01*
X41870D01*
Y92126D01*
D02*
G37*
G36*
X34035D02*
X32658D01*
Y90158D01*
X34035D01*
Y92126D01*
D02*
G37*
G36*
X31870D02*
X30492D01*
Y90158D01*
X31870D01*
Y92126D01*
D02*
G37*
G36*
X24035D02*
X22658D01*
Y90158D01*
X24035D01*
Y92126D01*
D02*
G37*
G36*
X21870D02*
X20492D01*
Y90158D01*
X21870D01*
Y92126D01*
D02*
G37*
G36*
X4823D02*
X3445D01*
Y90158D01*
X4823D01*
Y92126D01*
D02*
G37*
G36*
X2657D02*
X1280D01*
Y90158D01*
X2657D01*
Y92126D01*
D02*
G37*
G36*
X-5177D02*
X-6555D01*
Y90158D01*
X-5177D01*
Y92126D01*
D02*
G37*
G36*
X-7343D02*
X-8721D01*
Y90158D01*
X-7343D01*
Y92126D01*
D02*
G37*
G36*
X-15177D02*
X-16555D01*
Y90158D01*
X-15177D01*
Y92126D01*
D02*
G37*
G36*
X-17343D02*
X-18721D01*
Y90158D01*
X-17343D01*
Y92126D01*
D02*
G37*
G36*
X-25177D02*
X-26555D01*
Y90158D01*
X-25177D01*
Y92126D01*
D02*
G37*
G36*
X-27343D02*
X-28721D01*
Y90158D01*
X-27343D01*
Y92126D01*
D02*
G37*
G36*
X57264Y97665D02*
X56726Y97558D01*
X56270Y97253D01*
X55966Y96798D01*
X55859Y96260D01*
X55966Y95722D01*
X56098Y95525D01*
Y94882D01*
X55492D01*
Y90158D01*
X56678D01*
X56818Y90064D01*
X57264Y89976D01*
X57710Y90064D01*
X57849Y90158D01*
X59035D01*
Y94882D01*
X58430D01*
Y95525D01*
X58562Y95722D01*
X58669Y96260D01*
X58562Y96798D01*
X58257Y97253D01*
X57801Y97558D01*
X57264Y97665D01*
D02*
G37*
G36*
X47264D02*
X46726Y97558D01*
X46270Y97253D01*
X45966Y96798D01*
X45859Y96260D01*
X45966Y95722D01*
X46098Y95525D01*
Y94882D01*
X45492D01*
Y90158D01*
X46678D01*
X46817Y90064D01*
X47264Y89976D01*
X47710Y90064D01*
X47849Y90158D01*
X49035D01*
Y94882D01*
X48430D01*
Y95525D01*
X48562Y95722D01*
X48669Y96260D01*
X48562Y96798D01*
X48257Y97253D01*
X47801Y97558D01*
X47264Y97665D01*
D02*
G37*
G36*
X37264D02*
X36726Y97558D01*
X36270Y97253D01*
X35966Y96798D01*
X35859Y96260D01*
X35966Y95722D01*
X36098Y95525D01*
Y94882D01*
X35492D01*
Y90158D01*
X36678D01*
X36817Y90064D01*
X37264Y89976D01*
X37710Y90064D01*
X37849Y90158D01*
X39035D01*
Y94882D01*
X38430D01*
Y95525D01*
X38562Y95722D01*
X38669Y96260D01*
X38562Y96798D01*
X38257Y97253D01*
X37801Y97558D01*
X37264Y97665D01*
D02*
G37*
G36*
X27264D02*
X26726Y97558D01*
X26270Y97253D01*
X25966Y96798D01*
X25859Y96260D01*
X25966Y95722D01*
X26098Y95525D01*
Y94882D01*
X25492D01*
Y90158D01*
X26678D01*
X26818Y90064D01*
X27264Y89976D01*
X27710Y90064D01*
X27849Y90158D01*
X29035D01*
Y94882D01*
X28430D01*
Y95525D01*
X28562Y95722D01*
X28669Y96260D01*
X28562Y96798D01*
X28257Y97253D01*
X27801Y97558D01*
X27264Y97665D01*
D02*
G37*
G36*
X8051D02*
X7514Y97558D01*
X7058Y97253D01*
X6753Y96798D01*
X6646Y96260D01*
X6753Y95722D01*
X6885Y95525D01*
Y94882D01*
X6279D01*
Y90158D01*
X7466D01*
X7605Y90064D01*
X8051Y89976D01*
X8497Y90064D01*
X8637Y90158D01*
X9823D01*
Y94882D01*
X9217D01*
Y95525D01*
X9349Y95722D01*
X9456Y96260D01*
X9349Y96798D01*
X9045Y97253D01*
X8589Y97558D01*
X8051Y97665D01*
D02*
G37*
G36*
X-1949D02*
X-2486Y97558D01*
X-2942Y97253D01*
X-3247Y96798D01*
X-3354Y96260D01*
X-3247Y95722D01*
X-3115Y95525D01*
Y94882D01*
X-3720D01*
Y90158D01*
X-2534D01*
X-2395Y90064D01*
X-1949Y89976D01*
X-1503Y90064D01*
X-1363Y90158D01*
X-177D01*
Y94882D01*
X-783D01*
Y95525D01*
X-651Y95722D01*
X-544Y96260D01*
X-651Y96798D01*
X-955Y97253D01*
X-1411Y97558D01*
X-1949Y97665D01*
D02*
G37*
G36*
X-11949D02*
X-12487Y97558D01*
X-12942Y97253D01*
X-13247Y96798D01*
X-13354Y96260D01*
X-13247Y95722D01*
X-13115Y95525D01*
Y94882D01*
X-13721D01*
Y90158D01*
X-12534D01*
X-12395Y90064D01*
X-11949Y89976D01*
X-11503Y90064D01*
X-11363Y90158D01*
X-10177D01*
Y94882D01*
X-10783D01*
Y95525D01*
X-10651Y95722D01*
X-10544Y96260D01*
X-10651Y96798D01*
X-10955Y97253D01*
X-11411Y97558D01*
X-11949Y97665D01*
D02*
G37*
G36*
X-21949D02*
X-22487Y97558D01*
X-22942Y97253D01*
X-23247Y96798D01*
X-23354Y96260D01*
X-23247Y95722D01*
X-23115Y95525D01*
Y94882D01*
X-23720D01*
Y90158D01*
X-22534D01*
X-22395Y90064D01*
X-21949Y89976D01*
X-21503Y90064D01*
X-21363Y90158D01*
X-20177D01*
Y94882D01*
X-20783D01*
Y95525D01*
X-20651Y95722D01*
X-20544Y96260D01*
X-20651Y96798D01*
X-20955Y97253D01*
X-21411Y97558D01*
X-21949Y97665D01*
D02*
G37*
%LPD*%
D13*
X45000Y-6575D02*
Y1784D01*
D14*
X-19291Y132087D02*
D03*
Y135630D02*
D03*
X49606Y132087D02*
D03*
Y135630D02*
D03*
X39764Y132087D02*
D03*
Y135630D02*
D03*
X29921Y132087D02*
D03*
Y135630D02*
D03*
X20079Y132087D02*
D03*
Y135630D02*
D03*
X10236Y132087D02*
D03*
Y135630D02*
D03*
X394Y132087D02*
D03*
Y135630D02*
D03*
X-9449Y132087D02*
D03*
Y135630D02*
D03*
D15*
X22264Y64961D02*
D03*
Y92520D02*
D03*
X57264Y64961D02*
D03*
Y92520D02*
D03*
X52264Y64961D02*
D03*
X27264D02*
D03*
Y92520D02*
D03*
X52264D02*
D03*
X47264D02*
D03*
X42264D02*
D03*
X37264D02*
D03*
X32264D02*
D03*
Y64961D02*
D03*
X37264D02*
D03*
X42264D02*
D03*
X47264D02*
D03*
X-26949D02*
D03*
Y92520D02*
D03*
X8051Y64961D02*
D03*
Y92520D02*
D03*
X3051Y64961D02*
D03*
X-21949D02*
D03*
Y92520D02*
D03*
X3051D02*
D03*
X-1949D02*
D03*
X-6949D02*
D03*
X-11949D02*
D03*
X-16949D02*
D03*
Y64961D02*
D03*
X-11949D02*
D03*
X-6949D02*
D03*
X-1949D02*
D03*
D16*
X49607Y153287D02*
D03*
Y145925D02*
D03*
X39764Y153287D02*
D03*
Y145925D02*
D03*
X29922Y153287D02*
D03*
Y145925D02*
D03*
X20079Y153287D02*
D03*
Y145925D02*
D03*
X10237Y153287D02*
D03*
Y145925D02*
D03*
X394Y153287D02*
D03*
Y145925D02*
D03*
X-9448Y153287D02*
D03*
Y145925D02*
D03*
X-19291Y153287D02*
D03*
Y145925D02*
D03*
D17*
X52264Y57362D02*
D03*
Y60748D02*
D03*
X42264Y57362D02*
D03*
Y60748D02*
D03*
X32264Y57362D02*
D03*
Y60748D02*
D03*
X22264Y57362D02*
D03*
Y60748D02*
D03*
X3051Y57362D02*
D03*
Y60748D02*
D03*
X-6949Y57362D02*
D03*
Y60748D02*
D03*
X-16949Y57362D02*
D03*
Y60748D02*
D03*
X-26949Y57362D02*
D03*
Y60748D02*
D03*
X57264D02*
D03*
Y57362D02*
D03*
X47264Y60748D02*
D03*
Y57362D02*
D03*
X37264Y60748D02*
D03*
Y57362D02*
D03*
X27264Y60748D02*
D03*
Y57362D02*
D03*
X8051Y60748D02*
D03*
Y57362D02*
D03*
X-1949Y60748D02*
D03*
Y57362D02*
D03*
X-11949Y60748D02*
D03*
Y57362D02*
D03*
X-21949Y60748D02*
D03*
Y57362D02*
D03*
D27*
X60039Y-7283D02*
D03*
X56890D02*
D03*
X53740D02*
D03*
X50591D02*
D03*
X47441D02*
D03*
X44291D02*
D03*
X41142D02*
D03*
X37992D02*
D03*
X34843D02*
D03*
X31693D02*
D03*
X28543D02*
D03*
X25394D02*
D03*
X22244D02*
D03*
X19094D02*
D03*
X15945D02*
D03*
X12795D02*
D03*
X9646D02*
D03*
X6496D02*
D03*
X-9252D02*
D03*
X-12402D02*
D03*
X-15551D02*
D03*
X-18701D02*
D03*
X-21850D02*
D03*
X-25000D02*
D03*
X-28150D02*
D03*
X-31299D02*
D03*
D28*
X-21949Y66339D02*
Y71457D01*
X-11949Y66339D02*
Y71457D01*
X-1949Y66339D02*
Y71457D01*
X8051Y66339D02*
Y71457D01*
X27264Y66339D02*
Y71457D01*
X37264Y66339D02*
Y71457D01*
X47264Y66339D02*
Y71457D01*
X57264Y66339D02*
Y71457D01*
X-26949Y60748D02*
Y66339D01*
X-26949Y66339D02*
X-26949Y66339D01*
Y60748D02*
X-24449D01*
X-21949D01*
X-16949Y66339D02*
X-16949Y66339D01*
Y60748D02*
Y66339D01*
Y60748D02*
X-14449D01*
X-11949D01*
X-6949Y66339D02*
X-6949Y66339D01*
Y60748D02*
Y66339D01*
Y60748D02*
X-4449D01*
X-1949D01*
X3051Y66339D02*
X3051Y66339D01*
Y60748D02*
Y66339D01*
Y60748D02*
X5551D01*
X8051D01*
X22264Y66339D02*
X22264Y66339D01*
Y60748D02*
Y66339D01*
Y60748D02*
X24764D01*
X27264D01*
X32264Y66339D02*
X32264Y66339D01*
Y60748D02*
Y66339D01*
Y60748D02*
X34764D01*
X37264D01*
X42264Y66339D02*
X42264Y66339D01*
Y60748D02*
Y66339D01*
Y60748D02*
X44764D01*
X47264D01*
X52264Y66339D02*
X52264Y66339D01*
Y60748D02*
Y66339D01*
Y60748D02*
X54764D01*
X57264D01*
X-19291Y153347D02*
Y158465D01*
X-21949Y91142D02*
Y96260D01*
X-19291Y135630D02*
Y140748D01*
Y145867D01*
X-9449Y153347D02*
Y158465D01*
X-11949Y91142D02*
Y96260D01*
X-9449Y135630D02*
Y140748D01*
Y145867D01*
X394Y153347D02*
Y158465D01*
X-1949Y91142D02*
Y96260D01*
X394Y135630D02*
Y140748D01*
Y145867D01*
X10236Y153347D02*
Y158465D01*
X8051Y91142D02*
Y96260D01*
X10236Y135630D02*
Y140748D01*
Y145867D01*
X20079Y153347D02*
Y158465D01*
Y135630D02*
Y145867D01*
X27264Y91142D02*
Y96260D01*
X29921Y153347D02*
Y158465D01*
Y135630D02*
Y145867D01*
X37264Y91142D02*
Y96260D01*
X39764Y153347D02*
Y158465D01*
Y135630D02*
Y145867D01*
X47264Y91142D02*
Y96260D01*
X49606Y153347D02*
Y158465D01*
Y135630D02*
Y145867D01*
X57264Y91142D02*
Y96260D01*
D29*
X-9252Y-7284D02*
Y1677D01*
X60039Y-7284D02*
Y1677D01*
X50590Y-7284D02*
Y1677D01*
X15945Y-7284D02*
Y1677D01*
X6496Y-7284D02*
Y1677D01*
D30*
X394Y200787D02*
D03*
X10236D02*
D03*
X-29134D02*
D03*
X-9449D02*
D03*
X-19291D02*
D03*
X49606D02*
D03*
X39764D02*
D03*
X29921D02*
D03*
X20079D02*
D03*
D31*
X59449D02*
D03*
D32*
X-32480Y176378D02*
D03*
X62795D02*
D03*
D33*
X-21949Y71457D02*
D03*
X-11949D02*
D03*
X-1949D02*
D03*
X8051D02*
D03*
X27264D02*
D03*
X37264D02*
D03*
X47264D02*
D03*
X57264D02*
D03*
X-24449Y60748D02*
D03*
X-14449D02*
D03*
X-4449D02*
D03*
X5551D02*
D03*
X24764D02*
D03*
X34764D02*
D03*
X44764D02*
D03*
X54764D02*
D03*
X-19291Y158465D02*
D03*
Y140748D02*
D03*
X-21949Y96260D02*
D03*
X-9449Y158465D02*
D03*
Y140748D02*
D03*
X-11949Y96260D02*
D03*
X394Y158465D02*
D03*
Y140748D02*
D03*
X-1949Y96260D02*
D03*
X10236Y158465D02*
D03*
Y140748D02*
D03*
X8051Y96260D02*
D03*
X20079Y158465D02*
D03*
Y140748D02*
D03*
X27264Y96260D02*
D03*
X29921Y158465D02*
D03*
Y140748D02*
D03*
X37264Y96260D02*
D03*
X39764Y158465D02*
D03*
Y140748D02*
D03*
X47264Y96260D02*
D03*
X49606Y158465D02*
D03*
Y140748D02*
D03*
X57264Y96260D02*
D03*
X59894Y3177D02*
D03*
X52020D02*
D03*
X-34594D02*
D03*
Y18925D02*
D03*
Y11051D02*
D03*
Y26799D02*
D03*
Y34673D02*
D03*
Y42547D02*
D03*
Y50421D02*
D03*
Y58295D02*
D03*
X-26720Y3177D02*
D03*
Y18925D02*
D03*
Y26799D02*
D03*
Y34673D02*
D03*
Y42547D02*
D03*
Y50421D02*
D03*
X-18846Y11051D02*
D03*
Y18925D02*
D03*
Y26799D02*
D03*
Y34673D02*
D03*
Y42547D02*
D03*
Y50421D02*
D03*
X-10972Y3177D02*
D03*
Y11051D02*
D03*
Y18925D02*
D03*
Y26799D02*
D03*
Y34673D02*
D03*
Y50421D02*
D03*
X-3098Y11051D02*
D03*
Y18925D02*
D03*
Y26799D02*
D03*
Y34673D02*
D03*
X4776Y3177D02*
D03*
Y11051D02*
D03*
Y18925D02*
D03*
Y26799D02*
D03*
Y34673D02*
D03*
X12650Y3177D02*
D03*
Y11051D02*
D03*
Y18925D02*
D03*
Y26799D02*
D03*
Y34673D02*
D03*
Y50421D02*
D03*
Y58295D02*
D03*
X20524Y50421D02*
D03*
X52020Y11051D02*
D03*
Y18925D02*
D03*
Y26799D02*
D03*
Y34673D02*
D03*
Y42547D02*
D03*
X59894Y11051D02*
D03*
Y18925D02*
D03*
Y26799D02*
D03*
Y34673D02*
D03*
Y42547D02*
D03*
Y50421D02*
D03*
Y58295D02*
D03*
X67768Y3177D02*
D03*
Y11051D02*
D03*
Y18925D02*
D03*
Y26799D02*
D03*
Y34673D02*
D03*
Y42547D02*
D03*
Y50421D02*
D03*
Y58295D02*
D03*
M02*
