G04*
G04 #@! TF.GenerationSoftware,Altium Limited,Altium Designer,22.1.2 (22)*
G04*
G04 Layer_Color=8388736*
%FSLAX25Y25*%
%MOIN*%
G70*
G04*
G04 #@! TF.SameCoordinates,6C204DCC-978F-4A87-A690-EB2E95B516E8*
G04*
G04*
G04 #@! TF.FilePolarity,Positive*
G04*
G01*
G75*
%ADD42C,0.00039*%
%ADD43C,0.00079*%
D42*
X28445Y130905D02*
Y136811D01*
X31398Y130905D02*
Y136811D01*
X28445D02*
X31398D01*
X28445Y130905D02*
X31398D01*
X-10925D02*
Y136811D01*
X-7972Y130905D02*
Y136811D01*
X-10925D02*
X-7972D01*
X-10925Y130905D02*
X-7972D01*
X-1083D02*
Y136811D01*
X1870Y130905D02*
Y136811D01*
X-1083D02*
X1870D01*
X-1083Y130905D02*
X1870D01*
X6299Y39862D02*
Y42815D01*
X394D02*
X6299D01*
X394Y39862D02*
X6299D01*
X394D02*
Y42815D01*
X48130Y130905D02*
Y136811D01*
X51083Y130905D02*
Y136811D01*
X48130D02*
X51083D01*
X48130Y130905D02*
X51083D01*
X36615Y144095D02*
X42914D01*
Y155118D01*
X36615Y144095D02*
Y155118D01*
X42914D01*
X24016Y39862D02*
Y42815D01*
Y39862D02*
X29921D01*
X24016Y42815D02*
X29921D01*
Y39862D02*
Y42815D01*
X30787Y67913D02*
X33740D01*
X30787Y62008D02*
Y67913D01*
X33740Y62008D02*
Y67913D01*
X30787Y62008D02*
X33740D01*
X20787Y67913D02*
X23740D01*
X20787Y62008D02*
Y67913D01*
X23740Y62008D02*
Y67913D01*
X20787Y62008D02*
X23740D01*
X18110Y68898D02*
X61417D01*
X18110Y100394D02*
X61417D01*
X18110Y68898D02*
Y100394D01*
X61417Y68898D02*
Y100394D01*
X394Y47736D02*
Y50689D01*
Y47736D02*
X6299D01*
X394Y50689D02*
X6299D01*
Y47736D02*
Y50689D01*
X7087Y144095D02*
X13386D01*
Y155118D01*
X7087Y144095D02*
Y155118D01*
X13386D01*
X16929Y144095D02*
X23229D01*
Y155118D01*
X16929Y144095D02*
Y155118D01*
X23229D01*
X46457Y144095D02*
X52756D01*
Y155118D01*
X46457Y144095D02*
Y155118D01*
X52756D01*
X-8425Y67913D02*
X-5472D01*
X-8425Y62008D02*
Y67913D01*
X-5472Y62008D02*
Y67913D01*
X-8425Y62008D02*
X-5472D01*
X-18425Y67913D02*
X-15472D01*
X-18425Y62008D02*
Y67913D01*
X-15472Y62008D02*
Y67913D01*
X-18425Y62008D02*
X-15472D01*
X-22441Y144095D02*
X-16141D01*
Y155118D01*
X-22441Y144095D02*
Y155118D01*
X-16141D01*
X-20768Y130905D02*
Y136811D01*
X-17815Y130905D02*
Y136811D01*
X-20768D02*
X-17815D01*
X-20768Y130905D02*
X-17815D01*
X-12598Y144095D02*
X-6299D01*
Y155118D01*
X-12598Y144095D02*
Y155118D01*
X-6299D01*
X-36024Y238189D02*
X66339D01*
X-36024Y188976D02*
X66339D01*
X-36024D02*
Y238189D01*
X66339Y188976D02*
Y238189D01*
X11220Y39370D02*
Y51181D01*
X19094Y39370D02*
Y51181D01*
X11220Y39370D02*
X19094D01*
X11220Y51181D02*
X19094D01*
X-31102Y68898D02*
X12205D01*
X-31102Y100394D02*
X12205D01*
X-31102Y68898D02*
Y100394D01*
X12205Y68898D02*
Y100394D01*
X8760Y130905D02*
Y136811D01*
X11713Y130905D02*
Y136811D01*
X8760D02*
X11713D01*
X8760Y130905D02*
X11713D01*
X38287D02*
Y136811D01*
X41240Y130905D02*
Y136811D01*
X38287D02*
X41240D01*
X38287Y130905D02*
X41240D01*
X26772Y144095D02*
X33071D01*
Y155118D01*
X26772Y144095D02*
Y155118D01*
X33071D01*
X6299Y51673D02*
Y54626D01*
X394D02*
X6299D01*
X394Y51673D02*
X6299D01*
X394D02*
Y54626D01*
X1575Y67913D02*
X4528D01*
X1575Y62008D02*
Y67913D01*
X4528Y62008D02*
Y67913D01*
X1575Y62008D02*
X4528D01*
X-2756Y144095D02*
X3544D01*
Y155118D01*
X-2756Y144095D02*
Y155118D01*
X3544D01*
X50787Y67913D02*
X53740D01*
X50787Y62008D02*
Y67913D01*
X53740Y62008D02*
Y67913D01*
X50787Y62008D02*
X53740D01*
X40787Y67913D02*
X43740D01*
X40787Y62008D02*
Y67913D01*
X43740Y62008D02*
Y67913D01*
X40787Y62008D02*
X43740D01*
X-28425Y67913D02*
X-25472D01*
X-28425Y62008D02*
Y67913D01*
X-25472Y62008D02*
Y67913D01*
X-28425Y62008D02*
X-25472D01*
X18602Y130905D02*
Y136811D01*
X21555Y130905D02*
Y136811D01*
X18602D02*
X21555D01*
X18602Y130905D02*
X21555D01*
D43*
X394Y43799D02*
Y46752D01*
X6299Y43799D02*
Y46752D01*
X394D02*
X6299D01*
X394Y43799D02*
X6299D01*
X-23425Y62008D02*
X-20472D01*
X-23425Y67913D02*
X-20472D01*
X-23425Y62008D02*
Y67913D01*
X-20472Y62008D02*
Y67913D01*
X6575Y62008D02*
X9528D01*
X6575Y67913D02*
X9528D01*
X6575Y62008D02*
Y67913D01*
X9528Y62008D02*
Y67913D01*
X29921Y43799D02*
Y46752D01*
X24016Y43799D02*
Y46752D01*
Y43799D02*
X29921D01*
X24016Y46752D02*
X29921D01*
X-3425Y62008D02*
X-472D01*
X-3425Y67913D02*
X-472D01*
X-3425Y62008D02*
Y67913D01*
X-472Y62008D02*
Y67913D01*
X45787Y62008D02*
X48740D01*
X45787Y67913D02*
X48740D01*
X45787Y62008D02*
Y67913D01*
X48740Y62008D02*
Y67913D01*
X35787Y62008D02*
X38740D01*
X35787Y67913D02*
X38740D01*
X35787Y62008D02*
Y67913D01*
X38740Y62008D02*
Y67913D01*
X12205Y33957D02*
Y36909D01*
X18110Y33957D02*
Y36909D01*
X12205D02*
X18110D01*
X12205Y33957D02*
X18110D01*
X-13425Y62008D02*
X-10472D01*
X-13425Y67913D02*
X-10472D01*
X-13425Y62008D02*
Y67913D01*
X-10472Y62008D02*
Y67913D01*
X25787Y62008D02*
X28740D01*
X25787Y67913D02*
X28740D01*
X25787Y62008D02*
Y67913D01*
X28740Y62008D02*
Y67913D01*
X55787Y62008D02*
X58740D01*
X55787Y67913D02*
X58740D01*
X55787Y62008D02*
Y67913D01*
X58740Y62008D02*
Y67913D01*
M02*
