G04*
G04 #@! TF.GenerationSoftware,Altium Limited,Altium Designer,22.1.2 (22)*
G04*
G04 Layer_Color=255*
%FSLAX25Y25*%
%MOIN*%
G70*
G04*
G04 #@! TF.SameCoordinates,0E3957D1-4792-4D0B-97BD-F84BD75C4E9A*
G04*
G04*
G04 #@! TF.FilePolarity,Positive*
G04*
G01*
G75*
%ADD14R,0.02362X0.01968*%
%ADD15R,0.02756X0.03937*%
%ADD16R,0.05512X0.02756*%
%ADD17R,0.02047X0.01850*%
%ADD27R,0.02362X0.09055*%
%ADD30C,0.05315*%
%ADD31R,0.05315X0.05315*%
%ADD32R,0.20866X0.20866*%
D14*
X-19291Y132087D02*
D03*
Y135630D02*
D03*
X49606Y132087D02*
D03*
Y135630D02*
D03*
X39764Y132087D02*
D03*
Y135630D02*
D03*
X29921Y132087D02*
D03*
Y135630D02*
D03*
X20079Y132087D02*
D03*
Y135630D02*
D03*
X10236Y132087D02*
D03*
Y135630D02*
D03*
X394Y132087D02*
D03*
Y135630D02*
D03*
X-9449Y132087D02*
D03*
Y135630D02*
D03*
D15*
X22264Y64961D02*
D03*
Y92520D02*
D03*
X57264Y64961D02*
D03*
Y92520D02*
D03*
X52264Y64961D02*
D03*
X27264D02*
D03*
Y92520D02*
D03*
X52264D02*
D03*
X47264D02*
D03*
X42264D02*
D03*
X37264D02*
D03*
X32264D02*
D03*
Y64961D02*
D03*
X37264D02*
D03*
X42264D02*
D03*
X47264D02*
D03*
X-26949D02*
D03*
Y92520D02*
D03*
X8051Y64961D02*
D03*
Y92520D02*
D03*
X3051Y64961D02*
D03*
X-21949D02*
D03*
Y92520D02*
D03*
X3051D02*
D03*
X-1949D02*
D03*
X-6949D02*
D03*
X-11949D02*
D03*
X-16949D02*
D03*
Y64961D02*
D03*
X-11949D02*
D03*
X-6949D02*
D03*
X-1949D02*
D03*
D16*
X49607Y153287D02*
D03*
Y145925D02*
D03*
X39764Y153287D02*
D03*
Y145925D02*
D03*
X29922Y153287D02*
D03*
Y145925D02*
D03*
X20079Y153287D02*
D03*
Y145925D02*
D03*
X10237Y153287D02*
D03*
Y145925D02*
D03*
X394Y153287D02*
D03*
Y145925D02*
D03*
X-9448Y153287D02*
D03*
Y145925D02*
D03*
X-19291Y153287D02*
D03*
Y145925D02*
D03*
D17*
X52264Y57362D02*
D03*
Y60748D02*
D03*
X42264Y57362D02*
D03*
Y60748D02*
D03*
X32264Y57362D02*
D03*
Y60748D02*
D03*
X22264Y57362D02*
D03*
Y60748D02*
D03*
X3051Y57362D02*
D03*
Y60748D02*
D03*
X-6949Y57362D02*
D03*
Y60748D02*
D03*
X-16949Y57362D02*
D03*
Y60748D02*
D03*
X-26949Y57362D02*
D03*
Y60748D02*
D03*
X57264D02*
D03*
Y57362D02*
D03*
X47264Y60748D02*
D03*
Y57362D02*
D03*
X37264Y60748D02*
D03*
Y57362D02*
D03*
X27264Y60748D02*
D03*
Y57362D02*
D03*
X8051Y60748D02*
D03*
Y57362D02*
D03*
X-1949Y60748D02*
D03*
Y57362D02*
D03*
X-11949Y60748D02*
D03*
Y57362D02*
D03*
X-21949Y60748D02*
D03*
Y57362D02*
D03*
D27*
X60039Y-7283D02*
D03*
X56890D02*
D03*
X53740D02*
D03*
X50591D02*
D03*
X47441D02*
D03*
X44291D02*
D03*
X41142D02*
D03*
X37992D02*
D03*
X34843D02*
D03*
X31693D02*
D03*
X28543D02*
D03*
X25394D02*
D03*
X22244D02*
D03*
X19094D02*
D03*
X15945D02*
D03*
X12795D02*
D03*
X9646D02*
D03*
X6496D02*
D03*
X-9252D02*
D03*
X-12402D02*
D03*
X-15551D02*
D03*
X-18701D02*
D03*
X-21850D02*
D03*
X-25000D02*
D03*
X-28150D02*
D03*
X-31299D02*
D03*
D30*
X394Y200787D02*
D03*
X10236D02*
D03*
X-29134D02*
D03*
X-9449D02*
D03*
X-19291D02*
D03*
X49606D02*
D03*
X39764D02*
D03*
X29921D02*
D03*
X20079D02*
D03*
D31*
X59449D02*
D03*
D32*
X-32480Y176378D02*
D03*
X62795D02*
D03*
M02*
