G04*
G04 #@! TF.GenerationSoftware,Altium Limited,Altium Designer,24.7.2 (38)*
G04*
G04 Layer_Color=128*
%FSLAX25Y25*%
%MOIN*%
G70*
G04*
G04 #@! TF.SameCoordinates,4FEF5C06-4E4D-4149-9763-4A6A228635AC*
G04*
G04*
G04 #@! TF.FilePolarity,Positive*
G04*
G01*
G75*
%ADD47C,0.00200*%
D47*
X3032Y222441D02*
X6968D01*
X5000Y220472D02*
Y224409D01*
X-6968Y222441D02*
X-3032D01*
X-5000Y220472D02*
Y224409D01*
X-16969Y222441D02*
X-13032D01*
X-15000Y220472D02*
Y224409D01*
X-26969Y222441D02*
X-23031D01*
X-25000Y220472D02*
Y224409D01*
X-36968Y222441D02*
X-33031D01*
X-35000Y220472D02*
Y224409D01*
X-46968Y222441D02*
X-43031D01*
X-45000Y220472D02*
Y224409D01*
X43031Y222441D02*
X46968D01*
X45000Y220472D02*
Y224409D01*
X33031Y222441D02*
X36968D01*
X35000Y220472D02*
Y224409D01*
X23031Y222441D02*
X26969D01*
X25000Y220472D02*
Y224409D01*
X13032Y222441D02*
X16969D01*
X15000Y220472D02*
Y224409D01*
X42520Y189173D02*
X52756D01*
X47638Y184055D02*
Y194291D01*
X-52756Y189173D02*
X-42520D01*
X-47638Y184055D02*
Y194291D01*
X-31890Y32480D02*
X-31102D01*
X-31496Y32087D02*
Y32874D01*
X31102Y32480D02*
X31890D01*
X31496Y32087D02*
Y32874D01*
X23228Y32480D02*
X24016D01*
X23622Y32087D02*
Y32874D01*
X15354Y32480D02*
X16142D01*
X15748Y32087D02*
Y32874D01*
X7480Y32480D02*
X8268D01*
X7874Y32087D02*
Y32874D01*
X-394Y32480D02*
X394D01*
X0Y32087D02*
Y32874D01*
X-8268Y32480D02*
X-7480D01*
X-7874Y32087D02*
Y32874D01*
X-16142Y32480D02*
X-15354D01*
X-15748Y32087D02*
Y32874D01*
X-24016Y32480D02*
X-23228D01*
X-23622Y32087D02*
Y32874D01*
X44882Y51181D02*
X45669D01*
X45276Y50787D02*
Y51575D01*
X14370Y51181D02*
X15157D01*
X14764Y50787D02*
Y51575D01*
X-15157Y51181D02*
X-14370D01*
X-14764Y50787D02*
Y51575D01*
X-45669Y51181D02*
X-44882D01*
X-45276Y50787D02*
Y51575D01*
X54724Y19685D02*
X55512D01*
X55118Y19291D02*
Y20079D01*
X-55512Y19685D02*
X-54724D01*
X-55118Y19291D02*
Y20079D01*
X-55512Y35433D02*
X-54724D01*
X-55118Y35039D02*
Y35827D01*
X54724Y35433D02*
X55512D01*
X55118Y35039D02*
Y35827D01*
X54724Y51181D02*
X55512D01*
X55118Y50787D02*
Y51575D01*
X35039Y51181D02*
X35827D01*
X35433Y50787D02*
Y51575D01*
X24213Y51181D02*
X25000D01*
X24606Y50787D02*
Y51575D01*
X4528Y51181D02*
X5315D01*
X4921Y50787D02*
Y51575D01*
X-5315Y51181D02*
X-4528D01*
X-4921Y50787D02*
Y51575D01*
X-25000Y51181D02*
X-24213D01*
X-24606Y50787D02*
Y51575D01*
X-55512Y51181D02*
X-54724D01*
X-55118Y50787D02*
Y51575D01*
X-35827Y51181D02*
X-35039D01*
X-35433Y50787D02*
Y51575D01*
X35039Y66929D02*
X35827D01*
X35433Y66535D02*
Y67323D01*
X54724Y66929D02*
X55512D01*
X55118Y66535D02*
Y67323D01*
X4528Y66929D02*
X5315D01*
X4921Y66535D02*
Y67323D01*
X24213Y66929D02*
X25000D01*
X24606Y66535D02*
Y67323D01*
X-25000Y66929D02*
X-24213D01*
X-24606Y66535D02*
Y67323D01*
X-5315Y66929D02*
X-4528D01*
X-4921Y66535D02*
Y67323D01*
X-35827Y66929D02*
X-35039D01*
X-35433Y66535D02*
Y67323D01*
X-55512Y66929D02*
X-54724D01*
X-55118Y66535D02*
Y67323D01*
X-50669Y146653D02*
X-49882D01*
X-50276Y146260D02*
Y147047D01*
X39882Y146653D02*
X40669D01*
X40276Y146260D02*
Y147047D01*
X9370Y146653D02*
X10158D01*
X9764Y146260D02*
Y147047D01*
X-20157Y146653D02*
X-19370D01*
X-19764Y146260D02*
Y147047D01*
X49882Y146653D02*
X50669D01*
X50276Y146260D02*
Y147047D01*
X19370Y146653D02*
X20157D01*
X19764Y146260D02*
Y147047D01*
X-10158Y146653D02*
X-9370D01*
X-9764Y146260D02*
Y147047D01*
X-40669Y146653D02*
X-39882D01*
X-40276Y146260D02*
Y147047D01*
X-8268Y43031D02*
X-7480D01*
X-7874Y42638D02*
Y43425D01*
X51575Y53937D02*
X52362D01*
X51968Y53543D02*
Y54331D01*
X21063Y53937D02*
X21850D01*
X21457Y53543D02*
Y54331D01*
X-8465Y53937D02*
X-7677D01*
X-8071Y53543D02*
Y54331D01*
X-38976Y53937D02*
X-38189D01*
X-38583Y53543D02*
Y54331D01*
X7480Y43031D02*
X8268D01*
X7874Y42638D02*
Y43425D01*
X23228Y43031D02*
X24016D01*
X23622Y42638D02*
Y43425D01*
X-24016Y43031D02*
X-23228D01*
X-23622Y42638D02*
Y43425D01*
X-12205Y29528D02*
X-11417D01*
X-11811Y29134D02*
Y29921D01*
X8268Y12795D02*
X9055D01*
X8661Y12402D02*
Y13189D01*
X17717Y12795D02*
X18504D01*
X18110Y12402D02*
Y13189D01*
X41575Y53937D02*
X42362D01*
X41969Y53543D02*
Y54331D01*
X48189Y53937D02*
X48976D01*
X48583Y53543D02*
Y54331D01*
X17677Y53937D02*
X18465D01*
X18071Y53543D02*
Y54331D01*
X11063Y53937D02*
X11850D01*
X11457Y53543D02*
Y54331D01*
X-18465Y53937D02*
X-17677D01*
X-18071Y53543D02*
Y54331D01*
X-11850Y53937D02*
X-11063D01*
X-11457Y53543D02*
Y54331D01*
X-48976Y53937D02*
X-48189D01*
X-48583Y53543D02*
Y54331D01*
X-42362Y53937D02*
X-41575D01*
X-41969Y53543D02*
Y54331D01*
X27165Y29528D02*
X27953D01*
X27559Y29134D02*
Y29921D01*
X19291Y29528D02*
X20079D01*
X19685Y29134D02*
Y29921D01*
X11417Y29528D02*
X12205D01*
X11811Y29134D02*
Y29921D01*
X3543Y29528D02*
X4331D01*
X3937Y29134D02*
Y29921D01*
X-4331Y29528D02*
X-3543D01*
X-3937Y29134D02*
Y29921D01*
X-20079Y29528D02*
X-19291D01*
X-19685Y29134D02*
Y29921D01*
X-27953Y29528D02*
X-27165D01*
X-27559Y29134D02*
Y29921D01*
X14567Y12795D02*
X15354D01*
X14961Y12402D02*
Y13189D01*
X11417Y12795D02*
X12205D01*
X11811Y12402D02*
Y13189D01*
X27165Y12795D02*
X27953D01*
X27559Y12402D02*
Y13189D01*
X24016Y12795D02*
X24803D01*
X24409Y12402D02*
Y13189D01*
X20866Y12795D02*
X21654D01*
X21260Y12402D02*
Y13189D01*
X5118Y12795D02*
X5906D01*
X5512Y12402D02*
Y13189D01*
X-35827Y12795D02*
X-35039D01*
X-35433Y12402D02*
Y13189D01*
M02*
