G04*
G04 #@! TF.GenerationSoftware,Altium Limited,Altium Designer,24.7.2 (38)*
G04*
G04 Layer_Color=128*
%FSLAX25Y25*%
%MOIN*%
G70*
G04*
G04 #@! TF.SameCoordinates,43B99760-4079-4BD6-A725-026A76E2A537*
G04*
G04*
G04 #@! TF.FilePolarity,Positive*
G04*
G01*
G75*
%ADD46C,0.00200*%
D46*
X18083Y200787D02*
X22020D01*
X20051Y198819D02*
Y202756D01*
X27925Y200787D02*
X31862D01*
X29894Y198819D02*
Y202756D01*
X37768Y200787D02*
X41705D01*
X39736Y198819D02*
Y202756D01*
X47610Y200787D02*
X51547D01*
X49579Y198819D02*
Y202756D01*
X57453Y200787D02*
X61390D01*
X59421Y198819D02*
Y202756D01*
X-21287Y200787D02*
X-17350D01*
X-19319Y198819D02*
Y202756D01*
X-11445Y200787D02*
X-7508D01*
X-9476Y198819D02*
Y202756D01*
X-31130Y200787D02*
X-27193D01*
X-29161Y198819D02*
Y202756D01*
X8240Y200787D02*
X12177D01*
X10209Y198819D02*
Y202756D01*
X-1602Y200787D02*
X2335D01*
X366Y198819D02*
Y202756D01*
X57677Y176378D02*
X67913D01*
X62795Y171260D02*
Y181496D01*
X-37598Y176378D02*
X-27362D01*
X-32480Y171260D02*
Y181496D01*
X-40894Y17717D02*
X-40106D01*
X-40500Y17323D02*
Y18110D01*
X-22118Y17717D02*
X-21330D01*
X-21724Y17323D02*
Y18110D01*
X-9747Y17717D02*
X-8959D01*
X-9353Y17323D02*
Y18110D01*
X2624Y17717D02*
X3411D01*
X3018Y17323D02*
Y18110D01*
X14994Y17717D02*
X15782D01*
X15388Y17323D02*
Y18110D01*
X27365Y17717D02*
X28152D01*
X27759Y17323D02*
Y18110D01*
X39736Y17717D02*
X40523D01*
X40129Y17323D02*
Y18110D01*
X52106Y17717D02*
X52894D01*
X52500Y17323D02*
Y18110D01*
X70106Y5906D02*
X70894D01*
X70500Y5512D02*
Y6299D01*
X70106Y17717D02*
X70894D01*
X70500Y17323D02*
Y18110D01*
X70106Y29528D02*
X70894D01*
X70500Y29134D02*
Y29921D01*
X49106Y41339D02*
X49894D01*
X49500Y40945D02*
Y41732D01*
X70106Y41339D02*
X70894D01*
X70500Y40945D02*
Y41732D01*
X39106Y41339D02*
X39894D01*
X39500Y40945D02*
Y41732D01*
X19606Y41339D02*
X20394D01*
X20000Y40945D02*
Y41732D01*
X9606Y41339D02*
X10394D01*
X10000Y40945D02*
Y41732D01*
X-9394Y41339D02*
X-8606D01*
X-9000Y40945D02*
Y41732D01*
X-19894Y41339D02*
X-19106D01*
X-19500Y40945D02*
Y41732D01*
X-40894Y41339D02*
X-40106D01*
X-40500Y40945D02*
Y41732D01*
X-40894Y53150D02*
X-40106D01*
X-40500Y52756D02*
Y53543D01*
X-19894Y53150D02*
X-19106D01*
X-19500Y52756D02*
Y53543D01*
X-9394Y53150D02*
X-8606D01*
X-9000Y52756D02*
Y53543D01*
X9606Y53150D02*
X10394D01*
X10000Y52756D02*
Y53543D01*
X19606Y53150D02*
X20394D01*
X20000Y52756D02*
Y53543D01*
X39106Y53150D02*
X39894D01*
X39500Y52756D02*
Y53543D01*
X70106Y53150D02*
X70894D01*
X70500Y52756D02*
Y53543D01*
X49106Y53150D02*
X49894D01*
X49500Y52756D02*
Y53543D01*
X53106Y39000D02*
X53894D01*
X53500Y38606D02*
Y39394D01*
X23938Y39000D02*
X24725D01*
X24331Y38606D02*
Y39394D01*
X-5231Y39000D02*
X-4444D01*
X-4837Y38606D02*
Y39394D01*
X-34400Y39000D02*
X-33612D01*
X-34006Y38606D02*
Y39394D01*
X-24400Y133858D02*
X-23612D01*
X-24006Y133465D02*
Y134252D01*
X-26437Y45000D02*
X-25650D01*
X-26043Y44606D02*
Y45394D01*
X63106Y133858D02*
X63894D01*
X63500Y133465D02*
Y134252D01*
X33938Y133858D02*
X34725D01*
X34331Y133465D02*
Y134252D01*
X4769Y133858D02*
X5556D01*
X5163Y133465D02*
Y134252D01*
X53465Y133858D02*
X54252D01*
X53858Y133465D02*
Y134252D01*
X24331Y133858D02*
X25118D01*
X24724Y133465D02*
Y134252D01*
X-4803Y133858D02*
X-4016D01*
X-4409Y133465D02*
Y134252D01*
X-33937Y133858D02*
X-33150D01*
X-33543Y133465D02*
Y134252D01*
X55606Y45000D02*
X56394D01*
X56000Y44606D02*
Y45394D01*
X26438Y45000D02*
X27225D01*
X26831Y44606D02*
Y45394D01*
X-2731Y45000D02*
X-1944D01*
X-2337Y44606D02*
Y45394D01*
X-31900Y45000D02*
X-31112D01*
X-31506Y44606D02*
Y45394D01*
X60965Y45000D02*
X61752D01*
X61358Y44606D02*
Y45394D01*
X31831Y45000D02*
X32618D01*
X32224Y44606D02*
Y45394D01*
X2697Y45000D02*
X3484D01*
X3091Y44606D02*
Y45394D01*
X-3965Y15748D02*
X-3178D01*
X-3571Y15354D02*
Y16142D01*
X32874Y0D02*
X33661D01*
X33268Y-394D02*
Y394D01*
X29724Y0D02*
X30512D01*
X30118Y-394D02*
Y394D01*
X26575Y0D02*
X27362D01*
X26969Y-394D02*
Y394D01*
X58465Y15748D02*
X59252D01*
X58858Y15354D02*
Y16142D01*
X45979Y15748D02*
X46766D01*
X46372Y15354D02*
Y16142D01*
X33493Y15748D02*
X34280D01*
X33886Y15354D02*
Y16142D01*
X21007Y15748D02*
X21794D01*
X21400Y15354D02*
Y16142D01*
X8521Y15748D02*
X9308D01*
X8914Y15354D02*
Y16142D01*
X-16451Y15748D02*
X-15664D01*
X-16057Y15354D02*
Y16142D01*
X-28937Y15748D02*
X-28150D01*
X-28543Y15354D02*
Y16142D01*
X42323Y0D02*
X43110D01*
X42717Y-394D02*
Y394D01*
X39173Y0D02*
X39961D01*
X39567Y-394D02*
Y394D01*
X36024Y0D02*
X36811D01*
X36417Y-394D02*
Y394D01*
X23425Y0D02*
X24213D01*
X23819Y-394D02*
Y394D01*
X20276Y0D02*
X21063D01*
X20669Y-394D02*
Y394D01*
X-20669Y0D02*
X-19882D01*
X-20276Y-394D02*
Y394D01*
M02*
