G04*
G04 #@! TF.GenerationSoftware,Altium Limited,Altium Designer,24.7.2 (38)*
G04*
G04 Layer_Color=255*
%FSLAX25Y25*%
%MOIN*%
G70*
G04*
G04 #@! TF.SameCoordinates,0E369B4C-2510-47F4-92B6-D956EC4EF59B*
G04*
G04*
G04 #@! TF.FilePolarity,Positive*
G04*
G01*
G75*
%ADD13R,0.03000X0.03937*%
%ADD14R,0.03937X0.05906*%
%ADD15R,0.05512X0.02756*%
%ADD16R,0.03937X0.03937*%
%ADD17R,0.03150X0.03937*%
%ADD18R,0.02047X0.01850*%
%ADD34R,0.10512X0.09055*%
%ADD35R,0.02362X0.09055*%
%ADD40C,0.05315*%
%ADD41R,0.05315X0.05315*%
%ADD42R,0.20866X0.20866*%
D13*
X65006Y153543D02*
D03*
X35837D02*
D03*
X6669D02*
D03*
X-22500D02*
D03*
D14*
X53500Y117126D02*
D03*
X63500D02*
D03*
Y142717D02*
D03*
X53500D02*
D03*
X24331Y117126D02*
D03*
X34331D02*
D03*
Y142717D02*
D03*
X24331D02*
D03*
X-4837Y117126D02*
D03*
X5163D02*
D03*
Y142717D02*
D03*
X-4837D02*
D03*
X-34006D02*
D03*
X-24006D02*
D03*
Y117126D02*
D03*
X-34006D02*
D03*
D15*
X63500Y109980D02*
D03*
Y102618D02*
D03*
Y98169D02*
D03*
Y90807D02*
D03*
X53500Y109980D02*
D03*
Y102618D02*
D03*
Y98169D02*
D03*
Y90807D02*
D03*
X34331Y102618D02*
D03*
Y109980D02*
D03*
Y90807D02*
D03*
Y98169D02*
D03*
X24331Y90807D02*
D03*
Y98169D02*
D03*
Y109980D02*
D03*
Y102618D02*
D03*
X5163D02*
D03*
Y109980D02*
D03*
Y90807D02*
D03*
Y98169D02*
D03*
X-4837Y90807D02*
D03*
Y98169D02*
D03*
Y102618D02*
D03*
Y109980D02*
D03*
X-24006Y102618D02*
D03*
Y109980D02*
D03*
X-34006Y102618D02*
D03*
Y109980D02*
D03*
X-24006Y90807D02*
D03*
Y98169D02*
D03*
X-34006Y90807D02*
D03*
Y98169D02*
D03*
D16*
X64012Y82677D02*
D03*
X52988D02*
D03*
X34843D02*
D03*
X23820D02*
D03*
X5675D02*
D03*
X-5349D02*
D03*
X-34518D02*
D03*
X-23494D02*
D03*
D17*
X53500Y75787D02*
D03*
X63500D02*
D03*
Y50197D02*
D03*
X53500D02*
D03*
X24331Y75787D02*
D03*
X34331D02*
D03*
Y50197D02*
D03*
X24331D02*
D03*
X-4837Y75787D02*
D03*
X5163D02*
D03*
Y50197D02*
D03*
X-4837D02*
D03*
X-34006Y75787D02*
D03*
X-24006D02*
D03*
Y50197D02*
D03*
X-34006D02*
D03*
D18*
X53500Y45000D02*
D03*
Y41614D02*
D03*
X24331Y45000D02*
D03*
Y41614D02*
D03*
X163Y45000D02*
D03*
Y41614D02*
D03*
X-4837D02*
D03*
Y45000D02*
D03*
X-29006D02*
D03*
Y41614D02*
D03*
X-34006D02*
D03*
Y45000D02*
D03*
X29331Y41614D02*
D03*
Y45000D02*
D03*
X58500Y41614D02*
D03*
Y45000D02*
D03*
D34*
X55750Y153543D02*
D03*
X26581D02*
D03*
X-2587D02*
D03*
X-31756D02*
D03*
D35*
X61614Y-7283D02*
D03*
X58465D02*
D03*
X55315D02*
D03*
X52165D02*
D03*
X49016D02*
D03*
X45866D02*
D03*
X42717D02*
D03*
X39567D02*
D03*
X36417D02*
D03*
X33268D02*
D03*
X30118D02*
D03*
X26969D02*
D03*
X23819D02*
D03*
X20669D02*
D03*
X17520D02*
D03*
X14370D02*
D03*
X11220D02*
D03*
X8071D02*
D03*
X-7677D02*
D03*
X-10827D02*
D03*
X-13976D02*
D03*
X-17126D02*
D03*
X-20276D02*
D03*
X-23425D02*
D03*
X-26575D02*
D03*
X-29724D02*
D03*
D40*
X20051Y200787D02*
D03*
X29894D02*
D03*
X39736D02*
D03*
X49579D02*
D03*
X-19319D02*
D03*
X-9476D02*
D03*
X-29161D02*
D03*
X10209D02*
D03*
X366D02*
D03*
D41*
X59421D02*
D03*
D42*
X62795Y176378D02*
D03*
X-32480D02*
D03*
M02*
