G04*
G04 #@! TF.GenerationSoftware,Altium Limited,Altium Designer,24.7.2 (38)*
G04*
G04 Layer_Physical_Order=2*
G04 Layer_Color=36540*
%FSLAX25Y25*%
%MOIN*%
G70*
G04*
G04 #@! TF.SameCoordinates,4FEF5C06-4E4D-4149-9763-4A6A228635AC*
G04*
G04*
G04 #@! TF.FilePolarity,Positive*
G04*
G01*
G75*
%ADD38C,0.01968*%
%ADD39C,0.01181*%
%ADD40C,0.07087*%
%ADD43C,0.01968*%
G36*
X58052Y13602D02*
X53740D01*
X53716Y13597D01*
X53691Y13601D01*
X53382Y13586D01*
X53310Y13567D01*
X53236D01*
X52630Y13447D01*
X52539Y13409D01*
X52442Y13390D01*
X51871Y13154D01*
X51789Y13099D01*
X51698Y13061D01*
X51185Y12718D01*
X51115Y12648D01*
X51033Y12593D01*
X50596Y12156D01*
X50541Y12074D01*
X50471Y12004D01*
X50128Y11491D01*
X50090Y11400D01*
X50035Y11317D01*
X49799Y10747D01*
X49780Y10650D01*
X49742Y10559D01*
X49621Y9953D01*
Y9879D01*
X49603Y9807D01*
X49588Y9498D01*
X49592Y9473D01*
X49587Y9449D01*
Y1003D01*
X-11201D01*
X-11201Y12795D01*
X-11208Y12828D01*
X-11203Y12861D01*
X-11229Y13246D01*
X-11254Y13342D01*
X-11261Y13440D01*
X-11460Y14185D01*
X-11518Y14303D01*
X-11560Y14427D01*
X-11946Y15094D01*
X-12032Y15193D01*
X-12105Y15302D01*
X-12650Y15847D01*
X-12760Y15920D01*
X-12858Y16007D01*
X-13526Y16392D01*
X-13650Y16434D01*
X-13768Y16493D01*
X-14512Y16692D01*
X-14643Y16701D01*
X-14772Y16726D01*
X-15543D01*
X-15672Y16701D01*
X-15803Y16692D01*
X-16547Y16493D01*
X-16665Y16434D01*
X-16789Y16392D01*
X-17457Y16007D01*
X-17555Y15920D01*
X-17665Y15847D01*
X-18210Y15302D01*
X-18283Y15193D01*
X-18369Y15094D01*
X-18755Y14427D01*
X-18797Y14303D01*
X-18855Y14185D01*
X-19054Y13440D01*
X-19061Y13342D01*
X-19086Y13246D01*
X-19112Y12861D01*
X-19107Y12828D01*
X-19114Y12795D01*
Y1003D01*
X-49587D01*
Y9449D01*
X-49592Y9473D01*
X-49588Y9498D01*
X-49603Y9807D01*
X-49621Y9879D01*
Y9953D01*
X-49742Y10559D01*
X-49780Y10650D01*
X-49799Y10747D01*
X-50035Y11317D01*
X-50090Y11400D01*
X-50128Y11491D01*
X-50471Y12004D01*
X-50541Y12074D01*
X-50596Y12156D01*
X-51033Y12593D01*
X-51115Y12648D01*
X-51185Y12718D01*
X-51698Y13061D01*
X-51789Y13099D01*
X-51871Y13154D01*
X-52442Y13390D01*
X-52539Y13409D01*
X-52630Y13447D01*
X-53236Y13567D01*
X-53310D01*
X-53382Y13586D01*
X-53691Y13601D01*
X-53716Y13597D01*
X-53740Y13602D01*
X-58052D01*
Y68795D01*
X-32500D01*
Y52165D01*
Y51774D01*
X-32423Y51390D01*
X-32124Y50666D01*
X-31906Y50341D01*
X-31352Y49787D01*
X-31027Y49569D01*
X-30303Y49270D01*
X-29919Y49193D01*
X-29136D01*
X-28752Y49270D01*
X-28029Y49569D01*
X-27703Y49787D01*
X-27149Y50341D01*
X-26932Y50666D01*
X-26632Y51390D01*
X-26555Y51774D01*
Y52165D01*
Y68795D01*
X-2972D01*
Y51665D01*
Y51274D01*
X-2896Y50890D01*
X-2596Y50166D01*
X-2378Y49841D01*
X-1825Y49287D01*
X-1499Y49069D01*
X-776Y48770D01*
X-392Y48693D01*
X392D01*
X776Y48770D01*
X1499Y49069D01*
X1825Y49287D01*
X2378Y49841D01*
X2596Y50166D01*
X2896Y50890D01*
X2972Y51274D01*
Y51665D01*
Y68795D01*
X26555D01*
Y52146D01*
Y51754D01*
X26632Y51370D01*
X26932Y50647D01*
X27149Y50321D01*
X27703Y49767D01*
X28028Y49550D01*
X28752Y49250D01*
X29136Y49174D01*
X29919D01*
X30303Y49250D01*
X31027Y49550D01*
X31352Y49767D01*
X31906Y50321D01*
X32124Y50647D01*
X32423Y51370D01*
X32500Y51754D01*
Y52146D01*
Y68795D01*
X58052D01*
Y13602D01*
D02*
G37*
%LPC*%
G36*
X52125Y54724D02*
X51812D01*
X51522Y54605D01*
X51301Y54383D01*
X51181Y54094D01*
Y53780D01*
X51301Y53491D01*
X51522Y53269D01*
X51812Y53150D01*
X52125D01*
X52415Y53269D01*
X52636Y53491D01*
X52756Y53780D01*
Y54094D01*
X52636Y54383D01*
X52415Y54605D01*
X52125Y54724D01*
D02*
G37*
G36*
X21613D02*
X21300D01*
X21011Y54605D01*
X20789Y54383D01*
X20669Y54094D01*
Y53780D01*
X20789Y53491D01*
X21011Y53269D01*
X21300Y53150D01*
X21613D01*
X21903Y53269D01*
X22124Y53491D01*
X22244Y53780D01*
Y54094D01*
X22124Y54383D01*
X21903Y54605D01*
X21613Y54724D01*
D02*
G37*
G36*
X-7914D02*
X-8228D01*
X-8517Y54605D01*
X-8738Y54383D01*
X-8858Y54094D01*
Y53780D01*
X-8738Y53491D01*
X-8517Y53269D01*
X-8228Y53150D01*
X-7914D01*
X-7625Y53269D01*
X-7403Y53491D01*
X-7283Y53780D01*
Y54094D01*
X-7403Y54383D01*
X-7625Y54605D01*
X-7914Y54724D01*
D02*
G37*
G36*
X-38426D02*
X-38739D01*
X-39029Y54605D01*
X-39250Y54383D01*
X-39370Y54094D01*
Y53780D01*
X-39250Y53491D01*
X-39029Y53269D01*
X-38739Y53150D01*
X-38426D01*
X-38137Y53269D01*
X-37915Y53491D01*
X-37795Y53780D01*
Y54094D01*
X-37915Y54383D01*
X-38137Y54605D01*
X-38426Y54724D01*
D02*
G37*
G36*
X23779Y43819D02*
X23465D01*
X23176Y43699D01*
X22954Y43477D01*
X22835Y43188D01*
Y42875D01*
X22954Y42586D01*
X23176Y42364D01*
X23465Y42244D01*
X23779D01*
X24068Y42364D01*
X24290Y42586D01*
X24409Y42875D01*
Y43188D01*
X24290Y43477D01*
X24068Y43699D01*
X23779Y43819D01*
D02*
G37*
G36*
X8031D02*
X7717D01*
X7428Y43699D01*
X7207Y43477D01*
X7087Y43188D01*
Y42875D01*
X7207Y42586D01*
X7428Y42364D01*
X7717Y42244D01*
X8031D01*
X8320Y42364D01*
X8541Y42586D01*
X8661Y42875D01*
Y43188D01*
X8541Y43477D01*
X8320Y43699D01*
X8031Y43819D01*
D02*
G37*
G36*
X-7717D02*
X-8031D01*
X-8320Y43699D01*
X-8541Y43477D01*
X-8661Y43188D01*
Y42875D01*
X-8541Y42586D01*
X-8320Y42364D01*
X-8031Y42244D01*
X-7717D01*
X-7428Y42364D01*
X-7207Y42586D01*
X-7087Y42875D01*
Y43188D01*
X-7207Y43477D01*
X-7428Y43699D01*
X-7717Y43819D01*
D02*
G37*
G36*
X-23465D02*
X-23779D01*
X-24068Y43699D01*
X-24290Y43477D01*
X-24409Y43188D01*
Y42875D01*
X-24290Y42586D01*
X-24068Y42364D01*
X-23779Y42244D01*
X-23465D01*
X-23176Y42364D01*
X-22954Y42586D01*
X-22835Y42875D01*
Y43188D01*
X-22954Y43477D01*
X-23176Y43699D01*
X-23465Y43819D01*
D02*
G37*
G36*
X18345Y55315D02*
X17797D01*
X17290Y55105D01*
X16903Y54718D01*
X16693Y54211D01*
Y53663D01*
X16903Y53156D01*
X17014Y53045D01*
X17014Y53039D01*
X17018Y53026D01*
X17019Y53021D01*
X17023Y53013D01*
X17027Y52993D01*
X17032Y52966D01*
X17053Y52653D01*
X17054Y52555D01*
X17067Y52524D01*
Y44987D01*
X11101Y39021D01*
X10884Y38695D01*
X10808Y38311D01*
Y30940D01*
X10794Y30909D01*
X10793Y30805D01*
X10786Y30632D01*
X10773Y30505D01*
X10768Y30471D01*
X10763Y30452D01*
X10759Y30444D01*
X10759Y30439D01*
X10754Y30426D01*
X10754Y30420D01*
X10643Y30308D01*
X10433Y29802D01*
Y29254D01*
X10643Y28747D01*
X10754Y28635D01*
X10754Y28630D01*
X10759Y28616D01*
X10759Y28611D01*
X10763Y28604D01*
X10768Y28584D01*
X10773Y28550D01*
X10786Y28423D01*
X10793Y28250D01*
X10794Y28146D01*
X10808Y28115D01*
Y27689D01*
X10884Y27305D01*
X11101Y26979D01*
X11959Y26122D01*
X11796Y25728D01*
X6691D01*
X5091Y27328D01*
Y28253D01*
X5104Y28284D01*
X5108Y28578D01*
X5120Y28765D01*
X5123Y28789D01*
X5123Y28790D01*
X5315Y29254D01*
Y29802D01*
X5105Y30308D01*
X4994Y30420D01*
X4994Y30426D01*
X4989Y30439D01*
X4989Y30444D01*
X4985Y30452D01*
X4981Y30471D01*
X4976Y30498D01*
X4955Y30811D01*
X4954Y30909D01*
X4941Y30940D01*
Y35021D01*
X12166Y42247D01*
X12384Y42573D01*
X12460Y42957D01*
Y52524D01*
X12473Y52555D01*
X12474Y52659D01*
X12481Y52832D01*
X12494Y52959D01*
X12500Y52993D01*
X12505Y53013D01*
X12509Y53021D01*
X12509Y53026D01*
X12514Y53039D01*
X12513Y53045D01*
X12625Y53156D01*
X12835Y53663D01*
Y54211D01*
X12625Y54718D01*
X12237Y55105D01*
X11731Y55315D01*
X11183D01*
X10676Y55105D01*
X10289Y54718D01*
X10079Y54211D01*
Y53663D01*
X10289Y53156D01*
X10400Y53045D01*
X10400Y53039D01*
X10404Y53026D01*
X10405Y53021D01*
X10408Y53013D01*
X10413Y52993D01*
X10418Y52966D01*
X10439Y52653D01*
X10440Y52555D01*
X10453Y52524D01*
Y43372D01*
X3227Y36147D01*
X3010Y35821D01*
X2933Y35437D01*
Y30940D01*
X2920Y30909D01*
X2919Y30805D01*
X2912Y30632D01*
X2899Y30505D01*
X2894Y30471D01*
X2889Y30452D01*
X2885Y30444D01*
X2885Y30439D01*
X2880Y30426D01*
X2880Y30420D01*
X2769Y30308D01*
X2559Y29802D01*
Y29254D01*
X2769Y28747D01*
X3025Y28491D01*
X3035Y28470D01*
X3036Y28468D01*
X3036Y28465D01*
X3037Y28464D01*
X3039Y28459D01*
X3046Y28428D01*
X3052Y28389D01*
X3070Y28149D01*
X3071Y28051D01*
X3084Y28021D01*
Y28000D01*
X3079Y27974D01*
X3084Y27966D01*
Y26912D01*
X3161Y26528D01*
X3378Y26203D01*
X4989Y24592D01*
X4839Y24228D01*
X-1309D01*
X-2933Y25853D01*
Y28115D01*
X-2920Y28146D01*
X-2919Y28250D01*
X-2912Y28423D01*
X-2899Y28550D01*
X-2894Y28584D01*
X-2889Y28604D01*
X-2885Y28611D01*
X-2885Y28616D01*
X-2880Y28630D01*
X-2880Y28635D01*
X-2769Y28747D01*
X-2559Y29254D01*
Y29802D01*
X-2769Y30308D01*
X-2880Y30420D01*
X-2880Y30426D01*
X-2885Y30439D01*
X-2885Y30444D01*
X-2889Y30452D01*
X-2894Y30471D01*
X-2898Y30498D01*
X-2919Y30811D01*
X-2920Y30909D01*
X-2933Y30940D01*
Y35437D01*
X-3010Y35821D01*
X-3227Y36147D01*
X-10453Y43372D01*
Y52524D01*
X-10440Y52555D01*
X-10439Y52659D01*
X-10432Y52832D01*
X-10419Y52959D01*
X-10413Y52993D01*
X-10408Y53013D01*
X-10405Y53021D01*
X-10404Y53026D01*
X-10400Y53039D01*
X-10400Y53045D01*
X-10289Y53156D01*
X-10079Y53663D01*
Y54211D01*
X-10289Y54718D01*
X-10676Y55105D01*
X-11183Y55315D01*
X-11731D01*
X-12237Y55105D01*
X-12625Y54718D01*
X-12835Y54211D01*
Y53663D01*
X-12625Y53156D01*
X-12513Y53045D01*
X-12514Y53039D01*
X-12509Y53026D01*
X-12509Y53021D01*
X-12505Y53013D01*
X-12500Y52993D01*
X-12495Y52966D01*
X-12474Y52653D01*
X-12473Y52555D01*
X-12460Y52524D01*
Y42957D01*
X-12384Y42573D01*
X-12166Y42247D01*
X-4941Y35021D01*
Y30940D01*
X-4954Y30909D01*
X-4955Y30805D01*
X-4962Y30632D01*
X-4975Y30505D01*
X-4981Y30471D01*
X-4985Y30452D01*
X-4989Y30444D01*
X-4989Y30439D01*
X-4994Y30426D01*
X-4994Y30420D01*
X-5105Y30308D01*
X-5315Y29802D01*
Y29254D01*
X-5105Y28747D01*
X-4994Y28635D01*
X-4994Y28630D01*
X-4989Y28616D01*
X-4989Y28611D01*
X-4985Y28604D01*
X-4981Y28584D01*
X-4976Y28557D01*
X-4955Y28244D01*
X-4954Y28146D01*
X-4941Y28115D01*
Y25437D01*
X-4864Y25053D01*
X-4647Y24727D01*
X-2936Y23017D01*
X-3087Y22653D01*
X-9084D01*
X-10808Y24376D01*
Y28115D01*
X-10794Y28146D01*
X-10793Y28250D01*
X-10786Y28423D01*
X-10773Y28550D01*
X-10768Y28584D01*
X-10763Y28604D01*
X-10759Y28611D01*
X-10759Y28616D01*
X-10754Y28630D01*
X-10754Y28635D01*
X-10643Y28747D01*
X-10433Y29254D01*
Y29802D01*
X-10643Y30308D01*
X-10754Y30420D01*
X-10754Y30426D01*
X-10759Y30439D01*
X-10759Y30444D01*
X-10763Y30452D01*
X-10768Y30471D01*
X-10772Y30498D01*
X-10793Y30811D01*
X-10794Y30909D01*
X-10808Y30940D01*
Y37811D01*
X-10884Y38195D01*
X-11101Y38521D01*
X-17067Y44486D01*
Y52524D01*
X-17054Y52555D01*
X-17053Y52659D01*
X-17046Y52832D01*
X-17033Y52959D01*
X-17027Y52993D01*
X-17023Y53013D01*
X-17019Y53021D01*
X-17018Y53026D01*
X-17014Y53039D01*
X-17014Y53045D01*
X-16903Y53156D01*
X-16693Y53663D01*
Y54211D01*
X-16903Y54718D01*
X-17290Y55105D01*
X-17797Y55315D01*
X-18345D01*
X-18851Y55105D01*
X-19239Y54718D01*
X-19449Y54211D01*
Y53663D01*
X-19239Y53156D01*
X-19128Y53045D01*
X-19128Y53039D01*
X-19123Y53026D01*
X-19123Y53021D01*
X-19119Y53013D01*
X-19114Y52993D01*
X-19110Y52966D01*
X-19088Y52653D01*
X-19087Y52555D01*
X-19074Y52524D01*
Y44071D01*
X-18998Y43687D01*
X-18780Y43361D01*
X-12815Y37395D01*
Y30940D01*
X-12828Y30909D01*
X-12829Y30805D01*
X-12836Y30632D01*
X-12849Y30505D01*
X-12855Y30471D01*
X-12859Y30452D01*
X-12863Y30444D01*
X-12864Y30439D01*
X-12868Y30426D01*
X-12868Y30420D01*
X-12979Y30308D01*
X-13189Y29802D01*
Y29254D01*
X-12979Y28747D01*
X-12868Y28635D01*
X-12868Y28630D01*
X-12864Y28616D01*
X-12863Y28611D01*
X-12859Y28604D01*
X-12855Y28584D01*
X-12850Y28557D01*
X-12829Y28244D01*
X-12828Y28146D01*
X-12815Y28115D01*
Y23961D01*
X-12738Y23577D01*
X-12521Y23251D01*
X-10712Y21442D01*
X-10862Y21078D01*
X-15659D01*
X-18681Y24101D01*
Y28115D01*
X-18668Y28146D01*
X-18667Y28250D01*
X-18660Y28423D01*
X-18647Y28550D01*
X-18642Y28584D01*
X-18637Y28604D01*
X-18633Y28611D01*
X-18633Y28616D01*
X-18628Y28630D01*
X-18628Y28635D01*
X-18517Y28747D01*
X-18307Y29254D01*
Y29802D01*
X-18517Y30308D01*
X-18628Y30420D01*
X-18628Y30426D01*
X-18633Y30439D01*
X-18633Y30444D01*
X-18637Y30452D01*
X-18642Y30471D01*
X-18646Y30498D01*
X-18667Y30811D01*
X-18668Y30909D01*
X-18681Y30940D01*
Y35185D01*
X-18758Y35569D01*
X-18975Y35895D01*
X-23290Y40210D01*
X-23616Y40427D01*
X-24000Y40503D01*
X-37084D01*
X-40965Y44384D01*
Y52524D01*
X-40952Y52555D01*
X-40951Y52659D01*
X-40944Y52832D01*
X-40931Y52959D01*
X-40925Y52993D01*
X-40920Y53013D01*
X-40916Y53021D01*
X-40916Y53026D01*
X-40911Y53039D01*
X-40912Y53045D01*
X-40800Y53156D01*
X-40591Y53663D01*
Y54211D01*
X-40800Y54718D01*
X-41188Y55105D01*
X-41694Y55315D01*
X-42243D01*
X-42749Y55105D01*
X-43137Y54718D01*
X-43346Y54211D01*
Y53663D01*
X-43137Y53156D01*
X-43025Y53045D01*
X-43025Y53039D01*
X-43021Y53026D01*
X-43021Y53021D01*
X-43017Y53013D01*
X-43012Y52993D01*
X-43007Y52966D01*
X-42986Y52653D01*
X-42985Y52555D01*
X-42972Y52524D01*
Y43968D01*
X-42896Y43584D01*
X-42678Y43259D01*
X-38210Y38790D01*
X-37884Y38573D01*
X-37500Y38497D01*
X-24416D01*
X-20689Y34769D01*
Y30940D01*
X-20702Y30909D01*
X-20703Y30805D01*
X-20710Y30632D01*
X-20723Y30505D01*
X-20729Y30471D01*
X-20733Y30452D01*
X-20737Y30444D01*
X-20738Y30439D01*
X-20742Y30426D01*
X-20742Y30420D01*
X-20853Y30308D01*
X-21063Y29802D01*
Y29254D01*
X-20853Y28747D01*
X-20742Y28635D01*
X-20742Y28630D01*
X-20738Y28616D01*
X-20737Y28611D01*
X-20733Y28604D01*
X-20729Y28584D01*
X-20724Y28557D01*
X-20703Y28244D01*
X-20702Y28146D01*
X-20689Y28115D01*
Y23685D01*
X-20612Y23301D01*
X-20395Y22975D01*
X-17287Y19867D01*
X-17437Y19503D01*
X-22084D01*
X-26555Y23975D01*
Y28115D01*
X-26542Y28146D01*
X-26542Y28250D01*
X-26534Y28423D01*
X-26521Y28550D01*
X-26516Y28584D01*
X-26511Y28604D01*
X-26507Y28611D01*
X-26507Y28616D01*
X-26502Y28630D01*
X-26502Y28635D01*
X-26391Y28747D01*
X-26181Y29254D01*
Y29802D01*
X-26391Y30308D01*
X-26502Y30420D01*
X-26502Y30426D01*
X-26507Y30439D01*
X-26507Y30444D01*
X-26511Y30452D01*
X-26516Y30471D01*
X-26520Y30498D01*
X-26542Y30811D01*
X-26542Y30909D01*
X-26555Y30940D01*
Y32559D01*
X-26632Y32943D01*
X-26849Y33269D01*
X-29290Y35710D01*
X-29616Y35927D01*
X-30000Y36004D01*
X-39084D01*
X-47579Y44498D01*
Y52524D01*
X-47566Y52555D01*
X-47565Y52659D01*
X-47558Y52832D01*
X-47545Y52959D01*
X-47539Y52993D01*
X-47534Y53013D01*
X-47531Y53021D01*
X-47530Y53026D01*
X-47526Y53039D01*
X-47526Y53045D01*
X-47414Y53156D01*
X-47205Y53663D01*
Y54211D01*
X-47414Y54718D01*
X-47802Y55105D01*
X-48309Y55315D01*
X-48857D01*
X-49363Y55105D01*
X-49751Y54718D01*
X-49961Y54211D01*
Y53663D01*
X-49751Y53156D01*
X-49639Y53045D01*
X-49640Y53039D01*
X-49635Y53026D01*
X-49635Y53021D01*
X-49631Y53013D01*
X-49626Y52993D01*
X-49621Y52966D01*
X-49600Y52653D01*
X-49599Y52555D01*
X-49586Y52524D01*
Y44083D01*
X-49510Y43699D01*
X-49292Y43373D01*
X-40210Y34290D01*
X-39884Y34073D01*
X-39500Y33996D01*
X-30416D01*
X-28563Y32143D01*
Y30940D01*
X-28576Y30909D01*
X-28577Y30805D01*
X-28584Y30632D01*
X-28597Y30505D01*
X-28603Y30471D01*
X-28607Y30452D01*
X-28611Y30444D01*
X-28611Y30439D01*
X-28616Y30426D01*
X-28616Y30420D01*
X-28727Y30308D01*
X-28937Y29802D01*
Y29254D01*
X-28727Y28747D01*
X-28616Y28635D01*
X-28616Y28630D01*
X-28611Y28616D01*
X-28611Y28611D01*
X-28607Y28604D01*
X-28603Y28584D01*
X-28598Y28557D01*
X-28577Y28244D01*
X-28576Y28146D01*
X-28563Y28115D01*
Y23559D01*
X-28486Y23175D01*
X-28269Y22850D01*
X-23210Y17790D01*
X-22884Y17573D01*
X-22500Y17496D01*
X3084D01*
X4508Y16072D01*
Y14208D01*
X4495Y14177D01*
X4494Y14073D01*
X4487Y13900D01*
X4474Y13773D01*
X4468Y13739D01*
X4464Y13719D01*
X4460Y13712D01*
X4459Y13707D01*
X4455Y13693D01*
X4455Y13687D01*
X4344Y13576D01*
X4134Y13069D01*
Y12521D01*
X4344Y12015D01*
X4731Y11627D01*
X5238Y11417D01*
X5786D01*
X6292Y11627D01*
X6680Y12015D01*
X6890Y12521D01*
Y13069D01*
X6680Y13576D01*
X6568Y13687D01*
X6569Y13693D01*
X6564Y13707D01*
X6564Y13712D01*
X6560Y13719D01*
X6555Y13739D01*
X6551Y13766D01*
X6529Y14079D01*
X6528Y14177D01*
X6515Y14208D01*
Y16488D01*
X6439Y16872D01*
X6221Y17198D01*
X4786Y18633D01*
X4937Y18996D01*
X6584D01*
X7658Y17923D01*
Y14208D01*
X7645Y14177D01*
X7644Y14073D01*
X7637Y13900D01*
X7624Y13773D01*
X7618Y13739D01*
X7613Y13719D01*
X7609Y13712D01*
X7609Y13707D01*
X7604Y13693D01*
X7605Y13687D01*
X7493Y13576D01*
X7283Y13069D01*
Y12521D01*
X7493Y12015D01*
X7881Y11627D01*
X8387Y11417D01*
X8935D01*
X9442Y11627D01*
X9830Y12015D01*
X10039Y12521D01*
Y13069D01*
X9830Y13576D01*
X9718Y13687D01*
X9718Y13693D01*
X9714Y13707D01*
X9713Y13712D01*
X9710Y13719D01*
X9705Y13739D01*
X9700Y13766D01*
X9679Y14079D01*
X9678Y14177D01*
X9665Y14208D01*
Y18339D01*
X9589Y18723D01*
X9371Y19048D01*
X8212Y20208D01*
X8362Y20571D01*
X9510D01*
X10808Y19273D01*
Y14208D01*
X10794Y14177D01*
X10793Y14073D01*
X10786Y13900D01*
X10773Y13773D01*
X10768Y13739D01*
X10763Y13719D01*
X10759Y13712D01*
X10759Y13707D01*
X10754Y13693D01*
X10754Y13687D01*
X10643Y13576D01*
X10433Y13069D01*
Y12521D01*
X10643Y12015D01*
X11030Y11627D01*
X11537Y11417D01*
X12085D01*
X12592Y11627D01*
X12979Y12015D01*
X13189Y12521D01*
Y13069D01*
X12979Y13576D01*
X12868Y13687D01*
X12868Y13693D01*
X12864Y13707D01*
X12863Y13712D01*
X12859Y13719D01*
X12855Y13739D01*
X12850Y13766D01*
X12829Y14079D01*
X12828Y14177D01*
X12814Y14208D01*
Y19689D01*
X12738Y20073D01*
X12521Y20399D01*
X11137Y21782D01*
X11287Y22146D01*
X11935D01*
X13957Y20124D01*
Y14208D01*
X13944Y14177D01*
X13943Y14073D01*
X13936Y13900D01*
X13923Y13773D01*
X13917Y13739D01*
X13912Y13719D01*
X13908Y13712D01*
X13908Y13707D01*
X13904Y13693D01*
X13904Y13687D01*
X13792Y13576D01*
X13583Y13069D01*
Y12521D01*
X13792Y12015D01*
X14180Y11627D01*
X14686Y11417D01*
X15235D01*
X15741Y11627D01*
X16129Y12015D01*
X16339Y12521D01*
Y13069D01*
X16129Y13576D01*
X16017Y13687D01*
X16018Y13693D01*
X16013Y13707D01*
X16013Y13712D01*
X16009Y13719D01*
X16004Y13739D01*
X16000Y13766D01*
X15978Y14079D01*
X15977Y14177D01*
X15964Y14208D01*
Y20539D01*
X15888Y20923D01*
X15670Y21249D01*
X13562Y23357D01*
X13713Y23721D01*
X14860D01*
X17107Y21474D01*
Y14208D01*
X17094Y14177D01*
X17093Y14073D01*
X17086Y13900D01*
X17073Y13773D01*
X17067Y13739D01*
X17062Y13719D01*
X17058Y13712D01*
X17058Y13707D01*
X17053Y13693D01*
X17054Y13687D01*
X16942Y13576D01*
X16732Y13069D01*
Y12521D01*
X16942Y12015D01*
X17330Y11627D01*
X17836Y11417D01*
X18384D01*
X18891Y11627D01*
X19278Y12015D01*
X19488Y12521D01*
Y13069D01*
X19278Y13576D01*
X19167Y13687D01*
X19167Y13693D01*
X19163Y13707D01*
X19162Y13712D01*
X19159Y13719D01*
X19154Y13739D01*
X19149Y13766D01*
X19128Y14079D01*
X19127Y14177D01*
X19114Y14208D01*
Y21890D01*
X19037Y22274D01*
X18820Y22599D01*
X16594Y24825D01*
X16724Y25252D01*
X16812Y25269D01*
X20256Y21824D01*
Y14208D01*
X20243Y14177D01*
X20242Y14073D01*
X20235Y13900D01*
X20222Y13773D01*
X20216Y13739D01*
X20212Y13719D01*
X20208Y13712D01*
X20207Y13707D01*
X20203Y13693D01*
X20203Y13687D01*
X20092Y13576D01*
X19882Y13069D01*
Y12521D01*
X20092Y12015D01*
X20479Y11627D01*
X20986Y11417D01*
X21534D01*
X22040Y11627D01*
X22428Y12015D01*
X22638Y12521D01*
Y13069D01*
X22428Y13576D01*
X22316Y13687D01*
X22317Y13693D01*
X22312Y13707D01*
X22312Y13712D01*
X22308Y13719D01*
X22303Y13739D01*
X22299Y13766D01*
X22277Y14079D01*
X22276Y14177D01*
X22263Y14208D01*
Y22240D01*
X22187Y22624D01*
X21969Y22950D01*
X17710Y27210D01*
X17384Y27427D01*
X17000Y27503D01*
X13416D01*
X12814Y28105D01*
Y28115D01*
X12828Y28146D01*
X12829Y28244D01*
X12850Y28557D01*
X12855Y28584D01*
X12859Y28604D01*
X12863Y28611D01*
X12864Y28616D01*
X12868Y28630D01*
X12868Y28635D01*
X12979Y28747D01*
X13189Y29254D01*
Y29802D01*
X12979Y30308D01*
X12868Y30420D01*
X12868Y30426D01*
X12864Y30439D01*
X12863Y30444D01*
X12859Y30452D01*
X12855Y30471D01*
X12850Y30498D01*
X12829Y30811D01*
X12828Y30909D01*
X12814Y30940D01*
Y37895D01*
X18780Y43861D01*
X18998Y44187D01*
X19074Y44571D01*
Y52524D01*
X19087Y52555D01*
X19089Y52659D01*
X19095Y52832D01*
X19108Y52959D01*
X19114Y52993D01*
X19119Y53013D01*
X19123Y53021D01*
X19123Y53026D01*
X19128Y53039D01*
X19128Y53045D01*
X19239Y53156D01*
X19449Y53663D01*
Y54211D01*
X19239Y54718D01*
X18851Y55105D01*
X18345Y55315D01*
D02*
G37*
G36*
X-35276Y13583D02*
X-35590D01*
X-35879Y13463D01*
X-36101Y13241D01*
X-36220Y12952D01*
Y12639D01*
X-36101Y12349D01*
X-35879Y12128D01*
X-35590Y12008D01*
X-35276D01*
X-34987Y12128D01*
X-34766Y12349D01*
X-34646Y12639D01*
Y12952D01*
X-34766Y13241D01*
X-34987Y13463D01*
X-35276Y13583D01*
D02*
G37*
G36*
X48857Y55315D02*
X48309D01*
X47802Y55105D01*
X47414Y54718D01*
X47205Y54211D01*
Y53663D01*
X47414Y53156D01*
X47526Y53045D01*
X47526Y53039D01*
X47530Y53026D01*
X47531Y53021D01*
X47534Y53013D01*
X47539Y52993D01*
X47544Y52966D01*
X47565Y52653D01*
X47566Y52555D01*
X47579Y52524D01*
Y44498D01*
X39084Y36004D01*
X30000D01*
X29616Y35927D01*
X29290Y35710D01*
X26849Y33269D01*
X26632Y32943D01*
X26555Y32559D01*
Y30940D01*
X26542Y30909D01*
X26542Y30805D01*
X26534Y30632D01*
X26522Y30505D01*
X26515Y30471D01*
X26511Y30452D01*
X26507Y30444D01*
X26507Y30439D01*
X26502Y30426D01*
X26502Y30420D01*
X26391Y30308D01*
X26181Y29802D01*
Y29254D01*
X26391Y28747D01*
X26502Y28635D01*
X26502Y28630D01*
X26507Y28616D01*
X26507Y28611D01*
X26511Y28604D01*
X26515Y28584D01*
X26520Y28557D01*
X26542Y28244D01*
X26542Y28146D01*
X26555Y28115D01*
Y14208D01*
X26542Y14177D01*
X26542Y14073D01*
X26534Y13900D01*
X26521Y13773D01*
X26515Y13739D01*
X26511Y13719D01*
X26507Y13712D01*
X26507Y13707D01*
X26502Y13693D01*
X26502Y13687D01*
X26391Y13576D01*
X26181Y13069D01*
Y12521D01*
X26391Y12015D01*
X26779Y11627D01*
X27285Y11417D01*
X27833D01*
X28340Y11627D01*
X28727Y12015D01*
X28937Y12521D01*
Y13069D01*
X28727Y13576D01*
X28616Y13687D01*
X28616Y13693D01*
X28611Y13707D01*
X28611Y13712D01*
X28607Y13719D01*
X28603Y13739D01*
X28598Y13766D01*
X28577Y14079D01*
X28576Y14177D01*
X28563Y14208D01*
Y28115D01*
X28576Y28146D01*
X28577Y28250D01*
X28584Y28423D01*
X28597Y28550D01*
X28603Y28584D01*
X28607Y28604D01*
X28611Y28611D01*
X28611Y28616D01*
X28616Y28630D01*
X28616Y28635D01*
X28727Y28747D01*
X28937Y29254D01*
Y29802D01*
X28727Y30308D01*
X28616Y30420D01*
X28616Y30426D01*
X28611Y30439D01*
X28611Y30444D01*
X28607Y30452D01*
X28603Y30471D01*
X28598Y30498D01*
X28577Y30811D01*
X28576Y30909D01*
X28563Y30940D01*
Y32143D01*
X30416Y33996D01*
X39500D01*
X39884Y34073D01*
X40210Y34290D01*
X49292Y43373D01*
X49510Y43699D01*
X49586Y44083D01*
Y52524D01*
X49599Y52555D01*
X49600Y52659D01*
X49607Y52832D01*
X49620Y52959D01*
X49626Y52993D01*
X49631Y53013D01*
X49635Y53021D01*
X49635Y53026D01*
X49640Y53039D01*
X49639Y53045D01*
X49751Y53156D01*
X49961Y53663D01*
Y54211D01*
X49751Y54718D01*
X49363Y55105D01*
X48857Y55315D01*
D02*
G37*
G36*
X42243D02*
X41694D01*
X41188Y55105D01*
X40800Y54718D01*
X40591Y54211D01*
Y53663D01*
X40800Y53156D01*
X40912Y53045D01*
X40911Y53039D01*
X40916Y53026D01*
X40916Y53021D01*
X40920Y53013D01*
X40925Y52993D01*
X40930Y52966D01*
X40951Y52653D01*
X40952Y52555D01*
X40965Y52524D01*
Y44384D01*
X37084Y40503D01*
X24000D01*
X23616Y40427D01*
X23290Y40210D01*
X18975Y35895D01*
X18758Y35569D01*
X18681Y35185D01*
Y30940D01*
X18668Y30909D01*
X18667Y30805D01*
X18660Y30632D01*
X18647Y30505D01*
X18642Y30471D01*
X18637Y30452D01*
X18633Y30444D01*
X18633Y30439D01*
X18628Y30426D01*
X18628Y30420D01*
X18517Y30308D01*
X18307Y29802D01*
Y29254D01*
X18517Y28747D01*
X18628Y28635D01*
X18628Y28630D01*
X18633Y28616D01*
X18633Y28611D01*
X18637Y28604D01*
X18642Y28584D01*
X18647Y28550D01*
X18660Y28423D01*
X18667Y28250D01*
X18668Y28146D01*
X18681Y28115D01*
Y27815D01*
X18758Y27431D01*
X18975Y27105D01*
X23406Y22675D01*
Y14208D01*
X23393Y14177D01*
X23392Y14073D01*
X23385Y13900D01*
X23372Y13773D01*
X23366Y13739D01*
X23361Y13719D01*
X23357Y13712D01*
X23357Y13707D01*
X23352Y13693D01*
X23353Y13687D01*
X23241Y13576D01*
X23031Y13069D01*
Y12521D01*
X23241Y12015D01*
X23629Y11627D01*
X24135Y11417D01*
X24683D01*
X25190Y11627D01*
X25578Y12015D01*
X25787Y12521D01*
Y13069D01*
X25578Y13576D01*
X25466Y13687D01*
X25466Y13693D01*
X25462Y13707D01*
X25462Y13712D01*
X25458Y13719D01*
X25453Y13739D01*
X25448Y13766D01*
X25427Y14079D01*
X25426Y14177D01*
X25413Y14208D01*
Y23090D01*
X25337Y23475D01*
X25119Y23800D01*
X20702Y28217D01*
X20703Y28244D01*
X20724Y28557D01*
X20729Y28584D01*
X20733Y28604D01*
X20737Y28611D01*
X20738Y28616D01*
X20742Y28630D01*
X20742Y28635D01*
X20853Y28747D01*
X21063Y29254D01*
Y29802D01*
X20853Y30308D01*
X20742Y30420D01*
X20742Y30426D01*
X20738Y30439D01*
X20737Y30444D01*
X20733Y30452D01*
X20729Y30471D01*
X20724Y30498D01*
X20703Y30811D01*
X20702Y30909D01*
X20689Y30940D01*
Y34769D01*
X24416Y38497D01*
X37500D01*
X37884Y38573D01*
X38210Y38790D01*
X42678Y43259D01*
X42896Y43584D01*
X42972Y43968D01*
Y52524D01*
X42985Y52555D01*
X42986Y52659D01*
X42993Y52832D01*
X43006Y52959D01*
X43012Y52993D01*
X43017Y53013D01*
X43021Y53021D01*
X43021Y53026D01*
X43025Y53039D01*
X43025Y53045D01*
X43137Y53156D01*
X43346Y53663D01*
Y54211D01*
X43137Y54718D01*
X42749Y55105D01*
X42243Y55315D01*
D02*
G37*
%LPD*%
G36*
X18741Y53210D02*
X18724Y53176D01*
X18710Y53133D01*
X18697Y53080D01*
X18686Y53017D01*
X18670Y52863D01*
X18662Y52670D01*
X18661Y52559D01*
X17480D01*
X17479Y52670D01*
X17456Y53017D01*
X17445Y53080D01*
X17432Y53133D01*
X17417Y53176D01*
X17401Y53210D01*
X17382Y53234D01*
X18760D01*
X18741Y53210D01*
D02*
G37*
G36*
X12127D02*
X12110Y53176D01*
X12095Y53133D01*
X12083Y53080D01*
X12072Y53017D01*
X12056Y52863D01*
X12048Y52670D01*
X12047Y52559D01*
X10866D01*
X10865Y52670D01*
X10842Y53017D01*
X10831Y53080D01*
X10818Y53133D01*
X10803Y53176D01*
X10786Y53210D01*
X10768Y53234D01*
X12146D01*
X12127Y53210D01*
D02*
G37*
G36*
X-10786D02*
X-10803Y53176D01*
X-10818Y53133D01*
X-10831Y53080D01*
X-10842Y53017D01*
X-10857Y52863D01*
X-10865Y52670D01*
X-10866Y52559D01*
X-12047D01*
X-12048Y52670D01*
X-12072Y53017D01*
X-12083Y53080D01*
X-12095Y53133D01*
X-12110Y53176D01*
X-12127Y53210D01*
X-12146Y53234D01*
X-10768D01*
X-10786Y53210D01*
D02*
G37*
G36*
X-17401D02*
X-17417Y53176D01*
X-17432Y53133D01*
X-17445Y53080D01*
X-17456Y53017D01*
X-17471Y52863D01*
X-17479Y52670D01*
X-17480Y52559D01*
X-18661D01*
X-18662Y52670D01*
X-18686Y53017D01*
X-18697Y53080D01*
X-18710Y53133D01*
X-18724Y53176D01*
X-18741Y53210D01*
X-18760Y53234D01*
X-17382D01*
X-17401Y53210D01*
D02*
G37*
G36*
X-41298D02*
X-41315Y53176D01*
X-41330Y53133D01*
X-41342Y53080D01*
X-41353Y53017D01*
X-41369Y52863D01*
X-41377Y52670D01*
X-41378Y52559D01*
X-42559D01*
X-42560Y52670D01*
X-42584Y53017D01*
X-42595Y53080D01*
X-42607Y53133D01*
X-42622Y53176D01*
X-42639Y53210D01*
X-42658Y53234D01*
X-41280D01*
X-41298Y53210D01*
D02*
G37*
G36*
X-47912D02*
X-47929Y53176D01*
X-47944Y53133D01*
X-47957Y53080D01*
X-47967Y53017D01*
X-47983Y52863D01*
X-47991Y52670D01*
X-47992Y52559D01*
X-49173D01*
X-49174Y52670D01*
X-49198Y53017D01*
X-49209Y53080D01*
X-49222Y53133D01*
X-49236Y53176D01*
X-49253Y53210D01*
X-49272Y53234D01*
X-47894D01*
X-47912Y53210D01*
D02*
G37*
G36*
X12403Y30795D02*
X12426Y30448D01*
X12437Y30385D01*
X12450Y30332D01*
X12465Y30288D01*
X12481Y30255D01*
X12500Y30231D01*
X11122D01*
X11141Y30255D01*
X11157Y30288D01*
X11172Y30332D01*
X11185Y30385D01*
X11196Y30448D01*
X11212Y30602D01*
X11220Y30795D01*
X11220Y30906D01*
X12402D01*
X12403Y30795D01*
D02*
G37*
G36*
X4529D02*
X4552Y30448D01*
X4563Y30385D01*
X4576Y30332D01*
X4591Y30288D01*
X4607Y30255D01*
X4626Y30231D01*
X3248D01*
X3267Y30255D01*
X3283Y30288D01*
X3298Y30332D01*
X3311Y30385D01*
X3322Y30448D01*
X3338Y30602D01*
X3345Y30795D01*
X3347Y30906D01*
X4528D01*
X4529Y30795D01*
D02*
G37*
G36*
X-3345D02*
X-3322Y30448D01*
X-3311Y30385D01*
X-3298Y30332D01*
X-3283Y30288D01*
X-3267Y30255D01*
X-3248Y30231D01*
X-4626D01*
X-4607Y30255D01*
X-4591Y30288D01*
X-4576Y30332D01*
X-4563Y30385D01*
X-4552Y30448D01*
X-4536Y30602D01*
X-4529Y30795D01*
X-4528Y30906D01*
X-3347D01*
X-3345Y30795D01*
D02*
G37*
G36*
X-11220D02*
X-11196Y30448D01*
X-11185Y30385D01*
X-11172Y30332D01*
X-11157Y30288D01*
X-11141Y30255D01*
X-11122Y30231D01*
X-12500D01*
X-12481Y30255D01*
X-12465Y30288D01*
X-12450Y30332D01*
X-12437Y30385D01*
X-12426Y30448D01*
X-12410Y30602D01*
X-12403Y30795D01*
X-12402Y30906D01*
X-11220D01*
X-11220Y30795D01*
D02*
G37*
G36*
X-19094D02*
X-19070Y30448D01*
X-19059Y30385D01*
X-19046Y30332D01*
X-19031Y30288D01*
X-19015Y30255D01*
X-18996Y30231D01*
X-20374D01*
X-20355Y30255D01*
X-20339Y30288D01*
X-20324Y30332D01*
X-20311Y30385D01*
X-20300Y30448D01*
X-20285Y30602D01*
X-20277Y30795D01*
X-20276Y30906D01*
X-19094D01*
X-19094Y30795D01*
D02*
G37*
G36*
X-26967D02*
X-26944Y30448D01*
X-26933Y30385D01*
X-26920Y30332D01*
X-26906Y30288D01*
X-26889Y30255D01*
X-26870Y30231D01*
X-28248D01*
X-28229Y30255D01*
X-28213Y30288D01*
X-28198Y30332D01*
X-28185Y30385D01*
X-28174Y30448D01*
X-28159Y30602D01*
X-28151Y30795D01*
X-28150Y30906D01*
X-26969D01*
X-26967Y30795D01*
D02*
G37*
G36*
X12481Y28800D02*
X12465Y28767D01*
X12450Y28723D01*
X12437Y28670D01*
X12426Y28608D01*
X12403Y28260D01*
X12402Y28150D01*
X11220D01*
X11220Y28260D01*
X11212Y28453D01*
X11196Y28608D01*
X11185Y28670D01*
X11172Y28723D01*
X11157Y28767D01*
X11141Y28800D01*
X11122Y28825D01*
X12500D01*
X12481Y28800D01*
D02*
G37*
G36*
X-3267D02*
X-3283Y28767D01*
X-3298Y28723D01*
X-3311Y28670D01*
X-3322Y28608D01*
X-3338Y28453D01*
X-3345Y28260D01*
X-3347Y28150D01*
X-4528D01*
X-4529Y28260D01*
X-4552Y28608D01*
X-4563Y28670D01*
X-4576Y28723D01*
X-4591Y28767D01*
X-4607Y28800D01*
X-4626Y28825D01*
X-3248D01*
X-3267Y28800D01*
D02*
G37*
G36*
X-11141D02*
X-11157Y28767D01*
X-11172Y28723D01*
X-11185Y28670D01*
X-11196Y28608D01*
X-11212Y28453D01*
X-11220Y28260D01*
X-11220Y28150D01*
X-12402D01*
X-12403Y28260D01*
X-12426Y28608D01*
X-12437Y28670D01*
X-12450Y28723D01*
X-12465Y28767D01*
X-12481Y28800D01*
X-12500Y28825D01*
X-11122D01*
X-11141Y28800D01*
D02*
G37*
G36*
X-19015D02*
X-19031Y28767D01*
X-19046Y28723D01*
X-19059Y28670D01*
X-19070Y28608D01*
X-19086Y28453D01*
X-19094Y28260D01*
X-19094Y28150D01*
X-20276D01*
X-20277Y28260D01*
X-20300Y28608D01*
X-20311Y28670D01*
X-20324Y28723D01*
X-20339Y28767D01*
X-20355Y28800D01*
X-20374Y28825D01*
X-18996D01*
X-19015Y28800D01*
D02*
G37*
G36*
X-26889D02*
X-26906Y28767D01*
X-26920Y28723D01*
X-26933Y28670D01*
X-26944Y28608D01*
X-26960Y28453D01*
X-26967Y28260D01*
X-26969Y28150D01*
X-28150D01*
X-28151Y28260D01*
X-28174Y28608D01*
X-28185Y28670D01*
X-28198Y28723D01*
X-28213Y28767D01*
X-28229Y28800D01*
X-28248Y28825D01*
X-26870D01*
X-26889Y28800D01*
D02*
G37*
G36*
X4716Y28921D02*
X4708Y28892D01*
X4701Y28853D01*
X4695Y28804D01*
X4682Y28594D01*
X4678Y28289D01*
X3497Y28056D01*
X3496Y28167D01*
X3476Y28440D01*
X3464Y28512D01*
X3449Y28574D01*
X3432Y28627D01*
X3412Y28670D01*
X3389Y28704D01*
X3364Y28727D01*
X4725Y28938D01*
X4716Y28921D01*
D02*
G37*
G36*
X21851Y14062D02*
X21875Y13715D01*
X21886Y13653D01*
X21899Y13599D01*
X21913Y13556D01*
X21930Y13522D01*
X21949Y13498D01*
X20571D01*
X20590Y13522D01*
X20606Y13556D01*
X20621Y13599D01*
X20634Y13653D01*
X20645Y13715D01*
X20660Y13870D01*
X20668Y14062D01*
X20669Y14173D01*
X21850D01*
X21851Y14062D01*
D02*
G37*
G36*
X18702D02*
X18725Y13715D01*
X18736Y13653D01*
X18749Y13599D01*
X18764Y13556D01*
X18780Y13522D01*
X18799Y13498D01*
X17421D01*
X17440Y13522D01*
X17457Y13556D01*
X17471Y13599D01*
X17484Y13653D01*
X17495Y13715D01*
X17511Y13870D01*
X17519Y14062D01*
X17520Y14173D01*
X18701D01*
X18702Y14062D01*
D02*
G37*
G36*
X15552D02*
X15576Y13715D01*
X15587Y13653D01*
X15599Y13599D01*
X15614Y13556D01*
X15631Y13522D01*
X15650Y13498D01*
X14272D01*
X14290Y13522D01*
X14307Y13556D01*
X14322Y13599D01*
X14335Y13653D01*
X14345Y13715D01*
X14361Y13870D01*
X14369Y14062D01*
X14370Y14173D01*
X15551D01*
X15552Y14062D01*
D02*
G37*
G36*
X12403D02*
X12426Y13715D01*
X12437Y13653D01*
X12450Y13599D01*
X12465Y13556D01*
X12481Y13522D01*
X12500Y13498D01*
X11122D01*
X11141Y13522D01*
X11157Y13556D01*
X11172Y13599D01*
X11185Y13653D01*
X11196Y13715D01*
X11212Y13870D01*
X11220Y14062D01*
X11220Y14173D01*
X12402D01*
X12403Y14062D01*
D02*
G37*
G36*
X9253D02*
X9277Y13715D01*
X9287Y13653D01*
X9300Y13599D01*
X9315Y13556D01*
X9332Y13522D01*
X9350Y13498D01*
X7972D01*
X7991Y13522D01*
X8008Y13556D01*
X8023Y13599D01*
X8035Y13653D01*
X8046Y13715D01*
X8062Y13870D01*
X8070Y14062D01*
X8071Y14173D01*
X9252D01*
X9253Y14062D01*
D02*
G37*
G36*
X6103D02*
X6127Y13715D01*
X6138Y13653D01*
X6151Y13599D01*
X6165Y13556D01*
X6182Y13522D01*
X6201Y13498D01*
X4823D01*
X4842Y13522D01*
X4858Y13556D01*
X4873Y13599D01*
X4886Y13653D01*
X4897Y13715D01*
X4912Y13870D01*
X4920Y14062D01*
X4921Y14173D01*
X6102D01*
X6103Y14062D01*
D02*
G37*
G36*
X49253Y53210D02*
X49236Y53176D01*
X49222Y53133D01*
X49209Y53080D01*
X49198Y53017D01*
X49182Y52863D01*
X49174Y52670D01*
X49173Y52559D01*
X47992D01*
X47991Y52670D01*
X47967Y53017D01*
X47957Y53080D01*
X47944Y53133D01*
X47929Y53176D01*
X47912Y53210D01*
X47894Y53234D01*
X49272D01*
X49253Y53210D01*
D02*
G37*
G36*
X28150Y30906D02*
X28151Y30795D01*
X28174Y30447D01*
X28185Y30385D01*
X28198Y30332D01*
X28213Y30288D01*
X28229Y30255D01*
X28248Y30231D01*
X26870Y30231D01*
X26889Y30255D01*
X26906Y30288D01*
X26920Y30332D01*
X26933Y30385D01*
X26944Y30448D01*
X26960Y30602D01*
X26967Y30795D01*
X26969Y30906D01*
X28150Y30906D01*
D02*
G37*
G36*
X28229Y28800D02*
X28213Y28767D01*
X28198Y28723D01*
X28185Y28670D01*
X28174Y28608D01*
X28159Y28453D01*
X28151Y28260D01*
X28150Y28150D01*
X26969D01*
X26967Y28260D01*
X26944Y28608D01*
X26933Y28670D01*
X26920Y28723D01*
X26906Y28767D01*
X26889Y28800D01*
X26870Y28825D01*
X28248D01*
X28229Y28800D01*
D02*
G37*
G36*
X28151Y14062D02*
X28174Y13715D01*
X28185Y13653D01*
X28198Y13599D01*
X28213Y13556D01*
X28229Y13522D01*
X28248Y13498D01*
X26870D01*
X26889Y13522D01*
X26906Y13556D01*
X26920Y13599D01*
X26933Y13653D01*
X26944Y13715D01*
X26960Y13870D01*
X26967Y14062D01*
X26969Y14173D01*
X28150D01*
X28151Y14062D01*
D02*
G37*
G36*
X42639Y53210D02*
X42622Y53176D01*
X42607Y53133D01*
X42595Y53080D01*
X42584Y53017D01*
X42568Y52863D01*
X42560Y52670D01*
X42559Y52559D01*
X41378D01*
X41377Y52670D01*
X41353Y53017D01*
X41342Y53080D01*
X41330Y53133D01*
X41315Y53176D01*
X41298Y53210D01*
X41280Y53234D01*
X42658D01*
X42639Y53210D01*
D02*
G37*
G36*
X20277Y30795D02*
X20300Y30448D01*
X20311Y30385D01*
X20324Y30332D01*
X20339Y30288D01*
X20355Y30255D01*
X20374Y30231D01*
X18996D01*
X19015Y30255D01*
X19031Y30288D01*
X19046Y30332D01*
X19059Y30385D01*
X19070Y30448D01*
X19086Y30602D01*
X19094Y30795D01*
X19094Y30906D01*
X20276D01*
X20277Y30795D01*
D02*
G37*
G36*
X20355Y28800D02*
X20339Y28767D01*
X20324Y28723D01*
X20311Y28670D01*
X20300Y28608D01*
X20277Y28260D01*
X20276Y28150D01*
X19094D01*
X19094Y28260D01*
X19086Y28453D01*
X19070Y28608D01*
X19059Y28670D01*
X19046Y28723D01*
X19031Y28767D01*
X19015Y28800D01*
X18996Y28825D01*
X20374D01*
X20355Y28800D01*
D02*
G37*
G36*
X25001Y14062D02*
X25025Y13715D01*
X25035Y13653D01*
X25048Y13599D01*
X25063Y13556D01*
X25080Y13522D01*
X25098Y13498D01*
X23720D01*
X23739Y13522D01*
X23756Y13556D01*
X23771Y13599D01*
X23784Y13653D01*
X23794Y13715D01*
X23810Y13870D01*
X23818Y14062D01*
X23819Y14173D01*
X25000D01*
X25001Y14062D01*
D02*
G37*
D38*
X-30500Y201500D02*
X-25000Y207000D01*
X-30500Y178500D02*
Y201500D01*
X-25000Y207000D02*
Y222441D01*
X-4949Y186051D02*
Y222441D01*
X30500Y200500D02*
X35000Y205000D01*
Y222441D01*
X9764Y171264D02*
X15000Y176500D01*
Y222441D01*
X-19764Y171236D02*
X-4949Y186051D01*
X-19764Y146653D02*
Y171236D01*
X9764Y146653D02*
Y171264D01*
X30500Y179000D02*
Y200500D01*
Y179000D02*
X40276Y169224D01*
X-36500Y172500D02*
X-30500Y178500D01*
X-45000Y172500D02*
X-36500D01*
X-50276Y167224D02*
X-45000Y172500D01*
X-50276Y146653D02*
Y167224D01*
X40276Y146653D02*
Y169224D01*
D39*
X3937Y35437D02*
X11457Y42957D01*
X3937Y29528D02*
Y35437D01*
X11457Y42957D02*
Y53937D01*
X-11457Y42957D02*
X-3937Y35437D01*
Y29528D02*
Y35437D01*
X-11457Y42957D02*
Y53937D01*
X13000Y26500D02*
X17000D01*
X21260Y12795D02*
Y22240D01*
X17000Y26500D02*
X21260Y22240D01*
X24409Y12795D02*
Y23090D01*
X19685Y27815D02*
X24409Y23090D01*
X19685Y27815D02*
Y35185D01*
X6276Y24724D02*
X15276D01*
X18110Y12795D02*
Y21890D01*
X15276Y24724D02*
X18110Y21890D01*
X12350Y23150D02*
X14961Y20539D01*
X11811Y27689D02*
Y38311D01*
X5532Y23150D02*
X12350D01*
X14961Y12795D02*
Y20539D01*
X9925Y21575D02*
X11811Y19689D01*
Y12795D02*
Y19689D01*
X4879Y21575D02*
X9925D01*
X11811Y27689D02*
X13000Y26500D01*
X4227Y20000D02*
X7000D01*
X4152Y20075D02*
X4227Y20000D01*
X4805Y21650D02*
X4879Y21575D01*
X7000Y20000D02*
X8661Y18339D01*
Y12795D02*
Y18339D01*
X-3937Y25437D02*
X-1724Y23224D01*
X3937Y29528D02*
X4088Y29377D01*
Y26912D02*
Y29377D01*
Y26912D02*
X6276Y24724D01*
X5457Y23224D02*
X5532Y23150D01*
X-1724Y23224D02*
X5457D01*
X-9500Y21650D02*
X4805D01*
X-19685Y23685D02*
X-16075Y20075D01*
X4152D01*
X3500Y18500D02*
X5512Y16488D01*
X-27559Y23559D02*
X-22500Y18500D01*
X-11811Y23961D02*
X-9500Y21650D01*
X-22500Y18500D02*
X3500D01*
X-3937Y25437D02*
Y29528D01*
X-11811Y23961D02*
Y29528D01*
X-19685Y23685D02*
Y29528D01*
X5512Y12795D02*
Y16488D01*
X-27559Y23559D02*
Y29528D01*
X27559Y12795D02*
Y29528D01*
X19685Y35185D02*
X24000Y39500D01*
X27559Y29528D02*
Y32559D01*
X30000Y35000D01*
X39500D01*
X24000Y39500D02*
X37500D01*
X41969Y43968D01*
X39500Y35000D02*
X48583Y44083D01*
X41969Y43968D02*
Y53937D01*
X48583Y44083D02*
Y53937D01*
X-27559Y29528D02*
Y32559D01*
X-30000Y35000D02*
X-27559Y32559D01*
X-39500Y35000D02*
X-30000D01*
X-48583Y44083D02*
X-39500Y35000D01*
X-48583Y44083D02*
Y53937D01*
X-24000Y39500D02*
X-19685Y35185D01*
Y29528D02*
Y35185D01*
X-37500Y39500D02*
X-24000D01*
X-41969Y43968D02*
X-37500Y39500D01*
X-41969Y43968D02*
Y53937D01*
X18071Y44571D02*
Y53937D01*
X11811Y38311D02*
X18071Y44571D01*
X-11811Y29528D02*
Y37811D01*
X-18071Y44071D02*
X-11811Y37811D01*
X-18071Y44071D02*
Y53937D01*
D40*
X-5000Y222441D02*
D03*
X-25000D02*
D03*
X35000D02*
D03*
X15000D02*
D03*
D43*
X-31496Y32480D02*
D03*
X31496D02*
D03*
X23622D02*
D03*
X15748D02*
D03*
X7874D02*
D03*
X0D02*
D03*
X-7874D02*
D03*
X-15748D02*
D03*
X-23622D02*
D03*
X45276Y51181D02*
D03*
X14764D02*
D03*
X-14764D02*
D03*
X-45276D02*
D03*
X55118Y19685D02*
D03*
X-55118D02*
D03*
Y35433D02*
D03*
X55118D02*
D03*
Y51181D02*
D03*
X35433D02*
D03*
X24606D02*
D03*
X4921D02*
D03*
X-4921D02*
D03*
X-24606D02*
D03*
X-55118D02*
D03*
X-35433D02*
D03*
X35433Y66929D02*
D03*
X55118D02*
D03*
X4921D02*
D03*
X24606D02*
D03*
X-24606D02*
D03*
X-4921D02*
D03*
X-35433D02*
D03*
X-55118D02*
D03*
X-50276Y146653D02*
D03*
X40276D02*
D03*
X9764D02*
D03*
X-19764D02*
D03*
X-11811Y29528D02*
D03*
X8661Y12795D02*
D03*
X18110D02*
D03*
X41969Y53937D02*
D03*
X48583D02*
D03*
X18071D02*
D03*
X11457D02*
D03*
X-18071D02*
D03*
X-11457D02*
D03*
X-48583D02*
D03*
X-41969D02*
D03*
X27559Y29528D02*
D03*
X19685D02*
D03*
X11811D02*
D03*
X3937D02*
D03*
X-3937D02*
D03*
X-19685D02*
D03*
X-27559D02*
D03*
X14961Y12795D02*
D03*
X11811D02*
D03*
X27559D02*
D03*
X24409D02*
D03*
X21260D02*
D03*
X5512D02*
D03*
M02*
