G04*
G04 #@! TF.GenerationSoftware,Altium Limited,Altium Designer,22.1.2 (22)*
G04*
G04 Layer_Color=255*
%FSLAX25Y25*%
%MOIN*%
G70*
G04*
G04 #@! TF.SameCoordinates,0E3957D1-4792-4D0B-97BD-F84BD75C4E9A*
G04*
G04*
G04 #@! TF.FilePolarity,Positive*
G04*
G01*
G75*
%ADD27R,0.02362X0.09055*%
%ADD30C,0.05315*%
%ADD31R,0.05315X0.05315*%
%ADD32R,0.20866X0.20866*%
D27*
X61614Y-7283D02*
D03*
X58465D02*
D03*
X55315D02*
D03*
X52165D02*
D03*
X49016D02*
D03*
X45866D02*
D03*
X42717D02*
D03*
X39567D02*
D03*
X36417D02*
D03*
X33268D02*
D03*
X30118D02*
D03*
X26969D02*
D03*
X23819D02*
D03*
X20669D02*
D03*
X17520D02*
D03*
X14370D02*
D03*
X11220D02*
D03*
X8071D02*
D03*
X-7677D02*
D03*
X-10827D02*
D03*
X-13976D02*
D03*
X-17126D02*
D03*
X-20276D02*
D03*
X-23425D02*
D03*
X-26575D02*
D03*
X-29724D02*
D03*
D30*
X394Y200787D02*
D03*
X10236D02*
D03*
X-29134D02*
D03*
X-9449D02*
D03*
X-19291D02*
D03*
X49606D02*
D03*
X39764D02*
D03*
X29921D02*
D03*
X20079D02*
D03*
D31*
X59449D02*
D03*
D32*
X-32480Y176378D02*
D03*
X62795D02*
D03*
M02*
