G04*
G04 #@! TF.GenerationSoftware,Altium Limited,Altium Designer,22.1.2 (22)*
G04*
G04 Layer_Color=16711935*
%FSLAX25Y25*%
%MOIN*%
G70*
G04*
G04 #@! TF.SameCoordinates,0E3957D1-4792-4D0B-97BD-F84BD75C4E9A*
G04*
G04*
G04 #@! TF.FilePolarity,Negative*
G04*
G01*
G75*
%ADD18R,1.03150X0.11516*%
%ADD23R,0.02441X0.09134*%
%ADD24C,0.05915*%
%ADD25R,0.05915X0.05915*%
%ADD26R,0.20945X0.20945*%
D18*
X15157Y-8022D02*
D03*
D23*
X61614Y-7283D02*
D03*
X58465D02*
D03*
X55315D02*
D03*
X52165D02*
D03*
X49016D02*
D03*
X45866D02*
D03*
X42717D02*
D03*
X39567D02*
D03*
X36417D02*
D03*
X33268D02*
D03*
X30118D02*
D03*
X26969D02*
D03*
X23819D02*
D03*
X20669D02*
D03*
X17520D02*
D03*
X14370D02*
D03*
X11220D02*
D03*
X8071D02*
D03*
X-7677D02*
D03*
X-10827D02*
D03*
X-13976D02*
D03*
X-17126D02*
D03*
X-20276D02*
D03*
X-23425D02*
D03*
X-26575D02*
D03*
X-29724D02*
D03*
D24*
X394Y200787D02*
D03*
X10236D02*
D03*
X-29134D02*
D03*
X-9449D02*
D03*
X-19291D02*
D03*
X49606D02*
D03*
X39764D02*
D03*
X29921D02*
D03*
X20079D02*
D03*
D25*
X59449D02*
D03*
D26*
X-32480Y176378D02*
D03*
X62795D02*
D03*
M02*
