G04*
G04 #@! TF.GenerationSoftware,Altium Limited,Altium Designer,22.1.2 (22)*
G04*
G04 Layer_Color=32896*
%FSLAX25Y25*%
%MOIN*%
G70*
G04*
G04 #@! TF.SameCoordinates,0E3957D1-4792-4D0B-97BD-F84BD75C4E9A*
G04*
G04*
G04 #@! TF.FilePolarity,Positive*
G04*
G01*
G75*
%ADD35C,0.00039*%
%ADD36C,0.00079*%
D35*
X-17815Y130905D02*
Y136811D01*
X-20768Y130905D02*
Y136811D01*
Y130905D02*
X-17815D01*
X-20768Y136811D02*
X-17815D01*
X-20276Y133858D02*
X-18307D01*
X-19291Y132874D02*
Y134843D01*
X39764Y77756D02*
Y79724D01*
X38780Y78740D02*
X40748D01*
X18110Y62992D02*
X61417D01*
Y94488D01*
X18110Y62992D02*
Y94488D01*
X61417D01*
X-9449Y77756D02*
Y79724D01*
X-10433Y78740D02*
X-8465D01*
X-31102Y62992D02*
X12205D01*
Y94488D01*
X-31102Y62992D02*
Y94488D01*
X12205D01*
X48622Y149606D02*
X50591D01*
X49607Y148622D02*
Y150591D01*
X46457Y144095D02*
Y155118D01*
X52756Y144095D02*
Y155118D01*
X46457D02*
X52756D01*
X46457Y144095D02*
X52756D01*
X38780Y149606D02*
X40748D01*
X39764Y148622D02*
Y150591D01*
X36615Y144095D02*
Y155118D01*
X42914Y144095D02*
Y155118D01*
X36615D02*
X42914D01*
X36615Y144095D02*
X42914D01*
X28937Y149606D02*
X30906D01*
X29922Y148622D02*
Y150591D01*
X26772Y144095D02*
Y155118D01*
X33071Y144095D02*
Y155118D01*
X26772D02*
X33071D01*
X26772Y144095D02*
X33071D01*
X19095Y149606D02*
X21063D01*
X20079Y148622D02*
Y150591D01*
X16929Y144095D02*
Y155118D01*
X23229Y144095D02*
Y155118D01*
X16929D02*
X23229D01*
X16929Y144095D02*
X23229D01*
X9252Y149606D02*
X11221D01*
X10237Y148622D02*
Y150591D01*
X7087Y144095D02*
Y155118D01*
X13386Y144095D02*
Y155118D01*
X7087D02*
X13386D01*
X7087Y144095D02*
X13386D01*
X-590Y149606D02*
X1378D01*
X394Y148622D02*
Y150591D01*
X-2756Y144095D02*
Y155118D01*
X3544Y144095D02*
Y155118D01*
X-2756D02*
X3544D01*
X-2756Y144095D02*
X3544D01*
X-10433Y149606D02*
X-8464D01*
X-9448Y148622D02*
Y150591D01*
X-12598Y144095D02*
Y155118D01*
X-6299Y144095D02*
Y155118D01*
X-12598D02*
X-6299D01*
X-12598Y144095D02*
X-6299D01*
X-20275Y149606D02*
X-18307D01*
X-19291Y148622D02*
Y150591D01*
X-22441Y144095D02*
Y155118D01*
X-16141Y144095D02*
Y155118D01*
X-22441D02*
X-16141D01*
X-22441Y144095D02*
X-16141D01*
X50787Y56102D02*
X53740D01*
X50787Y62008D02*
X53740D01*
Y56102D02*
Y62008D01*
X50787Y56102D02*
Y62008D01*
X52264Y58071D02*
Y60039D01*
X51279Y59055D02*
X53248D01*
X40787Y56102D02*
X43740D01*
X40787Y62008D02*
X43740D01*
Y56102D02*
Y62008D01*
X40787Y56102D02*
Y62008D01*
X42264Y58071D02*
Y60039D01*
X41280Y59055D02*
X43248D01*
X30787Y56102D02*
X33740D01*
X30787Y62008D02*
X33740D01*
Y56102D02*
Y62008D01*
X30787Y56102D02*
Y62008D01*
X32264Y58071D02*
Y60039D01*
X31280Y59055D02*
X33248D01*
X20787Y56102D02*
X23740D01*
X20787Y62008D02*
X23740D01*
Y56102D02*
Y62008D01*
X20787Y56102D02*
Y62008D01*
X22264Y58071D02*
Y60039D01*
X21280Y59055D02*
X23248D01*
X1575Y56102D02*
X4528D01*
X1575Y62008D02*
X4528D01*
Y56102D02*
Y62008D01*
X1575Y56102D02*
Y62008D01*
X3051Y58071D02*
Y60039D01*
X2067Y59055D02*
X4035D01*
X-8425Y56102D02*
X-5472D01*
X-8425Y62008D02*
X-5472D01*
Y56102D02*
Y62008D01*
X-8425Y56102D02*
Y62008D01*
X-6949Y58071D02*
Y60039D01*
X-7933Y59055D02*
X-5965D01*
X-18425Y56102D02*
X-15472D01*
X-18425Y62008D02*
X-15472D01*
Y56102D02*
Y62008D01*
X-18425Y56102D02*
Y62008D01*
X-16949Y58071D02*
Y60039D01*
X-17933Y59055D02*
X-15965D01*
X-28425Y56102D02*
X-25472D01*
X-28425Y62008D02*
X-25472D01*
Y56102D02*
Y62008D01*
X-28425Y56102D02*
Y62008D01*
X-26949Y58071D02*
Y60039D01*
X-27933Y59055D02*
X-25965D01*
X14173Y200787D02*
X16142D01*
X15157Y199803D02*
Y201772D01*
X66339Y188976D02*
Y238189D01*
X-36024D02*
X66339D01*
X-36024Y188976D02*
Y238189D01*
Y188976D02*
X66339D01*
X51083Y130905D02*
Y136811D01*
X48130Y130905D02*
Y136811D01*
Y130905D02*
X51083D01*
X48130Y136811D02*
X51083D01*
X48622Y133858D02*
X50591D01*
X49606Y132874D02*
Y134843D01*
X41240Y130905D02*
Y136811D01*
X38287Y130905D02*
Y136811D01*
Y130905D02*
X41240D01*
X38287Y136811D02*
X41240D01*
X38780Y133858D02*
X40748D01*
X39764Y132874D02*
Y134843D01*
X31398Y130905D02*
Y136811D01*
X28445Y130905D02*
Y136811D01*
Y130905D02*
X31398D01*
X28445Y136811D02*
X31398D01*
X28937Y133858D02*
X30906D01*
X29921Y132874D02*
Y134843D01*
X21555Y130905D02*
Y136811D01*
X18602Y130905D02*
Y136811D01*
Y130905D02*
X21555D01*
X18602Y136811D02*
X21555D01*
X19094Y133858D02*
X21063D01*
X20079Y132874D02*
Y134843D01*
X11713Y130905D02*
Y136811D01*
X8760Y130905D02*
Y136811D01*
Y130905D02*
X11713D01*
X8760Y136811D02*
X11713D01*
X9252Y133858D02*
X11220D01*
X10236Y132874D02*
Y134843D01*
X1870Y130905D02*
Y136811D01*
X-1083Y130905D02*
Y136811D01*
Y130905D02*
X1870D01*
X-1083Y136811D02*
X1870D01*
X-591Y133858D02*
X1378D01*
X394Y132874D02*
Y134843D01*
X-7972Y130905D02*
Y136811D01*
X-10925Y130905D02*
Y136811D01*
Y130905D02*
X-7972D01*
X-10925Y136811D02*
X-7972D01*
X-10433Y133858D02*
X-8465D01*
X-9449Y132874D02*
Y134843D01*
D36*
X55787Y62008D02*
X58740D01*
X56279Y59055D02*
X58248D01*
X57264Y58071D02*
Y60039D01*
X58740Y56102D02*
Y62008D01*
X55787Y56102D02*
Y62008D01*
Y56102D02*
X58740D01*
X45787Y62008D02*
X48740D01*
X46279Y59055D02*
X48248D01*
X47264Y58071D02*
Y60039D01*
X48740Y56102D02*
Y62008D01*
X45787Y56102D02*
Y62008D01*
Y56102D02*
X48740D01*
X35787Y62008D02*
X38740D01*
X36279Y59055D02*
X38248D01*
X37264Y58071D02*
Y60039D01*
X38740Y56102D02*
Y62008D01*
X35787Y56102D02*
Y62008D01*
Y56102D02*
X38740D01*
X25787Y62008D02*
X28740D01*
X26280Y59055D02*
X28248D01*
X27264Y58071D02*
Y60039D01*
X28740Y56102D02*
Y62008D01*
X25787Y56102D02*
Y62008D01*
Y56102D02*
X28740D01*
X6575Y62008D02*
X9528D01*
X7067Y59055D02*
X9035D01*
X8051Y58071D02*
Y60039D01*
X9528Y56102D02*
Y62008D01*
X6575Y56102D02*
Y62008D01*
Y56102D02*
X9528D01*
X-3425Y62008D02*
X-472D01*
X-2933Y59055D02*
X-965D01*
X-1949Y58071D02*
Y60039D01*
X-472Y56102D02*
Y62008D01*
X-3425Y56102D02*
Y62008D01*
Y56102D02*
X-472D01*
X-13425Y62008D02*
X-10472D01*
X-12933Y59055D02*
X-10965D01*
X-11949Y58071D02*
Y60039D01*
X-10472Y56102D02*
Y62008D01*
X-13425Y56102D02*
Y62008D01*
Y56102D02*
X-10472D01*
X-23425Y62008D02*
X-20472D01*
X-22933Y59055D02*
X-20965D01*
X-21949Y58071D02*
Y60039D01*
X-20472Y56102D02*
Y62008D01*
X-23425Y56102D02*
Y62008D01*
Y56102D02*
X-20472D01*
M02*
