G04*
G04 #@! TF.GenerationSoftware,Altium Limited,Altium Designer,24.7.2 (38)*
G04*
G04 Layer_Physical_Order=1*
G04 Layer_Color=255*
%FSLAX25Y25*%
%MOIN*%
G70*
G04*
G04 #@! TF.SameCoordinates,4FEF5C06-4E4D-4149-9763-4A6A228635AC*
G04*
G04*
G04 #@! TF.FilePolarity,Positive*
G04*
G01*
G75*
%ADD10C,0.00787*%
%ADD13R,0.05512X0.02756*%
%ADD14R,0.03937X0.03937*%
%ADD15R,0.03937X0.05906*%
%ADD16R,0.03000X0.03937*%
%ADD17R,0.01850X0.02047*%
%ADD18R,0.03150X0.03937*%
%ADD19R,0.02047X0.01850*%
%ADD20R,0.02362X0.01968*%
%ADD36R,0.10512X0.09055*%
%ADD37R,0.02362X0.09055*%
%ADD38C,0.01968*%
%ADD39C,0.01181*%
%ADD40C,0.07087*%
G04:AMPARAMS|DCode=41|XSize=70.87mil|YSize=70.87mil|CornerRadius=8.86mil|HoleSize=0mil|Usage=FLASHONLY|Rotation=0.000|XOffset=0mil|YOffset=0mil|HoleType=Round|Shape=RoundedRectangle|*
%AMROUNDEDRECTD41*
21,1,0.07087,0.05315,0,0,0.0*
21,1,0.05315,0.07087,0,0,0.0*
1,1,0.01772,0.02657,-0.02657*
1,1,0.01772,-0.02657,-0.02657*
1,1,0.01772,-0.02657,0.02657*
1,1,0.01772,0.02657,0.02657*
%
%ADD41ROUNDEDRECTD41*%
%ADD42R,0.20866X0.20866*%
%ADD43C,0.01968*%
G36*
X40162Y163378D02*
X40076Y163319D01*
X40001Y163221D01*
X39935Y163083D01*
X39880Y162906D01*
X39834Y162689D01*
X39799Y162433D01*
X39759Y161803D01*
X39754Y161429D01*
X37785D01*
X37780Y161803D01*
X37705Y162689D01*
X37659Y162906D01*
X37604Y163083D01*
X37539Y163221D01*
X37463Y163319D01*
X37377Y163378D01*
X37282Y163398D01*
X40258D01*
X40162Y163378D01*
D02*
G37*
G36*
X9650D02*
X9565Y163319D01*
X9489Y163221D01*
X9424Y163083D01*
X9368Y162906D01*
X9323Y162689D01*
X9287Y162433D01*
X9247Y161803D01*
X9242Y161429D01*
X7274D01*
X7269Y161803D01*
X7193Y162689D01*
X7148Y162906D01*
X7092Y163083D01*
X7027Y163221D01*
X6951Y163319D01*
X6866Y163378D01*
X6770Y163398D01*
X9746D01*
X9650Y163378D01*
D02*
G37*
G36*
X-19877D02*
X-19963Y163319D01*
X-20039Y163221D01*
X-20104Y163083D01*
X-20159Y162906D01*
X-20205Y162689D01*
X-20240Y162433D01*
X-20280Y161803D01*
X-20285Y161429D01*
X-22254D01*
X-22259Y161803D01*
X-22334Y162689D01*
X-22380Y162906D01*
X-22435Y163083D01*
X-22501Y163221D01*
X-22576Y163319D01*
X-22662Y163378D01*
X-22758Y163398D01*
X-19782D01*
X-19877Y163378D01*
D02*
G37*
G36*
X-50389D02*
X-50475Y163319D01*
X-50550Y163221D01*
X-50616Y163083D01*
X-50671Y162906D01*
X-50717Y162689D01*
X-50752Y162433D01*
X-50792Y161803D01*
X-50797Y161429D01*
X-52766D01*
X-52771Y161803D01*
X-52846Y162689D01*
X-52892Y162906D01*
X-52947Y163083D01*
X-53013Y163221D01*
X-53088Y163319D01*
X-53174Y163378D01*
X-53269Y163398D01*
X-50293D01*
X-50389Y163378D01*
D02*
G37*
G36*
X58052Y200787D02*
X36024D01*
Y177559D01*
X58052D01*
Y160500D01*
X53675D01*
Y164961D01*
X48026D01*
Y165354D01*
X47632D01*
Y170276D01*
X42376D01*
Y169628D01*
X42238Y169291D01*
X35301D01*
Y163531D01*
X35275Y163398D01*
X35301Y163264D01*
Y161417D01*
X35778D01*
X35779Y161402D01*
X35792Y161342D01*
Y160500D01*
X32700D01*
Y170648D01*
X32609Y171108D01*
X32309Y171832D01*
X32048Y172222D01*
X31494Y172776D01*
X31104Y173037D01*
X30380Y173337D01*
X29919Y173429D01*
X29136D01*
X28675Y173337D01*
X27952Y173037D01*
X27561Y172776D01*
X27007Y172222D01*
X26746Y171832D01*
X26447Y171108D01*
X26355Y170648D01*
Y160500D01*
X23163D01*
Y164961D01*
X17514D01*
Y165354D01*
X17120D01*
Y170276D01*
X11864D01*
Y169628D01*
X11726Y169291D01*
X4789D01*
Y163531D01*
X4763Y163398D01*
X4789Y163264D01*
Y161417D01*
X5266D01*
X5267Y161402D01*
X5280Y161342D01*
Y160500D01*
X3173D01*
Y170167D01*
X3081Y170628D01*
X2781Y171352D01*
X2520Y171742D01*
X1967Y172296D01*
X1576Y172557D01*
X852Y172857D01*
X392Y172948D01*
X-392D01*
X-852Y172857D01*
X-1576Y172557D01*
X-1967Y172296D01*
X-2520Y171742D01*
X-2781Y171352D01*
X-3081Y170628D01*
X-3173Y170167D01*
Y160500D01*
X-6364D01*
Y164961D01*
X-12014D01*
Y165354D01*
X-12408D01*
Y170276D01*
X-17663D01*
Y169628D01*
X-17801Y169291D01*
X-24738D01*
Y163531D01*
X-24765Y163398D01*
X-24738Y163264D01*
Y161417D01*
X-24261D01*
X-24261Y161402D01*
X-24248Y161342D01*
Y160500D01*
X-26355D01*
Y170667D01*
X-26447Y171128D01*
X-26746Y171852D01*
X-27007Y172242D01*
X-27561Y172796D01*
X-27952Y173057D01*
X-28675Y173357D01*
X-29136Y173448D01*
X-29919D01*
X-30380Y173357D01*
X-31104Y173057D01*
X-31494Y172796D01*
X-32048Y172242D01*
X-32309Y171852D01*
X-32609Y171128D01*
X-32700Y170667D01*
Y160500D01*
X-36876D01*
Y164961D01*
X-42526D01*
Y165354D01*
X-42919D01*
Y170276D01*
X-48175D01*
Y169628D01*
X-48313Y169291D01*
X-55250D01*
Y163531D01*
X-55277Y163398D01*
X-55250Y163264D01*
Y161417D01*
X-54773D01*
X-54773Y161402D01*
X-54760Y161342D01*
Y160500D01*
X-58052D01*
Y177559D01*
X-36024D01*
Y200787D01*
X-58052D01*
Y232264D01*
X58052D01*
Y200787D01*
D02*
G37*
G36*
X52057Y160831D02*
X51890Y160772D01*
X51742Y160672D01*
X51614Y160534D01*
X51506Y160356D01*
X51417Y160138D01*
X51348Y159880D01*
X51299Y159583D01*
X51270Y159247D01*
X51267Y159153D01*
X51270Y159063D01*
X51299Y158728D01*
X51347Y158433D01*
X51415Y158177D01*
X51503Y157960D01*
X51610Y157783D01*
X51736Y157645D01*
X51882Y157547D01*
X52047Y157488D01*
X52232Y157468D01*
X48319D01*
X48504Y157488D01*
X48669Y157547D01*
X48815Y157645D01*
X48941Y157783D01*
X49048Y157960D01*
X49136Y158177D01*
X49204Y158433D01*
X49252Y158728D01*
X49282Y159063D01*
X49284Y159153D01*
X49281Y159247D01*
X49252Y159583D01*
X49203Y159880D01*
X49134Y160138D01*
X49045Y160356D01*
X48937Y160534D01*
X48809Y160672D01*
X48661Y160772D01*
X48494Y160831D01*
X48307Y160851D01*
X52244D01*
X52057Y160831D01*
D02*
G37*
G36*
X40284Y158920D02*
X40308Y158615D01*
X40348Y158346D01*
X40405Y158113D01*
X40477Y157916D01*
X40566Y157755D01*
X40671Y157630D01*
X40792Y157540D01*
X40929Y157486D01*
X41083Y157468D01*
X38319D01*
X38317Y157486D01*
X38315Y157540D01*
X38307Y159260D01*
X40276D01*
X40284Y158920D01*
D02*
G37*
G36*
X21545Y160831D02*
X21378Y160772D01*
X21230Y160672D01*
X21102Y160534D01*
X20994Y160356D01*
X20906Y160138D01*
X20837Y159880D01*
X20787Y159583D01*
X20758Y159247D01*
X20755Y159153D01*
X20758Y159063D01*
X20787Y158728D01*
X20835Y158433D01*
X20904Y158177D01*
X20991Y157960D01*
X21098Y157783D01*
X21224Y157645D01*
X21370Y157547D01*
X21536Y157488D01*
X21720Y157468D01*
X17807D01*
X17992Y157488D01*
X18157Y157547D01*
X18303Y157645D01*
X18429Y157783D01*
X18537Y157960D01*
X18624Y158177D01*
X18692Y158433D01*
X18741Y158728D01*
X18770Y159063D01*
X18772Y159153D01*
X18770Y159247D01*
X18740Y159583D01*
X18691Y159880D01*
X18622Y160138D01*
X18533Y160356D01*
X18425Y160534D01*
X18297Y160672D01*
X18150Y160772D01*
X17982Y160831D01*
X17795Y160851D01*
X21732D01*
X21545Y160831D01*
D02*
G37*
G36*
X9772Y158920D02*
X9796Y158615D01*
X9836Y158346D01*
X9893Y158113D01*
X9966Y157916D01*
X10054Y157755D01*
X10159Y157630D01*
X10280Y157540D01*
X10418Y157486D01*
X10571Y157468D01*
X7807D01*
X7805Y157486D01*
X7803Y157540D01*
X7795Y159260D01*
X9764D01*
X9772Y158920D01*
D02*
G37*
G36*
X-7982Y160831D02*
X-8150Y160772D01*
X-8297Y160672D01*
X-8425Y160534D01*
X-8534Y160356D01*
X-8622Y160138D01*
X-8691Y159880D01*
X-8740Y159583D01*
X-8770Y159247D01*
X-8772Y159153D01*
X-8770Y159063D01*
X-8741Y158728D01*
X-8692Y158433D01*
X-8624Y158177D01*
X-8536Y157960D01*
X-8429Y157783D01*
X-8303Y157645D01*
X-8157Y157547D01*
X-7992Y157488D01*
X-7807Y157468D01*
X-11720D01*
X-11536Y157488D01*
X-11370Y157547D01*
X-11224Y157645D01*
X-11098Y157783D01*
X-10991Y157960D01*
X-10904Y158177D01*
X-10836Y158433D01*
X-10787Y158728D01*
X-10758Y159063D01*
X-10755Y159153D01*
X-10758Y159247D01*
X-10787Y159583D01*
X-10837Y159880D01*
X-10905Y160138D01*
X-10994Y160356D01*
X-11102Y160534D01*
X-11230Y160672D01*
X-11378Y160772D01*
X-11545Y160831D01*
X-11732Y160851D01*
X-7795D01*
X-7982Y160831D01*
D02*
G37*
G36*
X-19756Y158920D02*
X-19732Y158615D01*
X-19691Y158346D01*
X-19635Y158113D01*
X-19562Y157916D01*
X-19473Y157755D01*
X-19368Y157630D01*
X-19247Y157540D01*
X-19110Y157486D01*
X-18957Y157468D01*
X-21720D01*
X-21723Y157486D01*
X-21725Y157540D01*
X-21732Y159260D01*
X-19764D01*
X-19756Y158920D01*
D02*
G37*
G36*
X-38494Y160831D02*
X-38661Y160772D01*
X-38809Y160672D01*
X-38937Y160534D01*
X-39045Y160356D01*
X-39134Y160138D01*
X-39203Y159880D01*
X-39252Y159583D01*
X-39281Y159247D01*
X-39284Y159153D01*
X-39282Y159063D01*
X-39252Y158728D01*
X-39204Y158433D01*
X-39136Y158177D01*
X-39048Y157960D01*
X-38941Y157783D01*
X-38815Y157645D01*
X-38669Y157547D01*
X-38504Y157488D01*
X-38319Y157468D01*
X-42232D01*
X-42047Y157488D01*
X-41882Y157547D01*
X-41736Y157645D01*
X-41610Y157783D01*
X-41503Y157960D01*
X-41415Y158177D01*
X-41347Y158433D01*
X-41299Y158728D01*
X-41270Y159063D01*
X-41267Y159153D01*
X-41270Y159247D01*
X-41299Y159583D01*
X-41348Y159880D01*
X-41417Y160138D01*
X-41506Y160356D01*
X-41614Y160534D01*
X-41742Y160672D01*
X-41890Y160772D01*
X-42057Y160831D01*
X-42244Y160851D01*
X-38307D01*
X-38494Y160831D01*
D02*
G37*
G36*
X-50267Y158920D02*
X-50243Y158615D01*
X-50203Y158346D01*
X-50146Y158113D01*
X-50074Y157916D01*
X-49985Y157755D01*
X-49880Y157630D01*
X-49759Y157540D01*
X-49622Y157486D01*
X-49468Y157468D01*
X-52232D01*
X-52234Y157486D01*
X-52236Y157540D01*
X-52244Y159260D01*
X-50276D01*
X-50267Y158920D01*
D02*
G37*
G36*
X42047Y151567D02*
X41882Y151508D01*
X41736Y151410D01*
X41610Y151272D01*
X41503Y151095D01*
X41415Y150878D01*
X41347Y150622D01*
X41299Y150327D01*
X41270Y149992D01*
X41260Y149618D01*
X39291D01*
X39282Y149992D01*
X39252Y150327D01*
X39204Y150622D01*
X39136Y150878D01*
X39048Y151095D01*
X38941Y151272D01*
X38815Y151410D01*
X38669Y151508D01*
X38504Y151567D01*
X38319Y151587D01*
X42232D01*
X42047Y151567D01*
D02*
G37*
G36*
X11536D02*
X11370Y151508D01*
X11224Y151410D01*
X11098Y151272D01*
X10991Y151095D01*
X10904Y150878D01*
X10836Y150622D01*
X10787Y150327D01*
X10758Y149992D01*
X10748Y149618D01*
X8779D01*
X8770Y149992D01*
X8741Y150327D01*
X8692Y150622D01*
X8624Y150878D01*
X8536Y151095D01*
X8429Y151272D01*
X8303Y151410D01*
X8157Y151508D01*
X7992Y151567D01*
X7807Y151587D01*
X11720D01*
X11536Y151567D01*
D02*
G37*
G36*
X-17992D02*
X-18157Y151508D01*
X-18303Y151410D01*
X-18429Y151272D01*
X-18537Y151095D01*
X-18624Y150878D01*
X-18692Y150622D01*
X-18741Y150327D01*
X-18770Y149992D01*
X-18779Y149618D01*
X-20748D01*
X-20758Y149992D01*
X-20787Y150327D01*
X-20835Y150622D01*
X-20904Y150878D01*
X-20991Y151095D01*
X-21098Y151272D01*
X-21224Y151410D01*
X-21370Y151508D01*
X-21536Y151567D01*
X-21720Y151587D01*
X-17807D01*
X-17992Y151567D01*
D02*
G37*
G36*
X-48504D02*
X-48669Y151508D01*
X-48815Y151410D01*
X-48941Y151272D01*
X-49048Y151095D01*
X-49136Y150878D01*
X-49204Y150622D01*
X-49252Y150327D01*
X-49282Y149992D01*
X-49291Y149618D01*
X-51260D01*
X-51270Y149992D01*
X-51299Y150327D01*
X-51347Y150622D01*
X-51415Y150878D01*
X-51503Y151095D01*
X-51610Y151272D01*
X-51736Y151410D01*
X-51882Y151508D01*
X-52047Y151567D01*
X-52232Y151587D01*
X-48319D01*
X-48504Y151567D01*
D02*
G37*
G36*
X52047Y125977D02*
X51882Y125917D01*
X51736Y125819D01*
X51610Y125681D01*
X51503Y125504D01*
X51415Y125288D01*
X51347Y125032D01*
X51299Y124736D01*
X51285Y124577D01*
X51299Y124413D01*
X51348Y124116D01*
X51417Y123858D01*
X51506Y123640D01*
X51614Y123462D01*
X51742Y123324D01*
X51890Y123224D01*
X52057Y123165D01*
X52244Y123145D01*
X48307D01*
X48494Y123165D01*
X48661Y123224D01*
X48809Y123324D01*
X48937Y123462D01*
X49045Y123640D01*
X49134Y123858D01*
X49203Y124116D01*
X49252Y124413D01*
X49266Y124577D01*
X49253Y124736D01*
X49204Y125032D01*
X49136Y125288D01*
X49048Y125504D01*
X48941Y125681D01*
X48815Y125819D01*
X48669Y125917D01*
X48504Y125977D01*
X48319Y125996D01*
X52232D01*
X52047Y125977D01*
D02*
G37*
G36*
X42047D02*
X41882Y125917D01*
X41736Y125819D01*
X41610Y125681D01*
X41503Y125504D01*
X41415Y125288D01*
X41347Y125032D01*
X41299Y124736D01*
X41285Y124577D01*
X41299Y124413D01*
X41348Y124116D01*
X41417Y123858D01*
X41506Y123640D01*
X41614Y123462D01*
X41742Y123324D01*
X41890Y123224D01*
X42057Y123165D01*
X42244Y123145D01*
X38307D01*
X38494Y123165D01*
X38661Y123224D01*
X38809Y123324D01*
X38937Y123462D01*
X39045Y123640D01*
X39134Y123858D01*
X39203Y124116D01*
X39252Y124413D01*
X39266Y124577D01*
X39252Y124736D01*
X39204Y125032D01*
X39136Y125288D01*
X39048Y125504D01*
X38941Y125681D01*
X38815Y125819D01*
X38669Y125917D01*
X38504Y125977D01*
X38319Y125996D01*
X42232D01*
X42047Y125977D01*
D02*
G37*
G36*
X21536D02*
X21370Y125917D01*
X21224Y125819D01*
X21098Y125681D01*
X20991Y125504D01*
X20904Y125288D01*
X20835Y125032D01*
X20787Y124736D01*
X20773Y124577D01*
X20787Y124413D01*
X20837Y124116D01*
X20906Y123858D01*
X20994Y123640D01*
X21102Y123462D01*
X21230Y123324D01*
X21378Y123224D01*
X21545Y123165D01*
X21732Y123145D01*
X17795D01*
X17982Y123165D01*
X18150Y123224D01*
X18297Y123324D01*
X18425Y123462D01*
X18533Y123640D01*
X18622Y123858D01*
X18691Y124116D01*
X18740Y124413D01*
X18755Y124577D01*
X18741Y124736D01*
X18692Y125032D01*
X18624Y125288D01*
X18537Y125504D01*
X18429Y125681D01*
X18303Y125819D01*
X18157Y125917D01*
X17992Y125977D01*
X17807Y125996D01*
X21720D01*
X21536Y125977D01*
D02*
G37*
G36*
X11536D02*
X11370Y125917D01*
X11224Y125819D01*
X11098Y125681D01*
X10991Y125504D01*
X10904Y125288D01*
X10836Y125032D01*
X10787Y124736D01*
X10773Y124577D01*
X10787Y124413D01*
X10837Y124116D01*
X10905Y123858D01*
X10994Y123640D01*
X11102Y123462D01*
X11230Y123324D01*
X11378Y123224D01*
X11545Y123165D01*
X11732Y123145D01*
X7795D01*
X7982Y123165D01*
X8150Y123224D01*
X8297Y123324D01*
X8425Y123462D01*
X8534Y123640D01*
X8622Y123858D01*
X8691Y124116D01*
X8740Y124413D01*
X8755Y124577D01*
X8741Y124736D01*
X8692Y125032D01*
X8624Y125288D01*
X8536Y125504D01*
X8429Y125681D01*
X8303Y125819D01*
X8157Y125917D01*
X7992Y125977D01*
X7807Y125996D01*
X11720D01*
X11536Y125977D01*
D02*
G37*
G36*
X-7992D02*
X-8157Y125917D01*
X-8303Y125819D01*
X-8429Y125681D01*
X-8536Y125504D01*
X-8624Y125288D01*
X-8692Y125032D01*
X-8741Y124736D01*
X-8755Y124577D01*
X-8740Y124413D01*
X-8691Y124116D01*
X-8622Y123858D01*
X-8534Y123640D01*
X-8425Y123462D01*
X-8297Y123324D01*
X-8150Y123224D01*
X-7982Y123165D01*
X-7795Y123145D01*
X-11732D01*
X-11545Y123165D01*
X-11378Y123224D01*
X-11230Y123324D01*
X-11102Y123462D01*
X-10994Y123640D01*
X-10905Y123858D01*
X-10837Y124116D01*
X-10787Y124413D01*
X-10773Y124577D01*
X-10787Y124736D01*
X-10836Y125032D01*
X-10904Y125288D01*
X-10991Y125504D01*
X-11098Y125681D01*
X-11224Y125819D01*
X-11370Y125917D01*
X-11536Y125977D01*
X-11720Y125996D01*
X-7807D01*
X-7992Y125977D01*
D02*
G37*
G36*
X-17992D02*
X-18157Y125917D01*
X-18303Y125819D01*
X-18429Y125681D01*
X-18537Y125504D01*
X-18624Y125288D01*
X-18692Y125032D01*
X-18741Y124736D01*
X-18755Y124577D01*
X-18740Y124413D01*
X-18691Y124116D01*
X-18622Y123858D01*
X-18533Y123640D01*
X-18425Y123462D01*
X-18297Y123324D01*
X-18150Y123224D01*
X-17982Y123165D01*
X-17795Y123145D01*
X-21732D01*
X-21545Y123165D01*
X-21378Y123224D01*
X-21230Y123324D01*
X-21102Y123462D01*
X-20994Y123640D01*
X-20906Y123858D01*
X-20837Y124116D01*
X-20787Y124413D01*
X-20773Y124577D01*
X-20787Y124736D01*
X-20835Y125032D01*
X-20904Y125288D01*
X-20991Y125504D01*
X-21098Y125681D01*
X-21224Y125819D01*
X-21370Y125917D01*
X-21536Y125977D01*
X-21720Y125996D01*
X-17807D01*
X-17992Y125977D01*
D02*
G37*
G36*
X-38504D02*
X-38669Y125917D01*
X-38815Y125819D01*
X-38941Y125681D01*
X-39048Y125504D01*
X-39136Y125288D01*
X-39204Y125032D01*
X-39252Y124736D01*
X-39266Y124577D01*
X-39252Y124413D01*
X-39203Y124116D01*
X-39134Y123858D01*
X-39045Y123640D01*
X-38937Y123462D01*
X-38809Y123324D01*
X-38661Y123224D01*
X-38494Y123165D01*
X-38307Y123145D01*
X-42244D01*
X-42057Y123165D01*
X-41890Y123224D01*
X-41742Y123324D01*
X-41614Y123462D01*
X-41506Y123640D01*
X-41417Y123858D01*
X-41348Y124116D01*
X-41299Y124413D01*
X-41285Y124577D01*
X-41299Y124736D01*
X-41347Y125032D01*
X-41415Y125288D01*
X-41503Y125504D01*
X-41610Y125681D01*
X-41736Y125819D01*
X-41882Y125917D01*
X-42047Y125977D01*
X-42232Y125996D01*
X-38319D01*
X-38504Y125977D01*
D02*
G37*
G36*
X-48504D02*
X-48669Y125917D01*
X-48815Y125819D01*
X-48941Y125681D01*
X-49048Y125504D01*
X-49136Y125288D01*
X-49204Y125032D01*
X-49252Y124736D01*
X-49266Y124577D01*
X-49252Y124413D01*
X-49203Y124116D01*
X-49134Y123858D01*
X-49045Y123640D01*
X-48937Y123462D01*
X-48809Y123324D01*
X-48661Y123224D01*
X-48494Y123165D01*
X-48307Y123145D01*
X-52244D01*
X-52057Y123165D01*
X-51890Y123224D01*
X-51742Y123324D01*
X-51614Y123462D01*
X-51506Y123640D01*
X-51417Y123858D01*
X-51348Y124116D01*
X-51299Y124413D01*
X-51285Y124577D01*
X-51299Y124736D01*
X-51347Y125032D01*
X-51415Y125288D01*
X-51503Y125504D01*
X-51610Y125681D01*
X-51736Y125819D01*
X-51882Y125917D01*
X-52047Y125977D01*
X-52232Y125996D01*
X-48319D01*
X-48504Y125977D01*
D02*
G37*
G36*
X51266Y113075D02*
X52244D01*
X52057Y113055D01*
X51890Y112996D01*
X51742Y112897D01*
X51614Y112758D01*
X51506Y112580D01*
X51417Y112362D01*
X51375Y112205D01*
X51417Y112047D01*
X51506Y111829D01*
X51614Y111651D01*
X51742Y111512D01*
X51890Y111414D01*
X52057Y111354D01*
X52244Y111334D01*
X51266D01*
X51260Y111095D01*
X49291D01*
X49285Y111334D01*
X48307D01*
X48494Y111354D01*
X48661Y111414D01*
X48809Y111512D01*
X48937Y111651D01*
X49045Y111829D01*
X49134Y112047D01*
X49176Y112205D01*
X49134Y112362D01*
X49045Y112580D01*
X48937Y112758D01*
X48809Y112897D01*
X48661Y112996D01*
X48494Y113055D01*
X48307Y113075D01*
X49285D01*
X49291Y113315D01*
X51260D01*
X51266Y113075D01*
D02*
G37*
G36*
X41266D02*
X42244D01*
X42057Y113055D01*
X41890Y112996D01*
X41742Y112897D01*
X41614Y112758D01*
X41506Y112580D01*
X41417Y112362D01*
X41375Y112205D01*
X41417Y112047D01*
X41506Y111829D01*
X41614Y111651D01*
X41742Y111512D01*
X41890Y111414D01*
X42057Y111354D01*
X42244Y111334D01*
X41266D01*
X41260Y111095D01*
X39291D01*
X39285Y111334D01*
X38307D01*
X38494Y111354D01*
X38661Y111414D01*
X38809Y111512D01*
X38937Y111651D01*
X39045Y111829D01*
X39134Y112047D01*
X39176Y112205D01*
X39134Y112362D01*
X39045Y112580D01*
X38937Y112758D01*
X38809Y112897D01*
X38661Y112996D01*
X38494Y113055D01*
X38307Y113075D01*
X39285D01*
X39291Y113315D01*
X41260D01*
X41266Y113075D01*
D02*
G37*
G36*
X20754D02*
X21732D01*
X21545Y113055D01*
X21378Y112996D01*
X21230Y112897D01*
X21102Y112758D01*
X20994Y112580D01*
X20906Y112362D01*
X20863Y112205D01*
X20906Y112047D01*
X20994Y111829D01*
X21102Y111651D01*
X21230Y111512D01*
X21378Y111414D01*
X21545Y111354D01*
X21732Y111334D01*
X20754D01*
X20748Y111095D01*
X18779D01*
X18773Y111334D01*
X17795D01*
X17982Y111354D01*
X18150Y111414D01*
X18297Y111512D01*
X18425Y111651D01*
X18533Y111829D01*
X18622Y112047D01*
X18664Y112205D01*
X18622Y112362D01*
X18533Y112580D01*
X18425Y112758D01*
X18297Y112897D01*
X18150Y112996D01*
X17982Y113055D01*
X17795Y113075D01*
X18773D01*
X18779Y113315D01*
X20748D01*
X20754Y113075D01*
D02*
G37*
G36*
X10754D02*
X11732D01*
X11545Y113055D01*
X11378Y112996D01*
X11230Y112897D01*
X11102Y112758D01*
X10994Y112580D01*
X10905Y112362D01*
X10863Y112205D01*
X10905Y112047D01*
X10994Y111829D01*
X11102Y111651D01*
X11230Y111512D01*
X11378Y111414D01*
X11545Y111354D01*
X11732Y111334D01*
X10754D01*
X10748Y111095D01*
X8779D01*
X8773Y111334D01*
X7795D01*
X7982Y111354D01*
X8150Y111414D01*
X8297Y111512D01*
X8425Y111651D01*
X8534Y111829D01*
X8622Y112047D01*
X8664Y112205D01*
X8622Y112362D01*
X8534Y112580D01*
X8425Y112758D01*
X8297Y112897D01*
X8150Y112996D01*
X7982Y113055D01*
X7795Y113075D01*
X8773D01*
X8779Y113315D01*
X10748D01*
X10754Y113075D01*
D02*
G37*
G36*
X-8773D02*
X-7795D01*
X-7982Y113055D01*
X-8150Y112996D01*
X-8297Y112897D01*
X-8425Y112758D01*
X-8534Y112580D01*
X-8622Y112362D01*
X-8664Y112205D01*
X-8622Y112047D01*
X-8534Y111829D01*
X-8425Y111651D01*
X-8297Y111512D01*
X-8150Y111414D01*
X-7982Y111354D01*
X-7795Y111334D01*
X-8773D01*
X-8779Y111095D01*
X-10748D01*
X-10754Y111334D01*
X-11732D01*
X-11545Y111354D01*
X-11378Y111414D01*
X-11230Y111512D01*
X-11102Y111651D01*
X-10994Y111829D01*
X-10905Y112047D01*
X-10863Y112205D01*
X-10905Y112362D01*
X-10994Y112580D01*
X-11102Y112758D01*
X-11230Y112897D01*
X-11378Y112996D01*
X-11545Y113055D01*
X-11732Y113075D01*
X-10754D01*
X-10748Y113315D01*
X-8779D01*
X-8773Y113075D01*
D02*
G37*
G36*
X-18773D02*
X-17795D01*
X-17982Y113055D01*
X-18150Y112996D01*
X-18297Y112897D01*
X-18425Y112758D01*
X-18533Y112580D01*
X-18622Y112362D01*
X-18664Y112205D01*
X-18622Y112047D01*
X-18533Y111829D01*
X-18425Y111651D01*
X-18297Y111512D01*
X-18150Y111414D01*
X-17982Y111354D01*
X-17795Y111334D01*
X-18773D01*
X-18779Y111095D01*
X-20748D01*
X-20754Y111334D01*
X-21732D01*
X-21545Y111354D01*
X-21378Y111414D01*
X-21230Y111512D01*
X-21102Y111651D01*
X-20994Y111829D01*
X-20906Y112047D01*
X-20863Y112205D01*
X-20906Y112362D01*
X-20994Y112580D01*
X-21102Y112758D01*
X-21230Y112897D01*
X-21378Y112996D01*
X-21545Y113055D01*
X-21732Y113075D01*
X-20754D01*
X-20748Y113315D01*
X-18779D01*
X-18773Y113075D01*
D02*
G37*
G36*
X-39285D02*
X-38307D01*
X-38494Y113055D01*
X-38661Y112996D01*
X-38809Y112897D01*
X-38937Y112758D01*
X-39045Y112580D01*
X-39134Y112362D01*
X-39176Y112205D01*
X-39134Y112047D01*
X-39045Y111829D01*
X-38937Y111651D01*
X-38809Y111512D01*
X-38661Y111414D01*
X-38494Y111354D01*
X-38307Y111334D01*
X-39285D01*
X-39291Y111095D01*
X-41260D01*
X-41266Y111334D01*
X-42244D01*
X-42057Y111354D01*
X-41890Y111414D01*
X-41742Y111512D01*
X-41614Y111651D01*
X-41506Y111829D01*
X-41417Y112047D01*
X-41375Y112205D01*
X-41417Y112362D01*
X-41506Y112580D01*
X-41614Y112758D01*
X-41742Y112897D01*
X-41890Y112996D01*
X-42057Y113055D01*
X-42244Y113075D01*
X-41266D01*
X-41260Y113315D01*
X-39291D01*
X-39285Y113075D01*
D02*
G37*
G36*
X-49285D02*
X-48307D01*
X-48494Y113055D01*
X-48661Y112996D01*
X-48809Y112897D01*
X-48937Y112758D01*
X-49045Y112580D01*
X-49134Y112362D01*
X-49176Y112205D01*
X-49134Y112047D01*
X-49045Y111829D01*
X-48937Y111651D01*
X-48809Y111512D01*
X-48661Y111414D01*
X-48494Y111354D01*
X-48307Y111334D01*
X-49285D01*
X-49291Y111095D01*
X-51260D01*
X-51266Y111334D01*
X-52244D01*
X-52057Y111354D01*
X-51890Y111414D01*
X-51742Y111512D01*
X-51614Y111651D01*
X-51506Y111829D01*
X-51417Y112047D01*
X-51375Y112205D01*
X-51417Y112362D01*
X-51506Y112580D01*
X-51614Y112758D01*
X-51742Y112897D01*
X-51890Y112996D01*
X-52057Y113055D01*
X-52244Y113075D01*
X-51266D01*
X-51260Y113315D01*
X-49291D01*
X-49285Y113075D01*
D02*
G37*
G36*
X52569Y101244D02*
X52402Y101185D01*
X52254Y101086D01*
X52126Y100947D01*
X52018Y100769D01*
X51929Y100551D01*
X51860Y100294D01*
X51811Y99997D01*
X51781Y99660D01*
X51772Y99284D01*
X49803D01*
X49793Y99660D01*
X49764Y99997D01*
X49715Y100294D01*
X49646Y100551D01*
X49557Y100769D01*
X49449Y100947D01*
X49321Y101086D01*
X49173Y101185D01*
X49006Y101244D01*
X48819Y101264D01*
X52756D01*
X52569Y101244D01*
D02*
G37*
G36*
X41545D02*
X41378Y101185D01*
X41230Y101086D01*
X41102Y100947D01*
X40994Y100769D01*
X40905Y100551D01*
X40837Y100294D01*
X40787Y99997D01*
X40758Y99660D01*
X40748Y99284D01*
X38780D01*
X38770Y99660D01*
X38740Y99997D01*
X38691Y100294D01*
X38622Y100551D01*
X38533Y100769D01*
X38425Y100947D01*
X38297Y101086D01*
X38150Y101185D01*
X37982Y101244D01*
X37795Y101264D01*
X41732D01*
X41545Y101244D01*
D02*
G37*
G36*
X22057D02*
X21890Y101185D01*
X21742Y101086D01*
X21614Y100947D01*
X21506Y100769D01*
X21417Y100551D01*
X21348Y100294D01*
X21299Y99997D01*
X21270Y99660D01*
X21260Y99284D01*
X19291D01*
X19282Y99660D01*
X19252Y99997D01*
X19203Y100294D01*
X19134Y100551D01*
X19045Y100769D01*
X18937Y100947D01*
X18809Y101086D01*
X18661Y101185D01*
X18494Y101244D01*
X18307Y101264D01*
X22244D01*
X22057Y101244D01*
D02*
G37*
G36*
X11033D02*
X10866Y101185D01*
X10718Y101086D01*
X10590Y100947D01*
X10482Y100769D01*
X10394Y100551D01*
X10325Y100294D01*
X10276Y99997D01*
X10246Y99660D01*
X10236Y99284D01*
X8268D01*
X8258Y99660D01*
X8228Y99997D01*
X8179Y100294D01*
X8110Y100551D01*
X8022Y100769D01*
X7913Y100947D01*
X7785Y101086D01*
X7638Y101185D01*
X7470Y101244D01*
X7283Y101264D01*
X11220D01*
X11033Y101244D01*
D02*
G37*
G36*
X-7470D02*
X-7638Y101185D01*
X-7785Y101086D01*
X-7913Y100947D01*
X-8022Y100769D01*
X-8110Y100551D01*
X-8179Y100294D01*
X-8228Y99997D01*
X-8258Y99660D01*
X-8268Y99284D01*
X-10236D01*
X-10246Y99660D01*
X-10276Y99997D01*
X-10325Y100294D01*
X-10394Y100551D01*
X-10482Y100769D01*
X-10591Y100947D01*
X-10718Y101086D01*
X-10866Y101185D01*
X-11033Y101244D01*
X-11220Y101264D01*
X-7283D01*
X-7470Y101244D01*
D02*
G37*
G36*
X-18494D02*
X-18661Y101185D01*
X-18809Y101086D01*
X-18937Y100947D01*
X-19045Y100769D01*
X-19134Y100551D01*
X-19203Y100294D01*
X-19252Y99997D01*
X-19282Y99660D01*
X-19291Y99284D01*
X-21260D01*
X-21270Y99660D01*
X-21299Y99997D01*
X-21348Y100294D01*
X-21417Y100551D01*
X-21506Y100769D01*
X-21614Y100947D01*
X-21742Y101086D01*
X-21890Y101185D01*
X-22057Y101244D01*
X-22244Y101264D01*
X-18307D01*
X-18494Y101244D01*
D02*
G37*
G36*
X-37982D02*
X-38150Y101185D01*
X-38297Y101086D01*
X-38425Y100947D01*
X-38533Y100769D01*
X-38622Y100551D01*
X-38691Y100294D01*
X-38740Y99997D01*
X-38770Y99660D01*
X-38780Y99284D01*
X-40748D01*
X-40758Y99660D01*
X-40787Y99997D01*
X-40837Y100294D01*
X-40905Y100551D01*
X-40994Y100769D01*
X-41102Y100947D01*
X-41230Y101086D01*
X-41378Y101185D01*
X-41545Y101244D01*
X-41732Y101264D01*
X-37795D01*
X-37982Y101244D01*
D02*
G37*
G36*
X-49006D02*
X-49173Y101185D01*
X-49321Y101086D01*
X-49449Y100947D01*
X-49557Y100769D01*
X-49646Y100551D01*
X-49715Y100294D01*
X-49764Y99997D01*
X-49793Y99660D01*
X-49803Y99284D01*
X-51772D01*
X-51781Y99660D01*
X-51811Y99997D01*
X-51860Y100294D01*
X-51929Y100551D01*
X-52018Y100769D01*
X-52126Y100947D01*
X-52254Y101086D01*
X-52402Y101185D01*
X-52569Y101244D01*
X-52756Y101264D01*
X-48819D01*
X-49006Y101244D01*
D02*
G37*
G36*
X51781Y98039D02*
X51810Y97704D01*
X51859Y97409D01*
X51927Y97153D01*
X52015Y96937D01*
X52122Y96760D01*
X52248Y96622D01*
X52394Y96523D01*
X52559Y96464D01*
X52744Y96445D01*
X48831D01*
X49016Y96464D01*
X49181Y96523D01*
X49327Y96622D01*
X49453Y96760D01*
X49560Y96937D01*
X49648Y97153D01*
X49716Y97409D01*
X49764Y97704D01*
X49793Y98039D01*
X49803Y98413D01*
X51772D01*
X51781Y98039D01*
D02*
G37*
G36*
X40758D02*
X40787Y97704D01*
X40835Y97409D01*
X40904Y97153D01*
X40991Y96937D01*
X41098Y96760D01*
X41224Y96622D01*
X41370Y96523D01*
X41535Y96464D01*
X41720Y96445D01*
X37807D01*
X37992Y96464D01*
X38157Y96523D01*
X38303Y96622D01*
X38429Y96760D01*
X38537Y96937D01*
X38624Y97153D01*
X38692Y97409D01*
X38741Y97704D01*
X38770Y98039D01*
X38780Y98413D01*
X40748D01*
X40758Y98039D01*
D02*
G37*
G36*
X21270D02*
X21299Y97704D01*
X21347Y97409D01*
X21415Y97153D01*
X21503Y96937D01*
X21610Y96760D01*
X21736Y96622D01*
X21882Y96523D01*
X22047Y96464D01*
X22232Y96445D01*
X18319D01*
X18504Y96464D01*
X18669Y96523D01*
X18815Y96622D01*
X18941Y96760D01*
X19048Y96937D01*
X19136Y97153D01*
X19204Y97409D01*
X19252Y97704D01*
X19282Y98039D01*
X19291Y98413D01*
X21260D01*
X21270Y98039D01*
D02*
G37*
G36*
X10246D02*
X10275Y97704D01*
X10324Y97409D01*
X10392Y97153D01*
X10479Y96937D01*
X10586Y96760D01*
X10713Y96622D01*
X10859Y96523D01*
X11024Y96464D01*
X11208Y96445D01*
X7295D01*
X7480Y96464D01*
X7645Y96523D01*
X7791Y96622D01*
X7918Y96760D01*
X8025Y96937D01*
X8112Y97153D01*
X8180Y97409D01*
X8229Y97704D01*
X8258Y98039D01*
X8268Y98413D01*
X10236D01*
X10246Y98039D01*
D02*
G37*
G36*
X-8258D02*
X-8229Y97704D01*
X-8180Y97409D01*
X-8112Y97153D01*
X-8025Y96937D01*
X-7918Y96760D01*
X-7791Y96622D01*
X-7645Y96523D01*
X-7480Y96464D01*
X-7295Y96445D01*
X-11208D01*
X-11024Y96464D01*
X-10859Y96523D01*
X-10713Y96622D01*
X-10586Y96760D01*
X-10479Y96937D01*
X-10392Y97153D01*
X-10324Y97409D01*
X-10275Y97704D01*
X-10246Y98039D01*
X-10236Y98413D01*
X-8268D01*
X-8258Y98039D01*
D02*
G37*
G36*
X-19282D02*
X-19252Y97704D01*
X-19204Y97409D01*
X-19136Y97153D01*
X-19048Y96937D01*
X-18941Y96760D01*
X-18815Y96622D01*
X-18669Y96523D01*
X-18504Y96464D01*
X-18319Y96445D01*
X-22232D01*
X-22047Y96464D01*
X-21882Y96523D01*
X-21736Y96622D01*
X-21610Y96760D01*
X-21503Y96937D01*
X-21415Y97153D01*
X-21347Y97409D01*
X-21299Y97704D01*
X-21270Y98039D01*
X-21260Y98413D01*
X-19291D01*
X-19282Y98039D01*
D02*
G37*
G36*
X-38770D02*
X-38741Y97704D01*
X-38692Y97409D01*
X-38624Y97153D01*
X-38537Y96937D01*
X-38429Y96760D01*
X-38303Y96622D01*
X-38157Y96523D01*
X-37992Y96464D01*
X-37807Y96445D01*
X-41720D01*
X-41536Y96464D01*
X-41370Y96523D01*
X-41224Y96622D01*
X-41098Y96760D01*
X-40991Y96937D01*
X-40904Y97153D01*
X-40835Y97409D01*
X-40787Y97704D01*
X-40758Y98039D01*
X-40748Y98413D01*
X-38780D01*
X-38770Y98039D01*
D02*
G37*
G36*
X-49793D02*
X-49764Y97704D01*
X-49716Y97409D01*
X-49648Y97153D01*
X-49560Y96937D01*
X-49453Y96760D01*
X-49327Y96622D01*
X-49181Y96523D01*
X-49016Y96464D01*
X-48831Y96445D01*
X-52744D01*
X-52559Y96464D01*
X-52394Y96523D01*
X-52248Y96622D01*
X-52122Y96760D01*
X-52015Y96937D01*
X-51927Y97153D01*
X-51859Y97409D01*
X-51811Y97704D01*
X-51781Y98039D01*
X-51772Y98413D01*
X-49803D01*
X-49793Y98039D01*
D02*
G37*
G36*
X52744Y95622D02*
X52779Y95593D01*
X52837Y95568D01*
X52918Y95545D01*
X53023Y95527D01*
X53152Y95511D01*
X53478Y95491D01*
X53898Y95484D01*
Y93516D01*
X53676Y93514D01*
X53023Y93473D01*
X52918Y93455D01*
X52837Y93432D01*
X52779Y93407D01*
X52744Y93378D01*
X52732Y93346D01*
Y95654D01*
X52744Y95622D01*
D02*
G37*
G36*
X22232D02*
X22267Y95593D01*
X22325Y95568D01*
X22407Y95545D01*
X22512Y95527D01*
X22640Y95511D01*
X22966Y95491D01*
X23386Y95484D01*
Y93516D01*
X23165Y93514D01*
X22512Y93473D01*
X22407Y93455D01*
X22325Y93432D01*
X22267Y93407D01*
X22232Y93378D01*
X22220Y93346D01*
Y95654D01*
X22232Y95622D01*
D02*
G37*
G36*
X-7296D02*
X-7261Y95593D01*
X-7203Y95568D01*
X-7121Y95545D01*
X-7016Y95527D01*
X-6888Y95511D01*
X-6561Y95491D01*
X-6141Y95484D01*
Y93516D01*
X-6363Y93514D01*
X-7016Y93473D01*
X-7121Y93455D01*
X-7203Y93432D01*
X-7261Y93407D01*
X-7296Y93378D01*
X-7307Y93346D01*
Y95654D01*
X-7296Y95622D01*
D02*
G37*
G36*
X-37808D02*
X-37773Y95593D01*
X-37714Y95568D01*
X-37633Y95545D01*
X-37528Y95527D01*
X-37400Y95511D01*
X-37073Y95491D01*
X-36653Y95484D01*
Y93516D01*
X-36875Y93514D01*
X-37528Y93473D01*
X-37633Y93455D01*
X-37714Y93432D01*
X-37773Y93407D01*
X-37808Y93378D01*
X-37819Y93346D01*
Y95654D01*
X-37808Y95622D01*
D02*
G37*
G36*
X41721Y94775D02*
X41761Y94724D01*
X41825Y94680D01*
X41916Y94641D01*
X42032Y94608D01*
X42175Y94582D01*
X42342Y94561D01*
X42756Y94537D01*
X43001Y94534D01*
Y92566D01*
X41720Y92532D01*
X41708Y94831D01*
X41721Y94775D01*
D02*
G37*
G36*
X11210D02*
X11249Y94724D01*
X11314Y94680D01*
X11404Y94641D01*
X11520Y94608D01*
X11663Y94582D01*
X11831Y94561D01*
X12244Y94537D01*
X12489Y94534D01*
Y92566D01*
X11208Y92532D01*
X11197Y94831D01*
X11210Y94775D01*
D02*
G37*
G36*
X-18318D02*
X-18279Y94724D01*
X-18214Y94680D01*
X-18124Y94641D01*
X-18007Y94608D01*
X-17865Y94582D01*
X-17697Y94561D01*
X-17284Y94537D01*
X-17038Y94534D01*
Y92566D01*
X-18319Y92532D01*
X-18331Y94831D01*
X-18318Y94775D01*
D02*
G37*
G36*
X-48830D02*
X-48791Y94724D01*
X-48726Y94680D01*
X-48635Y94641D01*
X-48519Y94608D01*
X-48377Y94582D01*
X-48209Y94561D01*
X-47795Y94537D01*
X-47550Y94534D01*
Y92566D01*
X-48831Y92532D01*
X-48843Y94831D01*
X-48830Y94775D01*
D02*
G37*
G36*
X48713Y89555D02*
Y86614D01*
X48693Y86801D01*
X48634Y86968D01*
X48536Y87116D01*
X48398Y87244D01*
X48221Y87352D01*
X48004Y87441D01*
X47748Y87510D01*
X47453Y87559D01*
X47118Y87589D01*
X46744Y87598D01*
Y89567D01*
X48713Y89555D01*
D02*
G37*
G36*
X18201D02*
Y86614D01*
X18181Y86801D01*
X18122Y86968D01*
X18024Y87116D01*
X17886Y87244D01*
X17709Y87352D01*
X17492Y87441D01*
X17236Y87510D01*
X16941Y87559D01*
X16607Y87589D01*
X16232Y87598D01*
Y89567D01*
X18201Y89555D01*
D02*
G37*
G36*
X-11327D02*
Y86614D01*
X-11346Y86801D01*
X-11405Y86968D01*
X-11504Y87116D01*
X-11642Y87244D01*
X-11819Y87352D01*
X-12035Y87441D01*
X-12291Y87510D01*
X-12586Y87559D01*
X-12921Y87589D01*
X-13295Y87598D01*
Y89567D01*
X-11327Y89555D01*
D02*
G37*
G36*
X-41838D02*
Y86614D01*
X-41858Y86801D01*
X-41917Y86968D01*
X-42016Y87116D01*
X-42153Y87244D01*
X-42331Y87352D01*
X-42547Y87441D01*
X-42803Y87510D01*
X-43098Y87559D01*
X-43433Y87589D01*
X-43807Y87598D01*
Y89567D01*
X-41838Y89555D01*
D02*
G37*
G36*
X41838Y85642D02*
X41841Y85622D01*
X41843Y85564D01*
X41850Y83685D01*
X39882D01*
X39872Y84058D01*
X39843Y84393D01*
X39794Y84688D01*
X39726Y84943D01*
X39639Y85160D01*
X39532Y85337D01*
X39405Y85475D01*
X39259Y85574D01*
X39094Y85633D01*
X38909Y85654D01*
X41838Y85642D01*
D02*
G37*
G36*
X11327D02*
X11329Y85622D01*
X11331Y85564D01*
X11339Y83685D01*
X9370D01*
X9360Y84058D01*
X9331Y84393D01*
X9283Y84688D01*
X9215Y84943D01*
X9127Y85160D01*
X9020Y85337D01*
X8894Y85475D01*
X8748Y85574D01*
X8582Y85633D01*
X8397Y85654D01*
X11327Y85642D01*
D02*
G37*
G36*
X-18201D02*
X-18199Y85622D01*
X-18197Y85564D01*
X-18189Y83685D01*
X-20157D01*
X-20167Y84058D01*
X-20196Y84393D01*
X-20245Y84688D01*
X-20313Y84943D01*
X-20401Y85160D01*
X-20508Y85337D01*
X-20634Y85475D01*
X-20780Y85574D01*
X-20945Y85633D01*
X-21130Y85654D01*
X-18201Y85642D01*
D02*
G37*
G36*
X-48713D02*
X-48711Y85622D01*
X-48709Y85564D01*
X-48701Y83685D01*
X-50669D01*
X-50679Y84058D01*
X-50708Y84393D01*
X-50757Y84688D01*
X-50825Y84943D01*
X-50912Y85160D01*
X-51019Y85337D01*
X-51146Y85475D01*
X-51292Y85574D01*
X-51457Y85633D01*
X-51642Y85654D01*
X-48713Y85642D01*
D02*
G37*
G36*
X58052Y13602D02*
X53740D01*
X53716Y13597D01*
X53691Y13601D01*
X53382Y13586D01*
X53310Y13567D01*
X53236D01*
X52630Y13447D01*
X52539Y13409D01*
X52442Y13390D01*
X51871Y13154D01*
X51789Y13099D01*
X51698Y13061D01*
X51185Y12718D01*
X51115Y12648D01*
X51033Y12593D01*
X50596Y12156D01*
X50541Y12074D01*
X50471Y12004D01*
X50128Y11491D01*
X50090Y11400D01*
X50035Y11317D01*
X49845Y10859D01*
X-11201D01*
Y12795D01*
X-11208Y12828D01*
X-11203Y12861D01*
X-11229Y13246D01*
X-11254Y13342D01*
X-11261Y13440D01*
X-11460Y14185D01*
X-11518Y14303D01*
X-11560Y14427D01*
X-11946Y15094D01*
X-12032Y15193D01*
X-12105Y15302D01*
X-12650Y15847D01*
X-12760Y15920D01*
X-12858Y16007D01*
X-13526Y16392D01*
X-13650Y16434D01*
X-13768Y16493D01*
X-14512Y16692D01*
X-14643Y16701D01*
X-14772Y16726D01*
X-15543D01*
X-15672Y16701D01*
X-15803Y16692D01*
X-16547Y16493D01*
X-16665Y16434D01*
X-16789Y16392D01*
X-17457Y16007D01*
X-17555Y15920D01*
X-17665Y15847D01*
X-18210Y15302D01*
X-18283Y15193D01*
X-18369Y15094D01*
X-18755Y14427D01*
X-18797Y14303D01*
X-18855Y14185D01*
X-19054Y13440D01*
X-19061Y13342D01*
X-19086Y13246D01*
X-19112Y12861D01*
X-19107Y12828D01*
X-19114Y12795D01*
Y10859D01*
X-35163D01*
X-35340Y11253D01*
X-35195Y11417D01*
X-35159D01*
X-34653Y11627D01*
X-34265Y12015D01*
X-34055Y12521D01*
Y13069D01*
X-34265Y13576D01*
X-34653Y13963D01*
X-35159Y14173D01*
X-35707D01*
X-36214Y13963D01*
X-36601Y13576D01*
X-36811Y13069D01*
Y12912D01*
X-36816Y12908D01*
X-36822Y12895D01*
X-36825Y12891D01*
X-36828Y12883D01*
X-36838Y12866D01*
X-36854Y12843D01*
X-37060Y12607D01*
X-37129Y12537D01*
X-37142Y12506D01*
X-37718Y11930D01*
X-37935Y11604D01*
X-38011Y11220D01*
Y10859D01*
X-49845D01*
X-50035Y11317D01*
X-50090Y11400D01*
X-50128Y11491D01*
X-50471Y12004D01*
X-50541Y12074D01*
X-50596Y12156D01*
X-51033Y12593D01*
X-51115Y12648D01*
X-51185Y12718D01*
X-51698Y13061D01*
X-51789Y13099D01*
X-51871Y13154D01*
X-52442Y13390D01*
X-52539Y13409D01*
X-52630Y13447D01*
X-53236Y13567D01*
X-53310D01*
X-53382Y13586D01*
X-53691Y13601D01*
X-53716Y13597D01*
X-53740Y13602D01*
X-58052D01*
Y68795D01*
X-32500D01*
Y52165D01*
Y51774D01*
X-32423Y51390D01*
X-32124Y50666D01*
X-31906Y50341D01*
X-31352Y49787D01*
X-31027Y49569D01*
X-30303Y49270D01*
X-29919Y49193D01*
X-29136D01*
X-28752Y49270D01*
X-28029Y49569D01*
X-27703Y49787D01*
X-27149Y50341D01*
X-26932Y50666D01*
X-26632Y51390D01*
X-26555Y51774D01*
Y52165D01*
Y68795D01*
X-2972D01*
Y51665D01*
Y51274D01*
X-2896Y50890D01*
X-2596Y50166D01*
X-2378Y49841D01*
X-1825Y49287D01*
X-1499Y49069D01*
X-776Y48770D01*
X-392Y48693D01*
X392D01*
X776Y48770D01*
X1499Y49069D01*
X1825Y49287D01*
X2378Y49841D01*
X2596Y50166D01*
X2896Y50890D01*
X2972Y51274D01*
Y51665D01*
Y68795D01*
X26555D01*
Y52146D01*
Y51754D01*
X26632Y51370D01*
X26932Y50647D01*
X27149Y50321D01*
X27703Y49767D01*
X28028Y49550D01*
X28752Y49250D01*
X29136Y49174D01*
X29919D01*
X30303Y49250D01*
X31027Y49550D01*
X31352Y49767D01*
X31906Y50321D01*
X32124Y50647D01*
X32423Y51370D01*
X32500Y51754D01*
Y52146D01*
Y68795D01*
X58052D01*
Y13602D01*
D02*
G37*
G36*
X-35443Y11811D02*
X-35473Y11807D01*
X-35509Y11795D01*
X-35550Y11775D01*
X-35597Y11746D01*
X-35649Y11710D01*
X-35769Y11612D01*
X-35911Y11481D01*
X-35990Y11403D01*
X-36825Y12239D01*
X-36747Y12318D01*
X-36518Y12580D01*
X-36482Y12632D01*
X-36453Y12678D01*
X-36433Y12720D01*
X-36421Y12755D01*
X-36417Y12785D01*
X-35443Y11811D01*
D02*
G37*
%LPC*%
G36*
X35726Y227953D02*
X34274D01*
X32873Y227577D01*
X31616Y226852D01*
X30589Y225825D01*
X30197Y225145D01*
X29803D01*
X29410Y225825D01*
X28384Y226852D01*
X27128Y227577D01*
X25726Y227953D01*
X24274D01*
X22873Y227577D01*
X21616Y226852D01*
X20589Y225825D01*
X20197Y225145D01*
X19803D01*
X19410Y225825D01*
X18384Y226852D01*
X17128Y227577D01*
X15726Y227953D01*
X14274D01*
X12873Y227577D01*
X11616Y226852D01*
X10589Y225825D01*
X10197Y225145D01*
X9803D01*
X9410Y225825D01*
X8384Y226852D01*
X7128Y227577D01*
X5726Y227953D01*
X4274D01*
X2873Y227577D01*
X1616Y226852D01*
X589Y225825D01*
X197Y225145D01*
X-197D01*
X-589Y225825D01*
X-1616Y226852D01*
X-2873Y227577D01*
X-4274Y227953D01*
X-5726D01*
X-7128Y227577D01*
X-8384Y226852D01*
X-9411Y225825D01*
X-9803Y225145D01*
X-10197D01*
X-10589Y225825D01*
X-11616Y226852D01*
X-12873Y227577D01*
X-14274Y227953D01*
X-15726D01*
X-17128Y227577D01*
X-18384Y226852D01*
X-19411Y225825D01*
X-19803Y225145D01*
X-20197D01*
X-20590Y225825D01*
X-21616Y226852D01*
X-22873Y227577D01*
X-24274Y227953D01*
X-25726D01*
X-27128Y227577D01*
X-28384Y226852D01*
X-29411Y225825D01*
X-29803Y225145D01*
X-30197D01*
X-30590Y225825D01*
X-31616Y226852D01*
X-32873Y227577D01*
X-34274Y227953D01*
X-35726D01*
X-37128Y227577D01*
X-38384Y226852D01*
X-39411Y225825D01*
X-40136Y224568D01*
X-40512Y223167D01*
Y221715D01*
X-40136Y220314D01*
X-39411Y219057D01*
X-38384Y218030D01*
X-37128Y217305D01*
X-35726Y216929D01*
X-34274D01*
X-32873Y217305D01*
X-31616Y218030D01*
X-30590Y219057D01*
X-30197Y219737D01*
X-29803D01*
X-29411Y219057D01*
X-28384Y218030D01*
X-27128Y217305D01*
X-25726Y216929D01*
X-24274D01*
X-22873Y217305D01*
X-21616Y218030D01*
X-20590Y219057D01*
X-20197Y219737D01*
X-19803D01*
X-19411Y219057D01*
X-18384Y218030D01*
X-17128Y217305D01*
X-15726Y216929D01*
X-14274D01*
X-12873Y217305D01*
X-11616Y218030D01*
X-10589Y219057D01*
X-10197Y219737D01*
X-9803D01*
X-9411Y219057D01*
X-8384Y218030D01*
X-7128Y217305D01*
X-5726Y216929D01*
X-4274D01*
X-2873Y217305D01*
X-1616Y218030D01*
X-589Y219057D01*
X-197Y219737D01*
X197D01*
X589Y219057D01*
X1616Y218030D01*
X2873Y217305D01*
X4274Y216929D01*
X5726D01*
X7128Y217305D01*
X8384Y218030D01*
X9410Y219057D01*
X9803Y219737D01*
X10197D01*
X10589Y219057D01*
X11616Y218030D01*
X12873Y217305D01*
X14274Y216929D01*
X15726D01*
X17128Y217305D01*
X18384Y218030D01*
X19410Y219057D01*
X19803Y219737D01*
X20197D01*
X20589Y219057D01*
X21616Y218030D01*
X22873Y217305D01*
X24274Y216929D01*
X25726D01*
X27128Y217305D01*
X28384Y218030D01*
X29410Y219057D01*
X29803Y219737D01*
X30197D01*
X30589Y219057D01*
X31616Y218030D01*
X32873Y217305D01*
X34274Y216929D01*
X35726D01*
X37128Y217305D01*
X38384Y218030D01*
X39410Y219057D01*
X40136Y220314D01*
X40512Y221715D01*
Y223167D01*
X40136Y224568D01*
X39410Y225825D01*
X38384Y226852D01*
X37128Y227577D01*
X35726Y227953D01*
D02*
G37*
G36*
X45518Y226378D02*
X45394D01*
Y222835D01*
X48937D01*
Y222959D01*
X48669Y223961D01*
X48150Y224858D01*
X47417Y225591D01*
X46520Y226110D01*
X45518Y226378D01*
D02*
G37*
G36*
X44606D02*
X44482D01*
X43480Y226110D01*
X42583Y225591D01*
X41850Y224858D01*
X41331Y223961D01*
X41063Y222959D01*
Y222835D01*
X44606D01*
Y226378D01*
D02*
G37*
G36*
X-42342Y226403D02*
X-44606D01*
Y222835D01*
X-41038D01*
Y225098D01*
X-41137Y225598D01*
X-41420Y226021D01*
X-41843Y226304D01*
X-42342Y226403D01*
D02*
G37*
G36*
X-45394D02*
X-47657D01*
X-48157Y226304D01*
X-48580Y226021D01*
X-48863Y225598D01*
X-48962Y225098D01*
Y222835D01*
X-45394D01*
Y226403D01*
D02*
G37*
G36*
X48937Y222047D02*
X45394D01*
Y218504D01*
X45518D01*
X46520Y218772D01*
X47417Y219291D01*
X48150Y220024D01*
X48669Y220921D01*
X48937Y221923D01*
Y222047D01*
D02*
G37*
G36*
X44606D02*
X41063D01*
Y221923D01*
X41331Y220921D01*
X41850Y220024D01*
X42583Y219291D01*
X43480Y218772D01*
X44482Y218504D01*
X44606D01*
Y222047D01*
D02*
G37*
G36*
X-41038D02*
X-44606D01*
Y218479D01*
X-42342D01*
X-41843Y218578D01*
X-41420Y218861D01*
X-41137Y219284D01*
X-41038Y219783D01*
Y222047D01*
D02*
G37*
G36*
X-45394D02*
X-48962D01*
Y219783D01*
X-48863Y219284D01*
X-48580Y218861D01*
X-48157Y218578D01*
X-47657Y218479D01*
X-45394D01*
Y222047D01*
D02*
G37*
G36*
X-6364Y170276D02*
X-11620D01*
Y165748D01*
X-6364D01*
Y170276D01*
D02*
G37*
G36*
X23163D02*
X17908D01*
Y165748D01*
X23163D01*
Y170276D01*
D02*
G37*
G36*
X53675D02*
X48419D01*
Y165748D01*
X53675D01*
Y170276D01*
D02*
G37*
G36*
X-36876D02*
X-42132D01*
Y165748D01*
X-36876D01*
Y170276D01*
D02*
G37*
G36*
X42244Y64370D02*
X40669D01*
Y62402D01*
X42244D01*
Y64370D01*
D02*
G37*
G36*
X39882D02*
X38307D01*
Y62402D01*
X39882D01*
Y64370D01*
D02*
G37*
G36*
X11732D02*
X10158D01*
Y62402D01*
X11732D01*
Y64370D01*
D02*
G37*
G36*
X-17795D02*
X-19370D01*
Y62402D01*
X-17795D01*
Y64370D01*
D02*
G37*
G36*
X9370D02*
X7795D01*
Y62402D01*
X9370D01*
Y64370D01*
D02*
G37*
G36*
X-20157D02*
X-21732D01*
Y62402D01*
X-20157D01*
Y64370D01*
D02*
G37*
G36*
X-48307D02*
X-49882D01*
Y62402D01*
X-48307D01*
Y64370D01*
D02*
G37*
G36*
X-50669D02*
X-52244D01*
Y62402D01*
X-50669D01*
Y64370D01*
D02*
G37*
G36*
X42244Y61614D02*
X40669D01*
Y59646D01*
X42244D01*
Y61614D01*
D02*
G37*
G36*
X39882D02*
X38307D01*
Y59646D01*
X39882D01*
Y61614D01*
D02*
G37*
G36*
X11732Y61614D02*
X10158D01*
Y59646D01*
X11732D01*
Y61614D01*
D02*
G37*
G36*
X9370D02*
X7795D01*
Y59646D01*
X9370D01*
Y61614D01*
D02*
G37*
G36*
X-17795D02*
X-19370D01*
Y59646D01*
X-17795D01*
Y61614D01*
D02*
G37*
G36*
X-20157D02*
X-21732D01*
Y59646D01*
X-20157D01*
Y61614D01*
D02*
G37*
G36*
X-48307Y61614D02*
X-49882D01*
Y59646D01*
X-48307D01*
Y61614D01*
D02*
G37*
G36*
X-50669D02*
X-52244D01*
Y59646D01*
X-50669D01*
Y61614D01*
D02*
G37*
G36*
X52244Y64370D02*
X48307D01*
Y60098D01*
X48287Y60048D01*
X48288Y60044D01*
X48287Y60040D01*
X48297Y59665D01*
X48197Y59565D01*
X47979Y59239D01*
X47916Y58922D01*
X47891Y58864D01*
X47858Y58792D01*
X47670Y58524D01*
X47620Y58504D01*
X47264D01*
Y58199D01*
X47229Y58184D01*
X47144Y58159D01*
X47032Y58138D01*
X46690Y58107D01*
X46480Y58103D01*
X46450Y58090D01*
X44101D01*
X44071Y58103D01*
X43856Y58107D01*
X43676Y58119D01*
X43526Y58136D01*
X43407Y58159D01*
X43322Y58184D01*
X43287Y58199D01*
Y58504D01*
X42931D01*
X42882Y58524D01*
X42851Y58512D01*
X42819Y58520D01*
X42793Y58504D01*
X40650D01*
Y55669D01*
X41521D01*
X41599Y55276D01*
X41188Y55105D01*
X40800Y54718D01*
X40591Y54211D01*
Y53663D01*
X40800Y53156D01*
X41188Y52769D01*
X41694Y52559D01*
X42243D01*
X42749Y52769D01*
X43137Y53156D01*
X43346Y53663D01*
Y54211D01*
X43137Y54718D01*
X42749Y55105D01*
X42338Y55276D01*
X42416Y55669D01*
X42793D01*
X42819Y55653D01*
X42851Y55661D01*
X42882Y55649D01*
X42931Y55669D01*
X43287D01*
Y55974D01*
X43322Y55989D01*
X43407Y56014D01*
X43520Y56036D01*
X43861Y56066D01*
X44071Y56070D01*
X44101Y56083D01*
X46450D01*
X46480Y56070D01*
X46696Y56066D01*
X46875Y56055D01*
X47025Y56037D01*
X47144Y56014D01*
X47229Y55989D01*
X47264Y55974D01*
Y55669D01*
X47499D01*
X47500Y55665D01*
X47521Y55572D01*
X47539Y55451D01*
X47561Y55124D01*
X47558Y55042D01*
X47545Y54915D01*
X47539Y54881D01*
X47534Y54861D01*
X47531Y54853D01*
X47530Y54848D01*
X47526Y54835D01*
X47526Y54829D01*
X47414Y54718D01*
X47205Y54211D01*
Y53663D01*
X47414Y53156D01*
X47802Y52769D01*
X48309Y52559D01*
X48857D01*
X49363Y52769D01*
X49751Y53156D01*
X49961Y53663D01*
Y54211D01*
X49751Y54718D01*
X49639Y54829D01*
X49640Y54835D01*
X49635Y54848D01*
X49635Y54853D01*
X49631Y54861D01*
X49626Y54881D01*
X49621Y54908D01*
X49607Y55126D01*
X49612Y55293D01*
X49626Y55446D01*
X49644Y55572D01*
X49665Y55665D01*
X49666Y55669D01*
X49902D01*
Y56026D01*
X49922Y56075D01*
X49906Y56114D01*
X49914Y56156D01*
X49902Y56175D01*
Y57369D01*
X49910Y57410D01*
Y58069D01*
X49922Y58098D01*
Y58452D01*
X50034Y58563D01*
X50251Y58889D01*
X50314Y59206D01*
X50341Y59267D01*
X50342Y59407D01*
X50356Y59636D01*
X50357Y59646D01*
X52244D01*
Y64370D01*
D02*
G37*
G36*
X21732D02*
X17795D01*
Y60098D01*
X17775Y60048D01*
X17776Y60044D01*
X17775Y60040D01*
X17785Y59665D01*
X17685Y59565D01*
X17467Y59239D01*
X17404Y58922D01*
X17379Y58864D01*
X17346Y58792D01*
X17158Y58524D01*
X17108Y58504D01*
X16752D01*
Y58199D01*
X16717Y58184D01*
X16632Y58159D01*
X16520Y58138D01*
X16178Y58107D01*
X15969Y58103D01*
X15939Y58090D01*
X13589D01*
X13559Y58103D01*
X13344Y58107D01*
X13164Y58119D01*
X13014Y58136D01*
X12895Y58159D01*
X12810Y58184D01*
X12776Y58199D01*
Y58504D01*
X12419D01*
X12370Y58524D01*
X12340Y58512D01*
X12308Y58520D01*
X12281Y58504D01*
X10138D01*
Y55669D01*
X11009D01*
X11088Y55276D01*
X10676Y55105D01*
X10289Y54718D01*
X10079Y54211D01*
Y53663D01*
X10289Y53156D01*
X10676Y52769D01*
X11183Y52559D01*
X11731D01*
X12237Y52769D01*
X12625Y53156D01*
X12835Y53663D01*
Y54211D01*
X12625Y54718D01*
X12237Y55105D01*
X11826Y55276D01*
X11904Y55669D01*
X12281D01*
X12308Y55653D01*
X12340Y55661D01*
X12370Y55649D01*
X12419Y55669D01*
X12776D01*
Y55974D01*
X12810Y55989D01*
X12895Y56014D01*
X13008Y56036D01*
X13350Y56066D01*
X13559Y56070D01*
X13589Y56083D01*
X15939D01*
X15969Y56070D01*
X16184Y56066D01*
X16363Y56055D01*
X16514Y56037D01*
X16632Y56014D01*
X16717Y55989D01*
X16752Y55974D01*
Y55669D01*
X16987D01*
X16988Y55665D01*
X17009Y55572D01*
X17027Y55451D01*
X17050Y55124D01*
X17046Y55042D01*
X17033Y54915D01*
X17027Y54881D01*
X17023Y54861D01*
X17019Y54853D01*
X17018Y54848D01*
X17014Y54835D01*
X17014Y54829D01*
X16903Y54718D01*
X16693Y54211D01*
Y53663D01*
X16903Y53156D01*
X17290Y52769D01*
X17797Y52559D01*
X18345D01*
X18851Y52769D01*
X19239Y53156D01*
X19449Y53663D01*
Y54211D01*
X19239Y54718D01*
X19128Y54829D01*
X19128Y54835D01*
X19123Y54848D01*
X19123Y54853D01*
X19119Y54861D01*
X19114Y54881D01*
X19110Y54908D01*
X19095Y55126D01*
X19100Y55293D01*
X19114Y55446D01*
X19132Y55572D01*
X19153Y55665D01*
X19154Y55669D01*
X19390D01*
Y56026D01*
X19410Y56075D01*
X19394Y56114D01*
X19402Y56156D01*
X19390Y56175D01*
Y57369D01*
X19398Y57410D01*
Y58069D01*
X19410Y58098D01*
Y58452D01*
X19522Y58563D01*
X19739Y58889D01*
X19802Y59206D01*
X19829Y59267D01*
X19831Y59407D01*
X19844Y59636D01*
X19846Y59646D01*
X21732D01*
Y64370D01*
D02*
G37*
G36*
X-7795D02*
X-11732D01*
Y60098D01*
X-11753Y60048D01*
X-11751Y60044D01*
X-11753Y60040D01*
X-11743Y59665D01*
X-11843Y59565D01*
X-12060Y59239D01*
X-12123Y58922D01*
X-12148Y58864D01*
X-12181Y58792D01*
X-12370Y58524D01*
X-12419Y58504D01*
X-12776D01*
Y58199D01*
X-12810Y58184D01*
X-12895Y58159D01*
X-13008Y58138D01*
X-13350Y58107D01*
X-13559Y58103D01*
X-13589Y58090D01*
X-15939D01*
X-15969Y58103D01*
X-16184Y58107D01*
X-16363Y58119D01*
X-16514Y58136D01*
X-16632Y58159D01*
X-16717Y58184D01*
X-16752Y58199D01*
Y58504D01*
X-17108D01*
X-17158Y58524D01*
X-17188Y58512D01*
X-17220Y58520D01*
X-17246Y58504D01*
X-19390D01*
Y55669D01*
X-18518D01*
X-18440Y55276D01*
X-18851Y55105D01*
X-19239Y54718D01*
X-19449Y54211D01*
Y53663D01*
X-19239Y53156D01*
X-18851Y52769D01*
X-18345Y52559D01*
X-17797D01*
X-17290Y52769D01*
X-16903Y53156D01*
X-16693Y53663D01*
Y54211D01*
X-16903Y54718D01*
X-17290Y55105D01*
X-17702Y55276D01*
X-17623Y55669D01*
X-17246D01*
X-17220Y55653D01*
X-17188Y55661D01*
X-17158Y55649D01*
X-17108Y55669D01*
X-16752D01*
Y55974D01*
X-16717Y55989D01*
X-16632Y56014D01*
X-16520Y56036D01*
X-16178Y56066D01*
X-15969Y56070D01*
X-15939Y56083D01*
X-13589D01*
X-13559Y56070D01*
X-13344Y56066D01*
X-13164Y56055D01*
X-13014Y56037D01*
X-12895Y56014D01*
X-12810Y55989D01*
X-12776Y55974D01*
Y55669D01*
X-12540D01*
X-12539Y55665D01*
X-12518Y55572D01*
X-12500Y55451D01*
X-12478Y55124D01*
X-12481Y55042D01*
X-12494Y54915D01*
X-12500Y54881D01*
X-12505Y54861D01*
X-12509Y54853D01*
X-12509Y54848D01*
X-12514Y54835D01*
X-12513Y54829D01*
X-12625Y54718D01*
X-12835Y54211D01*
Y53663D01*
X-12625Y53156D01*
X-12237Y52769D01*
X-11731Y52559D01*
X-11183D01*
X-10676Y52769D01*
X-10289Y53156D01*
X-10079Y53663D01*
Y54211D01*
X-10289Y54718D01*
X-10400Y54829D01*
X-10400Y54835D01*
X-10404Y54848D01*
X-10405Y54853D01*
X-10408Y54861D01*
X-10413Y54881D01*
X-10418Y54908D01*
X-10433Y55126D01*
X-10428Y55293D01*
X-10414Y55446D01*
X-10395Y55572D01*
X-10374Y55665D01*
X-10373Y55669D01*
X-10138D01*
Y56026D01*
X-10117Y56075D01*
X-10134Y56114D01*
X-10125Y56156D01*
X-10138Y56175D01*
Y57369D01*
X-10130Y57410D01*
Y58069D01*
X-10117Y58098D01*
Y58452D01*
X-10006Y58563D01*
X-9788Y58889D01*
X-9725Y59206D01*
X-9699Y59267D01*
X-9697Y59407D01*
X-9683Y59636D01*
X-9682Y59646D01*
X-7795D01*
Y64370D01*
D02*
G37*
G36*
X-38307D02*
X-42244D01*
Y60098D01*
X-42265Y60048D01*
X-42263Y60044D01*
X-42264Y60040D01*
X-42254Y59665D01*
X-42355Y59565D01*
X-42572Y59239D01*
X-42635Y58922D01*
X-42660Y58864D01*
X-42693Y58792D01*
X-42882Y58524D01*
X-42931Y58504D01*
X-43287D01*
Y58199D01*
X-43322Y58184D01*
X-43407Y58159D01*
X-43520Y58138D01*
X-43861Y58107D01*
X-44071Y58103D01*
X-44101Y58090D01*
X-46450D01*
X-46480Y58103D01*
X-46696Y58107D01*
X-46875Y58119D01*
X-47025Y58136D01*
X-47144Y58159D01*
X-47229Y58184D01*
X-47264Y58199D01*
Y58504D01*
X-47620D01*
X-47670Y58524D01*
X-47700Y58512D01*
X-47732Y58520D01*
X-47758Y58504D01*
X-49902D01*
Y55669D01*
X-49030D01*
X-48952Y55276D01*
X-49363Y55105D01*
X-49751Y54718D01*
X-49961Y54211D01*
Y53663D01*
X-49751Y53156D01*
X-49363Y52769D01*
X-48857Y52559D01*
X-48309D01*
X-47802Y52769D01*
X-47414Y53156D01*
X-47205Y53663D01*
Y54211D01*
X-47414Y54718D01*
X-47802Y55105D01*
X-48214Y55276D01*
X-48135Y55669D01*
X-47758D01*
X-47732Y55653D01*
X-47700Y55661D01*
X-47670Y55649D01*
X-47620Y55669D01*
X-47264D01*
Y55974D01*
X-47229Y55989D01*
X-47144Y56014D01*
X-47032Y56036D01*
X-46690Y56066D01*
X-46480Y56070D01*
X-46450Y56083D01*
X-44101D01*
X-44071Y56070D01*
X-43856Y56066D01*
X-43676Y56055D01*
X-43526Y56037D01*
X-43407Y56014D01*
X-43322Y55989D01*
X-43287Y55974D01*
Y55669D01*
X-43052D01*
X-43051Y55665D01*
X-43030Y55572D01*
X-43012Y55451D01*
X-42990Y55124D01*
X-42993Y55042D01*
X-43006Y54915D01*
X-43012Y54881D01*
X-43017Y54861D01*
X-43021Y54853D01*
X-43021Y54848D01*
X-43025Y54835D01*
X-43025Y54829D01*
X-43137Y54718D01*
X-43346Y54211D01*
Y53663D01*
X-43137Y53156D01*
X-42749Y52769D01*
X-42243Y52559D01*
X-41694D01*
X-41188Y52769D01*
X-40800Y53156D01*
X-40591Y53663D01*
Y54211D01*
X-40800Y54718D01*
X-40912Y54829D01*
X-40911Y54835D01*
X-40916Y54848D01*
X-40916Y54853D01*
X-40920Y54861D01*
X-40925Y54881D01*
X-40930Y54908D01*
X-40945Y55126D01*
X-40940Y55293D01*
X-40926Y55446D01*
X-40907Y55572D01*
X-40886Y55665D01*
X-40885Y55669D01*
X-40650D01*
Y56026D01*
X-40629Y56075D01*
X-40645Y56114D01*
X-40637Y56156D01*
X-40650Y56175D01*
Y57369D01*
X-40641Y57410D01*
Y58069D01*
X-40629Y58098D01*
Y58452D01*
X-40518Y58563D01*
X-40300Y58889D01*
X-40237Y59206D01*
X-40211Y59267D01*
X-40209Y59407D01*
X-40195Y59636D01*
X-40194Y59646D01*
X-38307D01*
Y64370D01*
D02*
G37*
G36*
X39902Y58504D02*
X38976D01*
Y57480D01*
X39902D01*
Y58504D01*
D02*
G37*
G36*
X38189D02*
X37264D01*
Y57480D01*
X38189D01*
Y58504D01*
D02*
G37*
G36*
X9390D02*
X8465D01*
Y57480D01*
X9390D01*
Y58504D01*
D02*
G37*
G36*
X7677D02*
X6752D01*
Y57480D01*
X7677D01*
Y58504D01*
D02*
G37*
G36*
X-20138D02*
X-21063D01*
Y57480D01*
X-20138D01*
Y58504D01*
D02*
G37*
G36*
X-21850D02*
X-22776D01*
Y57480D01*
X-21850D01*
Y58504D01*
D02*
G37*
G36*
X-50650D02*
X-51575D01*
Y57480D01*
X-50650D01*
Y58504D01*
D02*
G37*
G36*
X-52362D02*
X-53287D01*
Y57480D01*
X-52362D01*
Y58504D01*
D02*
G37*
G36*
X39902Y56693D02*
X38976D01*
Y55669D01*
X39902D01*
Y56693D01*
D02*
G37*
G36*
X38189D02*
X37264D01*
Y55669D01*
X38189D01*
Y56693D01*
D02*
G37*
G36*
X9390D02*
X8465D01*
Y55669D01*
X9390D01*
Y56693D01*
D02*
G37*
G36*
X7677D02*
X6752D01*
Y55669D01*
X7677D01*
Y56693D01*
D02*
G37*
G36*
X-20138D02*
X-21063D01*
Y55669D01*
X-20138D01*
Y56693D01*
D02*
G37*
G36*
X-21850D02*
X-22776D01*
Y55669D01*
X-21850D01*
Y56693D01*
D02*
G37*
G36*
X-50650D02*
X-51575D01*
Y55669D01*
X-50650D01*
Y56693D01*
D02*
G37*
G36*
X-52362D02*
X-53287D01*
Y55669D01*
X-52362D01*
Y56693D01*
D02*
G37*
G36*
X53287Y58504D02*
X50650D01*
Y56175D01*
X50637Y56156D01*
X50645Y56114D01*
X50629Y56075D01*
X50650Y56026D01*
Y55669D01*
X50885D01*
X50886Y55665D01*
X50907Y55572D01*
X50925Y55451D01*
X50947Y55124D01*
X50944Y55042D01*
X50931Y54915D01*
X50925Y54881D01*
X50920Y54861D01*
X50916Y54853D01*
X50916Y54848D01*
X50911Y54835D01*
X50912Y54829D01*
X50800Y54718D01*
X50591Y54211D01*
Y53663D01*
X50800Y53156D01*
X51188Y52769D01*
X51694Y52559D01*
X52243D01*
X52749Y52769D01*
X53137Y53156D01*
X53347Y53663D01*
Y54211D01*
X53137Y54718D01*
X53025Y54829D01*
X53026Y54835D01*
X53021Y54848D01*
X53021Y54853D01*
X53017Y54861D01*
X53012Y54881D01*
X53007Y54908D01*
X52992Y55126D01*
X52997Y55293D01*
X53011Y55446D01*
X53030Y55572D01*
X53051Y55665D01*
X53052Y55669D01*
X53287D01*
Y56026D01*
X53308Y56075D01*
X53292Y56114D01*
X53300Y56156D01*
X53287Y56175D01*
Y58504D01*
D02*
G37*
G36*
X22776D02*
X20138D01*
Y56175D01*
X20125Y56156D01*
X20134Y56114D01*
X20117Y56075D01*
X20138Y56026D01*
Y55669D01*
X20373D01*
X20374Y55665D01*
X20395Y55572D01*
X20413Y55451D01*
X20435Y55124D01*
X20432Y55042D01*
X20419Y54915D01*
X20413Y54881D01*
X20409Y54861D01*
X20405Y54853D01*
X20404Y54848D01*
X20400Y54835D01*
X20400Y54829D01*
X20289Y54718D01*
X20079Y54211D01*
Y53663D01*
X20289Y53156D01*
X20676Y52769D01*
X21183Y52559D01*
X21731D01*
X22237Y52769D01*
X22625Y53156D01*
X22835Y53663D01*
Y54211D01*
X22625Y54718D01*
X22513Y54829D01*
X22514Y54835D01*
X22509Y54848D01*
X22509Y54853D01*
X22505Y54861D01*
X22500Y54881D01*
X22496Y54908D01*
X22481Y55126D01*
X22486Y55293D01*
X22500Y55446D01*
X22518Y55572D01*
X22539Y55665D01*
X22540Y55669D01*
X22776D01*
Y56026D01*
X22796Y56075D01*
X22780Y56114D01*
X22788Y56156D01*
X22776Y56175D01*
Y58504D01*
D02*
G37*
G36*
X-6752D02*
X-9390D01*
Y56175D01*
X-9403Y56156D01*
X-9394Y56114D01*
X-9410Y56075D01*
X-9390Y56026D01*
Y55669D01*
X-9155D01*
X-9153Y55665D01*
X-9132Y55572D01*
X-9115Y55451D01*
X-9092Y55124D01*
X-9095Y55042D01*
X-9109Y54915D01*
X-9114Y54881D01*
X-9119Y54861D01*
X-9123Y54853D01*
X-9123Y54848D01*
X-9128Y54835D01*
X-9127Y54829D01*
X-9239Y54718D01*
X-9449Y54211D01*
Y53663D01*
X-9239Y53156D01*
X-8851Y52769D01*
X-8345Y52559D01*
X-7797D01*
X-7290Y52769D01*
X-6903Y53156D01*
X-6693Y53663D01*
Y54211D01*
X-6903Y54718D01*
X-7014Y54829D01*
X-7014Y54835D01*
X-7018Y54848D01*
X-7019Y54853D01*
X-7023Y54861D01*
X-7027Y54881D01*
X-7032Y54908D01*
X-7047Y55126D01*
X-7042Y55293D01*
X-7028Y55446D01*
X-7009Y55572D01*
X-6989Y55665D01*
X-6987Y55669D01*
X-6752D01*
Y56026D01*
X-6731Y56075D01*
X-6748Y56114D01*
X-6739Y56156D01*
X-6752Y56175D01*
Y58504D01*
D02*
G37*
G36*
X-37264D02*
X-39902D01*
Y56175D01*
X-39914Y56156D01*
X-39906Y56114D01*
X-39922Y56075D01*
X-39902Y56026D01*
Y55669D01*
X-39666D01*
X-39665Y55665D01*
X-39644Y55572D01*
X-39626Y55451D01*
X-39604Y55124D01*
X-39607Y55042D01*
X-39620Y54915D01*
X-39626Y54881D01*
X-39631Y54861D01*
X-39635Y54853D01*
X-39635Y54848D01*
X-39640Y54835D01*
X-39639Y54829D01*
X-39751Y54718D01*
X-39961Y54211D01*
Y53663D01*
X-39751Y53156D01*
X-39363Y52769D01*
X-38857Y52559D01*
X-38309D01*
X-37802Y52769D01*
X-37415Y53156D01*
X-37205Y53663D01*
Y54211D01*
X-37415Y54718D01*
X-37526Y54829D01*
X-37526Y54835D01*
X-37530Y54848D01*
X-37531Y54853D01*
X-37534Y54861D01*
X-37539Y54881D01*
X-37544Y54908D01*
X-37559Y55126D01*
X-37554Y55293D01*
X-37540Y55446D01*
X-37521Y55572D01*
X-37500Y55665D01*
X-37499Y55669D01*
X-37264D01*
Y56026D01*
X-37243Y56075D01*
X-37260Y56114D01*
X-37251Y56156D01*
X-37264Y56175D01*
Y58504D01*
D02*
G37*
G36*
X23896Y44409D02*
X23348D01*
X22841Y44200D01*
X22678Y44036D01*
X22668Y44036D01*
X22652Y44030D01*
X22647Y44029D01*
X22641Y44026D01*
X22627Y44022D01*
X22604Y44017D01*
X22297Y43993D01*
X22201Y43992D01*
X22188Y43987D01*
X22175Y43991D01*
X22151Y43979D01*
X21921D01*
X21893Y43992D01*
X21483Y44007D01*
X21334Y44023D01*
X21212Y44044D01*
X21124Y44067D01*
X21102Y44075D01*
Y44350D01*
X20746D01*
X20697Y44371D01*
X20663Y44357D01*
X20628Y44365D01*
X20604Y44350D01*
X18773D01*
X18754Y44363D01*
X18712Y44355D01*
X18673Y44371D01*
X18624Y44350D01*
X18268D01*
Y44115D01*
X18264Y44114D01*
X18171Y44093D01*
X18049Y44075D01*
X17699Y44051D01*
X17486Y44048D01*
X17456Y44035D01*
X14045D01*
X14017Y44048D01*
X13604Y44061D01*
X13452Y44074D01*
X13325Y44093D01*
X13232Y44114D01*
X13228Y44115D01*
Y44350D01*
X12872D01*
X12823Y44371D01*
X12784Y44355D01*
X12742Y44363D01*
X12723Y44350D01*
X10899D01*
X10880Y44363D01*
X10838Y44355D01*
X10799Y44371D01*
X10750Y44350D01*
X10394D01*
Y44115D01*
X10390Y44114D01*
X10297Y44093D01*
X10175Y44075D01*
X9825Y44051D01*
X9612Y44048D01*
X9582Y44035D01*
X9287D01*
X9256Y44048D01*
X9152Y44049D01*
X8979Y44056D01*
X8852Y44069D01*
X8818Y44075D01*
X8798Y44080D01*
X8790Y44084D01*
X8785Y44084D01*
X8772Y44089D01*
X8766Y44088D01*
X8655Y44200D01*
X8148Y44409D01*
X7600D01*
X7094Y44200D01*
X6982Y44088D01*
X6976Y44089D01*
X6963Y44084D01*
X6958Y44084D01*
X6950Y44080D01*
X6931Y44075D01*
X6903Y44070D01*
X6590Y44049D01*
X6492Y44048D01*
X6461Y44035D01*
X6171D01*
X6143Y44048D01*
X5730Y44061D01*
X5578Y44074D01*
X5451Y44093D01*
X5358Y44114D01*
X5354Y44115D01*
Y44350D01*
X4998D01*
X4949Y44371D01*
X4910Y44355D01*
X4868Y44363D01*
X4849Y44350D01*
X3025D01*
X3006Y44363D01*
X2964Y44355D01*
X2925Y44371D01*
X2876Y44350D01*
X2520D01*
Y44115D01*
X2516Y44114D01*
X2423Y44093D01*
X2301Y44075D01*
X1951Y44051D01*
X1738Y44048D01*
X1708Y44035D01*
X-1703D01*
X-1731Y44048D01*
X-2144Y44061D01*
X-2296Y44074D01*
X-2423Y44093D01*
X-2516Y44114D01*
X-2520Y44115D01*
Y44350D01*
X-2876D01*
X-2925Y44371D01*
X-2964Y44355D01*
X-3006Y44363D01*
X-3025Y44350D01*
X-4849D01*
X-4868Y44363D01*
X-4910Y44355D01*
X-4949Y44371D01*
X-4998Y44350D01*
X-5354D01*
Y44115D01*
X-5358Y44114D01*
X-5451Y44093D01*
X-5573Y44075D01*
X-5923Y44051D01*
X-6136Y44048D01*
X-6166Y44035D01*
X-6461D01*
X-6492Y44048D01*
X-6596Y44049D01*
X-6769Y44056D01*
X-6896Y44069D01*
X-6931Y44075D01*
X-6950Y44080D01*
X-6958Y44084D01*
X-6963Y44084D01*
X-6976Y44089D01*
X-6982Y44088D01*
X-7094Y44200D01*
X-7600Y44409D01*
X-8148D01*
X-8655Y44200D01*
X-8766Y44088D01*
X-8772Y44089D01*
X-8785Y44084D01*
X-8790Y44084D01*
X-8798Y44080D01*
X-8818Y44075D01*
X-8845Y44070D01*
X-9158Y44049D01*
X-9256Y44048D01*
X-9287Y44035D01*
X-9577D01*
X-9605Y44048D01*
X-10018Y44061D01*
X-10170Y44074D01*
X-10297Y44093D01*
X-10390Y44114D01*
X-10394Y44115D01*
Y44350D01*
X-10750D01*
X-10799Y44371D01*
X-10838Y44355D01*
X-10880Y44363D01*
X-10899Y44350D01*
X-12723D01*
X-12742Y44363D01*
X-12784Y44355D01*
X-12823Y44371D01*
X-12872Y44350D01*
X-13228D01*
Y44115D01*
X-13232Y44114D01*
X-13325Y44093D01*
X-13447Y44075D01*
X-13797Y44051D01*
X-14010Y44048D01*
X-14040Y44035D01*
X-17451D01*
X-17479Y44048D01*
X-17892Y44061D01*
X-18044Y44074D01*
X-18171Y44093D01*
X-18264Y44114D01*
X-18268Y44115D01*
Y44350D01*
X-18624D01*
X-18673Y44371D01*
X-18713Y44355D01*
X-18754Y44363D01*
X-18773Y44350D01*
X-20597D01*
X-20616Y44363D01*
X-20658Y44355D01*
X-20697Y44371D01*
X-20746Y44350D01*
X-21102D01*
Y44115D01*
X-21106Y44114D01*
X-21199Y44093D01*
X-21321Y44075D01*
X-21671Y44051D01*
X-21884Y44048D01*
X-21914Y44035D01*
X-22209D01*
X-22240Y44048D01*
X-22344Y44049D01*
X-22517Y44056D01*
X-22644Y44069D01*
X-22679Y44075D01*
X-22698Y44080D01*
X-22706Y44084D01*
X-22711Y44084D01*
X-22724Y44089D01*
X-22730Y44088D01*
X-22841Y44200D01*
X-23348Y44409D01*
X-23896D01*
X-24403Y44200D01*
X-24514Y44088D01*
X-24520Y44089D01*
X-24533Y44084D01*
X-24538Y44084D01*
X-24546Y44080D01*
X-24566Y44075D01*
X-24593Y44070D01*
X-24906Y44049D01*
X-25004Y44048D01*
X-25035Y44035D01*
X-25325D01*
X-25353Y44048D01*
X-25766Y44061D01*
X-25918Y44074D01*
X-26045Y44093D01*
X-26138Y44114D01*
X-26142Y44115D01*
Y44350D01*
X-26498D01*
X-26547Y44371D01*
X-26587Y44355D01*
X-26628Y44363D01*
X-26647Y44350D01*
X-28976D01*
Y41713D01*
X-26647D01*
X-26628Y41700D01*
X-26587Y41708D01*
X-26547Y41692D01*
X-26498Y41713D01*
X-26142D01*
Y41948D01*
X-26138Y41949D01*
X-26045Y41970D01*
X-25923Y41988D01*
X-25573Y42012D01*
X-25360Y42015D01*
X-25330Y42028D01*
X-25035D01*
X-25004Y42015D01*
X-24900Y42014D01*
X-24727Y42007D01*
X-24600Y41994D01*
X-24566Y41988D01*
X-24546Y41983D01*
X-24538Y41979D01*
X-24533Y41979D01*
X-24520Y41974D01*
X-24514Y41975D01*
X-24403Y41863D01*
X-23896Y41654D01*
X-23348D01*
X-22841Y41863D01*
X-22730Y41975D01*
X-22724Y41974D01*
X-22711Y41979D01*
X-22706Y41979D01*
X-22698Y41983D01*
X-22679Y41988D01*
X-22651Y41993D01*
X-22339Y42014D01*
X-22240Y42015D01*
X-22209Y42028D01*
X-21919D01*
X-21891Y42015D01*
X-21478Y42002D01*
X-21326Y41989D01*
X-21199Y41970D01*
X-21106Y41949D01*
X-21102Y41948D01*
Y41713D01*
X-20746D01*
X-20697Y41692D01*
X-20658Y41708D01*
X-20616Y41700D01*
X-20597Y41713D01*
X-18773D01*
X-18754Y41700D01*
X-18712Y41708D01*
X-18673Y41692D01*
X-18624Y41713D01*
X-18268D01*
Y41948D01*
X-18264Y41949D01*
X-18171Y41970D01*
X-18049Y41988D01*
X-17699Y42012D01*
X-17486Y42015D01*
X-17456Y42028D01*
X-14045D01*
X-14017Y42015D01*
X-13604Y42002D01*
X-13452Y41989D01*
X-13325Y41970D01*
X-13232Y41949D01*
X-13228Y41948D01*
Y41713D01*
X-12872D01*
X-12823Y41692D01*
X-12784Y41708D01*
X-12742Y41700D01*
X-12723Y41713D01*
X-10899D01*
X-10880Y41700D01*
X-10838Y41708D01*
X-10799Y41692D01*
X-10750Y41713D01*
X-10394D01*
Y41948D01*
X-10390Y41949D01*
X-10297Y41970D01*
X-10175Y41988D01*
X-9825Y42012D01*
X-9612Y42015D01*
X-9582Y42028D01*
X-9287D01*
X-9256Y42015D01*
X-9152Y42014D01*
X-8979Y42007D01*
X-8852Y41994D01*
X-8818Y41988D01*
X-8798Y41983D01*
X-8790Y41979D01*
X-8785Y41979D01*
X-8772Y41974D01*
X-8766Y41975D01*
X-8655Y41863D01*
X-8148Y41654D01*
X-7600D01*
X-7094Y41863D01*
X-6982Y41975D01*
X-6976Y41974D01*
X-6963Y41979D01*
X-6958Y41979D01*
X-6950Y41983D01*
X-6931Y41988D01*
X-6903Y41993D01*
X-6590Y42014D01*
X-6492Y42015D01*
X-6461Y42028D01*
X-6171D01*
X-6143Y42015D01*
X-5730Y42002D01*
X-5578Y41989D01*
X-5451Y41970D01*
X-5358Y41949D01*
X-5354Y41948D01*
Y41713D01*
X-4998D01*
X-4949Y41692D01*
X-4910Y41708D01*
X-4868Y41700D01*
X-4849Y41713D01*
X-3025D01*
X-3006Y41700D01*
X-2964Y41708D01*
X-2925Y41692D01*
X-2876Y41713D01*
X-2520D01*
Y41948D01*
X-2516Y41949D01*
X-2423Y41970D01*
X-2301Y41988D01*
X-1951Y42012D01*
X-1738Y42015D01*
X-1708Y42028D01*
X1703D01*
X1731Y42015D01*
X2144Y42002D01*
X2296Y41989D01*
X2423Y41970D01*
X2516Y41949D01*
X2520Y41948D01*
Y41713D01*
X2876D01*
X2925Y41692D01*
X2964Y41708D01*
X3006Y41700D01*
X3025Y41713D01*
X4849D01*
X4868Y41700D01*
X4910Y41708D01*
X4949Y41692D01*
X4998Y41713D01*
X5354D01*
Y41948D01*
X5358Y41949D01*
X5451Y41970D01*
X5573Y41988D01*
X5923Y42012D01*
X6136Y42015D01*
X6166Y42028D01*
X6461D01*
X6492Y42015D01*
X6596Y42014D01*
X6769Y42007D01*
X6896Y41994D01*
X6931Y41988D01*
X6950Y41983D01*
X6958Y41979D01*
X6963Y41979D01*
X6976Y41974D01*
X6982Y41975D01*
X7094Y41863D01*
X7600Y41654D01*
X8148D01*
X8655Y41863D01*
X8766Y41975D01*
X8772Y41974D01*
X8785Y41979D01*
X8790Y41979D01*
X8798Y41983D01*
X8818Y41988D01*
X8845Y41993D01*
X9158Y42014D01*
X9256Y42015D01*
X9287Y42028D01*
X9577D01*
X9605Y42015D01*
X10018Y42002D01*
X10170Y41989D01*
X10297Y41970D01*
X10390Y41949D01*
X10394Y41948D01*
Y41713D01*
X10750D01*
X10799Y41692D01*
X10838Y41708D01*
X10880Y41700D01*
X10899Y41713D01*
X12723D01*
X12742Y41700D01*
X12784Y41708D01*
X12823Y41692D01*
X12872Y41713D01*
X13228D01*
Y41948D01*
X13232Y41949D01*
X13325Y41970D01*
X13447Y41988D01*
X13797Y42012D01*
X14010Y42015D01*
X14040Y42028D01*
X17451D01*
X17479Y42015D01*
X17892Y42002D01*
X18044Y41989D01*
X18171Y41970D01*
X18264Y41949D01*
X18268Y41948D01*
Y41713D01*
X18624D01*
X18673Y41692D01*
X18713Y41708D01*
X18754Y41700D01*
X18773Y41713D01*
X20587D01*
X20600Y41703D01*
X20650Y41712D01*
X20697Y41692D01*
X20746Y41713D01*
X21102D01*
Y41905D01*
X21177Y41919D01*
X21672Y41956D01*
X21883Y41959D01*
X21914Y41972D01*
X22250D01*
X22279Y41959D01*
X22570Y41952D01*
X22699Y41941D01*
X22737Y41936D01*
X22760Y41931D01*
X22761Y41931D01*
X22770Y41927D01*
X22775Y41927D01*
X22779Y41925D01*
X22841Y41863D01*
X23348Y41654D01*
X23896D01*
X24403Y41863D01*
X24514Y41975D01*
X24520Y41974D01*
X24533Y41979D01*
X24538Y41979D01*
X24546Y41983D01*
X24566Y41988D01*
X24593Y41993D01*
X24906Y42014D01*
X25004Y42015D01*
X25035Y42028D01*
X25325D01*
X25353Y42015D01*
X25766Y42002D01*
X25918Y41989D01*
X26045Y41970D01*
X26138Y41949D01*
X26142Y41948D01*
Y41713D01*
X26498D01*
X26547Y41692D01*
X26587Y41708D01*
X26628Y41700D01*
X26647Y41713D01*
X28976D01*
Y44350D01*
X26647D01*
X26628Y44363D01*
X26586Y44355D01*
X26547Y44371D01*
X26498Y44350D01*
X26142D01*
Y44115D01*
X26138Y44114D01*
X26045Y44093D01*
X25923Y44075D01*
X25573Y44051D01*
X25360Y44048D01*
X25330Y44035D01*
X25035D01*
X25004Y44048D01*
X24900Y44049D01*
X24727Y44056D01*
X24600Y44069D01*
X24566Y44075D01*
X24546Y44080D01*
X24538Y44084D01*
X24533Y44084D01*
X24520Y44089D01*
X24514Y44088D01*
X24403Y44200D01*
X23896Y44409D01*
D02*
G37*
G36*
X28976Y40965D02*
X26142D01*
Y38821D01*
X26126Y38795D01*
X26134Y38763D01*
X26121Y38732D01*
X26142Y38683D01*
Y38327D01*
X26447D01*
X26462Y38292D01*
X26486Y38207D01*
X26508Y38094D01*
X26539Y37753D01*
X26542Y37543D01*
X26555Y37513D01*
Y37430D01*
X26542Y37401D01*
X26537Y37189D01*
X26522Y37017D01*
X26499Y36876D01*
X26471Y36768D01*
X26441Y36694D01*
X26416Y36653D01*
X26404Y36639D01*
X26403Y36639D01*
X26344Y36632D01*
X26311Y36614D01*
X25984D01*
Y36258D01*
X25964Y36209D01*
X25973Y36186D01*
X25966Y36163D01*
X25984Y36130D01*
Y33858D01*
X29134D01*
Y36130D01*
X29152Y36163D01*
X29145Y36186D01*
X29154Y36209D01*
X29134Y36258D01*
Y36614D01*
X28807D01*
X28774Y36632D01*
X28715Y36639D01*
X28714Y36639D01*
X28702Y36653D01*
X28677Y36694D01*
X28648Y36768D01*
X28619Y36876D01*
X28596Y37017D01*
X28581Y37189D01*
X28576Y37401D01*
X28563Y37430D01*
Y37513D01*
X28576Y37543D01*
X28580Y37758D01*
X28591Y37938D01*
X28609Y38088D01*
X28632Y38207D01*
X28656Y38292D01*
X28672Y38327D01*
X28976D01*
Y38683D01*
X28997Y38732D01*
X28984Y38763D01*
X28992Y38795D01*
X28976Y38821D01*
Y40965D01*
D02*
G37*
G36*
X21102D02*
X18268D01*
Y38821D01*
X18252Y38795D01*
X18260Y38763D01*
X18247Y38732D01*
X18268Y38683D01*
Y38327D01*
X18573D01*
X18588Y38292D01*
X18612Y38207D01*
X18634Y38094D01*
X18665Y37753D01*
X18668Y37543D01*
X18681Y37513D01*
Y37430D01*
X18668Y37401D01*
X18663Y37189D01*
X18648Y37017D01*
X18625Y36876D01*
X18597Y36768D01*
X18567Y36694D01*
X18542Y36653D01*
X18530Y36639D01*
X18529Y36639D01*
X18470Y36632D01*
X18438Y36614D01*
X18110D01*
Y36258D01*
X18090Y36209D01*
X18099Y36186D01*
X18092Y36163D01*
X18110Y36130D01*
Y33858D01*
X21260D01*
Y36130D01*
X21278Y36163D01*
X21271Y36186D01*
X21280Y36209D01*
X21260Y36258D01*
Y36614D01*
X20933D01*
X20900Y36632D01*
X20841Y36639D01*
X20841Y36639D01*
X20828Y36653D01*
X20803Y36694D01*
X20774Y36768D01*
X20745Y36876D01*
X20722Y37017D01*
X20707Y37189D01*
X20702Y37401D01*
X20689Y37430D01*
Y37513D01*
X20702Y37543D01*
X20706Y37758D01*
X20717Y37938D01*
X20735Y38088D01*
X20758Y38207D01*
X20782Y38292D01*
X20798Y38327D01*
X21102D01*
Y38683D01*
X21123Y38732D01*
X21110Y38763D01*
X21118Y38795D01*
X21102Y38821D01*
Y40965D01*
D02*
G37*
G36*
X13228D02*
X10394D01*
Y38821D01*
X10378Y38795D01*
X10386Y38763D01*
X10373Y38732D01*
X10394Y38683D01*
Y38327D01*
X10699D01*
X10714Y38292D01*
X10738Y38207D01*
X10760Y38094D01*
X10791Y37753D01*
X10794Y37543D01*
X10808Y37513D01*
Y37430D01*
X10795Y37401D01*
X10789Y37189D01*
X10774Y37017D01*
X10751Y36876D01*
X10723Y36768D01*
X10693Y36694D01*
X10668Y36653D01*
X10656Y36639D01*
X10655Y36639D01*
X10596Y36632D01*
X10563Y36614D01*
X10236D01*
Y36258D01*
X10216Y36209D01*
X10225Y36186D01*
X10218Y36163D01*
X10236Y36130D01*
Y33858D01*
X13386D01*
Y36130D01*
X13404Y36163D01*
X13397Y36186D01*
X13406Y36209D01*
X13386Y36258D01*
Y36614D01*
X13059D01*
X13026Y36632D01*
X12967Y36639D01*
X12966Y36639D01*
X12954Y36653D01*
X12929Y36694D01*
X12900Y36768D01*
X12871Y36876D01*
X12848Y37017D01*
X12833Y37189D01*
X12828Y37401D01*
X12814Y37430D01*
Y37513D01*
X12828Y37543D01*
X12832Y37758D01*
X12843Y37938D01*
X12861Y38088D01*
X12884Y38207D01*
X12908Y38292D01*
X12924Y38327D01*
X13228D01*
Y38683D01*
X13249Y38732D01*
X13236Y38763D01*
X13244Y38795D01*
X13228Y38821D01*
Y40965D01*
D02*
G37*
G36*
X5354D02*
X2520D01*
Y38821D01*
X2504Y38795D01*
X2512Y38763D01*
X2499Y38732D01*
X2520Y38683D01*
Y38327D01*
X2825D01*
X2840Y38292D01*
X2864Y38207D01*
X2886Y38094D01*
X2916Y37753D01*
X2920Y37543D01*
X2933Y37513D01*
Y37430D01*
X2921Y37401D01*
X2915Y37189D01*
X2900Y37017D01*
X2877Y36876D01*
X2849Y36768D01*
X2819Y36694D01*
X2794Y36653D01*
X2782Y36639D01*
X2781Y36639D01*
X2722Y36632D01*
X2689Y36614D01*
X2362D01*
Y36258D01*
X2342Y36209D01*
X2351Y36186D01*
X2344Y36163D01*
X2362Y36130D01*
Y33858D01*
X5512D01*
Y36130D01*
X5530Y36163D01*
X5523Y36186D01*
X5532Y36209D01*
X5512Y36258D01*
Y36614D01*
X5185D01*
X5152Y36632D01*
X5093Y36639D01*
X5092Y36639D01*
X5080Y36653D01*
X5055Y36694D01*
X5026Y36768D01*
X4997Y36876D01*
X4974Y37017D01*
X4959Y37189D01*
X4954Y37401D01*
X4941Y37430D01*
Y37513D01*
X4954Y37543D01*
X4958Y37758D01*
X4969Y37938D01*
X4987Y38088D01*
X5010Y38207D01*
X5034Y38292D01*
X5049Y38327D01*
X5354D01*
Y38683D01*
X5375Y38732D01*
X5362Y38763D01*
X5370Y38795D01*
X5354Y38821D01*
Y40965D01*
D02*
G37*
G36*
X-2520D02*
X-5354D01*
Y38821D01*
X-5370Y38795D01*
X-5362Y38763D01*
X-5375Y38732D01*
X-5354Y38683D01*
Y38327D01*
X-5049D01*
X-5034Y38292D01*
X-5010Y38207D01*
X-4988Y38094D01*
X-4958Y37753D01*
X-4954Y37543D01*
X-4941Y37513D01*
Y37430D01*
X-4954Y37401D01*
X-4959Y37189D01*
X-4974Y37017D01*
X-4997Y36876D01*
X-5026Y36768D01*
X-5055Y36694D01*
X-5080Y36653D01*
X-5092Y36639D01*
X-5093Y36639D01*
X-5152Y36632D01*
X-5185Y36614D01*
X-5512D01*
Y36258D01*
X-5532Y36209D01*
X-5523Y36186D01*
X-5530Y36163D01*
X-5512Y36130D01*
Y33858D01*
X-2362D01*
Y36130D01*
X-2344Y36163D01*
X-2351Y36186D01*
X-2342Y36209D01*
X-2362Y36258D01*
Y36614D01*
X-2689D01*
X-2722Y36632D01*
X-2781Y36639D01*
X-2782Y36639D01*
X-2794Y36653D01*
X-2819Y36694D01*
X-2849Y36768D01*
X-2877Y36876D01*
X-2900Y37017D01*
X-2915Y37189D01*
X-2921Y37401D01*
X-2933Y37430D01*
Y37513D01*
X-2920Y37543D01*
X-2916Y37758D01*
X-2905Y37938D01*
X-2887Y38088D01*
X-2864Y38207D01*
X-2840Y38292D01*
X-2825Y38327D01*
X-2520D01*
Y38683D01*
X-2499Y38732D01*
X-2512Y38763D01*
X-2504Y38795D01*
X-2520Y38821D01*
Y40965D01*
D02*
G37*
G36*
X-10394D02*
X-13228D01*
Y38821D01*
X-13244Y38795D01*
X-13236Y38763D01*
X-13249Y38732D01*
X-13228Y38683D01*
Y38327D01*
X-12924D01*
X-12908Y38292D01*
X-12884Y38207D01*
X-12862Y38094D01*
X-12832Y37753D01*
X-12828Y37543D01*
X-12815Y37513D01*
Y37430D01*
X-12828Y37401D01*
X-12833Y37189D01*
X-12848Y37017D01*
X-12871Y36876D01*
X-12900Y36768D01*
X-12929Y36694D01*
X-12954Y36653D01*
X-12966Y36639D01*
X-12967Y36639D01*
X-13026Y36632D01*
X-13059Y36614D01*
X-13386D01*
Y36258D01*
X-13406Y36209D01*
X-13397Y36186D01*
X-13404Y36163D01*
X-13386Y36130D01*
Y33858D01*
X-10236D01*
Y36130D01*
X-10218Y36163D01*
X-10225Y36186D01*
X-10216Y36209D01*
X-10236Y36258D01*
Y36614D01*
X-10563D01*
X-10596Y36632D01*
X-10655Y36639D01*
X-10656Y36639D01*
X-10668Y36653D01*
X-10693Y36694D01*
X-10723Y36768D01*
X-10751Y36876D01*
X-10774Y37017D01*
X-10789Y37189D01*
X-10795Y37401D01*
X-10808Y37430D01*
Y37513D01*
X-10794Y37543D01*
X-10790Y37758D01*
X-10779Y37938D01*
X-10761Y38088D01*
X-10738Y38207D01*
X-10714Y38292D01*
X-10699Y38327D01*
X-10394D01*
Y38683D01*
X-10373Y38732D01*
X-10386Y38763D01*
X-10378Y38795D01*
X-10394Y38821D01*
Y40965D01*
D02*
G37*
G36*
X-18268D02*
X-21102D01*
Y38821D01*
X-21118Y38795D01*
X-21110Y38763D01*
X-21123Y38732D01*
X-21102Y38683D01*
Y38327D01*
X-20798D01*
X-20782Y38292D01*
X-20758Y38207D01*
X-20736Y38094D01*
X-20706Y37753D01*
X-20702Y37543D01*
X-20689Y37513D01*
Y37430D01*
X-20702Y37401D01*
X-20707Y37189D01*
X-20722Y37017D01*
X-20745Y36876D01*
X-20774Y36768D01*
X-20803Y36694D01*
X-20828Y36653D01*
X-20841Y36639D01*
X-20841Y36639D01*
X-20900Y36632D01*
X-20933Y36614D01*
X-21260D01*
Y36258D01*
X-21280Y36209D01*
X-21271Y36186D01*
X-21278Y36163D01*
X-21260Y36130D01*
Y33858D01*
X-18110D01*
Y36130D01*
X-18092Y36163D01*
X-18099Y36186D01*
X-18090Y36209D01*
X-18110Y36258D01*
Y36614D01*
X-18438D01*
X-18470Y36632D01*
X-18529Y36639D01*
X-18530Y36639D01*
X-18542Y36653D01*
X-18567Y36694D01*
X-18597Y36768D01*
X-18625Y36876D01*
X-18648Y37017D01*
X-18663Y37189D01*
X-18668Y37401D01*
X-18681Y37430D01*
Y37513D01*
X-18668Y37543D01*
X-18664Y37758D01*
X-18653Y37938D01*
X-18635Y38088D01*
X-18612Y38207D01*
X-18588Y38292D01*
X-18573Y38327D01*
X-18268D01*
Y38683D01*
X-18247Y38732D01*
X-18260Y38763D01*
X-18252Y38795D01*
X-18268Y38821D01*
Y40965D01*
D02*
G37*
G36*
X-26142D02*
X-28976D01*
Y38821D01*
X-28992Y38795D01*
X-28984Y38763D01*
X-28997Y38732D01*
X-28976Y38683D01*
Y38327D01*
X-28672D01*
X-28656Y38292D01*
X-28632Y38207D01*
X-28610Y38094D01*
X-28580Y37753D01*
X-28576Y37543D01*
X-28563Y37513D01*
Y37430D01*
X-28576Y37401D01*
X-28581Y37189D01*
X-28596Y37017D01*
X-28619Y36876D01*
X-28648Y36768D01*
X-28677Y36694D01*
X-28702Y36653D01*
X-28714Y36639D01*
X-28715Y36639D01*
X-28774Y36632D01*
X-28807Y36614D01*
X-29134D01*
Y36258D01*
X-29154Y36209D01*
X-29145Y36186D01*
X-29152Y36163D01*
X-29134Y36130D01*
Y33858D01*
X-25984D01*
Y36130D01*
X-25966Y36163D01*
X-25973Y36186D01*
X-25964Y36209D01*
X-25984Y36258D01*
Y36614D01*
X-26311D01*
X-26344Y36632D01*
X-26403Y36639D01*
X-26404Y36639D01*
X-26416Y36653D01*
X-26441Y36694D01*
X-26471Y36768D01*
X-26499Y36876D01*
X-26522Y37017D01*
X-26537Y37189D01*
X-26542Y37401D01*
X-26555Y37430D01*
Y37513D01*
X-26542Y37543D01*
X-26538Y37758D01*
X-26527Y37938D01*
X-26509Y38088D01*
X-26486Y38207D01*
X-26462Y38292D01*
X-26447Y38327D01*
X-26142D01*
Y38683D01*
X-26121Y38732D01*
X-26134Y38763D01*
X-26126Y38795D01*
X-26142Y38821D01*
Y40965D01*
D02*
G37*
G36*
X29134Y33071D02*
X25984D01*
Y30799D01*
X25966Y30766D01*
X25973Y30743D01*
X25964Y30721D01*
X25971Y30703D01*
X25984Y30315D01*
X25984D01*
X26231Y29921D01*
X26181Y29802D01*
Y29254D01*
X26391Y28747D01*
X26779Y28359D01*
X27285Y28150D01*
X27833D01*
X28340Y28359D01*
X28727Y28747D01*
X28937Y29254D01*
Y29802D01*
X28888Y29921D01*
X29134Y30315D01*
X29134D01*
X29147Y30703D01*
X29154Y30721D01*
X29145Y30743D01*
X29152Y30766D01*
X29134Y30799D01*
Y33071D01*
D02*
G37*
G36*
X21260D02*
X18110D01*
Y30799D01*
X18092Y30766D01*
X18099Y30743D01*
X18090Y30721D01*
X18097Y30703D01*
X18110Y30315D01*
X18110D01*
X18357Y29921D01*
X18307Y29802D01*
Y29254D01*
X18517Y28747D01*
X18904Y28359D01*
X19411Y28150D01*
X19959D01*
X20466Y28359D01*
X20853Y28747D01*
X21063Y29254D01*
Y29802D01*
X21013Y29921D01*
X21260Y30315D01*
X21260D01*
X21273Y30703D01*
X21280Y30721D01*
X21271Y30743D01*
X21278Y30766D01*
X21260Y30799D01*
Y33071D01*
D02*
G37*
G36*
X13386D02*
X10236D01*
Y30799D01*
X10218Y30766D01*
X10225Y30743D01*
X10216Y30721D01*
X10223Y30703D01*
X10236Y30315D01*
X10236D01*
X10483Y29921D01*
X10433Y29802D01*
Y29254D01*
X10643Y28747D01*
X11030Y28359D01*
X11537Y28150D01*
X12085D01*
X12592Y28359D01*
X12979Y28747D01*
X13189Y29254D01*
Y29802D01*
X13139Y29921D01*
X13386Y30315D01*
X13386D01*
X13399Y30703D01*
X13406Y30721D01*
X13397Y30743D01*
X13404Y30766D01*
X13386Y30799D01*
Y33071D01*
D02*
G37*
G36*
X5512D02*
X2362D01*
Y30799D01*
X2344Y30766D01*
X2351Y30743D01*
X2342Y30721D01*
X2349Y30703D01*
X2362Y30315D01*
X2362D01*
X2609Y29921D01*
X2559Y29802D01*
Y29254D01*
X2769Y28747D01*
X3156Y28359D01*
X3663Y28150D01*
X4211D01*
X4718Y28359D01*
X5105Y28747D01*
X5315Y29254D01*
Y29802D01*
X5265Y29921D01*
X5512Y30315D01*
X5512D01*
X5525Y30703D01*
X5532Y30721D01*
X5523Y30743D01*
X5530Y30766D01*
X5512Y30799D01*
Y33071D01*
D02*
G37*
G36*
X-2362D02*
X-5512D01*
Y30799D01*
X-5530Y30766D01*
X-5523Y30743D01*
X-5532Y30721D01*
X-5525Y30703D01*
X-5512Y30315D01*
X-5512D01*
X-5265Y29921D01*
X-5315Y29802D01*
Y29254D01*
X-5105Y28747D01*
X-4718Y28359D01*
X-4211Y28150D01*
X-3663D01*
X-3156Y28359D01*
X-2769Y28747D01*
X-2559Y29254D01*
Y29802D01*
X-2609Y29921D01*
X-2362Y30315D01*
X-2362D01*
X-2349Y30703D01*
X-2342Y30721D01*
X-2351Y30743D01*
X-2344Y30766D01*
X-2362Y30799D01*
Y33071D01*
D02*
G37*
G36*
X-10236D02*
X-13386D01*
Y30799D01*
X-13404Y30766D01*
X-13397Y30743D01*
X-13406Y30721D01*
X-13399Y30703D01*
X-13386Y30315D01*
X-13386D01*
X-13139Y29921D01*
X-13189Y29802D01*
Y29254D01*
X-12979Y28747D01*
X-12592Y28359D01*
X-12085Y28150D01*
X-11537D01*
X-11030Y28359D01*
X-10643Y28747D01*
X-10433Y29254D01*
Y29802D01*
X-10483Y29921D01*
X-10236Y30315D01*
X-10236D01*
X-10223Y30703D01*
X-10216Y30721D01*
X-10225Y30743D01*
X-10218Y30766D01*
X-10236Y30799D01*
Y33071D01*
D02*
G37*
G36*
X-18110D02*
X-21260D01*
Y30799D01*
X-21278Y30766D01*
X-21271Y30743D01*
X-21280Y30721D01*
X-21273Y30703D01*
X-21260Y30315D01*
X-21260D01*
X-21013Y29921D01*
X-21063Y29802D01*
Y29254D01*
X-20853Y28747D01*
X-20466Y28359D01*
X-19959Y28150D01*
X-19411D01*
X-18904Y28359D01*
X-18517Y28747D01*
X-18307Y29254D01*
Y29802D01*
X-18357Y29921D01*
X-18110Y30315D01*
X-18110D01*
X-18097Y30703D01*
X-18090Y30721D01*
X-18099Y30743D01*
X-18092Y30766D01*
X-18110Y30799D01*
Y33071D01*
D02*
G37*
G36*
X-25984D02*
X-29134D01*
Y30799D01*
X-29152Y30766D01*
X-29145Y30743D01*
X-29154Y30721D01*
X-29147Y30703D01*
X-29134Y30315D01*
X-29134D01*
X-28888Y29921D01*
X-28937Y29802D01*
Y29254D01*
X-28727Y28747D01*
X-28340Y28359D01*
X-27833Y28150D01*
X-27285D01*
X-26779Y28359D01*
X-26391Y28747D01*
X-26181Y29254D01*
Y29802D01*
X-26231Y29921D01*
X-25984Y30315D01*
X-25984D01*
X-25971Y30703D01*
X-25964Y30721D01*
X-25973Y30743D01*
X-25966Y30766D01*
X-25984Y30799D01*
Y33071D01*
D02*
G37*
G36*
X27833Y14173D02*
X27285D01*
X26779Y13963D01*
X26391Y13576D01*
X26181Y13069D01*
Y12521D01*
X26391Y12015D01*
X26779Y11627D01*
X27285Y11417D01*
X27833D01*
X28340Y11627D01*
X28727Y12015D01*
X28937Y12521D01*
Y13069D01*
X28727Y13576D01*
X28340Y13963D01*
X27833Y14173D01*
D02*
G37*
G36*
X24683D02*
X24135D01*
X23629Y13963D01*
X23241Y13576D01*
X23031Y13069D01*
Y12521D01*
X23241Y12015D01*
X23629Y11627D01*
X24135Y11417D01*
X24683D01*
X25190Y11627D01*
X25578Y12015D01*
X25787Y12521D01*
Y13069D01*
X25578Y13576D01*
X25190Y13963D01*
X24683Y14173D01*
D02*
G37*
G36*
X21534D02*
X20986D01*
X20479Y13963D01*
X20092Y13576D01*
X19882Y13069D01*
Y12521D01*
X20092Y12015D01*
X20479Y11627D01*
X20986Y11417D01*
X21534D01*
X22040Y11627D01*
X22428Y12015D01*
X22638Y12521D01*
Y13069D01*
X22428Y13576D01*
X22040Y13963D01*
X21534Y14173D01*
D02*
G37*
G36*
X18384D02*
X17836D01*
X17330Y13963D01*
X16942Y13576D01*
X16732Y13069D01*
Y12521D01*
X16942Y12015D01*
X17330Y11627D01*
X17836Y11417D01*
X18384D01*
X18891Y11627D01*
X19278Y12015D01*
X19488Y12521D01*
Y13069D01*
X19278Y13576D01*
X18891Y13963D01*
X18384Y14173D01*
D02*
G37*
G36*
X15235D02*
X14686D01*
X14180Y13963D01*
X13792Y13576D01*
X13583Y13069D01*
Y12521D01*
X13792Y12015D01*
X14180Y11627D01*
X14686Y11417D01*
X15235D01*
X15741Y11627D01*
X16129Y12015D01*
X16339Y12521D01*
Y13069D01*
X16129Y13576D01*
X15741Y13963D01*
X15235Y14173D01*
D02*
G37*
G36*
X12085D02*
X11537D01*
X11030Y13963D01*
X10643Y13576D01*
X10433Y13069D01*
Y12521D01*
X10643Y12015D01*
X11030Y11627D01*
X11537Y11417D01*
X12085D01*
X12592Y11627D01*
X12979Y12015D01*
X13189Y12521D01*
Y13069D01*
X12979Y13576D01*
X12592Y13963D01*
X12085Y14173D01*
D02*
G37*
G36*
X8935D02*
X8387D01*
X7881Y13963D01*
X7493Y13576D01*
X7283Y13069D01*
Y12521D01*
X7493Y12015D01*
X7881Y11627D01*
X8387Y11417D01*
X8935D01*
X9442Y11627D01*
X9830Y12015D01*
X10039Y12521D01*
Y13069D01*
X9830Y13576D01*
X9442Y13963D01*
X8935Y14173D01*
D02*
G37*
G36*
X5786D02*
X5238D01*
X4731Y13963D01*
X4344Y13576D01*
X4134Y13069D01*
Y12521D01*
X4344Y12015D01*
X4731Y11627D01*
X5238Y11417D01*
X5786D01*
X6292Y11627D01*
X6680Y12015D01*
X6890Y12521D01*
Y13069D01*
X6680Y13576D01*
X6292Y13963D01*
X5786Y14173D01*
D02*
G37*
%LPD*%
G36*
X50067Y60055D02*
X50035Y60031D01*
X50007Y59992D01*
X49982Y59936D01*
X49962Y59865D01*
X49945Y59778D01*
X49931Y59675D01*
X49916Y59423D01*
X49915Y59273D01*
X48733D01*
X48713Y60051D01*
X50103Y60063D01*
X50067Y60055D01*
D02*
G37*
G36*
X49496Y58098D02*
X48149Y58086D01*
X48181Y58094D01*
X48209Y58118D01*
X48234Y58156D01*
X48256Y58210D01*
X48274Y58279D01*
X48289Y58364D01*
X48301Y58464D01*
X48314Y58709D01*
X48316Y58855D01*
X49496D01*
Y58098D01*
D02*
G37*
G36*
X42893Y58018D02*
X42929Y57947D01*
X42988Y57884D01*
X43071Y57829D01*
X43177Y57782D01*
X43307Y57744D01*
X43460Y57715D01*
X43638Y57694D01*
X43838Y57681D01*
X44063Y57677D01*
Y56496D01*
X43838Y56492D01*
X43460Y56458D01*
X43307Y56429D01*
X43177Y56391D01*
X43071Y56344D01*
X42988Y56290D01*
X42929Y56227D01*
X42893Y56155D01*
X42882Y56075D01*
Y58098D01*
X42893Y58018D01*
D02*
G37*
G36*
X47670Y56075D02*
X49496D01*
X49435Y56063D01*
X49380Y56028D01*
X49331Y55969D01*
X49289Y55886D01*
X49254Y55780D01*
X49225Y55650D01*
X49202Y55496D01*
X49186Y55319D01*
X49180Y55118D01*
X49198Y54857D01*
X49209Y54794D01*
X49222Y54741D01*
X49236Y54698D01*
X49253Y54664D01*
X49272Y54640D01*
X47894D01*
X47912Y54664D01*
X47929Y54698D01*
X47944Y54741D01*
X47957Y54794D01*
X47967Y54857D01*
X47983Y55011D01*
X47988Y55130D01*
X47963Y55496D01*
X47940Y55650D01*
X47912Y55780D01*
X47876Y55886D01*
X47834Y55969D01*
X47786Y56028D01*
X47731Y56063D01*
X47670Y56075D01*
X47658Y56155D01*
X47622Y56227D01*
X47563Y56290D01*
X47480Y56344D01*
X47374Y56391D01*
X47244Y56429D01*
X47091Y56458D01*
X46914Y56479D01*
X46713Y56492D01*
X46488Y56496D01*
Y57677D01*
X46713Y57681D01*
X47091Y57715D01*
X47244Y57744D01*
X47374Y57782D01*
X47480Y57829D01*
X47563Y57884D01*
X47622Y57947D01*
X47658Y58018D01*
X47670Y58098D01*
Y56075D01*
D02*
G37*
G36*
X19555Y60055D02*
X19523Y60031D01*
X19495Y59992D01*
X19470Y59936D01*
X19450Y59865D01*
X19433Y59778D01*
X19420Y59675D01*
X19405Y59423D01*
X19403Y59273D01*
X18222D01*
X18201Y60051D01*
X19591Y60063D01*
X19555Y60055D01*
D02*
G37*
G36*
X18984Y58098D02*
X17638Y58086D01*
X17669Y58094D01*
X17697Y58118D01*
X17722Y58156D01*
X17744Y58210D01*
X17762Y58279D01*
X17777Y58364D01*
X17789Y58464D01*
X17802Y58709D01*
X17804Y58855D01*
X18984D01*
Y58098D01*
D02*
G37*
G36*
X12382Y58018D02*
X12417Y57947D01*
X12476Y57884D01*
X12559Y57829D01*
X12665Y57782D01*
X12795Y57744D01*
X12949Y57715D01*
X13126Y57694D01*
X13327Y57681D01*
X13551Y57677D01*
Y56496D01*
X13327Y56492D01*
X12949Y56458D01*
X12795Y56429D01*
X12665Y56391D01*
X12559Y56344D01*
X12476Y56290D01*
X12417Y56227D01*
X12382Y56155D01*
X12370Y56075D01*
Y58098D01*
X12382Y58018D01*
D02*
G37*
G36*
X17158Y56075D02*
X18984D01*
X18923Y56063D01*
X18868Y56028D01*
X18820Y55969D01*
X18778Y55886D01*
X18742Y55780D01*
X18713Y55650D01*
X18690Y55496D01*
X18674Y55319D01*
X18668Y55118D01*
X18686Y54857D01*
X18697Y54794D01*
X18710Y54741D01*
X18724Y54698D01*
X18741Y54664D01*
X18760Y54640D01*
X17382D01*
X17401Y54664D01*
X17417Y54698D01*
X17432Y54741D01*
X17445Y54794D01*
X17456Y54857D01*
X17471Y55011D01*
X17476Y55130D01*
X17451Y55496D01*
X17429Y55650D01*
X17400Y55780D01*
X17364Y55886D01*
X17322Y55969D01*
X17274Y56028D01*
X17219Y56063D01*
X17158Y56075D01*
X17146Y56155D01*
X17110Y56227D01*
X17051Y56290D01*
X16969Y56344D01*
X16862Y56391D01*
X16733Y56429D01*
X16579Y56458D01*
X16402Y56479D01*
X16201Y56492D01*
X15977Y56496D01*
Y57677D01*
X16201Y57681D01*
X16579Y57715D01*
X16733Y57744D01*
X16862Y57782D01*
X16969Y57829D01*
X17051Y57884D01*
X17110Y57947D01*
X17146Y58018D01*
X17158Y58098D01*
Y56075D01*
D02*
G37*
G36*
X-9973Y60055D02*
X-10005Y60031D01*
X-10033Y59992D01*
X-10057Y59936D01*
X-10078Y59865D01*
X-10095Y59778D01*
X-10108Y59675D01*
X-10123Y59423D01*
X-10125Y59273D01*
X-11306D01*
X-11327Y60051D01*
X-9937Y60063D01*
X-9973Y60055D01*
D02*
G37*
G36*
X-10543Y58098D02*
X-11890Y58086D01*
X-11858Y58094D01*
X-11830Y58118D01*
X-11805Y58156D01*
X-11784Y58210D01*
X-11765Y58279D01*
X-11750Y58364D01*
X-11739Y58464D01*
X-11725Y58709D01*
X-11724Y58855D01*
X-10543D01*
Y58098D01*
D02*
G37*
G36*
X-17146Y58018D02*
X-17110Y57947D01*
X-17051Y57884D01*
X-16969Y57829D01*
X-16862Y57782D01*
X-16733Y57744D01*
X-16579Y57715D01*
X-16402Y57694D01*
X-16201Y57681D01*
X-15977Y57677D01*
Y56496D01*
X-16201Y56492D01*
X-16579Y56458D01*
X-16733Y56429D01*
X-16862Y56391D01*
X-16969Y56344D01*
X-17051Y56290D01*
X-17110Y56227D01*
X-17146Y56155D01*
X-17158Y56075D01*
Y58098D01*
X-17146Y58018D01*
D02*
G37*
G36*
X-12370Y56075D02*
X-10543D01*
X-10605Y56063D01*
X-10660Y56028D01*
X-10708Y55969D01*
X-10750Y55886D01*
X-10785Y55780D01*
X-10814Y55650D01*
X-10837Y55496D01*
X-10853Y55319D01*
X-10859Y55118D01*
X-10842Y54857D01*
X-10831Y54794D01*
X-10818Y54741D01*
X-10803Y54698D01*
X-10786Y54664D01*
X-10768Y54640D01*
X-12146D01*
X-12127Y54664D01*
X-12110Y54698D01*
X-12095Y54741D01*
X-12083Y54794D01*
X-12072Y54857D01*
X-12056Y55011D01*
X-12051Y55130D01*
X-12076Y55496D01*
X-12099Y55650D01*
X-12128Y55780D01*
X-12163Y55886D01*
X-12205Y55969D01*
X-12254Y56028D01*
X-12309Y56063D01*
X-12370Y56075D01*
X-12382Y56155D01*
X-12417Y56227D01*
X-12476Y56290D01*
X-12559Y56344D01*
X-12665Y56391D01*
X-12795Y56429D01*
X-12949Y56458D01*
X-13126Y56479D01*
X-13327Y56492D01*
X-13551Y56496D01*
Y57677D01*
X-13327Y57681D01*
X-12949Y57715D01*
X-12795Y57744D01*
X-12665Y57782D01*
X-12559Y57829D01*
X-12476Y57884D01*
X-12417Y57947D01*
X-12382Y58018D01*
X-12370Y58098D01*
Y56075D01*
D02*
G37*
G36*
X-40484Y60055D02*
X-40516Y60031D01*
X-40545Y59992D01*
X-40569Y59936D01*
X-40590Y59865D01*
X-40606Y59778D01*
X-40620Y59675D01*
X-40635Y59423D01*
X-40637Y59273D01*
X-41818D01*
X-41838Y60051D01*
X-40449Y60063D01*
X-40484Y60055D01*
D02*
G37*
G36*
X-41055Y58098D02*
X-42402Y58086D01*
X-42370Y58094D01*
X-42342Y58118D01*
X-42317Y58156D01*
X-42295Y58210D01*
X-42277Y58279D01*
X-42262Y58364D01*
X-42250Y58464D01*
X-42237Y58709D01*
X-42235Y58855D01*
X-41055D01*
Y58098D01*
D02*
G37*
G36*
X-47658Y58018D02*
X-47622Y57947D01*
X-47563Y57884D01*
X-47480Y57829D01*
X-47374Y57782D01*
X-47244Y57744D01*
X-47091Y57715D01*
X-46914Y57694D01*
X-46713Y57681D01*
X-46488Y57677D01*
Y56496D01*
X-46713Y56492D01*
X-47091Y56458D01*
X-47244Y56429D01*
X-47374Y56391D01*
X-47480Y56344D01*
X-47563Y56290D01*
X-47622Y56227D01*
X-47658Y56155D01*
X-47670Y56075D01*
Y58098D01*
X-47658Y58018D01*
D02*
G37*
G36*
X-42882Y56075D02*
X-41055D01*
X-41117Y56063D01*
X-41172Y56028D01*
X-41220Y55969D01*
X-41262Y55886D01*
X-41297Y55780D01*
X-41326Y55650D01*
X-41349Y55496D01*
X-41365Y55319D01*
X-41371Y55118D01*
X-41353Y54857D01*
X-41342Y54794D01*
X-41330Y54741D01*
X-41315Y54698D01*
X-41298Y54664D01*
X-41280Y54640D01*
X-42658D01*
X-42639Y54664D01*
X-42622Y54698D01*
X-42607Y54741D01*
X-42595Y54794D01*
X-42584Y54857D01*
X-42568Y55011D01*
X-42563Y55130D01*
X-42588Y55496D01*
X-42611Y55650D01*
X-42640Y55780D01*
X-42675Y55886D01*
X-42717Y55969D01*
X-42766Y56028D01*
X-42820Y56063D01*
X-42882Y56075D01*
X-42893Y56155D01*
X-42929Y56227D01*
X-42988Y56290D01*
X-43071Y56344D01*
X-43177Y56391D01*
X-43307Y56429D01*
X-43460Y56458D01*
X-43638Y56479D01*
X-43838Y56492D01*
X-44063Y56496D01*
Y57677D01*
X-43838Y57681D01*
X-43460Y57715D01*
X-43307Y57744D01*
X-43177Y57782D01*
X-43071Y57829D01*
X-42988Y57884D01*
X-42929Y57947D01*
X-42893Y58018D01*
X-42882Y58098D01*
Y56075D01*
D02*
G37*
G36*
X52820Y56063D02*
X52766Y56028D01*
X52717Y55969D01*
X52675Y55886D01*
X52640Y55780D01*
X52611Y55650D01*
X52588Y55496D01*
X52572Y55319D01*
X52566Y55118D01*
X52584Y54857D01*
X52595Y54794D01*
X52607Y54741D01*
X52622Y54698D01*
X52639Y54664D01*
X52658Y54640D01*
X51279D01*
X51298Y54664D01*
X51315Y54698D01*
X51330Y54741D01*
X51342Y54794D01*
X51353Y54857D01*
X51369Y55011D01*
X51374Y55130D01*
X51349Y55496D01*
X51326Y55650D01*
X51297Y55780D01*
X51262Y55886D01*
X51220Y55969D01*
X51171Y56028D01*
X51117Y56063D01*
X51055Y56075D01*
X52882D01*
X52820Y56063D01*
D02*
G37*
G36*
X22309D02*
X22254Y56028D01*
X22205Y55969D01*
X22163Y55886D01*
X22128Y55780D01*
X22099Y55650D01*
X22076Y55496D01*
X22060Y55319D01*
X22054Y55118D01*
X22072Y54857D01*
X22083Y54794D01*
X22095Y54741D01*
X22110Y54698D01*
X22127Y54664D01*
X22146Y54640D01*
X20768D01*
X20786Y54664D01*
X20803Y54698D01*
X20818Y54741D01*
X20831Y54794D01*
X20842Y54857D01*
X20857Y55011D01*
X20862Y55130D01*
X20837Y55496D01*
X20814Y55650D01*
X20786Y55780D01*
X20750Y55886D01*
X20708Y55969D01*
X20660Y56028D01*
X20605Y56063D01*
X20543Y56075D01*
X22370D01*
X22309Y56063D01*
D02*
G37*
G36*
X-7219D02*
X-7274Y56028D01*
X-7322Y55969D01*
X-7364Y55886D01*
X-7400Y55780D01*
X-7429Y55650D01*
X-7451Y55496D01*
X-7467Y55319D01*
X-7474Y55118D01*
X-7456Y54857D01*
X-7445Y54794D01*
X-7432Y54741D01*
X-7417Y54698D01*
X-7401Y54664D01*
X-7382Y54640D01*
X-8760D01*
X-8741Y54664D01*
X-8724Y54698D01*
X-8710Y54741D01*
X-8697Y54794D01*
X-8686Y54857D01*
X-8670Y55011D01*
X-8665Y55130D01*
X-8691Y55496D01*
X-8713Y55650D01*
X-8742Y55780D01*
X-8778Y55886D01*
X-8820Y55969D01*
X-8868Y56028D01*
X-8923Y56063D01*
X-8984Y56075D01*
X-7158D01*
X-7219Y56063D01*
D02*
G37*
G36*
X-37731D02*
X-37786Y56028D01*
X-37834Y55969D01*
X-37876Y55886D01*
X-37911Y55780D01*
X-37940Y55650D01*
X-37963Y55496D01*
X-37979Y55319D01*
X-37985Y55118D01*
X-37968Y54857D01*
X-37957Y54794D01*
X-37944Y54741D01*
X-37929Y54698D01*
X-37912Y54664D01*
X-37894Y54640D01*
X-39272D01*
X-39253Y54664D01*
X-39236Y54698D01*
X-39222Y54741D01*
X-39209Y54794D01*
X-39198Y54857D01*
X-39182Y55011D01*
X-39177Y55130D01*
X-39202Y55496D01*
X-39225Y55650D01*
X-39254Y55780D01*
X-39289Y55886D01*
X-39331Y55969D01*
X-39380Y56028D01*
X-39435Y56063D01*
X-39496Y56075D01*
X-37670D01*
X-37731Y56063D01*
D02*
G37*
G36*
X24349Y43702D02*
X24383Y43685D01*
X24426Y43670D01*
X24479Y43657D01*
X24542Y43647D01*
X24696Y43631D01*
X24889Y43623D01*
X25000Y43622D01*
Y42441D01*
X24889Y42440D01*
X24542Y42416D01*
X24479Y42406D01*
X24426Y42393D01*
X24383Y42378D01*
X24349Y42361D01*
X24325Y42342D01*
Y43720D01*
X24349Y43702D01*
D02*
G37*
G36*
X8601D02*
X8635Y43685D01*
X8678Y43670D01*
X8731Y43657D01*
X8794Y43647D01*
X8948Y43631D01*
X9141Y43623D01*
X9252Y43622D01*
Y42441D01*
X9141Y42440D01*
X8794Y42416D01*
X8731Y42406D01*
X8678Y42393D01*
X8635Y42378D01*
X8601Y42361D01*
X8577Y42342D01*
Y43720D01*
X8601Y43702D01*
D02*
G37*
G36*
X7171Y42342D02*
X7147Y42361D01*
X7113Y42378D01*
X7070Y42393D01*
X7017Y42406D01*
X6954Y42416D01*
X6800Y42432D01*
X6607Y42440D01*
X6496Y42441D01*
Y43622D01*
X6607Y43623D01*
X6954Y43647D01*
X7017Y43657D01*
X7070Y43670D01*
X7113Y43685D01*
X7147Y43702D01*
X7171Y43720D01*
Y42342D01*
D02*
G37*
G36*
X-7147Y43702D02*
X-7113Y43685D01*
X-7070Y43670D01*
X-7017Y43657D01*
X-6954Y43647D01*
X-6800Y43631D01*
X-6607Y43623D01*
X-6496Y43622D01*
Y42441D01*
X-6607Y42440D01*
X-6954Y42416D01*
X-7017Y42406D01*
X-7070Y42393D01*
X-7113Y42378D01*
X-7147Y42361D01*
X-7171Y42342D01*
Y43720D01*
X-7147Y43702D01*
D02*
G37*
G36*
X-8577Y42342D02*
X-8601Y42361D01*
X-8635Y42378D01*
X-8678Y42393D01*
X-8731Y42406D01*
X-8794Y42416D01*
X-8948Y42432D01*
X-9141Y42440D01*
X-9252Y42441D01*
Y43622D01*
X-9141Y43623D01*
X-8794Y43647D01*
X-8731Y43657D01*
X-8678Y43670D01*
X-8635Y43685D01*
X-8601Y43702D01*
X-8577Y43720D01*
Y42342D01*
D02*
G37*
G36*
X-22895Y43702D02*
X-22861Y43685D01*
X-22818Y43670D01*
X-22765Y43657D01*
X-22702Y43647D01*
X-22548Y43631D01*
X-22355Y43623D01*
X-22244Y43622D01*
Y42441D01*
X-22355Y42440D01*
X-22702Y42416D01*
X-22765Y42406D01*
X-22818Y42393D01*
X-22861Y42378D01*
X-22895Y42361D01*
X-22919Y42342D01*
Y43720D01*
X-22895Y43702D01*
D02*
G37*
G36*
X-24325Y42342D02*
X-24349Y42361D01*
X-24383Y42378D01*
X-24426Y42393D01*
X-24479Y42406D01*
X-24542Y42416D01*
X-24696Y42432D01*
X-24889Y42440D01*
X-25000Y42441D01*
Y43622D01*
X-24889Y43623D01*
X-24542Y43647D01*
X-24479Y43657D01*
X-24426Y43670D01*
X-24383Y43685D01*
X-24349Y43702D01*
X-24325Y43720D01*
Y42342D01*
D02*
G37*
G36*
X22959Y42304D02*
X22937Y42319D01*
X22904Y42333D01*
X22862Y42345D01*
X22809Y42356D01*
X22747Y42365D01*
X22593Y42378D01*
X22289Y42385D01*
X22205Y43566D01*
X22316Y43567D01*
X22663Y43595D01*
X22726Y43607D01*
X22779Y43622D01*
X22822Y43639D01*
X22857Y43658D01*
X22881Y43679D01*
X22959Y42304D01*
D02*
G37*
G36*
X26547Y42118D02*
X26536Y42180D01*
X26500Y42235D01*
X26441Y42283D01*
X26358Y42325D01*
X26252Y42360D01*
X26122Y42389D01*
X25969Y42412D01*
X25791Y42428D01*
X25366Y42441D01*
Y43622D01*
X25591Y43625D01*
X25969Y43651D01*
X26122Y43674D01*
X26252Y43703D01*
X26358Y43738D01*
X26441Y43780D01*
X26500Y43828D01*
X26536Y43883D01*
X26547Y43945D01*
Y42118D01*
D02*
G37*
G36*
X20708Y43873D02*
X20744Y43808D01*
X20803Y43752D01*
X20886Y43702D01*
X20992Y43661D01*
X21122Y43627D01*
X21275Y43600D01*
X21453Y43581D01*
X21878Y43566D01*
Y42385D01*
X21653Y42382D01*
X21122Y42342D01*
X20992Y42318D01*
X20886Y42289D01*
X20803Y42254D01*
X20744Y42214D01*
X20708Y42169D01*
X20697Y42118D01*
Y43945D01*
X20708Y43873D01*
D02*
G37*
G36*
X18673Y42118D02*
X18662Y42180D01*
X18626Y42235D01*
X18567Y42283D01*
X18484Y42325D01*
X18378Y42360D01*
X18248Y42389D01*
X18095Y42412D01*
X17918Y42428D01*
X17492Y42441D01*
Y43622D01*
X17717Y43625D01*
X18095Y43651D01*
X18248Y43674D01*
X18378Y43703D01*
X18484Y43738D01*
X18567Y43780D01*
X18626Y43828D01*
X18662Y43883D01*
X18673Y43945D01*
Y42118D01*
D02*
G37*
G36*
X12834Y43883D02*
X12870Y43828D01*
X12929Y43780D01*
X13012Y43738D01*
X13118Y43703D01*
X13248Y43674D01*
X13401Y43651D01*
X13578Y43635D01*
X14004Y43622D01*
Y42441D01*
X13779Y42438D01*
X13401Y42412D01*
X13248Y42389D01*
X13118Y42360D01*
X13012Y42325D01*
X12929Y42283D01*
X12870Y42235D01*
X12834Y42180D01*
X12823Y42118D01*
Y43945D01*
X12834Y43883D01*
D02*
G37*
G36*
X10799Y42118D02*
X10788Y42180D01*
X10752Y42235D01*
X10693Y42283D01*
X10610Y42325D01*
X10504Y42360D01*
X10374Y42389D01*
X10221Y42412D01*
X10044Y42428D01*
X9618Y42441D01*
Y43622D01*
X9843Y43625D01*
X10221Y43651D01*
X10374Y43674D01*
X10504Y43703D01*
X10610Y43738D01*
X10693Y43780D01*
X10752Y43828D01*
X10788Y43883D01*
X10799Y43945D01*
Y42118D01*
D02*
G37*
G36*
X4960Y43883D02*
X4996Y43828D01*
X5055Y43780D01*
X5138Y43738D01*
X5244Y43703D01*
X5374Y43674D01*
X5527Y43651D01*
X5705Y43635D01*
X6130Y43622D01*
Y42441D01*
X5905Y42438D01*
X5527Y42412D01*
X5374Y42389D01*
X5244Y42360D01*
X5138Y42325D01*
X5055Y42283D01*
X4996Y42235D01*
X4960Y42180D01*
X4949Y42118D01*
Y43945D01*
X4960Y43883D01*
D02*
G37*
G36*
X2925Y42118D02*
X2914Y42180D01*
X2878Y42235D01*
X2819Y42283D01*
X2736Y42325D01*
X2630Y42360D01*
X2500Y42389D01*
X2347Y42412D01*
X2169Y42428D01*
X1744Y42441D01*
Y43622D01*
X1969Y43625D01*
X2347Y43651D01*
X2500Y43674D01*
X2630Y43703D01*
X2736Y43738D01*
X2819Y43780D01*
X2878Y43828D01*
X2914Y43883D01*
X2925Y43945D01*
Y42118D01*
D02*
G37*
G36*
X-2914Y43883D02*
X-2878Y43828D01*
X-2819Y43780D01*
X-2736Y43738D01*
X-2630Y43703D01*
X-2500Y43674D01*
X-2347Y43651D01*
X-2169Y43635D01*
X-1744Y43622D01*
Y42441D01*
X-1969Y42438D01*
X-2347Y42412D01*
X-2500Y42389D01*
X-2630Y42360D01*
X-2736Y42325D01*
X-2819Y42283D01*
X-2878Y42235D01*
X-2914Y42180D01*
X-2925Y42118D01*
Y43945D01*
X-2914Y43883D01*
D02*
G37*
G36*
X-4949Y42118D02*
X-4960Y42180D01*
X-4996Y42235D01*
X-5055Y42283D01*
X-5138Y42325D01*
X-5244Y42360D01*
X-5374Y42389D01*
X-5527Y42412D01*
X-5705Y42428D01*
X-6130Y42441D01*
Y43622D01*
X-5905Y43625D01*
X-5527Y43651D01*
X-5374Y43674D01*
X-5244Y43703D01*
X-5138Y43738D01*
X-5055Y43780D01*
X-4996Y43828D01*
X-4960Y43883D01*
X-4949Y43945D01*
Y42118D01*
D02*
G37*
G36*
X-10788Y43883D02*
X-10752Y43828D01*
X-10693Y43780D01*
X-10610Y43738D01*
X-10504Y43703D01*
X-10374Y43674D01*
X-10221Y43651D01*
X-10044Y43635D01*
X-9618Y43622D01*
Y42441D01*
X-9843Y42438D01*
X-10221Y42412D01*
X-10374Y42389D01*
X-10504Y42360D01*
X-10610Y42325D01*
X-10693Y42283D01*
X-10752Y42235D01*
X-10788Y42180D01*
X-10799Y42118D01*
Y43945D01*
X-10788Y43883D01*
D02*
G37*
G36*
X-12823Y42118D02*
X-12834Y42180D01*
X-12870Y42235D01*
X-12929Y42283D01*
X-13012Y42325D01*
X-13118Y42360D01*
X-13248Y42389D01*
X-13401Y42412D01*
X-13579Y42428D01*
X-14004Y42441D01*
Y43622D01*
X-13779Y43625D01*
X-13401Y43651D01*
X-13248Y43674D01*
X-13118Y43703D01*
X-13012Y43738D01*
X-12929Y43780D01*
X-12870Y43828D01*
X-12834Y43883D01*
X-12823Y43945D01*
Y42118D01*
D02*
G37*
G36*
X-18662Y43883D02*
X-18626Y43828D01*
X-18567Y43780D01*
X-18484Y43738D01*
X-18378Y43703D01*
X-18248Y43674D01*
X-18095Y43651D01*
X-17918Y43635D01*
X-17492Y43622D01*
Y42441D01*
X-17717Y42438D01*
X-18095Y42412D01*
X-18248Y42389D01*
X-18378Y42360D01*
X-18484Y42325D01*
X-18567Y42283D01*
X-18626Y42235D01*
X-18662Y42180D01*
X-18673Y42118D01*
Y43945D01*
X-18662Y43883D01*
D02*
G37*
G36*
X-20697Y42118D02*
X-20708Y42180D01*
X-20744Y42235D01*
X-20803Y42283D01*
X-20886Y42325D01*
X-20992Y42360D01*
X-21122Y42389D01*
X-21275Y42412D01*
X-21453Y42428D01*
X-21878Y42441D01*
Y43622D01*
X-21653Y43625D01*
X-21275Y43651D01*
X-21122Y43674D01*
X-20992Y43703D01*
X-20886Y43738D01*
X-20803Y43780D01*
X-20744Y43828D01*
X-20708Y43883D01*
X-20697Y43945D01*
Y42118D01*
D02*
G37*
G36*
X-26536Y43883D02*
X-26500Y43828D01*
X-26441Y43780D01*
X-26359Y43738D01*
X-26252Y43703D01*
X-26122Y43674D01*
X-25969Y43651D01*
X-25791Y43635D01*
X-25366Y43622D01*
Y42441D01*
X-25591Y42438D01*
X-25969Y42412D01*
X-26122Y42389D01*
X-26252Y42360D01*
X-26359Y42325D01*
X-26441Y42283D01*
X-26500Y42235D01*
X-26536Y42180D01*
X-26547Y42118D01*
Y43945D01*
X-26536Y43883D01*
D02*
G37*
G36*
X28491Y38721D02*
X28419Y38685D01*
X28356Y38626D01*
X28301Y38543D01*
X28255Y38437D01*
X28217Y38307D01*
X28188Y38154D01*
X28166Y37977D01*
X28154Y37776D01*
X28150Y37551D01*
X26969D01*
X26964Y37776D01*
X26931Y38154D01*
X26901Y38307D01*
X26863Y38437D01*
X26817Y38543D01*
X26762Y38626D01*
X26699Y38685D01*
X26627Y38721D01*
X26547Y38732D01*
X28571D01*
X28491Y38721D01*
D02*
G37*
G36*
X28155Y37165D02*
X28173Y36964D01*
X28202Y36787D01*
X28242Y36634D01*
X28294Y36504D01*
X28358Y36397D01*
X28433Y36315D01*
X28520Y36256D01*
X28618Y36220D01*
X28728Y36209D01*
X26390D01*
X26500Y36220D01*
X26598Y36256D01*
X26685Y36315D01*
X26760Y36397D01*
X26824Y36504D01*
X26876Y36634D01*
X26916Y36787D01*
X26945Y36964D01*
X26963Y37165D01*
X26969Y37390D01*
X28150D01*
X28155Y37165D01*
D02*
G37*
G36*
X20617Y38721D02*
X20545Y38685D01*
X20482Y38626D01*
X20427Y38543D01*
X20381Y38437D01*
X20343Y38307D01*
X20313Y38154D01*
X20292Y37977D01*
X20280Y37776D01*
X20276Y37551D01*
X19094D01*
X19090Y37776D01*
X19057Y38154D01*
X19027Y38307D01*
X18989Y38437D01*
X18943Y38543D01*
X18888Y38626D01*
X18825Y38685D01*
X18753Y38721D01*
X18673Y38732D01*
X20697D01*
X20617Y38721D01*
D02*
G37*
G36*
X20281Y37165D02*
X20299Y36964D01*
X20328Y36787D01*
X20368Y36634D01*
X20420Y36504D01*
X20484Y36397D01*
X20559Y36315D01*
X20646Y36256D01*
X20744Y36220D01*
X20854Y36209D01*
X18516D01*
X18626Y36220D01*
X18724Y36256D01*
X18811Y36315D01*
X18886Y36397D01*
X18950Y36504D01*
X19002Y36634D01*
X19042Y36787D01*
X19071Y36964D01*
X19089Y37165D01*
X19094Y37390D01*
X20276D01*
X20281Y37165D01*
D02*
G37*
G36*
X12743Y38721D02*
X12671Y38685D01*
X12608Y38626D01*
X12553Y38543D01*
X12507Y38437D01*
X12469Y38307D01*
X12439Y38154D01*
X12418Y37977D01*
X12406Y37776D01*
X12402Y37551D01*
X11220D01*
X11216Y37776D01*
X11183Y38154D01*
X11153Y38307D01*
X11115Y38437D01*
X11069Y38543D01*
X11014Y38626D01*
X10951Y38685D01*
X10879Y38721D01*
X10799Y38732D01*
X12823D01*
X12743Y38721D01*
D02*
G37*
G36*
X12407Y37165D02*
X12425Y36964D01*
X12454Y36787D01*
X12494Y36634D01*
X12546Y36504D01*
X12610Y36397D01*
X12685Y36315D01*
X12772Y36256D01*
X12870Y36220D01*
X12980Y36209D01*
X10642D01*
X10752Y36220D01*
X10850Y36256D01*
X10937Y36315D01*
X11012Y36397D01*
X11076Y36504D01*
X11128Y36634D01*
X11168Y36787D01*
X11197Y36964D01*
X11215Y37165D01*
X11220Y37390D01*
X12402D01*
X12407Y37165D01*
D02*
G37*
G36*
X4869Y38721D02*
X4797Y38685D01*
X4734Y38626D01*
X4679Y38543D01*
X4633Y38437D01*
X4595Y38307D01*
X4566Y38154D01*
X4544Y37977D01*
X4532Y37776D01*
X4528Y37551D01*
X3347D01*
X3342Y37776D01*
X3309Y38154D01*
X3279Y38307D01*
X3241Y38437D01*
X3195Y38543D01*
X3140Y38626D01*
X3077Y38685D01*
X3005Y38721D01*
X2925Y38732D01*
X4949D01*
X4869Y38721D01*
D02*
G37*
G36*
X4533Y37165D02*
X4551Y36964D01*
X4580Y36787D01*
X4620Y36634D01*
X4672Y36504D01*
X4736Y36397D01*
X4811Y36315D01*
X4898Y36256D01*
X4996Y36220D01*
X5106Y36209D01*
X2768D01*
X2878Y36220D01*
X2976Y36256D01*
X3063Y36315D01*
X3138Y36397D01*
X3202Y36504D01*
X3254Y36634D01*
X3294Y36787D01*
X3323Y36964D01*
X3341Y37165D01*
X3347Y37390D01*
X4528D01*
X4533Y37165D01*
D02*
G37*
G36*
X-3005Y38721D02*
X-3077Y38685D01*
X-3140Y38626D01*
X-3195Y38543D01*
X-3241Y38437D01*
X-3279Y38307D01*
X-3309Y38154D01*
X-3330Y37977D01*
X-3342Y37776D01*
X-3347Y37551D01*
X-4528D01*
X-4532Y37776D01*
X-4566Y38154D01*
X-4595Y38307D01*
X-4633Y38437D01*
X-4679Y38543D01*
X-4734Y38626D01*
X-4797Y38685D01*
X-4869Y38721D01*
X-4949Y38732D01*
X-2925D01*
X-3005Y38721D01*
D02*
G37*
G36*
X-3341Y37165D02*
X-3323Y36964D01*
X-3294Y36787D01*
X-3254Y36634D01*
X-3202Y36504D01*
X-3138Y36397D01*
X-3063Y36315D01*
X-2976Y36256D01*
X-2878Y36220D01*
X-2768Y36209D01*
X-5106D01*
X-4996Y36220D01*
X-4898Y36256D01*
X-4811Y36315D01*
X-4736Y36397D01*
X-4672Y36504D01*
X-4620Y36634D01*
X-4580Y36787D01*
X-4551Y36964D01*
X-4533Y37165D01*
X-4528Y37390D01*
X-3347D01*
X-3341Y37165D01*
D02*
G37*
G36*
X-10879Y38721D02*
X-10951Y38685D01*
X-11014Y38626D01*
X-11069Y38543D01*
X-11115Y38437D01*
X-11153Y38307D01*
X-11183Y38154D01*
X-11204Y37977D01*
X-11216Y37776D01*
X-11220Y37551D01*
X-12402D01*
X-12406Y37776D01*
X-12439Y38154D01*
X-12469Y38307D01*
X-12507Y38437D01*
X-12553Y38543D01*
X-12608Y38626D01*
X-12671Y38685D01*
X-12743Y38721D01*
X-12823Y38732D01*
X-10799D01*
X-10879Y38721D01*
D02*
G37*
G36*
X-11215Y37165D02*
X-11197Y36964D01*
X-11168Y36787D01*
X-11128Y36634D01*
X-11076Y36504D01*
X-11012Y36397D01*
X-10937Y36315D01*
X-10850Y36256D01*
X-10752Y36220D01*
X-10642Y36209D01*
X-12980D01*
X-12870Y36220D01*
X-12772Y36256D01*
X-12685Y36315D01*
X-12610Y36397D01*
X-12546Y36504D01*
X-12494Y36634D01*
X-12454Y36787D01*
X-12425Y36964D01*
X-12407Y37165D01*
X-12402Y37390D01*
X-11220D01*
X-11215Y37165D01*
D02*
G37*
G36*
X-18753Y38721D02*
X-18825Y38685D01*
X-18888Y38626D01*
X-18943Y38543D01*
X-18989Y38437D01*
X-19027Y38307D01*
X-19057Y38154D01*
X-19078Y37977D01*
X-19090Y37776D01*
X-19094Y37551D01*
X-20276D01*
X-20280Y37776D01*
X-20313Y38154D01*
X-20343Y38307D01*
X-20381Y38437D01*
X-20427Y38543D01*
X-20482Y38626D01*
X-20545Y38685D01*
X-20617Y38721D01*
X-20697Y38732D01*
X-18673D01*
X-18753Y38721D01*
D02*
G37*
G36*
X-19089Y37165D02*
X-19071Y36964D01*
X-19042Y36787D01*
X-19002Y36634D01*
X-18950Y36504D01*
X-18886Y36397D01*
X-18811Y36315D01*
X-18724Y36256D01*
X-18626Y36220D01*
X-18516Y36209D01*
X-20854D01*
X-20744Y36220D01*
X-20646Y36256D01*
X-20559Y36315D01*
X-20484Y36397D01*
X-20420Y36504D01*
X-20368Y36634D01*
X-20328Y36787D01*
X-20299Y36964D01*
X-20281Y37165D01*
X-20276Y37390D01*
X-19094D01*
X-19089Y37165D01*
D02*
G37*
G36*
X-26627Y38721D02*
X-26699Y38685D01*
X-26762Y38626D01*
X-26817Y38543D01*
X-26863Y38437D01*
X-26901Y38307D01*
X-26931Y38154D01*
X-26952Y37977D01*
X-26964Y37776D01*
X-26969Y37551D01*
X-28150D01*
X-28154Y37776D01*
X-28188Y38154D01*
X-28217Y38307D01*
X-28255Y38437D01*
X-28301Y38543D01*
X-28356Y38626D01*
X-28419Y38685D01*
X-28491Y38721D01*
X-28571Y38732D01*
X-26547D01*
X-26627Y38721D01*
D02*
G37*
G36*
X-26963Y37165D02*
X-26945Y36964D01*
X-26916Y36787D01*
X-26876Y36634D01*
X-26824Y36504D01*
X-26760Y36397D01*
X-26685Y36315D01*
X-26598Y36256D01*
X-26500Y36220D01*
X-26390Y36209D01*
X-28728D01*
X-28618Y36220D01*
X-28520Y36256D01*
X-28433Y36315D01*
X-28358Y36397D01*
X-28294Y36504D01*
X-28242Y36634D01*
X-28202Y36787D01*
X-28173Y36964D01*
X-28155Y37165D01*
X-28150Y37390D01*
X-26969D01*
X-26963Y37165D01*
D02*
G37*
G36*
X28151Y30795D02*
X28156Y30721D01*
X28728D01*
X28618Y30709D01*
X28520Y30673D01*
X28433Y30614D01*
X28358Y30532D01*
X28294Y30425D01*
X28242Y30296D01*
X28231Y30253D01*
X28248Y30231D01*
X28225D01*
X28202Y30142D01*
X28173Y29965D01*
X28155Y29764D01*
X28150Y29540D01*
X26969D01*
X26963Y29764D01*
X26945Y29965D01*
X26916Y30142D01*
X26893Y30231D01*
X26870D01*
X26887Y30253D01*
X26876Y30296D01*
X26824Y30425D01*
X26760Y30532D01*
X26685Y30614D01*
X26598Y30673D01*
X26500Y30709D01*
X26390Y30721D01*
X26965D01*
X26967Y30795D01*
X26969Y30906D01*
X28150D01*
X28151Y30795D01*
D02*
G37*
G36*
X20277D02*
X20282Y30721D01*
X20854D01*
X20744Y30709D01*
X20646Y30673D01*
X20559Y30614D01*
X20484Y30532D01*
X20420Y30425D01*
X20368Y30296D01*
X20357Y30253D01*
X20374Y30231D01*
X20351D01*
X20328Y30142D01*
X20299Y29965D01*
X20281Y29764D01*
X20276Y29540D01*
X19094D01*
X19089Y29764D01*
X19071Y29965D01*
X19042Y30142D01*
X19019Y30231D01*
X18996D01*
X19013Y30253D01*
X19002Y30296D01*
X18950Y30425D01*
X18886Y30532D01*
X18811Y30614D01*
X18724Y30673D01*
X18626Y30709D01*
X18516Y30721D01*
X19091D01*
X19094Y30795D01*
X19094Y30906D01*
X20276D01*
X20277Y30795D01*
D02*
G37*
G36*
X12403D02*
X12408Y30721D01*
X12980D01*
X12870Y30709D01*
X12772Y30673D01*
X12685Y30614D01*
X12610Y30532D01*
X12546Y30425D01*
X12494Y30296D01*
X12483Y30253D01*
X12500Y30231D01*
X12477D01*
X12454Y30142D01*
X12425Y29965D01*
X12407Y29764D01*
X12402Y29540D01*
X11220D01*
X11215Y29764D01*
X11197Y29965D01*
X11168Y30142D01*
X11145Y30231D01*
X11122D01*
X11139Y30253D01*
X11128Y30296D01*
X11076Y30425D01*
X11012Y30532D01*
X10937Y30614D01*
X10850Y30673D01*
X10752Y30709D01*
X10642Y30721D01*
X11216D01*
X11220Y30795D01*
X11220Y30906D01*
X12402D01*
X12403Y30795D01*
D02*
G37*
G36*
X4529D02*
X4534Y30721D01*
X5106D01*
X4996Y30709D01*
X4898Y30673D01*
X4811Y30614D01*
X4736Y30532D01*
X4672Y30425D01*
X4620Y30296D01*
X4609Y30253D01*
X4626Y30231D01*
X4603D01*
X4580Y30142D01*
X4551Y29965D01*
X4533Y29764D01*
X4528Y29540D01*
X3347D01*
X3341Y29764D01*
X3323Y29965D01*
X3294Y30142D01*
X3271Y30231D01*
X3248D01*
X3265Y30253D01*
X3254Y30296D01*
X3202Y30425D01*
X3138Y30532D01*
X3063Y30614D01*
X2976Y30673D01*
X2878Y30709D01*
X2768Y30721D01*
X3342D01*
X3345Y30795D01*
X3347Y30906D01*
X4528D01*
X4529Y30795D01*
D02*
G37*
G36*
X-3345D02*
X-3340Y30721D01*
X-2768D01*
X-2878Y30709D01*
X-2976Y30673D01*
X-3063Y30614D01*
X-3138Y30532D01*
X-3202Y30425D01*
X-3254Y30296D01*
X-3265Y30253D01*
X-3248Y30231D01*
X-3271D01*
X-3294Y30142D01*
X-3323Y29965D01*
X-3341Y29764D01*
X-3347Y29540D01*
X-4528D01*
X-4533Y29764D01*
X-4551Y29965D01*
X-4580Y30142D01*
X-4603Y30231D01*
X-4626D01*
X-4609Y30253D01*
X-4620Y30296D01*
X-4672Y30425D01*
X-4736Y30532D01*
X-4811Y30614D01*
X-4898Y30673D01*
X-4996Y30709D01*
X-5106Y30721D01*
X-4532D01*
X-4529Y30795D01*
X-4528Y30906D01*
X-3347D01*
X-3345Y30795D01*
D02*
G37*
G36*
X-11220D02*
X-11214Y30721D01*
X-10642D01*
X-10752Y30709D01*
X-10850Y30673D01*
X-10937Y30614D01*
X-11012Y30532D01*
X-11076Y30425D01*
X-11128Y30296D01*
X-11139Y30253D01*
X-11122Y30231D01*
X-11145D01*
X-11168Y30142D01*
X-11197Y29965D01*
X-11215Y29764D01*
X-11220Y29540D01*
X-12402D01*
X-12407Y29764D01*
X-12425Y29965D01*
X-12454Y30142D01*
X-12477Y30231D01*
X-12500D01*
X-12483Y30253D01*
X-12494Y30296D01*
X-12546Y30425D01*
X-12610Y30532D01*
X-12685Y30614D01*
X-12772Y30673D01*
X-12870Y30709D01*
X-12980Y30721D01*
X-12406D01*
X-12403Y30795D01*
X-12402Y30906D01*
X-11220D01*
X-11220Y30795D01*
D02*
G37*
G36*
X-19094D02*
X-19089Y30721D01*
X-18516D01*
X-18626Y30709D01*
X-18724Y30673D01*
X-18811Y30614D01*
X-18886Y30532D01*
X-18950Y30425D01*
X-19002Y30296D01*
X-19013Y30253D01*
X-18996Y30231D01*
X-19019D01*
X-19042Y30142D01*
X-19071Y29965D01*
X-19089Y29764D01*
X-19094Y29540D01*
X-20276D01*
X-20281Y29764D01*
X-20299Y29965D01*
X-20328Y30142D01*
X-20351Y30231D01*
X-20374D01*
X-20357Y30253D01*
X-20368Y30296D01*
X-20420Y30425D01*
X-20484Y30532D01*
X-20559Y30614D01*
X-20646Y30673D01*
X-20744Y30709D01*
X-20854Y30721D01*
X-20280D01*
X-20277Y30795D01*
X-20276Y30906D01*
X-19094D01*
X-19094Y30795D01*
D02*
G37*
G36*
X-26967D02*
X-26963Y30721D01*
X-26390D01*
X-26500Y30709D01*
X-26598Y30673D01*
X-26685Y30614D01*
X-26760Y30532D01*
X-26824Y30425D01*
X-26876Y30296D01*
X-26887Y30253D01*
X-26870Y30231D01*
X-26893D01*
X-26916Y30142D01*
X-26945Y29965D01*
X-26963Y29764D01*
X-26969Y29540D01*
X-28150D01*
X-28155Y29764D01*
X-28173Y29965D01*
X-28202Y30142D01*
X-28225Y30231D01*
X-28248D01*
X-28231Y30253D01*
X-28242Y30296D01*
X-28294Y30425D01*
X-28358Y30532D01*
X-28433Y30614D01*
X-28520Y30673D01*
X-28618Y30709D01*
X-28728Y30721D01*
X-28154D01*
X-28151Y30795D01*
X-28150Y30906D01*
X-26969D01*
X-26967Y30795D01*
D02*
G37*
D10*
X33520Y14472D02*
X35433D01*
X29921Y6299D02*
Y10874D01*
X29134Y5512D02*
X29921Y6299D01*
Y10874D02*
X33520Y14472D01*
D13*
X40276Y102618D02*
D03*
Y109980D02*
D03*
X50276Y102618D02*
D03*
Y109980D02*
D03*
X40276Y114429D02*
D03*
Y121791D02*
D03*
X50276Y114429D02*
D03*
Y121791D02*
D03*
X19764D02*
D03*
Y114429D02*
D03*
X9764Y121791D02*
D03*
Y114429D02*
D03*
Y109980D02*
D03*
Y102618D02*
D03*
X19764Y109980D02*
D03*
Y102618D02*
D03*
X-9764Y114429D02*
D03*
Y121791D02*
D03*
Y102618D02*
D03*
Y109980D02*
D03*
X-19764Y114429D02*
D03*
Y121791D02*
D03*
Y102618D02*
D03*
Y109980D02*
D03*
X-50276Y114429D02*
D03*
Y121791D02*
D03*
X-40276Y114429D02*
D03*
Y121791D02*
D03*
Y102618D02*
D03*
Y109980D02*
D03*
X-50276Y102618D02*
D03*
Y109980D02*
D03*
D14*
X50787Y94488D02*
D03*
X39764D02*
D03*
X20276D02*
D03*
X9252D02*
D03*
X-9252D02*
D03*
X-20276D02*
D03*
X-39764D02*
D03*
X-50787D02*
D03*
D15*
X50276Y154528D02*
D03*
X40276D02*
D03*
Y128937D02*
D03*
X50276D02*
D03*
X19764Y154528D02*
D03*
X9764D02*
D03*
Y128937D02*
D03*
X19764D02*
D03*
X-9764D02*
D03*
X-19764D02*
D03*
Y154528D02*
D03*
X-9764D02*
D03*
X-40276Y128937D02*
D03*
X-50276D02*
D03*
Y154528D02*
D03*
X-40276D02*
D03*
D16*
X38770Y165354D02*
D03*
X8258D02*
D03*
X-21270D02*
D03*
X-51781D02*
D03*
D17*
X41969Y57087D02*
D03*
X38583D02*
D03*
X51968D02*
D03*
X48583D02*
D03*
X18071D02*
D03*
X21457D02*
D03*
X8071D02*
D03*
X11457D02*
D03*
X-8071D02*
D03*
X-11457D02*
D03*
X-18071D02*
D03*
X-21457D02*
D03*
X-41969D02*
D03*
X-38583D02*
D03*
X-48583D02*
D03*
X-51968D02*
D03*
D18*
X50276Y62008D02*
D03*
X40276D02*
D03*
Y87598D02*
D03*
X50276D02*
D03*
X19764Y62008D02*
D03*
X9764D02*
D03*
Y87598D02*
D03*
X19764D02*
D03*
X-40276Y62008D02*
D03*
X-50276D02*
D03*
Y87598D02*
D03*
X-40276D02*
D03*
X-9764Y62008D02*
D03*
X-19764D02*
D03*
Y87598D02*
D03*
X-9764D02*
D03*
D19*
X27559Y39646D02*
D03*
Y43031D02*
D03*
X19685Y39646D02*
D03*
Y43031D02*
D03*
X11811D02*
D03*
Y39646D02*
D03*
X3937Y43031D02*
D03*
Y39646D02*
D03*
X-3937Y43031D02*
D03*
Y39646D02*
D03*
X-11811D02*
D03*
Y43031D02*
D03*
X-19685Y39646D02*
D03*
Y43031D02*
D03*
X-27559D02*
D03*
Y39646D02*
D03*
D20*
X27559Y31693D02*
D03*
Y35236D02*
D03*
X19685Y31693D02*
D03*
Y35236D02*
D03*
X11811Y31693D02*
D03*
Y35236D02*
D03*
X3937D02*
D03*
Y31693D02*
D03*
X-3937D02*
D03*
Y35236D02*
D03*
X-11811Y31693D02*
D03*
Y35236D02*
D03*
X-19685Y31693D02*
D03*
Y35236D02*
D03*
X-27559D02*
D03*
Y31693D02*
D03*
D36*
X48026Y165354D02*
D03*
X17514D02*
D03*
X-12014D02*
D03*
X-42526D02*
D03*
D37*
X44882Y5512D02*
D03*
X41732D02*
D03*
X38583D02*
D03*
X35433D02*
D03*
X32283D02*
D03*
X29134D02*
D03*
X25984D02*
D03*
X22835D02*
D03*
X19685D02*
D03*
X16535D02*
D03*
X13386D02*
D03*
X10236D02*
D03*
X7087D02*
D03*
X3937D02*
D03*
X787D02*
D03*
X-2362D02*
D03*
X-5512D02*
D03*
X-8661D02*
D03*
X-24409D02*
D03*
X-27559D02*
D03*
X-30709D02*
D03*
X-33858D02*
D03*
X-37008D02*
D03*
X-40157D02*
D03*
X-43307D02*
D03*
X-46457D02*
D03*
D38*
X40276Y146653D02*
Y154528D01*
X9764Y146653D02*
Y154528D01*
X-19764Y146653D02*
Y154528D01*
X-50276Y146653D02*
Y154528D01*
X50276D02*
Y163104D01*
X48026Y165354D02*
X50276Y163104D01*
X39291Y155512D02*
X40276Y154528D01*
X38770Y159782D02*
X39291Y159260D01*
X38770Y159782D02*
Y165354D01*
X39291Y155512D02*
Y159260D01*
X19764Y154528D02*
Y163104D01*
X17514Y165354D02*
X19764Y163104D01*
X8779Y155512D02*
X9764Y154528D01*
X8258Y159782D02*
X8779Y159260D01*
X8258Y159782D02*
Y165354D01*
X8779Y155512D02*
Y159260D01*
X-9764Y154528D02*
Y163104D01*
X-12014Y165354D02*
X-9764Y163104D01*
X-20748Y155512D02*
X-19764Y154528D01*
X-21270Y159782D02*
X-20748Y159260D01*
X-21270Y159782D02*
Y165354D01*
X-20748Y155512D02*
Y159260D01*
X-51260Y155512D02*
Y159260D01*
X-51781Y159782D02*
Y165354D01*
Y159782D02*
X-51260Y159260D01*
Y155512D02*
X-50276Y154528D01*
X-42526Y165354D02*
X-40276Y163104D01*
Y154528D02*
Y163104D01*
X45051Y89653D02*
X46122Y88583D01*
X49685D01*
X50276Y87992D01*
Y87598D02*
Y87992D01*
X45051Y89653D02*
Y91500D01*
X43001Y93550D02*
X45051Y91500D01*
X40663Y93550D02*
X43001D01*
X50787Y94488D02*
X50799Y94500D01*
X53898D01*
X55051Y93347D01*
Y84500D02*
Y93347D01*
X53051Y82500D02*
X55051Y84500D01*
X42051Y82500D02*
X53051D01*
X40866Y83685D02*
X42051Y82500D01*
X40866Y83685D02*
Y87008D01*
X40276Y87598D02*
X40866Y87008D01*
X40157Y102618D02*
X40276D01*
X39764Y94488D02*
Y102224D01*
X40157Y102618D01*
X50276D02*
X50394D01*
X50787Y102224D01*
Y94488D02*
Y102224D01*
X50276Y109980D02*
Y114429D01*
X40276Y109980D02*
Y114429D01*
X40276Y128937D02*
X40276Y128937D01*
Y121791D02*
Y128937D01*
X50276Y128937D02*
X50276Y128937D01*
Y121791D02*
Y128937D01*
X14539Y89653D02*
X15610Y88583D01*
X19173D01*
X19764Y87992D01*
Y87598D02*
Y87992D01*
X14539Y89653D02*
Y91500D01*
X12489Y93550D02*
X14539Y91500D01*
X10151Y93550D02*
X12489D01*
X20276Y94488D02*
X20287Y94500D01*
X23386D01*
X24539Y93347D01*
Y84500D02*
Y93347D01*
X22539Y82500D02*
X24539Y84500D01*
X11539Y82500D02*
X22539D01*
X10354Y83685D02*
X11539Y82500D01*
X10354Y83685D02*
Y87008D01*
X9764Y87598D02*
X10354Y87008D01*
X9646Y102618D02*
X9764D01*
X9252Y94488D02*
Y102224D01*
X9646Y102618D01*
X19764D02*
X19882D01*
X20276Y102224D01*
Y94488D02*
Y102224D01*
X19764Y109980D02*
Y114429D01*
X9764Y109980D02*
Y114429D01*
X9764Y128937D02*
X9764Y128937D01*
Y121791D02*
Y128937D01*
X19764Y128937D02*
X19764Y128937D01*
Y121791D02*
Y128937D01*
X-14988Y89653D02*
X-13918Y88583D01*
X-10354D01*
X-9764Y87992D01*
Y87598D02*
Y87992D01*
X-14988Y89653D02*
Y91500D01*
X-17038Y93550D02*
X-14988Y91500D01*
X-19377Y93550D02*
X-17038D01*
X-9252Y94488D02*
X-9240Y94500D01*
X-6141D01*
X-4988Y93347D01*
Y84500D02*
Y93347D01*
X-6988Y82500D02*
X-4988Y84500D01*
X-17988Y82500D02*
X-6988D01*
X-19173Y83685D02*
X-17988Y82500D01*
X-19173Y83685D02*
Y87008D01*
X-19764Y87598D02*
X-19173Y87008D01*
X-19882Y102618D02*
X-19764D01*
X-20276Y94488D02*
Y102224D01*
X-19882Y102618D01*
X-9764D02*
X-9646D01*
X-9252Y102224D01*
Y94488D02*
Y102224D01*
X-9764Y109980D02*
Y114429D01*
X-19764Y109980D02*
Y114429D01*
X-19764Y128937D02*
X-19764Y128937D01*
Y121791D02*
Y128937D01*
X-9764Y128937D02*
X-9764Y128937D01*
Y121791D02*
Y128937D01*
X-40276Y121791D02*
Y128937D01*
X-40276Y128937D02*
X-40276Y128937D01*
X-50276Y121791D02*
Y128937D01*
X-50276Y128937D02*
X-50276Y128937D01*
Y109980D02*
Y114429D01*
X-40276Y109980D02*
Y114429D01*
X-39764Y94488D02*
Y102224D01*
X-40157Y102618D02*
X-39764Y102224D01*
X-40276Y102618D02*
X-40157D01*
X-50787Y102224D02*
X-50394Y102618D01*
X-50787Y94488D02*
Y102224D01*
X-50394Y102618D02*
X-50276D01*
X-50276Y87598D02*
X-49685Y87008D01*
Y83685D02*
Y87008D01*
Y83685D02*
X-48500Y82500D01*
X-37500D01*
X-35500Y84500D01*
Y93347D01*
X-36653Y94500D02*
X-35500Y93347D01*
X-39752Y94500D02*
X-36653D01*
X-39764Y94488D02*
X-39752Y94500D01*
X-49889Y93550D02*
X-47550D01*
X-45500Y91500D01*
Y89653D02*
Y91500D01*
X-40276Y87598D02*
Y87992D01*
X-40866Y88583D02*
X-40276Y87992D01*
X-44430Y88583D02*
X-40866D01*
X-45500Y89653D02*
X-44430Y88583D01*
X787Y5512D02*
Y14472D01*
X44882Y5512D02*
Y14472D01*
X35433Y5512D02*
Y14472D01*
X-8662Y5512D02*
Y14472D01*
X-24409Y5512D02*
Y14472D01*
D39*
X19863Y42976D02*
X23800D01*
X-7874Y43031D02*
X-3937D01*
X-11811D02*
X-7874D01*
X-23622D02*
X-19685D01*
X-27559D02*
X-23622D01*
X7874D02*
X11811D01*
X3937D02*
X7874D01*
X23622D02*
X27559D01*
X51968Y53937D02*
Y57087D01*
X21457Y53937D02*
Y57087D01*
X-8071Y53937D02*
Y57087D01*
X-38583Y53937D02*
Y57087D01*
X-11811Y29528D02*
Y31693D01*
X41969Y57087D02*
X48583D01*
X48906Y57410D01*
X49324Y59273D02*
Y61056D01*
X50276Y62008D01*
X48906Y58855D02*
X49324Y59273D01*
X48906Y57410D02*
Y58855D01*
X48583Y53937D02*
Y57087D01*
X18071Y53937D02*
Y57087D01*
X18395Y57410D02*
Y58855D01*
X18812Y59273D01*
Y61056D02*
X19764Y62008D01*
X18812Y59273D02*
Y61056D01*
X18071Y57087D02*
X18395Y57410D01*
X11457Y57087D02*
X18071D01*
X-18071D02*
X-11457D01*
X-11133Y57410D01*
X-10715Y59273D02*
Y61056D01*
X-9764Y62008D01*
X-11133Y58855D02*
X-10715Y59273D01*
X-11133Y57410D02*
Y58855D01*
X-11457Y53937D02*
Y57087D01*
X-41969Y53937D02*
Y57087D01*
X-41645Y57410D02*
Y58855D01*
X-41227Y59273D01*
Y61056D02*
X-40276Y62008D01*
X-41227Y59273D02*
Y61056D01*
X-41969Y57087D02*
X-41645Y57410D01*
X-48583Y57087D02*
X-41969D01*
X-3937Y43031D02*
X3937D01*
X11811D02*
X19685D01*
X-19685D02*
X-11811D01*
X27559Y35236D02*
Y39646D01*
X19685Y35236D02*
Y39646D01*
X11811Y35236D02*
Y39646D01*
X3937Y35236D02*
Y39646D01*
X-3937Y35236D02*
Y39646D01*
X-11811Y35236D02*
Y39646D01*
X-19685Y35236D02*
Y39646D01*
X-27559Y35236D02*
Y39646D01*
X27559Y29528D02*
Y31693D01*
X19685Y29528D02*
Y31693D01*
X11811Y29528D02*
Y31693D01*
X3937Y29528D02*
Y31693D01*
X-3937Y29528D02*
Y31693D01*
X-19685Y29528D02*
Y31693D01*
X-27559Y29528D02*
Y31693D01*
X-37008Y11220D02*
X-35433Y12795D01*
X-37008Y5512D02*
Y11220D01*
D40*
X5000Y222441D02*
D03*
X-5000D02*
D03*
X-15000D02*
D03*
X-25000D02*
D03*
X-35000D02*
D03*
X45000D02*
D03*
X35000D02*
D03*
X25000D02*
D03*
X15000D02*
D03*
D41*
X-45000D02*
D03*
D42*
X47638Y189173D02*
D03*
X-47638D02*
D03*
D43*
X-31496Y32480D02*
D03*
X31496D02*
D03*
X23622D02*
D03*
X15748D02*
D03*
X7874D02*
D03*
X0D02*
D03*
X-7874D02*
D03*
X-15748D02*
D03*
X-23622D02*
D03*
X45276Y51181D02*
D03*
X14764D02*
D03*
X-14764D02*
D03*
X-45276D02*
D03*
X55118Y19685D02*
D03*
X-55118D02*
D03*
Y35433D02*
D03*
X55118D02*
D03*
Y51181D02*
D03*
X35433D02*
D03*
X24606D02*
D03*
X4921D02*
D03*
X-4921D02*
D03*
X-24606D02*
D03*
X-55118D02*
D03*
X-35433D02*
D03*
X35433Y66929D02*
D03*
X55118D02*
D03*
X4921D02*
D03*
X24606D02*
D03*
X-24606D02*
D03*
X-4921D02*
D03*
X-35433D02*
D03*
X-55118D02*
D03*
X-50276Y146653D02*
D03*
X40276D02*
D03*
X9764D02*
D03*
X-19764D02*
D03*
X50276D02*
D03*
X19764D02*
D03*
X-9764D02*
D03*
X-40276D02*
D03*
X-7874Y43031D02*
D03*
X51968Y53937D02*
D03*
X21457D02*
D03*
X-8071D02*
D03*
X-38583D02*
D03*
X7874Y43031D02*
D03*
X23622D02*
D03*
X-23622D02*
D03*
X-11811Y29528D02*
D03*
X8661Y12795D02*
D03*
X18110D02*
D03*
X41969Y53937D02*
D03*
X48583D02*
D03*
X18071D02*
D03*
X11457D02*
D03*
X-18071D02*
D03*
X-11457D02*
D03*
X-48583D02*
D03*
X-41969D02*
D03*
X27559Y29528D02*
D03*
X19685D02*
D03*
X11811D02*
D03*
X3937D02*
D03*
X-3937D02*
D03*
X-19685D02*
D03*
X-27559D02*
D03*
X14961Y12795D02*
D03*
X11811D02*
D03*
X27559D02*
D03*
X24409D02*
D03*
X21260D02*
D03*
X5512D02*
D03*
X-35433D02*
D03*
M02*
