G04*
G04 #@! TF.GenerationSoftware,Altium Limited,Altium Designer,24.7.2 (38)*
G04*
G04 Layer_Color=32896*
%FSLAX25Y25*%
%MOIN*%
G70*
G04*
G04 #@! TF.SameCoordinates,4FEF5C06-4E4D-4149-9763-4A6A228635AC*
G04*
G04*
G04 #@! TF.FilePolarity,Positive*
G04*
G01*
G75*
%ADD45C,0.00039*%
%ADD46C,0.00079*%
D45*
X37126Y100787D02*
X43425D01*
X37126Y111811D02*
X43425D01*
Y100787D02*
Y111811D01*
X37126Y100787D02*
Y111811D01*
X40276Y105315D02*
Y107283D01*
X39291Y106299D02*
X41260D01*
X47126Y100787D02*
X53425D01*
X47126Y111811D02*
X53425D01*
Y100787D02*
Y111811D01*
X47126Y100787D02*
Y111811D01*
X50276Y105315D02*
Y107283D01*
X49291Y106299D02*
X51260D01*
X45276Y93701D02*
Y95276D01*
X44488Y94488D02*
X46063D01*
X37402Y98032D02*
X37402Y90945D01*
X53150Y98032D02*
X53150Y90945D01*
X37402Y98032D02*
X53150Y98032D01*
X37402Y90945D02*
X53150Y90945D01*
X37126Y112598D02*
X43425D01*
X37126Y123622D02*
X43425D01*
Y112598D02*
Y123622D01*
X37126Y112598D02*
Y123622D01*
X40276Y117126D02*
Y119095D01*
X39291Y118110D02*
X41260D01*
X47126Y112598D02*
X53425D01*
X47126Y123622D02*
X53425D01*
Y112598D02*
Y123622D01*
X47126Y112598D02*
Y123622D01*
X50276Y117126D02*
Y119095D01*
X49291Y118110D02*
X51260D01*
X55118Y125591D02*
Y157874D01*
X45276Y140748D02*
Y142717D01*
X44291Y141732D02*
X46260D01*
X35433Y125591D02*
X55118D01*
X35433D02*
Y157874D01*
X55118D01*
X44291Y165354D02*
X46260D01*
X45276Y164370D02*
Y166339D01*
X54331Y160236D02*
Y170472D01*
X36220Y160236D02*
Y170472D01*
Y160236D02*
X54331D01*
X36220Y170472D02*
X54331D01*
X35433Y59842D02*
Y89764D01*
X55118D01*
X35433Y59842D02*
X55118D01*
Y89764D01*
X45276Y73819D02*
Y75787D01*
X44291Y74803D02*
X46260D01*
X50276Y56102D02*
Y58071D01*
X49291Y57087D02*
X51260D01*
X47323Y58563D02*
X53228D01*
X47323Y55610D02*
X53228D01*
Y58563D01*
X47323Y55610D02*
Y58563D01*
X16811Y55610D02*
Y58563D01*
X22716Y55610D02*
Y58563D01*
X16811Y55610D02*
X22716D01*
X16811Y58563D02*
X22716D01*
X18779Y57087D02*
X20748D01*
X19764Y56102D02*
Y58071D01*
X13780Y165354D02*
X15748D01*
X14764Y164370D02*
Y166339D01*
X23819Y160236D02*
Y170472D01*
X5709Y160236D02*
Y170472D01*
Y160236D02*
X23819D01*
X5709Y170472D02*
X23819D01*
X18779Y118110D02*
X20748D01*
X19764Y117126D02*
Y119095D01*
X16614Y112598D02*
Y123622D01*
X22913Y112598D02*
Y123622D01*
X16614D02*
X22913D01*
X16614Y112598D02*
X22913D01*
X8779Y118110D02*
X10748D01*
X9764Y117126D02*
Y119095D01*
X6614Y112598D02*
Y123622D01*
X12913Y112598D02*
Y123622D01*
X6614D02*
X12913D01*
X6614Y112598D02*
X12913D01*
X8779Y106299D02*
X10748D01*
X9764Y105315D02*
Y107283D01*
X6614Y100787D02*
Y111811D01*
X12913Y100787D02*
Y111811D01*
X6614D02*
X12913D01*
X6614Y100787D02*
X12913D01*
X14764Y93701D02*
Y95276D01*
X13976Y94488D02*
X15551D01*
X6890Y98032D02*
X6890Y90945D01*
X22638Y98032D02*
X22638Y90945D01*
X6890Y98032D02*
X22638Y98032D01*
X6890Y90945D02*
X22638Y90945D01*
X18779Y106299D02*
X20748D01*
X19764Y105315D02*
Y107283D01*
X16614Y100787D02*
Y111811D01*
X22913Y100787D02*
Y111811D01*
X16614D02*
X22913D01*
X16614Y100787D02*
X22913D01*
X4921Y59842D02*
Y89764D01*
X24606D01*
X4921Y59842D02*
X24606D01*
Y89764D01*
X14764Y73819D02*
Y75787D01*
X13780Y74803D02*
X15748D01*
X24606Y125591D02*
Y157874D01*
X14764Y140748D02*
Y142717D01*
X13780Y141732D02*
X15748D01*
X4921Y125591D02*
X24606D01*
X4921D02*
Y157874D01*
X24606D01*
X-55118Y59842D02*
Y89764D01*
X-35433D01*
X-55118Y59842D02*
X-35433D01*
Y89764D01*
X-45276Y73819D02*
Y75787D01*
X-46260Y74803D02*
X-44291D01*
X-24606Y59842D02*
Y89764D01*
X-4921D01*
X-24606Y59842D02*
X-4921D01*
Y89764D01*
X-14764Y73819D02*
Y75787D01*
X-15748Y74803D02*
X-13780D01*
X-14764Y93701D02*
Y95276D01*
X-15551Y94488D02*
X-13976D01*
X-22638Y98032D02*
X-22638Y90945D01*
X-6890Y98032D02*
X-6890Y90945D01*
X-22638Y98032D02*
X-6890Y98032D01*
X-22638Y90945D02*
X-6890Y90945D01*
X-45276Y93701D02*
Y95276D01*
X-46063Y94488D02*
X-44488D01*
X-53150Y98032D02*
X-53150Y90945D01*
X-37402Y98032D02*
X-37402Y90945D01*
X-53150Y98032D02*
X-37402Y98032D01*
X-53150Y90945D02*
X-37402Y90945D01*
X-23819Y170472D02*
X-5709D01*
X-23819Y160236D02*
X-5709D01*
X-23819D02*
Y170472D01*
X-5709Y160236D02*
Y170472D01*
X-14764Y164370D02*
Y166339D01*
X-15748Y165354D02*
X-13780D01*
X-24606Y157874D02*
X-4921D01*
X-24606Y125591D02*
Y157874D01*
Y125591D02*
X-4921D01*
X-15748Y141732D02*
X-13780D01*
X-14764Y140748D02*
Y142717D01*
X-4921Y125591D02*
Y157874D01*
X-55118D02*
X-35433D01*
X-55118Y125591D02*
Y157874D01*
Y125591D02*
X-35433D01*
X-46260Y141732D02*
X-44291D01*
X-45276Y140748D02*
Y142717D01*
X-35433Y125591D02*
Y157874D01*
X-12913Y112598D02*
X-6614D01*
X-12913Y123622D02*
X-6614D01*
Y112598D02*
Y123622D01*
X-12913Y112598D02*
Y123622D01*
X-9764Y117126D02*
Y119095D01*
X-10748Y118110D02*
X-8779D01*
X-12913Y100787D02*
X-6614D01*
X-12913Y111811D02*
X-6614D01*
Y100787D02*
Y111811D01*
X-12913Y100787D02*
Y111811D01*
X-9764Y105315D02*
Y107283D01*
X-10748Y106299D02*
X-8779D01*
X-22913Y112598D02*
X-16614D01*
X-22913Y123622D02*
X-16614D01*
Y112598D02*
Y123622D01*
X-22913Y112598D02*
Y123622D01*
X-19764Y117126D02*
Y119095D01*
X-20748Y118110D02*
X-18779D01*
X-22913Y100787D02*
X-16614D01*
X-22913Y111811D02*
X-16614D01*
Y100787D02*
Y111811D01*
X-22913Y100787D02*
Y111811D01*
X-19764Y105315D02*
Y107283D01*
X-20748Y106299D02*
X-18779D01*
X-53425Y112598D02*
X-47126D01*
X-53425Y123622D02*
X-47126D01*
Y112598D02*
Y123622D01*
X-53425Y112598D02*
Y123622D01*
X-50276Y117126D02*
Y119095D01*
X-51260Y118110D02*
X-49291D01*
X-9764Y56102D02*
Y58071D01*
X-10748Y57087D02*
X-8779D01*
X-12717Y58563D02*
X-6811D01*
X-12717Y55610D02*
X-6811D01*
Y58563D01*
X-12717Y55610D02*
Y58563D01*
X-43228Y55610D02*
Y58563D01*
X-37323Y55610D02*
Y58563D01*
X-43228Y55610D02*
X-37323D01*
X-43228Y58563D02*
X-37323D01*
X-41260Y57087D02*
X-39291D01*
X-40276Y56102D02*
Y58071D01*
X26083Y38386D02*
X29035D01*
X26083Y44291D02*
X29035D01*
Y38386D02*
Y44291D01*
X26083Y38386D02*
Y44291D01*
X27559Y40354D02*
Y42323D01*
X26575Y41339D02*
X28543D01*
X27559Y32480D02*
Y34449D01*
X26575Y33465D02*
X28543D01*
X26083Y30512D02*
X29035D01*
X26083Y36417D02*
X29035D01*
Y30512D02*
Y36417D01*
X26083Y30512D02*
Y36417D01*
X18209Y38386D02*
X21161D01*
X18209Y44291D02*
X21161D01*
Y38386D02*
Y44291D01*
X18209Y38386D02*
Y44291D01*
X19685Y40354D02*
Y42323D01*
X18701Y41339D02*
X20669D01*
X19685Y32480D02*
Y34449D01*
X18701Y33465D02*
X20669D01*
X18209Y30512D02*
X21161D01*
X18209Y36417D02*
X21161D01*
Y30512D02*
Y36417D01*
X18209Y30512D02*
Y36417D01*
X10827Y41339D02*
X12795D01*
X11811Y40354D02*
Y42323D01*
X10335Y38386D02*
Y44291D01*
X13287Y38386D02*
Y44291D01*
X10335D02*
X13287D01*
X10335Y38386D02*
X13287D01*
X11811Y32480D02*
Y34449D01*
X10827Y33465D02*
X12795D01*
X10335Y30512D02*
X13287D01*
X10335Y36417D02*
X13287D01*
Y30512D02*
Y36417D01*
X10335Y30512D02*
Y36417D01*
X2461Y30512D02*
Y36417D01*
X5413Y30512D02*
Y36417D01*
X2461D02*
X5413D01*
X2461Y30512D02*
X5413D01*
X2953Y33465D02*
X4921D01*
X3937Y32480D02*
Y34449D01*
X2953Y41339D02*
X4921D01*
X3937Y40354D02*
Y42323D01*
X2461Y38386D02*
Y44291D01*
X5413Y38386D02*
Y44291D01*
X2461D02*
X5413D01*
X2461Y38386D02*
X5413D01*
X-4921Y41339D02*
X-2953D01*
X-3937Y40354D02*
Y42323D01*
X-5413Y38386D02*
Y44291D01*
X-2461Y38386D02*
Y44291D01*
X-5413D02*
X-2461D01*
X-5413Y38386D02*
X-2461D01*
X-3937Y32480D02*
Y34449D01*
X-4921Y33465D02*
X-2953D01*
X-5413Y30512D02*
X-2461D01*
X-5413Y36417D02*
X-2461D01*
Y30512D02*
Y36417D01*
X-5413Y30512D02*
Y36417D01*
X-11811Y32480D02*
Y34449D01*
X-12795Y33465D02*
X-10827D01*
X-13287Y30512D02*
X-10335D01*
X-13287Y36417D02*
X-10335D01*
Y30512D02*
Y36417D01*
X-13287Y30512D02*
Y36417D01*
Y38386D02*
X-10335D01*
X-13287Y44291D02*
X-10335D01*
Y38386D02*
Y44291D01*
X-13287Y38386D02*
Y44291D01*
X-11811Y40354D02*
Y42323D01*
X-12795Y41339D02*
X-10827D01*
X-21161Y38386D02*
X-18209D01*
X-21161Y44291D02*
X-18209D01*
Y38386D02*
Y44291D01*
X-21161Y38386D02*
Y44291D01*
X-19685Y40354D02*
Y42323D01*
X-20669Y41339D02*
X-18701D01*
X-19685Y32480D02*
Y34449D01*
X-20669Y33465D02*
X-18701D01*
X-21161Y30512D02*
X-18209D01*
X-21161Y36417D02*
X-18209D01*
Y30512D02*
Y36417D01*
X-21161Y30512D02*
Y36417D01*
X-29035Y30512D02*
Y36417D01*
X-26083Y30512D02*
Y36417D01*
X-29035D02*
X-26083D01*
X-29035Y30512D02*
X-26083D01*
X-28543Y33465D02*
X-26575D01*
X-27559Y32480D02*
Y34449D01*
X-28543Y41339D02*
X-26575D01*
X-27559Y40354D02*
Y42323D01*
X-29035Y38386D02*
Y44291D01*
X-26083Y38386D02*
Y44291D01*
X-29035D02*
X-26083D01*
X-29035Y38386D02*
X-26083D01*
X-54331Y170472D02*
X-36220D01*
X-54331Y160236D02*
X-36220D01*
X-54331D02*
Y170472D01*
X-36220Y160236D02*
Y170472D01*
X-45276Y164370D02*
Y166339D01*
X-46260Y165354D02*
X-44291D01*
X-43425Y112598D02*
X-37126D01*
X-43425Y123622D02*
X-37126D01*
Y112598D02*
Y123622D01*
X-43425Y112598D02*
Y123622D01*
X-40276Y117126D02*
Y119095D01*
X-41260Y118110D02*
X-39291D01*
X-43425Y100787D02*
X-37126D01*
X-43425Y111811D02*
X-37126D01*
Y100787D02*
Y111811D01*
X-43425Y100787D02*
Y111811D01*
X-40276Y105315D02*
Y107283D01*
X-41260Y106299D02*
X-39291D01*
X-53425Y100787D02*
X-47126D01*
X-53425Y111811D02*
X-47126D01*
Y100787D02*
Y111811D01*
X-53425Y100787D02*
Y111811D01*
X-50276Y105315D02*
Y107283D01*
X-51260Y106299D02*
X-49291D01*
D46*
X43228Y55610D02*
Y58563D01*
X40276Y56102D02*
Y58071D01*
X39291Y57087D02*
X41260D01*
X37323Y55610D02*
X43228D01*
X37323Y58563D02*
X43228D01*
X37323Y55610D02*
Y58563D01*
X6811Y55610D02*
Y58563D01*
X12717D01*
X6811Y55610D02*
X12717D01*
X8779Y57087D02*
X10748D01*
X9764Y56102D02*
Y58071D01*
X12717Y55610D02*
Y58563D01*
X-16811Y55610D02*
Y58563D01*
X-19764Y56102D02*
Y58071D01*
X-20748Y57087D02*
X-18779D01*
X-22716Y55610D02*
X-16811D01*
X-22716Y58563D02*
X-16811D01*
X-22716Y55610D02*
Y58563D01*
X-47323Y55610D02*
Y58563D01*
X-50276Y56102D02*
Y58071D01*
X-51260Y57087D02*
X-49291D01*
X-53228Y55610D02*
X-47323D01*
X-53228Y58563D02*
X-47323D01*
X-53228Y55610D02*
Y58563D01*
M02*
