G04*
G04 #@! TF.GenerationSoftware,Altium Limited,Altium Designer,22.1.2 (22)*
G04*
G04 Layer_Physical_Order=2*
G04 Layer_Color=36540*
%FSLAX25Y25*%
%MOIN*%
G70*
G04*
G04 #@! TF.SameCoordinates,0E3957D1-4792-4D0B-97BD-F84BD75C4E9A*
G04*
G04*
G04 #@! TF.FilePolarity,Positive*
G04*
G01*
G75*
%ADD28C,0.01500*%
%ADD30C,0.05315*%
%ADD33C,0.01968*%
D28*
X-19291Y158465D02*
Y200787D01*
X-21949Y96260D02*
Y102051D01*
X-19291Y104709D01*
Y140748D01*
X-9449Y158465D02*
Y200787D01*
X-11949Y96260D02*
Y102051D01*
X-9449Y104551D02*
Y140748D01*
X-11949Y102051D02*
X-9449Y104551D01*
X394Y158465D02*
Y200787D01*
X-1949Y96260D02*
Y102051D01*
X394Y104394D01*
Y140748D01*
X10236Y158465D02*
Y200787D01*
X8051Y102051D02*
X10236Y104236D01*
Y140748D01*
X8051Y96260D02*
Y102051D01*
X20079Y158465D02*
Y200787D01*
X27264Y96260D02*
Y102051D01*
X20000Y109315D02*
X27264Y102051D01*
X20000Y109315D02*
Y140532D01*
X29921Y158465D02*
Y200787D01*
X37264Y96260D02*
Y102051D01*
X29921Y109394D02*
Y140748D01*
Y109394D02*
X37264Y102051D01*
X39764Y158465D02*
Y200787D01*
X47264Y96260D02*
Y102051D01*
X39764Y109551D02*
Y140621D01*
Y109551D02*
X47264Y102051D01*
X49606Y158465D02*
Y200787D01*
X57264Y96260D02*
Y102051D01*
X49606Y109709D02*
X57264Y102051D01*
X49606Y109709D02*
Y140748D01*
D30*
X394Y200787D02*
D03*
X10236D02*
D03*
X-9449D02*
D03*
X-19291D02*
D03*
X49606D02*
D03*
X39764D02*
D03*
X29921D02*
D03*
X20079D02*
D03*
D33*
X-19291Y158465D02*
D03*
Y140748D02*
D03*
X-21949Y96260D02*
D03*
X-9449Y158465D02*
D03*
Y140748D02*
D03*
X-11949Y96260D02*
D03*
X394Y158465D02*
D03*
Y140748D02*
D03*
X-1949Y96260D02*
D03*
X10236Y158465D02*
D03*
Y140748D02*
D03*
X8051Y96260D02*
D03*
X20079Y158465D02*
D03*
Y140748D02*
D03*
X27264Y96260D02*
D03*
X29921Y158465D02*
D03*
Y140748D02*
D03*
X37264Y96260D02*
D03*
X39764Y158465D02*
D03*
Y140748D02*
D03*
X47264Y96260D02*
D03*
X49606Y158465D02*
D03*
Y140748D02*
D03*
X57264Y96260D02*
D03*
M02*
