G04*
G04 #@! TF.GenerationSoftware,Altium Limited,Altium Designer,24.7.2 (38)*
G04*
G04 Layer_Color=16711935*
%FSLAX25Y25*%
%MOIN*%
G70*
G04*
G04 #@! TF.SameCoordinates,0E369B4C-2510-47F4-92B6-D956EC4EF59B*
G04*
G04*
G04 #@! TF.FilePolarity,Positive*
G04*
G01*
G75*
%ADD44C,0.00039*%
%ADD45C,0.00079*%
D44*
X49445Y158661D02*
X67555D01*
X49445Y148425D02*
X67555D01*
Y158661D01*
X49445Y148425D02*
Y158661D01*
X58500Y152559D02*
Y154527D01*
X57516Y153543D02*
X59484D01*
X20276Y158661D02*
X38386D01*
X20276Y148425D02*
X38386D01*
Y158661D01*
X20276Y148425D02*
Y158661D01*
X29331Y152559D02*
Y154527D01*
X28347Y153543D02*
X30316D01*
X-8892Y158661D02*
X9218D01*
X-8892Y148425D02*
X9218D01*
Y158661D01*
X-8892Y148425D02*
Y158661D01*
X163Y152559D02*
Y154527D01*
X-821Y153543D02*
X1147D01*
X-29990D02*
X-28022D01*
X-29006Y152559D02*
Y154527D01*
X-38061Y148425D02*
Y158661D01*
X-19951Y148425D02*
Y158661D01*
X-38061Y148425D02*
X-19951D01*
X-38061Y158661D02*
X-19951D01*
X62516Y106299D02*
X64484D01*
X63500Y105315D02*
Y107283D01*
X66650Y100787D02*
Y111811D01*
X60350Y100787D02*
Y111811D01*
X66650D01*
X60350Y100787D02*
X66650D01*
X62516Y94488D02*
X64484D01*
X63500Y93504D02*
Y95472D01*
X66650Y88976D02*
Y100000D01*
X60350Y88976D02*
Y100000D01*
X66650D01*
X60350Y88976D02*
X66650D01*
X52516Y106299D02*
X54484D01*
X53500Y105315D02*
Y107283D01*
X56650Y100787D02*
Y111811D01*
X50350Y100787D02*
Y111811D01*
X56650D01*
X50350Y100787D02*
X56650D01*
X52516Y94488D02*
X54484D01*
X53500Y93504D02*
Y95472D01*
X56650Y88976D02*
Y100000D01*
X50350Y88976D02*
Y100000D01*
X56650D01*
X50350Y88976D02*
X56650D01*
X50626Y79134D02*
X66374Y79134D01*
X50626Y86221D02*
X66374Y86221D01*
X50626Y79134D02*
X50626Y86221D01*
X66374Y79134D02*
X66374Y86221D01*
X57713Y82677D02*
X59287D01*
X58500Y81890D02*
Y83465D01*
X31182Y100787D02*
X37481D01*
X31182Y111811D02*
X37481D01*
X31182Y100787D02*
Y111811D01*
X37481Y100787D02*
Y111811D01*
X34331Y105315D02*
Y107283D01*
X33347Y106299D02*
X35316D01*
X31182Y88976D02*
X37481D01*
X31182Y100000D02*
X37481D01*
X31182Y88976D02*
Y100000D01*
X37481Y88976D02*
Y100000D01*
X34331Y93504D02*
Y95472D01*
X33347Y94488D02*
X35316D01*
X21182Y88976D02*
X27481D01*
X21182Y100000D02*
X27481D01*
X21182Y88976D02*
Y100000D01*
X27481Y88976D02*
Y100000D01*
X24331Y93504D02*
Y95472D01*
X23347Y94488D02*
X25316D01*
X23347Y106299D02*
X25316D01*
X24331Y105315D02*
Y107283D01*
X27481Y100787D02*
Y111811D01*
X21182Y100787D02*
Y111811D01*
X27481D01*
X21182Y100787D02*
X27481D01*
X48658Y146063D02*
X68343D01*
Y113779D02*
Y146063D01*
X48658Y113779D02*
X68343D01*
X57516Y129921D02*
X59484D01*
X58500Y128937D02*
Y130905D01*
X48658Y113779D02*
Y146063D01*
X19489D02*
X39174D01*
Y113779D02*
Y146063D01*
X19489Y113779D02*
X39174D01*
X28347Y129921D02*
X30316D01*
X29331Y128937D02*
Y130905D01*
X19489Y113779D02*
Y146063D01*
X-9680D02*
X10005D01*
Y113779D02*
Y146063D01*
X-9680Y113779D02*
X10005D01*
X-821Y129921D02*
X1147D01*
X163Y128937D02*
Y130905D01*
X-9680Y113779D02*
Y146063D01*
X2013Y100787D02*
X8312D01*
X2013Y111811D02*
X8312D01*
X2013Y100787D02*
Y111811D01*
X8312Y100787D02*
Y111811D01*
X5163Y105315D02*
Y107283D01*
X4179Y106299D02*
X6147D01*
X2013Y88976D02*
X8312D01*
X2013Y100000D02*
X8312D01*
X2013Y88976D02*
Y100000D01*
X8312Y88976D02*
Y100000D01*
X5163Y93504D02*
Y95472D01*
X4179Y94488D02*
X6147D01*
X-7987Y88976D02*
X-1688D01*
X-7987Y100000D02*
X-1688D01*
X-7987Y88976D02*
Y100000D01*
X-1688Y88976D02*
Y100000D01*
X-4837Y93504D02*
Y95472D01*
X-5821Y94488D02*
X-3853D01*
X-7987Y100787D02*
X-1688D01*
X-7987Y111811D02*
X-1688D01*
X-7987Y100787D02*
Y111811D01*
X-1688Y100787D02*
Y111811D01*
X-4837Y105315D02*
Y107283D01*
X-5821Y106299D02*
X-3853D01*
X-27156Y100787D02*
X-20856D01*
X-27156Y111811D02*
X-20856D01*
X-27156Y100787D02*
Y111811D01*
X-20856Y100787D02*
Y111811D01*
X-24006Y105315D02*
Y107283D01*
X-24990Y106299D02*
X-23022D01*
X-37156Y100787D02*
X-30856D01*
X-37156Y111811D02*
X-30856D01*
X-37156Y100787D02*
Y111811D01*
X-30856Y100787D02*
Y111811D01*
X-34006Y105315D02*
Y107283D01*
X-34990Y106299D02*
X-33022D01*
X-27156Y88976D02*
X-20856D01*
X-27156Y100000D02*
X-20856D01*
X-27156Y88976D02*
Y100000D01*
X-20856Y88976D02*
Y100000D01*
X-24006Y93504D02*
Y95472D01*
X-24990Y94488D02*
X-23022D01*
X21457Y79134D02*
X37205Y79134D01*
X21457Y86221D02*
X37205Y86221D01*
X21457Y79134D02*
X21457Y86221D01*
X37205Y79134D02*
X37205Y86221D01*
X28544Y82677D02*
X30119D01*
X29331Y81890D02*
Y83465D01*
X-7711Y79134D02*
X8037Y79134D01*
X-7711Y86221D02*
X8037Y86221D01*
X-7711Y79134D02*
X-7711Y86221D01*
X8037Y79134D02*
X8037Y86221D01*
X-625Y82677D02*
X950D01*
X163Y81890D02*
Y83465D01*
X-29006Y81890D02*
Y83465D01*
X-29793Y82677D02*
X-28218D01*
X-21132Y79134D02*
X-21132Y86221D01*
X-36880Y79134D02*
X-36880Y86221D01*
X-21132Y86221D01*
X-36880Y79134D02*
X-21132Y79134D01*
X57516Y62992D02*
X59484D01*
X58500Y62008D02*
Y63976D01*
X48658Y48031D02*
Y77953D01*
Y48031D02*
X68343D01*
X48658Y77953D02*
X68343D01*
Y48031D02*
Y77953D01*
X28347Y62992D02*
X30316D01*
X29331Y62008D02*
Y63976D01*
X19489Y48031D02*
Y77953D01*
Y48031D02*
X39174D01*
X19489Y77953D02*
X39174D01*
Y48031D02*
Y77953D01*
X-821Y62992D02*
X1147D01*
X163Y62008D02*
Y63976D01*
X-9680Y48031D02*
Y77953D01*
Y48031D02*
X10005D01*
X-9680Y77953D02*
X10005D01*
Y48031D02*
Y77953D01*
X52024Y46260D02*
X54976D01*
X52024Y40354D02*
X54976D01*
Y46260D01*
X52024Y40354D02*
Y46260D01*
X53500Y42323D02*
Y44291D01*
X52516Y43307D02*
X54484D01*
X22855Y46260D02*
X25808D01*
X22855Y40354D02*
X25808D01*
Y46260D01*
X22855Y40354D02*
Y46260D01*
X24331Y42323D02*
Y44291D01*
X23347Y43307D02*
X25316D01*
X-5821D02*
X-3853D01*
X-4837Y42323D02*
Y44291D01*
X-6314Y40354D02*
Y46260D01*
X-3361Y40354D02*
Y46260D01*
X-6314Y40354D02*
X-3361D01*
X-6314Y46260D02*
X-3361D01*
X-34990Y43307D02*
X-33022D01*
X-34006Y42323D02*
Y44291D01*
X-35482Y40354D02*
Y46260D01*
X-32530Y40354D02*
Y46260D01*
X-35482Y40354D02*
X-32530D01*
X-35482Y46260D02*
X-32530D01*
X-37156Y88976D02*
X-30856D01*
X-37156Y100000D02*
X-30856D01*
X-37156Y88976D02*
Y100000D01*
X-30856Y88976D02*
Y100000D01*
X-34006Y93504D02*
Y95472D01*
X-34990Y94488D02*
X-33022D01*
X-38848Y113779D02*
Y146063D01*
X-29006Y128937D02*
Y130905D01*
X-29990Y129921D02*
X-28022D01*
X-38848Y113779D02*
X-19163D01*
Y146063D01*
X-38848D02*
X-19163D01*
X-29990Y62992D02*
X-28022D01*
X-29006Y62008D02*
Y63976D01*
X-38848Y48031D02*
Y77953D01*
Y48031D02*
X-19163D01*
X-38848Y77953D02*
X-19163D01*
Y48031D02*
Y77953D01*
D45*
X-1314Y46260D02*
X1639D01*
X-821Y43307D02*
X1147D01*
X163Y42323D02*
Y44291D01*
X-1314Y40354D02*
Y46260D01*
X1639Y40354D02*
Y46260D01*
X-1314Y40354D02*
X1639D01*
X-30482Y46260D02*
X-27529D01*
X-29990Y43307D02*
X-28022D01*
X-29006Y42323D02*
Y44291D01*
X-30482Y40354D02*
Y46260D01*
X-27529Y40354D02*
Y46260D01*
X-30482Y40354D02*
X-27529D01*
X27855D02*
X30808D01*
Y46260D01*
X27855Y40354D02*
Y46260D01*
X29331Y42323D02*
Y44291D01*
X28347Y43307D02*
X30316D01*
X27855Y46260D02*
X30808D01*
X57024Y40354D02*
X59976D01*
Y46260D01*
X57024Y40354D02*
Y46260D01*
X58500Y42323D02*
Y44291D01*
X57516Y43307D02*
X59484D01*
X57024Y46260D02*
X59976D01*
M02*
