G04*
G04 #@! TF.GenerationSoftware,Altium Limited,Altium Designer,22.1.2 (22)*
G04*
G04 Layer_Color=128*
%FSLAX25Y25*%
%MOIN*%
G70*
G04*
G04 #@! TF.SameCoordinates,0E3957D1-4792-4D0B-97BD-F84BD75C4E9A*
G04*
G04*
G04 #@! TF.FilePolarity,Positive*
G04*
G01*
G75*
%ADD37C,0.00200*%
D37*
X-1575Y200787D02*
X2362D01*
X394Y198819D02*
Y202756D01*
X8268Y200787D02*
X12205D01*
X10236Y198819D02*
Y202756D01*
X-31102Y200787D02*
X-27165D01*
X-29134Y198819D02*
Y202756D01*
X-11417Y200787D02*
X-7480D01*
X-9449Y198819D02*
Y202756D01*
X-21260Y200787D02*
X-17323D01*
X-19291Y198819D02*
Y202756D01*
X57480Y200787D02*
X61417D01*
X59449Y198819D02*
Y202756D01*
X47638Y200787D02*
X51575D01*
X49606Y198819D02*
Y202756D01*
X37795Y200787D02*
X41732D01*
X39764Y198819D02*
Y202756D01*
X27953Y200787D02*
X31890D01*
X29921Y198819D02*
Y202756D01*
X18110Y200787D02*
X22047D01*
X20079Y198819D02*
Y202756D01*
X-37598Y176378D02*
X-27362D01*
X-32480Y171260D02*
Y181496D01*
X57677Y176378D02*
X67913D01*
X62795Y171260D02*
Y181496D01*
X-22343Y71457D02*
X-21555D01*
X-21949Y71063D02*
Y71851D01*
X-12342Y71457D02*
X-11555D01*
X-11949Y71063D02*
Y71851D01*
X-2342Y71457D02*
X-1555D01*
X-1949Y71063D02*
Y71851D01*
X7658Y71457D02*
X8445D01*
X8051Y71063D02*
Y71851D01*
X26870Y71457D02*
X27657D01*
X27264Y71063D02*
Y71851D01*
X36870Y71457D02*
X37657D01*
X37264Y71063D02*
Y71851D01*
X46870Y71457D02*
X47657D01*
X47264Y71063D02*
Y71851D01*
X56870Y71457D02*
X57657D01*
X57264Y71063D02*
Y71851D01*
X-20669Y3937D02*
X-19882D01*
X-20276Y3543D02*
Y4331D01*
X-24843Y60748D02*
X-24055D01*
X-24449Y60354D02*
Y61142D01*
X20276Y3937D02*
X21063D01*
X20669Y3543D02*
Y4331D01*
X-14842Y60748D02*
X-14055D01*
X-14449Y60354D02*
Y61142D01*
X23425Y5906D02*
X24213D01*
X23819Y5512D02*
Y6299D01*
X-4843Y60748D02*
X-4055D01*
X-4449Y60354D02*
Y61142D01*
X26575Y3937D02*
X27362D01*
X26969Y3543D02*
Y4331D01*
X5158Y60748D02*
X5945D01*
X5551Y60354D02*
Y61142D01*
X29724Y5906D02*
X30512D01*
X30118Y5512D02*
Y6299D01*
X24370Y60748D02*
X25157D01*
X24764Y60354D02*
Y61142D01*
X32874Y3937D02*
X33661D01*
X33268Y3543D02*
Y4331D01*
X34370Y60748D02*
X35157D01*
X34764Y60354D02*
Y61142D01*
X36024Y5906D02*
X36811D01*
X36417Y5512D02*
Y6299D01*
X44370Y60748D02*
X45158D01*
X44764Y60354D02*
Y61142D01*
X39173Y3937D02*
X39961D01*
X39567Y3543D02*
Y4331D01*
X54370Y60748D02*
X55158D01*
X54764Y60354D02*
Y61142D01*
X42323Y5906D02*
X43110D01*
X42717Y5512D02*
Y6299D01*
X-19685Y158465D02*
X-18898D01*
X-19291Y158071D02*
Y158859D01*
X-19685Y140748D02*
X-18898D01*
X-19291Y140355D02*
Y141142D01*
X-22343Y96260D02*
X-21555D01*
X-21949Y95866D02*
Y96654D01*
X-9843Y158465D02*
X-9055D01*
X-9449Y158071D02*
Y158859D01*
X-9843Y140748D02*
X-9055D01*
X-9449Y140355D02*
Y141142D01*
X-12342Y96260D02*
X-11555D01*
X-11949Y95866D02*
Y96654D01*
X0Y158465D02*
X787D01*
X394Y158071D02*
Y158859D01*
X0Y140748D02*
X787D01*
X394Y140355D02*
Y141142D01*
X-2342Y96260D02*
X-1555D01*
X-1949Y95866D02*
Y96654D01*
X9843Y158465D02*
X10630D01*
X10236Y158071D02*
Y158859D01*
X9843Y140748D02*
X10630D01*
X10236Y140355D02*
Y141142D01*
X7658Y96260D02*
X8445D01*
X8051Y95866D02*
Y96654D01*
X19685Y158465D02*
X20472D01*
X20079Y158071D02*
Y158859D01*
X19685Y140748D02*
X20472D01*
X20079Y140355D02*
Y141142D01*
X26870Y96260D02*
X27657D01*
X27264Y95866D02*
Y96654D01*
X29528Y158465D02*
X30315D01*
X29921Y158071D02*
Y158859D01*
X29528Y140748D02*
X30315D01*
X29921Y140355D02*
Y141142D01*
X36870Y96260D02*
X37657D01*
X37264Y95866D02*
Y96654D01*
X39370Y158465D02*
X40157D01*
X39764Y158071D02*
Y158859D01*
X39370Y140748D02*
X40157D01*
X39764Y140355D02*
Y141142D01*
X46870Y96260D02*
X47657D01*
X47264Y95866D02*
Y96654D01*
X49213Y158465D02*
X50000D01*
X49606Y158071D02*
Y158859D01*
X49213Y140748D02*
X50000D01*
X49606Y140355D02*
Y141142D01*
X56870Y96260D02*
X57657D01*
X57264Y95866D02*
Y96654D01*
X59500Y3177D02*
X60288D01*
X59894Y2784D02*
Y3571D01*
X51626Y3177D02*
X52414D01*
X52020Y2784D02*
Y3571D01*
X-34988Y3177D02*
X-34201D01*
X-34594Y2784D02*
Y3571D01*
X-34988Y18925D02*
X-34201D01*
X-34594Y18532D02*
Y19319D01*
X-34988Y11051D02*
X-34201D01*
X-34594Y10658D02*
Y11445D01*
X-34988Y26799D02*
X-34201D01*
X-34594Y26406D02*
Y27193D01*
X-34988Y34673D02*
X-34201D01*
X-34594Y34280D02*
Y35067D01*
X-34988Y42547D02*
X-34201D01*
X-34594Y42154D02*
Y42941D01*
X-34988Y50421D02*
X-34201D01*
X-34594Y50028D02*
Y50815D01*
X-34988Y58295D02*
X-34201D01*
X-34594Y57902D02*
Y58689D01*
X-27114Y3177D02*
X-26327D01*
X-26720Y2784D02*
Y3571D01*
X-27114Y18925D02*
X-26327D01*
X-26720Y18532D02*
Y19319D01*
X-27114Y26799D02*
X-26327D01*
X-26720Y26406D02*
Y27193D01*
X-27114Y34673D02*
X-26327D01*
X-26720Y34280D02*
Y35067D01*
X-27114Y42547D02*
X-26327D01*
X-26720Y42154D02*
Y42941D01*
X-27114Y50421D02*
X-26327D01*
X-26720Y50028D02*
Y50815D01*
X-19240Y11051D02*
X-18453D01*
X-18846Y10658D02*
Y11445D01*
X-19240Y18925D02*
X-18453D01*
X-18846Y18532D02*
Y19319D01*
X-19240Y26799D02*
X-18453D01*
X-18846Y26406D02*
Y27193D01*
X-19240Y34673D02*
X-18453D01*
X-18846Y34280D02*
Y35067D01*
X-19240Y42547D02*
X-18453D01*
X-18846Y42154D02*
Y42941D01*
X-19240Y50421D02*
X-18453D01*
X-18846Y50028D02*
Y50815D01*
X-11366Y3177D02*
X-10579D01*
X-10972Y2784D02*
Y3571D01*
X-11366Y11051D02*
X-10579D01*
X-10972Y10658D02*
Y11445D01*
X-11366Y18925D02*
X-10579D01*
X-10972Y18532D02*
Y19319D01*
X-11366Y26799D02*
X-10579D01*
X-10972Y26406D02*
Y27193D01*
X-11366Y34673D02*
X-10579D01*
X-10972Y34280D02*
Y35067D01*
X-11366Y50421D02*
X-10579D01*
X-10972Y50028D02*
Y50815D01*
X-3492Y11051D02*
X-2705D01*
X-3098Y10658D02*
Y11445D01*
X-3492Y18925D02*
X-2705D01*
X-3098Y18532D02*
Y19319D01*
X-3492Y26799D02*
X-2705D01*
X-3098Y26406D02*
Y27193D01*
X-3492Y34673D02*
X-2705D01*
X-3098Y34280D02*
Y35067D01*
X4382Y3177D02*
X5170D01*
X4776Y2784D02*
Y3571D01*
X4382Y11051D02*
X5170D01*
X4776Y10658D02*
Y11445D01*
X4382Y18925D02*
X5170D01*
X4776Y18532D02*
Y19319D01*
X4382Y26799D02*
X5170D01*
X4776Y26406D02*
Y27193D01*
X4382Y34673D02*
X5170D01*
X4776Y34280D02*
Y35067D01*
X12256Y3177D02*
X13044D01*
X12650Y2784D02*
Y3571D01*
X12256Y11051D02*
X13044D01*
X12650Y10658D02*
Y11445D01*
X12256Y18925D02*
X13044D01*
X12650Y18532D02*
Y19319D01*
X12256Y26799D02*
X13044D01*
X12650Y26406D02*
Y27193D01*
X12256Y34673D02*
X13044D01*
X12650Y34280D02*
Y35067D01*
X12256Y50421D02*
X13044D01*
X12650Y50028D02*
Y50815D01*
X12256Y58295D02*
X13044D01*
X12650Y57902D02*
Y58689D01*
X20130Y50421D02*
X20918D01*
X20524Y50028D02*
Y50815D01*
X51626Y11051D02*
X52414D01*
X52020Y10658D02*
Y11445D01*
X51626Y18925D02*
X52414D01*
X52020Y18532D02*
Y19319D01*
X51626Y26799D02*
X52414D01*
X52020Y26406D02*
Y27193D01*
X51626Y34673D02*
X52414D01*
X52020Y34280D02*
Y35067D01*
X51626Y42547D02*
X52414D01*
X52020Y42154D02*
Y42941D01*
X59500Y11051D02*
X60288D01*
X59894Y10658D02*
Y11445D01*
X59500Y18925D02*
X60288D01*
X59894Y18532D02*
Y19319D01*
X59500Y26799D02*
X60288D01*
X59894Y26406D02*
Y27193D01*
X59500Y34673D02*
X60288D01*
X59894Y34280D02*
Y35067D01*
X59500Y42547D02*
X60288D01*
X59894Y42154D02*
Y42941D01*
X59500Y50421D02*
X60288D01*
X59894Y50028D02*
Y50815D01*
X59500Y58295D02*
X60288D01*
X59894Y57902D02*
Y58689D01*
X67374Y3177D02*
X68162D01*
X67768Y2784D02*
Y3571D01*
X67374Y11051D02*
X68162D01*
X67768Y10658D02*
Y11445D01*
X67374Y18925D02*
X68162D01*
X67768Y18532D02*
Y19319D01*
X67374Y26799D02*
X68162D01*
X67768Y26406D02*
Y27193D01*
X67374Y34673D02*
X68162D01*
X67768Y34280D02*
Y35067D01*
X67374Y42547D02*
X68162D01*
X67768Y42154D02*
Y42941D01*
X67374Y50421D02*
X68162D01*
X67768Y50028D02*
Y50815D01*
X67374Y58295D02*
X68162D01*
X67768Y57902D02*
Y58689D01*
M02*
