G04*
G04 #@! TF.GenerationSoftware,Altium Limited,Altium Designer,24.7.2 (38)*
G04*
G04 Layer_Color=8421504*
%FSLAX25Y25*%
%MOIN*%
G70*
G04*
G04 #@! TF.SameCoordinates,43B99760-4079-4BD6-A725-026A76E2A537*
G04*
G04*
G04 #@! TF.FilePolarity,Positive*
G04*
G01*
G75*
%ADD13R,0.03000X0.03937*%
%ADD14R,0.03937X0.05906*%
%ADD15R,0.05512X0.02756*%
%ADD16R,0.03937X0.03937*%
%ADD17R,0.03150X0.03937*%
%ADD18R,0.02047X0.01850*%
%ADD19R,0.02362X0.01968*%
G36*
X-30709Y157559D02*
X-23031D01*
Y155925D01*
X-20531D01*
Y155335D01*
Y151201D01*
X-23031D01*
Y149567D01*
X-30709D01*
Y157559D01*
D02*
G37*
G36*
X-1575Y157059D02*
X6102D01*
Y155425D01*
X8602D01*
Y154835D01*
Y150701D01*
X6102D01*
Y149067D01*
X-1575D01*
Y157059D01*
D02*
G37*
G36*
X27559Y157539D02*
X35236D01*
Y155905D01*
X37736D01*
Y155315D01*
Y151181D01*
X35236D01*
Y149547D01*
X27559D01*
Y157539D01*
D02*
G37*
G36*
X56693Y156559D02*
X64370D01*
Y154925D01*
X66870D01*
Y154335D01*
Y150201D01*
X64370D01*
Y148567D01*
X56693D01*
Y156559D01*
D02*
G37*
D13*
X52352Y152563D02*
D03*
X23219Y153543D02*
D03*
X-35049Y153563D02*
D03*
X-5915Y153063D02*
D03*
D14*
X63858Y117126D02*
D03*
X53858D02*
D03*
Y142717D02*
D03*
X63858D02*
D03*
X34724Y117126D02*
D03*
X24724D02*
D03*
Y142717D02*
D03*
X34724D02*
D03*
X5591Y117126D02*
D03*
X-4409D02*
D03*
Y142717D02*
D03*
X5591D02*
D03*
X-23543D02*
D03*
X-33543D02*
D03*
Y117126D02*
D03*
X-23543D02*
D03*
D15*
X63858Y102618D02*
D03*
Y109980D02*
D03*
Y90807D02*
D03*
Y98169D02*
D03*
X53858Y102618D02*
D03*
Y109980D02*
D03*
Y90807D02*
D03*
Y98169D02*
D03*
X34724Y102618D02*
D03*
Y109980D02*
D03*
Y90807D02*
D03*
Y98169D02*
D03*
X24724Y102618D02*
D03*
Y109980D02*
D03*
Y90807D02*
D03*
Y98169D02*
D03*
X-4409Y102618D02*
D03*
Y109980D02*
D03*
X-23543D02*
D03*
Y102618D02*
D03*
X-33543Y109980D02*
D03*
Y102618D02*
D03*
X-23543Y98169D02*
D03*
Y90807D02*
D03*
X-33543Y98169D02*
D03*
Y90807D02*
D03*
X5591Y102618D02*
D03*
Y109980D02*
D03*
Y90807D02*
D03*
Y98169D02*
D03*
X-4409Y90807D02*
D03*
Y98169D02*
D03*
D16*
X53347Y82677D02*
D03*
X64370D02*
D03*
X24213D02*
D03*
X35236D02*
D03*
X-23031D02*
D03*
X-34055D02*
D03*
X-4921D02*
D03*
X6102D02*
D03*
D17*
X63858Y75787D02*
D03*
X53858D02*
D03*
Y50197D02*
D03*
X63858D02*
D03*
X34724D02*
D03*
X24724D02*
D03*
Y75787D02*
D03*
X34724D02*
D03*
X5591D02*
D03*
X-4409D02*
D03*
Y50197D02*
D03*
X5591D02*
D03*
X-23543D02*
D03*
X-33543D02*
D03*
Y75787D02*
D03*
X-23543D02*
D03*
D18*
X63858Y41614D02*
D03*
Y45000D02*
D03*
X58858Y45000D02*
D03*
Y41614D02*
D03*
X34724Y45000D02*
D03*
Y41614D02*
D03*
X29724Y45000D02*
D03*
Y41614D02*
D03*
X5591Y45000D02*
D03*
Y41614D02*
D03*
X591Y45000D02*
D03*
Y41614D02*
D03*
X-23543Y41614D02*
D03*
Y45000D02*
D03*
X-28543D02*
D03*
Y41614D02*
D03*
X58858Y25866D02*
D03*
Y29252D02*
D03*
X46372Y25866D02*
D03*
Y29252D02*
D03*
X33886D02*
D03*
Y25866D02*
D03*
X21400Y29252D02*
D03*
Y25866D02*
D03*
X8914Y29252D02*
D03*
Y25866D02*
D03*
X-3571D02*
D03*
Y29252D02*
D03*
X-16057Y25866D02*
D03*
Y29252D02*
D03*
X-28543D02*
D03*
Y25866D02*
D03*
D19*
X58858Y19882D02*
D03*
Y23425D02*
D03*
X46372Y19882D02*
D03*
Y23425D02*
D03*
X33886Y19882D02*
D03*
Y23425D02*
D03*
X21400D02*
D03*
Y19882D02*
D03*
X8914D02*
D03*
Y23425D02*
D03*
X-3571Y19882D02*
D03*
Y23425D02*
D03*
X-16057Y19882D02*
D03*
Y23425D02*
D03*
X-28543D02*
D03*
Y19882D02*
D03*
M02*
