G04*
G04 #@! TF.GenerationSoftware,Altium Limited,Altium Designer,22.1.2 (22)*
G04*
G04 Layer_Physical_Order=4*
G04 Layer_Color=16711680*
%FSLAX25Y25*%
%MOIN*%
G70*
G04*
G04 #@! TF.SameCoordinates,6C204DCC-978F-4A87-A690-EB2E95B516E8*
G04*
G04*
G04 #@! TF.FilePolarity,Positive*
G04*
G01*
G75*
%ADD33R,0.02362X0.09055*%
%ADD34C,0.01181*%
%ADD36C,0.01968*%
%ADD37C,0.05315*%
%ADD38R,0.05315X0.05315*%
%ADD39R,0.20866X0.20866*%
%ADD40C,0.01968*%
G36*
X73209Y807D02*
X68898D01*
X68873Y802D01*
X68848Y805D01*
X68540Y790D01*
X68468Y772D01*
X68393D01*
X67788Y652D01*
X67696Y614D01*
X67599Y595D01*
X67029Y358D01*
X66947Y303D01*
X66855Y266D01*
X66342Y-77D01*
X66272Y-147D01*
X66190Y-202D01*
X65753Y-639D01*
X65698Y-721D01*
X65629Y-791D01*
X65286Y-1304D01*
X65248Y-1396D01*
X65193Y-1478D01*
X65003Y-1936D01*
X59468D01*
Y4927D01*
X59763Y5368D01*
X59869Y5906D01*
X59763Y6443D01*
X59458Y6899D01*
X59002Y7203D01*
X58464Y7310D01*
X57927Y7203D01*
X57471Y6899D01*
X57166Y6443D01*
X57060Y5906D01*
X57166Y5368D01*
X57461Y4927D01*
Y-1936D01*
X56318D01*
Y2959D01*
X56613Y3399D01*
X56720Y3937D01*
X56613Y4475D01*
X56308Y4930D01*
X55853Y5235D01*
X55315Y5342D01*
X54777Y5235D01*
X54321Y4930D01*
X54017Y4475D01*
X53910Y3937D01*
X54017Y3399D01*
X54311Y2959D01*
Y-1936D01*
X43720D01*
Y4927D01*
X44014Y5368D01*
X44122Y5906D01*
X44014Y6443D01*
X43710Y6899D01*
X43254Y7203D01*
X42717Y7310D01*
X42179Y7203D01*
X41723Y6899D01*
X41418Y6443D01*
X41312Y5906D01*
X41418Y5368D01*
X41713Y4927D01*
Y-1936D01*
X40571D01*
Y2959D01*
X40865Y3399D01*
X40972Y3937D01*
X40865Y4475D01*
X40560Y4930D01*
X40105Y5235D01*
X39567Y5342D01*
X39029Y5235D01*
X38574Y4930D01*
X38269Y4475D01*
X38162Y3937D01*
X38269Y3399D01*
X38563Y2959D01*
Y-1936D01*
X37421D01*
Y4927D01*
X37715Y5368D01*
X37822Y5906D01*
X37715Y6443D01*
X37411Y6899D01*
X36955Y7203D01*
X36417Y7310D01*
X35880Y7203D01*
X35424Y6899D01*
X35119Y6443D01*
X35012Y5906D01*
X35119Y5368D01*
X35414Y4927D01*
Y-1936D01*
X34271D01*
Y2959D01*
X34566Y3399D01*
X34673Y3937D01*
X34566Y4475D01*
X34261Y4930D01*
X33805Y5235D01*
X33268Y5342D01*
X32730Y5235D01*
X32274Y4930D01*
X31970Y4475D01*
X31863Y3937D01*
X31970Y3399D01*
X32264Y2959D01*
Y-1936D01*
X31122D01*
Y4927D01*
X31416Y5368D01*
X31523Y5906D01*
X31416Y6443D01*
X31112Y6899D01*
X30656Y7203D01*
X30118Y7310D01*
X29581Y7203D01*
X29125Y6899D01*
X28820Y6443D01*
X28713Y5906D01*
X28820Y5368D01*
X29115Y4927D01*
Y-1936D01*
X27972D01*
Y2959D01*
X28267Y3399D01*
X28374Y3937D01*
X28267Y4475D01*
X27962Y4930D01*
X27506Y5235D01*
X26969Y5342D01*
X26431Y5235D01*
X25975Y4930D01*
X25670Y4475D01*
X25564Y3937D01*
X25670Y3399D01*
X25965Y2959D01*
Y-1936D01*
X24822D01*
Y4927D01*
X25117Y5368D01*
X25224Y5906D01*
X25117Y6443D01*
X24812Y6899D01*
X24356Y7203D01*
X23819Y7310D01*
X23281Y7203D01*
X22825Y6899D01*
X22521Y6443D01*
X22414Y5906D01*
X22521Y5368D01*
X22815Y4927D01*
Y-1936D01*
X21673D01*
Y2959D01*
X21967Y3399D01*
X22074Y3937D01*
X21967Y4475D01*
X21663Y4930D01*
X21207Y5235D01*
X20669Y5342D01*
X20132Y5235D01*
X19676Y4930D01*
X19371Y4475D01*
X19264Y3937D01*
X19371Y3399D01*
X19666Y2959D01*
Y-1936D01*
X3956D01*
Y0D01*
X3950Y33D01*
X3954Y66D01*
X3929Y451D01*
X3903Y546D01*
X3897Y645D01*
X3697Y1390D01*
X3639Y1507D01*
X3597Y1632D01*
X3212Y2299D01*
X3125Y2398D01*
X3052Y2507D01*
X2507Y3052D01*
X2398Y3125D01*
X2299Y3212D01*
X1632Y3597D01*
X1508Y3639D01*
X1390Y3697D01*
X645Y3897D01*
X514Y3905D01*
X385Y3931D01*
X-385D01*
X-514Y3905D01*
X-645Y3897D01*
X-1390Y3697D01*
X-1507Y3639D01*
X-1632Y3597D01*
X-2299Y3212D01*
X-2398Y3125D01*
X-2507Y3052D01*
X-3052Y2507D01*
X-3125Y2398D01*
X-3212Y2299D01*
X-3597Y1632D01*
X-3639Y1508D01*
X-3697Y1390D01*
X-3897Y645D01*
X-3903Y546D01*
X-3929Y451D01*
X-3954Y66D01*
X-3950Y33D01*
X-3956Y0D01*
Y-1936D01*
X-19272D01*
Y2959D01*
X-18978Y3399D01*
X-18871Y3937D01*
X-18978Y4475D01*
X-19282Y4930D01*
X-19738Y5235D01*
X-20276Y5342D01*
X-20813Y5235D01*
X-21269Y4930D01*
X-21574Y4475D01*
X-21680Y3937D01*
X-21574Y3399D01*
X-21279Y2959D01*
Y-1936D01*
X-34688D01*
X-34878Y-1478D01*
X-34933Y-1396D01*
X-34971Y-1304D01*
X-35314Y-791D01*
X-35384Y-721D01*
X-35438Y-639D01*
X-35875Y-202D01*
X-35957Y-147D01*
X-36027Y-77D01*
X-36540Y266D01*
X-36632Y303D01*
X-36714Y358D01*
X-37284Y595D01*
X-37381Y614D01*
X-37473Y652D01*
X-38078Y772D01*
X-38153D01*
X-38225Y790D01*
X-38533Y805D01*
X-38558Y802D01*
X-38583Y807D01*
X-42894D01*
Y80000D01*
X73209D01*
Y807D01*
D02*
G37*
G36*
X73209Y187205D02*
X51968D01*
Y165551D01*
X73209D01*
X73209Y96500D01*
X-42894D01*
X-42894Y165551D01*
X-21654D01*
Y187205D01*
X-42894D01*
Y234233D01*
X73209D01*
Y187205D01*
D02*
G37*
%LPC*%
G36*
X57264Y78165D02*
X56957Y78104D01*
X56696Y77930D01*
X56522Y77670D01*
X56461Y77362D01*
X56522Y77055D01*
X56696Y76795D01*
X56957Y76621D01*
X57264Y76560D01*
X57571Y76621D01*
X57832Y76795D01*
X58005Y77055D01*
X58067Y77362D01*
X58005Y77670D01*
X57832Y77930D01*
X57571Y78104D01*
X57264Y78165D01*
D02*
G37*
G36*
X47264D02*
X46957Y78104D01*
X46696Y77930D01*
X46522Y77670D01*
X46461Y77362D01*
X46522Y77055D01*
X46696Y76795D01*
X46957Y76621D01*
X47264Y76560D01*
X47571Y76621D01*
X47831Y76795D01*
X48006Y77055D01*
X48067Y77362D01*
X48006Y77670D01*
X47831Y77930D01*
X47571Y78104D01*
X47264Y78165D01*
D02*
G37*
G36*
X37264D02*
X36957Y78104D01*
X36696Y77930D01*
X36522Y77670D01*
X36461Y77362D01*
X36522Y77055D01*
X36696Y76795D01*
X36957Y76621D01*
X37264Y76560D01*
X37571Y76621D01*
X37832Y76795D01*
X38006Y77055D01*
X38067Y77362D01*
X38006Y77670D01*
X37832Y77930D01*
X37571Y78104D01*
X37264Y78165D01*
D02*
G37*
G36*
X27264D02*
X26956Y78104D01*
X26696Y77930D01*
X26522Y77670D01*
X26461Y77362D01*
X26522Y77055D01*
X26696Y76795D01*
X26956Y76621D01*
X27264Y76560D01*
X27571Y76621D01*
X27832Y76795D01*
X28005Y77055D01*
X28067Y77362D01*
X28005Y77670D01*
X27832Y77930D01*
X27571Y78104D01*
X27264Y78165D01*
D02*
G37*
G36*
X8051D02*
X7744Y78104D01*
X7484Y77930D01*
X7310Y77670D01*
X7248Y77362D01*
X7310Y77055D01*
X7484Y76795D01*
X7744Y76621D01*
X8051Y76560D01*
X8358Y76621D01*
X8619Y76795D01*
X8793Y77055D01*
X8854Y77362D01*
X8793Y77670D01*
X8619Y77930D01*
X8358Y78104D01*
X8051Y78165D01*
D02*
G37*
G36*
X-1949D02*
X-2256Y78104D01*
X-2517Y77930D01*
X-2691Y77670D01*
X-2752Y77362D01*
X-2691Y77055D01*
X-2517Y76795D01*
X-2256Y76621D01*
X-1949Y76560D01*
X-1642Y76621D01*
X-1381Y76795D01*
X-1207Y77055D01*
X-1146Y77362D01*
X-1207Y77670D01*
X-1381Y77930D01*
X-1642Y78104D01*
X-1949Y78165D01*
D02*
G37*
G36*
X-11949D02*
X-12256Y78104D01*
X-12517Y77930D01*
X-12690Y77670D01*
X-12752Y77362D01*
X-12690Y77055D01*
X-12517Y76795D01*
X-12256Y76621D01*
X-11949Y76560D01*
X-11642Y76621D01*
X-11381Y76795D01*
X-11207Y77055D01*
X-11146Y77362D01*
X-11207Y77670D01*
X-11381Y77930D01*
X-11642Y78104D01*
X-11949Y78165D01*
D02*
G37*
G36*
X-21949D02*
X-22256Y78104D01*
X-22516Y77930D01*
X-22691Y77670D01*
X-22752Y77362D01*
X-22691Y77055D01*
X-22516Y76795D01*
X-22256Y76621D01*
X-21949Y76560D01*
X-21642Y76621D01*
X-21381Y76795D01*
X-21207Y77055D01*
X-21146Y77362D01*
X-21207Y77670D01*
X-21381Y77930D01*
X-21642Y78104D01*
X-21949Y78165D01*
D02*
G37*
G36*
X54764Y67456D02*
X54457Y67395D01*
X54196Y67221D01*
X54022Y66961D01*
X53961Y66654D01*
X54022Y66346D01*
X54196Y66086D01*
X54457Y65912D01*
X54764Y65851D01*
X55071Y65912D01*
X55331Y66086D01*
X55506Y66346D01*
X55567Y66654D01*
X55506Y66961D01*
X55331Y67221D01*
X55071Y67395D01*
X54764Y67456D01*
D02*
G37*
G36*
X44764D02*
X44457Y67395D01*
X44196Y67221D01*
X44022Y66961D01*
X43961Y66654D01*
X44022Y66346D01*
X44196Y66086D01*
X44457Y65912D01*
X44764Y65851D01*
X45071Y65912D01*
X45331Y66086D01*
X45505Y66346D01*
X45567Y66654D01*
X45505Y66961D01*
X45331Y67221D01*
X45071Y67395D01*
X44764Y67456D01*
D02*
G37*
G36*
X34764D02*
X34457Y67395D01*
X34196Y67221D01*
X34022Y66961D01*
X33961Y66654D01*
X34022Y66346D01*
X34196Y66086D01*
X34457Y65912D01*
X34764Y65851D01*
X35071Y65912D01*
X35331Y66086D01*
X35506Y66346D01*
X35567Y66654D01*
X35506Y66961D01*
X35331Y67221D01*
X35071Y67395D01*
X34764Y67456D01*
D02*
G37*
G36*
X24764D02*
X24457Y67395D01*
X24196Y67221D01*
X24022Y66961D01*
X23961Y66654D01*
X24022Y66346D01*
X24196Y66086D01*
X24457Y65912D01*
X24764Y65851D01*
X25071Y65912D01*
X25332Y66086D01*
X25506Y66346D01*
X25567Y66654D01*
X25506Y66961D01*
X25332Y67221D01*
X25071Y67395D01*
X24764Y67456D01*
D02*
G37*
G36*
X5551D02*
X5244Y67395D01*
X4984Y67221D01*
X4809Y66961D01*
X4748Y66654D01*
X4809Y66346D01*
X4984Y66086D01*
X5244Y65912D01*
X5551Y65851D01*
X5858Y65912D01*
X6119Y66086D01*
X6293Y66346D01*
X6354Y66654D01*
X6293Y66961D01*
X6119Y67221D01*
X5858Y67395D01*
X5551Y67456D01*
D02*
G37*
G36*
X-4449D02*
X-4756Y67395D01*
X-5017Y67221D01*
X-5190Y66961D01*
X-5252Y66654D01*
X-5190Y66346D01*
X-5017Y66086D01*
X-4756Y65912D01*
X-4449Y65851D01*
X-4142Y65912D01*
X-3881Y66086D01*
X-3707Y66346D01*
X-3646Y66654D01*
X-3707Y66961D01*
X-3881Y67221D01*
X-4142Y67395D01*
X-4449Y67456D01*
D02*
G37*
G36*
X-14449D02*
X-14756Y67395D01*
X-15017Y67221D01*
X-15191Y66961D01*
X-15252Y66654D01*
X-15191Y66346D01*
X-15017Y66086D01*
X-14756Y65912D01*
X-14449Y65851D01*
X-14142Y65912D01*
X-13881Y66086D01*
X-13707Y66346D01*
X-13646Y66654D01*
X-13707Y66961D01*
X-13881Y67221D01*
X-14142Y67395D01*
X-14449Y67456D01*
D02*
G37*
G36*
X-24449D02*
X-24756Y67395D01*
X-25016Y67221D01*
X-25190Y66961D01*
X-25252Y66654D01*
X-25190Y66346D01*
X-25016Y66086D01*
X-24756Y65912D01*
X-24449Y65851D01*
X-24142Y65912D01*
X-23881Y66086D01*
X-23707Y66346D01*
X-23646Y66654D01*
X-23707Y66961D01*
X-23881Y67221D01*
X-24142Y67395D01*
X-24449Y67456D01*
D02*
G37*
G36*
X17520Y59858D02*
X17212Y59797D01*
X16952Y59623D01*
X16778Y59362D01*
X16717Y59055D01*
X16778Y58748D01*
X16952Y58487D01*
X17212Y58313D01*
X17520Y58252D01*
X17827Y58313D01*
X18087Y58487D01*
X18261Y58748D01*
X18323Y59055D01*
X18261Y59362D01*
X18087Y59623D01*
X17827Y59797D01*
X17520Y59858D01*
D02*
G37*
G36*
X12795D02*
X12488Y59797D01*
X12228Y59623D01*
X12054Y59362D01*
X11992Y59055D01*
X12054Y58748D01*
X12228Y58487D01*
X12488Y58313D01*
X12795Y58252D01*
X13103Y58313D01*
X13363Y58487D01*
X13537Y58748D01*
X13598Y59055D01*
X13537Y59362D01*
X13363Y59623D01*
X13103Y59797D01*
X12795Y59858D01*
D02*
G37*
G36*
X19685Y55921D02*
X19378Y55860D01*
X19117Y55686D01*
X18943Y55425D01*
X18882Y55118D01*
X18943Y54811D01*
X19117Y54550D01*
X19378Y54376D01*
X19685Y54315D01*
X19992Y54376D01*
X20253Y54550D01*
X20427Y54811D01*
X20488Y55118D01*
X20427Y55425D01*
X20253Y55686D01*
X19992Y55860D01*
X19685Y55921D01*
D02*
G37*
G36*
X10630D02*
X10323Y55860D01*
X10062Y55686D01*
X9888Y55425D01*
X9827Y55118D01*
X9888Y54811D01*
X10062Y54550D01*
X10323Y54376D01*
X10630Y54315D01*
X10937Y54376D01*
X11198Y54550D01*
X11372Y54811D01*
X11433Y55118D01*
X11372Y55425D01*
X11198Y55686D01*
X10937Y55860D01*
X10630Y55921D01*
D02*
G37*
G36*
X-1949Y53952D02*
X-2256Y53891D01*
X-2517Y53717D01*
X-2691Y53457D01*
X-2752Y53150D01*
X-2691Y52842D01*
X-2517Y52582D01*
X-2256Y52408D01*
X-1949Y52347D01*
X-1642Y52408D01*
X-1381Y52582D01*
X-1207Y52842D01*
X-1146Y53150D01*
X-1207Y53457D01*
X-1381Y53717D01*
X-1642Y53891D01*
X-1949Y53952D01*
D02*
G37*
G36*
X22000Y51303D02*
X21693Y51242D01*
X21432Y51068D01*
X21258Y50807D01*
X21197Y50500D01*
X21258Y50193D01*
X21432Y49932D01*
X21693Y49758D01*
X22000Y49697D01*
X22307Y49758D01*
X22568Y49932D01*
X22742Y50193D01*
X22803Y50500D01*
X22742Y50807D01*
X22568Y51068D01*
X22307Y51242D01*
X22000Y51303D01*
D02*
G37*
G36*
Y48803D02*
X21693Y48742D01*
X21432Y48568D01*
X21258Y48307D01*
X21197Y48000D01*
X21258Y47693D01*
X21432Y47432D01*
X21693Y47258D01*
X22000Y47197D01*
X22307Y47258D01*
X22568Y47432D01*
X22742Y47693D01*
X22803Y48000D01*
X22742Y48307D01*
X22568Y48568D01*
X22307Y48742D01*
X22000Y48803D01*
D02*
G37*
G36*
X22096Y46078D02*
X21789Y46017D01*
X21529Y45843D01*
X21355Y45583D01*
X21294Y45276D01*
X21355Y44968D01*
X21529Y44708D01*
X21789Y44534D01*
X22096Y44473D01*
X22404Y44534D01*
X22664Y44708D01*
X22838Y44968D01*
X22899Y45276D01*
X22838Y45583D01*
X22664Y45843D01*
X22404Y46017D01*
X22096Y46078D01*
D02*
G37*
G36*
X8315Y43354D02*
X8008Y43293D01*
X7747Y43119D01*
X7573Y42858D01*
X7512Y42551D01*
X7573Y42244D01*
X7747Y41984D01*
X8008Y41809D01*
X8315Y41748D01*
X8622Y41809D01*
X8883Y41984D01*
X9057Y42244D01*
X9118Y42551D01*
X9057Y42858D01*
X8883Y43119D01*
X8622Y43293D01*
X8315Y43354D01*
D02*
G37*
G36*
X-1949Y42141D02*
X-2256Y42080D01*
X-2517Y41906D01*
X-2691Y41646D01*
X-2752Y41339D01*
X-2691Y41031D01*
X-2517Y40771D01*
X-2256Y40597D01*
X-1949Y40536D01*
X-1642Y40597D01*
X-1381Y40771D01*
X-1207Y41031D01*
X-1146Y41339D01*
X-1207Y41646D01*
X-1381Y41906D01*
X-1642Y42080D01*
X-1949Y42141D01*
D02*
G37*
G36*
X31841Y42141D02*
X31533Y42080D01*
X31273Y41906D01*
X31099Y41646D01*
X31038Y41339D01*
X31099Y41031D01*
X31273Y40771D01*
X31533Y40597D01*
X31841Y40536D01*
X32148Y40597D01*
X32408Y40771D01*
X32582Y41031D01*
X32643Y41339D01*
X32582Y41646D01*
X32408Y41906D01*
X32148Y42080D01*
X31841Y42141D01*
D02*
G37*
G36*
X8315Y40854D02*
X8008Y40793D01*
X7747Y40619D01*
X7573Y40358D01*
X7512Y40051D01*
X7573Y39744D01*
X7747Y39483D01*
X8008Y39309D01*
X8315Y39248D01*
X8622Y39309D01*
X8883Y39483D01*
X9057Y39744D01*
X9118Y40051D01*
X9057Y40358D01*
X8883Y40619D01*
X8622Y40793D01*
X8315Y40854D01*
D02*
G37*
G36*
X29500Y39303D02*
X29193Y39242D01*
X28932Y39068D01*
X28758Y38807D01*
X28697Y38500D01*
X28758Y38193D01*
X28932Y37932D01*
X29193Y37758D01*
X29500Y37697D01*
X29807Y37758D01*
X30068Y37932D01*
X30242Y38193D01*
X30303Y38500D01*
X30242Y38807D01*
X30068Y39068D01*
X29807Y39242D01*
X29500Y39303D01*
D02*
G37*
G36*
X10000Y36303D02*
X9693Y36242D01*
X9432Y36068D01*
X9258Y35807D01*
X9197Y35500D01*
X9258Y35193D01*
X9432Y34932D01*
X9693Y34758D01*
X10000Y34697D01*
X10307Y34758D01*
X10568Y34932D01*
X10742Y35193D01*
X10803Y35500D01*
X10742Y35807D01*
X10568Y36068D01*
X10307Y36242D01*
X10000Y36303D01*
D02*
G37*
G36*
X7000D02*
X6693Y36242D01*
X6432Y36068D01*
X6258Y35807D01*
X6197Y35500D01*
X6258Y35193D01*
X6432Y34932D01*
X6693Y34758D01*
X7000Y34697D01*
X7307Y34758D01*
X7568Y34932D01*
X7742Y35193D01*
X7803Y35500D01*
X7742Y35807D01*
X7568Y36068D01*
X7307Y36242D01*
X7000Y36303D01*
D02*
G37*
G36*
X16850Y33057D02*
X16543Y32996D01*
X16283Y32822D01*
X16109Y32561D01*
X16048Y32254D01*
X16109Y31947D01*
X16283Y31686D01*
X16543Y31512D01*
X16850Y31451D01*
X17158Y31512D01*
X17418Y31686D01*
X17592Y31947D01*
X17653Y32254D01*
X17592Y32561D01*
X17418Y32822D01*
X17158Y32996D01*
X16850Y33057D01*
D02*
G37*
G36*
X52165Y6708D02*
X51858Y6647D01*
X51598Y6473D01*
X51424Y6213D01*
X51363Y5906D01*
X51424Y5598D01*
X51598Y5338D01*
X51858Y5164D01*
X52165Y5103D01*
X52473Y5164D01*
X52733Y5338D01*
X52907Y5598D01*
X52968Y5906D01*
X52907Y6213D01*
X52733Y6473D01*
X52473Y6647D01*
X52165Y6708D01*
D02*
G37*
G36*
X-28740Y203813D02*
Y201181D01*
X-26108D01*
X-26161Y201584D01*
X-26469Y202326D01*
X-26958Y202963D01*
X-27595Y203453D01*
X-28337Y203760D01*
X-28740Y203813D01*
D02*
G37*
G36*
X62500Y203839D02*
X59842D01*
Y201181D01*
X62500D01*
Y203839D01*
D02*
G37*
G36*
X-29528Y203813D02*
X-29930Y203760D01*
X-30673Y203453D01*
X-31310Y202963D01*
X-31799Y202326D01*
X-32107Y201584D01*
X-32160Y201181D01*
X-29528D01*
Y203813D01*
D02*
G37*
G36*
X59055Y203839D02*
X56398D01*
Y201181D01*
X59055D01*
Y203839D01*
D02*
G37*
G36*
X-29528Y200394D02*
X-32160D01*
X-32107Y199991D01*
X-31799Y199249D01*
X-31310Y198611D01*
X-30673Y198122D01*
X-29930Y197815D01*
X-29528Y197762D01*
Y200394D01*
D02*
G37*
G36*
X-26108D02*
X-28740D01*
Y197762D01*
X-28337Y197815D01*
X-27595Y198122D01*
X-26958Y198611D01*
X-26469Y199249D01*
X-26161Y199991D01*
X-26108Y200394D01*
D02*
G37*
G36*
X62500D02*
X59842D01*
Y197736D01*
X62500D01*
Y200394D01*
D02*
G37*
G36*
X59055D02*
X56398D01*
Y197736D01*
X59055D01*
Y200394D01*
D02*
G37*
G36*
X54528Y207119D02*
X-24213D01*
X-24514Y206994D01*
X-24639Y206693D01*
Y194882D01*
X-24514Y194581D01*
X-24213Y194456D01*
X54528D01*
X54829Y194581D01*
X54954Y194882D01*
Y206693D01*
X54829Y206994D01*
X54528Y207119D01*
D02*
G37*
G36*
X49606Y159268D02*
X49299Y159207D01*
X49039Y159033D01*
X48865Y158772D01*
X48803Y158465D01*
X48865Y158158D01*
X49039Y157897D01*
X49299Y157723D01*
X49606Y157662D01*
X49913Y157723D01*
X50174Y157897D01*
X50348Y158158D01*
X50409Y158465D01*
X50348Y158772D01*
X50174Y159033D01*
X49913Y159207D01*
X49606Y159268D01*
D02*
G37*
G36*
X39764D02*
X39456Y159207D01*
X39196Y159033D01*
X39022Y158772D01*
X38961Y158465D01*
X39022Y158158D01*
X39196Y157897D01*
X39456Y157723D01*
X39764Y157662D01*
X40071Y157723D01*
X40332Y157897D01*
X40505Y158158D01*
X40567Y158465D01*
X40505Y158772D01*
X40332Y159033D01*
X40071Y159207D01*
X39764Y159268D01*
D02*
G37*
G36*
X29921D02*
X29614Y159207D01*
X29354Y159033D01*
X29179Y158772D01*
X29118Y158465D01*
X29179Y158158D01*
X29354Y157897D01*
X29614Y157723D01*
X29921Y157662D01*
X30228Y157723D01*
X30489Y157897D01*
X30663Y158158D01*
X30724Y158465D01*
X30663Y158772D01*
X30489Y159033D01*
X30228Y159207D01*
X29921Y159268D01*
D02*
G37*
G36*
X20079D02*
X19771Y159207D01*
X19511Y159033D01*
X19337Y158772D01*
X19276Y158465D01*
X19337Y158158D01*
X19511Y157897D01*
X19771Y157723D01*
X20079Y157662D01*
X20386Y157723D01*
X20646Y157897D01*
X20820Y158158D01*
X20882Y158465D01*
X20820Y158772D01*
X20646Y159033D01*
X20386Y159207D01*
X20079Y159268D01*
D02*
G37*
G36*
X10236D02*
X9929Y159207D01*
X9668Y159033D01*
X9494Y158772D01*
X9433Y158465D01*
X9494Y158158D01*
X9668Y157897D01*
X9929Y157723D01*
X10236Y157662D01*
X10543Y157723D01*
X10804Y157897D01*
X10978Y158158D01*
X11039Y158465D01*
X10978Y158772D01*
X10804Y159033D01*
X10543Y159207D01*
X10236Y159268D01*
D02*
G37*
G36*
X394D02*
X87Y159207D01*
X-174Y159033D01*
X-348Y158772D01*
X-409Y158465D01*
X-348Y158158D01*
X-174Y157897D01*
X87Y157723D01*
X394Y157662D01*
X701Y157723D01*
X961Y157897D01*
X1135Y158158D01*
X1197Y158465D01*
X1135Y158772D01*
X961Y159033D01*
X701Y159207D01*
X394Y159268D01*
D02*
G37*
G36*
X-9449D02*
X-9756Y159207D01*
X-10017Y159033D01*
X-10191Y158772D01*
X-10252Y158465D01*
X-10191Y158158D01*
X-10017Y157897D01*
X-9756Y157723D01*
X-9449Y157662D01*
X-9142Y157723D01*
X-8881Y157897D01*
X-8707Y158158D01*
X-8646Y158465D01*
X-8707Y158772D01*
X-8881Y159033D01*
X-9142Y159207D01*
X-9449Y159268D01*
D02*
G37*
G36*
X-19291D02*
X-19599Y159207D01*
X-19859Y159033D01*
X-20033Y158772D01*
X-20094Y158465D01*
X-20033Y158158D01*
X-19859Y157897D01*
X-19599Y157723D01*
X-19291Y157662D01*
X-18984Y157723D01*
X-18724Y157897D01*
X-18550Y158158D01*
X-18488Y158465D01*
X-18550Y158772D01*
X-18724Y159033D01*
X-18984Y159207D01*
X-19291Y159268D01*
D02*
G37*
G36*
X49606Y141551D02*
X49299Y141490D01*
X49039Y141316D01*
X48865Y141055D01*
X48803Y140748D01*
X48865Y140441D01*
X49039Y140181D01*
X49299Y140006D01*
X49606Y139945D01*
X49913Y140006D01*
X50174Y140181D01*
X50348Y140441D01*
X50409Y140748D01*
X50348Y141055D01*
X50174Y141316D01*
X49913Y141490D01*
X49606Y141551D01*
D02*
G37*
G36*
X39764D02*
X39456Y141490D01*
X39196Y141316D01*
X39022Y141055D01*
X38961Y140748D01*
X39022Y140441D01*
X39196Y140181D01*
X39456Y140006D01*
X39764Y139945D01*
X40071Y140006D01*
X40332Y140181D01*
X40505Y140441D01*
X40567Y140748D01*
X40505Y141055D01*
X40332Y141316D01*
X40071Y141490D01*
X39764Y141551D01*
D02*
G37*
G36*
X29921D02*
X29614Y141490D01*
X29354Y141316D01*
X29179Y141055D01*
X29118Y140748D01*
X29179Y140441D01*
X29354Y140181D01*
X29614Y140006D01*
X29921Y139945D01*
X30228Y140006D01*
X30489Y140181D01*
X30663Y140441D01*
X30724Y140748D01*
X30663Y141055D01*
X30489Y141316D01*
X30228Y141490D01*
X29921Y141551D01*
D02*
G37*
G36*
X20079D02*
X19771Y141490D01*
X19511Y141316D01*
X19337Y141055D01*
X19276Y140748D01*
X19337Y140441D01*
X19511Y140181D01*
X19771Y140006D01*
X20079Y139945D01*
X20386Y140006D01*
X20646Y140181D01*
X20820Y140441D01*
X20882Y140748D01*
X20820Y141055D01*
X20646Y141316D01*
X20386Y141490D01*
X20079Y141551D01*
D02*
G37*
G36*
X10236D02*
X9929Y141490D01*
X9668Y141316D01*
X9494Y141055D01*
X9433Y140748D01*
X9494Y140441D01*
X9668Y140181D01*
X9929Y140006D01*
X10236Y139945D01*
X10543Y140006D01*
X10804Y140181D01*
X10978Y140441D01*
X11039Y140748D01*
X10978Y141055D01*
X10804Y141316D01*
X10543Y141490D01*
X10236Y141551D01*
D02*
G37*
G36*
X394D02*
X87Y141490D01*
X-174Y141316D01*
X-348Y141055D01*
X-409Y140748D01*
X-348Y140441D01*
X-174Y140181D01*
X87Y140006D01*
X394Y139945D01*
X701Y140006D01*
X961Y140181D01*
X1135Y140441D01*
X1197Y140748D01*
X1135Y141055D01*
X961Y141316D01*
X701Y141490D01*
X394Y141551D01*
D02*
G37*
G36*
X-9449D02*
X-9756Y141490D01*
X-10017Y141316D01*
X-10191Y141055D01*
X-10252Y140748D01*
X-10191Y140441D01*
X-10017Y140181D01*
X-9756Y140006D01*
X-9449Y139945D01*
X-9142Y140006D01*
X-8881Y140181D01*
X-8707Y140441D01*
X-8646Y140748D01*
X-8707Y141055D01*
X-8881Y141316D01*
X-9142Y141490D01*
X-9449Y141551D01*
D02*
G37*
G36*
X-19291D02*
X-19599Y141490D01*
X-19859Y141316D01*
X-20033Y141055D01*
X-20094Y140748D01*
X-20033Y140441D01*
X-19859Y140181D01*
X-19599Y140006D01*
X-19291Y139945D01*
X-18984Y140006D01*
X-18724Y140181D01*
X-18550Y140441D01*
X-18488Y140748D01*
X-18550Y141055D01*
X-18724Y141316D01*
X-18984Y141490D01*
X-19291Y141551D01*
D02*
G37*
G36*
X57264Y102968D02*
X56957Y102907D01*
X56696Y102733D01*
X56522Y102473D01*
X56461Y102165D01*
X56522Y101858D01*
X56696Y101598D01*
X56957Y101424D01*
X57264Y101363D01*
X57571Y101424D01*
X57832Y101598D01*
X58005Y101858D01*
X58067Y102165D01*
X58005Y102473D01*
X57832Y102733D01*
X57571Y102907D01*
X57264Y102968D01*
D02*
G37*
G36*
X47264D02*
X46957Y102907D01*
X46696Y102733D01*
X46522Y102473D01*
X46461Y102165D01*
X46522Y101858D01*
X46696Y101598D01*
X46957Y101424D01*
X47264Y101363D01*
X47571Y101424D01*
X47831Y101598D01*
X48006Y101858D01*
X48067Y102165D01*
X48006Y102473D01*
X47831Y102733D01*
X47571Y102907D01*
X47264Y102968D01*
D02*
G37*
G36*
X37264D02*
X36957Y102907D01*
X36696Y102733D01*
X36522Y102473D01*
X36461Y102165D01*
X36522Y101858D01*
X36696Y101598D01*
X36957Y101424D01*
X37264Y101363D01*
X37571Y101424D01*
X37832Y101598D01*
X38006Y101858D01*
X38067Y102165D01*
X38006Y102473D01*
X37832Y102733D01*
X37571Y102907D01*
X37264Y102968D01*
D02*
G37*
G36*
X27264D02*
X26956Y102907D01*
X26696Y102733D01*
X26522Y102473D01*
X26461Y102165D01*
X26522Y101858D01*
X26696Y101598D01*
X26956Y101424D01*
X27264Y101363D01*
X27571Y101424D01*
X27832Y101598D01*
X28005Y101858D01*
X28067Y102165D01*
X28005Y102473D01*
X27832Y102733D01*
X27571Y102907D01*
X27264Y102968D01*
D02*
G37*
G36*
X8051D02*
X7744Y102907D01*
X7484Y102733D01*
X7310Y102473D01*
X7248Y102165D01*
X7310Y101858D01*
X7484Y101598D01*
X7744Y101424D01*
X8051Y101363D01*
X8358Y101424D01*
X8619Y101598D01*
X8793Y101858D01*
X8854Y102165D01*
X8793Y102473D01*
X8619Y102733D01*
X8358Y102907D01*
X8051Y102968D01*
D02*
G37*
G36*
X-1949D02*
X-2256Y102907D01*
X-2517Y102733D01*
X-2691Y102473D01*
X-2752Y102165D01*
X-2691Y101858D01*
X-2517Y101598D01*
X-2256Y101424D01*
X-1949Y101363D01*
X-1642Y101424D01*
X-1381Y101598D01*
X-1207Y101858D01*
X-1146Y102165D01*
X-1207Y102473D01*
X-1381Y102733D01*
X-1642Y102907D01*
X-1949Y102968D01*
D02*
G37*
G36*
X-11949D02*
X-12256Y102907D01*
X-12517Y102733D01*
X-12690Y102473D01*
X-12752Y102165D01*
X-12690Y101858D01*
X-12517Y101598D01*
X-12256Y101424D01*
X-11949Y101363D01*
X-11642Y101424D01*
X-11381Y101598D01*
X-11207Y101858D01*
X-11146Y102165D01*
X-11207Y102473D01*
X-11381Y102733D01*
X-11642Y102907D01*
X-11949Y102968D01*
D02*
G37*
G36*
X-21949D02*
X-22256Y102907D01*
X-22516Y102733D01*
X-22691Y102473D01*
X-22752Y102165D01*
X-22691Y101858D01*
X-22516Y101598D01*
X-22256Y101424D01*
X-21949Y101363D01*
X-21642Y101424D01*
X-21381Y101598D01*
X-21207Y101858D01*
X-21146Y102165D01*
X-21207Y102473D01*
X-21381Y102733D01*
X-21642Y102907D01*
X-21949Y102968D01*
D02*
G37*
%LPD*%
D33*
X-29724Y-7283D02*
D03*
X-26575D02*
D03*
X-23425D02*
D03*
X-20276D02*
D03*
X-17126D02*
D03*
X-13976D02*
D03*
X-10827D02*
D03*
X-7677D02*
D03*
X8071D02*
D03*
X11220D02*
D03*
X14370D02*
D03*
X17520D02*
D03*
X20669D02*
D03*
X23819D02*
D03*
X26969D02*
D03*
X30118D02*
D03*
X33268D02*
D03*
X36417D02*
D03*
X39567D02*
D03*
X42717D02*
D03*
X45866D02*
D03*
X49016D02*
D03*
X52165D02*
D03*
X55315D02*
D03*
X58465D02*
D03*
X61614D02*
D03*
D34*
X-20276Y-7283D02*
Y3937D01*
X58464Y-7283D02*
Y5906D01*
X55315Y-7283D02*
Y3937D01*
X26969Y-7283D02*
Y3937D01*
X20669Y-7283D02*
Y3937D01*
X23819Y-7283D02*
Y5906D01*
X30118Y-7283D02*
Y5906D01*
X33268Y-7283D02*
Y3937D01*
X36417Y-7283D02*
Y5906D01*
X39567Y-7283D02*
Y3937D01*
X42717Y-7283D02*
Y5906D01*
D36*
X45866Y-7283D02*
Y1677D01*
X17520Y-7283D02*
Y1677D01*
X8071Y-7283D02*
Y1677D01*
X61614Y-7283D02*
Y1677D01*
X52165Y-7283D02*
Y1677D01*
X-7677Y-7283D02*
Y1677D01*
D37*
X394Y200787D02*
D03*
X10236D02*
D03*
X-29134D02*
D03*
X-9449D02*
D03*
X-19291D02*
D03*
X49606D02*
D03*
X39764D02*
D03*
X29921D02*
D03*
X20079D02*
D03*
D38*
X59449D02*
D03*
D39*
X-32480Y176378D02*
D03*
X62795D02*
D03*
D40*
X-8000Y47000D02*
D03*
X-5000Y34500D02*
D03*
X11500Y11000D02*
D03*
X1500Y37500D02*
D03*
X-38000Y8500D02*
D03*
X70500Y7500D02*
D03*
X70000Y77000D02*
D03*
X-36500D02*
D03*
X47000Y9000D02*
D03*
X24500Y53000D02*
D03*
X26500Y58500D02*
D03*
X15000Y64000D02*
D03*
X3000Y58500D02*
D03*
X9000Y52000D02*
D03*
X-7035Y54358D02*
D03*
X-18846D02*
D03*
X69736D02*
D03*
X63831Y42547D02*
D03*
X69736Y30736D02*
D03*
X63831Y18925D02*
D03*
X57925Y54358D02*
D03*
X52020Y42547D02*
D03*
X57925Y30736D02*
D03*
X52020Y18925D02*
D03*
X46114Y54358D02*
D03*
X40209Y42547D02*
D03*
X46114Y30736D02*
D03*
X40209Y18925D02*
D03*
X34303Y54358D02*
D03*
Y30736D02*
D03*
X16587Y18925D02*
D03*
X10681Y30736D02*
D03*
X4775Y18925D02*
D03*
X-7035D02*
D03*
X-12941Y30736D02*
D03*
X-18846Y18925D02*
D03*
X-30658Y42547D02*
D03*
X-24752Y30736D02*
D03*
X-30658Y18925D02*
D03*
X-36563Y54358D02*
D03*
Y30736D02*
D03*
X55315Y3937D02*
D03*
X58464Y5906D02*
D03*
X26969Y3937D02*
D03*
X42717Y5906D02*
D03*
X-20276Y3937D02*
D03*
X20669D02*
D03*
X23819Y5906D02*
D03*
X30118D02*
D03*
X33268Y3937D02*
D03*
X36417Y5906D02*
D03*
X39567Y3937D02*
D03*
M02*
