G04*
G04 #@! TF.GenerationSoftware,Altium Limited,Altium Designer,22.1.2 (22)*
G04*
G04 Layer_Color=8388736*
%FSLAX25Y25*%
%MOIN*%
G70*
G04*
G04 #@! TF.SameCoordinates,6C204DCC-978F-4A87-A690-EB2E95B516E8*
G04*
G04*
G04 #@! TF.FilePolarity,Negative*
G04*
G01*
G75*
%ADD21R,1.03150X0.11516*%
%ADD22R,0.02441X0.02047*%
%ADD23R,0.01929X0.02126*%
%ADD24R,0.05591X0.02835*%
%ADD25R,0.02126X0.01929*%
%ADD26R,0.02835X0.04016*%
G04:AMPARAMS|DCode=27|XSize=24.41mil|YSize=9.45mil|CornerRadius=0.65mil|HoleSize=0mil|Usage=FLASHONLY|Rotation=180.000|XOffset=0mil|YOffset=0mil|HoleType=Round|Shape=RoundedRectangle|*
%AMROUNDEDRECTD27*
21,1,0.02441,0.00814,0,0,180.0*
21,1,0.02310,0.00945,0,0,180.0*
1,1,0.00131,-0.01155,0.00407*
1,1,0.00131,0.01155,0.00407*
1,1,0.00131,0.01155,-0.00407*
1,1,0.00131,-0.01155,-0.00407*
%
%ADD27ROUNDEDRECTD27*%
G04:AMPARAMS|DCode=28|XSize=24.41mil|YSize=9.45mil|CornerRadius=0.65mil|HoleSize=0mil|Usage=FLASHONLY|Rotation=270.000|XOffset=0mil|YOffset=0mil|HoleType=Round|Shape=RoundedRectangle|*
%AMROUNDEDRECTD28*
21,1,0.02441,0.00814,0,0,270.0*
21,1,0.02310,0.00945,0,0,270.0*
1,1,0.00131,-0.00407,-0.01155*
1,1,0.00131,-0.00407,0.01155*
1,1,0.00131,0.00407,0.01155*
1,1,0.00131,0.00407,-0.01155*
%
%ADD28ROUNDEDRECTD28*%
%ADD29R,0.02441X0.09134*%
%ADD30C,0.05915*%
%ADD31R,0.05915X0.05915*%
%ADD32R,0.20945X0.20945*%
D21*
X15157Y-8022D02*
D03*
D22*
X29921Y135630D02*
D03*
Y132087D02*
D03*
X-9449Y135630D02*
D03*
Y132087D02*
D03*
X394Y135630D02*
D03*
Y132087D02*
D03*
X49606Y135630D02*
D03*
Y132087D02*
D03*
X-19291Y135630D02*
D03*
Y132087D02*
D03*
X10236Y135630D02*
D03*
Y132087D02*
D03*
X39764Y135630D02*
D03*
Y132087D02*
D03*
X20079Y135630D02*
D03*
Y132087D02*
D03*
D23*
X5039Y41339D02*
D03*
X1654D02*
D03*
X1654Y45276D02*
D03*
X5039D02*
D03*
X25276Y41339D02*
D03*
X28661D02*
D03*
X1654Y49213D02*
D03*
X5039D02*
D03*
X28661Y45276D02*
D03*
X25276D02*
D03*
X13465Y35433D02*
D03*
X16850D02*
D03*
X5039Y53150D02*
D03*
X1654D02*
D03*
D24*
X39764Y145925D02*
D03*
Y153287D02*
D03*
X10237Y145925D02*
D03*
Y153287D02*
D03*
X20079Y145925D02*
D03*
Y153287D02*
D03*
X49607Y145925D02*
D03*
Y153287D02*
D03*
X-19291Y145925D02*
D03*
Y153287D02*
D03*
X-9448Y145925D02*
D03*
Y153287D02*
D03*
X29922Y145925D02*
D03*
Y153287D02*
D03*
X394Y145925D02*
D03*
Y153287D02*
D03*
D25*
X32264Y66654D02*
D03*
Y63268D02*
D03*
X22264Y66654D02*
D03*
Y63268D02*
D03*
X-21949D02*
D03*
Y66654D02*
D03*
X8051Y63268D02*
D03*
Y66654D02*
D03*
X-1949Y63268D02*
D03*
Y66654D02*
D03*
X-6949D02*
D03*
Y63268D02*
D03*
X47264D02*
D03*
Y66654D02*
D03*
X-16949D02*
D03*
Y63268D02*
D03*
X37264D02*
D03*
Y66654D02*
D03*
X3051D02*
D03*
Y63268D02*
D03*
X-11949D02*
D03*
Y66654D02*
D03*
X27264Y63268D02*
D03*
Y66654D02*
D03*
X52264D02*
D03*
Y63268D02*
D03*
X42264Y66654D02*
D03*
Y63268D02*
D03*
X-26949Y66654D02*
D03*
Y63268D02*
D03*
X57264D02*
D03*
Y66654D02*
D03*
D26*
X47264Y70866D02*
D03*
X42264D02*
D03*
X37264D02*
D03*
X32264D02*
D03*
Y98425D02*
D03*
X37264D02*
D03*
X42264D02*
D03*
X47264D02*
D03*
X52264D02*
D03*
X27264D02*
D03*
Y70866D02*
D03*
X52264D02*
D03*
X57264Y98425D02*
D03*
Y70866D02*
D03*
X22264Y98425D02*
D03*
Y70866D02*
D03*
X-1949D02*
D03*
X-6949D02*
D03*
X-11949D02*
D03*
X-16949D02*
D03*
Y98425D02*
D03*
X-11949D02*
D03*
X-6949D02*
D03*
X-1949D02*
D03*
X3051D02*
D03*
X-21949D02*
D03*
Y70866D02*
D03*
X3051D02*
D03*
X8051Y98425D02*
D03*
Y70866D02*
D03*
X-26949Y98425D02*
D03*
Y70866D02*
D03*
D27*
X17913Y42913D02*
D03*
Y44488D02*
D03*
Y46063D02*
D03*
Y47638D02*
D03*
X12402D02*
D03*
Y46063D02*
D03*
Y44488D02*
D03*
Y42913D02*
D03*
D28*
X17520Y50000D02*
D03*
X15945D02*
D03*
X14370D02*
D03*
X12795D02*
D03*
Y40551D02*
D03*
X14370D02*
D03*
X15945D02*
D03*
X17520D02*
D03*
D29*
X-31299Y-7283D02*
D03*
X-28150D02*
D03*
X-25000D02*
D03*
X-21850D02*
D03*
X-18701D02*
D03*
X-15551D02*
D03*
X-12402D02*
D03*
X-9252D02*
D03*
X6496D02*
D03*
X9646D02*
D03*
X12795D02*
D03*
X15945D02*
D03*
X19094D02*
D03*
X22244D02*
D03*
X25394D02*
D03*
X28543D02*
D03*
X31693D02*
D03*
X34843D02*
D03*
X37992D02*
D03*
X41142D02*
D03*
X44291D02*
D03*
X47441D02*
D03*
X50591D02*
D03*
X53740D02*
D03*
X56890D02*
D03*
X60039D02*
D03*
D30*
X394Y200787D02*
D03*
X10236D02*
D03*
X-29134D02*
D03*
X-9449D02*
D03*
X-19291D02*
D03*
X49606D02*
D03*
X39764D02*
D03*
X29921D02*
D03*
X20079D02*
D03*
D31*
X59449D02*
D03*
D32*
X-32480Y176378D02*
D03*
X62795D02*
D03*
M02*
