G04*
G04 #@! TF.GenerationSoftware,Altium Limited,Altium Designer,24.7.2 (38)*
G04*
G04 Layer_Physical_Order=4*
G04 Layer_Color=16711680*
%FSLAX25Y25*%
%MOIN*%
G70*
G04*
G04 #@! TF.SameCoordinates,4FEF5C06-4E4D-4149-9763-4A6A228635AC*
G04*
G04*
G04 #@! TF.FilePolarity,Positive*
G04*
G01*
G75*
%ADD13R,0.05512X0.02756*%
%ADD14R,0.03937X0.03937*%
%ADD15R,0.03937X0.05906*%
%ADD16R,0.03000X0.03937*%
%ADD17R,0.01850X0.02047*%
%ADD18R,0.03150X0.03937*%
%ADD36R,0.10512X0.09055*%
%ADD37R,0.02362X0.09055*%
%ADD38C,0.01968*%
%ADD39C,0.01181*%
%ADD40C,0.07087*%
G04:AMPARAMS|DCode=41|XSize=70.87mil|YSize=70.87mil|CornerRadius=8.86mil|HoleSize=0mil|Usage=FLASHONLY|Rotation=0.000|XOffset=0mil|YOffset=0mil|HoleType=Round|Shape=RoundedRectangle|*
%AMROUNDEDRECTD41*
21,1,0.07087,0.05315,0,0,0.0*
21,1,0.05315,0.07087,0,0,0.0*
1,1,0.01772,0.02657,-0.02657*
1,1,0.01772,-0.02657,-0.02657*
1,1,0.01772,-0.02657,0.02657*
1,1,0.01772,0.02657,0.02657*
%
%ADD41ROUNDEDRECTD41*%
%ADD42R,0.20866X0.20866*%
%ADD43C,0.01968*%
G36*
X53174Y163378D02*
X53088Y163319D01*
X53013Y163221D01*
X52947Y163083D01*
X52892Y162906D01*
X52846Y162689D01*
X52811Y162433D01*
X52771Y161803D01*
X52766Y161429D01*
X50797D01*
X50792Y161803D01*
X50717Y162689D01*
X50671Y162906D01*
X50616Y163083D01*
X50550Y163221D01*
X50475Y163319D01*
X50389Y163378D01*
X50293Y163398D01*
X53269D01*
X53174Y163378D01*
D02*
G37*
G36*
X22662D02*
X22576Y163319D01*
X22501Y163221D01*
X22435Y163083D01*
X22380Y162906D01*
X22334Y162689D01*
X22299Y162433D01*
X22259Y161803D01*
X22254Y161429D01*
X20285D01*
X20280Y161803D01*
X20205Y162689D01*
X20159Y162906D01*
X20104Y163083D01*
X20039Y163221D01*
X19963Y163319D01*
X19877Y163378D01*
X19782Y163398D01*
X22758D01*
X22662Y163378D01*
D02*
G37*
G36*
X-6866D02*
X-6951Y163319D01*
X-7027Y163221D01*
X-7092Y163083D01*
X-7148Y162906D01*
X-7193Y162689D01*
X-7228Y162433D01*
X-7269Y161803D01*
X-7274Y161429D01*
X-9242D01*
X-9247Y161803D01*
X-9323Y162689D01*
X-9368Y162906D01*
X-9424Y163083D01*
X-9489Y163221D01*
X-9565Y163319D01*
X-9650Y163378D01*
X-9746Y163398D01*
X-6770D01*
X-6866Y163378D01*
D02*
G37*
G36*
X-37377D02*
X-37463Y163319D01*
X-37539Y163221D01*
X-37604Y163083D01*
X-37659Y162906D01*
X-37705Y162689D01*
X-37740Y162433D01*
X-37780Y161803D01*
X-37785Y161429D01*
X-39754D01*
X-39759Y161803D01*
X-39834Y162689D01*
X-39880Y162906D01*
X-39935Y163083D01*
X-40001Y163221D01*
X-40076Y163319D01*
X-40162Y163378D01*
X-40258Y163398D01*
X-37282D01*
X-37377Y163378D01*
D02*
G37*
G36*
X58052Y200787D02*
X36024D01*
Y177559D01*
X58052D01*
Y160500D01*
X54760D01*
Y161342D01*
X54773Y161402D01*
X54773Y161417D01*
X55250D01*
Y163264D01*
X55277Y163398D01*
X55250Y163531D01*
Y169291D01*
X48313D01*
X48175Y169628D01*
Y170276D01*
X42919D01*
Y165354D01*
X42526D01*
Y164961D01*
X36876D01*
Y160500D01*
X32700D01*
Y170648D01*
X32609Y171108D01*
X32309Y171832D01*
X32048Y172222D01*
X31494Y172776D01*
X31104Y173037D01*
X30380Y173337D01*
X29919Y173429D01*
X29136D01*
X28675Y173337D01*
X27952Y173037D01*
X27561Y172776D01*
X27007Y172222D01*
X26746Y171832D01*
X26447Y171108D01*
X26355Y170648D01*
Y160500D01*
X24248D01*
Y161342D01*
X24261Y161402D01*
X24261Y161417D01*
X24738D01*
Y163264D01*
X24765Y163398D01*
X24738Y163531D01*
Y169291D01*
X17801D01*
X17663Y169628D01*
Y170276D01*
X12408D01*
Y165354D01*
X12014D01*
Y164961D01*
X6364D01*
Y160500D01*
X3173D01*
Y170167D01*
X3081Y170628D01*
X2781Y171352D01*
X2520Y171742D01*
X1967Y172296D01*
X1576Y172557D01*
X852Y172857D01*
X392Y172948D01*
X-392D01*
X-852Y172857D01*
X-1576Y172557D01*
X-1967Y172296D01*
X-2520Y171742D01*
X-2781Y171352D01*
X-3081Y170628D01*
X-3173Y170167D01*
Y160500D01*
X-5280D01*
Y161342D01*
X-5267Y161402D01*
X-5266Y161417D01*
X-4789D01*
Y163264D01*
X-4763Y163398D01*
X-4789Y163531D01*
Y169291D01*
X-11726D01*
X-11864Y169628D01*
Y170276D01*
X-17120D01*
Y165354D01*
X-17514D01*
Y164961D01*
X-23163D01*
Y160500D01*
X-26355D01*
Y170667D01*
X-26447Y171128D01*
X-26746Y171852D01*
X-27007Y172242D01*
X-27561Y172796D01*
X-27952Y173057D01*
X-28675Y173357D01*
X-29136Y173448D01*
X-29919D01*
X-30380Y173357D01*
X-31104Y173057D01*
X-31494Y172796D01*
X-32048Y172242D01*
X-32309Y171852D01*
X-32609Y171128D01*
X-32700Y170667D01*
Y160500D01*
X-35791D01*
Y161342D01*
X-35778Y161402D01*
X-35778Y161417D01*
X-35301D01*
Y163264D01*
X-35275Y163398D01*
X-35301Y163531D01*
Y169291D01*
X-42238D01*
X-42376Y169628D01*
Y170276D01*
X-47632D01*
Y165354D01*
X-48026D01*
Y164961D01*
X-53675D01*
Y160500D01*
X-58052D01*
Y177559D01*
X-36024D01*
Y200787D01*
X-58052D01*
Y232264D01*
X58052D01*
Y200787D01*
D02*
G37*
G36*
X42057Y160819D02*
X41890Y160760D01*
X41742Y160662D01*
X41614Y160524D01*
X41506Y160347D01*
X41417Y160130D01*
X41348Y159874D01*
X41299Y159579D01*
X41270Y159244D01*
X41267Y159152D01*
X41270Y159063D01*
X41299Y158728D01*
X41347Y158433D01*
X41415Y158177D01*
X41503Y157960D01*
X41610Y157783D01*
X41736Y157645D01*
X41882Y157547D01*
X42047Y157488D01*
X42232Y157468D01*
X38319D01*
X38504Y157488D01*
X38669Y157547D01*
X38815Y157645D01*
X38941Y157783D01*
X39048Y157960D01*
X39136Y158177D01*
X39204Y158433D01*
X39252Y158728D01*
X39282Y159063D01*
X39284Y159152D01*
X39281Y159244D01*
X39252Y159579D01*
X39203Y159874D01*
X39134Y160130D01*
X39045Y160347D01*
X38937Y160524D01*
X38809Y160662D01*
X38661Y160760D01*
X38494Y160819D01*
X38307Y160839D01*
X42244D01*
X42057Y160819D01*
D02*
G37*
G36*
X11545D02*
X11378Y160760D01*
X11230Y160662D01*
X11102Y160524D01*
X10994Y160347D01*
X10905Y160130D01*
X10837Y159874D01*
X10787Y159579D01*
X10758Y159244D01*
X10755Y159152D01*
X10758Y159063D01*
X10787Y158728D01*
X10836Y158433D01*
X10904Y158177D01*
X10991Y157960D01*
X11098Y157783D01*
X11224Y157645D01*
X11370Y157547D01*
X11536Y157488D01*
X11720Y157468D01*
X7807D01*
X7992Y157488D01*
X8157Y157547D01*
X8303Y157645D01*
X8429Y157783D01*
X8536Y157960D01*
X8624Y158177D01*
X8692Y158433D01*
X8741Y158728D01*
X8770Y159063D01*
X8772Y159152D01*
X8770Y159244D01*
X8740Y159579D01*
X8691Y159874D01*
X8622Y160130D01*
X8534Y160347D01*
X8425Y160524D01*
X8297Y160662D01*
X8150Y160760D01*
X7982Y160819D01*
X7795Y160839D01*
X11732D01*
X11545Y160819D01*
D02*
G37*
G36*
X-17982D02*
X-18150Y160760D01*
X-18297Y160662D01*
X-18425Y160524D01*
X-18533Y160347D01*
X-18622Y160130D01*
X-18691Y159874D01*
X-18740Y159579D01*
X-18770Y159244D01*
X-18772Y159152D01*
X-18770Y159063D01*
X-18741Y158728D01*
X-18692Y158433D01*
X-18624Y158177D01*
X-18537Y157960D01*
X-18429Y157783D01*
X-18303Y157645D01*
X-18157Y157547D01*
X-17992Y157488D01*
X-17807Y157468D01*
X-21720D01*
X-21536Y157488D01*
X-21370Y157547D01*
X-21224Y157645D01*
X-21098Y157783D01*
X-20991Y157960D01*
X-20904Y158177D01*
X-20835Y158433D01*
X-20787Y158728D01*
X-20758Y159063D01*
X-20755Y159152D01*
X-20758Y159244D01*
X-20787Y159579D01*
X-20837Y159874D01*
X-20906Y160130D01*
X-20994Y160347D01*
X-21102Y160524D01*
X-21230Y160662D01*
X-21378Y160760D01*
X-21545Y160819D01*
X-21732Y160839D01*
X-17795D01*
X-17982Y160819D01*
D02*
G37*
G36*
X-48494D02*
X-48661Y160760D01*
X-48809Y160662D01*
X-48937Y160524D01*
X-49045Y160347D01*
X-49134Y160130D01*
X-49203Y159874D01*
X-49252Y159579D01*
X-49281Y159244D01*
X-49284Y159152D01*
X-49282Y159063D01*
X-49252Y158728D01*
X-49204Y158433D01*
X-49136Y158177D01*
X-49048Y157960D01*
X-48941Y157783D01*
X-48815Y157645D01*
X-48669Y157547D01*
X-48504Y157488D01*
X-48319Y157468D01*
X-52232D01*
X-52047Y157488D01*
X-51882Y157547D01*
X-51736Y157645D01*
X-51610Y157783D01*
X-51503Y157960D01*
X-51415Y158177D01*
X-51347Y158433D01*
X-51299Y158728D01*
X-51270Y159063D01*
X-51267Y159152D01*
X-51270Y159244D01*
X-51299Y159579D01*
X-51348Y159874D01*
X-51417Y160130D01*
X-51506Y160347D01*
X-51614Y160524D01*
X-51742Y160662D01*
X-51890Y160760D01*
X-52057Y160819D01*
X-52244Y160839D01*
X-48307D01*
X-48494Y160819D01*
D02*
G37*
G36*
X52037Y158709D02*
X52106Y157713D01*
X52132Y157606D01*
X52161Y157530D01*
X52195Y157484D01*
X52232Y157468D01*
X49520Y157456D01*
X49624Y157472D01*
X49717Y157519D01*
X49799Y157596D01*
X49870Y157704D01*
X49930Y157843D01*
X49979Y158013D01*
X50018Y158214D01*
X50045Y158445D01*
X50062Y158707D01*
X50067Y159000D01*
X52035D01*
X52037Y158709D01*
D02*
G37*
G36*
X21526D02*
X21594Y157713D01*
X21620Y157606D01*
X21650Y157530D01*
X21683Y157484D01*
X21720Y157468D01*
X19008Y157456D01*
X19112Y157472D01*
X19205Y157519D01*
X19287Y157596D01*
X19358Y157704D01*
X19418Y157843D01*
X19467Y158013D01*
X19506Y158214D01*
X19533Y158445D01*
X19550Y158707D01*
X19555Y159000D01*
X21524D01*
X21526Y158709D01*
D02*
G37*
G36*
X-8002D02*
X-7933Y157713D01*
X-7908Y157606D01*
X-7878Y157530D01*
X-7845Y157484D01*
X-7807Y157468D01*
X-10520Y157456D01*
X-10416Y157472D01*
X-10323Y157519D01*
X-10241Y157596D01*
X-10170Y157704D01*
X-10109Y157843D01*
X-10060Y158013D01*
X-10022Y158214D01*
X-9994Y158445D01*
X-9978Y158707D01*
X-9972Y159000D01*
X-8004D01*
X-8002Y158709D01*
D02*
G37*
G36*
X-38514D02*
X-38445Y157713D01*
X-38419Y157606D01*
X-38390Y157530D01*
X-38357Y157484D01*
X-38319Y157468D01*
X-41032Y157456D01*
X-40928Y157472D01*
X-40835Y157519D01*
X-40753Y157596D01*
X-40681Y157704D01*
X-40621Y157843D01*
X-40572Y158013D01*
X-40534Y158214D01*
X-40506Y158445D01*
X-40490Y158707D01*
X-40484Y159000D01*
X-38516D01*
X-38514Y158709D01*
D02*
G37*
G36*
X52047Y151567D02*
X51882Y151508D01*
X51736Y151410D01*
X51610Y151272D01*
X51503Y151095D01*
X51415Y150878D01*
X51347Y150622D01*
X51299Y150327D01*
X51270Y149992D01*
X51260Y149618D01*
X49291D01*
X49282Y149992D01*
X49252Y150327D01*
X49204Y150622D01*
X49136Y150878D01*
X49048Y151095D01*
X48941Y151272D01*
X48815Y151410D01*
X48669Y151508D01*
X48504Y151567D01*
X48319Y151587D01*
X52232D01*
X52047Y151567D01*
D02*
G37*
G36*
X21536D02*
X21370Y151508D01*
X21224Y151410D01*
X21098Y151272D01*
X20991Y151095D01*
X20904Y150878D01*
X20835Y150622D01*
X20787Y150327D01*
X20758Y149992D01*
X20748Y149618D01*
X18779D01*
X18770Y149992D01*
X18741Y150327D01*
X18692Y150622D01*
X18624Y150878D01*
X18537Y151095D01*
X18429Y151272D01*
X18303Y151410D01*
X18157Y151508D01*
X17992Y151567D01*
X17807Y151587D01*
X21720D01*
X21536Y151567D01*
D02*
G37*
G36*
X-7992D02*
X-8157Y151508D01*
X-8303Y151410D01*
X-8429Y151272D01*
X-8536Y151095D01*
X-8624Y150878D01*
X-8692Y150622D01*
X-8741Y150327D01*
X-8770Y149992D01*
X-8779Y149618D01*
X-10748D01*
X-10758Y149992D01*
X-10787Y150327D01*
X-10836Y150622D01*
X-10904Y150878D01*
X-10991Y151095D01*
X-11098Y151272D01*
X-11224Y151410D01*
X-11370Y151508D01*
X-11536Y151567D01*
X-11720Y151587D01*
X-7807D01*
X-7992Y151567D01*
D02*
G37*
G36*
X-38504D02*
X-38669Y151508D01*
X-38815Y151410D01*
X-38941Y151272D01*
X-39048Y151095D01*
X-39136Y150878D01*
X-39204Y150622D01*
X-39252Y150327D01*
X-39282Y149992D01*
X-39291Y149618D01*
X-41260D01*
X-41270Y149992D01*
X-41299Y150327D01*
X-41347Y150622D01*
X-41415Y150878D01*
X-41503Y151095D01*
X-41610Y151272D01*
X-41736Y151410D01*
X-41882Y151508D01*
X-42047Y151567D01*
X-42232Y151587D01*
X-38319D01*
X-38504Y151567D01*
D02*
G37*
G36*
X52047Y125977D02*
X51882Y125917D01*
X51736Y125819D01*
X51610Y125681D01*
X51503Y125504D01*
X51415Y125288D01*
X51347Y125032D01*
X51299Y124736D01*
X51285Y124577D01*
X51299Y124413D01*
X51348Y124116D01*
X51417Y123858D01*
X51506Y123640D01*
X51614Y123462D01*
X51742Y123324D01*
X51890Y123224D01*
X52057Y123165D01*
X52244Y123145D01*
X48307D01*
X48494Y123165D01*
X48661Y123224D01*
X48809Y123324D01*
X48937Y123462D01*
X49045Y123640D01*
X49134Y123858D01*
X49203Y124116D01*
X49252Y124413D01*
X49266Y124577D01*
X49253Y124736D01*
X49204Y125032D01*
X49136Y125288D01*
X49048Y125504D01*
X48941Y125681D01*
X48815Y125819D01*
X48669Y125917D01*
X48504Y125977D01*
X48319Y125996D01*
X52232D01*
X52047Y125977D01*
D02*
G37*
G36*
X42047D02*
X41882Y125917D01*
X41736Y125819D01*
X41610Y125681D01*
X41503Y125504D01*
X41415Y125288D01*
X41347Y125032D01*
X41299Y124736D01*
X41285Y124577D01*
X41299Y124413D01*
X41348Y124116D01*
X41417Y123858D01*
X41506Y123640D01*
X41614Y123462D01*
X41742Y123324D01*
X41890Y123224D01*
X42057Y123165D01*
X42244Y123145D01*
X38307D01*
X38494Y123165D01*
X38661Y123224D01*
X38809Y123324D01*
X38937Y123462D01*
X39045Y123640D01*
X39134Y123858D01*
X39203Y124116D01*
X39252Y124413D01*
X39266Y124577D01*
X39252Y124736D01*
X39204Y125032D01*
X39136Y125288D01*
X39048Y125504D01*
X38941Y125681D01*
X38815Y125819D01*
X38669Y125917D01*
X38504Y125977D01*
X38319Y125996D01*
X42232D01*
X42047Y125977D01*
D02*
G37*
G36*
X21536D02*
X21370Y125917D01*
X21224Y125819D01*
X21098Y125681D01*
X20991Y125504D01*
X20904Y125288D01*
X20835Y125032D01*
X20787Y124736D01*
X20773Y124577D01*
X20787Y124413D01*
X20837Y124116D01*
X20906Y123858D01*
X20994Y123640D01*
X21102Y123462D01*
X21230Y123324D01*
X21378Y123224D01*
X21545Y123165D01*
X21732Y123145D01*
X17795D01*
X17982Y123165D01*
X18150Y123224D01*
X18297Y123324D01*
X18425Y123462D01*
X18533Y123640D01*
X18622Y123858D01*
X18691Y124116D01*
X18740Y124413D01*
X18755Y124577D01*
X18741Y124736D01*
X18692Y125032D01*
X18624Y125288D01*
X18537Y125504D01*
X18429Y125681D01*
X18303Y125819D01*
X18157Y125917D01*
X17992Y125977D01*
X17807Y125996D01*
X21720D01*
X21536Y125977D01*
D02*
G37*
G36*
X11536D02*
X11370Y125917D01*
X11224Y125819D01*
X11098Y125681D01*
X10991Y125504D01*
X10904Y125288D01*
X10836Y125032D01*
X10787Y124736D01*
X10773Y124577D01*
X10787Y124413D01*
X10837Y124116D01*
X10905Y123858D01*
X10994Y123640D01*
X11102Y123462D01*
X11230Y123324D01*
X11378Y123224D01*
X11545Y123165D01*
X11732Y123145D01*
X7795D01*
X7982Y123165D01*
X8150Y123224D01*
X8297Y123324D01*
X8425Y123462D01*
X8534Y123640D01*
X8622Y123858D01*
X8691Y124116D01*
X8740Y124413D01*
X8755Y124577D01*
X8741Y124736D01*
X8692Y125032D01*
X8624Y125288D01*
X8536Y125504D01*
X8429Y125681D01*
X8303Y125819D01*
X8157Y125917D01*
X7992Y125977D01*
X7807Y125996D01*
X11720D01*
X11536Y125977D01*
D02*
G37*
G36*
X-7992D02*
X-8157Y125917D01*
X-8303Y125819D01*
X-8429Y125681D01*
X-8536Y125504D01*
X-8624Y125288D01*
X-8692Y125032D01*
X-8741Y124736D01*
X-8755Y124577D01*
X-8740Y124413D01*
X-8691Y124116D01*
X-8622Y123858D01*
X-8534Y123640D01*
X-8425Y123462D01*
X-8297Y123324D01*
X-8150Y123224D01*
X-7982Y123165D01*
X-7795Y123145D01*
X-11732D01*
X-11545Y123165D01*
X-11378Y123224D01*
X-11230Y123324D01*
X-11102Y123462D01*
X-10994Y123640D01*
X-10905Y123858D01*
X-10837Y124116D01*
X-10787Y124413D01*
X-10773Y124577D01*
X-10787Y124736D01*
X-10836Y125032D01*
X-10904Y125288D01*
X-10991Y125504D01*
X-11098Y125681D01*
X-11224Y125819D01*
X-11370Y125917D01*
X-11536Y125977D01*
X-11720Y125996D01*
X-7807D01*
X-7992Y125977D01*
D02*
G37*
G36*
X-17992D02*
X-18157Y125917D01*
X-18303Y125819D01*
X-18429Y125681D01*
X-18537Y125504D01*
X-18624Y125288D01*
X-18692Y125032D01*
X-18741Y124736D01*
X-18755Y124577D01*
X-18740Y124413D01*
X-18691Y124116D01*
X-18622Y123858D01*
X-18533Y123640D01*
X-18425Y123462D01*
X-18297Y123324D01*
X-18150Y123224D01*
X-17982Y123165D01*
X-17795Y123145D01*
X-21732D01*
X-21545Y123165D01*
X-21378Y123224D01*
X-21230Y123324D01*
X-21102Y123462D01*
X-20994Y123640D01*
X-20906Y123858D01*
X-20837Y124116D01*
X-20787Y124413D01*
X-20773Y124577D01*
X-20787Y124736D01*
X-20835Y125032D01*
X-20904Y125288D01*
X-20991Y125504D01*
X-21098Y125681D01*
X-21224Y125819D01*
X-21370Y125917D01*
X-21536Y125977D01*
X-21720Y125996D01*
X-17807D01*
X-17992Y125977D01*
D02*
G37*
G36*
X-38504D02*
X-38669Y125917D01*
X-38815Y125819D01*
X-38941Y125681D01*
X-39048Y125504D01*
X-39136Y125288D01*
X-39204Y125032D01*
X-39252Y124736D01*
X-39266Y124577D01*
X-39252Y124413D01*
X-39203Y124116D01*
X-39134Y123858D01*
X-39045Y123640D01*
X-38937Y123462D01*
X-38809Y123324D01*
X-38661Y123224D01*
X-38494Y123165D01*
X-38307Y123145D01*
X-42244D01*
X-42057Y123165D01*
X-41890Y123224D01*
X-41742Y123324D01*
X-41614Y123462D01*
X-41506Y123640D01*
X-41417Y123858D01*
X-41348Y124116D01*
X-41299Y124413D01*
X-41285Y124577D01*
X-41299Y124736D01*
X-41347Y125032D01*
X-41415Y125288D01*
X-41503Y125504D01*
X-41610Y125681D01*
X-41736Y125819D01*
X-41882Y125917D01*
X-42047Y125977D01*
X-42232Y125996D01*
X-38319D01*
X-38504Y125977D01*
D02*
G37*
G36*
X-48504D02*
X-48669Y125917D01*
X-48815Y125819D01*
X-48941Y125681D01*
X-49048Y125504D01*
X-49136Y125288D01*
X-49204Y125032D01*
X-49252Y124736D01*
X-49266Y124577D01*
X-49252Y124413D01*
X-49203Y124116D01*
X-49134Y123858D01*
X-49045Y123640D01*
X-48937Y123462D01*
X-48809Y123324D01*
X-48661Y123224D01*
X-48494Y123165D01*
X-48307Y123145D01*
X-52244D01*
X-52057Y123165D01*
X-51890Y123224D01*
X-51742Y123324D01*
X-51614Y123462D01*
X-51506Y123640D01*
X-51417Y123858D01*
X-51348Y124116D01*
X-51299Y124413D01*
X-51285Y124577D01*
X-51299Y124736D01*
X-51347Y125032D01*
X-51415Y125288D01*
X-51503Y125504D01*
X-51610Y125681D01*
X-51736Y125819D01*
X-51882Y125917D01*
X-52047Y125977D01*
X-52232Y125996D01*
X-48319D01*
X-48504Y125977D01*
D02*
G37*
G36*
X51266Y113075D02*
X52244D01*
X52057Y113055D01*
X51890Y112996D01*
X51742Y112897D01*
X51614Y112758D01*
X51506Y112580D01*
X51417Y112362D01*
X51375Y112205D01*
X51417Y112047D01*
X51506Y111829D01*
X51614Y111651D01*
X51742Y111512D01*
X51890Y111414D01*
X52057Y111354D01*
X52244Y111334D01*
X51266D01*
X51260Y111095D01*
X49291D01*
X49285Y111334D01*
X48307D01*
X48494Y111354D01*
X48661Y111414D01*
X48809Y111512D01*
X48937Y111651D01*
X49045Y111829D01*
X49134Y112047D01*
X49176Y112205D01*
X49134Y112362D01*
X49045Y112580D01*
X48937Y112758D01*
X48809Y112897D01*
X48661Y112996D01*
X48494Y113055D01*
X48307Y113075D01*
X49285D01*
X49291Y113315D01*
X51260D01*
X51266Y113075D01*
D02*
G37*
G36*
X41266D02*
X42244D01*
X42057Y113055D01*
X41890Y112996D01*
X41742Y112897D01*
X41614Y112758D01*
X41506Y112580D01*
X41417Y112362D01*
X41375Y112205D01*
X41417Y112047D01*
X41506Y111829D01*
X41614Y111651D01*
X41742Y111512D01*
X41890Y111414D01*
X42057Y111354D01*
X42244Y111334D01*
X41266D01*
X41260Y111095D01*
X39291D01*
X39285Y111334D01*
X38307D01*
X38494Y111354D01*
X38661Y111414D01*
X38809Y111512D01*
X38937Y111651D01*
X39045Y111829D01*
X39134Y112047D01*
X39176Y112205D01*
X39134Y112362D01*
X39045Y112580D01*
X38937Y112758D01*
X38809Y112897D01*
X38661Y112996D01*
X38494Y113055D01*
X38307Y113075D01*
X39285D01*
X39291Y113315D01*
X41260D01*
X41266Y113075D01*
D02*
G37*
G36*
X20754D02*
X21732D01*
X21545Y113055D01*
X21378Y112996D01*
X21230Y112897D01*
X21102Y112758D01*
X20994Y112580D01*
X20906Y112362D01*
X20863Y112205D01*
X20906Y112047D01*
X20994Y111829D01*
X21102Y111651D01*
X21230Y111512D01*
X21378Y111414D01*
X21545Y111354D01*
X21732Y111334D01*
X20754D01*
X20748Y111095D01*
X18779D01*
X18773Y111334D01*
X17795D01*
X17982Y111354D01*
X18150Y111414D01*
X18297Y111512D01*
X18425Y111651D01*
X18533Y111829D01*
X18622Y112047D01*
X18664Y112205D01*
X18622Y112362D01*
X18533Y112580D01*
X18425Y112758D01*
X18297Y112897D01*
X18150Y112996D01*
X17982Y113055D01*
X17795Y113075D01*
X18773D01*
X18779Y113315D01*
X20748D01*
X20754Y113075D01*
D02*
G37*
G36*
X10754D02*
X11732D01*
X11545Y113055D01*
X11378Y112996D01*
X11230Y112897D01*
X11102Y112758D01*
X10994Y112580D01*
X10905Y112362D01*
X10863Y112205D01*
X10905Y112047D01*
X10994Y111829D01*
X11102Y111651D01*
X11230Y111512D01*
X11378Y111414D01*
X11545Y111354D01*
X11732Y111334D01*
X10754D01*
X10748Y111095D01*
X8779D01*
X8773Y111334D01*
X7795D01*
X7982Y111354D01*
X8150Y111414D01*
X8297Y111512D01*
X8425Y111651D01*
X8534Y111829D01*
X8622Y112047D01*
X8664Y112205D01*
X8622Y112362D01*
X8534Y112580D01*
X8425Y112758D01*
X8297Y112897D01*
X8150Y112996D01*
X7982Y113055D01*
X7795Y113075D01*
X8773D01*
X8779Y113315D01*
X10748D01*
X10754Y113075D01*
D02*
G37*
G36*
X-8773D02*
X-7795D01*
X-7982Y113055D01*
X-8150Y112996D01*
X-8297Y112897D01*
X-8425Y112758D01*
X-8534Y112580D01*
X-8622Y112362D01*
X-8664Y112205D01*
X-8622Y112047D01*
X-8534Y111829D01*
X-8425Y111651D01*
X-8297Y111512D01*
X-8150Y111414D01*
X-7982Y111354D01*
X-7795Y111334D01*
X-8773D01*
X-8779Y111095D01*
X-10748D01*
X-10754Y111334D01*
X-11732D01*
X-11545Y111354D01*
X-11378Y111414D01*
X-11230Y111512D01*
X-11102Y111651D01*
X-10994Y111829D01*
X-10905Y112047D01*
X-10863Y112205D01*
X-10905Y112362D01*
X-10994Y112580D01*
X-11102Y112758D01*
X-11230Y112897D01*
X-11378Y112996D01*
X-11545Y113055D01*
X-11732Y113075D01*
X-10754D01*
X-10748Y113315D01*
X-8779D01*
X-8773Y113075D01*
D02*
G37*
G36*
X-18773D02*
X-17795D01*
X-17982Y113055D01*
X-18150Y112996D01*
X-18297Y112897D01*
X-18425Y112758D01*
X-18533Y112580D01*
X-18622Y112362D01*
X-18664Y112205D01*
X-18622Y112047D01*
X-18533Y111829D01*
X-18425Y111651D01*
X-18297Y111512D01*
X-18150Y111414D01*
X-17982Y111354D01*
X-17795Y111334D01*
X-18773D01*
X-18779Y111095D01*
X-20748D01*
X-20754Y111334D01*
X-21732D01*
X-21545Y111354D01*
X-21378Y111414D01*
X-21230Y111512D01*
X-21102Y111651D01*
X-20994Y111829D01*
X-20906Y112047D01*
X-20863Y112205D01*
X-20906Y112362D01*
X-20994Y112580D01*
X-21102Y112758D01*
X-21230Y112897D01*
X-21378Y112996D01*
X-21545Y113055D01*
X-21732Y113075D01*
X-20754D01*
X-20748Y113315D01*
X-18779D01*
X-18773Y113075D01*
D02*
G37*
G36*
X-39285D02*
X-38307D01*
X-38494Y113055D01*
X-38661Y112996D01*
X-38809Y112897D01*
X-38937Y112758D01*
X-39045Y112580D01*
X-39134Y112362D01*
X-39176Y112205D01*
X-39134Y112047D01*
X-39045Y111829D01*
X-38937Y111651D01*
X-38809Y111512D01*
X-38661Y111414D01*
X-38494Y111354D01*
X-38307Y111334D01*
X-39285D01*
X-39291Y111095D01*
X-41260D01*
X-41266Y111334D01*
X-42244D01*
X-42057Y111354D01*
X-41890Y111414D01*
X-41742Y111512D01*
X-41614Y111651D01*
X-41506Y111829D01*
X-41417Y112047D01*
X-41375Y112205D01*
X-41417Y112362D01*
X-41506Y112580D01*
X-41614Y112758D01*
X-41742Y112897D01*
X-41890Y112996D01*
X-42057Y113055D01*
X-42244Y113075D01*
X-41266D01*
X-41260Y113315D01*
X-39291D01*
X-39285Y113075D01*
D02*
G37*
G36*
X-49285D02*
X-48307D01*
X-48494Y113055D01*
X-48661Y112996D01*
X-48809Y112897D01*
X-48937Y112758D01*
X-49045Y112580D01*
X-49134Y112362D01*
X-49176Y112205D01*
X-49134Y112047D01*
X-49045Y111829D01*
X-48937Y111651D01*
X-48809Y111512D01*
X-48661Y111414D01*
X-48494Y111354D01*
X-48307Y111334D01*
X-49285D01*
X-49291Y111095D01*
X-51260D01*
X-51266Y111334D01*
X-52244D01*
X-52057Y111354D01*
X-51890Y111414D01*
X-51742Y111512D01*
X-51614Y111651D01*
X-51506Y111829D01*
X-51417Y112047D01*
X-51375Y112205D01*
X-51417Y112362D01*
X-51506Y112580D01*
X-51614Y112758D01*
X-51742Y112897D01*
X-51890Y112996D01*
X-52057Y113055D01*
X-52244Y113075D01*
X-51266D01*
X-51260Y113315D01*
X-49291D01*
X-49285Y113075D01*
D02*
G37*
G36*
X52569Y101244D02*
X52402Y101185D01*
X52254Y101086D01*
X52126Y100947D01*
X52018Y100769D01*
X51929Y100551D01*
X51860Y100294D01*
X51811Y99997D01*
X51781Y99660D01*
X51772Y99284D01*
X49803D01*
X49793Y99660D01*
X49764Y99997D01*
X49715Y100294D01*
X49646Y100551D01*
X49557Y100769D01*
X49449Y100947D01*
X49321Y101086D01*
X49173Y101185D01*
X49006Y101244D01*
X48819Y101264D01*
X52756D01*
X52569Y101244D01*
D02*
G37*
G36*
X41545D02*
X41378Y101185D01*
X41230Y101086D01*
X41102Y100947D01*
X40994Y100769D01*
X40905Y100551D01*
X40837Y100294D01*
X40787Y99997D01*
X40758Y99660D01*
X40748Y99284D01*
X38780D01*
X38770Y99660D01*
X38740Y99997D01*
X38691Y100294D01*
X38622Y100551D01*
X38533Y100769D01*
X38425Y100947D01*
X38297Y101086D01*
X38150Y101185D01*
X37982Y101244D01*
X37795Y101264D01*
X41732D01*
X41545Y101244D01*
D02*
G37*
G36*
X22057D02*
X21890Y101185D01*
X21742Y101086D01*
X21614Y100947D01*
X21506Y100769D01*
X21417Y100551D01*
X21348Y100294D01*
X21299Y99997D01*
X21270Y99660D01*
X21260Y99284D01*
X19291D01*
X19282Y99660D01*
X19252Y99997D01*
X19203Y100294D01*
X19134Y100551D01*
X19045Y100769D01*
X18937Y100947D01*
X18809Y101086D01*
X18661Y101185D01*
X18494Y101244D01*
X18307Y101264D01*
X22244D01*
X22057Y101244D01*
D02*
G37*
G36*
X11033D02*
X10866Y101185D01*
X10718Y101086D01*
X10591Y100947D01*
X10482Y100769D01*
X10394Y100551D01*
X10325Y100294D01*
X10276Y99997D01*
X10246Y99660D01*
X10236Y99284D01*
X8268D01*
X8258Y99660D01*
X8228Y99997D01*
X8179Y100294D01*
X8110Y100551D01*
X8022Y100769D01*
X7913Y100947D01*
X7785Y101086D01*
X7638Y101185D01*
X7470Y101244D01*
X7283Y101264D01*
X11220D01*
X11033Y101244D01*
D02*
G37*
G36*
X-7470D02*
X-7638Y101185D01*
X-7785Y101086D01*
X-7913Y100947D01*
X-8022Y100769D01*
X-8110Y100551D01*
X-8179Y100294D01*
X-8228Y99997D01*
X-8258Y99660D01*
X-8268Y99284D01*
X-10236D01*
X-10246Y99660D01*
X-10276Y99997D01*
X-10325Y100294D01*
X-10394Y100551D01*
X-10482Y100769D01*
X-10591Y100947D01*
X-10718Y101086D01*
X-10866Y101185D01*
X-11033Y101244D01*
X-11220Y101264D01*
X-7283D01*
X-7470Y101244D01*
D02*
G37*
G36*
X-18494D02*
X-18661Y101185D01*
X-18809Y101086D01*
X-18937Y100947D01*
X-19045Y100769D01*
X-19134Y100551D01*
X-19203Y100294D01*
X-19252Y99997D01*
X-19282Y99660D01*
X-19291Y99284D01*
X-21260D01*
X-21270Y99660D01*
X-21299Y99997D01*
X-21348Y100294D01*
X-21417Y100551D01*
X-21506Y100769D01*
X-21614Y100947D01*
X-21742Y101086D01*
X-21890Y101185D01*
X-22057Y101244D01*
X-22244Y101264D01*
X-18307D01*
X-18494Y101244D01*
D02*
G37*
G36*
X-37982D02*
X-38150Y101185D01*
X-38297Y101086D01*
X-38425Y100947D01*
X-38533Y100769D01*
X-38622Y100551D01*
X-38691Y100294D01*
X-38740Y99997D01*
X-38770Y99660D01*
X-38780Y99284D01*
X-40748D01*
X-40758Y99660D01*
X-40787Y99997D01*
X-40837Y100294D01*
X-40905Y100551D01*
X-40994Y100769D01*
X-41102Y100947D01*
X-41230Y101086D01*
X-41378Y101185D01*
X-41545Y101244D01*
X-41732Y101264D01*
X-37795D01*
X-37982Y101244D01*
D02*
G37*
G36*
X-49006D02*
X-49173Y101185D01*
X-49321Y101086D01*
X-49449Y100947D01*
X-49557Y100769D01*
X-49646Y100551D01*
X-49715Y100294D01*
X-49764Y99997D01*
X-49793Y99660D01*
X-49803Y99284D01*
X-51772D01*
X-51781Y99660D01*
X-51811Y99997D01*
X-51860Y100294D01*
X-51929Y100551D01*
X-52018Y100769D01*
X-52126Y100947D01*
X-52254Y101086D01*
X-52402Y101185D01*
X-52569Y101244D01*
X-52756Y101264D01*
X-48819D01*
X-49006Y101244D01*
D02*
G37*
G36*
X51781Y98039D02*
X51810Y97704D01*
X51859Y97409D01*
X51927Y97153D01*
X52015Y96937D01*
X52122Y96760D01*
X52248Y96622D01*
X52394Y96523D01*
X52559Y96464D01*
X52744Y96445D01*
X48831D01*
X49016Y96464D01*
X49181Y96523D01*
X49327Y96622D01*
X49453Y96760D01*
X49560Y96937D01*
X49648Y97153D01*
X49716Y97409D01*
X49764Y97704D01*
X49793Y98039D01*
X49803Y98413D01*
X51772D01*
X51781Y98039D01*
D02*
G37*
G36*
X40758D02*
X40787Y97704D01*
X40835Y97409D01*
X40904Y97153D01*
X40991Y96937D01*
X41098Y96760D01*
X41224Y96622D01*
X41370Y96523D01*
X41536Y96464D01*
X41720Y96445D01*
X37807D01*
X37992Y96464D01*
X38157Y96523D01*
X38303Y96622D01*
X38429Y96760D01*
X38537Y96937D01*
X38624Y97153D01*
X38692Y97409D01*
X38741Y97704D01*
X38770Y98039D01*
X38780Y98413D01*
X40748D01*
X40758Y98039D01*
D02*
G37*
G36*
X21270D02*
X21299Y97704D01*
X21347Y97409D01*
X21415Y97153D01*
X21503Y96937D01*
X21610Y96760D01*
X21736Y96622D01*
X21882Y96523D01*
X22047Y96464D01*
X22232Y96445D01*
X18319D01*
X18504Y96464D01*
X18669Y96523D01*
X18815Y96622D01*
X18941Y96760D01*
X19048Y96937D01*
X19136Y97153D01*
X19204Y97409D01*
X19252Y97704D01*
X19282Y98039D01*
X19291Y98413D01*
X21260D01*
X21270Y98039D01*
D02*
G37*
G36*
X10246D02*
X10275Y97704D01*
X10324Y97409D01*
X10392Y97153D01*
X10479Y96937D01*
X10586Y96760D01*
X10713Y96622D01*
X10859Y96523D01*
X11024Y96464D01*
X11208Y96445D01*
X7295D01*
X7480Y96464D01*
X7645Y96523D01*
X7791Y96622D01*
X7918Y96760D01*
X8025Y96937D01*
X8112Y97153D01*
X8180Y97409D01*
X8229Y97704D01*
X8258Y98039D01*
X8268Y98413D01*
X10236D01*
X10246Y98039D01*
D02*
G37*
G36*
X-8258D02*
X-8229Y97704D01*
X-8180Y97409D01*
X-8112Y97153D01*
X-8025Y96937D01*
X-7918Y96760D01*
X-7791Y96622D01*
X-7645Y96523D01*
X-7480Y96464D01*
X-7295Y96445D01*
X-11208D01*
X-11024Y96464D01*
X-10859Y96523D01*
X-10713Y96622D01*
X-10586Y96760D01*
X-10479Y96937D01*
X-10392Y97153D01*
X-10324Y97409D01*
X-10275Y97704D01*
X-10246Y98039D01*
X-10236Y98413D01*
X-8268D01*
X-8258Y98039D01*
D02*
G37*
G36*
X-19282D02*
X-19252Y97704D01*
X-19204Y97409D01*
X-19136Y97153D01*
X-19048Y96937D01*
X-18941Y96760D01*
X-18815Y96622D01*
X-18669Y96523D01*
X-18504Y96464D01*
X-18319Y96445D01*
X-22232D01*
X-22047Y96464D01*
X-21882Y96523D01*
X-21736Y96622D01*
X-21610Y96760D01*
X-21503Y96937D01*
X-21415Y97153D01*
X-21347Y97409D01*
X-21299Y97704D01*
X-21270Y98039D01*
X-21260Y98413D01*
X-19291D01*
X-19282Y98039D01*
D02*
G37*
G36*
X-38770D02*
X-38741Y97704D01*
X-38692Y97409D01*
X-38624Y97153D01*
X-38537Y96937D01*
X-38429Y96760D01*
X-38303Y96622D01*
X-38157Y96523D01*
X-37992Y96464D01*
X-37807Y96445D01*
X-41720D01*
X-41536Y96464D01*
X-41370Y96523D01*
X-41224Y96622D01*
X-41098Y96760D01*
X-40991Y96937D01*
X-40904Y97153D01*
X-40835Y97409D01*
X-40787Y97704D01*
X-40758Y98039D01*
X-40748Y98413D01*
X-38780D01*
X-38770Y98039D01*
D02*
G37*
G36*
X-49793D02*
X-49764Y97704D01*
X-49716Y97409D01*
X-49648Y97153D01*
X-49560Y96937D01*
X-49453Y96760D01*
X-49327Y96622D01*
X-49181Y96523D01*
X-49016Y96464D01*
X-48831Y96445D01*
X-52744D01*
X-52559Y96464D01*
X-52394Y96523D01*
X-52248Y96622D01*
X-52122Y96760D01*
X-52015Y96937D01*
X-51927Y97153D01*
X-51859Y97409D01*
X-51810Y97704D01*
X-51781Y98039D01*
X-51772Y98413D01*
X-49803D01*
X-49793Y98039D01*
D02*
G37*
G36*
X52744Y95622D02*
X52779Y95593D01*
X52837Y95568D01*
X52918Y95545D01*
X53023Y95527D01*
X53152Y95511D01*
X53478Y95491D01*
X53898Y95484D01*
Y93516D01*
X53676Y93514D01*
X53023Y93473D01*
X52918Y93455D01*
X52837Y93432D01*
X52779Y93407D01*
X52744Y93378D01*
X52732Y93346D01*
Y95654D01*
X52744Y95622D01*
D02*
G37*
G36*
X22232D02*
X22267Y95593D01*
X22325Y95568D01*
X22407Y95545D01*
X22512Y95527D01*
X22640Y95511D01*
X22966Y95491D01*
X23386Y95484D01*
Y93516D01*
X23165Y93514D01*
X22512Y93473D01*
X22407Y93455D01*
X22325Y93432D01*
X22267Y93407D01*
X22232Y93378D01*
X22220Y93346D01*
Y95654D01*
X22232Y95622D01*
D02*
G37*
G36*
X-7296D02*
X-7261Y95593D01*
X-7203Y95568D01*
X-7121Y95545D01*
X-7016Y95527D01*
X-6888Y95511D01*
X-6561Y95491D01*
X-6141Y95484D01*
Y93516D01*
X-6363Y93514D01*
X-7016Y93473D01*
X-7121Y93455D01*
X-7203Y93432D01*
X-7261Y93407D01*
X-7296Y93378D01*
X-7307Y93346D01*
Y95654D01*
X-7296Y95622D01*
D02*
G37*
G36*
X-37808D02*
X-37773Y95593D01*
X-37714Y95568D01*
X-37633Y95545D01*
X-37528Y95527D01*
X-37400Y95511D01*
X-37073Y95491D01*
X-36653Y95484D01*
Y93516D01*
X-36875Y93514D01*
X-37528Y93473D01*
X-37633Y93455D01*
X-37714Y93432D01*
X-37773Y93407D01*
X-37808Y93378D01*
X-37819Y93346D01*
Y95654D01*
X-37808Y95622D01*
D02*
G37*
G36*
X41721Y94775D02*
X41761Y94724D01*
X41825Y94680D01*
X41916Y94641D01*
X42032Y94608D01*
X42175Y94582D01*
X42342Y94561D01*
X42756Y94537D01*
X43001Y94534D01*
Y92566D01*
X41720Y92532D01*
X41708Y94831D01*
X41721Y94775D01*
D02*
G37*
G36*
X11210D02*
X11249Y94724D01*
X11314Y94680D01*
X11404Y94641D01*
X11520Y94608D01*
X11663Y94582D01*
X11831Y94561D01*
X12244Y94537D01*
X12489Y94534D01*
Y92566D01*
X11208Y92532D01*
X11197Y94831D01*
X11210Y94775D01*
D02*
G37*
G36*
X-18318D02*
X-18279Y94724D01*
X-18214Y94680D01*
X-18123Y94641D01*
X-18007Y94608D01*
X-17865Y94582D01*
X-17697Y94561D01*
X-17283Y94537D01*
X-17038Y94534D01*
Y92566D01*
X-18319Y92532D01*
X-18331Y94831D01*
X-18318Y94775D01*
D02*
G37*
G36*
X-48830D02*
X-48791Y94724D01*
X-48726Y94680D01*
X-48635Y94641D01*
X-48519Y94608D01*
X-48377Y94582D01*
X-48209Y94561D01*
X-47795Y94537D01*
X-47550Y94534D01*
Y92566D01*
X-48831Y92532D01*
X-48843Y94831D01*
X-48830Y94775D01*
D02*
G37*
G36*
X48713Y89555D02*
Y86614D01*
X48693Y86801D01*
X48634Y86968D01*
X48536Y87116D01*
X48398Y87244D01*
X48221Y87352D01*
X48004Y87441D01*
X47748Y87510D01*
X47453Y87559D01*
X47118Y87589D01*
X46744Y87598D01*
Y89567D01*
X48713Y89555D01*
D02*
G37*
G36*
X18201D02*
Y86614D01*
X18181Y86801D01*
X18122Y86968D01*
X18024Y87116D01*
X17886Y87244D01*
X17709Y87352D01*
X17492Y87441D01*
X17236Y87510D01*
X16941Y87559D01*
X16607Y87589D01*
X16232Y87598D01*
Y89567D01*
X18201Y89555D01*
D02*
G37*
G36*
X-11327D02*
Y86614D01*
X-11346Y86801D01*
X-11405Y86968D01*
X-11504Y87116D01*
X-11642Y87244D01*
X-11819Y87352D01*
X-12035Y87441D01*
X-12291Y87510D01*
X-12586Y87559D01*
X-12921Y87589D01*
X-13295Y87598D01*
Y89567D01*
X-11327Y89555D01*
D02*
G37*
G36*
X-41838D02*
Y86614D01*
X-41858Y86801D01*
X-41917Y86968D01*
X-42016Y87116D01*
X-42153Y87244D01*
X-42331Y87352D01*
X-42547Y87441D01*
X-42803Y87510D01*
X-43098Y87559D01*
X-43433Y87589D01*
X-43807Y87598D01*
Y89567D01*
X-41838Y89555D01*
D02*
G37*
G36*
X41838Y85642D02*
X41841Y85622D01*
X41843Y85564D01*
X41850Y83685D01*
X39882D01*
X39872Y84058D01*
X39843Y84393D01*
X39794Y84688D01*
X39726Y84943D01*
X39639Y85160D01*
X39532Y85337D01*
X39405Y85475D01*
X39259Y85574D01*
X39094Y85633D01*
X38909Y85654D01*
X41838Y85642D01*
D02*
G37*
G36*
X11327D02*
X11329Y85622D01*
X11331Y85564D01*
X11339Y83685D01*
X9370D01*
X9360Y84058D01*
X9331Y84393D01*
X9283Y84688D01*
X9215Y84943D01*
X9127Y85160D01*
X9020Y85337D01*
X8894Y85475D01*
X8748Y85574D01*
X8582Y85633D01*
X8397Y85654D01*
X11327Y85642D01*
D02*
G37*
G36*
X-18201D02*
X-18199Y85622D01*
X-18197Y85564D01*
X-18189Y83685D01*
X-20157D01*
X-20167Y84058D01*
X-20196Y84393D01*
X-20245Y84688D01*
X-20313Y84943D01*
X-20401Y85160D01*
X-20508Y85337D01*
X-20634Y85475D01*
X-20780Y85574D01*
X-20945Y85633D01*
X-21130Y85654D01*
X-18201Y85642D01*
D02*
G37*
G36*
X-48713D02*
X-48711Y85622D01*
X-48709Y85564D01*
X-48701Y83685D01*
X-50669D01*
X-50679Y84058D01*
X-50708Y84393D01*
X-50757Y84688D01*
X-50825Y84943D01*
X-50912Y85160D01*
X-51019Y85337D01*
X-51146Y85475D01*
X-51292Y85574D01*
X-51457Y85633D01*
X-51642Y85654D01*
X-48713Y85642D01*
D02*
G37*
G36*
X58052Y13602D02*
X53740D01*
X53716Y13597D01*
X53691Y13601D01*
X53382Y13586D01*
X53310Y13567D01*
X53236D01*
X52630Y13447D01*
X52539Y13409D01*
X52442Y13390D01*
X51871Y13154D01*
X51789Y13099D01*
X51698Y13061D01*
X51185Y12718D01*
X51115Y12648D01*
X51033Y12593D01*
X50596Y12156D01*
X50541Y12074D01*
X50471Y12004D01*
X50128Y11491D01*
X50090Y11400D01*
X50035Y11317D01*
X49845Y10859D01*
X28563D01*
Y11383D01*
X28576Y11414D01*
X28577Y11518D01*
X28584Y11691D01*
X28597Y11817D01*
X28603Y11852D01*
X28607Y11871D01*
X28611Y11879D01*
X28611Y11884D01*
X28616Y11897D01*
X28616Y11903D01*
X28727Y12015D01*
X28937Y12521D01*
Y13069D01*
X28727Y13576D01*
X28340Y13963D01*
X27833Y14173D01*
X27285D01*
X26779Y13963D01*
X26391Y13576D01*
X26181Y13069D01*
Y12521D01*
X26391Y12015D01*
X26502Y11903D01*
X26502Y11897D01*
X26507Y11884D01*
X26507Y11879D01*
X26511Y11871D01*
X26515Y11852D01*
X26520Y11825D01*
X26542Y11512D01*
X26542Y11414D01*
X26555Y11383D01*
Y10859D01*
X25413D01*
Y11383D01*
X25426Y11414D01*
X25427Y11518D01*
X25434Y11691D01*
X25447Y11817D01*
X25453Y11852D01*
X25458Y11871D01*
X25462Y11879D01*
X25462Y11884D01*
X25466Y11897D01*
X25466Y11903D01*
X25578Y12015D01*
X25787Y12521D01*
Y13069D01*
X25578Y13576D01*
X25190Y13963D01*
X24683Y14173D01*
X24135D01*
X23629Y13963D01*
X23241Y13576D01*
X23031Y13069D01*
Y12521D01*
X23241Y12015D01*
X23353Y11903D01*
X23352Y11897D01*
X23357Y11884D01*
X23357Y11879D01*
X23361Y11871D01*
X23366Y11852D01*
X23371Y11825D01*
X23392Y11512D01*
X23393Y11414D01*
X23406Y11383D01*
Y10859D01*
X22263D01*
Y11383D01*
X22276Y11414D01*
X22277Y11518D01*
X22285Y11691D01*
X22297Y11817D01*
X22303Y11852D01*
X22308Y11871D01*
X22312Y11879D01*
X22312Y11884D01*
X22317Y11897D01*
X22316Y11903D01*
X22428Y12015D01*
X22638Y12521D01*
Y13069D01*
X22428Y13576D01*
X22040Y13963D01*
X21534Y14173D01*
X20986D01*
X20479Y13963D01*
X20092Y13576D01*
X19882Y13069D01*
Y12521D01*
X20092Y12015D01*
X20203Y11903D01*
X20203Y11897D01*
X20207Y11884D01*
X20208Y11879D01*
X20212Y11871D01*
X20216Y11852D01*
X20221Y11825D01*
X20242Y11512D01*
X20243Y11414D01*
X20256Y11383D01*
Y10859D01*
X19114D01*
Y11383D01*
X19127Y11414D01*
X19128Y11518D01*
X19135Y11691D01*
X19148Y11817D01*
X19154Y11852D01*
X19159Y11871D01*
X19162Y11879D01*
X19163Y11884D01*
X19167Y11897D01*
X19167Y11903D01*
X19278Y12015D01*
X19488Y12521D01*
Y13069D01*
X19278Y13576D01*
X18891Y13963D01*
X18384Y14173D01*
X17836D01*
X17330Y13963D01*
X16942Y13576D01*
X16732Y13069D01*
Y12521D01*
X16942Y12015D01*
X17054Y11903D01*
X17053Y11897D01*
X17058Y11884D01*
X17058Y11879D01*
X17062Y11871D01*
X17067Y11852D01*
X17071Y11825D01*
X17093Y11512D01*
X17094Y11414D01*
X17107Y11383D01*
Y10859D01*
X15964D01*
Y11383D01*
X15977Y11414D01*
X15978Y11518D01*
X15985Y11691D01*
X15998Y11817D01*
X16004Y11852D01*
X16009Y11871D01*
X16013Y11879D01*
X16013Y11884D01*
X16018Y11897D01*
X16017Y11903D01*
X16129Y12015D01*
X16339Y12521D01*
Y13069D01*
X16129Y13576D01*
X15741Y13963D01*
X15235Y14173D01*
X14686D01*
X14180Y13963D01*
X13792Y13576D01*
X13583Y13069D01*
Y12521D01*
X13792Y12015D01*
X13904Y11903D01*
X13904Y11897D01*
X13908Y11884D01*
X13908Y11879D01*
X13912Y11871D01*
X13917Y11852D01*
X13922Y11825D01*
X13943Y11512D01*
X13944Y11414D01*
X13957Y11383D01*
Y10859D01*
X12814D01*
Y11383D01*
X12828Y11414D01*
X12829Y11518D01*
X12836Y11691D01*
X12849Y11817D01*
X12855Y11852D01*
X12859Y11871D01*
X12863Y11879D01*
X12864Y11884D01*
X12868Y11897D01*
X12868Y11903D01*
X12979Y12015D01*
X13189Y12521D01*
Y13069D01*
X12979Y13576D01*
X12592Y13963D01*
X12085Y14173D01*
X11537D01*
X11030Y13963D01*
X10643Y13576D01*
X10433Y13069D01*
Y12521D01*
X10643Y12015D01*
X10754Y11903D01*
X10754Y11897D01*
X10759Y11884D01*
X10759Y11879D01*
X10763Y11871D01*
X10768Y11852D01*
X10772Y11825D01*
X10793Y11512D01*
X10794Y11414D01*
X10808Y11383D01*
Y10859D01*
X9665D01*
Y11383D01*
X9678Y11414D01*
X9679Y11518D01*
X9686Y11691D01*
X9699Y11817D01*
X9705Y11852D01*
X9710Y11871D01*
X9713Y11879D01*
X9714Y11884D01*
X9718Y11897D01*
X9718Y11903D01*
X9830Y12015D01*
X10039Y12521D01*
Y13069D01*
X9830Y13576D01*
X9442Y13963D01*
X8935Y14173D01*
X8387D01*
X7881Y13963D01*
X7493Y13576D01*
X7283Y13069D01*
Y12521D01*
X7493Y12015D01*
X7605Y11903D01*
X7604Y11897D01*
X7609Y11884D01*
X7609Y11879D01*
X7613Y11871D01*
X7618Y11852D01*
X7623Y11825D01*
X7644Y11512D01*
X7645Y11414D01*
X7658Y11383D01*
Y10859D01*
X6515D01*
Y11383D01*
X6528Y11414D01*
X6529Y11518D01*
X6537Y11691D01*
X6549Y11817D01*
X6555Y11852D01*
X6560Y11871D01*
X6564Y11879D01*
X6564Y11884D01*
X6569Y11897D01*
X6568Y11903D01*
X6680Y12015D01*
X6890Y12521D01*
Y13069D01*
X6680Y13576D01*
X6292Y13963D01*
X5786Y14173D01*
X5238D01*
X4731Y13963D01*
X4344Y13576D01*
X4134Y13069D01*
Y12521D01*
X4344Y12015D01*
X4455Y11903D01*
X4455Y11897D01*
X4459Y11884D01*
X4460Y11879D01*
X4464Y11871D01*
X4468Y11852D01*
X4473Y11825D01*
X4494Y11512D01*
X4495Y11414D01*
X4508Y11383D01*
Y10859D01*
X-11201D01*
Y12795D01*
X-11208Y12828D01*
X-11203Y12861D01*
X-11229Y13246D01*
X-11254Y13342D01*
X-11261Y13440D01*
X-11460Y14185D01*
X-11518Y14303D01*
X-11560Y14427D01*
X-11946Y15094D01*
X-12032Y15193D01*
X-12105Y15302D01*
X-12650Y15847D01*
X-12760Y15920D01*
X-12858Y16007D01*
X-13526Y16392D01*
X-13650Y16434D01*
X-13768Y16493D01*
X-14512Y16692D01*
X-14643Y16701D01*
X-14772Y16726D01*
X-15543D01*
X-15672Y16701D01*
X-15803Y16692D01*
X-16547Y16493D01*
X-16665Y16434D01*
X-16789Y16392D01*
X-17457Y16007D01*
X-17555Y15920D01*
X-17665Y15847D01*
X-18210Y15302D01*
X-18283Y15193D01*
X-18369Y15094D01*
X-18755Y14427D01*
X-18797Y14303D01*
X-18855Y14185D01*
X-19054Y13440D01*
X-19061Y13342D01*
X-19086Y13246D01*
X-19112Y12861D01*
X-19107Y12828D01*
X-19114Y12795D01*
Y10859D01*
X-34430D01*
Y11383D01*
X-34416Y11414D01*
X-34416Y11518D01*
X-34408Y11691D01*
X-34396Y11817D01*
X-34390Y11852D01*
X-34385Y11871D01*
X-34381Y11879D01*
X-34381Y11884D01*
X-34376Y11897D01*
X-34376Y11903D01*
X-34265Y12015D01*
X-34055Y12521D01*
Y13069D01*
X-34265Y13576D01*
X-34653Y13963D01*
X-35159Y14173D01*
X-35707D01*
X-36214Y13963D01*
X-36601Y13576D01*
X-36811Y13069D01*
Y12521D01*
X-36601Y12015D01*
X-36490Y11903D01*
X-36490Y11897D01*
X-36485Y11884D01*
X-36485Y11879D01*
X-36481Y11871D01*
X-36477Y11852D01*
X-36472Y11825D01*
X-36451Y11512D01*
X-36450Y11414D01*
X-36437Y11383D01*
Y10859D01*
X-49845D01*
X-50035Y11317D01*
X-50090Y11400D01*
X-50128Y11491D01*
X-50471Y12004D01*
X-50541Y12074D01*
X-50596Y12156D01*
X-51033Y12593D01*
X-51115Y12648D01*
X-51185Y12718D01*
X-51698Y13061D01*
X-51789Y13099D01*
X-51871Y13154D01*
X-52442Y13390D01*
X-52539Y13409D01*
X-52630Y13447D01*
X-53236Y13567D01*
X-53310D01*
X-53382Y13586D01*
X-53691Y13601D01*
X-53716Y13597D01*
X-53740Y13602D01*
X-58052D01*
Y68795D01*
X-32500D01*
Y52165D01*
Y51774D01*
X-32423Y51390D01*
X-32124Y50666D01*
X-31906Y50341D01*
X-31352Y49787D01*
X-31027Y49569D01*
X-30303Y49270D01*
X-29919Y49193D01*
X-29136D01*
X-28752Y49270D01*
X-28029Y49569D01*
X-27703Y49787D01*
X-27149Y50341D01*
X-26932Y50666D01*
X-26632Y51390D01*
X-26555Y51774D01*
Y52165D01*
Y68795D01*
X-2972D01*
Y51665D01*
Y51274D01*
X-2896Y50890D01*
X-2596Y50166D01*
X-2378Y49841D01*
X-1825Y49287D01*
X-1499Y49069D01*
X-776Y48770D01*
X-392Y48693D01*
X392D01*
X776Y48770D01*
X1499Y49069D01*
X1825Y49287D01*
X2378Y49841D01*
X2596Y50166D01*
X2896Y50890D01*
X2972Y51274D01*
Y51665D01*
Y68795D01*
X26555D01*
Y52146D01*
Y51754D01*
X26632Y51370D01*
X26932Y50647D01*
X27149Y50321D01*
X27703Y49767D01*
X28028Y49550D01*
X28752Y49250D01*
X29136Y49174D01*
X29919D01*
X30303Y49250D01*
X31027Y49550D01*
X31352Y49767D01*
X31906Y50321D01*
X32124Y50647D01*
X32423Y51370D01*
X32500Y51754D01*
Y52146D01*
Y68795D01*
X58052D01*
Y13602D01*
D02*
G37*
G36*
X28229Y12068D02*
X28213Y12034D01*
X28198Y11991D01*
X28185Y11938D01*
X28174Y11875D01*
X28159Y11721D01*
X28151Y11528D01*
X28150Y11417D01*
X26969D01*
X26967Y11528D01*
X26944Y11875D01*
X26933Y11938D01*
X26920Y11991D01*
X26906Y12034D01*
X26889Y12068D01*
X26870Y12092D01*
X28248D01*
X28229Y12068D01*
D02*
G37*
G36*
X25080D02*
X25063Y12034D01*
X25048Y11991D01*
X25035Y11938D01*
X25025Y11875D01*
X25009Y11721D01*
X25001Y11528D01*
X25000Y11417D01*
X23819D01*
X23818Y11528D01*
X23794Y11875D01*
X23784Y11938D01*
X23771Y11991D01*
X23756Y12034D01*
X23739Y12068D01*
X23720Y12092D01*
X25098D01*
X25080Y12068D01*
D02*
G37*
G36*
X21930D02*
X21913Y12034D01*
X21899Y11991D01*
X21886Y11938D01*
X21875Y11875D01*
X21859Y11721D01*
X21851Y11528D01*
X21850Y11417D01*
X20669D01*
X20668Y11528D01*
X20645Y11875D01*
X20634Y11938D01*
X20621Y11991D01*
X20606Y12034D01*
X20590Y12068D01*
X20571Y12092D01*
X21949D01*
X21930Y12068D01*
D02*
G37*
G36*
X18780D02*
X18764Y12034D01*
X18749Y11991D01*
X18736Y11938D01*
X18725Y11875D01*
X18710Y11721D01*
X18702Y11528D01*
X18701Y11417D01*
X17520D01*
X17519Y11528D01*
X17495Y11875D01*
X17484Y11938D01*
X17471Y11991D01*
X17457Y12034D01*
X17440Y12068D01*
X17421Y12092D01*
X18799D01*
X18780Y12068D01*
D02*
G37*
G36*
X15631D02*
X15614Y12034D01*
X15599Y11991D01*
X15587Y11938D01*
X15576Y11875D01*
X15560Y11721D01*
X15552Y11528D01*
X15551Y11417D01*
X14370D01*
X14369Y11528D01*
X14345Y11875D01*
X14335Y11938D01*
X14322Y11991D01*
X14307Y12034D01*
X14290Y12068D01*
X14272Y12092D01*
X15650D01*
X15631Y12068D01*
D02*
G37*
G36*
X12481D02*
X12465Y12034D01*
X12450Y11991D01*
X12437Y11938D01*
X12426Y11875D01*
X12410Y11721D01*
X12403Y11528D01*
X12402Y11417D01*
X11220D01*
X11220Y11528D01*
X11196Y11875D01*
X11185Y11938D01*
X11172Y11991D01*
X11157Y12034D01*
X11141Y12068D01*
X11122Y12092D01*
X12500D01*
X12481Y12068D01*
D02*
G37*
G36*
X9332D02*
X9315Y12034D01*
X9300Y11991D01*
X9287Y11938D01*
X9277Y11875D01*
X9261Y11721D01*
X9253Y11528D01*
X9252Y11417D01*
X8071D01*
X8070Y11528D01*
X8046Y11875D01*
X8035Y11938D01*
X8023Y11991D01*
X8008Y12034D01*
X7991Y12068D01*
X7972Y12092D01*
X9350D01*
X9332Y12068D01*
D02*
G37*
G36*
X6182D02*
X6165Y12034D01*
X6151Y11991D01*
X6138Y11938D01*
X6127Y11875D01*
X6111Y11721D01*
X6103Y11528D01*
X6102Y11417D01*
X4921D01*
X4920Y11528D01*
X4897Y11875D01*
X4886Y11938D01*
X4873Y11991D01*
X4858Y12034D01*
X4842Y12068D01*
X4823Y12092D01*
X6201D01*
X6182Y12068D01*
D02*
G37*
G36*
X-34763D02*
X-34780Y12034D01*
X-34794Y11991D01*
X-34807Y11938D01*
X-34818Y11875D01*
X-34834Y11721D01*
X-34842Y11528D01*
X-34843Y11417D01*
X-36024D01*
X-36025Y11528D01*
X-36048Y11875D01*
X-36059Y11938D01*
X-36072Y11991D01*
X-36087Y12034D01*
X-36103Y12068D01*
X-36122Y12092D01*
X-34744D01*
X-34763Y12068D01*
D02*
G37*
%LPC*%
G36*
X35726Y227953D02*
X34274D01*
X32873Y227577D01*
X31616Y226852D01*
X30589Y225825D01*
X30197Y225145D01*
X29803D01*
X29410Y225825D01*
X28384Y226852D01*
X27128Y227577D01*
X25726Y227953D01*
X24274D01*
X22873Y227577D01*
X21616Y226852D01*
X20589Y225825D01*
X20197Y225145D01*
X19803D01*
X19410Y225825D01*
X18384Y226852D01*
X17128Y227577D01*
X15726Y227953D01*
X14274D01*
X12873Y227577D01*
X11616Y226852D01*
X10589Y225825D01*
X10197Y225145D01*
X9803D01*
X9410Y225825D01*
X8384Y226852D01*
X7128Y227577D01*
X5726Y227953D01*
X4274D01*
X2873Y227577D01*
X1616Y226852D01*
X589Y225825D01*
X197Y225145D01*
X-197D01*
X-589Y225825D01*
X-1616Y226852D01*
X-2873Y227577D01*
X-4274Y227953D01*
X-5726D01*
X-7128Y227577D01*
X-8384Y226852D01*
X-9411Y225825D01*
X-9803Y225145D01*
X-10197D01*
X-10589Y225825D01*
X-11616Y226852D01*
X-12873Y227577D01*
X-14274Y227953D01*
X-15726D01*
X-17128Y227577D01*
X-18384Y226852D01*
X-19411Y225825D01*
X-19803Y225145D01*
X-20197D01*
X-20590Y225825D01*
X-21616Y226852D01*
X-22873Y227577D01*
X-24274Y227953D01*
X-25726D01*
X-27128Y227577D01*
X-28384Y226852D01*
X-29411Y225825D01*
X-29803Y225145D01*
X-30197D01*
X-30590Y225825D01*
X-31616Y226852D01*
X-32873Y227577D01*
X-34274Y227953D01*
X-35726D01*
X-37128Y227577D01*
X-38384Y226852D01*
X-39411Y225825D01*
X-40136Y224568D01*
X-40512Y223167D01*
Y221715D01*
X-40136Y220314D01*
X-39411Y219057D01*
X-38384Y218030D01*
X-37128Y217305D01*
X-35726Y216929D01*
X-34274D01*
X-32873Y217305D01*
X-31616Y218030D01*
X-30590Y219057D01*
X-30197Y219737D01*
X-29803D01*
X-29411Y219057D01*
X-28384Y218030D01*
X-27128Y217305D01*
X-25726Y216929D01*
X-24274D01*
X-22873Y217305D01*
X-21616Y218030D01*
X-20590Y219057D01*
X-20197Y219737D01*
X-19803D01*
X-19411Y219057D01*
X-18384Y218030D01*
X-17128Y217305D01*
X-15726Y216929D01*
X-14274D01*
X-12873Y217305D01*
X-11616Y218030D01*
X-10589Y219057D01*
X-10197Y219737D01*
X-9803D01*
X-9411Y219057D01*
X-8384Y218030D01*
X-7128Y217305D01*
X-5726Y216929D01*
X-4274D01*
X-2873Y217305D01*
X-1616Y218030D01*
X-589Y219057D01*
X-197Y219737D01*
X197D01*
X589Y219057D01*
X1616Y218030D01*
X2873Y217305D01*
X4274Y216929D01*
X5726D01*
X7128Y217305D01*
X8384Y218030D01*
X9410Y219057D01*
X9803Y219737D01*
X10197D01*
X10589Y219057D01*
X11616Y218030D01*
X12873Y217305D01*
X14274Y216929D01*
X15726D01*
X17128Y217305D01*
X18384Y218030D01*
X19410Y219057D01*
X19803Y219737D01*
X20197D01*
X20589Y219057D01*
X21616Y218030D01*
X22873Y217305D01*
X24274Y216929D01*
X25726D01*
X27128Y217305D01*
X28384Y218030D01*
X29410Y219057D01*
X29803Y219737D01*
X30197D01*
X30589Y219057D01*
X31616Y218030D01*
X32873Y217305D01*
X34274Y216929D01*
X35726D01*
X37128Y217305D01*
X38384Y218030D01*
X39410Y219057D01*
X40136Y220314D01*
X40512Y221715D01*
Y223167D01*
X40136Y224568D01*
X39410Y225825D01*
X38384Y226852D01*
X37128Y227577D01*
X35726Y227953D01*
D02*
G37*
G36*
X45518Y226378D02*
X45394D01*
Y222835D01*
X48937D01*
Y222959D01*
X48669Y223961D01*
X48150Y224858D01*
X47417Y225591D01*
X46520Y226110D01*
X45518Y226378D01*
D02*
G37*
G36*
X44606D02*
X44482D01*
X43480Y226110D01*
X42583Y225591D01*
X41850Y224858D01*
X41331Y223961D01*
X41063Y222959D01*
Y222835D01*
X44606D01*
Y226378D01*
D02*
G37*
G36*
X-42342Y226403D02*
X-44606D01*
Y222835D01*
X-41038D01*
Y225098D01*
X-41137Y225598D01*
X-41420Y226021D01*
X-41843Y226304D01*
X-42342Y226403D01*
D02*
G37*
G36*
X-45394D02*
X-47657D01*
X-48157Y226304D01*
X-48580Y226021D01*
X-48863Y225598D01*
X-48962Y225098D01*
Y222835D01*
X-45394D01*
Y226403D01*
D02*
G37*
G36*
X48937Y222047D02*
X45394D01*
Y218504D01*
X45518D01*
X46520Y218772D01*
X47417Y219291D01*
X48150Y220024D01*
X48669Y220921D01*
X48937Y221923D01*
Y222047D01*
D02*
G37*
G36*
X44606D02*
X41063D01*
Y221923D01*
X41331Y220921D01*
X41850Y220024D01*
X42583Y219291D01*
X43480Y218772D01*
X44482Y218504D01*
X44606D01*
Y222047D01*
D02*
G37*
G36*
X-41038D02*
X-44606D01*
Y218479D01*
X-42342D01*
X-41843Y218578D01*
X-41420Y218861D01*
X-41137Y219284D01*
X-41038Y219783D01*
Y222047D01*
D02*
G37*
G36*
X-45394D02*
X-48962D01*
Y219783D01*
X-48863Y219284D01*
X-48580Y218861D01*
X-48157Y218578D01*
X-47657Y218479D01*
X-45394D01*
Y222047D01*
D02*
G37*
G36*
X42132Y170276D02*
X36876D01*
Y165748D01*
X42132D01*
Y170276D01*
D02*
G37*
G36*
X11620D02*
X6364D01*
Y165748D01*
X11620D01*
Y170276D01*
D02*
G37*
G36*
X-17908D02*
X-23163D01*
Y165748D01*
X-17908D01*
Y170276D01*
D02*
G37*
G36*
X-48419D02*
X-53675D01*
Y165748D01*
X-48419D01*
Y170276D01*
D02*
G37*
G36*
X52244Y64370D02*
X50669D01*
Y62402D01*
X52244D01*
Y64370D01*
D02*
G37*
G36*
X49882D02*
X48307D01*
Y62402D01*
X49882D01*
Y64370D01*
D02*
G37*
G36*
X21732D02*
X20157D01*
Y62402D01*
X21732D01*
Y64370D01*
D02*
G37*
G36*
X-7795D02*
X-9370D01*
Y62402D01*
X-7795D01*
Y64370D01*
D02*
G37*
G36*
X19370D02*
X17795D01*
Y62402D01*
X19370D01*
Y64370D01*
D02*
G37*
G36*
X-10158D02*
X-11732D01*
Y62402D01*
X-10158D01*
Y64370D01*
D02*
G37*
G36*
X-38307D02*
X-39882D01*
Y62402D01*
X-38307D01*
Y64370D01*
D02*
G37*
G36*
X-40669D02*
X-42244D01*
Y62402D01*
X-40669D01*
Y64370D01*
D02*
G37*
G36*
X52244Y61614D02*
X50669D01*
Y59646D01*
X52244D01*
Y61614D01*
D02*
G37*
G36*
X49882D02*
X48307D01*
Y59646D01*
X49882D01*
Y61614D01*
D02*
G37*
G36*
X21732Y61614D02*
X20157D01*
Y59646D01*
X21732D01*
Y61614D01*
D02*
G37*
G36*
X19370D02*
X17795D01*
Y59646D01*
X19370D01*
Y61614D01*
D02*
G37*
G36*
X-7795D02*
X-9370D01*
Y59646D01*
X-7795D01*
Y61614D01*
D02*
G37*
G36*
X-10158D02*
X-11732D01*
Y59646D01*
X-10158D01*
Y61614D01*
D02*
G37*
G36*
X-38307Y61614D02*
X-39882D01*
Y59646D01*
X-38307D01*
Y61614D01*
D02*
G37*
G36*
X-40669D02*
X-42244D01*
Y59646D01*
X-40669D01*
Y61614D01*
D02*
G37*
G36*
X39902Y58504D02*
X38976D01*
Y57480D01*
X39902D01*
Y58504D01*
D02*
G37*
G36*
X38189D02*
X37264D01*
Y57480D01*
X38189D01*
Y58504D01*
D02*
G37*
G36*
X9390D02*
X8465D01*
Y57480D01*
X9390D01*
Y58504D01*
D02*
G37*
G36*
X7677D02*
X6752D01*
Y57480D01*
X7677D01*
Y58504D01*
D02*
G37*
G36*
X-20138D02*
X-21063D01*
Y57480D01*
X-20138D01*
Y58504D01*
D02*
G37*
G36*
X-21850D02*
X-22776D01*
Y57480D01*
X-21850D01*
Y58504D01*
D02*
G37*
G36*
X-50650D02*
X-51575D01*
Y57480D01*
X-50650D01*
Y58504D01*
D02*
G37*
G36*
X-52362D02*
X-53287D01*
Y57480D01*
X-52362D01*
Y58504D01*
D02*
G37*
G36*
X39902Y56693D02*
X38976D01*
Y55669D01*
X39902D01*
Y56693D01*
D02*
G37*
G36*
X38189D02*
X37264D01*
Y55669D01*
X38189D01*
Y56693D01*
D02*
G37*
G36*
X9390D02*
X8465D01*
Y55669D01*
X9390D01*
Y56693D01*
D02*
G37*
G36*
X7677D02*
X6752D01*
Y55669D01*
X7677D01*
Y56693D01*
D02*
G37*
G36*
X-20138D02*
X-21063D01*
Y55669D01*
X-20138D01*
Y56693D01*
D02*
G37*
G36*
X-21850D02*
X-22776D01*
Y55669D01*
X-21850D01*
Y56693D01*
D02*
G37*
G36*
X-50650D02*
X-51575D01*
Y55669D01*
X-50650D01*
Y56693D01*
D02*
G37*
G36*
X-52362D02*
X-53287D01*
Y55669D01*
X-52362D01*
Y56693D01*
D02*
G37*
G36*
X53287Y58504D02*
X50650D01*
Y56175D01*
X50637Y56156D01*
X50645Y56114D01*
X50629Y56075D01*
X50650Y56026D01*
Y55669D01*
X50885D01*
X50886Y55665D01*
X50907Y55572D01*
X50925Y55451D01*
X50947Y55124D01*
X50944Y55042D01*
X50931Y54915D01*
X50925Y54881D01*
X50920Y54861D01*
X50916Y54853D01*
X50916Y54848D01*
X50911Y54835D01*
X50912Y54829D01*
X50800Y54718D01*
X50591Y54211D01*
Y53663D01*
X50800Y53156D01*
X51188Y52769D01*
X51694Y52559D01*
X52243D01*
X52749Y52769D01*
X53137Y53156D01*
X53347Y53663D01*
Y54211D01*
X53137Y54718D01*
X53025Y54829D01*
X53026Y54835D01*
X53021Y54848D01*
X53021Y54853D01*
X53017Y54861D01*
X53012Y54881D01*
X53007Y54908D01*
X52992Y55126D01*
X52997Y55293D01*
X53011Y55446D01*
X53030Y55572D01*
X53051Y55665D01*
X53052Y55669D01*
X53287D01*
Y56026D01*
X53308Y56075D01*
X53292Y56114D01*
X53300Y56156D01*
X53287Y56175D01*
Y58504D01*
D02*
G37*
G36*
X42244Y64370D02*
X38307D01*
Y59646D01*
X40219D01*
X40235Y59426D01*
X40236Y59294D01*
X40262Y59232D01*
X40326Y58914D01*
X40543Y58589D01*
X40650Y58482D01*
Y58382D01*
X40642Y58197D01*
X40642Y58187D01*
X40640Y58181D01*
X40641Y58179D01*
X40640Y58170D01*
X40648Y58145D01*
X40629Y58102D01*
X40650Y58051D01*
Y58046D01*
X40642Y57994D01*
X40650Y57984D01*
Y56175D01*
X40637Y56156D01*
X40645Y56114D01*
X40629Y56075D01*
X40650Y56026D01*
Y55669D01*
X40885D01*
X40886Y55665D01*
X40907Y55572D01*
X40925Y55451D01*
X40947Y55124D01*
X40944Y55042D01*
X40931Y54915D01*
X40925Y54881D01*
X40920Y54861D01*
X40916Y54853D01*
X40916Y54848D01*
X40911Y54835D01*
X40912Y54829D01*
X40800Y54718D01*
X40591Y54211D01*
Y53663D01*
X40800Y53156D01*
X41188Y52769D01*
X41694Y52559D01*
X42243D01*
X42749Y52769D01*
X43137Y53156D01*
X43346Y53663D01*
Y54211D01*
X43137Y54718D01*
X43025Y54829D01*
X43025Y54835D01*
X43021Y54848D01*
X43021Y54853D01*
X43017Y54861D01*
X43012Y54881D01*
X43007Y54908D01*
X42992Y55126D01*
X42998Y55293D01*
X43011Y55446D01*
X43030Y55572D01*
X43051Y55665D01*
X43052Y55669D01*
X43287D01*
Y55974D01*
X43322Y55989D01*
X43407Y56014D01*
X43520Y56036D01*
X43861Y56066D01*
X44071Y56070D01*
X44101Y56083D01*
X46450D01*
X46480Y56070D01*
X46696Y56066D01*
X46875Y56055D01*
X47025Y56037D01*
X47144Y56014D01*
X47229Y55989D01*
X47264Y55974D01*
Y55669D01*
X47620D01*
X47670Y55649D01*
X47700Y55661D01*
X47732Y55653D01*
X47758Y55669D01*
X48135D01*
X48214Y55276D01*
X47802Y55105D01*
X47414Y54718D01*
X47205Y54211D01*
Y53663D01*
X47414Y53156D01*
X47802Y52769D01*
X48309Y52559D01*
X48857D01*
X49363Y52769D01*
X49751Y53156D01*
X49961Y53663D01*
Y54211D01*
X49751Y54718D01*
X49363Y55105D01*
X48952Y55276D01*
X49030Y55669D01*
X49902D01*
Y58504D01*
X47758D01*
X47732Y58520D01*
X47700Y58512D01*
X47670Y58524D01*
X47620Y58504D01*
X47264D01*
Y58199D01*
X47229Y58184D01*
X47144Y58159D01*
X47032Y58138D01*
X46690Y58107D01*
X46480Y58103D01*
X46450Y58090D01*
X44101D01*
X44071Y58103D01*
X43856Y58107D01*
X43676Y58119D01*
X43526Y58136D01*
X43407Y58159D01*
X43322Y58184D01*
X43287Y58199D01*
Y58504D01*
X42931D01*
X42882Y58524D01*
X42694Y58852D01*
X42687Y58868D01*
X42687Y58886D01*
X42661Y58948D01*
X42598Y59265D01*
X42380Y59590D01*
X42268Y59703D01*
X42266Y60023D01*
X42263Y60030D01*
X42266Y60037D01*
X42265Y60060D01*
X42257Y60077D01*
X42262Y60096D01*
X42261Y60104D01*
X42256Y60113D01*
Y61031D01*
X42244Y61092D01*
Y64370D01*
D02*
G37*
G36*
X22776Y58504D02*
X20138D01*
Y56175D01*
X20125Y56156D01*
X20134Y56114D01*
X20117Y56075D01*
X20138Y56026D01*
Y55669D01*
X20373D01*
X20374Y55665D01*
X20395Y55572D01*
X20413Y55451D01*
X20435Y55124D01*
X20432Y55042D01*
X20419Y54915D01*
X20413Y54881D01*
X20409Y54861D01*
X20405Y54853D01*
X20404Y54848D01*
X20400Y54835D01*
X20400Y54829D01*
X20289Y54718D01*
X20079Y54211D01*
Y53663D01*
X20289Y53156D01*
X20676Y52769D01*
X21183Y52559D01*
X21731D01*
X22237Y52769D01*
X22625Y53156D01*
X22835Y53663D01*
Y54211D01*
X22625Y54718D01*
X22513Y54829D01*
X22514Y54835D01*
X22509Y54848D01*
X22509Y54853D01*
X22505Y54861D01*
X22500Y54881D01*
X22496Y54908D01*
X22481Y55126D01*
X22486Y55293D01*
X22500Y55446D01*
X22518Y55572D01*
X22539Y55665D01*
X22540Y55669D01*
X22776D01*
Y56026D01*
X22796Y56075D01*
X22780Y56114D01*
X22788Y56156D01*
X22776Y56175D01*
Y58504D01*
D02*
G37*
G36*
X11732Y64370D02*
X7795D01*
Y59646D01*
X9707D01*
X9723Y59426D01*
X9724Y59294D01*
X9751Y59232D01*
X9814Y58914D01*
X10031Y58589D01*
X10138Y58482D01*
Y58382D01*
X10131Y58197D01*
X10130Y58187D01*
X10129Y58181D01*
X10129Y58179D01*
X10128Y58170D01*
X10136Y58145D01*
X10117Y58102D01*
X10138Y58051D01*
Y58046D01*
X10130Y57994D01*
X10138Y57984D01*
Y56175D01*
X10125Y56156D01*
X10134Y56114D01*
X10117Y56075D01*
X10138Y56026D01*
Y55669D01*
X10373D01*
X10374Y55665D01*
X10395Y55572D01*
X10413Y55451D01*
X10435Y55124D01*
X10432Y55042D01*
X10419Y54915D01*
X10413Y54881D01*
X10408Y54861D01*
X10405Y54853D01*
X10404Y54848D01*
X10400Y54835D01*
X10400Y54829D01*
X10289Y54718D01*
X10079Y54211D01*
Y53663D01*
X10289Y53156D01*
X10676Y52769D01*
X11183Y52559D01*
X11731D01*
X12237Y52769D01*
X12625Y53156D01*
X12835Y53663D01*
Y54211D01*
X12625Y54718D01*
X12513Y54829D01*
X12514Y54835D01*
X12509Y54848D01*
X12509Y54853D01*
X12505Y54861D01*
X12500Y54881D01*
X12495Y54908D01*
X12481Y55126D01*
X12486Y55293D01*
X12500Y55446D01*
X12518Y55572D01*
X12539Y55665D01*
X12540Y55669D01*
X12776D01*
Y55974D01*
X12810Y55989D01*
X12895Y56014D01*
X13008Y56036D01*
X13350Y56066D01*
X13559Y56070D01*
X13589Y56083D01*
X15939D01*
X15969Y56070D01*
X16184Y56066D01*
X16363Y56055D01*
X16514Y56037D01*
X16632Y56014D01*
X16717Y55989D01*
X16752Y55974D01*
Y55669D01*
X17108D01*
X17158Y55649D01*
X17188Y55661D01*
X17220Y55653D01*
X17246Y55669D01*
X17623D01*
X17702Y55276D01*
X17290Y55105D01*
X16903Y54718D01*
X16693Y54211D01*
Y53663D01*
X16903Y53156D01*
X17290Y52769D01*
X17797Y52559D01*
X18345D01*
X18851Y52769D01*
X19239Y53156D01*
X19449Y53663D01*
Y54211D01*
X19239Y54718D01*
X18851Y55105D01*
X18440Y55276D01*
X18518Y55669D01*
X19390D01*
Y58504D01*
X17246D01*
X17220Y58520D01*
X17188Y58512D01*
X17158Y58524D01*
X17108Y58504D01*
X16752D01*
Y58199D01*
X16717Y58184D01*
X16632Y58159D01*
X16520Y58138D01*
X16178Y58107D01*
X15969Y58103D01*
X15939Y58090D01*
X13589D01*
X13559Y58103D01*
X13344Y58107D01*
X13164Y58119D01*
X13014Y58136D01*
X12895Y58159D01*
X12810Y58184D01*
X12776Y58199D01*
Y58504D01*
X12419D01*
X12370Y58524D01*
X12182Y58852D01*
X12176Y58868D01*
X12175Y58886D01*
X12149Y58948D01*
X12086Y59265D01*
X11868Y59590D01*
X11756Y59703D01*
X11755Y60023D01*
X11752Y60030D01*
X11754Y60037D01*
X11753Y60060D01*
X11745Y60077D01*
X11750Y60096D01*
X11750Y60104D01*
X11744Y60113D01*
Y61031D01*
X11732Y61092D01*
Y64370D01*
D02*
G37*
G36*
X-6752Y58504D02*
X-9390D01*
Y56175D01*
X-9403Y56156D01*
X-9394Y56114D01*
X-9410Y56075D01*
X-9390Y56026D01*
Y55669D01*
X-9155D01*
X-9153Y55665D01*
X-9132Y55572D01*
X-9115Y55451D01*
X-9092Y55124D01*
X-9095Y55042D01*
X-9109Y54915D01*
X-9114Y54881D01*
X-9119Y54861D01*
X-9123Y54853D01*
X-9123Y54848D01*
X-9128Y54835D01*
X-9127Y54829D01*
X-9239Y54718D01*
X-9449Y54211D01*
Y53663D01*
X-9239Y53156D01*
X-8851Y52769D01*
X-8345Y52559D01*
X-7797D01*
X-7290Y52769D01*
X-6903Y53156D01*
X-6693Y53663D01*
Y54211D01*
X-6903Y54718D01*
X-7014Y54829D01*
X-7014Y54835D01*
X-7018Y54848D01*
X-7019Y54853D01*
X-7023Y54861D01*
X-7027Y54881D01*
X-7032Y54908D01*
X-7047Y55126D01*
X-7042Y55293D01*
X-7028Y55446D01*
X-7009Y55572D01*
X-6989Y55665D01*
X-6987Y55669D01*
X-6752D01*
Y56026D01*
X-6731Y56075D01*
X-6748Y56114D01*
X-6739Y56156D01*
X-6752Y56175D01*
Y58504D01*
D02*
G37*
G36*
X-17795Y64370D02*
X-21732D01*
Y59646D01*
X-19820D01*
X-19805Y59426D01*
X-19803Y59294D01*
X-19777Y59232D01*
X-19714Y58914D01*
X-19496Y58589D01*
X-19390Y58482D01*
Y58382D01*
X-19397Y58197D01*
X-19398Y58187D01*
X-19399Y58181D01*
X-19399Y58179D01*
X-19399Y58170D01*
X-19392Y58145D01*
X-19410Y58102D01*
X-19390Y58051D01*
Y58046D01*
X-19397Y57994D01*
X-19390Y57984D01*
Y56175D01*
X-19402Y56156D01*
X-19394Y56114D01*
X-19410Y56075D01*
X-19390Y56026D01*
Y55669D01*
X-19154D01*
X-19153Y55665D01*
X-19132Y55572D01*
X-19115Y55451D01*
X-19092Y55124D01*
X-19095Y55042D01*
X-19108Y54915D01*
X-19114Y54881D01*
X-19119Y54861D01*
X-19123Y54853D01*
X-19123Y54848D01*
X-19128Y54835D01*
X-19128Y54829D01*
X-19239Y54718D01*
X-19449Y54211D01*
Y53663D01*
X-19239Y53156D01*
X-18851Y52769D01*
X-18345Y52559D01*
X-17797D01*
X-17290Y52769D01*
X-16903Y53156D01*
X-16693Y53663D01*
Y54211D01*
X-16903Y54718D01*
X-17014Y54829D01*
X-17014Y54835D01*
X-17018Y54848D01*
X-17019Y54853D01*
X-17023Y54861D01*
X-17027Y54881D01*
X-17032Y54908D01*
X-17047Y55126D01*
X-17042Y55293D01*
X-17028Y55446D01*
X-17009Y55572D01*
X-16988Y55665D01*
X-16987Y55669D01*
X-16752D01*
Y55974D01*
X-16717Y55989D01*
X-16632Y56014D01*
X-16520Y56036D01*
X-16178Y56066D01*
X-15969Y56070D01*
X-15939Y56083D01*
X-13589D01*
X-13559Y56070D01*
X-13344Y56066D01*
X-13164Y56055D01*
X-13014Y56037D01*
X-12895Y56014D01*
X-12810Y55989D01*
X-12776Y55974D01*
Y55669D01*
X-12419D01*
X-12370Y55649D01*
X-12340Y55661D01*
X-12308Y55653D01*
X-12281Y55669D01*
X-11904D01*
X-11826Y55276D01*
X-12237Y55105D01*
X-12625Y54718D01*
X-12835Y54211D01*
Y53663D01*
X-12625Y53156D01*
X-12237Y52769D01*
X-11731Y52559D01*
X-11183D01*
X-10676Y52769D01*
X-10289Y53156D01*
X-10079Y53663D01*
Y54211D01*
X-10289Y54718D01*
X-10676Y55105D01*
X-11088Y55276D01*
X-11009Y55669D01*
X-10138D01*
Y58504D01*
X-12281D01*
X-12308Y58520D01*
X-12340Y58512D01*
X-12370Y58524D01*
X-12419Y58504D01*
X-12776D01*
Y58199D01*
X-12810Y58184D01*
X-12895Y58159D01*
X-13008Y58138D01*
X-13350Y58107D01*
X-13559Y58103D01*
X-13589Y58090D01*
X-15939D01*
X-15969Y58103D01*
X-16184Y58107D01*
X-16363Y58119D01*
X-16514Y58136D01*
X-16632Y58159D01*
X-16717Y58184D01*
X-16752Y58199D01*
Y58504D01*
X-17108D01*
X-17158Y58524D01*
X-17346Y58852D01*
X-17352Y58868D01*
X-17352Y58886D01*
X-17379Y58948D01*
X-17442Y59265D01*
X-17659Y59590D01*
X-17772Y59703D01*
X-17773Y60023D01*
X-17776Y60030D01*
X-17773Y60037D01*
X-17774Y60060D01*
X-17782Y60077D01*
X-17777Y60096D01*
X-17778Y60104D01*
X-17783Y60113D01*
Y61031D01*
X-17795Y61092D01*
Y64370D01*
D02*
G37*
G36*
X-37264Y58504D02*
X-39902D01*
Y56175D01*
X-39914Y56156D01*
X-39906Y56114D01*
X-39922Y56075D01*
X-39902Y56026D01*
Y55669D01*
X-39666D01*
X-39665Y55665D01*
X-39644Y55572D01*
X-39626Y55451D01*
X-39604Y55124D01*
X-39607Y55042D01*
X-39620Y54915D01*
X-39626Y54881D01*
X-39631Y54861D01*
X-39635Y54853D01*
X-39635Y54848D01*
X-39640Y54835D01*
X-39639Y54829D01*
X-39751Y54718D01*
X-39961Y54211D01*
Y53663D01*
X-39751Y53156D01*
X-39363Y52769D01*
X-38857Y52559D01*
X-38309D01*
X-37802Y52769D01*
X-37415Y53156D01*
X-37205Y53663D01*
Y54211D01*
X-37415Y54718D01*
X-37526Y54829D01*
X-37526Y54835D01*
X-37530Y54848D01*
X-37531Y54853D01*
X-37534Y54861D01*
X-37539Y54881D01*
X-37544Y54908D01*
X-37559Y55126D01*
X-37554Y55293D01*
X-37540Y55446D01*
X-37521Y55572D01*
X-37500Y55665D01*
X-37499Y55669D01*
X-37264D01*
Y56026D01*
X-37243Y56075D01*
X-37260Y56114D01*
X-37251Y56156D01*
X-37264Y56175D01*
Y58504D01*
D02*
G37*
G36*
X-48307Y64370D02*
X-52244D01*
Y59646D01*
X-50332D01*
X-50317Y59426D01*
X-50315Y59294D01*
X-50289Y59232D01*
X-50226Y58914D01*
X-50008Y58589D01*
X-49902Y58482D01*
Y58382D01*
X-49909Y58197D01*
X-49910Y58187D01*
X-49911Y58181D01*
X-49910Y58179D01*
X-49911Y58170D01*
X-49904Y58145D01*
X-49922Y58102D01*
X-49902Y58051D01*
Y58046D01*
X-49909Y57994D01*
X-49902Y57984D01*
Y56175D01*
X-49914Y56156D01*
X-49906Y56114D01*
X-49922Y56075D01*
X-49902Y56026D01*
Y55669D01*
X-49666D01*
X-49665Y55665D01*
X-49644Y55572D01*
X-49626Y55451D01*
X-49604Y55124D01*
X-49607Y55042D01*
X-49620Y54915D01*
X-49626Y54881D01*
X-49631Y54861D01*
X-49635Y54853D01*
X-49635Y54848D01*
X-49640Y54835D01*
X-49639Y54829D01*
X-49751Y54718D01*
X-49961Y54211D01*
Y53663D01*
X-49751Y53156D01*
X-49363Y52769D01*
X-48857Y52559D01*
X-48309D01*
X-47802Y52769D01*
X-47414Y53156D01*
X-47205Y53663D01*
Y54211D01*
X-47414Y54718D01*
X-47526Y54829D01*
X-47526Y54835D01*
X-47530Y54848D01*
X-47531Y54853D01*
X-47534Y54861D01*
X-47539Y54881D01*
X-47544Y54908D01*
X-47559Y55126D01*
X-47554Y55293D01*
X-47540Y55446D01*
X-47521Y55572D01*
X-47500Y55665D01*
X-47499Y55669D01*
X-47264D01*
Y55974D01*
X-47229Y55989D01*
X-47144Y56014D01*
X-47032Y56036D01*
X-46690Y56066D01*
X-46480Y56070D01*
X-46450Y56083D01*
X-44101D01*
X-44071Y56070D01*
X-43856Y56066D01*
X-43676Y56055D01*
X-43526Y56037D01*
X-43407Y56014D01*
X-43322Y55989D01*
X-43287Y55974D01*
Y55669D01*
X-42931D01*
X-42882Y55649D01*
X-42851Y55661D01*
X-42819Y55653D01*
X-42793Y55669D01*
X-42416D01*
X-42338Y55276D01*
X-42749Y55105D01*
X-43137Y54718D01*
X-43346Y54211D01*
Y53663D01*
X-43137Y53156D01*
X-42749Y52769D01*
X-42243Y52559D01*
X-41694D01*
X-41188Y52769D01*
X-40800Y53156D01*
X-40591Y53663D01*
Y54211D01*
X-40800Y54718D01*
X-41188Y55105D01*
X-41599Y55276D01*
X-41521Y55669D01*
X-40650D01*
Y58504D01*
X-42793D01*
X-42819Y58520D01*
X-42851Y58512D01*
X-42882Y58524D01*
X-42931Y58504D01*
X-43287D01*
Y58199D01*
X-43322Y58184D01*
X-43407Y58159D01*
X-43520Y58138D01*
X-43861Y58107D01*
X-44071Y58103D01*
X-44101Y58090D01*
X-46450D01*
X-46480Y58103D01*
X-46696Y58107D01*
X-46875Y58119D01*
X-47025Y58136D01*
X-47144Y58159D01*
X-47229Y58184D01*
X-47264Y58199D01*
Y58504D01*
X-47620D01*
X-47670Y58524D01*
X-47858Y58852D01*
X-47864Y58868D01*
X-47864Y58886D01*
X-47890Y58948D01*
X-47954Y59265D01*
X-48171Y59590D01*
X-48283Y59703D01*
X-48285Y60023D01*
X-48288Y60030D01*
X-48285Y60037D01*
X-48286Y60060D01*
X-48294Y60077D01*
X-48289Y60096D01*
X-48290Y60104D01*
X-48295Y60113D01*
Y61031D01*
X-48307Y61092D01*
Y64370D01*
D02*
G37*
G36*
X23896Y44409D02*
X23348D01*
X22841Y44200D01*
X22454Y43812D01*
X22244Y43306D01*
Y42757D01*
X22454Y42251D01*
X22841Y41863D01*
X23348Y41654D01*
X23896D01*
X24403Y41863D01*
X24790Y42251D01*
X25000Y42757D01*
Y43306D01*
X24790Y43812D01*
X24403Y44200D01*
X23896Y44409D01*
D02*
G37*
G36*
X8148D02*
X7600D01*
X7094Y44200D01*
X6706Y43812D01*
X6496Y43306D01*
Y42757D01*
X6706Y42251D01*
X7094Y41863D01*
X7600Y41654D01*
X8148D01*
X8655Y41863D01*
X9042Y42251D01*
X9252Y42757D01*
Y43306D01*
X9042Y43812D01*
X8655Y44200D01*
X8148Y44409D01*
D02*
G37*
G36*
X-7600D02*
X-8148D01*
X-8655Y44200D01*
X-9042Y43812D01*
X-9252Y43306D01*
Y42757D01*
X-9042Y42251D01*
X-8655Y41863D01*
X-8148Y41654D01*
X-7600D01*
X-7094Y41863D01*
X-6706Y42251D01*
X-6496Y42757D01*
Y43306D01*
X-6706Y43812D01*
X-7094Y44200D01*
X-7600Y44409D01*
D02*
G37*
G36*
X-23348D02*
X-23896D01*
X-24403Y44200D01*
X-24790Y43812D01*
X-25000Y43306D01*
Y42757D01*
X-24790Y42251D01*
X-24403Y41863D01*
X-23896Y41654D01*
X-23348D01*
X-22841Y41863D01*
X-22454Y42251D01*
X-22244Y42757D01*
Y43306D01*
X-22454Y43812D01*
X-22841Y44200D01*
X-23348Y44409D01*
D02*
G37*
G36*
X27833Y30906D02*
X27285D01*
X26779Y30696D01*
X26391Y30308D01*
X26181Y29802D01*
Y29254D01*
X26391Y28747D01*
X26779Y28359D01*
X27285Y28150D01*
X27833D01*
X28340Y28359D01*
X28727Y28747D01*
X28937Y29254D01*
Y29802D01*
X28727Y30308D01*
X28340Y30696D01*
X27833Y30906D01*
D02*
G37*
G36*
X19959D02*
X19411D01*
X18904Y30696D01*
X18517Y30308D01*
X18307Y29802D01*
Y29254D01*
X18517Y28747D01*
X18904Y28359D01*
X19411Y28150D01*
X19959D01*
X20466Y28359D01*
X20853Y28747D01*
X21063Y29254D01*
Y29802D01*
X20853Y30308D01*
X20466Y30696D01*
X19959Y30906D01*
D02*
G37*
G36*
X12085D02*
X11537D01*
X11030Y30696D01*
X10643Y30308D01*
X10433Y29802D01*
Y29254D01*
X10643Y28747D01*
X11030Y28359D01*
X11537Y28150D01*
X12085D01*
X12592Y28359D01*
X12979Y28747D01*
X13189Y29254D01*
Y29802D01*
X12979Y30308D01*
X12592Y30696D01*
X12085Y30906D01*
D02*
G37*
G36*
X4211D02*
X3663D01*
X3156Y30696D01*
X2769Y30308D01*
X2559Y29802D01*
Y29254D01*
X2769Y28747D01*
X3156Y28359D01*
X3663Y28150D01*
X4211D01*
X4718Y28359D01*
X5105Y28747D01*
X5315Y29254D01*
Y29802D01*
X5105Y30308D01*
X4718Y30696D01*
X4211Y30906D01*
D02*
G37*
G36*
X-3663D02*
X-4211D01*
X-4718Y30696D01*
X-5105Y30308D01*
X-5315Y29802D01*
Y29254D01*
X-5105Y28747D01*
X-4718Y28359D01*
X-4211Y28150D01*
X-3663D01*
X-3156Y28359D01*
X-2769Y28747D01*
X-2559Y29254D01*
Y29802D01*
X-2769Y30308D01*
X-3156Y30696D01*
X-3663Y30906D01*
D02*
G37*
G36*
X-11537D02*
X-12085D01*
X-12592Y30696D01*
X-12979Y30308D01*
X-13189Y29802D01*
Y29254D01*
X-12979Y28747D01*
X-12592Y28359D01*
X-12085Y28150D01*
X-11537D01*
X-11030Y28359D01*
X-10643Y28747D01*
X-10433Y29254D01*
Y29802D01*
X-10643Y30308D01*
X-11030Y30696D01*
X-11537Y30906D01*
D02*
G37*
G36*
X-19411D02*
X-19959D01*
X-20466Y30696D01*
X-20853Y30308D01*
X-21063Y29802D01*
Y29254D01*
X-20853Y28747D01*
X-20466Y28359D01*
X-19959Y28150D01*
X-19411D01*
X-18904Y28359D01*
X-18517Y28747D01*
X-18307Y29254D01*
Y29802D01*
X-18517Y30308D01*
X-18904Y30696D01*
X-19411Y30906D01*
D02*
G37*
G36*
X-27285D02*
X-27833D01*
X-28340Y30696D01*
X-28727Y30308D01*
X-28937Y29802D01*
Y29254D01*
X-28727Y28747D01*
X-28340Y28359D01*
X-27833Y28150D01*
X-27285D01*
X-26779Y28359D01*
X-26391Y28747D01*
X-26181Y29254D01*
Y29802D01*
X-26391Y30308D01*
X-26779Y30696D01*
X-27285Y30906D01*
D02*
G37*
%LPD*%
G36*
X52820Y56063D02*
X52766Y56028D01*
X52717Y55969D01*
X52675Y55886D01*
X52640Y55780D01*
X52611Y55650D01*
X52588Y55496D01*
X52572Y55319D01*
X52566Y55118D01*
X52584Y54857D01*
X52595Y54794D01*
X52607Y54741D01*
X52622Y54698D01*
X52639Y54664D01*
X52658Y54640D01*
X51279D01*
X51298Y54664D01*
X51315Y54698D01*
X51330Y54741D01*
X51342Y54794D01*
X51353Y54857D01*
X51369Y55011D01*
X51374Y55130D01*
X51349Y55496D01*
X51326Y55650D01*
X51297Y55780D01*
X51262Y55886D01*
X51220Y55969D01*
X51171Y56028D01*
X51117Y56063D01*
X51055Y56075D01*
X52882D01*
X52820Y56063D01*
D02*
G37*
G36*
X41838Y60051D02*
X41839Y60044D01*
X41840Y60021D01*
X41843Y59298D01*
X40662D01*
X40661Y59443D01*
X40636Y59787D01*
X40622Y59871D01*
X40604Y59940D01*
X40583Y59994D01*
X40558Y60032D01*
X40531Y60056D01*
X40500Y60063D01*
X41838Y60051D01*
D02*
G37*
G36*
X42263Y58730D02*
X42292Y58373D01*
X42309Y58286D01*
X42330Y58214D01*
X42355Y58158D01*
X42384Y58118D01*
X42417Y58095D01*
X42453Y58086D01*
X41055Y58098D01*
X41060Y58106D01*
X41064Y58130D01*
X41068Y58169D01*
X41076Y58380D01*
X41080Y58881D01*
X42261D01*
X42263Y58730D01*
D02*
G37*
G36*
X47670Y56075D02*
X47658Y56155D01*
X47622Y56227D01*
X47563Y56290D01*
X47480Y56344D01*
X47374Y56391D01*
X47244Y56429D01*
X47091Y56458D01*
X46914Y56479D01*
X46713Y56492D01*
X46488Y56496D01*
Y57677D01*
X46713Y57681D01*
X47091Y57715D01*
X47244Y57744D01*
X47374Y57782D01*
X47480Y57829D01*
X47563Y57884D01*
X47622Y57947D01*
X47658Y58018D01*
X47670Y58098D01*
Y56075D01*
D02*
G37*
G36*
X42893Y58018D02*
X42929Y57947D01*
X42988Y57884D01*
X43071Y57829D01*
X43177Y57782D01*
X43307Y57744D01*
X43460Y57715D01*
X43638Y57694D01*
X43838Y57681D01*
X44063Y57677D01*
Y56496D01*
X43838Y56492D01*
X43460Y56458D01*
X43307Y56429D01*
X43177Y56391D01*
X43071Y56344D01*
X42988Y56290D01*
X42929Y56227D01*
X42893Y56155D01*
X42882Y56075D01*
X42820Y56063D01*
X42766Y56028D01*
X42717Y55969D01*
X42675Y55886D01*
X42640Y55780D01*
X42611Y55650D01*
X42588Y55496D01*
X42572Y55319D01*
X42566Y55118D01*
X42584Y54857D01*
X42595Y54794D01*
X42607Y54741D01*
X42622Y54698D01*
X42639Y54664D01*
X42658Y54640D01*
X41280D01*
X41298Y54664D01*
X41315Y54698D01*
X41330Y54741D01*
X41342Y54794D01*
X41353Y54857D01*
X41369Y55011D01*
X41374Y55130D01*
X41349Y55496D01*
X41326Y55650D01*
X41297Y55780D01*
X41262Y55886D01*
X41220Y55969D01*
X41172Y56028D01*
X41117Y56063D01*
X41055Y56075D01*
X42882D01*
Y58098D01*
X42893Y58018D01*
D02*
G37*
G36*
X22309Y56063D02*
X22254Y56028D01*
X22205Y55969D01*
X22163Y55886D01*
X22128Y55780D01*
X22099Y55650D01*
X22076Y55496D01*
X22060Y55319D01*
X22054Y55118D01*
X22072Y54857D01*
X22083Y54794D01*
X22095Y54741D01*
X22110Y54698D01*
X22127Y54664D01*
X22146Y54640D01*
X20768D01*
X20786Y54664D01*
X20803Y54698D01*
X20818Y54741D01*
X20831Y54794D01*
X20842Y54857D01*
X20857Y55011D01*
X20862Y55130D01*
X20837Y55496D01*
X20814Y55650D01*
X20786Y55780D01*
X20750Y55886D01*
X20708Y55969D01*
X20660Y56028D01*
X20605Y56063D01*
X20543Y56075D01*
X22370D01*
X22309Y56063D01*
D02*
G37*
G36*
X11327Y60051D02*
X11327Y60044D01*
X11328Y60021D01*
X11332Y59298D01*
X10150D01*
X10149Y59443D01*
X10124Y59787D01*
X10110Y59871D01*
X10092Y59940D01*
X10071Y59994D01*
X10046Y60032D01*
X10019Y60056D01*
X9988Y60063D01*
X11327Y60051D01*
D02*
G37*
G36*
X11751Y58730D02*
X11780Y58373D01*
X11797Y58286D01*
X11818Y58214D01*
X11843Y58158D01*
X11872Y58118D01*
X11905Y58095D01*
X11941Y58086D01*
X10543Y58098D01*
X10548Y58106D01*
X10552Y58130D01*
X10556Y58169D01*
X10564Y58380D01*
X10568Y58881D01*
X11749D01*
X11751Y58730D01*
D02*
G37*
G36*
X17158Y56075D02*
X17146Y56155D01*
X17110Y56227D01*
X17051Y56290D01*
X16969Y56344D01*
X16862Y56391D01*
X16733Y56429D01*
X16579Y56458D01*
X16402Y56479D01*
X16201Y56492D01*
X15977Y56496D01*
Y57677D01*
X16201Y57681D01*
X16579Y57715D01*
X16733Y57744D01*
X16862Y57782D01*
X16969Y57829D01*
X17051Y57884D01*
X17110Y57947D01*
X17146Y58018D01*
X17158Y58098D01*
Y56075D01*
D02*
G37*
G36*
X12382Y58018D02*
X12417Y57947D01*
X12476Y57884D01*
X12559Y57829D01*
X12665Y57782D01*
X12795Y57744D01*
X12949Y57715D01*
X13126Y57694D01*
X13327Y57681D01*
X13551Y57677D01*
Y56496D01*
X13327Y56492D01*
X12949Y56458D01*
X12795Y56429D01*
X12665Y56391D01*
X12559Y56344D01*
X12476Y56290D01*
X12417Y56227D01*
X12382Y56155D01*
X12370Y56075D01*
X12309Y56063D01*
X12254Y56028D01*
X12205Y55969D01*
X12163Y55886D01*
X12128Y55780D01*
X12099Y55650D01*
X12076Y55496D01*
X12060Y55319D01*
X12054Y55118D01*
X12072Y54857D01*
X12083Y54794D01*
X12095Y54741D01*
X12110Y54698D01*
X12127Y54664D01*
X12146Y54640D01*
X10768D01*
X10786Y54664D01*
X10803Y54698D01*
X10818Y54741D01*
X10831Y54794D01*
X10842Y54857D01*
X10857Y55011D01*
X10862Y55130D01*
X10837Y55496D01*
X10814Y55650D01*
X10785Y55780D01*
X10750Y55886D01*
X10708Y55969D01*
X10660Y56028D01*
X10605Y56063D01*
X10543Y56075D01*
X12370D01*
Y58098D01*
X12382Y58018D01*
D02*
G37*
G36*
X-7219Y56063D02*
X-7274Y56028D01*
X-7322Y55969D01*
X-7364Y55886D01*
X-7400Y55780D01*
X-7429Y55650D01*
X-7451Y55496D01*
X-7467Y55319D01*
X-7474Y55118D01*
X-7456Y54857D01*
X-7445Y54794D01*
X-7432Y54741D01*
X-7417Y54698D01*
X-7401Y54664D01*
X-7382Y54640D01*
X-8760D01*
X-8741Y54664D01*
X-8724Y54698D01*
X-8710Y54741D01*
X-8697Y54794D01*
X-8686Y54857D01*
X-8670Y55011D01*
X-8665Y55130D01*
X-8691Y55496D01*
X-8713Y55650D01*
X-8742Y55780D01*
X-8778Y55886D01*
X-8820Y55969D01*
X-8868Y56028D01*
X-8923Y56063D01*
X-8984Y56075D01*
X-7158D01*
X-7219Y56063D01*
D02*
G37*
G36*
X-18201Y60051D02*
X-18200Y60044D01*
X-18199Y60021D01*
X-18196Y59298D01*
X-19377D01*
X-19379Y59443D01*
X-19403Y59787D01*
X-19418Y59871D01*
X-19436Y59940D01*
X-19457Y59994D01*
X-19481Y60032D01*
X-19509Y60056D01*
X-19540Y60063D01*
X-18201Y60051D01*
D02*
G37*
G36*
X-17776Y58730D02*
X-17748Y58373D01*
X-17730Y58286D01*
X-17709Y58214D01*
X-17684Y58158D01*
X-17655Y58118D01*
X-17623Y58095D01*
X-17586Y58086D01*
X-18984Y58098D01*
X-18979Y58106D01*
X-18975Y58130D01*
X-18971Y58169D01*
X-18963Y58380D01*
X-18959Y58881D01*
X-17778D01*
X-17776Y58730D01*
D02*
G37*
G36*
X-12370Y56075D02*
X-12382Y56155D01*
X-12417Y56227D01*
X-12476Y56290D01*
X-12559Y56344D01*
X-12665Y56391D01*
X-12795Y56429D01*
X-12949Y56458D01*
X-13126Y56479D01*
X-13327Y56492D01*
X-13551Y56496D01*
Y57677D01*
X-13327Y57681D01*
X-12949Y57715D01*
X-12795Y57744D01*
X-12665Y57782D01*
X-12559Y57829D01*
X-12476Y57884D01*
X-12417Y57947D01*
X-12382Y58018D01*
X-12370Y58098D01*
Y56075D01*
D02*
G37*
G36*
X-17146Y58018D02*
X-17110Y57947D01*
X-17051Y57884D01*
X-16969Y57829D01*
X-16862Y57782D01*
X-16733Y57744D01*
X-16579Y57715D01*
X-16402Y57694D01*
X-16201Y57681D01*
X-15977Y57677D01*
Y56496D01*
X-16201Y56492D01*
X-16579Y56458D01*
X-16733Y56429D01*
X-16862Y56391D01*
X-16969Y56344D01*
X-17051Y56290D01*
X-17110Y56227D01*
X-17146Y56155D01*
X-17158Y56075D01*
X-17219Y56063D01*
X-17274Y56028D01*
X-17322Y55969D01*
X-17364Y55886D01*
X-17400Y55780D01*
X-17429Y55650D01*
X-17451Y55496D01*
X-17467Y55319D01*
X-17473Y55118D01*
X-17456Y54857D01*
X-17445Y54794D01*
X-17432Y54741D01*
X-17417Y54698D01*
X-17401Y54664D01*
X-17382Y54640D01*
X-18760D01*
X-18741Y54664D01*
X-18724Y54698D01*
X-18710Y54741D01*
X-18697Y54794D01*
X-18686Y54857D01*
X-18670Y55011D01*
X-18665Y55130D01*
X-18690Y55496D01*
X-18713Y55650D01*
X-18742Y55780D01*
X-18778Y55886D01*
X-18820Y55969D01*
X-18868Y56028D01*
X-18923Y56063D01*
X-18984Y56075D01*
X-17158D01*
Y58098D01*
X-17146Y58018D01*
D02*
G37*
G36*
X-37731Y56063D02*
X-37786Y56028D01*
X-37834Y55969D01*
X-37876Y55886D01*
X-37911Y55780D01*
X-37940Y55650D01*
X-37963Y55496D01*
X-37979Y55319D01*
X-37985Y55118D01*
X-37968Y54857D01*
X-37957Y54794D01*
X-37944Y54741D01*
X-37929Y54698D01*
X-37912Y54664D01*
X-37894Y54640D01*
X-39272D01*
X-39253Y54664D01*
X-39236Y54698D01*
X-39222Y54741D01*
X-39209Y54794D01*
X-39198Y54857D01*
X-39182Y55011D01*
X-39177Y55130D01*
X-39202Y55496D01*
X-39225Y55650D01*
X-39254Y55780D01*
X-39289Y55886D01*
X-39331Y55969D01*
X-39380Y56028D01*
X-39435Y56063D01*
X-39496Y56075D01*
X-37670D01*
X-37731Y56063D01*
D02*
G37*
G36*
X-48713Y60051D02*
X-48712Y60044D01*
X-48711Y60021D01*
X-48708Y59298D01*
X-49889D01*
X-49891Y59443D01*
X-49915Y59787D01*
X-49930Y59871D01*
X-49947Y59940D01*
X-49968Y59994D01*
X-49993Y60032D01*
X-50020Y60056D01*
X-50051Y60063D01*
X-48713Y60051D01*
D02*
G37*
G36*
X-48288Y58730D02*
X-48259Y58373D01*
X-48242Y58286D01*
X-48221Y58214D01*
X-48196Y58158D01*
X-48167Y58118D01*
X-48135Y58095D01*
X-48098Y58086D01*
X-49496Y58098D01*
X-49491Y58106D01*
X-49487Y58130D01*
X-49483Y58169D01*
X-49475Y58380D01*
X-49471Y58881D01*
X-48290D01*
X-48288Y58730D01*
D02*
G37*
G36*
X-42882Y56075D02*
X-42893Y56155D01*
X-42929Y56227D01*
X-42988Y56290D01*
X-43071Y56344D01*
X-43177Y56391D01*
X-43307Y56429D01*
X-43460Y56458D01*
X-43638Y56479D01*
X-43838Y56492D01*
X-44063Y56496D01*
Y57677D01*
X-43838Y57681D01*
X-43460Y57715D01*
X-43307Y57744D01*
X-43177Y57782D01*
X-43071Y57829D01*
X-42988Y57884D01*
X-42929Y57947D01*
X-42893Y58018D01*
X-42882Y58098D01*
Y56075D01*
D02*
G37*
G36*
X-47658Y58018D02*
X-47622Y57947D01*
X-47563Y57884D01*
X-47480Y57829D01*
X-47374Y57782D01*
X-47244Y57744D01*
X-47091Y57715D01*
X-46914Y57694D01*
X-46713Y57681D01*
X-46488Y57677D01*
Y56496D01*
X-46713Y56492D01*
X-47091Y56458D01*
X-47244Y56429D01*
X-47374Y56391D01*
X-47480Y56344D01*
X-47563Y56290D01*
X-47622Y56227D01*
X-47658Y56155D01*
X-47670Y56075D01*
X-47731Y56063D01*
X-47786Y56028D01*
X-47834Y55969D01*
X-47876Y55886D01*
X-47912Y55780D01*
X-47940Y55650D01*
X-47963Y55496D01*
X-47979Y55319D01*
X-47985Y55118D01*
X-47967Y54857D01*
X-47957Y54794D01*
X-47944Y54741D01*
X-47929Y54698D01*
X-47912Y54664D01*
X-47894Y54640D01*
X-49272D01*
X-49253Y54664D01*
X-49236Y54698D01*
X-49222Y54741D01*
X-49209Y54794D01*
X-49198Y54857D01*
X-49182Y55011D01*
X-49177Y55130D01*
X-49202Y55496D01*
X-49225Y55650D01*
X-49254Y55780D01*
X-49289Y55886D01*
X-49331Y55969D01*
X-49380Y56028D01*
X-49435Y56063D01*
X-49496Y56075D01*
X-47670D01*
Y58098D01*
X-47658Y58018D01*
D02*
G37*
D13*
X19764Y121791D02*
D03*
Y114429D02*
D03*
X9764Y121791D02*
D03*
Y114429D02*
D03*
Y109980D02*
D03*
Y102618D02*
D03*
X19764Y109980D02*
D03*
Y102618D02*
D03*
X-9764Y109980D02*
D03*
Y102618D02*
D03*
X-19764Y109980D02*
D03*
Y102618D02*
D03*
X-9764Y121791D02*
D03*
Y114429D02*
D03*
X-19764Y121791D02*
D03*
Y114429D02*
D03*
X-50276D02*
D03*
Y121791D02*
D03*
X-40276Y114429D02*
D03*
Y121791D02*
D03*
X-50276Y102618D02*
D03*
Y109980D02*
D03*
X-40276Y102618D02*
D03*
Y109980D02*
D03*
X50276Y114429D02*
D03*
Y121791D02*
D03*
Y102618D02*
D03*
Y109980D02*
D03*
X40276Y102618D02*
D03*
Y109980D02*
D03*
Y121791D02*
D03*
Y114429D02*
D03*
D14*
X20276Y94488D02*
D03*
X9252D02*
D03*
X-20276D02*
D03*
X-9252D02*
D03*
X-39764D02*
D03*
X-50787D02*
D03*
X50787D02*
D03*
X39764D02*
D03*
D15*
X9764Y128937D02*
D03*
X19764D02*
D03*
Y154528D02*
D03*
X9764D02*
D03*
X-19764D02*
D03*
X-9764D02*
D03*
Y128937D02*
D03*
X-19764D02*
D03*
X-50276D02*
D03*
X-40276D02*
D03*
Y154528D02*
D03*
X-50276D02*
D03*
X40276Y128937D02*
D03*
X50276D02*
D03*
Y154528D02*
D03*
X40276D02*
D03*
D16*
X-38770Y165354D02*
D03*
X21270D02*
D03*
X-8258D02*
D03*
X51781D02*
D03*
D17*
X18071Y57087D02*
D03*
X21457D02*
D03*
X8071D02*
D03*
X11457D02*
D03*
X-8071D02*
D03*
X-11457D02*
D03*
X-21457D02*
D03*
X-18071D02*
D03*
X-41969D02*
D03*
X-38583D02*
D03*
X-51968D02*
D03*
X-48583D02*
D03*
X41969D02*
D03*
X38583D02*
D03*
X48583D02*
D03*
X51968D02*
D03*
D18*
X9764Y62008D02*
D03*
X19764D02*
D03*
Y87598D02*
D03*
X9764D02*
D03*
X-19764D02*
D03*
X-9764D02*
D03*
Y62008D02*
D03*
X-19764D02*
D03*
X-50276Y87598D02*
D03*
X-40276D02*
D03*
Y62008D02*
D03*
X-50276D02*
D03*
X40276Y87598D02*
D03*
X50276D02*
D03*
Y62008D02*
D03*
X40276D02*
D03*
D36*
X-48026Y165354D02*
D03*
X12014D02*
D03*
X-17514D02*
D03*
X42526D02*
D03*
D37*
X46457Y5512D02*
D03*
X43307D02*
D03*
X40157D02*
D03*
X37008D02*
D03*
X33858D02*
D03*
X30709D02*
D03*
X27559D02*
D03*
X24409D02*
D03*
X21260D02*
D03*
X18110D02*
D03*
X14961D02*
D03*
X11811D02*
D03*
X8661D02*
D03*
X5512D02*
D03*
X2362D02*
D03*
X-787D02*
D03*
X-3937D02*
D03*
X-7087D02*
D03*
X-22835D02*
D03*
X-25984D02*
D03*
X-29134D02*
D03*
X-32283D02*
D03*
X-35433D02*
D03*
X-38583D02*
D03*
X-41732D02*
D03*
X-44882D02*
D03*
D38*
X50276Y146653D02*
Y154528D01*
X19764Y146653D02*
Y154528D01*
X-9764Y146653D02*
Y154528D01*
X-40276Y146653D02*
Y154528D01*
X40276D02*
Y163104D01*
X42526Y165354D01*
X51051Y155303D02*
Y159000D01*
X51781Y159730D02*
Y165354D01*
X50276Y154528D02*
X51051Y155303D01*
Y159000D02*
X51781Y159730D01*
X9764Y154528D02*
Y163104D01*
X12014Y165354D01*
X20539Y155303D02*
Y159000D01*
X21270Y159730D02*
Y165354D01*
X19764Y154528D02*
X20539Y155303D01*
Y159000D02*
X21270Y159730D01*
X-19764Y154528D02*
Y163104D01*
X-17514Y165354D01*
X-8988Y155303D02*
Y159000D01*
X-8258Y159730D02*
Y165354D01*
X-9764Y154528D02*
X-8988Y155303D01*
Y159000D02*
X-8258Y159730D01*
X-39500Y159000D02*
X-38770Y159730D01*
X-40276Y154528D02*
X-39500Y155303D01*
X-38770Y159730D02*
Y165354D01*
X-39500Y155303D02*
Y159000D01*
X-50276Y163104D02*
X-48026Y165354D01*
X-50276Y154528D02*
Y163104D01*
X50276Y109980D02*
Y114429D01*
X40276Y109980D02*
Y114429D01*
X40276Y128937D02*
X40276Y128937D01*
Y121791D02*
Y128937D01*
X50276Y121791D02*
Y128937D01*
X50276Y128937D02*
X50276Y128937D01*
X45051Y89653D02*
X46122Y88583D01*
X49685D01*
X50276Y87992D01*
Y87598D02*
Y87992D01*
X45051Y89653D02*
Y91500D01*
X43001Y93550D02*
X45051Y91500D01*
X40663Y93550D02*
X43001D01*
X40157Y102618D02*
X40276D01*
X39764Y94488D02*
Y102224D01*
X40157Y102618D01*
X50787Y94488D02*
X50799Y94500D01*
X53898D01*
X55051Y93347D01*
Y84500D02*
Y93347D01*
X53051Y82500D02*
X55051Y84500D01*
X40866Y83685D02*
X42051Y82500D01*
X40866Y83685D02*
Y87008D01*
X40276Y87598D02*
X40866Y87008D01*
X42051Y82500D02*
X53051D01*
X50276Y102618D02*
X50394D01*
X50787Y102224D01*
Y94488D02*
Y102224D01*
X19764Y109980D02*
Y114429D01*
X9764Y109980D02*
Y114429D01*
X9764Y128937D02*
X9764Y128937D01*
Y121791D02*
Y128937D01*
X19764Y121791D02*
Y128937D01*
X19764Y128937D02*
X19764Y128937D01*
X14539Y89653D02*
X15610Y88583D01*
X19173D01*
X19764Y87992D01*
Y87598D02*
Y87992D01*
X14539Y89653D02*
Y91500D01*
X12489Y93550D02*
X14539Y91500D01*
X10151Y93550D02*
X12489D01*
X9646Y102618D02*
X9764D01*
X9252Y94488D02*
Y102224D01*
X9646Y102618D01*
X20276Y94488D02*
X20287Y94500D01*
X23386D01*
X24539Y93347D01*
Y84500D02*
Y93347D01*
X22539Y82500D02*
X24539Y84500D01*
X10354Y83685D02*
X11539Y82500D01*
X10354Y83685D02*
Y87008D01*
X9764Y87598D02*
X10354Y87008D01*
X11539Y82500D02*
X22539D01*
X19764Y102618D02*
X19882D01*
X20276Y102224D01*
Y94488D02*
Y102224D01*
X-9764Y109980D02*
Y114429D01*
X-19764Y109980D02*
Y114429D01*
X-19764Y128937D02*
X-19764Y128937D01*
Y121791D02*
Y128937D01*
X-9764Y121791D02*
Y128937D01*
X-9764Y128937D02*
X-9764Y128937D01*
X-14988Y89653D02*
X-13918Y88583D01*
X-10354D01*
X-9764Y87992D01*
Y87598D02*
Y87992D01*
X-14988Y89653D02*
Y91500D01*
X-17038Y93550D02*
X-14988Y91500D01*
X-19377Y93550D02*
X-17038D01*
X-19882Y102618D02*
X-19764D01*
X-20276Y94488D02*
Y102224D01*
X-19882Y102618D01*
X-9252Y94488D02*
X-9240Y94500D01*
X-6141D01*
X-4988Y93347D01*
Y84500D02*
Y93347D01*
X-6988Y82500D02*
X-4988Y84500D01*
X-19173Y83685D02*
X-17988Y82500D01*
X-19173Y83685D02*
Y87008D01*
X-19764Y87598D02*
X-19173Y87008D01*
X-17988Y82500D02*
X-6988D01*
X-9764Y102618D02*
X-9646D01*
X-9252Y102224D01*
Y94488D02*
Y102224D01*
X-39764Y94488D02*
Y102224D01*
X-40157Y102618D02*
X-39764Y102224D01*
X-40276Y102618D02*
X-40157D01*
X-48500Y82500D02*
X-37500D01*
X-50276Y87598D02*
X-49685Y87008D01*
Y83685D02*
Y87008D01*
Y83685D02*
X-48500Y82500D01*
X-37500D02*
X-35500Y84500D01*
Y93347D01*
X-36653Y94500D02*
X-35500Y93347D01*
X-39752Y94500D02*
X-36653D01*
X-39764Y94488D02*
X-39752Y94500D01*
X-50787Y102224D02*
X-50394Y102618D01*
X-50787Y94488D02*
Y102224D01*
X-50394Y102618D02*
X-50276D01*
X-49889Y93550D02*
X-47550D01*
X-45500Y91500D01*
Y89653D02*
Y91500D01*
X-40276Y87598D02*
Y87992D01*
X-40866Y88583D02*
X-40276Y87992D01*
X-44429Y88583D02*
X-40866D01*
X-45500Y89653D02*
X-44429Y88583D01*
X-40276Y128937D02*
X-40276Y128937D01*
Y121791D02*
Y128937D01*
X-50276Y121791D02*
Y128937D01*
X-50276Y128937D02*
X-50276Y128937D01*
Y109980D02*
Y114429D01*
X-40276Y109980D02*
Y114429D01*
X-7087Y5512D02*
Y15354D01*
X2362Y5512D02*
Y15354D01*
X30709Y5512D02*
Y15354D01*
X37008Y5512D02*
Y15354D01*
X46457Y5512D02*
Y15354D01*
X-22835Y5512D02*
Y15354D01*
D39*
X-38583Y53937D02*
Y57087D01*
X51968Y53937D02*
Y57087D01*
X21457Y53937D02*
Y57087D01*
X-8071Y53937D02*
Y57087D01*
X8661Y5512D02*
Y12795D01*
X18110Y5512D02*
Y12795D01*
X41969Y57087D02*
X48583D01*
X40276Y62008D02*
X41253Y61031D01*
X41671Y57385D02*
Y58881D01*
X41253Y59298D02*
Y61031D01*
Y59298D02*
X41671Y58881D01*
Y57385D02*
X41969Y57087D01*
Y53937D02*
Y57087D01*
X11457Y53937D02*
Y57087D01*
X11159Y57385D02*
X11457Y57087D01*
X10741Y59298D02*
X11159Y58881D01*
X10741Y59298D02*
Y61031D01*
X11159Y57385D02*
Y58881D01*
X9764Y62008D02*
X10741Y61031D01*
X11457Y57087D02*
X18071D01*
X-18071D02*
X-11457D01*
X-19764Y62008D02*
X-18787Y61031D01*
X-18369Y57385D02*
Y58881D01*
X-18787Y59298D02*
Y61031D01*
Y59298D02*
X-18369Y58881D01*
Y57385D02*
X-18071Y57087D01*
Y53937D02*
Y57087D01*
X-48583Y53937D02*
Y57087D01*
X-48881Y57385D02*
X-48583Y57087D01*
X-49298Y59298D02*
X-48881Y58881D01*
X-49298Y59298D02*
Y61031D01*
X-48881Y57385D02*
Y58881D01*
X-50276Y62008D02*
X-49298Y61031D01*
X-48583Y57087D02*
X-41969D01*
X14961Y5512D02*
Y12795D01*
X11811Y5512D02*
Y12795D01*
X27559Y5512D02*
Y12795D01*
X24409Y5512D02*
Y12795D01*
X21260Y5512D02*
Y12795D01*
X5512Y5512D02*
Y12795D01*
X-35433Y5512D02*
Y12795D01*
D40*
X5000Y222441D02*
D03*
X-5000D02*
D03*
X-15000D02*
D03*
X-25000D02*
D03*
X-35000D02*
D03*
X45000D02*
D03*
X35000D02*
D03*
X25000D02*
D03*
X15000D02*
D03*
D41*
X-45000D02*
D03*
D42*
X47638Y189173D02*
D03*
X-47638D02*
D03*
D43*
X-31496Y32480D02*
D03*
X31496D02*
D03*
X23622D02*
D03*
X15748D02*
D03*
X7874D02*
D03*
X0D02*
D03*
X-7874D02*
D03*
X-15748D02*
D03*
X-23622D02*
D03*
X45276Y51181D02*
D03*
X14764D02*
D03*
X-14764D02*
D03*
X-45276D02*
D03*
X55118Y19685D02*
D03*
X-55118D02*
D03*
Y35433D02*
D03*
X55118D02*
D03*
Y51181D02*
D03*
X35433D02*
D03*
X24606D02*
D03*
X4921D02*
D03*
X-4921D02*
D03*
X-24606D02*
D03*
X-55118D02*
D03*
X-35433D02*
D03*
X35433Y66929D02*
D03*
X55118D02*
D03*
X4921D02*
D03*
X24606D02*
D03*
X-24606D02*
D03*
X-4921D02*
D03*
X-35433D02*
D03*
X-55118D02*
D03*
X-50276Y146653D02*
D03*
X40276D02*
D03*
X9764D02*
D03*
X-19764D02*
D03*
X50276D02*
D03*
X19764D02*
D03*
X-9764D02*
D03*
X-40276D02*
D03*
X-7874Y43031D02*
D03*
X51968Y53937D02*
D03*
X21457D02*
D03*
X-8071D02*
D03*
X-38583D02*
D03*
X7874Y43031D02*
D03*
X23622D02*
D03*
X-23622D02*
D03*
X-11811Y29528D02*
D03*
X8661Y12795D02*
D03*
X18110D02*
D03*
X41969Y53937D02*
D03*
X48583D02*
D03*
X18071D02*
D03*
X11457D02*
D03*
X-18071D02*
D03*
X-11457D02*
D03*
X-48583D02*
D03*
X-41969D02*
D03*
X27559Y29528D02*
D03*
X19685D02*
D03*
X11811D02*
D03*
X3937D02*
D03*
X-3937D02*
D03*
X-19685D02*
D03*
X-27559D02*
D03*
X14961Y12795D02*
D03*
X11811D02*
D03*
X27559D02*
D03*
X24409D02*
D03*
X21260D02*
D03*
X5512D02*
D03*
X-35433D02*
D03*
M02*
