G04*
G04 #@! TF.GenerationSoftware,Altium Limited,Altium Designer,24.7.2 (38)*
G04*
G04 Layer_Color=32768*
%FSLAX25Y25*%
%MOIN*%
G70*
G04*
G04 #@! TF.SameCoordinates,4FEF5C06-4E4D-4149-9763-4A6A228635AC*
G04*
G04*
G04 #@! TF.FilePolarity,Positive*
G04*
G01*
G75*
%ADD45C,0.00039*%
%ADD46C,0.00079*%
D45*
X-36220Y160236D02*
Y170472D01*
X-54331Y160236D02*
Y170472D01*
Y160236D02*
X-36220D01*
X-54331Y170472D02*
X-36220D01*
X16811Y55610D02*
Y58563D01*
X22716D01*
X16811Y55610D02*
X22716D01*
Y58563D01*
X16614Y123622D02*
X22913D01*
Y112598D02*
Y123622D01*
X16614Y112598D02*
Y123622D01*
Y112598D02*
X22913D01*
X24606Y59842D02*
Y89764D01*
X4921Y59842D02*
Y89764D01*
Y59842D02*
X24606D01*
X4921Y89764D02*
X24606D01*
X6614Y123622D02*
X12913D01*
Y112598D02*
Y123622D01*
X6614Y112598D02*
Y123622D01*
Y112598D02*
X12913D01*
X4921Y125591D02*
X24606D01*
X4921Y157874D02*
X24606D01*
Y125591D02*
Y157874D01*
X4921Y125591D02*
Y157874D01*
X6614Y111811D02*
X12913D01*
Y100787D02*
Y111811D01*
X6614Y100787D02*
Y111811D01*
Y100787D02*
X12913D01*
X16614Y111811D02*
X22913D01*
Y100787D02*
Y111811D01*
X16614Y100787D02*
Y111811D01*
Y100787D02*
X22913D01*
X6890Y98032D02*
X22638Y98032D01*
X22638Y90945D02*
X22638Y98032D01*
X6890Y90945D02*
X6890Y98032D01*
X6890Y90945D02*
X22638Y90945D01*
X23819Y160236D02*
Y170472D01*
X5709Y160236D02*
Y170472D01*
Y160236D02*
X23819D01*
X5709Y170472D02*
X23819D01*
X-6811Y55610D02*
Y58563D01*
X-12717Y55610D02*
X-6811D01*
X-12717Y58563D02*
X-6811D01*
X-12717Y55610D02*
Y58563D01*
X-12913Y111811D02*
X-6614D01*
Y100787D02*
Y111811D01*
X-12913Y100787D02*
Y111811D01*
Y100787D02*
X-6614D01*
X-22638Y90945D02*
X-6890Y90945D01*
X-22638Y90945D02*
X-22638Y98032D01*
X-6890Y90945D02*
X-6890Y98032D01*
X-22638Y98032D02*
X-6890Y98032D01*
X-22913Y111811D02*
X-16614D01*
Y100787D02*
Y111811D01*
X-22913Y100787D02*
Y111811D01*
Y100787D02*
X-16614D01*
X-24606Y125591D02*
Y157874D01*
X-4921Y125591D02*
Y157874D01*
X-24606D02*
X-4921D01*
X-24606Y125591D02*
X-4921D01*
X-23819Y170472D02*
X-5709D01*
X-23819Y160236D02*
X-5709D01*
X-23819D02*
Y170472D01*
X-5709Y160236D02*
Y170472D01*
X-24606Y89764D02*
X-4921D01*
X-24606Y59842D02*
X-4921D01*
X-24606D02*
Y89764D01*
X-4921Y59842D02*
Y89764D01*
X-12913Y123622D02*
X-6614D01*
Y112598D02*
Y123622D01*
X-12913Y112598D02*
Y123622D01*
Y112598D02*
X-6614D01*
X-22913Y123622D02*
X-16614D01*
Y112598D02*
Y123622D01*
X-22913Y112598D02*
Y123622D01*
Y112598D02*
X-16614D01*
X-53425D02*
X-47126D01*
X-53425D02*
Y123622D01*
X-47126Y112598D02*
Y123622D01*
X-53425D02*
X-47126D01*
X-43425Y112598D02*
X-37126D01*
X-43425D02*
Y123622D01*
X-37126Y112598D02*
Y123622D01*
X-43425D02*
X-37126D01*
X-55118Y125591D02*
X-35433D01*
X-55118Y157874D02*
X-35433D01*
Y125591D02*
Y157874D01*
X-55118Y125591D02*
Y157874D01*
X-53425Y100787D02*
X-47126D01*
X-53425D02*
Y111811D01*
X-47126Y100787D02*
Y111811D01*
X-53425D02*
X-47126D01*
X-53150Y98032D02*
X-37402Y98032D01*
X-37402Y90945D02*
X-37402Y98032D01*
X-53150Y90945D02*
X-53150Y98032D01*
X-53150Y90945D02*
X-37402Y90945D01*
X-43425Y100787D02*
X-37126D01*
X-43425D02*
Y111811D01*
X-37126Y100787D02*
Y111811D01*
X-43425D02*
X-37126D01*
X-43228Y55610D02*
Y58563D01*
X-37323D01*
X-43228Y55610D02*
X-37323D01*
Y58563D01*
X-55118Y89764D02*
X-35433D01*
X-55118Y59842D02*
X-35433D01*
X-55118D02*
Y89764D01*
X-35433Y59842D02*
Y89764D01*
X54331Y160236D02*
Y170472D01*
X36220Y160236D02*
Y170472D01*
Y160236D02*
X54331D01*
X36220Y170472D02*
X54331D01*
X47126Y112598D02*
X53425D01*
X47126D02*
Y123622D01*
X53425Y112598D02*
Y123622D01*
X47126D02*
X53425D01*
X47126Y100787D02*
X53425D01*
X47126D02*
Y111811D01*
X53425Y100787D02*
Y111811D01*
X47126D02*
X53425D01*
X37126Y100787D02*
X43425D01*
X37126D02*
Y111811D01*
X43425Y100787D02*
Y111811D01*
X37126D02*
X43425D01*
X37126Y123622D02*
X43425D01*
Y112598D02*
Y123622D01*
X37126Y112598D02*
Y123622D01*
Y112598D02*
X43425D01*
X35433Y125591D02*
X55118D01*
X35433Y157874D02*
X55118D01*
Y125591D02*
Y157874D01*
X35433Y125591D02*
Y157874D01*
X37402Y98032D02*
X53150Y98032D01*
X53150Y90945D02*
X53150Y98032D01*
X37402Y90945D02*
X37402Y98032D01*
X37402Y90945D02*
X53150Y90945D01*
X35433Y89764D02*
X55118D01*
X35433Y59842D02*
X55118D01*
X35433D02*
Y89764D01*
X55118Y59842D02*
Y89764D01*
X47323Y55610D02*
Y58563D01*
X53228D01*
X47323Y55610D02*
X53228D01*
Y58563D01*
D46*
X6811Y55610D02*
Y58563D01*
X12717Y55610D02*
Y58563D01*
X6811Y55610D02*
X12717D01*
X6811Y58563D02*
X12717D01*
X-22716Y55610D02*
Y58563D01*
X-16811Y55610D02*
Y58563D01*
X-22716Y55610D02*
X-16811D01*
X-22716Y58563D02*
X-16811D01*
X-53228Y55610D02*
Y58563D01*
X-47323Y55610D02*
Y58563D01*
X-53228Y55610D02*
X-47323D01*
X-53228Y58563D02*
X-47323D01*
X37323D02*
X43228D01*
X37323Y55610D02*
X43228D01*
Y58563D01*
X37323Y55610D02*
Y58563D01*
M02*
