G04*
G04 #@! TF.GenerationSoftware,Altium Limited,Altium Designer,22.1.2 (22)*
G04*
G04 Layer_Color=2752767*
%FSLAX25Y25*%
%MOIN*%
G70*
G04*
G04 #@! TF.SameCoordinates,6C204DCC-978F-4A87-A690-EB2E95B516E8*
G04*
G04*
G04 #@! TF.FilePolarity,Positive*
G04*
G01*
G75*
%ADD44C,0.00200*%
%ADD45C,0.00267*%
D44*
X-406Y199987D02*
Y201587D01*
X1194D01*
Y199987D01*
X-406D01*
X9436D02*
Y201587D01*
X11036D01*
Y199987D01*
X9436D01*
X-29934D02*
Y201587D01*
X-28334D01*
Y199987D01*
X-29934D01*
X-10249D02*
Y201587D01*
X-8649D01*
Y199987D01*
X-10249D01*
X-20091D02*
Y201587D01*
X-18491D01*
Y199987D01*
X-20091D01*
X58649D02*
Y201587D01*
X60249D01*
Y199987D01*
X58649D01*
X48806D02*
Y201587D01*
X50406D01*
Y199987D01*
X48806D01*
X38964D02*
Y201587D01*
X40564D01*
Y199987D01*
X38964D01*
X29121D02*
Y201587D01*
X30721D01*
Y199987D01*
X29121D01*
X19279D02*
Y201587D01*
X20879D01*
Y199987D01*
X19279D01*
X-8000Y46200D02*
X-8800Y47800D01*
X-7200D01*
X-8000Y46200D01*
X-5000Y33700D02*
X-5800Y35300D01*
X-4200D01*
X-5000Y33700D01*
X11500Y10200D02*
X10700Y11800D01*
X12300D01*
X11500Y10200D01*
X1500Y36700D02*
X700Y38300D01*
X2300D01*
X1500Y36700D01*
X-38000Y7700D02*
X-38800Y9300D01*
X-37200D01*
X-38000Y7700D01*
X70500Y6700D02*
X69700Y8300D01*
X71300D01*
X70500Y6700D01*
X70000Y76200D02*
X69200Y77800D01*
X70800D01*
X70000Y76200D01*
X-36500D02*
X-37300Y77800D01*
X-35700D01*
X-36500Y76200D01*
X47000Y8200D02*
X46200Y9800D01*
X47800D01*
X47000Y8200D01*
X24500Y52200D02*
X23700Y53800D01*
X25300D01*
X24500Y52200D01*
X26500Y57700D02*
X25700Y59300D01*
X27300D01*
X26500Y57700D01*
X15000Y63200D02*
X14200Y64800D01*
X15800D01*
X15000Y63200D01*
X3000Y57700D02*
X2200Y59300D01*
X3800D01*
X3000Y57700D01*
X9000Y51200D02*
X8200Y52800D01*
X9800D01*
X9000Y51200D01*
X-7035Y53558D02*
X-7835Y55158D01*
X-6236D01*
X-7035Y53558D01*
X-18846D02*
X-19647Y55158D01*
X-18046D01*
X-18846Y53558D01*
X69736D02*
X68936Y55158D01*
X70536D01*
X69736Y53558D01*
X63831Y41747D02*
X63031Y43347D01*
X64631D01*
X63831Y41747D01*
X69736Y29936D02*
X68936Y31536D01*
X70536D01*
X69736Y29936D01*
X63831Y18125D02*
X63031Y19725D01*
X64631D01*
X63831Y18125D01*
X57925Y53558D02*
X57125Y55158D01*
X58725D01*
X57925Y53558D01*
X52020Y41747D02*
X51220Y43347D01*
X52820D01*
X52020Y41747D01*
X57925Y29936D02*
X57125Y31536D01*
X58725D01*
X57925Y29936D01*
X52020Y18125D02*
X51220Y19725D01*
X52820D01*
X52020Y18125D01*
X46114Y53558D02*
X45314Y55158D01*
X46914D01*
X46114Y53558D01*
X40209Y41747D02*
X39409Y43347D01*
X41009D01*
X40209Y41747D01*
X46114Y29936D02*
X45314Y31536D01*
X46914D01*
X46114Y29936D01*
X40209Y18125D02*
X39409Y19725D01*
X41009D01*
X40209Y18125D01*
X34303Y53558D02*
X33503Y55158D01*
X35103D01*
X34303Y53558D01*
Y29936D02*
X33503Y31536D01*
X35103D01*
X34303Y29936D01*
X16587Y18125D02*
X15787Y19725D01*
X17387D01*
X16587Y18125D01*
X10681Y29936D02*
X9881Y31536D01*
X11481D01*
X10681Y29936D01*
X4775Y18125D02*
X3976Y19725D01*
X5576D01*
X4775Y18125D01*
X-7035D02*
X-7835Y19725D01*
X-6236D01*
X-7035Y18125D01*
X-12941Y29936D02*
X-13741Y31536D01*
X-12141D01*
X-12941Y29936D01*
X-18846Y18125D02*
X-19647Y19725D01*
X-18046D01*
X-18846Y18125D01*
X-30658Y41747D02*
X-31458Y43347D01*
X-29858D01*
X-30658Y41747D01*
X-24752Y29936D02*
X-25552Y31536D01*
X-23952D01*
X-24752Y29936D01*
X-30658Y18125D02*
X-31458Y19725D01*
X-29858D01*
X-30658Y18125D01*
X-36563Y53558D02*
X-37363Y55158D01*
X-35763D01*
X-36563Y53558D01*
Y29936D02*
X-37363Y31536D01*
X-35763D01*
X-36563Y29936D01*
X29500Y37700D02*
X28700Y39300D01*
X30300D01*
X29500Y37700D01*
X52165Y5105D02*
X51365Y6706D01*
X52965D01*
X52165Y5105D01*
X55315Y3137D02*
X54515Y4737D01*
X56115D01*
X55315Y3137D01*
X58464Y5105D02*
X57665Y6706D01*
X59264D01*
X58464Y5105D01*
X12795Y58255D02*
X11995Y59855D01*
X13595D01*
X12795Y58255D01*
X26969Y3137D02*
X26169Y4737D01*
X27768D01*
X26969Y3137D01*
X-4449Y65854D02*
X-5249Y67453D01*
X-3649D01*
X-4449Y65854D01*
X7000Y34700D02*
X6200Y36300D01*
X7800D01*
X7000Y34700D01*
X10000D02*
X9200Y36300D01*
X10800D01*
X10000Y34700D01*
X8315Y39251D02*
X7515Y40851D01*
X9115D01*
X8315Y39251D01*
Y41751D02*
X7515Y43351D01*
X9115D01*
X8315Y41751D01*
X16850Y31454D02*
X16050Y33054D01*
X17650D01*
X16850Y31454D01*
X-1949Y52350D02*
X-2749Y53950D01*
X-1149D01*
X-1949Y52350D01*
Y40539D02*
X-2749Y42139D01*
X-1149D01*
X-1949Y40539D01*
X31841Y40539D02*
X31040Y42139D01*
X32640D01*
X31841Y40539D01*
X22000Y47200D02*
X21200Y48800D01*
X22800D01*
X22000Y47200D01*
Y49700D02*
X21200Y51300D01*
X22800D01*
X22000Y49700D01*
X22096Y44476D02*
X21296Y46076D01*
X22896D01*
X22096Y44476D01*
X19685Y54318D02*
X18885Y55918D01*
X20485D01*
X19685Y54318D01*
X10630D02*
X9830Y55918D01*
X11430D01*
X10630Y54318D01*
X17520Y58255D02*
X16720Y59855D01*
X18320D01*
X17520Y58255D01*
X42717Y5105D02*
X41916Y6706D01*
X43516D01*
X42717Y5105D01*
X-20276Y3137D02*
X-21076Y4737D01*
X-19476D01*
X-20276Y3137D01*
X57264Y76562D02*
X56464Y78162D01*
X58064D01*
X57264Y76562D01*
X47264D02*
X46464Y78162D01*
X48064D01*
X47264Y76562D01*
X37264D02*
X36464Y78162D01*
X38064D01*
X37264Y76562D01*
X27264D02*
X26464Y78162D01*
X28064D01*
X27264Y76562D01*
X8051D02*
X7251Y78162D01*
X8851D01*
X8051Y76562D01*
X-1949D02*
X-2749Y78162D01*
X-1149D01*
X-1949Y76562D01*
X-11949D02*
X-12749Y78162D01*
X-11149D01*
X-11949Y76562D01*
X-21949D02*
X-22749Y78162D01*
X-21149D01*
X-21949Y76562D01*
X20669Y3137D02*
X19869Y4737D01*
X21469D01*
X20669Y3137D01*
X-24449Y65854D02*
X-25249Y67453D01*
X-23649D01*
X-24449Y65854D01*
X23819Y5105D02*
X23019Y6706D01*
X24619D01*
X23819Y5105D01*
X-14449Y65854D02*
X-15249Y67453D01*
X-13649D01*
X-14449Y65854D01*
X30118Y5105D02*
X29318Y6706D01*
X30918D01*
X30118Y5105D01*
X5551Y65854D02*
X4751Y67453D01*
X6351D01*
X5551Y65854D01*
X33268Y3137D02*
X32468Y4737D01*
X34068D01*
X33268Y3137D01*
X24764Y65854D02*
X23964Y67453D01*
X25564D01*
X24764Y65854D01*
X36417Y5105D02*
X35617Y6706D01*
X37217D01*
X36417Y5105D01*
X34764Y65854D02*
X33964Y67453D01*
X35564D01*
X34764Y65854D01*
X39567Y3137D02*
X38767Y4737D01*
X40367D01*
X39567Y3137D01*
X44764Y65854D02*
X43964Y67453D01*
X45564D01*
X44764Y65854D01*
X54764D02*
X53964Y67453D01*
X55564D01*
X54764Y65854D01*
X-19291Y157665D02*
X-20091Y159265D01*
X-18491D01*
X-19291Y157665D01*
X-21949Y101365D02*
X-22749Y102965D01*
X-21149D01*
X-21949Y101365D01*
X-19291Y139948D02*
X-20091Y141548D01*
X-18491D01*
X-19291Y139948D01*
X-9449Y157665D02*
X-10249Y159265D01*
X-8649D01*
X-9449Y157665D01*
X-11949Y101365D02*
X-12749Y102965D01*
X-11149D01*
X-11949Y101365D01*
X-9449Y139948D02*
X-10249Y141548D01*
X-8649D01*
X-9449Y139948D01*
X394Y157665D02*
X-406Y159265D01*
X1194D01*
X394Y157665D01*
X-1949Y101365D02*
X-2749Y102965D01*
X-1149D01*
X-1949Y101365D01*
X394Y139948D02*
X-406Y141548D01*
X1194D01*
X394Y139948D01*
X10236Y157665D02*
X9436Y159265D01*
X11036D01*
X10236Y157665D01*
X8051Y101365D02*
X7251Y102965D01*
X8851D01*
X8051Y101365D01*
X10236Y139948D02*
X9436Y141548D01*
X11036D01*
X10236Y139948D01*
X20079Y157665D02*
X19279Y159265D01*
X20879D01*
X20079Y157665D01*
X27264Y101365D02*
X26464Y102965D01*
X28064D01*
X27264Y101365D01*
X20079Y139948D02*
X19279Y141548D01*
X20879D01*
X20079Y139948D01*
X29921Y157665D02*
X29121Y159265D01*
X30721D01*
X29921Y157665D01*
X37264Y101365D02*
X36464Y102965D01*
X38064D01*
X37264Y101365D01*
X29921Y139948D02*
X29121Y141548D01*
X30721D01*
X29921Y139948D01*
X39764Y157665D02*
X38964Y159265D01*
X40564D01*
X39764Y157665D01*
X47264Y101365D02*
X46464Y102965D01*
X48064D01*
X47264Y101365D01*
X39764Y139948D02*
X38964Y141548D01*
X40564D01*
X39764Y139948D01*
X49606Y157665D02*
X48806Y159265D01*
X50406D01*
X49606Y157665D01*
X57264Y101365D02*
X56464Y102965D01*
X58064D01*
X57264Y101365D01*
X49606Y139948D02*
X48806Y141548D01*
X50406D01*
X49606Y139948D01*
D45*
X-31680Y176378D02*
G03*
X-31680Y176378I-800J0D01*
G01*
X63595D02*
G03*
X63595Y176378I-800J0D01*
G01*
M02*
