G04*
G04 #@! TF.GenerationSoftware,Altium Limited,Altium Designer,24.7.2 (38)*
G04*
G04 Layer_Physical_Order=1*
G04 Layer_Color=255*
%FSLAX25Y25*%
%MOIN*%
G70*
G04*
G04 #@! TF.SameCoordinates,43B99760-4079-4BD6-A725-026A76E2A537*
G04*
G04*
G04 #@! TF.FilePolarity,Positive*
G04*
G01*
G75*
%ADD10C,0.00787*%
%ADD13R,0.03000X0.03937*%
%ADD14R,0.03937X0.05906*%
%ADD15R,0.05512X0.02756*%
%ADD16R,0.03937X0.03937*%
%ADD17R,0.03150X0.03937*%
%ADD18R,0.02047X0.01850*%
%ADD19R,0.02362X0.01968*%
%ADD34R,0.10512X0.09055*%
%ADD35R,0.02362X0.09055*%
%ADD36C,0.01181*%
%ADD37C,0.02953*%
%ADD38C,0.01968*%
%ADD39C,0.03937*%
%ADD40C,0.05315*%
%ADD41R,0.05315X0.05315*%
%ADD42R,0.20866X0.20866*%
%ADD43C,0.01968*%
G36*
X73209Y187992D02*
X51181D01*
Y164764D01*
X73209D01*
Y152500D01*
X67258D01*
Y157484D01*
X62002D01*
Y152563D01*
X61215D01*
Y157484D01*
X55959D01*
Y156837D01*
X55821Y156500D01*
X48884D01*
Y152609D01*
X48878Y152563D01*
Y152500D01*
X47440D01*
Y157852D01*
X47349Y158313D01*
X47049Y159037D01*
X46788Y159427D01*
X46234Y159981D01*
X45844Y160242D01*
X45120Y160542D01*
X44659Y160633D01*
X43876D01*
X43415Y160542D01*
X42692Y160242D01*
X42301Y159981D01*
X41747Y159427D01*
X41486Y159037D01*
X41187Y158313D01*
X41095Y157852D01*
Y152500D01*
X38124D01*
Y153150D01*
X32474D01*
Y153543D01*
X32081D01*
Y158465D01*
X26825D01*
Y157817D01*
X26687Y157480D01*
X19750D01*
Y153590D01*
X19744Y153543D01*
Y152500D01*
X18307D01*
Y157372D01*
X18215Y157833D01*
X17915Y158556D01*
X17654Y158947D01*
X17100Y159501D01*
X16710Y159762D01*
X15986Y160061D01*
X15525Y160153D01*
X14742D01*
X14281Y160061D01*
X13558Y159762D01*
X13167Y159501D01*
X12614Y158947D01*
X12353Y158556D01*
X12053Y157833D01*
X11961Y157372D01*
Y152500D01*
X8990D01*
Y152669D01*
X3341D01*
Y153063D01*
X2947D01*
Y157984D01*
X-2309D01*
Y157337D01*
X-2447Y157000D01*
X-9384D01*
Y153109D01*
X-9390Y153063D01*
Y152500D01*
X-10827D01*
Y157872D01*
X-10919Y158333D01*
X-11219Y159056D01*
X-11480Y159447D01*
X-12033Y160001D01*
X-12424Y160262D01*
X-13148Y160561D01*
X-13608Y160653D01*
X-14392D01*
X-14852Y160561D01*
X-15576Y160262D01*
X-15967Y160001D01*
X-16520Y159447D01*
X-16781Y159056D01*
X-17081Y158333D01*
X-17173Y157872D01*
Y152500D01*
X-20144D01*
Y153169D01*
X-25793D01*
Y153563D01*
X-26187D01*
Y158484D01*
X-31443D01*
Y157837D01*
X-31581Y157500D01*
X-38518D01*
Y153609D01*
X-38524Y153563D01*
Y152500D01*
X-42894D01*
Y164764D01*
X-20866D01*
Y187992D01*
X-42894D01*
Y219469D01*
X73209D01*
Y187992D01*
D02*
G37*
G36*
X73209Y807D02*
X68898D01*
X68873Y802D01*
X68848Y805D01*
X68540Y790D01*
X68468Y772D01*
X68393D01*
X67788Y652D01*
X67696Y614D01*
X67599Y595D01*
X67029Y358D01*
X66947Y303D01*
X66855Y266D01*
X66342Y-77D01*
X66272Y-147D01*
X66190Y-202D01*
X65753Y-639D01*
X65698Y-721D01*
X65629Y-791D01*
X65286Y-1304D01*
X65248Y-1396D01*
X65193Y-1478D01*
X65003Y-1936D01*
X3956D01*
Y0D01*
X3950Y33D01*
X3954Y66D01*
X3929Y451D01*
X3903Y546D01*
X3897Y645D01*
X3697Y1390D01*
X3639Y1508D01*
X3597Y1632D01*
X3212Y2299D01*
X3125Y2398D01*
X3052Y2507D01*
X2507Y3052D01*
X2398Y3125D01*
X2299Y3212D01*
X1632Y3597D01*
X1507Y3639D01*
X1390Y3697D01*
X645Y3897D01*
X514Y3905D01*
X385Y3931D01*
X-385D01*
X-514Y3905D01*
X-645Y3897D01*
X-1390Y3697D01*
X-1508Y3639D01*
X-1632Y3597D01*
X-2299Y3212D01*
X-2398Y3125D01*
X-2507Y3052D01*
X-3052Y2507D01*
X-3125Y2398D01*
X-3212Y2299D01*
X-3597Y1632D01*
X-3639Y1507D01*
X-3697Y1390D01*
X-3897Y645D01*
X-3903Y546D01*
X-3929Y451D01*
X-3954Y66D01*
X-3950Y33D01*
X-3956Y0D01*
Y-1936D01*
X-20006D01*
X-20183Y-1542D01*
X-20038Y-1378D01*
X-20001D01*
X-19495Y-1168D01*
X-19107Y-781D01*
X-18898Y-274D01*
Y274D01*
X-19107Y781D01*
X-19495Y1168D01*
X-20001Y1378D01*
X-20550D01*
X-21056Y1168D01*
X-21444Y781D01*
X-21654Y274D01*
Y116D01*
X-21658Y112D01*
X-21664Y100D01*
X-21667Y96D01*
X-21670Y88D01*
X-21681Y71D01*
X-21697Y48D01*
X-21903Y-188D01*
X-21971Y-258D01*
X-21984Y-289D01*
X-22560Y-865D01*
X-22777Y-1191D01*
X-22854Y-1575D01*
Y-1936D01*
X-34688D01*
X-34878Y-1478D01*
X-34933Y-1396D01*
X-34971Y-1304D01*
X-35314Y-791D01*
X-35383Y-721D01*
X-35438Y-639D01*
X-35875Y-202D01*
X-35957Y-147D01*
X-36027Y-77D01*
X-36540Y266D01*
X-36632Y303D01*
X-36714Y358D01*
X-37284Y595D01*
X-37381Y614D01*
X-37473Y652D01*
X-38078Y772D01*
X-38153D01*
X-38225Y790D01*
X-38533Y805D01*
X-38558Y802D01*
X-38583Y807D01*
X-42894D01*
Y56000D01*
X-16972D01*
Y39370D01*
Y38978D01*
X-16896Y38594D01*
X-16596Y37871D01*
X-16378Y37545D01*
X-15825Y36992D01*
X-15499Y36774D01*
X-14776Y36474D01*
X-14392Y36398D01*
X-13608D01*
X-13224Y36474D01*
X-12501Y36774D01*
X-12175Y36992D01*
X-11622Y37545D01*
X-11404Y37871D01*
X-11104Y38594D01*
X-11028Y38978D01*
Y39370D01*
Y56000D01*
X12162D01*
Y38870D01*
Y38478D01*
X12238Y38094D01*
X12538Y37371D01*
X12755Y37045D01*
X13309Y36492D01*
X13635Y36274D01*
X14358Y35974D01*
X14742Y35898D01*
X15525D01*
X15909Y35974D01*
X16633Y36274D01*
X16959Y36492D01*
X17512Y37045D01*
X17730Y37371D01*
X18030Y38094D01*
X18106Y38478D01*
Y38870D01*
Y56000D01*
X41296D01*
Y39350D01*
Y38959D01*
X41372Y38575D01*
X41672Y37851D01*
X41889Y37526D01*
X42443Y36972D01*
X42769Y36754D01*
X43492Y36455D01*
X43876Y36378D01*
X44659D01*
X45043Y36455D01*
X45767Y36754D01*
X46092Y36972D01*
X46646Y37526D01*
X46864Y37851D01*
X47163Y38575D01*
X47240Y38959D01*
Y39350D01*
Y56000D01*
X73209D01*
Y807D01*
D02*
G37*
G36*
X-20285Y-984D02*
X-20316Y-988D01*
X-20351Y-1000D01*
X-20392Y-1020D01*
X-20439Y-1049D01*
X-20491Y-1085D01*
X-20611Y-1183D01*
X-20753Y-1314D01*
X-20832Y-1392D01*
X-21667Y-557D01*
X-21590Y-478D01*
X-21361Y-216D01*
X-21324Y-163D01*
X-21296Y-117D01*
X-21276Y-76D01*
X-21264Y-40D01*
X-21260Y-10D01*
X-20285Y-984D01*
D02*
G37*
%LPC*%
G36*
X-28760Y203839D02*
X-28768D01*
Y201181D01*
X-26110D01*
Y201189D01*
X-26318Y201965D01*
X-26720Y202661D01*
X-27288Y203229D01*
X-27984Y203631D01*
X-28760Y203839D01*
D02*
G37*
G36*
X62472D02*
X59815D01*
Y201181D01*
X62472D01*
Y203839D01*
D02*
G37*
G36*
X59027D02*
X56370D01*
Y201181D01*
X59027D01*
Y203839D01*
D02*
G37*
G36*
X-29555D02*
X-29563D01*
X-30339Y203631D01*
X-31035Y203229D01*
X-31603Y202661D01*
X-32005Y201965D01*
X-32213Y201189D01*
Y201181D01*
X-29555D01*
Y203839D01*
D02*
G37*
G36*
X62472Y200394D02*
X59815D01*
Y197736D01*
X62472D01*
Y200394D01*
D02*
G37*
G36*
X59027D02*
X56370D01*
Y197736D01*
X59027D01*
Y200394D01*
D02*
G37*
G36*
X-26110D02*
X-28768D01*
Y197736D01*
X-28760D01*
X-27984Y197944D01*
X-27288Y198346D01*
X-26720Y198914D01*
X-26318Y199610D01*
X-26110Y200386D01*
Y200394D01*
D02*
G37*
G36*
X-29555D02*
X-32213D01*
Y200386D01*
X-32005Y199610D01*
X-31603Y198914D01*
X-31035Y198346D01*
X-30339Y197944D01*
X-29563Y197736D01*
X-29555D01*
Y200394D01*
D02*
G37*
G36*
X50188Y205413D02*
X48970D01*
X47793Y205098D01*
X46738Y204489D01*
X45877Y203628D01*
X45268Y202573D01*
X44953Y201396D01*
Y200178D01*
X45268Y199002D01*
X45877Y197947D01*
X46738Y197086D01*
X47793Y196477D01*
X48970Y196161D01*
X50188D01*
X51364Y196477D01*
X52419Y197086D01*
X53280Y197947D01*
X53890Y199002D01*
X54205Y200178D01*
Y201396D01*
X53890Y202573D01*
X53280Y203628D01*
X52419Y204489D01*
X51364Y205098D01*
X50188Y205413D01*
D02*
G37*
G36*
X40345D02*
X39127D01*
X37951Y205098D01*
X36896Y204489D01*
X36035Y203628D01*
X35425Y202573D01*
X35110Y201396D01*
Y200178D01*
X35425Y199002D01*
X36035Y197947D01*
X36896Y197086D01*
X37951Y196477D01*
X39127Y196161D01*
X40345D01*
X41522Y196477D01*
X42577Y197086D01*
X43438Y197947D01*
X44047Y199002D01*
X44362Y200178D01*
Y201396D01*
X44047Y202573D01*
X43438Y203628D01*
X42577Y204489D01*
X41522Y205098D01*
X40345Y205413D01*
D02*
G37*
G36*
X30503D02*
X29285D01*
X28108Y205098D01*
X27053Y204489D01*
X26192Y203628D01*
X25583Y202573D01*
X25268Y201396D01*
Y200178D01*
X25583Y199002D01*
X26192Y197947D01*
X27053Y197086D01*
X28108Y196477D01*
X29285Y196161D01*
X30503D01*
X31679Y196477D01*
X32734Y197086D01*
X33595Y197947D01*
X34204Y199002D01*
X34520Y200178D01*
Y201396D01*
X34204Y202573D01*
X33595Y203628D01*
X32734Y204489D01*
X31679Y205098D01*
X30503Y205413D01*
D02*
G37*
G36*
X20660D02*
X19442D01*
X18266Y205098D01*
X17211Y204489D01*
X16350Y203628D01*
X15741Y202573D01*
X15425Y201396D01*
Y200178D01*
X15741Y199002D01*
X16350Y197947D01*
X17211Y197086D01*
X18266Y196477D01*
X19442Y196161D01*
X20660D01*
X21837Y196477D01*
X22892Y197086D01*
X23753Y197947D01*
X24362Y199002D01*
X24677Y200178D01*
Y201396D01*
X24362Y202573D01*
X23753Y203628D01*
X22892Y204489D01*
X21837Y205098D01*
X20660Y205413D01*
D02*
G37*
G36*
X10818D02*
X9600D01*
X8423Y205098D01*
X7368Y204489D01*
X6507Y203628D01*
X5898Y202573D01*
X5583Y201396D01*
Y200178D01*
X5898Y199002D01*
X6507Y197947D01*
X7368Y197086D01*
X8423Y196477D01*
X9600Y196161D01*
X10818D01*
X11994Y196477D01*
X13049Y197086D01*
X13910Y197947D01*
X14519Y199002D01*
X14835Y200178D01*
Y201396D01*
X14519Y202573D01*
X13910Y203628D01*
X13049Y204489D01*
X11994Y205098D01*
X10818Y205413D01*
D02*
G37*
G36*
X975D02*
X-243D01*
X-1419Y205098D01*
X-2474Y204489D01*
X-3336Y203628D01*
X-3945Y202573D01*
X-4260Y201396D01*
Y200178D01*
X-3945Y199002D01*
X-3336Y197947D01*
X-2474Y197086D01*
X-1419Y196477D01*
X-243Y196161D01*
X975D01*
X2152Y196477D01*
X3207Y197086D01*
X4068Y197947D01*
X4677Y199002D01*
X4992Y200178D01*
Y201396D01*
X4677Y202573D01*
X4068Y203628D01*
X3207Y204489D01*
X2152Y205098D01*
X975Y205413D01*
D02*
G37*
G36*
X-8867D02*
X-10085D01*
X-11262Y205098D01*
X-12317Y204489D01*
X-13178Y203628D01*
X-13787Y202573D01*
X-14102Y201396D01*
Y200178D01*
X-13787Y199002D01*
X-13178Y197947D01*
X-12317Y197086D01*
X-11262Y196477D01*
X-10085Y196161D01*
X-8867D01*
X-7691Y196477D01*
X-6636Y197086D01*
X-5775Y197947D01*
X-5166Y199002D01*
X-4850Y200178D01*
Y201396D01*
X-5166Y202573D01*
X-5775Y203628D01*
X-6636Y204489D01*
X-7691Y205098D01*
X-8867Y205413D01*
D02*
G37*
G36*
X-18710D02*
X-19928D01*
X-21104Y205098D01*
X-22159Y204489D01*
X-23021Y203628D01*
X-23630Y202573D01*
X-23945Y201396D01*
Y200178D01*
X-23630Y199002D01*
X-23021Y197947D01*
X-22159Y197086D01*
X-21104Y196477D01*
X-19928Y196161D01*
X-18710D01*
X-17533Y196477D01*
X-16478Y197086D01*
X-15617Y197947D01*
X-15008Y199002D01*
X-14693Y200178D01*
Y201396D01*
X-15008Y202573D01*
X-15617Y203628D01*
X-16478Y204489D01*
X-17533Y205098D01*
X-18710Y205413D01*
D02*
G37*
G36*
X-20144Y158484D02*
X-25400D01*
Y153957D01*
X-20144D01*
Y158484D01*
D02*
G37*
G36*
X38124Y158465D02*
X32868D01*
Y153937D01*
X38124D01*
Y158465D01*
D02*
G37*
G36*
X8990Y157984D02*
X3734D01*
Y153457D01*
X8990D01*
Y157984D01*
D02*
G37*
G36*
X55827Y52559D02*
X54252D01*
Y50591D01*
X55827D01*
Y52559D01*
D02*
G37*
G36*
X-2441D02*
X-4016D01*
Y50591D01*
X-2441D01*
Y52559D01*
D02*
G37*
G36*
X53465D02*
X51890D01*
Y50591D01*
X53465D01*
Y52559D01*
D02*
G37*
G36*
X-4803D02*
X-6378D01*
Y50591D01*
X-4803D01*
Y52559D01*
D02*
G37*
G36*
X26693D02*
X25118D01*
Y50590D01*
X26693D01*
Y52559D01*
D02*
G37*
G36*
X-31575D02*
X-33150D01*
Y50590D01*
X-31575D01*
Y52559D01*
D02*
G37*
G36*
X24331D02*
X22756D01*
Y50590D01*
X24331D01*
Y52559D01*
D02*
G37*
G36*
X-33937D02*
X-35512D01*
Y50590D01*
X-33937D01*
Y52559D01*
D02*
G37*
G36*
X55827Y49803D02*
X54252D01*
Y47835D01*
X55827D01*
Y49803D01*
D02*
G37*
G36*
X53465D02*
X51890D01*
Y47835D01*
X53465D01*
Y49803D01*
D02*
G37*
G36*
X26693Y49803D02*
X25118D01*
Y47835D01*
X26693D01*
Y49803D01*
D02*
G37*
G36*
X24331D02*
X22756D01*
Y47835D01*
X24331D01*
Y49803D01*
D02*
G37*
G36*
X-2441Y49803D02*
X-4016D01*
Y47835D01*
X-2441D01*
Y49803D01*
D02*
G37*
G36*
X-4803D02*
X-6378D01*
Y47835D01*
X-4803D01*
Y49803D01*
D02*
G37*
G36*
X-31575Y49803D02*
X-33150D01*
Y47835D01*
X-31575D01*
Y49803D01*
D02*
G37*
G36*
X-33937D02*
X-35512D01*
Y47835D01*
X-33937D01*
Y49803D01*
D02*
G37*
G36*
X65827Y52559D02*
X61890D01*
Y47835D01*
X62453D01*
Y46405D01*
X58858D01*
X58426Y46319D01*
X57441D01*
Y46064D01*
X57047Y45901D01*
X56780Y46168D01*
X56274Y46378D01*
X55726D01*
X55219Y46168D01*
X54832Y45781D01*
X54622Y45274D01*
Y44726D01*
X54832Y44219D01*
X55219Y43832D01*
X55726Y43622D01*
X56274D01*
X56780Y43832D01*
X57047Y44098D01*
X57441Y43935D01*
Y43681D01*
X58426D01*
X58858Y43595D01*
X63858D01*
X64291Y43681D01*
X65276D01*
Y46319D01*
X65263D01*
Y47835D01*
X65827D01*
Y52559D01*
D02*
G37*
G36*
X36693D02*
X32756D01*
Y47835D01*
X33320D01*
Y46405D01*
X29724D01*
X29292Y46319D01*
X28307D01*
Y45989D01*
X27913Y45867D01*
X27612Y46168D01*
X27105Y46378D01*
X26557D01*
X26051Y46168D01*
X25663Y45781D01*
X25453Y45274D01*
Y44726D01*
X25663Y44219D01*
X26051Y43832D01*
X26557Y43622D01*
X27105D01*
X27612Y43832D01*
X27913Y44133D01*
X28307Y44012D01*
Y43681D01*
X29292D01*
X29724Y43595D01*
X34724D01*
X35157Y43681D01*
X36142D01*
Y46319D01*
X36129D01*
Y47835D01*
X36693D01*
Y52559D01*
D02*
G37*
G36*
X7559D02*
X3622D01*
Y47835D01*
X4186D01*
Y46405D01*
X591D01*
X158Y46319D01*
X-827D01*
Y45953D01*
X-978Y45877D01*
X-1221Y45832D01*
X-1557Y46168D01*
X-2063Y46378D01*
X-2611D01*
X-3118Y46168D01*
X-3505Y45781D01*
X-3715Y45274D01*
Y44726D01*
X-3505Y44219D01*
X-3118Y43832D01*
X-2611Y43622D01*
X-2063D01*
X-1557Y43832D01*
X-1221Y44168D01*
X-978Y44123D01*
X-827Y44047D01*
Y43681D01*
X158D01*
X591Y43595D01*
X5591D01*
X6023Y43681D01*
X7008D01*
Y46319D01*
X6995D01*
Y47835D01*
X7559D01*
Y52559D01*
D02*
G37*
G36*
X-21575D02*
X-25512D01*
Y47835D01*
X-24948D01*
Y46405D01*
X-28543D01*
X-28976Y46319D01*
X-29961D01*
Y45899D01*
X-30269Y45802D01*
X-30354Y45797D01*
X-30725Y46168D01*
X-31232Y46378D01*
X-31780D01*
X-32287Y46168D01*
X-32674Y45781D01*
X-32884Y45274D01*
Y44726D01*
X-32674Y44219D01*
X-32287Y43832D01*
X-31780Y43622D01*
X-31232D01*
X-30725Y43832D01*
X-30354Y44203D01*
X-30269Y44198D01*
X-29961Y44101D01*
Y43681D01*
X-28976D01*
X-28543Y43595D01*
X-23543D01*
X-23111Y43681D01*
X-22126D01*
Y46319D01*
X-22138D01*
Y47835D01*
X-21575D01*
Y52559D01*
D02*
G37*
G36*
X31142Y42933D02*
X30118D01*
Y42008D01*
X31142D01*
Y42933D01*
D02*
G37*
G36*
X-27126Y42933D02*
X-28150D01*
Y42008D01*
X-27126D01*
Y42933D01*
D02*
G37*
G36*
X29331Y42933D02*
X28307D01*
Y42008D01*
X29331D01*
Y42933D01*
D02*
G37*
G36*
X-28937Y42933D02*
X-29961D01*
Y42008D01*
X-28937D01*
Y42933D01*
D02*
G37*
G36*
X60276Y42933D02*
X59252D01*
Y42008D01*
X60276D01*
Y42933D01*
D02*
G37*
G36*
X2008D02*
X984D01*
Y42008D01*
X2008D01*
Y42933D01*
D02*
G37*
G36*
X58465D02*
X57441D01*
Y42008D01*
X58465D01*
Y42933D01*
D02*
G37*
G36*
X197D02*
X-827D01*
Y42008D01*
X197D01*
Y42933D01*
D02*
G37*
G36*
X-27126Y41221D02*
X-28150D01*
Y40295D01*
X-27126D01*
Y41221D01*
D02*
G37*
G36*
X-28937D02*
X-29961D01*
Y40295D01*
X-28937D01*
Y41221D01*
D02*
G37*
G36*
X60276Y41220D02*
X59252D01*
Y40295D01*
X60276D01*
Y41220D01*
D02*
G37*
G36*
X58465D02*
X57441D01*
Y40295D01*
X58465D01*
Y41220D01*
D02*
G37*
G36*
X31142Y41221D02*
X30118D01*
Y40295D01*
X31142D01*
Y41221D01*
D02*
G37*
G36*
X29331D02*
X28307D01*
Y40295D01*
X29331D01*
Y41221D01*
D02*
G37*
G36*
X2008Y41220D02*
X984D01*
Y40295D01*
X2008D01*
Y41220D01*
D02*
G37*
G36*
X197D02*
X-827D01*
Y40295D01*
X197D01*
Y41220D01*
D02*
G37*
G36*
X65276Y42933D02*
X62441D01*
Y40295D01*
X62855D01*
Y32774D01*
X60664Y30583D01*
X60276Y30571D01*
Y30571D01*
X59862D01*
Y31142D01*
X59785Y31526D01*
X59568Y31851D01*
X54504Y36916D01*
Y38055D01*
X54668Y38219D01*
X54878Y38726D01*
Y39274D01*
X54668Y39781D01*
X54281Y40168D01*
X53774Y40378D01*
X53226D01*
X52719Y40168D01*
X52332Y39781D01*
X52122Y39274D01*
Y38726D01*
X52332Y38219D01*
X52496Y38055D01*
Y36500D01*
X52573Y36116D01*
X52790Y35790D01*
X57616Y30965D01*
X57453Y30571D01*
X57441D01*
Y30255D01*
X47790D01*
Y30571D01*
X44955D01*
Y30255D01*
X35304D01*
Y30571D01*
X34890D01*
Y35471D01*
X35434Y36015D01*
X35651Y36340D01*
X35728Y36724D01*
Y40295D01*
X36142D01*
Y42933D01*
X33307D01*
Y40295D01*
X33721D01*
Y37140D01*
X33177Y36596D01*
X32959Y36270D01*
X32883Y35886D01*
Y30571D01*
X32469D01*
Y30255D01*
X22818D01*
Y30571D01*
X22404D01*
Y33485D01*
X25041Y36122D01*
X25258Y36447D01*
X25335Y36831D01*
Y38055D01*
X25499Y38219D01*
X25709Y38726D01*
Y39274D01*
X25499Y39781D01*
X25112Y40168D01*
X24605Y40378D01*
X24057D01*
X23551Y40168D01*
X23163Y39781D01*
X22953Y39274D01*
Y38726D01*
X23163Y38219D01*
X23328Y38055D01*
Y37247D01*
X20691Y34610D01*
X20473Y34284D01*
X20397Y33900D01*
Y30571D01*
X19983D01*
Y30255D01*
X10332D01*
Y30571D01*
X9918D01*
Y34086D01*
X9842Y34470D01*
X9624Y34795D01*
X6594Y37825D01*
Y40295D01*
X7008D01*
Y42933D01*
X4173D01*
Y40295D01*
X4587D01*
Y37409D01*
X4663Y37025D01*
X4881Y36700D01*
X7911Y33670D01*
Y30571D01*
X7497D01*
Y30255D01*
X-2154D01*
Y30571D01*
X-2568D01*
Y35071D01*
X-2644Y35456D01*
X-2862Y35781D01*
X-3834Y36753D01*
Y38055D01*
X-3669Y38219D01*
X-3459Y38726D01*
Y39274D01*
X-3669Y39781D01*
X-4057Y40168D01*
X-4563Y40378D01*
X-5111D01*
X-5618Y40168D01*
X-6005Y39781D01*
X-6215Y39274D01*
Y38726D01*
X-6005Y38219D01*
X-5841Y38055D01*
Y36337D01*
X-5764Y35953D01*
X-5547Y35628D01*
X-4575Y34656D01*
Y30571D01*
X-4989D01*
Y30255D01*
X-14640D01*
Y30571D01*
X-17475D01*
Y30255D01*
X-27126D01*
Y30571D01*
X-27540D01*
Y33041D01*
X-22834Y37747D01*
X-22616Y38073D01*
X-22540Y38457D01*
Y40295D01*
X-22126D01*
Y42933D01*
X-24961D01*
Y40295D01*
X-24547D01*
Y38872D01*
X-29253Y34166D01*
X-29470Y33841D01*
X-29547Y33457D01*
Y30571D01*
X-29961D01*
Y30255D01*
X-31336D01*
X-33002Y31922D01*
Y38055D01*
X-32838Y38219D01*
X-32628Y38726D01*
Y39274D01*
X-32838Y39781D01*
X-33225Y40168D01*
X-33732Y40378D01*
X-34280D01*
X-34786Y40168D01*
X-35174Y39781D01*
X-35384Y39274D01*
Y38726D01*
X-35174Y38219D01*
X-35009Y38055D01*
Y31506D01*
X-34933Y31122D01*
X-34716Y30796D01*
X-32462Y28542D01*
X-32136Y28325D01*
X-31752Y28248D01*
X-29961D01*
Y27933D01*
X-27126D01*
Y28248D01*
X-17475D01*
Y27933D01*
X-14640D01*
Y28248D01*
X-4989D01*
Y27933D01*
X-2154D01*
Y28248D01*
X7497D01*
Y27933D01*
X10332D01*
Y28248D01*
X19983D01*
Y27933D01*
X22818D01*
Y28248D01*
X32469D01*
Y27933D01*
X35304D01*
Y28248D01*
X44955D01*
Y27933D01*
X47790D01*
Y28248D01*
X57441D01*
Y27933D01*
X60276D01*
Y28348D01*
X60851D01*
X61235Y28424D01*
X61561Y28642D01*
X64568Y31649D01*
X64785Y31974D01*
X64862Y32358D01*
Y40295D01*
X65276D01*
Y42933D01*
D02*
G37*
G36*
X60276Y27185D02*
X57441D01*
Y24803D01*
X57284D01*
Y22047D01*
X60433D01*
Y24803D01*
X60276D01*
Y27185D01*
D02*
G37*
G36*
X47790D02*
X44955D01*
Y24803D01*
X44798D01*
Y22047D01*
X47947D01*
Y24803D01*
X47790D01*
Y27185D01*
D02*
G37*
G36*
X35304D02*
X32469D01*
Y24803D01*
X32312D01*
Y22047D01*
X35461D01*
Y24803D01*
X35304D01*
Y27185D01*
D02*
G37*
G36*
X22818D02*
X19983D01*
Y24803D01*
X19826D01*
Y22047D01*
X22975D01*
Y24803D01*
X22818D01*
Y27185D01*
D02*
G37*
G36*
X10332D02*
X7497D01*
Y24803D01*
X7340D01*
Y22047D01*
X10489D01*
Y24803D01*
X10332D01*
Y27185D01*
D02*
G37*
G36*
X-2154D02*
X-4989D01*
Y24803D01*
X-5146D01*
Y22047D01*
X-1997D01*
Y24803D01*
X-2154D01*
Y27185D01*
D02*
G37*
G36*
X-14640D02*
X-17475D01*
Y24803D01*
X-17632D01*
Y22047D01*
X-14483D01*
Y24803D01*
X-14640D01*
Y27185D01*
D02*
G37*
G36*
X-27126D02*
X-29961D01*
Y24803D01*
X-30118D01*
Y22047D01*
X-26969D01*
Y24803D01*
X-27126D01*
Y27185D01*
D02*
G37*
G36*
X60433Y21260D02*
X57284D01*
Y18504D01*
X57855D01*
Y16693D01*
X57690Y16529D01*
X57480Y16022D01*
Y15474D01*
X57690Y14967D01*
X58078Y14580D01*
X58584Y14370D01*
X59132D01*
X59639Y14580D01*
X60026Y14967D01*
X60236Y15474D01*
Y16022D01*
X60026Y16529D01*
X59862Y16693D01*
Y18504D01*
X60433D01*
Y21260D01*
D02*
G37*
G36*
X47947D02*
X44798D01*
Y18504D01*
X45369D01*
Y16693D01*
X45204Y16529D01*
X44994Y16022D01*
Y15474D01*
X45204Y14967D01*
X45592Y14580D01*
X46098Y14370D01*
X46646D01*
X47153Y14580D01*
X47541Y14967D01*
X47750Y15474D01*
Y16022D01*
X47541Y16529D01*
X47376Y16693D01*
Y18504D01*
X47947D01*
Y21260D01*
D02*
G37*
G36*
X35461D02*
X32312D01*
Y18504D01*
X32883D01*
Y16693D01*
X32718Y16529D01*
X32508Y16022D01*
Y15474D01*
X32718Y14967D01*
X33106Y14580D01*
X33612Y14370D01*
X34161D01*
X34667Y14580D01*
X35055Y14967D01*
X35264Y15474D01*
Y16022D01*
X35055Y16529D01*
X34890Y16693D01*
Y18504D01*
X35461D01*
Y21260D01*
D02*
G37*
G36*
X22975D02*
X19826D01*
Y18504D01*
X20397D01*
Y16693D01*
X20232Y16529D01*
X20022Y16022D01*
Y15474D01*
X20232Y14967D01*
X20620Y14580D01*
X21126Y14370D01*
X21675D01*
X22181Y14580D01*
X22569Y14967D01*
X22778Y15474D01*
Y16022D01*
X22569Y16529D01*
X22404Y16693D01*
Y18504D01*
X22975D01*
Y21260D01*
D02*
G37*
G36*
X10489D02*
X7340D01*
Y18504D01*
X7911D01*
Y16693D01*
X7746Y16529D01*
X7537Y16022D01*
Y15474D01*
X7746Y14967D01*
X8134Y14580D01*
X8640Y14370D01*
X9189D01*
X9695Y14580D01*
X10083Y14967D01*
X10293Y15474D01*
Y16022D01*
X10083Y16529D01*
X9918Y16693D01*
Y18504D01*
X10489D01*
Y21260D01*
D02*
G37*
G36*
X-1997D02*
X-5146D01*
Y18504D01*
X-4575D01*
Y16693D01*
X-4740Y16529D01*
X-4949Y16022D01*
Y15474D01*
X-4740Y14967D01*
X-4352Y14580D01*
X-3845Y14370D01*
X-3297D01*
X-2791Y14580D01*
X-2403Y14967D01*
X-2193Y15474D01*
Y16022D01*
X-2403Y16529D01*
X-2568Y16693D01*
Y18504D01*
X-1997D01*
Y21260D01*
D02*
G37*
G36*
X-14483D02*
X-17632D01*
Y18504D01*
X-17061D01*
Y16693D01*
X-17225Y16529D01*
X-17435Y16022D01*
Y15474D01*
X-17225Y14967D01*
X-16838Y14580D01*
X-16331Y14370D01*
X-15783D01*
X-15277Y14580D01*
X-14889Y14967D01*
X-14679Y15474D01*
Y16022D01*
X-14889Y16529D01*
X-15054Y16693D01*
Y18504D01*
X-14483D01*
Y21260D01*
D02*
G37*
G36*
X-26969D02*
X-30118D01*
Y18504D01*
X-29547D01*
Y16693D01*
X-29711Y16529D01*
X-29921Y16022D01*
Y15474D01*
X-29711Y14967D01*
X-29324Y14580D01*
X-28817Y14370D01*
X-28269D01*
X-27763Y14580D01*
X-27375Y14967D01*
X-27165Y15474D01*
Y16022D01*
X-27375Y16529D01*
X-27540Y16693D01*
Y18504D01*
X-26969D01*
Y21260D01*
D02*
G37*
G36*
X42991Y1378D02*
X42442D01*
X41936Y1168D01*
X41548Y781D01*
X41339Y274D01*
Y-274D01*
X41548Y-781D01*
X41936Y-1168D01*
X42442Y-1378D01*
X42991D01*
X43497Y-1168D01*
X43885Y-781D01*
X44094Y-274D01*
Y274D01*
X43885Y781D01*
X43497Y1168D01*
X42991Y1378D01*
D02*
G37*
G36*
X39841D02*
X39293D01*
X38786Y1168D01*
X38399Y781D01*
X38189Y274D01*
Y-274D01*
X38399Y-781D01*
X38786Y-1168D01*
X39293Y-1378D01*
X39841D01*
X40347Y-1168D01*
X40735Y-781D01*
X40945Y-274D01*
Y274D01*
X40735Y781D01*
X40347Y1168D01*
X39841Y1378D01*
D02*
G37*
G36*
X36691D02*
X36143D01*
X35637Y1168D01*
X35249Y781D01*
X35039Y274D01*
Y-274D01*
X35249Y-781D01*
X35637Y-1168D01*
X36143Y-1378D01*
X36691D01*
X37198Y-1168D01*
X37585Y-781D01*
X37795Y-274D01*
Y274D01*
X37585Y781D01*
X37198Y1168D01*
X36691Y1378D01*
D02*
G37*
G36*
X33542D02*
X32994D01*
X32487Y1168D01*
X32100Y781D01*
X31890Y274D01*
Y-274D01*
X32100Y-781D01*
X32487Y-1168D01*
X32994Y-1378D01*
X33542D01*
X34048Y-1168D01*
X34436Y-781D01*
X34646Y-274D01*
Y274D01*
X34436Y781D01*
X34048Y1168D01*
X33542Y1378D01*
D02*
G37*
G36*
X30392D02*
X29844D01*
X29338Y1168D01*
X28950Y781D01*
X28740Y274D01*
Y-274D01*
X28950Y-781D01*
X29338Y-1168D01*
X29844Y-1378D01*
X30392D01*
X30899Y-1168D01*
X31286Y-781D01*
X31496Y-274D01*
Y274D01*
X31286Y781D01*
X30899Y1168D01*
X30392Y1378D01*
D02*
G37*
G36*
X27243D02*
X26694D01*
X26188Y1168D01*
X25800Y781D01*
X25591Y274D01*
Y-274D01*
X25800Y-781D01*
X26188Y-1168D01*
X26694Y-1378D01*
X27243D01*
X27749Y-1168D01*
X28137Y-781D01*
X28346Y-274D01*
Y274D01*
X28137Y781D01*
X27749Y1168D01*
X27243Y1378D01*
D02*
G37*
G36*
X24093D02*
X23545D01*
X23038Y1168D01*
X22651Y781D01*
X22441Y274D01*
Y-274D01*
X22651Y-781D01*
X23038Y-1168D01*
X23545Y-1378D01*
X24093D01*
X24599Y-1168D01*
X24987Y-781D01*
X25197Y-274D01*
Y274D01*
X24987Y781D01*
X24599Y1168D01*
X24093Y1378D01*
D02*
G37*
G36*
X20943D02*
X20395D01*
X19889Y1168D01*
X19501Y781D01*
X19291Y274D01*
Y-274D01*
X19501Y-781D01*
X19889Y-1168D01*
X20395Y-1378D01*
X20943D01*
X21450Y-1168D01*
X21837Y-781D01*
X22047Y-274D01*
Y274D01*
X21837Y781D01*
X21450Y1168D01*
X20943Y1378D01*
D02*
G37*
%LPD*%
D10*
X48677Y1677D02*
X50590D01*
X45079Y-6496D02*
Y-1921D01*
X44291Y-7283D02*
X45079Y-6496D01*
Y-1921D02*
X48677Y1677D01*
D13*
X52352Y152563D02*
D03*
X23219Y153543D02*
D03*
X-35049Y153563D02*
D03*
X-5915Y153063D02*
D03*
D14*
X63858Y117126D02*
D03*
X53858D02*
D03*
Y142717D02*
D03*
X63858D02*
D03*
X34724Y117126D02*
D03*
X24724D02*
D03*
Y142717D02*
D03*
X34724D02*
D03*
X5591Y117126D02*
D03*
X-4409D02*
D03*
Y142717D02*
D03*
X5591D02*
D03*
X-23543D02*
D03*
X-33543D02*
D03*
Y117126D02*
D03*
X-23543D02*
D03*
D15*
X63858Y102618D02*
D03*
Y109980D02*
D03*
Y90807D02*
D03*
Y98169D02*
D03*
X53858Y102618D02*
D03*
Y109980D02*
D03*
Y90807D02*
D03*
Y98169D02*
D03*
X34724Y102618D02*
D03*
Y109980D02*
D03*
Y90807D02*
D03*
Y98169D02*
D03*
X24724Y102618D02*
D03*
Y109980D02*
D03*
Y90807D02*
D03*
Y98169D02*
D03*
X-4409Y102618D02*
D03*
Y109980D02*
D03*
X-23543D02*
D03*
Y102618D02*
D03*
X-33543Y109980D02*
D03*
Y102618D02*
D03*
X-23543Y98169D02*
D03*
Y90807D02*
D03*
X-33543Y98169D02*
D03*
Y90807D02*
D03*
X5591Y102618D02*
D03*
Y109980D02*
D03*
Y90807D02*
D03*
Y98169D02*
D03*
X-4409Y90807D02*
D03*
Y98169D02*
D03*
D16*
X53347Y82677D02*
D03*
X64370D02*
D03*
X24213D02*
D03*
X35236D02*
D03*
X-23031D02*
D03*
X-34055D02*
D03*
X-4921D02*
D03*
X6102D02*
D03*
D17*
X63858Y75787D02*
D03*
X53858D02*
D03*
Y50197D02*
D03*
X63858D02*
D03*
X34724D02*
D03*
X24724D02*
D03*
Y75787D02*
D03*
X34724D02*
D03*
X5591D02*
D03*
X-4409D02*
D03*
Y50197D02*
D03*
X5591D02*
D03*
X-23543D02*
D03*
X-33543D02*
D03*
Y75787D02*
D03*
X-23543D02*
D03*
D18*
X63858Y41614D02*
D03*
Y45000D02*
D03*
X58858Y45000D02*
D03*
Y41614D02*
D03*
X34724Y45000D02*
D03*
Y41614D02*
D03*
X29724Y45000D02*
D03*
Y41614D02*
D03*
X5591Y45000D02*
D03*
Y41614D02*
D03*
X591Y45000D02*
D03*
Y41614D02*
D03*
X-23543Y41614D02*
D03*
Y45000D02*
D03*
X-28543D02*
D03*
Y41614D02*
D03*
X58858Y25866D02*
D03*
Y29252D02*
D03*
X46372Y25866D02*
D03*
Y29252D02*
D03*
X33886D02*
D03*
Y25866D02*
D03*
X21400Y29252D02*
D03*
Y25866D02*
D03*
X8914Y29252D02*
D03*
Y25866D02*
D03*
X-3571D02*
D03*
Y29252D02*
D03*
X-16057Y25866D02*
D03*
Y29252D02*
D03*
X-28543D02*
D03*
Y25866D02*
D03*
D19*
X58858Y19882D02*
D03*
Y23425D02*
D03*
X46372Y19882D02*
D03*
Y23425D02*
D03*
X33886Y19882D02*
D03*
Y23425D02*
D03*
X21400D02*
D03*
Y19882D02*
D03*
X8914D02*
D03*
Y23425D02*
D03*
X-3571Y19882D02*
D03*
Y23425D02*
D03*
X-16057Y19882D02*
D03*
Y23425D02*
D03*
X-28543D02*
D03*
Y19882D02*
D03*
D34*
X61608Y152563D02*
D03*
X32474Y153543D02*
D03*
X-25793Y153563D02*
D03*
X3341Y153063D02*
D03*
D35*
X60039Y-7283D02*
D03*
X56890D02*
D03*
X53740D02*
D03*
X50591D02*
D03*
X47441D02*
D03*
X44291D02*
D03*
X41142D02*
D03*
X37992D02*
D03*
X34843D02*
D03*
X31693D02*
D03*
X28543D02*
D03*
X25394D02*
D03*
X22244D02*
D03*
X19094D02*
D03*
X15945D02*
D03*
X12795D02*
D03*
X9646D02*
D03*
X6496D02*
D03*
X-9252D02*
D03*
X-12402D02*
D03*
X-15551D02*
D03*
X-18701D02*
D03*
X-21850D02*
D03*
X-25000D02*
D03*
X-28150D02*
D03*
X-31299D02*
D03*
D36*
X58858Y29252D02*
Y31142D01*
X53500Y36500D02*
Y39000D01*
Y36500D02*
X58858Y31142D01*
X24331Y36831D02*
Y39000D01*
X21400Y33900D02*
X24331Y36831D01*
X21400Y29252D02*
Y33900D01*
X-4837Y36337D02*
Y39000D01*
X-3571Y29252D02*
Y35071D01*
X-4837Y36337D02*
X-3571Y35071D01*
X-34006Y31506D02*
X-31752Y29252D01*
X-28543D01*
X-34006Y31506D02*
Y39000D01*
X-23543Y38457D02*
Y41614D01*
X-28543Y29252D02*
Y33457D01*
X-23543Y38457D01*
X5591Y37409D02*
Y41614D01*
Y37409D02*
X8914Y34086D01*
Y29252D02*
Y34086D01*
X33886Y29252D02*
Y35886D01*
X34724Y36724D01*
Y41614D01*
X63858Y32358D02*
Y41614D01*
X58957Y29351D02*
X60851D01*
X58858Y29252D02*
X58957Y29351D01*
X60851D02*
X63858Y32358D01*
X46372Y29252D02*
X58858D01*
X33886D02*
X46372D01*
X21400D02*
X33886D01*
X8914D02*
X21400D01*
X-3571D02*
X8914D01*
X-16057D02*
X-3571D01*
X-28543D02*
X-16057D01*
X-3571Y15748D02*
Y19882D01*
X58858Y15748D02*
Y19882D01*
X46372Y15748D02*
Y19882D01*
X33886Y15748D02*
Y19882D01*
X21400Y15748D02*
Y19882D01*
X8914Y15748D02*
Y19882D01*
X-16057Y15748D02*
Y19882D01*
X-28543Y15748D02*
Y19882D01*
X58858Y23425D02*
Y25866D01*
X46372Y23425D02*
Y25866D01*
X33886Y23425D02*
Y25866D01*
X21400Y23425D02*
Y25866D01*
X8914Y23425D02*
Y25866D01*
X-3571Y23425D02*
Y25866D01*
X-16057Y23425D02*
Y25866D01*
X-28543Y23425D02*
Y25866D01*
X-21850Y-1575D02*
X-20276Y0D01*
X-21850Y-7283D02*
Y-1575D01*
D37*
X52352Y144207D02*
X53858Y142701D01*
X24724Y142717D02*
Y143681D01*
X-4409Y142717D02*
Y143201D01*
X52352Y144207D02*
Y152563D01*
X23219Y145187D02*
Y153543D01*
Y145187D02*
X24724Y143681D01*
X-5915Y144707D02*
Y153063D01*
Y144707D02*
X-4409Y143201D01*
X-35049Y145207D02*
X-33543Y143701D01*
Y142717D02*
Y143701D01*
X-35049Y145207D02*
Y153563D01*
D38*
X53858Y142701D02*
Y142717D01*
Y133858D02*
Y142701D01*
X24724Y133858D02*
Y142717D01*
X-4409Y133858D02*
Y142717D01*
X-33543Y133858D02*
Y142717D01*
X61358Y45000D02*
X63858D01*
X58858D02*
X61358D01*
X32224D02*
X34724D01*
X29724D02*
X32224D01*
X3091D02*
X5591D01*
X591D02*
X3091D01*
X-26043D02*
X-23543D01*
X-28543D02*
X-26043D01*
X15945Y-7283D02*
Y1677D01*
X63858Y45000D02*
Y50197D01*
X34724Y45000D02*
Y50197D01*
X5591Y45000D02*
Y50197D01*
X-23543Y45000D02*
Y50197D01*
X53858Y109980D02*
Y117126D01*
X53858Y117126D02*
X53858Y117126D01*
X63858Y117126D02*
X63858Y117126D01*
Y109980D02*
Y117126D01*
X53858Y98169D02*
Y102618D01*
X63858Y98169D02*
Y102618D01*
X53602Y82933D02*
Y90551D01*
X53858Y90807D01*
X53347Y82677D02*
X53602Y82933D01*
X64114Y82933D02*
X64370Y82677D01*
X63858Y90807D02*
X64114Y90551D01*
Y82933D02*
Y90551D01*
X49902Y79232D02*
X53347Y82677D01*
X49902Y73500D02*
Y79232D01*
Y73500D02*
X52402Y71000D01*
X62557D02*
X63710Y72153D01*
X52402Y71000D02*
X62557D01*
X63710Y72153D02*
Y75639D01*
X63858Y75787D01*
X61137Y81735D02*
X63428D01*
X54449Y76772D02*
X56173D01*
X53858Y75787D02*
Y76181D01*
X63428Y81735D02*
X64370Y82677D01*
X56173Y76772D02*
X61137Y81735D01*
X53858Y76181D02*
X54449Y76772D01*
X24724Y109980D02*
Y117126D01*
X24724Y117126D02*
X24724Y117126D01*
X34724Y117126D02*
X34724Y117126D01*
Y109980D02*
Y117126D01*
X24724Y98169D02*
Y102618D01*
X34724Y98169D02*
Y102618D01*
X24468Y82933D02*
Y90551D01*
X24724Y90807D01*
X24213Y82677D02*
X24468Y82933D01*
X34980Y82933D02*
X35236Y82677D01*
X34724Y90807D02*
X34980Y90551D01*
Y82933D02*
Y90551D01*
X20768Y79232D02*
X24213Y82677D01*
X20768Y73500D02*
Y79232D01*
Y73500D02*
X23268Y71000D01*
X33423D02*
X34577Y72153D01*
X23268Y71000D02*
X33423D01*
X34577Y72153D02*
Y75639D01*
X34724Y75787D01*
X32003Y81735D02*
X34294D01*
X25315Y76772D02*
X27039D01*
X24724Y75787D02*
Y76181D01*
X34294Y81735D02*
X35236Y82677D01*
X27039Y76772D02*
X32003Y81735D01*
X24724Y76181D02*
X25315Y76772D01*
X-4409Y109980D02*
Y117126D01*
X-4409Y117126D02*
X-4409Y117126D01*
X5591Y117126D02*
X5591Y117126D01*
Y109980D02*
Y117126D01*
X-4409Y98169D02*
Y102618D01*
X5591Y98169D02*
Y102618D01*
X-4665Y82933D02*
Y90551D01*
X-4409Y90807D01*
X-4921Y82677D02*
X-4665Y82933D01*
X5847Y82933D02*
X6102Y82677D01*
X5591Y90807D02*
X5847Y90551D01*
Y82933D02*
Y90551D01*
X-8366Y79232D02*
X-4921Y82677D01*
X-8366Y73500D02*
Y79232D01*
Y73500D02*
X-5866Y71000D01*
X4290D02*
X5443Y72153D01*
X-5866Y71000D02*
X4290D01*
X5443Y72153D02*
Y75639D01*
X5591Y75787D01*
X2869Y81735D02*
X5160D01*
X-3819Y76772D02*
X-2094D01*
X-4409Y75787D02*
Y76181D01*
X5160Y81735D02*
X6102Y82677D01*
X-2094Y76772D02*
X2869Y81735D01*
X-4409Y76181D02*
X-3819Y76772D01*
X-33543Y76181D02*
X-32953Y76772D01*
X-31228D02*
X-26265Y81735D01*
X-23974D02*
X-23031Y82677D01*
X-33543Y75787D02*
Y76181D01*
X-32953Y76772D02*
X-31228D01*
X-26265Y81735D02*
X-23974D01*
X-23691Y75639D02*
X-23543Y75787D01*
X-23691Y72153D02*
Y75639D01*
X-35000Y71000D02*
X-24844D01*
X-23691Y72153D01*
X-37500Y73500D02*
X-35000Y71000D01*
X-37500Y73500D02*
Y79232D01*
X-34055Y82677D01*
X-23287Y82933D02*
Y90551D01*
X-23543Y90807D02*
X-23287Y90551D01*
Y82933D02*
X-23031Y82677D01*
X-34055D02*
X-33799Y82933D01*
Y90551D02*
X-33543Y90807D01*
X-33799Y82933D02*
Y90551D01*
X-23543Y98169D02*
Y102618D01*
X-33543Y98169D02*
Y102618D01*
X-23543Y109980D02*
Y117126D01*
X-23543Y117126D02*
X-23543Y117126D01*
X-33543Y117126D02*
X-33543Y117126D01*
Y109980D02*
Y117126D01*
X60039Y-7284D02*
Y1677D01*
X50590Y-7284D02*
Y1677D01*
X6496Y-7284D02*
Y1677D01*
X-9252Y-7284D02*
Y1677D01*
D39*
X61608Y152563D02*
X63858Y150313D01*
Y141717D02*
Y150313D01*
X32474Y153543D02*
X34724Y151293D01*
Y142697D02*
Y151293D01*
X3341Y153063D02*
X5591Y150813D01*
Y142217D02*
Y150813D01*
X-23543Y142717D02*
Y151313D01*
X-25793Y153563D02*
X-23543Y151313D01*
D40*
X20051Y200787D02*
D03*
X29894D02*
D03*
X39736D02*
D03*
X49579D02*
D03*
X-19319D02*
D03*
X-9476D02*
D03*
X-29161D02*
D03*
X10209D02*
D03*
X366D02*
D03*
D41*
X59421D02*
D03*
D42*
X62795Y176378D02*
D03*
X-32480D02*
D03*
D43*
X-40500Y17717D02*
D03*
X-21724D02*
D03*
X-9353D02*
D03*
X3018D02*
D03*
X15388D02*
D03*
X27759D02*
D03*
X40129D02*
D03*
X52500D02*
D03*
X70500Y5906D02*
D03*
Y17717D02*
D03*
Y29528D02*
D03*
X49500Y41339D02*
D03*
X70500D02*
D03*
X39500D02*
D03*
X20000D02*
D03*
X10000D02*
D03*
X-9000D02*
D03*
X-19500D02*
D03*
X-40500D02*
D03*
Y53150D02*
D03*
X-19500D02*
D03*
X-9000D02*
D03*
X10000D02*
D03*
X20000D02*
D03*
X39500D02*
D03*
X70500D02*
D03*
X49500D02*
D03*
X53500Y39000D02*
D03*
X24331D02*
D03*
X-4837D02*
D03*
X-34006D02*
D03*
X-24006Y133858D02*
D03*
X-26043Y45000D02*
D03*
X63500Y133858D02*
D03*
X34331D02*
D03*
X5163D02*
D03*
X53858D02*
D03*
X24724D02*
D03*
X-4409D02*
D03*
X-33543D02*
D03*
X56000Y45000D02*
D03*
X26831D02*
D03*
X-2337D02*
D03*
X-31506D02*
D03*
X61358D02*
D03*
X32224D02*
D03*
X3091D02*
D03*
X-3571Y15748D02*
D03*
X33268Y0D02*
D03*
X30118D02*
D03*
X26969D02*
D03*
X58858Y15748D02*
D03*
X46372D02*
D03*
X33886D02*
D03*
X21400D02*
D03*
X8914D02*
D03*
X-16057D02*
D03*
X-28543D02*
D03*
X42717Y0D02*
D03*
X39567D02*
D03*
X36417D02*
D03*
X23819D02*
D03*
X20669D02*
D03*
X-20276D02*
D03*
M02*
