G04*
G04 #@! TF.GenerationSoftware,Altium Limited,Altium Designer,22.1.2 (22)*
G04*
G04 Layer_Color=32896*
%FSLAX25Y25*%
%MOIN*%
G70*
G04*
G04 #@! TF.SameCoordinates,6C204DCC-978F-4A87-A690-EB2E95B516E8*
G04*
G04*
G04 #@! TF.FilePolarity,Positive*
G04*
G01*
G75*
%ADD11C,0.00787*%
%ADD12C,0.00709*%
G36*
X50591Y166535D02*
X-20276D01*
Y186221D01*
X50591D01*
Y166535D01*
D02*
G37*
G36*
X3347Y209055D02*
X-2559D01*
Y232677D01*
X3347D01*
Y209055D01*
D02*
G37*
G36*
X13189D02*
X7283D01*
Y232677D01*
X13189D01*
Y209055D01*
D02*
G37*
G36*
X42717D02*
X36811D01*
Y232677D01*
X42717D01*
Y209055D01*
D02*
G37*
G36*
X-26181D02*
X-32087D01*
Y232677D01*
X-26181D01*
Y209055D01*
D02*
G37*
G36*
X32874D02*
X26969D01*
Y232677D01*
X32874D01*
Y209055D01*
D02*
G37*
G36*
X52559Y105709D02*
X-22244D01*
Y113189D01*
X52559D01*
Y105709D01*
D02*
G37*
G36*
X-6496Y209055D02*
X-12402D01*
Y232677D01*
X-6496D01*
Y209055D01*
D02*
G37*
G36*
X-16339D02*
X-22244D01*
Y232677D01*
X-16339D01*
Y209055D01*
D02*
G37*
G36*
X23031D02*
X17126D01*
Y232677D01*
X23031D01*
Y209055D01*
D02*
G37*
G36*
X52559D02*
X46654D01*
Y232677D01*
X52559D01*
Y209055D01*
D02*
G37*
G36*
X62402D02*
X56496D01*
Y232677D01*
X62402D01*
Y209055D01*
D02*
G37*
%LPC*%
G36*
X22741Y178929D02*
X21303Y178929D01*
D01*
X22741Y178929D01*
D02*
G37*
G36*
X32449D02*
X29096D01*
D01*
X30758D01*
X30707Y178922D01*
X30641Y178915D01*
X30576Y178908D01*
X30496Y178893D01*
X30415Y178871D01*
X30233Y178820D01*
X30138Y178784D01*
X30036Y178733D01*
X29942Y178682D01*
X29854Y178623D01*
X29759Y178550D01*
X29679Y178470D01*
X29672Y178463D01*
X29665Y178456D01*
X29643Y178434D01*
X29621Y178405D01*
X29563Y178332D01*
X29497Y178230D01*
X29431Y178106D01*
X29380Y177960D01*
X29337Y177799D01*
X29329Y177719D01*
X29322Y177632D01*
Y177624D01*
Y177603D01*
X29329Y177566D01*
X29337Y177523D01*
X29344Y177464D01*
X29358Y177399D01*
X29380Y177326D01*
X29409Y177245D01*
X29453Y177165D01*
X29497Y177078D01*
X29555Y176990D01*
X29628Y176903D01*
X29716Y176815D01*
X29810Y176728D01*
X29920Y176648D01*
X30051Y176567D01*
X30044D01*
X30029Y176560D01*
X30007D01*
X29978Y176546D01*
X29898Y176524D01*
X29803Y176480D01*
X29694Y176422D01*
X29577Y176349D01*
X29460Y176254D01*
X29358Y176145D01*
X29344Y176130D01*
X29315Y176086D01*
X29278Y176021D01*
X29227Y175926D01*
X29176Y175817D01*
X29140Y175678D01*
X29111Y175532D01*
X29096Y175365D01*
Y175299D01*
X29103Y175255D01*
X29111Y175197D01*
X29125Y175131D01*
X29140Y175051D01*
X29154Y174971D01*
X29213Y174796D01*
X29256Y174701D01*
X29300Y174599D01*
X29358Y174504D01*
X29424Y174410D01*
X29497Y174315D01*
X29584Y174227D01*
X29592Y174220D01*
X29606Y174206D01*
X29635Y174184D01*
X29672Y174154D01*
X29723Y174118D01*
X29774Y174082D01*
X29847Y174038D01*
X29920Y173994D01*
X30000Y173950D01*
X30095Y173907D01*
X30197Y173870D01*
X30299Y173834D01*
X30415Y173805D01*
X30532Y173783D01*
X30663Y173768D01*
X30795Y173761D01*
X30860D01*
X30911Y173768D01*
X30970Y173775D01*
X31035Y173783D01*
X31108Y173797D01*
X31196Y173812D01*
X31370Y173856D01*
X31560Y173928D01*
X31662Y173972D01*
X31749Y174023D01*
X31844Y174089D01*
X31932Y174154D01*
X31939Y174162D01*
X31954Y174176D01*
X31975Y174198D01*
X32005Y174227D01*
X32041Y174264D01*
X32078Y174315D01*
X32121Y174366D01*
X32165Y174432D01*
X32209Y174504D01*
X32260Y174577D01*
X32340Y174752D01*
X32406Y174956D01*
X32435Y175066D01*
X32449Y175182D01*
X31516Y175299D01*
Y175292D01*
Y175284D01*
X31509Y175241D01*
X31494Y175175D01*
X31473Y175095D01*
X31436Y175007D01*
X31400Y174913D01*
X31341Y174825D01*
X31276Y174745D01*
X31268Y174738D01*
X31239Y174716D01*
X31196Y174687D01*
X31144Y174657D01*
X31072Y174621D01*
X30991Y174592D01*
X30904Y174570D01*
X30802Y174563D01*
X30787D01*
X30751Y174570D01*
X30700Y174577D01*
X30627Y174592D01*
X30547Y174621D01*
X30466Y174657D01*
X30379Y174716D01*
X30299Y174789D01*
X30292Y174796D01*
X30262Y174832D01*
X30233Y174883D01*
X30189Y174949D01*
X30153Y175037D01*
X30117Y175146D01*
X30095Y175270D01*
X30087Y175408D01*
Y175416D01*
Y175423D01*
Y175467D01*
X30095Y175532D01*
X30109Y175620D01*
X30138Y175715D01*
X30175Y175809D01*
X30226Y175904D01*
X30292Y175992D01*
X30299Y175999D01*
X30328Y176028D01*
X30372Y176065D01*
X30423Y176101D01*
X30496Y176145D01*
X30576Y176174D01*
X30663Y176203D01*
X30765Y176210D01*
X30838D01*
X30889Y176203D01*
X30955Y176196D01*
X31035Y176181D01*
X31115Y176159D01*
X31210Y176137D01*
X31108Y176917D01*
X31042D01*
X30970Y176925D01*
X30882Y176932D01*
X30787Y176954D01*
X30685Y176983D01*
X30590Y177027D01*
X30503Y177085D01*
X30496Y177092D01*
X30466Y177121D01*
X30437Y177158D01*
X30394Y177216D01*
X30357Y177282D01*
X30321Y177362D01*
X30299Y177457D01*
X30292Y177566D01*
Y177581D01*
Y177610D01*
X30299Y177654D01*
X30313Y177712D01*
X30328Y177778D01*
X30357Y177843D01*
X30394Y177916D01*
X30445Y177974D01*
X30452Y177982D01*
X30474Y177996D01*
X30503Y178025D01*
X30554Y178055D01*
X30612Y178077D01*
X30678Y178106D01*
X30765Y178120D01*
X30853Y178128D01*
X30897D01*
X30940Y178120D01*
X30999Y178106D01*
X31064Y178084D01*
X31137Y178055D01*
X31210Y178011D01*
X31276Y177953D01*
X31283Y177945D01*
X31305Y177923D01*
X31334Y177880D01*
X31370Y177821D01*
X31407Y177756D01*
X31436Y177668D01*
X31465Y177566D01*
X31487Y177450D01*
X32377Y177595D01*
Y177603D01*
X32369Y177617D01*
Y177639D01*
X32362Y177676D01*
X32340Y177756D01*
X32311Y177865D01*
X32267Y177982D01*
X32223Y178106D01*
X32165Y178222D01*
X32099Y178332D01*
X32092Y178346D01*
X32063Y178375D01*
X32019Y178426D01*
X31961Y178492D01*
X31888Y178558D01*
X31800Y178631D01*
X31691Y178703D01*
X31575Y178769D01*
X31567D01*
X31560Y178776D01*
X31516Y178791D01*
X31443Y178820D01*
X31356Y178849D01*
X31247Y178878D01*
X31115Y178908D01*
X30977Y178922D01*
X30824Y178929D01*
X32449D01*
D01*
D02*
G37*
G36*
X24693D02*
X22834D01*
X22783Y178922D01*
X22717Y178915D01*
X22644Y178908D01*
X22564Y178893D01*
X22477Y178878D01*
X22287Y178827D01*
X22098Y178754D01*
X21995Y178711D01*
X21908Y178660D01*
X21813Y178594D01*
X21733Y178521D01*
X21726Y178514D01*
X21711Y178507D01*
X21697Y178478D01*
X21667Y178448D01*
X21631Y178412D01*
X21595Y178361D01*
X21558Y178310D01*
X21514Y178244D01*
X21441Y178098D01*
X21369Y177931D01*
X21339Y177836D01*
X21325Y177734D01*
X21310Y177624D01*
X21303Y177515D01*
Y175175D01*
Y177457D01*
X21310Y177391D01*
X21317Y177311D01*
X21332Y177209D01*
X21354Y177100D01*
X21383Y176983D01*
X21427Y176866D01*
X21434Y176852D01*
X21449Y176815D01*
X21478Y176750D01*
X21522Y176670D01*
X21573Y176575D01*
X21638Y176465D01*
X21719Y176349D01*
X21813Y176225D01*
X21821Y176218D01*
X21850Y176181D01*
X21893Y176130D01*
X21959Y176057D01*
X22047Y175970D01*
X22156Y175853D01*
X22287Y175729D01*
X22447Y175576D01*
X22455Y175569D01*
X22469Y175561D01*
X22491Y175540D01*
X22520Y175510D01*
X22601Y175437D01*
X22695Y175350D01*
X22790Y175255D01*
X22885Y175161D01*
X22972Y175080D01*
X23001Y175044D01*
X23031Y175015D01*
X23038Y175007D01*
X23053Y174993D01*
X23074Y174964D01*
X23104Y174927D01*
X23169Y174847D01*
X23227Y174752D01*
X21303Y174752D01*
Y173856D01*
X24693Y173856D01*
Y173885D01*
Y173878D01*
X24686Y173907D01*
X24678Y173943D01*
X24671Y173987D01*
X24664Y174038D01*
X24634Y174169D01*
X24591Y174315D01*
X24532Y174475D01*
X24460Y174650D01*
X24365Y174818D01*
Y174825D01*
X24350Y174840D01*
X24336Y174869D01*
X24306Y174898D01*
X24277Y174949D01*
X24234Y175000D01*
X24182Y175066D01*
X24124Y175139D01*
X24059Y175226D01*
X23978Y175314D01*
X23891Y175416D01*
X23789Y175525D01*
X23679Y175634D01*
X23556Y175758D01*
X23424Y175890D01*
X23279Y176028D01*
X23271Y176035D01*
X23249Y176057D01*
X23220Y176086D01*
X23177Y176130D01*
X23118Y176174D01*
X23060Y176232D01*
X22929Y176363D01*
X22797Y176502D01*
X22666Y176640D01*
X22608Y176699D01*
X22549Y176764D01*
X22506Y176815D01*
X22477Y176859D01*
X22469Y176874D01*
X22447Y176910D01*
X22411Y176968D01*
X22375Y177049D01*
X22338Y177136D01*
X22302Y177238D01*
X22280Y177340D01*
X22273Y177450D01*
Y177457D01*
Y177464D01*
Y177501D01*
X22280Y177566D01*
X22294Y177639D01*
X22316Y177719D01*
X22345Y177799D01*
X22389Y177880D01*
X22447Y177953D01*
X22455Y177960D01*
X22477Y177982D01*
X22520Y178011D01*
X22571Y178040D01*
X22644Y178069D01*
X22725Y178098D01*
X22819Y178120D01*
X22929Y178128D01*
X22980D01*
X23038Y178120D01*
X23104Y178106D01*
X23184Y178084D01*
X23264Y178047D01*
X23344Y178004D01*
X23417Y177945D01*
X23424Y177938D01*
X23446Y177909D01*
X23475Y177865D01*
X23505Y177799D01*
X23541Y177719D01*
X23570Y177610D01*
X23599Y177486D01*
X23614Y177340D01*
X24576Y177435D01*
Y177442D01*
X24569Y177471D01*
Y177508D01*
X24554Y177566D01*
X24547Y177632D01*
X24525Y177705D01*
X24503Y177785D01*
X24481Y177880D01*
X24408Y178062D01*
X24321Y178252D01*
X24263Y178346D01*
X24197Y178434D01*
X24124Y178507D01*
X24044Y178579D01*
X24037Y178587D01*
X24022Y178594D01*
X24000Y178609D01*
X23964Y178638D01*
X23920Y178660D01*
X23862Y178689D01*
X23803Y178725D01*
X23731Y178754D01*
X23650Y178791D01*
X23563Y178820D01*
X23373Y178878D01*
X23147Y178915D01*
X23031Y178922D01*
X22907Y178929D01*
X24693D01*
D02*
G37*
G36*
X10375Y176174D02*
X8472D01*
Y175204D01*
X10375D01*
Y176174D01*
D02*
G37*
G36*
X3384Y178995D02*
X-1004D01*
D01*
X942D01*
X876Y178988D01*
X796Y178981D01*
X709Y178966D01*
X607Y178951D01*
X497Y178929D01*
X381Y178900D01*
X257Y178864D01*
X133Y178820D01*
X2Y178762D01*
X-122Y178703D01*
X-239Y178630D01*
X-363Y178543D01*
X-472Y178448D01*
X-480D01*
X-487Y178434D01*
X-509Y178412D01*
X-531Y178390D01*
X-560Y178354D01*
X-589Y178310D01*
X-669Y178208D01*
X-749Y178077D01*
X-837Y177916D01*
X-917Y177734D01*
X-990Y177523D01*
X16Y177282D01*
Y177289D01*
X23Y177296D01*
Y177318D01*
X38Y177348D01*
X60Y177413D01*
X96Y177501D01*
X147Y177603D01*
X213Y177705D01*
X301Y177807D01*
X395Y177894D01*
X410Y177901D01*
X446Y177931D01*
X505Y177967D01*
X585Y178011D01*
X687Y178055D01*
X804Y178091D01*
X935Y178120D01*
X1080Y178128D01*
X1132D01*
X1175Y178120D01*
X1219Y178113D01*
X1277Y178106D01*
X1401Y178077D01*
X1547Y178025D01*
X1700Y177953D01*
X1780Y177909D01*
X1853Y177858D01*
X1926Y177792D01*
X1992Y177719D01*
Y177712D01*
X2006Y177697D01*
X2021Y177676D01*
X2043Y177639D01*
X2072Y177595D01*
X2101Y177544D01*
X2130Y177479D01*
X2159Y177406D01*
X2196Y177318D01*
X2225Y177224D01*
X2254Y177114D01*
X2283Y176998D01*
X2305Y176866D01*
X2320Y176728D01*
X2327Y176575D01*
X2334Y176407D01*
Y176400D01*
Y176363D01*
Y176312D01*
X2327Y176254D01*
Y176174D01*
X2313Y176079D01*
X2305Y175984D01*
X2291Y175875D01*
X2247Y175649D01*
X2189Y175423D01*
X2152Y175314D01*
X2101Y175212D01*
X2050Y175117D01*
X1992Y175037D01*
X1984Y175029D01*
X1977Y175022D01*
X1955Y175000D01*
X1926Y174971D01*
X1853Y174913D01*
X1751Y174840D01*
X1627Y174760D01*
X1474Y174701D01*
X1299Y174650D01*
X1204Y174643D01*
X1102Y174636D01*
X1066D01*
X1037Y174643D01*
X957Y174650D01*
X862Y174665D01*
X760Y174701D01*
X643Y174745D01*
X526Y174803D01*
X410Y174891D01*
X395Y174905D01*
X359Y174942D01*
X308Y175000D01*
X249Y175088D01*
X177Y175204D01*
X111Y175343D01*
X45Y175510D01*
X-13Y175707D01*
X-1004Y175401D01*
Y175394D01*
X-997Y175365D01*
X-983Y175321D01*
X-961Y175263D01*
X-932Y175197D01*
X-902Y175117D01*
X-866Y175029D01*
X-822Y174934D01*
X-720Y174738D01*
X-589Y174534D01*
X-428Y174337D01*
X-341Y174249D01*
X-246Y174169D01*
X-239Y174162D01*
X-224Y174154D01*
X-195Y174133D01*
X-152Y174103D01*
X-100Y174074D01*
X-35Y174045D01*
X38Y174009D01*
X118Y173972D01*
X213Y173928D01*
X315Y173892D01*
X424Y173863D01*
X541Y173834D01*
X665Y173805D01*
X804Y173783D01*
X942Y173775D01*
X1095Y173768D01*
X1139D01*
X1190Y173775D01*
X1263Y173783D01*
X1343Y173790D01*
X1445Y173805D01*
X1554Y173826D01*
X1678Y173856D01*
X1802Y173892D01*
X1933Y173936D01*
X2072Y173994D01*
X2210Y174060D01*
X2349Y174133D01*
X2488Y174227D01*
X2619Y174329D01*
X2743Y174453D01*
X2750Y174461D01*
X2772Y174483D01*
X2801Y174526D01*
X2845Y174577D01*
X2888Y174650D01*
X2947Y174730D01*
X3005Y174832D01*
X3063Y174949D01*
X3122Y175073D01*
X3180Y175212D01*
X3238Y175372D01*
X3282Y175540D01*
X3326Y175715D01*
X3355Y175911D01*
X3377Y176116D01*
X3384Y176334D01*
Y176392D01*
X3377Y176458D01*
Y176546D01*
X3362Y176648D01*
X3348Y176772D01*
X3333Y176903D01*
X3304Y177056D01*
X3268Y177209D01*
X3224Y177369D01*
X3173Y177530D01*
X3107Y177697D01*
X3034Y177858D01*
X2947Y178011D01*
X2852Y178157D01*
X2735Y178295D01*
X2728Y178303D01*
X2706Y178324D01*
X2670Y178361D01*
X2619Y178405D01*
X2553Y178456D01*
X2473Y178514D01*
X2385Y178579D01*
X2276Y178645D01*
X2159Y178711D01*
X2035Y178776D01*
X1890Y178835D01*
X1744Y178886D01*
X1576Y178929D01*
X1409Y178966D01*
X1219Y178988D01*
X1029Y178995D01*
X3384D01*
D01*
D02*
G37*
G36*
X-3556Y177595D02*
X-6968D01*
Y173775D01*
Y175401D01*
X-4547D01*
Y175394D01*
Y175379D01*
Y175357D01*
X-4555Y175328D01*
X-4562Y175255D01*
X-4577Y175153D01*
X-4606Y175051D01*
X-4650Y174934D01*
X-4701Y174825D01*
X-4773Y174730D01*
X-4781Y174723D01*
X-4817Y174694D01*
X-4861Y174657D01*
X-4927Y174614D01*
X-5007Y174570D01*
X-5109Y174534D01*
X-5218Y174504D01*
X-5335Y174497D01*
X-5371D01*
X-5415Y174504D01*
X-5466Y174512D01*
X-5524Y174526D01*
X-5590Y174548D01*
X-5655Y174577D01*
X-5714Y174621D01*
X-5721Y174628D01*
X-5743Y174643D01*
X-5772Y174672D01*
X-5801Y174716D01*
X-5845Y174774D01*
X-5881Y174840D01*
X-5918Y174927D01*
X-5954Y175022D01*
X-6917Y174862D01*
Y174854D01*
X-6909Y174840D01*
X-6895Y174811D01*
X-6880Y174774D01*
X-6858Y174730D01*
X-6837Y174679D01*
X-6771Y174563D01*
X-6691Y174432D01*
X-6589Y174293D01*
X-6465Y174169D01*
X-6326Y174052D01*
X-6319D01*
X-6312Y174038D01*
X-6282Y174031D01*
X-6253Y174009D01*
X-6217Y173987D01*
X-6166Y173965D01*
X-6115Y173943D01*
X-6049Y173914D01*
X-5903Y173863D01*
X-5736Y173819D01*
X-5539Y173790D01*
X-5327Y173775D01*
X-5284D01*
X-5240Y173783D01*
X-5174D01*
X-5094Y173797D01*
X-4999Y173812D01*
X-4897Y173826D01*
X-4795Y173856D01*
X-4679Y173885D01*
X-4562Y173928D01*
X-4445Y173979D01*
X-4329Y174038D01*
X-4212Y174111D01*
X-4103Y174191D01*
X-4008Y174286D01*
X-3913Y174395D01*
X-3906Y174402D01*
X-3899Y174417D01*
X-3884Y174446D01*
X-3855Y174483D01*
X-3833Y174534D01*
X-3804Y174592D01*
X-3767Y174657D01*
X-3738Y174738D01*
X-3702Y174825D01*
X-3673Y174920D01*
X-3636Y175022D01*
X-3614Y175139D01*
X-3592Y175255D01*
X-3571Y175379D01*
X-3563Y175518D01*
X-3556Y175656D01*
Y175744D01*
X-3563Y175809D01*
X-3571Y175882D01*
X-3578Y175970D01*
X-3592Y176065D01*
X-3614Y176174D01*
X-3673Y176400D01*
X-3709Y176516D01*
X-3753Y176640D01*
X-3811Y176757D01*
X-3877Y176866D01*
X-3950Y176976D01*
X-4030Y177078D01*
X-4037Y177085D01*
X-4052Y177100D01*
X-4081Y177129D01*
X-4117Y177158D01*
X-4161Y177194D01*
X-4219Y177238D01*
X-4285Y177289D01*
X-4358Y177340D01*
X-4438Y177384D01*
X-4533Y177435D01*
X-4628Y177479D01*
X-4737Y177515D01*
X-4846Y177544D01*
X-4970Y177574D01*
X-5094Y177588D01*
X-5225Y177595D01*
X-3556D01*
D02*
G37*
G36*
X37283Y178900D02*
X33062D01*
D01*
X35067D01*
X34935Y178893D01*
X34789Y178886D01*
X34644Y178878D01*
X34505Y178864D01*
X34381Y178849D01*
X34367D01*
X34330Y178842D01*
X34279Y178827D01*
X34206Y178805D01*
X34126Y178776D01*
X34039Y178740D01*
X33944Y178696D01*
X33856Y178638D01*
X33849Y178631D01*
X33820Y178609D01*
X33776Y178572D01*
X33718Y178528D01*
X33659Y178463D01*
X33594Y178390D01*
X33528Y178310D01*
X33470Y178215D01*
X33463Y178200D01*
X33448Y178171D01*
X33419Y178113D01*
X33390Y178040D01*
X33361Y177953D01*
X33332Y177858D01*
X33317Y177741D01*
X33310Y177624D01*
Y177617D01*
Y177610D01*
Y177566D01*
X33317Y177501D01*
X33332Y177413D01*
X33361Y177311D01*
X33390Y177202D01*
X33441Y177092D01*
X33506Y176976D01*
X33514Y176961D01*
X33543Y176925D01*
X33587Y176874D01*
X33638Y176808D01*
X33711Y176742D01*
X33798Y176662D01*
X33900Y176597D01*
X34017Y176531D01*
X34009D01*
X33995Y176524D01*
X33973Y176516D01*
X33944Y176509D01*
X33856Y176473D01*
X33754Y176422D01*
X33645Y176363D01*
X33521Y176283D01*
X33412Y176188D01*
X33310Y176072D01*
X33302Y176057D01*
X33273Y176013D01*
X33229Y175948D01*
X33186Y175860D01*
X33142Y175744D01*
X33098Y175620D01*
X33069Y175474D01*
X33062Y175314D01*
Y173856D01*
Y175255D01*
X33069Y175190D01*
X33084Y175102D01*
X33098Y175000D01*
X33127Y174883D01*
X33171Y174767D01*
X33222Y174643D01*
X33229Y174628D01*
X33251Y174592D01*
X33288Y174534D01*
X33339Y174461D01*
X33397Y174373D01*
X33477Y174293D01*
X33557Y174206D01*
X33659Y174125D01*
X33674Y174118D01*
X33711Y174096D01*
X33769Y174060D01*
X33849Y174023D01*
X33951Y173979D01*
X34068Y173943D01*
X34199Y173907D01*
X34345Y173885D01*
X34374D01*
X34403Y173878D01*
X34476D01*
X34527Y173870D01*
X34666D01*
X34753Y173863D01*
X34972D01*
X35096Y173856D01*
X37283D01*
Y178900D01*
D02*
G37*
G36*
X20428Y178900D02*
X18212D01*
X18081Y178893D01*
X17935Y178886D01*
X17789Y178878D01*
X17651Y178864D01*
X17527Y178849D01*
X17512D01*
X17476Y178842D01*
X17425Y178827D01*
X17352Y178805D01*
X17272Y178776D01*
X17184Y178740D01*
X17089Y178696D01*
X17002Y178638D01*
X16995Y178630D01*
X16965Y178609D01*
X16922Y178572D01*
X16863Y178528D01*
X16805Y178463D01*
X16739Y178390D01*
X16674Y178310D01*
X16615Y178215D01*
X16608Y178200D01*
X16594Y178171D01*
X16564Y178113D01*
X16535Y178040D01*
X16506Y177953D01*
X16477Y177858D01*
X16462Y177741D01*
X16455Y177624D01*
Y177617D01*
Y177610D01*
Y177566D01*
X16462Y177501D01*
X16477Y177413D01*
X16506Y177311D01*
X16535Y177202D01*
X16586Y177092D01*
X16652Y176976D01*
X16659Y176961D01*
X16688Y176925D01*
X16732Y176874D01*
X16783Y176808D01*
X16856Y176742D01*
X16943Y176662D01*
X17046Y176597D01*
X17162Y176531D01*
X17155D01*
X17140Y176524D01*
X17119Y176516D01*
X17089Y176509D01*
X17002Y176473D01*
X16900Y176422D01*
X16790Y176363D01*
X16667Y176283D01*
X16557Y176188D01*
X16455Y176072D01*
X16448Y176057D01*
X16419Y176013D01*
X16375Y175948D01*
X16331Y175860D01*
X16287Y175744D01*
X16244Y175620D01*
X16215Y175474D01*
X16207Y175314D01*
Y173856D01*
Y175255D01*
X16215Y175190D01*
X16229Y175102D01*
X16244Y175000D01*
X16273Y174883D01*
X16317Y174767D01*
X16368Y174643D01*
X16375Y174628D01*
X16397Y174592D01*
X16433Y174534D01*
X16484Y174461D01*
X16543Y174373D01*
X16623Y174293D01*
X16703Y174206D01*
X16805Y174125D01*
X16820Y174118D01*
X16856Y174096D01*
X16914Y174060D01*
X16995Y174023D01*
X17097Y173979D01*
X17213Y173943D01*
X17345Y173907D01*
X17490Y173885D01*
X17519D01*
X17549Y173878D01*
X17621D01*
X17673Y173870D01*
X17811D01*
X17898Y173863D01*
X18117D01*
X18241Y173856D01*
X16207D01*
X20428D01*
Y178900D01*
D02*
G37*
G36*
X15857D02*
X12825D01*
X10798Y173856D01*
X12660D01*
X11899D01*
X12336Y175000D01*
X14363D01*
X14778Y173856D01*
X15857D01*
X13904Y178900D01*
X15857D01*
D02*
G37*
G36*
X7904D02*
X4040D01*
Y173856D01*
Y177267D01*
X4047Y177231D01*
Y177180D01*
X4062Y177078D01*
X4084Y176954D01*
X4113Y176815D01*
X4157Y176684D01*
X4215Y176560D01*
X4222Y176546D01*
X4244Y176509D01*
X4281Y176451D01*
X4332Y176378D01*
X4390Y176305D01*
X4470Y176218D01*
X4550Y176137D01*
X4645Y176065D01*
X4660Y176057D01*
X4689Y176035D01*
X4740Y176006D01*
X4806Y175970D01*
X4886Y175926D01*
X4973Y175890D01*
X5068Y175853D01*
X5170Y175824D01*
X5185D01*
X5207Y175817D01*
X5236D01*
X5272Y175809D01*
X5323Y175802D01*
X5374Y175795D01*
X5440D01*
X5505Y175787D01*
X5586Y175780D01*
X5673Y175773D01*
X5768Y175766D01*
X5870D01*
X5979Y175758D01*
X6883D01*
Y173856D01*
X7904D01*
Y178900D01*
D02*
G37*
G36*
X-1850D02*
X-2871D01*
Y173856D01*
X-1850D01*
Y178900D01*
D02*
G37*
G36*
X26858Y178929D02*
X25218D01*
X26785D01*
X26734Y178922D01*
X26676Y178915D01*
X26603Y178900D01*
X26530Y178886D01*
X26442Y178864D01*
X26348Y178835D01*
X26260Y178798D01*
X26165Y178762D01*
X26071Y178711D01*
X25976Y178645D01*
X25881Y178579D01*
X25794Y178499D01*
X25713Y178405D01*
X25706Y178397D01*
X25692Y178375D01*
X25670Y178339D01*
X25633Y178288D01*
X25597Y178215D01*
X25553Y178128D01*
X25509Y178033D01*
X25466Y177909D01*
X25422Y177778D01*
X25371Y177624D01*
X25334Y177457D01*
X25298Y177267D01*
X25261Y177063D01*
X25240Y176845D01*
X25225Y176604D01*
X25218Y176341D01*
Y173761D01*
Y176203D01*
X25225Y176108D01*
X25232Y175992D01*
X25247Y175853D01*
X25261Y175707D01*
X25276Y175547D01*
X25305Y175379D01*
X25342Y175204D01*
X25378Y175037D01*
X25429Y174869D01*
X25480Y174701D01*
X25553Y174548D01*
X25626Y174402D01*
X25713Y174278D01*
X25721Y174271D01*
X25735Y174257D01*
X25757Y174227D01*
X25786Y174198D01*
X25830Y174162D01*
X25881Y174118D01*
X25947Y174067D01*
X26012Y174023D01*
X26092Y173972D01*
X26173Y173921D01*
X26267Y173878D01*
X26370Y173841D01*
X26479Y173812D01*
X26603Y173783D01*
X26727Y173768D01*
X26858Y173761D01*
X26887D01*
X26931Y173768D01*
X26982D01*
X27040Y173775D01*
X27113Y173790D01*
X27193Y173805D01*
X27281Y173834D01*
X27376Y173863D01*
X27470Y173899D01*
X27572Y173943D01*
X27667Y174001D01*
X27769Y174060D01*
X27864Y174140D01*
X27959Y174220D01*
X28046Y174322D01*
X28054Y174329D01*
X28068Y174351D01*
X28090Y174388D01*
X28112Y174432D01*
X28148Y174497D01*
X28185Y174577D01*
X28228Y174679D01*
X28265Y174789D01*
X28309Y174920D01*
X28352Y175066D01*
X28389Y175233D01*
X28418Y175416D01*
X28447Y175620D01*
X28469Y175846D01*
X28484Y176086D01*
X28491Y176349D01*
Y176487D01*
X28484Y176582D01*
X28476Y176699D01*
X28462Y176837D01*
X28447Y176983D01*
X28433Y177143D01*
X28403Y177311D01*
X28374Y177479D01*
X28330Y177654D01*
X28287Y177821D01*
X28228Y177982D01*
X28163Y178135D01*
X28090Y178281D01*
X28003Y178405D01*
X27995Y178412D01*
X27981Y178426D01*
X27959Y178456D01*
X27922Y178485D01*
X27886Y178528D01*
X27835Y178572D01*
X27769Y178616D01*
X27704Y178667D01*
X27623Y178718D01*
X27543Y178762D01*
X27448Y178805D01*
X27346Y178849D01*
X27237Y178878D01*
X27113Y178908D01*
X26989Y178922D01*
X26858Y178929D01*
D02*
G37*
G36*
Y173761D02*
D01*
X25218D01*
X26858D01*
D02*
G37*
%LPD*%
G36*
X-5174Y176837D02*
X-5101Y176823D01*
X-5021Y176794D01*
X-4934Y176757D01*
X-4846Y176699D01*
X-4766Y176619D01*
X-4759Y176611D01*
X-4737Y176575D01*
X-4701Y176524D01*
X-4664Y176451D01*
X-4620Y176363D01*
X-4591Y176254D01*
X-4569Y176130D01*
X-4562Y175992D01*
X-6005D01*
Y175999D01*
Y176013D01*
Y176028D01*
X-5998Y176057D01*
X-5991Y176137D01*
X-5976Y176225D01*
X-5947Y176327D01*
X-5911Y176436D01*
X-5852Y176538D01*
X-5787Y176626D01*
X-5779Y176633D01*
X-5750Y176662D01*
X-5706Y176699D01*
X-5648Y176742D01*
X-5575Y176779D01*
X-5488Y176815D01*
X-5393Y176845D01*
X-5284Y176852D01*
X-5233D01*
X-5174Y176837D01*
D02*
G37*
G36*
X-5364Y177588D02*
X-5429Y177581D01*
X-5510Y177566D01*
X-5597Y177552D01*
X-5692Y177530D01*
X-5794Y177501D01*
X-5896Y177464D01*
X-6005Y177420D01*
X-6115Y177362D01*
X-6217Y177304D01*
X-6319Y177231D01*
X-6421Y177143D01*
X-6508Y177049D01*
X-6516Y177041D01*
X-6530Y177027D01*
X-6552Y176990D01*
X-6581Y176947D01*
X-6618Y176888D01*
X-6654Y176823D01*
X-6698Y176735D01*
X-6742Y176640D01*
X-6785Y176531D01*
X-6829Y176407D01*
X-6866Y176276D01*
X-6902Y176123D01*
X-6931Y175962D01*
X-6953Y175787D01*
X-6968Y175605D01*
Y177595D01*
X-5306D01*
X-5364Y177588D01*
D02*
G37*
G36*
X36262Y176895D02*
X35285D01*
X35161Y176903D01*
X34935D01*
X34892Y176910D01*
X34848D01*
X34819Y176917D01*
X34775Y176925D01*
X34709Y176947D01*
X34644Y176968D01*
X34578Y176998D01*
X34512Y177034D01*
X34454Y177085D01*
X34447Y177092D01*
X34432Y177114D01*
X34403Y177143D01*
X34374Y177194D01*
X34352Y177253D01*
X34323Y177318D01*
X34308Y177399D01*
X34301Y177486D01*
Y177493D01*
Y177523D01*
X34308Y177566D01*
X34316Y177624D01*
X34330Y177683D01*
X34359Y177741D01*
X34389Y177807D01*
X34432Y177865D01*
X34440Y177872D01*
X34454Y177887D01*
X34491Y177916D01*
X34527Y177945D01*
X34585Y177974D01*
X34651Y178004D01*
X34731Y178025D01*
X34819Y178040D01*
X34826D01*
X34855Y178047D01*
X34935D01*
X34979Y178055D01*
X35168D01*
X35249Y178062D01*
X36262D01*
Y176895D01*
D02*
G37*
G36*
Y174708D02*
X35139D01*
X35030Y174716D01*
X34913D01*
X34797Y174723D01*
X34702Y174730D01*
X34658D01*
X34629Y174738D01*
X34622D01*
X34593Y174745D01*
X34549Y174760D01*
X34498Y174774D01*
X34440Y174803D01*
X34374Y174840D01*
X34316Y174883D01*
X34257Y174934D01*
X34250Y174942D01*
X34235Y174964D01*
X34214Y175000D01*
X34184Y175051D01*
X34155Y175110D01*
X34133Y175182D01*
X34119Y175270D01*
X34111Y175365D01*
Y175372D01*
Y175401D01*
X34119Y175445D01*
X34126Y175496D01*
X34141Y175561D01*
X34163Y175620D01*
X34192Y175685D01*
X34228Y175751D01*
X34235Y175758D01*
X34250Y175780D01*
X34272Y175809D01*
X34308Y175838D01*
X34352Y175882D01*
X34410Y175919D01*
X34476Y175955D01*
X34549Y175984D01*
X34556D01*
X34593Y175999D01*
X34651Y176006D01*
X34687Y176013D01*
X34738Y176021D01*
X34789Y176028D01*
X34855Y176035D01*
X34928Y176043D01*
X35015D01*
X35103Y176050D01*
X35205Y176057D01*
X36262D01*
Y174708D01*
D02*
G37*
G36*
X19408Y176895D02*
X18431D01*
X18307Y176903D01*
X18081D01*
X18037Y176910D01*
X17993D01*
X17964Y176917D01*
X17920Y176925D01*
X17855Y176947D01*
X17789Y176968D01*
X17724Y176998D01*
X17658Y177034D01*
X17600Y177085D01*
X17592Y177092D01*
X17578Y177114D01*
X17549Y177143D01*
X17519Y177194D01*
X17498Y177253D01*
X17468Y177318D01*
X17454Y177399D01*
X17447Y177486D01*
Y177493D01*
Y177523D01*
X17454Y177566D01*
X17461Y177624D01*
X17476Y177683D01*
X17505Y177741D01*
X17534Y177807D01*
X17578Y177865D01*
X17585Y177872D01*
X17600Y177887D01*
X17636Y177916D01*
X17673Y177945D01*
X17731Y177974D01*
X17797Y178004D01*
X17877Y178025D01*
X17964Y178040D01*
X17971D01*
X18001Y178047D01*
X18081D01*
X18124Y178055D01*
X18314D01*
X18394Y178062D01*
X19408D01*
Y176895D01*
D02*
G37*
G36*
Y174708D02*
X18285D01*
X18176Y174716D01*
X18059D01*
X17942Y174723D01*
X17848Y174730D01*
X17804D01*
X17775Y174738D01*
X17767D01*
X17738Y174745D01*
X17694Y174760D01*
X17643Y174774D01*
X17585Y174803D01*
X17519Y174840D01*
X17461Y174883D01*
X17403Y174934D01*
X17395Y174942D01*
X17381Y174964D01*
X17359Y175000D01*
X17330Y175051D01*
X17301Y175110D01*
X17279Y175182D01*
X17264Y175270D01*
X17257Y175365D01*
Y175372D01*
Y175401D01*
X17264Y175445D01*
X17272Y175496D01*
X17286Y175561D01*
X17308Y175620D01*
X17337Y175685D01*
X17374Y175751D01*
X17381Y175758D01*
X17395Y175780D01*
X17417Y175809D01*
X17454Y175838D01*
X17498Y175882D01*
X17556Y175919D01*
X17621Y175955D01*
X17694Y175984D01*
X17702D01*
X17738Y175999D01*
X17797Y176006D01*
X17833Y176013D01*
X17884Y176021D01*
X17935Y176028D01*
X18001Y176035D01*
X18074Y176043D01*
X18161D01*
X18248Y176050D01*
X18350Y176057D01*
X19408D01*
Y174708D01*
D02*
G37*
G36*
X14057Y175853D02*
X12664D01*
X13371Y177727D01*
X14057Y175853D01*
D02*
G37*
G36*
X5965Y178893D02*
X5775D01*
X5571Y178878D01*
X5367Y178864D01*
X5280Y178857D01*
X5192Y178849D01*
X5119Y178835D01*
X5061Y178820D01*
X5054D01*
X5039Y178813D01*
X5017Y178805D01*
X4988Y178798D01*
X4908Y178762D01*
X4806Y178718D01*
X4696Y178652D01*
X4572Y178565D01*
X4456Y178456D01*
X4339Y178324D01*
Y178317D01*
X4324Y178310D01*
X4310Y178288D01*
X4295Y178259D01*
X4266Y178215D01*
X4244Y178171D01*
X4215Y178120D01*
X4186Y178062D01*
X4135Y177916D01*
X4084Y177756D01*
X4055Y177559D01*
X4040Y177348D01*
Y178900D01*
X6045D01*
X5965Y178893D01*
D02*
G37*
G36*
X6883Y176611D02*
X6183D01*
X6132Y176619D01*
X6001D01*
X5870Y176626D01*
X5739Y176640D01*
X5622Y176662D01*
X5571Y176670D01*
X5527Y176684D01*
X5520Y176691D01*
X5491Y176699D01*
X5455Y176721D01*
X5411Y176742D01*
X5360Y176779D01*
X5309Y176823D01*
X5250Y176874D01*
X5207Y176932D01*
X5199Y176939D01*
X5185Y176961D01*
X5170Y176998D01*
X5148Y177049D01*
X5126Y177107D01*
X5105Y177173D01*
X5097Y177245D01*
X5090Y177326D01*
Y177340D01*
Y177369D01*
X5097Y177420D01*
X5112Y177486D01*
X5134Y177559D01*
X5163Y177639D01*
X5199Y177712D01*
X5258Y177785D01*
X5265Y177792D01*
X5287Y177814D01*
X5323Y177843D01*
X5367Y177880D01*
X5425Y177923D01*
X5498Y177960D01*
X5578Y177989D01*
X5666Y178011D01*
X5673D01*
X5702Y178018D01*
X5753Y178025D01*
X5826Y178033D01*
X5921D01*
X5987Y178040D01*
X6052D01*
X6125Y178047D01*
X6883D01*
Y176611D01*
D02*
G37*
G36*
X26923Y178120D02*
X26960Y178113D01*
X27011Y178098D01*
X27062Y178077D01*
X27120Y178047D01*
X27171Y178011D01*
X27179Y178004D01*
X27193Y177989D01*
X27215Y177960D01*
X27244Y177923D01*
X27281Y177865D01*
X27310Y177799D01*
X27346Y177712D01*
X27376Y177610D01*
Y177603D01*
X27383Y177595D01*
Y177566D01*
X27390Y177537D01*
X27397Y177493D01*
X27405Y177442D01*
X27412Y177384D01*
X27419Y177311D01*
X27434Y177224D01*
X27441Y177136D01*
X27448Y177027D01*
X27456Y176917D01*
X27463Y176786D01*
Y176655D01*
X27470Y176502D01*
Y176341D01*
Y176334D01*
Y176305D01*
Y176254D01*
Y176196D01*
Y176123D01*
X27463Y176043D01*
Y175948D01*
X27456Y175853D01*
X27448Y175649D01*
X27434Y175445D01*
X27426Y175350D01*
X27412Y175263D01*
X27397Y175182D01*
X27383Y175110D01*
X27376Y175095D01*
X27368Y175058D01*
X27346Y175000D01*
X27325Y174934D01*
X27288Y174862D01*
X27252Y174789D01*
X27208Y174723D01*
X27164Y174672D01*
X27157Y174665D01*
X27142Y174657D01*
X27113Y174636D01*
X27077Y174621D01*
X27033Y174599D01*
X26982Y174577D01*
X26923Y174570D01*
X26858Y174563D01*
X26829D01*
X26792Y174570D01*
X26756Y174577D01*
X26705Y174592D01*
X26654Y174607D01*
X26603Y174636D01*
X26552Y174672D01*
X26544Y174679D01*
X26530Y174694D01*
X26501Y174723D01*
X26472Y174767D01*
X26442Y174818D01*
X26406Y174891D01*
X26370Y174971D01*
X26340Y175073D01*
Y175080D01*
X26333Y175088D01*
Y175117D01*
X26326Y175146D01*
X26318Y175190D01*
X26311Y175241D01*
X26297Y175299D01*
X26289Y175372D01*
X26282Y175452D01*
X26267Y175547D01*
X26260Y175649D01*
X26253Y175766D01*
X26246Y175890D01*
Y176028D01*
X26238Y176181D01*
Y176341D01*
Y176349D01*
Y176378D01*
Y176429D01*
Y176487D01*
Y176560D01*
X26246Y176640D01*
Y176735D01*
X26253Y176830D01*
X26260Y177034D01*
X26275Y177231D01*
X26289Y177326D01*
X26304Y177420D01*
X26318Y177501D01*
X26333Y177566D01*
Y177574D01*
X26340Y177581D01*
X26348Y177617D01*
X26370Y177676D01*
X26391Y177749D01*
X26428Y177821D01*
X26464Y177894D01*
X26508Y177960D01*
X26552Y178011D01*
X26559Y178018D01*
X26574Y178033D01*
X26603Y178047D01*
X26639Y178069D01*
X26683Y178091D01*
X26734Y178113D01*
X26792Y178120D01*
X26858Y178128D01*
X26887D01*
X26923Y178120D01*
D02*
G37*
%LPC*%
G36*
X1412Y226699D02*
X-651D01*
D01*
X-37D01*
X-54Y226696D01*
X-78Y226694D01*
X-104Y226688D01*
X-136Y226682D01*
X-168Y226676D01*
X-238Y226653D01*
X-276Y226635D01*
X-316Y226618D01*
X-354Y226594D01*
X-392Y226568D01*
X-430Y226539D01*
X-465Y226504D01*
X-468Y226501D01*
X-473Y226496D01*
X-482Y226484D01*
X-494Y226469D01*
X-508Y226449D01*
X-523Y226429D01*
X-540Y226399D01*
X-558Y226370D01*
X-575Y226338D01*
X-593Y226301D01*
X-607Y226260D01*
X-622Y226219D01*
X-634Y226173D01*
X-642Y226126D01*
X-648Y226074D01*
X-651Y226021D01*
Y225995D01*
X-648Y225975D01*
X-645Y225951D01*
X-642Y225925D01*
X-636Y225896D01*
X-631Y225861D01*
X-613Y225791D01*
X-584Y225716D01*
X-567Y225675D01*
X-546Y225640D01*
X-520Y225602D01*
X-494Y225567D01*
X-491Y225564D01*
X-485Y225559D01*
X-476Y225550D01*
X-465Y225538D01*
X-450Y225524D01*
X-430Y225509D01*
X-410Y225492D01*
X-383Y225474D01*
X-354Y225457D01*
X-325Y225436D01*
X-255Y225404D01*
X-174Y225378D01*
X-130Y225366D01*
X-84Y225361D01*
D01*
X-37Y225733D01*
X-40D01*
X-43D01*
X-60Y225736D01*
X-86Y225742D01*
X-118Y225751D01*
X-153Y225765D01*
X-191Y225780D01*
X-226Y225803D01*
X-258Y225829D01*
X-261Y225832D01*
X-270Y225844D01*
X-281Y225861D01*
X-293Y225882D01*
X-308Y225911D01*
X-319Y225943D01*
X-328Y225978D01*
X-331Y226018D01*
Y226024D01*
X-328Y226039D01*
X-325Y226059D01*
X-319Y226088D01*
X-308Y226120D01*
X-293Y226152D01*
X-270Y226187D01*
X-241Y226219D01*
X-238Y226222D01*
X-223Y226234D01*
X-203Y226245D01*
X-177Y226263D01*
X-142Y226277D01*
X-98Y226292D01*
X-49Y226301D01*
X7Y226304D01*
X10D01*
X13D01*
X30D01*
X56Y226301D01*
X91Y226295D01*
X129Y226283D01*
X167Y226269D01*
X205Y226248D01*
X240Y226222D01*
X242Y226219D01*
X254Y226207D01*
X269Y226190D01*
X283Y226170D01*
X301Y226141D01*
X312Y226109D01*
X324Y226074D01*
X327Y226033D01*
Y226004D01*
X324Y225983D01*
X321Y225957D01*
X315Y225925D01*
X306Y225893D01*
X298Y225855D01*
X609Y225896D01*
Y225922D01*
X612Y225951D01*
X615Y225986D01*
X624Y226024D01*
X635Y226065D01*
X653Y226103D01*
X676Y226138D01*
X679Y226141D01*
X691Y226152D01*
X705Y226164D01*
X728Y226181D01*
X754Y226196D01*
X786Y226210D01*
X824Y226219D01*
X868Y226222D01*
X874D01*
X886D01*
X903Y226219D01*
X926Y226213D01*
X952Y226207D01*
X979Y226196D01*
X1008Y226181D01*
X1031Y226161D01*
X1034Y226158D01*
X1040Y226149D01*
X1051Y226138D01*
X1063Y226117D01*
X1072Y226094D01*
X1083Y226068D01*
X1089Y226033D01*
X1092Y225998D01*
Y225980D01*
X1089Y225963D01*
X1083Y225940D01*
X1075Y225914D01*
X1063Y225885D01*
X1046Y225855D01*
X1022Y225829D01*
X1019Y225826D01*
X1011Y225817D01*
X993Y225806D01*
X970Y225791D01*
X944Y225777D01*
X909Y225765D01*
X868Y225753D01*
X821Y225745D01*
X880Y225390D01*
X883D01*
X888Y225393D01*
X897D01*
X912Y225396D01*
X944Y225404D01*
X987Y225416D01*
X1034Y225433D01*
X1083Y225451D01*
X1130Y225474D01*
X1174Y225500D01*
X1179Y225503D01*
X1191Y225515D01*
X1211Y225532D01*
X1238Y225556D01*
X1264Y225585D01*
X1293Y225620D01*
X1322Y225663D01*
X1348Y225710D01*
Y225713D01*
X1351Y225716D01*
X1357Y225733D01*
X1369Y225762D01*
X1380Y225797D01*
X1392Y225841D01*
X1403Y225893D01*
X1409Y225949D01*
X1412Y226010D01*
Y225492D01*
Y226036D01*
X1409Y226056D01*
X1406Y226082D01*
X1403Y226109D01*
X1398Y226141D01*
X1389Y226173D01*
X1369Y226245D01*
X1354Y226283D01*
X1334Y226324D01*
X1313Y226362D01*
X1290Y226397D01*
X1261Y226434D01*
X1229Y226466D01*
X1226Y226469D01*
X1223Y226472D01*
X1214Y226481D01*
X1203Y226490D01*
X1174Y226513D01*
X1133Y226539D01*
X1083Y226565D01*
X1025Y226586D01*
X961Y226603D01*
X929Y226606D01*
X894Y226609D01*
X891D01*
X883D01*
X868Y226606D01*
X851Y226603D01*
X827Y226600D01*
X801Y226594D01*
X772Y226586D01*
X740Y226574D01*
X708Y226557D01*
X673Y226539D01*
X638Y226516D01*
X603Y226487D01*
X568Y226452D01*
X533Y226414D01*
X501Y226370D01*
X469Y226318D01*
Y226321D01*
X466Y226327D01*
Y226336D01*
X461Y226347D01*
X452Y226379D01*
X434Y226417D01*
X411Y226461D01*
X382Y226507D01*
X344Y226554D01*
X301Y226594D01*
X295Y226600D01*
X277Y226612D01*
X251Y226626D01*
X213Y226647D01*
X170Y226667D01*
X114Y226682D01*
X56Y226694D01*
X-11Y226699D01*
X1412D01*
D01*
D02*
G37*
G36*
X1401Y224333D02*
X-613D01*
Y222803D01*
X1401D01*
Y224333D01*
D02*
G37*
G36*
X1438Y222457D02*
X-651D01*
D01*
X-57D01*
X-72Y222454D01*
X-92Y222451D01*
X-133Y222445D01*
X-185Y222433D01*
X-241Y222416D01*
X-296Y222390D01*
X-354Y222358D01*
X-357D01*
X-360Y222352D01*
X-378Y222340D01*
X-407Y222317D01*
X-439Y222288D01*
X-476Y222250D01*
X-511Y222200D01*
X-546Y222148D01*
X-578Y222084D01*
Y222081D01*
X-581Y222075D01*
X-584Y222067D01*
X-590Y222052D01*
X-596Y222035D01*
X-601Y222014D01*
X-607Y221991D01*
X-613Y221965D01*
X-622Y221933D01*
X-628Y221901D01*
X-639Y221825D01*
X-648Y221741D01*
X-651Y221648D01*
Y221610D01*
X-648Y221584D01*
X-645Y221551D01*
X-642Y221517D01*
X-636Y221476D01*
X-628Y221432D01*
X-607Y221336D01*
X-593Y221287D01*
X-578Y221240D01*
X-558Y221191D01*
X-535Y221144D01*
X-508Y221100D01*
X-476Y221060D01*
X-473Y221057D01*
X-468Y221051D01*
X-459Y221039D01*
X-444Y221028D01*
X-424Y221010D01*
X-401Y220993D01*
X-375Y220972D01*
X-345Y220952D01*
X-310Y220932D01*
X-273Y220911D01*
X-229Y220891D01*
X-183Y220871D01*
X-133Y220856D01*
X-78Y220838D01*
X-20Y220827D01*
X42Y220818D01*
D01*
X79Y221214D01*
X77D01*
X71Y221217D01*
X59D01*
X47Y221220D01*
X13Y221231D01*
X-31Y221246D01*
X-81Y221263D01*
X-130Y221290D01*
X-174Y221319D01*
X-215Y221357D01*
X-217Y221362D01*
X-229Y221377D01*
X-244Y221400D01*
X-261Y221435D01*
X-279Y221479D01*
X-293Y221528D01*
X-305Y221586D01*
X-308Y221653D01*
Y221685D01*
X-302Y221720D01*
X-296Y221764D01*
X-287Y221811D01*
X-273Y221860D01*
X-252Y221906D01*
X-226Y221947D01*
X-223Y221953D01*
X-212Y221965D01*
X-194Y221979D01*
X-171Y222000D01*
X-142Y222017D01*
X-107Y222035D01*
X-72Y222046D01*
X-31Y222049D01*
X-28D01*
X-20D01*
X-5Y222046D01*
X13Y222043D01*
X30Y222038D01*
X50Y222032D01*
X71Y222020D01*
X91Y222006D01*
X94Y222003D01*
X100Y221997D01*
X108Y221988D01*
X120Y221973D01*
X135Y221953D01*
X149Y221927D01*
X164Y221898D01*
X178Y221860D01*
Y221857D01*
X184Y221845D01*
X190Y221825D01*
X196Y221811D01*
X199Y221793D01*
X205Y221773D01*
X213Y221749D01*
X219Y221723D01*
X228Y221694D01*
X237Y221659D01*
X245Y221621D01*
X257Y221581D01*
X269Y221534D01*
Y221531D01*
X271Y221519D01*
X277Y221502D01*
X283Y221482D01*
X292Y221456D01*
X301Y221424D01*
X312Y221391D01*
X324Y221354D01*
X353Y221278D01*
X388Y221205D01*
X405Y221167D01*
X426Y221135D01*
X446Y221103D01*
X466Y221077D01*
X469Y221074D01*
X475Y221068D01*
X484Y221060D01*
X495Y221048D01*
X513Y221034D01*
X533Y221019D01*
X554Y221002D01*
X580Y220987D01*
X641Y220952D01*
X711Y220923D01*
X749Y220911D01*
X786Y220903D01*
X830Y220897D01*
X874Y220894D01*
X877D01*
X880D01*
X888D01*
X900D01*
X929Y220900D01*
X967Y220905D01*
X1011Y220914D01*
X1060Y220929D01*
X1113Y220949D01*
X1162Y220978D01*
X1165D01*
X1168Y220981D01*
X1185Y220996D01*
X1209Y221013D01*
X1238Y221042D01*
X1270Y221077D01*
X1304Y221121D01*
X1336Y221170D01*
X1366Y221229D01*
Y221231D01*
X1369Y221237D01*
X1371Y221246D01*
X1377Y221258D01*
X1383Y221275D01*
X1389Y221292D01*
X1395Y221316D01*
X1403Y221342D01*
X1415Y221400D01*
X1427Y221467D01*
X1436Y221543D01*
X1438Y221627D01*
Y220978D01*
Y222457D01*
D02*
G37*
G36*
X1401Y220495D02*
X-613D01*
Y220088D01*
X714Y219270D01*
X-613D01*
Y218895D01*
X1401D01*
Y220495D01*
D02*
G37*
G36*
Y218548D02*
X-613D01*
Y217018D01*
X1401D01*
Y218548D01*
D02*
G37*
G36*
X1438Y216671D02*
X-651D01*
D01*
X-57D01*
X-72Y216669D01*
X-92Y216666D01*
X-133Y216660D01*
X-185Y216648D01*
X-241Y216631D01*
X-296Y216604D01*
X-354Y216572D01*
X-357D01*
X-360Y216567D01*
X-378Y216555D01*
X-407Y216532D01*
X-439Y216503D01*
X-476Y216465D01*
X-511Y216415D01*
X-546Y216363D01*
X-578Y216299D01*
Y216296D01*
X-581Y216290D01*
X-584Y216282D01*
X-590Y216267D01*
X-596Y216249D01*
X-601Y216229D01*
X-607Y216206D01*
X-613Y216180D01*
X-622Y216148D01*
X-628Y216116D01*
X-639Y216040D01*
X-648Y215956D01*
X-651Y215862D01*
Y215825D01*
X-648Y215798D01*
X-645Y215766D01*
X-642Y215732D01*
X-636Y215691D01*
X-628Y215647D01*
X-607Y215551D01*
X-593Y215502D01*
X-578Y215455D01*
X-558Y215406D01*
X-535Y215359D01*
X-508Y215315D01*
X-476Y215275D01*
X-473Y215272D01*
X-468Y215266D01*
X-459Y215254D01*
X-444Y215243D01*
X-424Y215225D01*
X-401Y215208D01*
X-375Y215187D01*
X-345Y215167D01*
X-310Y215147D01*
X-273Y215126D01*
X-229Y215106D01*
X-183Y215086D01*
X-133Y215071D01*
X-78Y215054D01*
X-20Y215042D01*
X42Y215033D01*
D01*
X79Y215429D01*
X77D01*
X71Y215432D01*
X59D01*
X47Y215435D01*
X13Y215446D01*
X-31Y215461D01*
X-81Y215478D01*
X-130Y215505D01*
X-174Y215534D01*
X-215Y215571D01*
X-217Y215577D01*
X-229Y215592D01*
X-244Y215615D01*
X-261Y215650D01*
X-279Y215694D01*
X-293Y215743D01*
X-305Y215801D01*
X-308Y215868D01*
Y215900D01*
X-302Y215935D01*
X-296Y215979D01*
X-287Y216025D01*
X-273Y216075D01*
X-252Y216121D01*
X-226Y216162D01*
X-223Y216168D01*
X-212Y216180D01*
X-194Y216194D01*
X-171Y216215D01*
X-142Y216232D01*
X-107Y216249D01*
X-72Y216261D01*
X-31Y216264D01*
X-28D01*
X-20D01*
X-5Y216261D01*
X13Y216258D01*
X30Y216252D01*
X50Y216247D01*
X71Y216235D01*
X91Y216220D01*
X94Y216217D01*
X100Y216212D01*
X108Y216203D01*
X120Y216188D01*
X135Y216168D01*
X149Y216142D01*
X164Y216113D01*
X178Y216075D01*
Y216072D01*
X184Y216060D01*
X190Y216040D01*
X196Y216025D01*
X199Y216008D01*
X205Y215988D01*
X213Y215964D01*
X219Y215938D01*
X228Y215909D01*
X237Y215874D01*
X245Y215836D01*
X257Y215795D01*
X269Y215749D01*
Y215746D01*
X271Y215734D01*
X277Y215717D01*
X283Y215697D01*
X292Y215670D01*
X301Y215638D01*
X312Y215606D01*
X324Y215568D01*
X353Y215493D01*
X388Y215420D01*
X405Y215382D01*
X426Y215350D01*
X446Y215318D01*
X466Y215292D01*
X469Y215289D01*
X475Y215283D01*
X484Y215275D01*
X495Y215263D01*
X513Y215248D01*
X533Y215234D01*
X554Y215216D01*
X580Y215202D01*
X641Y215167D01*
X711Y215138D01*
X749Y215126D01*
X786Y215118D01*
X830Y215112D01*
X874Y215109D01*
X877D01*
X880D01*
X888D01*
X900D01*
X929Y215115D01*
X967Y215120D01*
X1011Y215129D01*
X1060Y215144D01*
X1113Y215164D01*
X1162Y215193D01*
X1165D01*
X1168Y215196D01*
X1185Y215211D01*
X1209Y215228D01*
X1238Y215257D01*
X1270Y215292D01*
X1304Y215336D01*
X1336Y215385D01*
X1366Y215443D01*
Y215446D01*
X1369Y215452D01*
X1371Y215461D01*
X1377Y215473D01*
X1383Y215490D01*
X1389Y215507D01*
X1395Y215531D01*
X1403Y215557D01*
X1415Y215615D01*
X1427Y215682D01*
X1436Y215758D01*
X1438Y215842D01*
Y215033D01*
D01*
Y216671D01*
D02*
G37*
%LPD*%
G36*
X1401Y224296D02*
X1060D01*
Y223210D01*
X615D01*
Y224220D01*
X274D01*
Y223210D01*
X-273D01*
Y224333D01*
X1401D01*
Y224296D01*
D02*
G37*
G36*
X1438Y221662D02*
X1436Y221688D01*
X1433Y221720D01*
X1430Y221758D01*
X1424Y221796D01*
X1418Y221840D01*
X1398Y221933D01*
X1383Y221979D01*
X1369Y222026D01*
X1348Y222072D01*
X1325Y222116D01*
X1299Y222157D01*
X1270Y222195D01*
X1267Y222198D01*
X1261Y222203D01*
X1252Y222212D01*
X1240Y222224D01*
X1223Y222238D01*
X1203Y222256D01*
X1179Y222273D01*
X1153Y222293D01*
X1121Y222311D01*
X1089Y222328D01*
X1051Y222346D01*
X1011Y222360D01*
X970Y222375D01*
X923Y222387D01*
X877Y222395D01*
X824Y222398D01*
X810Y221991D01*
X813D01*
X816D01*
X836Y221985D01*
X862Y221979D01*
X894Y221968D01*
X932Y221953D01*
X967Y221933D01*
X1002Y221906D01*
X1031Y221877D01*
X1034Y221874D01*
X1043Y221863D01*
X1054Y221843D01*
X1066Y221813D01*
X1077Y221778D01*
X1089Y221735D01*
X1098Y221682D01*
X1101Y221621D01*
Y221592D01*
X1098Y221560D01*
X1092Y221522D01*
X1083Y221479D01*
X1069Y221432D01*
X1051Y221389D01*
X1025Y221348D01*
X1022Y221345D01*
X1016Y221339D01*
X1008Y221327D01*
X993Y221316D01*
X976Y221304D01*
X952Y221292D01*
X929Y221287D01*
X900Y221284D01*
X897D01*
X888D01*
X874Y221287D01*
X859Y221292D01*
X839Y221298D01*
X819Y221307D01*
X798Y221322D01*
X778Y221342D01*
X775Y221345D01*
X766Y221359D01*
X760Y221368D01*
X754Y221383D01*
X746Y221397D01*
X737Y221418D01*
X728Y221441D01*
X717Y221467D01*
X705Y221499D01*
X693Y221531D01*
X682Y221572D01*
X670Y221616D01*
X659Y221662D01*
X644Y221714D01*
Y221717D01*
X641Y221729D01*
X638Y221744D01*
X632Y221764D01*
X626Y221787D01*
X618Y221816D01*
X609Y221848D01*
X600Y221880D01*
X577Y221950D01*
X554Y222023D01*
X528Y222093D01*
X513Y222122D01*
X499Y222151D01*
Y222154D01*
X495Y222157D01*
X484Y222174D01*
X466Y222200D01*
X443Y222232D01*
X414Y222267D01*
X379Y222305D01*
X338Y222343D01*
X292Y222375D01*
X286Y222378D01*
X269Y222387D01*
X242Y222401D01*
X205Y222416D01*
X158Y222430D01*
X103Y222445D01*
X42Y222454D01*
X-28Y222457D01*
X1438D01*
Y221662D01*
D02*
G37*
G36*
X1401Y219287D02*
X45Y220120D01*
X1401D01*
Y219287D01*
D02*
G37*
G36*
Y218511D02*
X1060D01*
Y217425D01*
X615D01*
Y218435D01*
X274D01*
Y217425D01*
X-273D01*
Y218548D01*
X1401D01*
Y218511D01*
D02*
G37*
G36*
X1438Y215877D02*
X1436Y215903D01*
X1433Y215935D01*
X1430Y215973D01*
X1424Y216011D01*
X1418Y216055D01*
X1398Y216148D01*
X1383Y216194D01*
X1369Y216241D01*
X1348Y216287D01*
X1325Y216331D01*
X1299Y216372D01*
X1270Y216409D01*
X1267Y216412D01*
X1261Y216418D01*
X1252Y216427D01*
X1240Y216439D01*
X1223Y216453D01*
X1203Y216471D01*
X1179Y216488D01*
X1153Y216509D01*
X1121Y216526D01*
X1089Y216543D01*
X1051Y216561D01*
X1011Y216575D01*
X970Y216590D01*
X923Y216602D01*
X877Y216610D01*
X824Y216613D01*
X810Y216206D01*
X813D01*
X816D01*
X836Y216200D01*
X862Y216194D01*
X894Y216182D01*
X932Y216168D01*
X967Y216148D01*
X1002Y216121D01*
X1031Y216092D01*
X1034Y216089D01*
X1043Y216078D01*
X1054Y216057D01*
X1066Y216028D01*
X1077Y215993D01*
X1089Y215950D01*
X1098Y215897D01*
X1101Y215836D01*
Y215807D01*
X1098Y215775D01*
X1092Y215737D01*
X1083Y215694D01*
X1069Y215647D01*
X1051Y215603D01*
X1025Y215563D01*
X1022Y215560D01*
X1016Y215554D01*
X1008Y215542D01*
X993Y215531D01*
X976Y215519D01*
X952Y215507D01*
X929Y215502D01*
X900Y215499D01*
X897D01*
X888D01*
X874Y215502D01*
X859Y215507D01*
X839Y215513D01*
X819Y215522D01*
X798Y215536D01*
X778Y215557D01*
X775Y215560D01*
X766Y215574D01*
X760Y215583D01*
X754Y215598D01*
X746Y215612D01*
X737Y215633D01*
X728Y215656D01*
X717Y215682D01*
X705Y215714D01*
X693Y215746D01*
X682Y215787D01*
X670Y215830D01*
X659Y215877D01*
X644Y215929D01*
Y215932D01*
X641Y215944D01*
X638Y215958D01*
X632Y215979D01*
X626Y216002D01*
X618Y216031D01*
X609Y216063D01*
X600Y216095D01*
X577Y216165D01*
X554Y216238D01*
X528Y216308D01*
X513Y216337D01*
X499Y216366D01*
Y216369D01*
X495Y216372D01*
X484Y216389D01*
X466Y216415D01*
X443Y216447D01*
X414Y216482D01*
X379Y216520D01*
X338Y216558D01*
X292Y216590D01*
X286Y216593D01*
X269Y216602D01*
X242Y216616D01*
X205Y216631D01*
X158Y216645D01*
X103Y216660D01*
X42Y216669D01*
X-28Y216671D01*
X1438D01*
Y215877D01*
D02*
G37*
%LPC*%
G36*
X11252Y226728D02*
X9229D01*
Y225279D01*
D01*
Y226106D01*
X9634D01*
Y225279D01*
X9968D01*
X11252Y226152D01*
Y226478D01*
X9971D01*
Y226728D01*
X11252D01*
D01*
D02*
G37*
G36*
X11243Y224304D02*
X9229D01*
Y222774D01*
X11243D01*
Y224267D01*
X10903D01*
Y223181D01*
X10457D01*
Y224191D01*
X10117D01*
Y223181D01*
X9570D01*
Y224304D01*
X11243D01*
D01*
D02*
G37*
G36*
X11281Y222427D02*
X9191D01*
Y220789D01*
D01*
Y221581D01*
X9194Y221554D01*
X9197Y221522D01*
X9200Y221487D01*
X9206Y221447D01*
X9215Y221403D01*
X9235Y221307D01*
X9250Y221258D01*
X9264Y221211D01*
X9285Y221162D01*
X9308Y221115D01*
X9334Y221071D01*
X9366Y221031D01*
X9369Y221028D01*
X9375Y221022D01*
X9384Y221010D01*
X9398Y220999D01*
X9419Y220981D01*
X9442Y220964D01*
X9468Y220943D01*
X9497Y220923D01*
X9532Y220903D01*
X9570Y220882D01*
X9613Y220862D01*
X9660Y220841D01*
X9709Y220827D01*
X9765Y220809D01*
X9823Y220798D01*
X9884Y220789D01*
D01*
X9922Y221185D01*
X9919D01*
X9913Y221188D01*
X9902D01*
X9890Y221191D01*
X9855Y221202D01*
X9811Y221217D01*
X9762Y221234D01*
X9712Y221260D01*
X9669Y221290D01*
X9628Y221327D01*
X9625Y221333D01*
X9613Y221348D01*
X9599Y221371D01*
X9582Y221406D01*
X9564Y221450D01*
X9550Y221499D01*
X9538Y221557D01*
X9535Y221624D01*
Y221656D01*
X9541Y221691D01*
X9547Y221735D01*
X9555Y221781D01*
X9570Y221831D01*
X9590Y221877D01*
X9616Y221918D01*
X9619Y221924D01*
X9631Y221936D01*
X9648Y221950D01*
X9672Y221971D01*
X9701Y221988D01*
X9736Y222006D01*
X9771Y222017D01*
X9811Y222020D01*
X9814D01*
X9823D01*
X9838Y222017D01*
X9855Y222014D01*
X9872Y222008D01*
X9893Y222003D01*
X9913Y221991D01*
X9934Y221976D01*
X9937Y221973D01*
X9942Y221968D01*
X9951Y221959D01*
X9963Y221944D01*
X9977Y221924D01*
X9992Y221898D01*
X10006Y221869D01*
X10021Y221831D01*
Y221828D01*
X10027Y221816D01*
X10033Y221796D01*
X10038Y221781D01*
X10041Y221764D01*
X10047Y221744D01*
X10056Y221720D01*
X10062Y221694D01*
X10070Y221665D01*
X10079Y221630D01*
X10088Y221592D01*
X10099Y221551D01*
X10111Y221505D01*
Y221502D01*
X10114Y221490D01*
X10120Y221473D01*
X10126Y221453D01*
X10134Y221426D01*
X10143Y221394D01*
X10155Y221362D01*
X10166Y221324D01*
X10195Y221249D01*
X10230Y221176D01*
X10248Y221138D01*
X10268Y221106D01*
X10289Y221074D01*
X10309Y221048D01*
X10312Y221045D01*
X10318Y221039D01*
X10326Y221031D01*
X10338Y221019D01*
X10356Y221004D01*
X10376Y220990D01*
X10396Y220972D01*
X10423Y220958D01*
X10484Y220923D01*
X10553Y220894D01*
X10591Y220882D01*
X10629Y220873D01*
X10673Y220868D01*
X10716Y220865D01*
X10719D01*
X10722D01*
X10731D01*
X10743D01*
X10772Y220871D01*
X10809Y220876D01*
X10853Y220885D01*
X10903Y220900D01*
X10955Y220920D01*
X11005Y220949D01*
X11007D01*
X11010Y220952D01*
X11028Y220967D01*
X11051Y220984D01*
X11080Y221013D01*
X11112Y221048D01*
X11147Y221092D01*
X11179Y221141D01*
X11208Y221199D01*
Y221202D01*
X11211Y221208D01*
X11214Y221217D01*
X11220Y221229D01*
X11226Y221246D01*
X11231Y221263D01*
X11237Y221287D01*
X11246Y221313D01*
X11258Y221371D01*
X11269Y221438D01*
X11278Y221514D01*
X11281Y221598D01*
Y221633D01*
X11278Y221659D01*
X11275Y221691D01*
X11272Y221729D01*
X11266Y221767D01*
X11260Y221811D01*
X11240Y221904D01*
X11226Y221950D01*
X11211Y221997D01*
X11191Y222043D01*
X11167Y222087D01*
X11141Y222128D01*
X11112Y222165D01*
X11109Y222168D01*
X11103Y222174D01*
X11095Y222183D01*
X11083Y222195D01*
X11066Y222209D01*
X11045Y222227D01*
X11022Y222244D01*
X10996Y222264D01*
X10964Y222282D01*
X10932Y222299D01*
X10894Y222317D01*
X10853Y222331D01*
X10812Y222346D01*
X10766Y222358D01*
X10719Y222366D01*
X10667Y222369D01*
X10652Y221962D01*
X10655D01*
X10658D01*
X10678Y221956D01*
X10705Y221950D01*
X10737Y221938D01*
X10775Y221924D01*
X10809Y221904D01*
X10844Y221877D01*
X10874Y221848D01*
X10876Y221845D01*
X10885Y221834D01*
X10897Y221813D01*
X10908Y221784D01*
X10920Y221749D01*
X10932Y221706D01*
X10940Y221653D01*
X10943Y221592D01*
Y221563D01*
X10940Y221531D01*
X10935Y221493D01*
X10926Y221450D01*
X10911Y221403D01*
X10894Y221359D01*
X10868Y221319D01*
X10865Y221316D01*
X10859Y221310D01*
X10850Y221298D01*
X10836Y221287D01*
X10818Y221275D01*
X10795Y221263D01*
X10772Y221258D01*
X10743Y221255D01*
X10740D01*
X10731D01*
X10716Y221258D01*
X10702Y221263D01*
X10681Y221269D01*
X10661Y221278D01*
X10641Y221292D01*
X10620Y221313D01*
X10617Y221316D01*
X10609Y221330D01*
X10603Y221339D01*
X10597Y221354D01*
X10588Y221368D01*
X10580Y221389D01*
X10571Y221412D01*
X10559Y221438D01*
X10548Y221470D01*
X10536Y221502D01*
X10524Y221543D01*
X10513Y221586D01*
X10501Y221633D01*
X10486Y221685D01*
Y221688D01*
X10484Y221700D01*
X10481Y221714D01*
X10475Y221735D01*
X10469Y221758D01*
X10460Y221787D01*
X10452Y221819D01*
X10443Y221851D01*
X10419Y221921D01*
X10396Y221994D01*
X10370Y222064D01*
X10356Y222093D01*
X10341Y222122D01*
Y222125D01*
X10338Y222128D01*
X10326Y222145D01*
X10309Y222171D01*
X10286Y222203D01*
X10257Y222238D01*
X10222Y222276D01*
X10181Y222314D01*
X10134Y222346D01*
X10129Y222349D01*
X10111Y222358D01*
X10085Y222372D01*
X10047Y222387D01*
X10001Y222401D01*
X9945Y222416D01*
X9884Y222425D01*
X9814Y222427D01*
X11281D01*
D01*
D02*
G37*
G36*
X11243Y220466D02*
X9229D01*
Y218866D01*
X11243D01*
Y219258D01*
X9887Y220091D01*
X11243D01*
Y220466D01*
D02*
G37*
G36*
Y218519D02*
X9229D01*
Y216989D01*
X11243D01*
Y218481D01*
X10903D01*
Y217396D01*
X10457D01*
Y218406D01*
X10117D01*
Y217396D01*
X9570D01*
Y218519D01*
X11243D01*
D01*
D02*
G37*
G36*
X11281Y216642D02*
X9191D01*
Y215004D01*
D01*
Y215795D01*
X9194Y215769D01*
X9197Y215737D01*
X9200Y215702D01*
X9206Y215662D01*
X9215Y215618D01*
X9235Y215522D01*
X9250Y215473D01*
X9264Y215426D01*
X9285Y215376D01*
X9308Y215330D01*
X9334Y215286D01*
X9366Y215246D01*
X9369Y215243D01*
X9375Y215237D01*
X9384Y215225D01*
X9398Y215213D01*
X9419Y215196D01*
X9442Y215179D01*
X9468Y215158D01*
X9497Y215138D01*
X9532Y215118D01*
X9570Y215097D01*
X9613Y215077D01*
X9660Y215056D01*
X9709Y215042D01*
X9765Y215024D01*
X9823Y215013D01*
X9884Y215004D01*
D01*
X9922Y215400D01*
X9919D01*
X9913Y215403D01*
X9902D01*
X9890Y215406D01*
X9855Y215417D01*
X9811Y215432D01*
X9762Y215449D01*
X9712Y215475D01*
X9669Y215505D01*
X9628Y215542D01*
X9625Y215548D01*
X9613Y215563D01*
X9599Y215586D01*
X9582Y215621D01*
X9564Y215665D01*
X9550Y215714D01*
X9538Y215772D01*
X9535Y215839D01*
Y215871D01*
X9541Y215906D01*
X9547Y215950D01*
X9555Y215996D01*
X9570Y216046D01*
X9590Y216092D01*
X9616Y216133D01*
X9619Y216139D01*
X9631Y216150D01*
X9648Y216165D01*
X9672Y216185D01*
X9701Y216203D01*
X9736Y216220D01*
X9771Y216232D01*
X9811Y216235D01*
X9814D01*
X9823D01*
X9838Y216232D01*
X9855Y216229D01*
X9872Y216223D01*
X9893Y216217D01*
X9913Y216206D01*
X9934Y216191D01*
X9937Y216188D01*
X9942Y216182D01*
X9951Y216174D01*
X9963Y216159D01*
X9977Y216139D01*
X9992Y216113D01*
X10006Y216084D01*
X10021Y216046D01*
Y216043D01*
X10027Y216031D01*
X10033Y216011D01*
X10038Y215996D01*
X10041Y215979D01*
X10047Y215958D01*
X10056Y215935D01*
X10062Y215909D01*
X10070Y215880D01*
X10079Y215845D01*
X10088Y215807D01*
X10099Y215766D01*
X10111Y215720D01*
Y215717D01*
X10114Y215705D01*
X10120Y215688D01*
X10126Y215668D01*
X10134Y215641D01*
X10143Y215609D01*
X10155Y215577D01*
X10166Y215539D01*
X10195Y215464D01*
X10230Y215391D01*
X10248Y215353D01*
X10268Y215321D01*
X10289Y215289D01*
X10309Y215263D01*
X10312Y215260D01*
X10318Y215254D01*
X10326Y215246D01*
X10338Y215234D01*
X10356Y215219D01*
X10376Y215205D01*
X10396Y215187D01*
X10423Y215173D01*
X10484Y215138D01*
X10553Y215109D01*
X10591Y215097D01*
X10629Y215088D01*
X10673Y215083D01*
X10716Y215080D01*
X10719D01*
X10722D01*
X10731D01*
X10743D01*
X10772Y215086D01*
X10809Y215091D01*
X10853Y215100D01*
X10903Y215115D01*
X10955Y215135D01*
X11005Y215164D01*
X11007D01*
X11010Y215167D01*
X11028Y215181D01*
X11051Y215199D01*
X11080Y215228D01*
X11112Y215263D01*
X11147Y215307D01*
X11179Y215356D01*
X11208Y215414D01*
Y215417D01*
X11211Y215423D01*
X11214Y215432D01*
X11220Y215443D01*
X11226Y215461D01*
X11231Y215478D01*
X11237Y215502D01*
X11246Y215528D01*
X11258Y215586D01*
X11269Y215653D01*
X11278Y215729D01*
X11281Y215813D01*
Y215848D01*
X11278Y215874D01*
X11275Y215906D01*
X11272Y215944D01*
X11266Y215982D01*
X11260Y216025D01*
X11240Y216119D01*
X11226Y216165D01*
X11211Y216212D01*
X11191Y216258D01*
X11167Y216302D01*
X11141Y216343D01*
X11112Y216380D01*
X11109Y216383D01*
X11103Y216389D01*
X11095Y216398D01*
X11083Y216409D01*
X11066Y216424D01*
X11045Y216441D01*
X11022Y216459D01*
X10996Y216479D01*
X10964Y216497D01*
X10932Y216514D01*
X10894Y216532D01*
X10853Y216546D01*
X10812Y216561D01*
X10766Y216572D01*
X10719Y216581D01*
X10667Y216584D01*
X10652Y216177D01*
X10655D01*
X10658D01*
X10678Y216171D01*
X10705Y216165D01*
X10737Y216153D01*
X10775Y216139D01*
X10809Y216119D01*
X10844Y216092D01*
X10874Y216063D01*
X10876Y216060D01*
X10885Y216049D01*
X10897Y216028D01*
X10908Y215999D01*
X10920Y215964D01*
X10932Y215921D01*
X10940Y215868D01*
X10943Y215807D01*
Y215778D01*
X10940Y215746D01*
X10935Y215708D01*
X10926Y215665D01*
X10911Y215618D01*
X10894Y215574D01*
X10868Y215534D01*
X10865Y215531D01*
X10859Y215525D01*
X10850Y215513D01*
X10836Y215502D01*
X10818Y215490D01*
X10795Y215478D01*
X10772Y215473D01*
X10743Y215470D01*
X10740D01*
X10731D01*
X10716Y215473D01*
X10702Y215478D01*
X10681Y215484D01*
X10661Y215493D01*
X10641Y215507D01*
X10620Y215528D01*
X10617Y215531D01*
X10609Y215545D01*
X10603Y215554D01*
X10597Y215568D01*
X10588Y215583D01*
X10580Y215603D01*
X10571Y215627D01*
X10559Y215653D01*
X10548Y215685D01*
X10536Y215717D01*
X10524Y215758D01*
X10513Y215801D01*
X10501Y215848D01*
X10486Y215900D01*
Y215903D01*
X10484Y215915D01*
X10481Y215929D01*
X10475Y215950D01*
X10469Y215973D01*
X10460Y216002D01*
X10452Y216034D01*
X10443Y216066D01*
X10419Y216136D01*
X10396Y216209D01*
X10370Y216279D01*
X10356Y216308D01*
X10341Y216337D01*
Y216340D01*
X10338Y216343D01*
X10326Y216360D01*
X10309Y216386D01*
X10286Y216418D01*
X10257Y216453D01*
X10222Y216491D01*
X10181Y216529D01*
X10134Y216561D01*
X10129Y216564D01*
X10111Y216572D01*
X10085Y216587D01*
X10047Y216602D01*
X10001Y216616D01*
X9945Y216631D01*
X9884Y216639D01*
X9814Y216642D01*
X11281D01*
D01*
D02*
G37*
%LPD*%
G36*
X9634Y226478D02*
X9229D01*
Y226728D01*
X9634D01*
Y226478D01*
D02*
G37*
G36*
X9971Y225637D02*
Y226106D01*
X10664D01*
X9971Y225637D01*
D02*
G37*
G36*
X9771Y222425D02*
X9750Y222422D01*
X9709Y222416D01*
X9657Y222404D01*
X9602Y222387D01*
X9547Y222360D01*
X9488Y222328D01*
X9485D01*
X9482Y222323D01*
X9465Y222311D01*
X9436Y222288D01*
X9404Y222259D01*
X9366Y222221D01*
X9331Y222171D01*
X9296Y222119D01*
X9264Y222055D01*
Y222052D01*
X9261Y222046D01*
X9258Y222038D01*
X9253Y222023D01*
X9247Y222006D01*
X9241Y221985D01*
X9235Y221962D01*
X9229Y221936D01*
X9221Y221904D01*
X9215Y221872D01*
X9203Y221796D01*
X9194Y221711D01*
X9191Y221618D01*
Y222427D01*
X9785D01*
X9771Y222425D01*
D02*
G37*
G36*
X10556Y219241D02*
X9229D01*
Y220059D01*
X10556Y219241D01*
D02*
G37*
G36*
X9771Y216639D02*
X9750Y216636D01*
X9709Y216631D01*
X9657Y216619D01*
X9602Y216602D01*
X9547Y216575D01*
X9488Y216543D01*
X9485D01*
X9482Y216538D01*
X9465Y216526D01*
X9436Y216503D01*
X9404Y216474D01*
X9366Y216436D01*
X9331Y216386D01*
X9296Y216334D01*
X9264Y216270D01*
Y216267D01*
X9261Y216261D01*
X9258Y216252D01*
X9253Y216238D01*
X9247Y216220D01*
X9241Y216200D01*
X9235Y216177D01*
X9229Y216150D01*
X9221Y216119D01*
X9215Y216087D01*
X9203Y216011D01*
X9194Y215927D01*
X9191Y215833D01*
Y216642D01*
X9785D01*
X9771Y216639D01*
D02*
G37*
%LPC*%
G36*
X40745Y226698D02*
X40465D01*
X40462Y226695D01*
X40456Y226689D01*
X40448Y226680D01*
X40436Y226669D01*
X40418Y226654D01*
X40398Y226637D01*
X40375Y226616D01*
X40346Y226593D01*
X40314Y226570D01*
X40279Y226544D01*
X40241Y226515D01*
X40200Y226485D01*
X40154Y226456D01*
X40107Y226427D01*
X40055Y226395D01*
X39999Y226363D01*
X39997Y226360D01*
X39985Y226354D01*
X39970Y226346D01*
X39947Y226334D01*
X39921Y226322D01*
X39886Y226305D01*
X39848Y226288D01*
X39807Y226267D01*
X39761Y226247D01*
X39711Y226226D01*
X39659Y226203D01*
X39604Y226183D01*
X39484Y226142D01*
X39359Y226104D01*
X39356D01*
X39345Y226101D01*
X39327Y226095D01*
X39301Y226090D01*
X39272Y226084D01*
X39240Y226078D01*
X39199Y226069D01*
X39158Y226061D01*
X39112Y226052D01*
X39065Y226046D01*
X38963Y226031D01*
X38859Y226023D01*
X38757Y226020D01*
Y225647D01*
X38763D01*
X38774D01*
X38798Y225650D01*
X38830D01*
X38868Y225653D01*
X38911Y225659D01*
X38963Y225665D01*
X39019Y225674D01*
X39080Y225682D01*
X39147Y225694D01*
X39217Y225708D01*
X39292Y225723D01*
X39368Y225743D01*
X39447Y225764D01*
X39525Y225790D01*
X39607Y225819D01*
X39612Y225822D01*
X39627Y225828D01*
X39650Y225836D01*
X39679Y225848D01*
X39717Y225866D01*
X39764Y225886D01*
X39813Y225909D01*
X39869Y225935D01*
X39927Y225964D01*
X39988Y225996D01*
X40055Y226031D01*
X40119Y226072D01*
X40256Y226157D01*
X40387Y226253D01*
Y225377D01*
X40745D01*
Y226698D01*
D02*
G37*
G36*
X40771Y224335D02*
Y224297D01*
X40430D01*
Y223212D01*
X39985D01*
Y224221D01*
X39645D01*
Y223212D01*
X39097D01*
Y224335D01*
X40771D01*
X38757D01*
Y222804D01*
X40771D01*
Y224335D01*
D02*
G37*
G36*
X39342Y222458D02*
X39313D01*
X39298Y222455D01*
X39278Y222452D01*
X39237Y222446D01*
X39185Y222435D01*
X39129Y222417D01*
X39074Y222391D01*
X39016Y222359D01*
X39013D01*
X39010Y222353D01*
X38993Y222342D01*
X38963Y222318D01*
X38932Y222289D01*
X38894Y222251D01*
X38859Y222202D01*
X38824Y222149D01*
X38792Y222085D01*
Y222083D01*
X38789Y222077D01*
X38786Y222068D01*
X38780Y222054D01*
X38774Y222036D01*
X38769Y222016D01*
X38763Y221992D01*
X38757Y221966D01*
X38748Y221934D01*
X38742Y221902D01*
X38731Y221827D01*
X38722Y221742D01*
X38719Y221649D01*
Y221611D01*
X38722Y221585D01*
X38725Y221553D01*
X38728Y221518D01*
X38734Y221477D01*
X38742Y221434D01*
X38763Y221338D01*
X38777Y221288D01*
X38792Y221242D01*
X38812Y221192D01*
X38835Y221146D01*
X38862Y221102D01*
X38894Y221061D01*
X38897Y221058D01*
X38902Y221052D01*
X38911Y221041D01*
X38926Y221029D01*
X38946Y221012D01*
X38969Y220994D01*
X38996Y220974D01*
X39025Y220953D01*
X39060Y220933D01*
X39097Y220913D01*
X39141Y220892D01*
X39188Y220872D01*
X39237Y220858D01*
X39292Y220840D01*
X39351Y220828D01*
X39412Y220820D01*
X39450Y221215D01*
X39447D01*
X39441Y221218D01*
X39429D01*
X39417Y221221D01*
X39383Y221233D01*
X39339Y221247D01*
X39289Y221265D01*
X39240Y221291D01*
X39196Y221320D01*
X39156Y221358D01*
X39153Y221364D01*
X39141Y221378D01*
X39127Y221402D01*
X39109Y221437D01*
X39092Y221480D01*
X39077Y221530D01*
X39065Y221588D01*
X39062Y221655D01*
Y221687D01*
X39068Y221722D01*
X39074Y221765D01*
X39083Y221812D01*
X39097Y221861D01*
X39118Y221908D01*
X39144Y221949D01*
X39147Y221954D01*
X39158Y221966D01*
X39176Y221981D01*
X39199Y222001D01*
X39228Y222019D01*
X39263Y222036D01*
X39298Y222048D01*
X39339Y222051D01*
X39342D01*
X39351D01*
X39365Y222048D01*
X39383Y222045D01*
X39400Y222039D01*
X39420Y222033D01*
X39441Y222022D01*
X39461Y222007D01*
X39464Y222004D01*
X39470Y221998D01*
X39479Y221989D01*
X39490Y221975D01*
X39505Y221954D01*
X39519Y221928D01*
X39534Y221899D01*
X39548Y221861D01*
Y221859D01*
X39554Y221847D01*
X39560Y221827D01*
X39566Y221812D01*
X39569Y221795D01*
X39575Y221774D01*
X39583Y221751D01*
X39589Y221725D01*
X39598Y221695D01*
X39607Y221661D01*
X39615Y221623D01*
X39627Y221582D01*
X39639Y221535D01*
Y221533D01*
X39642Y221521D01*
X39647Y221503D01*
X39653Y221483D01*
X39662Y221457D01*
X39671Y221425D01*
X39682Y221393D01*
X39694Y221355D01*
X39723Y221279D01*
X39758Y221207D01*
X39775Y221169D01*
X39796Y221137D01*
X39816Y221105D01*
X39836Y221079D01*
X39839Y221076D01*
X39845Y221070D01*
X39854Y221061D01*
X39866Y221049D01*
X39883Y221035D01*
X39904Y221020D01*
X39924Y221003D01*
X39950Y220988D01*
X40011Y220953D01*
X40081Y220924D01*
X40119Y220913D01*
X40157Y220904D01*
X40200Y220898D01*
X40244Y220895D01*
X40247D01*
X40250D01*
X40258D01*
X40270D01*
X40299Y220901D01*
X40337Y220907D01*
X40381Y220916D01*
X40430Y220930D01*
X40483Y220951D01*
X40532Y220980D01*
X40535D01*
X40538Y220983D01*
X40555Y220997D01*
X40579Y221015D01*
X40608Y221044D01*
X40640Y221079D01*
X40675Y221122D01*
X40707Y221172D01*
X40736Y221230D01*
Y221233D01*
X40739Y221239D01*
X40742Y221247D01*
X40747Y221259D01*
X40753Y221276D01*
X40759Y221294D01*
X40765Y221317D01*
X40774Y221343D01*
X40785Y221402D01*
X40797Y221469D01*
X40806Y221544D01*
X40808Y221629D01*
Y221663D01*
X40806Y221690D01*
X40803Y221722D01*
X40800Y221760D01*
X40794Y221797D01*
X40788Y221841D01*
X40768Y221934D01*
X40753Y221981D01*
X40739Y222027D01*
X40718Y222074D01*
X40695Y222117D01*
X40669Y222158D01*
X40640Y222196D01*
X40637Y222199D01*
X40631Y222205D01*
X40622Y222214D01*
X40611Y222225D01*
X40593Y222240D01*
X40573Y222257D01*
X40549Y222275D01*
X40523Y222295D01*
X40491Y222312D01*
X40459Y222330D01*
X40421Y222347D01*
X40381Y222362D01*
X40340Y222376D01*
X40293Y222388D01*
X40247Y222397D01*
X40194Y222400D01*
X40180Y221992D01*
X40183D01*
X40186D01*
X40206Y221987D01*
X40232Y221981D01*
X40264Y221969D01*
X40302Y221954D01*
X40337Y221934D01*
X40372Y221908D01*
X40401Y221879D01*
X40404Y221876D01*
X40413Y221864D01*
X40424Y221844D01*
X40436Y221815D01*
X40448Y221780D01*
X40459Y221736D01*
X40468Y221684D01*
X40471Y221623D01*
Y221594D01*
X40468Y221562D01*
X40462Y221524D01*
X40453Y221480D01*
X40439Y221434D01*
X40421Y221390D01*
X40395Y221349D01*
X40392Y221346D01*
X40387Y221340D01*
X40378Y221329D01*
X40363Y221317D01*
X40346Y221306D01*
X40323Y221294D01*
X40299Y221288D01*
X40270Y221285D01*
X40267D01*
X40258D01*
X40244Y221288D01*
X40229Y221294D01*
X40209Y221300D01*
X40189Y221308D01*
X40168Y221323D01*
X40148Y221343D01*
X40145Y221346D01*
X40136Y221361D01*
X40130Y221370D01*
X40125Y221384D01*
X40116Y221399D01*
X40107Y221419D01*
X40098Y221442D01*
X40087Y221469D01*
X40075Y221501D01*
X40064Y221533D01*
X40052Y221573D01*
X40040Y221617D01*
X40029Y221663D01*
X40014Y221716D01*
Y221719D01*
X40011Y221730D01*
X40008Y221745D01*
X40002Y221765D01*
X39997Y221789D01*
X39988Y221818D01*
X39979Y221850D01*
X39970Y221882D01*
X39947Y221952D01*
X39924Y222024D01*
X39898Y222094D01*
X39883Y222123D01*
X39869Y222152D01*
Y222155D01*
X39866Y222158D01*
X39854Y222176D01*
X39836Y222202D01*
X39813Y222234D01*
X39784Y222269D01*
X39749Y222307D01*
X39709Y222344D01*
X39662Y222376D01*
X39656Y222379D01*
X39639Y222388D01*
X39612Y222403D01*
X39575Y222417D01*
X39528Y222432D01*
X39473Y222446D01*
X39412Y222455D01*
X39342Y222458D01*
D02*
G37*
G36*
X40771Y220497D02*
X38757D01*
Y220089D01*
X40084Y219271D01*
X38757D01*
Y218896D01*
X40771D01*
Y220497D01*
D02*
G37*
G36*
Y218550D02*
Y218512D01*
X40430D01*
Y217427D01*
X39985D01*
Y218436D01*
X39645D01*
Y217427D01*
X39097D01*
Y218550D01*
X40771D01*
X38757D01*
Y217019D01*
X40771D01*
Y218550D01*
D02*
G37*
G36*
X39342Y216673D02*
X39313D01*
X39298Y216670D01*
X39278Y216667D01*
X39237Y216661D01*
X39185Y216650D01*
X39129Y216632D01*
X39074Y216606D01*
X39016Y216574D01*
X39013D01*
X39010Y216568D01*
X38993Y216557D01*
X38963Y216533D01*
X38932Y216504D01*
X38894Y216466D01*
X38859Y216417D01*
X38824Y216364D01*
X38792Y216300D01*
Y216298D01*
X38789Y216292D01*
X38786Y216283D01*
X38780Y216268D01*
X38774Y216251D01*
X38769Y216231D01*
X38763Y216207D01*
X38757Y216181D01*
X38748Y216149D01*
X38742Y216117D01*
X38731Y216041D01*
X38722Y215957D01*
X38719Y215864D01*
Y215826D01*
X38722Y215800D01*
X38725Y215768D01*
X38728Y215733D01*
X38734Y215692D01*
X38742Y215649D01*
X38763Y215552D01*
X38777Y215503D01*
X38792Y215457D01*
X38812Y215407D01*
X38835Y215360D01*
X38862Y215317D01*
X38894Y215276D01*
X38897Y215273D01*
X38902Y215267D01*
X38911Y215256D01*
X38926Y215244D01*
X38946Y215227D01*
X38969Y215209D01*
X38996Y215189D01*
X39025Y215168D01*
X39060Y215148D01*
X39097Y215128D01*
X39141Y215107D01*
X39188Y215087D01*
X39237Y215072D01*
X39292Y215055D01*
X39351Y215043D01*
X39412Y215035D01*
X39450Y215430D01*
X39447D01*
X39441Y215433D01*
X39429D01*
X39417Y215436D01*
X39383Y215448D01*
X39339Y215462D01*
X39289Y215480D01*
X39240Y215506D01*
X39196Y215535D01*
X39156Y215573D01*
X39153Y215579D01*
X39141Y215593D01*
X39127Y215616D01*
X39109Y215651D01*
X39092Y215695D01*
X39077Y215745D01*
X39065Y215803D01*
X39062Y215870D01*
Y215902D01*
X39068Y215937D01*
X39074Y215980D01*
X39083Y216027D01*
X39097Y216076D01*
X39118Y216123D01*
X39144Y216164D01*
X39147Y216169D01*
X39158Y216181D01*
X39176Y216196D01*
X39199Y216216D01*
X39228Y216233D01*
X39263Y216251D01*
X39298Y216263D01*
X39339Y216266D01*
X39342D01*
X39351D01*
X39365Y216263D01*
X39383Y216260D01*
X39400Y216254D01*
X39420Y216248D01*
X39441Y216236D01*
X39461Y216222D01*
X39464Y216219D01*
X39470Y216213D01*
X39479Y216204D01*
X39490Y216190D01*
X39505Y216169D01*
X39519Y216143D01*
X39534Y216114D01*
X39548Y216076D01*
Y216073D01*
X39554Y216062D01*
X39560Y216041D01*
X39566Y216027D01*
X39569Y216009D01*
X39575Y215989D01*
X39583Y215966D01*
X39589Y215940D01*
X39598Y215910D01*
X39607Y215876D01*
X39615Y215838D01*
X39627Y215797D01*
X39639Y215750D01*
Y215747D01*
X39642Y215736D01*
X39647Y215718D01*
X39653Y215698D01*
X39662Y215672D01*
X39671Y215640D01*
X39682Y215608D01*
X39694Y215570D01*
X39723Y215494D01*
X39758Y215422D01*
X39775Y215384D01*
X39796Y215352D01*
X39816Y215320D01*
X39836Y215294D01*
X39839Y215291D01*
X39845Y215285D01*
X39854Y215276D01*
X39866Y215264D01*
X39883Y215250D01*
X39904Y215235D01*
X39924Y215218D01*
X39950Y215203D01*
X40011Y215168D01*
X40081Y215139D01*
X40119Y215128D01*
X40157Y215119D01*
X40200Y215113D01*
X40244Y215110D01*
X40247D01*
X40250D01*
X40258D01*
X40270D01*
X40299Y215116D01*
X40337Y215122D01*
X40381Y215131D01*
X40430Y215145D01*
X40483Y215165D01*
X40532Y215195D01*
X40535D01*
X40538Y215197D01*
X40555Y215212D01*
X40579Y215230D01*
X40608Y215259D01*
X40640Y215294D01*
X40675Y215337D01*
X40707Y215387D01*
X40736Y215445D01*
Y215448D01*
X40739Y215454D01*
X40742Y215462D01*
X40747Y215474D01*
X40753Y215491D01*
X40759Y215509D01*
X40765Y215532D01*
X40774Y215558D01*
X40785Y215616D01*
X40797Y215684D01*
X40806Y215759D01*
X40808Y215844D01*
Y215035D01*
X38719D01*
X40808D01*
Y215878D01*
X40806Y215905D01*
X40803Y215937D01*
X40800Y215974D01*
X40794Y216012D01*
X40788Y216056D01*
X40768Y216149D01*
X40753Y216196D01*
X40739Y216242D01*
X40718Y216289D01*
X40695Y216332D01*
X40669Y216373D01*
X40640Y216411D01*
X40637Y216414D01*
X40631Y216420D01*
X40622Y216428D01*
X40611Y216440D01*
X40593Y216455D01*
X40573Y216472D01*
X40549Y216490D01*
X40523Y216510D01*
X40491Y216527D01*
X40459Y216545D01*
X40421Y216562D01*
X40381Y216577D01*
X40340Y216591D01*
X40293Y216603D01*
X40247Y216612D01*
X40194Y216615D01*
X40180Y216207D01*
X40183D01*
X40186D01*
X40206Y216201D01*
X40232Y216196D01*
X40264Y216184D01*
X40302Y216169D01*
X40337Y216149D01*
X40372Y216123D01*
X40401Y216094D01*
X40404Y216091D01*
X40413Y216079D01*
X40424Y216059D01*
X40436Y216030D01*
X40448Y215995D01*
X40459Y215951D01*
X40468Y215899D01*
X40471Y215838D01*
Y215809D01*
X40468Y215777D01*
X40462Y215739D01*
X40453Y215695D01*
X40439Y215649D01*
X40421Y215605D01*
X40395Y215564D01*
X40392Y215561D01*
X40387Y215555D01*
X40378Y215544D01*
X40363Y215532D01*
X40346Y215521D01*
X40323Y215509D01*
X40299Y215503D01*
X40270Y215500D01*
X40267D01*
X40258D01*
X40244Y215503D01*
X40229Y215509D01*
X40209Y215515D01*
X40189Y215523D01*
X40168Y215538D01*
X40148Y215558D01*
X40145Y215561D01*
X40136Y215576D01*
X40130Y215584D01*
X40125Y215599D01*
X40116Y215614D01*
X40107Y215634D01*
X40098Y215657D01*
X40087Y215684D01*
X40075Y215716D01*
X40064Y215747D01*
X40052Y215788D01*
X40040Y215832D01*
X40029Y215878D01*
X40014Y215931D01*
Y215934D01*
X40011Y215945D01*
X40008Y215960D01*
X40002Y215980D01*
X39997Y216004D01*
X39988Y216033D01*
X39979Y216065D01*
X39970Y216097D01*
X39947Y216166D01*
X39924Y216239D01*
X39898Y216309D01*
X39883Y216338D01*
X39869Y216367D01*
Y216370D01*
X39866Y216373D01*
X39854Y216391D01*
X39836Y216417D01*
X39813Y216449D01*
X39784Y216484D01*
X39749Y216522D01*
X39709Y216559D01*
X39662Y216591D01*
X39656Y216594D01*
X39639Y216603D01*
X39612Y216618D01*
X39575Y216632D01*
X39528Y216647D01*
X39473Y216661D01*
X39412Y216670D01*
X39342Y216673D01*
D02*
G37*
%LPD*%
G36*
X40771Y219289D02*
X39415Y220121D01*
X40771D01*
Y219289D01*
D02*
G37*
%LPC*%
G36*
X-28127Y224741D02*
X-30141D01*
Y222931D01*
X-28127D01*
Y223839D01*
X-28130Y223865D01*
Y223897D01*
X-28133Y223929D01*
Y223967D01*
X-28142Y224043D01*
X-28150Y224121D01*
X-28165Y224194D01*
X-28174Y224226D01*
X-28182Y224255D01*
Y224258D01*
X-28185Y224261D01*
X-28194Y224278D01*
X-28209Y224304D01*
X-28226Y224339D01*
X-28255Y224377D01*
X-28287Y224415D01*
X-28328Y224453D01*
X-28377Y224488D01*
X-28380D01*
X-28383Y224491D01*
X-28392Y224496D01*
X-28400Y224502D01*
X-28430Y224517D01*
X-28468Y224534D01*
X-28514Y224549D01*
X-28566Y224563D01*
X-28627Y224575D01*
X-28692Y224578D01*
X-28694D01*
X-28700D01*
X-28715D01*
X-28729Y224575D01*
X-28750D01*
X-28770Y224572D01*
X-28822Y224560D01*
X-28884Y224546D01*
X-28945Y224523D01*
X-29009Y224488D01*
X-29038Y224467D01*
X-29067Y224444D01*
X-29070Y224441D01*
X-29073Y224438D01*
X-29081Y224429D01*
X-29090Y224418D01*
X-29102Y224406D01*
X-29116Y224389D01*
X-29131Y224368D01*
X-29146Y224345D01*
X-29163Y224319D01*
X-29177Y224287D01*
X-29192Y224255D01*
X-29207Y224220D01*
X-29221Y224179D01*
X-29233Y224138D01*
X-29244Y224095D01*
X-29253Y224045D01*
Y224048D01*
X-29256Y224051D01*
X-29268Y224069D01*
X-29282Y224092D01*
X-29303Y224121D01*
X-29329Y224156D01*
X-29355Y224191D01*
X-29387Y224229D01*
X-29422Y224261D01*
X-29425Y224264D01*
X-29439Y224278D01*
X-29463Y224296D01*
X-29498Y224322D01*
X-29541Y224357D01*
X-29570Y224374D01*
X-29599Y224395D01*
X-29632Y224418D01*
X-29666Y224441D01*
X-29707Y224467D01*
X-29748Y224494D01*
X-30141Y224741D01*
X-28127D01*
D01*
D02*
G37*
G36*
Y222666D02*
X-30141D01*
Y221068D01*
D01*
Y221665D01*
X-28468D01*
Y221068D01*
X-28127D01*
Y222666D01*
D02*
G37*
G36*
X-28089Y220891D02*
X-30179D01*
Y218938D01*
D01*
Y219896D01*
X-30176Y219872D01*
X-30173Y219843D01*
X-30170Y219806D01*
X-30164Y219762D01*
X-30155Y219712D01*
X-30144Y219660D01*
X-30129Y219602D01*
X-30112Y219547D01*
X-30088Y219485D01*
X-30062Y219427D01*
X-30033Y219366D01*
X-29995Y219311D01*
X-29954Y219255D01*
X-29905Y219203D01*
X-29902Y219200D01*
X-29893Y219192D01*
X-29876Y219180D01*
X-29855Y219162D01*
X-29826Y219142D01*
X-29792Y219119D01*
X-29754Y219095D01*
X-29707Y219072D01*
X-29658Y219046D01*
X-29599Y219023D01*
X-29538Y218999D01*
X-29471Y218979D01*
X-29399Y218962D01*
X-29320Y218950D01*
X-29236Y218941D01*
X-29148Y218938D01*
X-29119D01*
X-29096Y218941D01*
X-29070D01*
X-29041Y218944D01*
X-29006Y218947D01*
X-28968Y218950D01*
X-28887Y218962D01*
X-28799Y218976D01*
X-28712Y218999D01*
X-28630Y219028D01*
X-28627D01*
X-28625Y219031D01*
X-28616Y219037D01*
X-28604Y219040D01*
X-28575Y219058D01*
X-28537Y219078D01*
X-28494Y219104D01*
X-28450Y219136D01*
X-28400Y219174D01*
X-28354Y219215D01*
X-28351Y219218D01*
X-28348Y219221D01*
X-28334Y219235D01*
X-28310Y219261D01*
X-28284Y219293D01*
X-28255Y219331D01*
X-28223Y219375D01*
X-28194Y219424D01*
X-28171Y219477D01*
Y219480D01*
X-28168Y219485D01*
X-28162Y219497D01*
X-28159Y219512D01*
X-28150Y219529D01*
X-28144Y219549D01*
X-28139Y219576D01*
X-28130Y219602D01*
X-28115Y219666D01*
X-28101Y219739D01*
X-28092Y219823D01*
X-28089Y219910D01*
Y219931D01*
X-28092Y219954D01*
Y219983D01*
X-28098Y220021D01*
X-28104Y220064D01*
X-28113Y220114D01*
X-28124Y220166D01*
X-28139Y220222D01*
X-28156Y220280D01*
X-28179Y220338D01*
X-28206Y220399D01*
X-28238Y220457D01*
X-28275Y220515D01*
X-28319Y220571D01*
X-28368Y220623D01*
X-28371Y220626D01*
X-28380Y220635D01*
X-28398Y220649D01*
X-28418Y220664D01*
X-28447Y220684D01*
X-28482Y220708D01*
X-28523Y220731D01*
X-28569Y220757D01*
X-28619Y220783D01*
X-28677Y220807D01*
X-28741Y220830D01*
X-28808Y220850D01*
X-28884Y220868D01*
X-28962Y220879D01*
X-29047Y220888D01*
X-29137Y220891D01*
X-28089D01*
D01*
D02*
G37*
G36*
X-28127Y218592D02*
X-30141D01*
Y216991D01*
X-28127D01*
Y217384D01*
X-29483Y218217D01*
X-28127D01*
Y218592D01*
D02*
G37*
%LPD*%
G36*
X-28686Y224156D02*
X-28662Y224153D01*
X-28636Y224144D01*
X-28610Y224136D01*
X-28581Y224121D01*
X-28558Y224104D01*
X-28555Y224101D01*
X-28546Y224095D01*
X-28537Y224080D01*
X-28523Y224063D01*
X-28508Y224043D01*
X-28497Y224016D01*
X-28485Y223984D01*
X-28476Y223949D01*
Y223946D01*
X-28473Y223938D01*
Y223920D01*
X-28470Y223894D01*
Y223830D01*
X-28468Y223804D01*
Y223338D01*
X-28980D01*
Y223734D01*
X-28977Y223792D01*
X-28974Y223853D01*
X-28971Y223914D01*
X-28968Y223941D01*
X-28965Y223964D01*
X-28959Y223987D01*
X-28956Y224002D01*
Y224005D01*
X-28951Y224013D01*
X-28945Y224028D01*
X-28936Y224043D01*
X-28910Y224080D01*
X-28892Y224098D01*
X-28872Y224115D01*
X-28869Y224118D01*
X-28860Y224121D01*
X-28849Y224130D01*
X-28831Y224138D01*
X-28808Y224144D01*
X-28782Y224153D01*
X-28753Y224156D01*
X-28721Y224159D01*
X-28715D01*
X-28703D01*
X-28686Y224156D01*
D02*
G37*
G36*
X-29704Y223961D02*
X-29701Y223958D01*
X-29693Y223955D01*
X-29681Y223946D01*
X-29666Y223935D01*
X-29649Y223923D01*
X-29626Y223909D01*
X-29579Y223877D01*
X-29527Y223839D01*
X-29480Y223804D01*
X-29436Y223772D01*
X-29422Y223757D01*
X-29407Y223746D01*
X-29405Y223743D01*
X-29399Y223737D01*
X-29387Y223725D01*
X-29373Y223711D01*
X-29361Y223690D01*
X-29346Y223670D01*
X-29335Y223647D01*
X-29323Y223623D01*
Y223621D01*
X-29320Y223612D01*
X-29314Y223597D01*
X-29311Y223574D01*
X-29305Y223545D01*
X-29303Y223510D01*
X-29300Y223469D01*
Y223338D01*
X-30141D01*
Y224252D01*
X-29704Y223961D01*
D02*
G37*
G36*
X-28468Y222072D02*
X-30141D01*
Y222666D01*
X-28468D01*
Y222072D01*
D02*
G37*
G36*
X-29183Y220888D02*
X-29218D01*
X-29259Y220882D01*
X-29305Y220876D01*
X-29361Y220868D01*
X-29416Y220859D01*
X-29477Y220844D01*
X-29541Y220827D01*
X-29605Y220804D01*
X-29669Y220777D01*
X-29730Y220748D01*
X-29792Y220710D01*
X-29850Y220670D01*
X-29905Y220623D01*
X-29908Y220620D01*
X-29917Y220612D01*
X-29931Y220597D01*
X-29949Y220574D01*
X-29969Y220548D01*
X-29992Y220515D01*
X-30016Y220478D01*
X-30042Y220437D01*
X-30068Y220388D01*
X-30091Y220335D01*
X-30114Y220277D01*
X-30135Y220213D01*
X-30152Y220146D01*
X-30167Y220073D01*
X-30176Y219998D01*
X-30179Y219916D01*
Y220891D01*
X-29157D01*
X-29183Y220888D01*
D02*
G37*
G36*
X-29070Y220469D02*
X-29041Y220466D01*
X-29009Y220463D01*
X-28971Y220460D01*
X-28933Y220451D01*
X-28849Y220434D01*
X-28761Y220408D01*
X-28718Y220390D01*
X-28680Y220370D01*
X-28642Y220344D01*
X-28607Y220318D01*
X-28604Y220315D01*
X-28598Y220312D01*
X-28593Y220303D01*
X-28581Y220291D01*
X-28566Y220274D01*
X-28552Y220256D01*
X-28537Y220236D01*
X-28520Y220210D01*
X-28505Y220184D01*
X-28491Y220152D01*
X-28462Y220085D01*
X-28450Y220047D01*
X-28444Y220006D01*
X-28438Y219963D01*
X-28436Y219916D01*
Y219893D01*
X-28438Y219875D01*
X-28441Y219852D01*
X-28444Y219829D01*
X-28456Y219771D01*
X-28479Y219707D01*
X-28491Y219672D01*
X-28508Y219637D01*
X-28529Y219605D01*
X-28552Y219570D01*
X-28578Y219538D01*
X-28610Y219509D01*
X-28613Y219506D01*
X-28619Y219503D01*
X-28627Y219494D01*
X-28642Y219485D01*
X-28662Y219474D01*
X-28683Y219462D01*
X-28709Y219448D01*
X-28741Y219433D01*
X-28776Y219419D01*
X-28814Y219404D01*
X-28857Y219392D01*
X-28904Y219381D01*
X-28956Y219372D01*
X-29012Y219363D01*
X-29070Y219360D01*
X-29134Y219357D01*
X-29137D01*
X-29148D01*
X-29166D01*
X-29189Y219360D01*
X-29218Y219363D01*
X-29253Y219366D01*
X-29288Y219372D01*
X-29329Y219378D01*
X-29413Y219395D01*
X-29498Y219424D01*
X-29541Y219442D01*
X-29582Y219462D01*
X-29620Y219488D01*
X-29655Y219514D01*
X-29658Y219517D01*
X-29664Y219523D01*
X-29672Y219532D01*
X-29681Y219544D01*
X-29695Y219558D01*
X-29710Y219579D01*
X-29728Y219599D01*
X-29742Y219625D01*
X-29777Y219680D01*
X-29803Y219750D01*
X-29815Y219788D01*
X-29823Y219829D01*
X-29829Y219872D01*
X-29832Y219916D01*
Y219939D01*
X-29829Y219957D01*
X-29826Y219977D01*
X-29823Y220001D01*
X-29809Y220056D01*
X-29789Y220120D01*
X-29774Y220152D01*
X-29759Y220187D01*
X-29739Y220219D01*
X-29716Y220254D01*
X-29690Y220286D01*
X-29658Y220315D01*
X-29655Y220318D01*
X-29649Y220321D01*
X-29640Y220329D01*
X-29626Y220338D01*
X-29605Y220353D01*
X-29582Y220364D01*
X-29556Y220379D01*
X-29524Y220393D01*
X-29489Y220408D01*
X-29451Y220422D01*
X-29407Y220437D01*
X-29358Y220449D01*
X-29309Y220457D01*
X-29253Y220466D01*
X-29192Y220469D01*
X-29128Y220472D01*
X-29125D01*
X-29114D01*
X-29096D01*
X-29070Y220469D01*
D02*
G37*
G36*
X-28814Y217367D02*
X-30141D01*
Y218185D01*
X-28814Y217367D01*
D02*
G37*
%LPC*%
G36*
X30940Y226711D02*
X29531D01*
X29508Y226708D01*
X29482Y226705D01*
X29453Y226702D01*
X29418Y226696D01*
X29383Y226688D01*
X29301Y226667D01*
X29261Y226653D01*
X29220Y226632D01*
X29179Y226612D01*
X29138Y226589D01*
X29098Y226560D01*
X29063Y226528D01*
X29060Y226525D01*
X29054Y226519D01*
X29045Y226510D01*
X29034Y226496D01*
X29019Y226478D01*
X29005Y226455D01*
X28987Y226432D01*
X28970Y226402D01*
X28952Y226370D01*
X28935Y226336D01*
X28920Y226298D01*
X28906Y226254D01*
X28894Y226210D01*
X28885Y226164D01*
X28879Y226114D01*
X28877Y226062D01*
Y225364D01*
Y226047D01*
X28879Y226033D01*
Y226012D01*
X28885Y225986D01*
X28888Y225954D01*
X28897Y225922D01*
X28906Y225885D01*
X28917Y225847D01*
X28935Y225806D01*
X28952Y225762D01*
X28975Y225722D01*
X29002Y225678D01*
X29034Y225637D01*
X29072Y225596D01*
X29112Y225559D01*
X29115Y225556D01*
X29124Y225550D01*
X29138Y225541D01*
X29159Y225530D01*
X29185Y225512D01*
X29217Y225497D01*
X29255Y225480D01*
X29298Y225463D01*
X29351Y225442D01*
X29406Y225425D01*
X29470Y225410D01*
X29543Y225396D01*
X29619Y225381D01*
X29703Y225372D01*
X29793Y225366D01*
X29892Y225364D01*
X30940D01*
Y226123D01*
X30937Y226138D01*
Y226158D01*
X30934Y226181D01*
X30922Y226234D01*
X30908Y226292D01*
X30885Y226356D01*
X30852Y226420D01*
X30832Y226449D01*
X30809Y226478D01*
Y226481D01*
X30803Y226484D01*
X30794Y226493D01*
X30786Y226501D01*
X30771Y226516D01*
X30756Y226528D01*
X30716Y226560D01*
X30660Y226592D01*
X30596Y226624D01*
X30524Y226653D01*
X30436Y226673D01*
X30396Y226301D01*
X30401D01*
X30413Y226298D01*
X30433Y226292D01*
X30460Y226286D01*
X30486Y226277D01*
X30515Y226263D01*
X30541Y226248D01*
X30564Y226228D01*
X30567Y226225D01*
X30573Y226216D01*
X30582Y226205D01*
X30593Y226187D01*
X30602Y226167D01*
X30611Y226141D01*
X30617Y226109D01*
X30620Y226077D01*
Y226071D01*
X30617Y226056D01*
X30614Y226033D01*
X30605Y226004D01*
X30593Y225972D01*
X30573Y225937D01*
X30547Y225902D01*
X30509Y225870D01*
X30503Y225867D01*
X30497Y225861D01*
X30486Y225855D01*
X30474Y225850D01*
X30457Y225841D01*
X30436Y225835D01*
X30410Y225826D01*
X30381Y225815D01*
X30349Y225806D01*
X30311Y225797D01*
X30270Y225788D01*
X30224Y225780D01*
X30171Y225774D01*
X30113Y225768D01*
X30052Y225762D01*
X30055Y225765D01*
X30061Y225768D01*
X30067Y225777D01*
X30078Y225788D01*
X30093Y225803D01*
X30108Y225820D01*
X30139Y225861D01*
X30169Y225914D01*
X30198Y225975D01*
X30209Y226010D01*
X30215Y226045D01*
X30221Y226082D01*
X30224Y226123D01*
Y226146D01*
X30221Y226164D01*
X30218Y226184D01*
X30215Y226207D01*
X30209Y226237D01*
X30201Y226266D01*
X30177Y226330D01*
X30163Y226365D01*
X30145Y226399D01*
X30125Y226434D01*
X30099Y226469D01*
X30070Y226504D01*
X30038Y226536D01*
X30035Y226539D01*
X30029Y226545D01*
X30020Y226554D01*
X30006Y226562D01*
X29985Y226577D01*
X29965Y226592D01*
X29939Y226606D01*
X29910Y226624D01*
X29878Y226641D01*
X29840Y226656D01*
X29802Y226670D01*
X29758Y226685D01*
X29715Y226694D01*
X29665Y226702D01*
X29616Y226708D01*
X29560Y226711D01*
X30940D01*
D02*
G37*
G36*
X30928Y224322D02*
X28914D01*
Y222791D01*
X30928D01*
Y224284D01*
X30588D01*
Y223199D01*
X30142D01*
Y224208D01*
X29802D01*
Y223199D01*
X29255D01*
Y224322D01*
X30928D01*
D02*
G37*
G36*
X29499Y222445D02*
X29470D01*
X29456Y222442D01*
X29435Y222439D01*
X29395Y222433D01*
X29342Y222422D01*
X29287Y222404D01*
X29232Y222378D01*
X29173Y222346D01*
X29171D01*
X29168Y222340D01*
X29150Y222328D01*
X29121Y222305D01*
X29089Y222276D01*
X29051Y222238D01*
X29016Y222189D01*
X28981Y222136D01*
X28949Y222072D01*
Y222070D01*
X28946Y222064D01*
X28943Y222055D01*
X28938Y222040D01*
X28932Y222023D01*
X28926Y222003D01*
X28920Y221979D01*
X28914Y221953D01*
X28906Y221921D01*
X28900Y221889D01*
X28888Y221813D01*
X28879Y221729D01*
X28877Y221636D01*
Y221598D01*
X28879Y221572D01*
X28882Y221540D01*
X28885Y221505D01*
X28891Y221464D01*
X28900Y221421D01*
X28920Y221324D01*
X28935Y221275D01*
X28949Y221229D01*
X28970Y221179D01*
X28993Y221132D01*
X29019Y221089D01*
X29051Y221048D01*
X29054Y221045D01*
X29060Y221039D01*
X29069Y221028D01*
X29083Y221016D01*
X29104Y220999D01*
X29127Y220981D01*
X29153Y220961D01*
X29182Y220940D01*
X29217Y220920D01*
X29255Y220900D01*
X29298Y220879D01*
X29345Y220859D01*
X29395Y220844D01*
X29450Y220827D01*
X29508Y220815D01*
X29569Y220807D01*
X29607Y221202D01*
X29604D01*
X29598Y221205D01*
X29587D01*
X29575Y221208D01*
X29540Y221220D01*
X29496Y221234D01*
X29447Y221252D01*
X29397Y221278D01*
X29354Y221307D01*
X29313Y221345D01*
X29310Y221351D01*
X29298Y221365D01*
X29284Y221389D01*
X29267Y221424D01*
X29249Y221467D01*
X29234Y221517D01*
X29223Y221575D01*
X29220Y221642D01*
Y221674D01*
X29226Y221709D01*
X29232Y221752D01*
X29240Y221799D01*
X29255Y221848D01*
X29275Y221895D01*
X29301Y221936D01*
X29304Y221941D01*
X29316Y221953D01*
X29333Y221968D01*
X29357Y221988D01*
X29386Y222006D01*
X29421Y222023D01*
X29456Y222035D01*
X29496Y222038D01*
X29499D01*
X29508D01*
X29523Y222035D01*
X29540Y222032D01*
X29557Y222026D01*
X29578Y222020D01*
X29598Y222008D01*
X29619Y221994D01*
X29621Y221991D01*
X29627Y221985D01*
X29636Y221976D01*
X29648Y221962D01*
X29662Y221941D01*
X29677Y221915D01*
X29691Y221886D01*
X29706Y221848D01*
Y221845D01*
X29712Y221834D01*
X29718Y221813D01*
X29723Y221799D01*
X29726Y221781D01*
X29732Y221761D01*
X29741Y221738D01*
X29747Y221711D01*
X29755Y221682D01*
X29764Y221648D01*
X29773Y221610D01*
X29785Y221569D01*
X29796Y221522D01*
Y221519D01*
X29799Y221508D01*
X29805Y221490D01*
X29811Y221470D01*
X29819Y221444D01*
X29828Y221412D01*
X29840Y221380D01*
X29851Y221342D01*
X29880Y221266D01*
X29915Y221194D01*
X29933Y221156D01*
X29953Y221124D01*
X29974Y221092D01*
X29994Y221065D01*
X29997Y221063D01*
X30003Y221057D01*
X30011Y221048D01*
X30023Y221036D01*
X30041Y221022D01*
X30061Y221007D01*
X30081Y220990D01*
X30108Y220975D01*
X30169Y220940D01*
X30239Y220911D01*
X30276Y220900D01*
X30314Y220891D01*
X30358Y220885D01*
X30401Y220882D01*
X30404D01*
X30407D01*
X30416D01*
X30428D01*
X30457Y220888D01*
X30494Y220894D01*
X30538Y220903D01*
X30588Y220917D01*
X30640Y220937D01*
X30689Y220967D01*
X30692D01*
X30695Y220970D01*
X30713Y220984D01*
X30736Y221002D01*
X30765Y221031D01*
X30797Y221065D01*
X30832Y221109D01*
X30864Y221159D01*
X30893Y221217D01*
Y221220D01*
X30896Y221226D01*
X30899Y221234D01*
X30905Y221246D01*
X30911Y221263D01*
X30917Y221281D01*
X30922Y221304D01*
X30931Y221330D01*
X30943Y221389D01*
X30954Y221456D01*
X30963Y221531D01*
X30966Y221616D01*
Y220807D01*
X28877D01*
X30966D01*
Y221650D01*
X30963Y221677D01*
X30960Y221709D01*
X30957Y221746D01*
X30951Y221784D01*
X30946Y221828D01*
X30925Y221921D01*
X30911Y221968D01*
X30896Y222014D01*
X30876Y222061D01*
X30852Y222104D01*
X30826Y222145D01*
X30797Y222183D01*
X30794Y222186D01*
X30788Y222192D01*
X30780Y222200D01*
X30768Y222212D01*
X30751Y222227D01*
X30730Y222244D01*
X30707Y222262D01*
X30681Y222282D01*
X30649Y222299D01*
X30617Y222317D01*
X30579Y222334D01*
X30538Y222349D01*
X30497Y222363D01*
X30451Y222375D01*
X30404Y222384D01*
X30352Y222387D01*
X30337Y221979D01*
X30340D01*
X30343D01*
X30364Y221973D01*
X30390Y221968D01*
X30422Y221956D01*
X30460Y221941D01*
X30494Y221921D01*
X30529Y221895D01*
X30559Y221866D01*
X30562Y221863D01*
X30570Y221851D01*
X30582Y221831D01*
X30593Y221802D01*
X30605Y221767D01*
X30617Y221723D01*
X30626Y221671D01*
X30628Y221610D01*
Y221581D01*
X30626Y221549D01*
X30620Y221511D01*
X30611Y221467D01*
X30596Y221421D01*
X30579Y221377D01*
X30553Y221336D01*
X30550Y221333D01*
X30544Y221327D01*
X30535Y221316D01*
X30521Y221304D01*
X30503Y221292D01*
X30480Y221281D01*
X30457Y221275D01*
X30428Y221272D01*
X30425D01*
X30416D01*
X30401Y221275D01*
X30387Y221281D01*
X30367Y221287D01*
X30346Y221295D01*
X30326Y221310D01*
X30305Y221330D01*
X30303Y221333D01*
X30294Y221348D01*
X30288Y221357D01*
X30282Y221371D01*
X30273Y221386D01*
X30265Y221406D01*
X30256Y221429D01*
X30244Y221456D01*
X30233Y221487D01*
X30221Y221519D01*
X30209Y221560D01*
X30198Y221604D01*
X30186Y221650D01*
X30171Y221703D01*
Y221706D01*
X30169Y221717D01*
X30166Y221732D01*
X30160Y221752D01*
X30154Y221776D01*
X30145Y221805D01*
X30137Y221837D01*
X30128Y221869D01*
X30105Y221938D01*
X30081Y222011D01*
X30055Y222081D01*
X30041Y222110D01*
X30026Y222139D01*
Y222142D01*
X30023Y222145D01*
X30011Y222163D01*
X29994Y222189D01*
X29971Y222221D01*
X29942Y222256D01*
X29907Y222293D01*
X29866Y222331D01*
X29819Y222363D01*
X29814Y222366D01*
X29796Y222375D01*
X29770Y222390D01*
X29732Y222404D01*
X29686Y222419D01*
X29630Y222433D01*
X29569Y222442D01*
X29499Y222445D01*
D02*
G37*
G36*
X30928Y220483D02*
X28914D01*
Y218883D01*
X30928D01*
Y219276D01*
X29572Y220108D01*
X30928D01*
Y220483D01*
D02*
G37*
G36*
Y218537D02*
Y218499D01*
X30588D01*
Y217413D01*
X30142D01*
Y218423D01*
X29802D01*
Y217413D01*
X29255D01*
Y218537D01*
X30928D01*
X28914D01*
Y217006D01*
X30928D01*
Y218537D01*
D02*
G37*
G36*
X29499Y216660D02*
X29470D01*
X29456Y216657D01*
X29435Y216654D01*
X29395Y216648D01*
X29342Y216636D01*
X29287Y216619D01*
X29232Y216593D01*
X29173Y216561D01*
X29171D01*
X29168Y216555D01*
X29150Y216543D01*
X29121Y216520D01*
X29089Y216491D01*
X29051Y216453D01*
X29016Y216404D01*
X28981Y216351D01*
X28949Y216287D01*
Y216284D01*
X28946Y216279D01*
X28943Y216270D01*
X28938Y216255D01*
X28932Y216238D01*
X28926Y216217D01*
X28920Y216194D01*
X28914Y216168D01*
X28906Y216136D01*
X28900Y216104D01*
X28888Y216028D01*
X28879Y215944D01*
X28877Y215851D01*
Y216660D01*
D01*
Y215021D01*
Y215813D01*
X28879Y215787D01*
X28882Y215755D01*
X28885Y215720D01*
X28891Y215679D01*
X28900Y215635D01*
X28920Y215539D01*
X28935Y215490D01*
X28949Y215443D01*
X28970Y215394D01*
X28993Y215347D01*
X29019Y215304D01*
X29051Y215263D01*
X29054Y215260D01*
X29060Y215254D01*
X29069Y215243D01*
X29083Y215231D01*
X29104Y215213D01*
X29127Y215196D01*
X29153Y215176D01*
X29182Y215155D01*
X29217Y215135D01*
X29255Y215115D01*
X29298Y215094D01*
X29345Y215074D01*
X29395Y215059D01*
X29450Y215042D01*
X29508Y215030D01*
X29569Y215021D01*
X29607Y215417D01*
X29604D01*
X29598Y215420D01*
X29587D01*
X29575Y215423D01*
X29540Y215435D01*
X29496Y215449D01*
X29447Y215467D01*
X29397Y215493D01*
X29354Y215522D01*
X29313Y215560D01*
X29310Y215566D01*
X29298Y215580D01*
X29284Y215603D01*
X29267Y215638D01*
X29249Y215682D01*
X29234Y215732D01*
X29223Y215790D01*
X29220Y215857D01*
Y215889D01*
X29226Y215924D01*
X29232Y215967D01*
X29240Y216014D01*
X29255Y216063D01*
X29275Y216110D01*
X29301Y216150D01*
X29304Y216156D01*
X29316Y216168D01*
X29333Y216182D01*
X29357Y216203D01*
X29386Y216220D01*
X29421Y216238D01*
X29456Y216249D01*
X29496Y216252D01*
X29499D01*
X29508D01*
X29523Y216249D01*
X29540Y216247D01*
X29557Y216241D01*
X29578Y216235D01*
X29598Y216223D01*
X29619Y216209D01*
X29621Y216206D01*
X29627Y216200D01*
X29636Y216191D01*
X29648Y216177D01*
X29662Y216156D01*
X29677Y216130D01*
X29691Y216101D01*
X29706Y216063D01*
Y216060D01*
X29712Y216049D01*
X29718Y216028D01*
X29723Y216014D01*
X29726Y215996D01*
X29732Y215976D01*
X29741Y215953D01*
X29747Y215927D01*
X29755Y215897D01*
X29764Y215862D01*
X29773Y215825D01*
X29785Y215784D01*
X29796Y215737D01*
Y215734D01*
X29799Y215723D01*
X29805Y215705D01*
X29811Y215685D01*
X29819Y215659D01*
X29828Y215627D01*
X29840Y215595D01*
X29851Y215557D01*
X29880Y215481D01*
X29915Y215408D01*
X29933Y215371D01*
X29953Y215339D01*
X29974Y215307D01*
X29994Y215280D01*
X29997Y215278D01*
X30003Y215272D01*
X30011Y215263D01*
X30023Y215251D01*
X30041Y215237D01*
X30061Y215222D01*
X30081Y215205D01*
X30108Y215190D01*
X30169Y215155D01*
X30239Y215126D01*
X30276Y215115D01*
X30314Y215106D01*
X30358Y215100D01*
X30401Y215097D01*
X30404D01*
X30407D01*
X30416D01*
X30428D01*
X30457Y215103D01*
X30494Y215109D01*
X30538Y215118D01*
X30588Y215132D01*
X30640Y215152D01*
X30689Y215181D01*
X30692D01*
X30695Y215184D01*
X30713Y215199D01*
X30736Y215216D01*
X30765Y215246D01*
X30797Y215280D01*
X30832Y215324D01*
X30864Y215374D01*
X30893Y215432D01*
Y215435D01*
X30896Y215441D01*
X30899Y215449D01*
X30905Y215461D01*
X30911Y215478D01*
X30917Y215496D01*
X30922Y215519D01*
X30931Y215545D01*
X30943Y215603D01*
X30954Y215670D01*
X30963Y215746D01*
X30966Y215830D01*
Y215865D01*
X30963Y215892D01*
X30960Y215924D01*
X30957Y215961D01*
X30951Y215999D01*
X30946Y216043D01*
X30925Y216136D01*
X30911Y216182D01*
X30896Y216229D01*
X30876Y216276D01*
X30852Y216319D01*
X30826Y216360D01*
X30797Y216398D01*
X30794Y216401D01*
X30788Y216407D01*
X30780Y216415D01*
X30768Y216427D01*
X30751Y216441D01*
X30730Y216459D01*
X30707Y216476D01*
X30681Y216497D01*
X30649Y216514D01*
X30617Y216532D01*
X30579Y216549D01*
X30538Y216564D01*
X30497Y216578D01*
X30451Y216590D01*
X30404Y216599D01*
X30352Y216602D01*
X30337Y216194D01*
X30340D01*
X30343D01*
X30364Y216188D01*
X30390Y216182D01*
X30422Y216171D01*
X30460Y216156D01*
X30494Y216136D01*
X30529Y216110D01*
X30559Y216081D01*
X30562Y216078D01*
X30570Y216066D01*
X30582Y216046D01*
X30593Y216017D01*
X30605Y215982D01*
X30617Y215938D01*
X30626Y215886D01*
X30628Y215825D01*
Y215795D01*
X30626Y215763D01*
X30620Y215726D01*
X30611Y215682D01*
X30596Y215635D01*
X30579Y215592D01*
X30553Y215551D01*
X30550Y215548D01*
X30544Y215542D01*
X30535Y215531D01*
X30521Y215519D01*
X30503Y215507D01*
X30480Y215496D01*
X30457Y215490D01*
X30428Y215487D01*
X30425D01*
X30416D01*
X30401Y215490D01*
X30387Y215496D01*
X30367Y215502D01*
X30346Y215510D01*
X30326Y215525D01*
X30305Y215545D01*
X30303Y215548D01*
X30294Y215563D01*
X30288Y215571D01*
X30282Y215586D01*
X30273Y215600D01*
X30265Y215621D01*
X30256Y215644D01*
X30244Y215670D01*
X30233Y215702D01*
X30221Y215734D01*
X30209Y215775D01*
X30198Y215819D01*
X30186Y215865D01*
X30171Y215918D01*
Y215921D01*
X30169Y215932D01*
X30166Y215947D01*
X30160Y215967D01*
X30154Y215990D01*
X30145Y216020D01*
X30137Y216052D01*
X30128Y216084D01*
X30105Y216153D01*
X30081Y216226D01*
X30055Y216296D01*
X30041Y216325D01*
X30026Y216354D01*
Y216357D01*
X30023Y216360D01*
X30011Y216377D01*
X29994Y216404D01*
X29971Y216436D01*
X29942Y216471D01*
X29907Y216509D01*
X29866Y216546D01*
X29819Y216578D01*
X29814Y216581D01*
X29796Y216590D01*
X29770Y216604D01*
X29732Y216619D01*
X29686Y216634D01*
X29630Y216648D01*
X29569Y216657D01*
X29499Y216660D01*
D02*
G37*
%LPD*%
G36*
X29621Y226330D02*
X29665Y226324D01*
X29712Y226312D01*
X29761Y226301D01*
X29808Y226280D01*
X29846Y226254D01*
X29849Y226251D01*
X29860Y226239D01*
X29875Y226225D01*
X29892Y226202D01*
X29910Y226173D01*
X29924Y226141D01*
X29936Y226103D01*
X29939Y226062D01*
Y226045D01*
X29933Y226021D01*
X29927Y225995D01*
X29915Y225966D01*
X29901Y225934D01*
X29878Y225902D01*
X29849Y225873D01*
X29846Y225870D01*
X29831Y225861D01*
X29811Y225850D01*
X29785Y225835D01*
X29747Y225820D01*
X29703Y225809D01*
X29651Y225800D01*
X29590Y225797D01*
X29587D01*
X29581D01*
X29572D01*
X29557D01*
X29526Y225803D01*
X29482Y225809D01*
X29435Y225817D01*
X29386Y225832D01*
X29339Y225852D01*
X29298Y225882D01*
X29296Y225885D01*
X29284Y225896D01*
X29267Y225917D01*
X29249Y225940D01*
X29229Y225969D01*
X29214Y226001D01*
X29202Y226039D01*
X29197Y226079D01*
Y226097D01*
X29202Y226117D01*
X29208Y226144D01*
X29217Y226170D01*
X29232Y226202D01*
X29252Y226231D01*
X29278Y226260D01*
X29281Y226263D01*
X29296Y226272D01*
X29316Y226283D01*
X29345Y226298D01*
X29383Y226309D01*
X29430Y226321D01*
X29488Y226330D01*
X29555Y226333D01*
X29557D01*
X29563D01*
X29575D01*
X29587D01*
X29621Y226330D01*
D02*
G37*
G36*
X30940Y225364D02*
X29945D01*
X29982Y225366D01*
X30029Y225369D01*
X30081Y225375D01*
X30139Y225381D01*
X30201Y225390D01*
X30265Y225398D01*
X30332Y225413D01*
X30398Y225430D01*
X30465Y225451D01*
X30527Y225474D01*
X30588Y225500D01*
X30643Y225532D01*
X30692Y225567D01*
X30695Y225570D01*
X30704Y225576D01*
X30716Y225588D01*
X30730Y225605D01*
X30751Y225625D01*
X30771Y225649D01*
X30794Y225678D01*
X30817Y225710D01*
X30838Y225748D01*
X30861Y225785D01*
X30882Y225832D01*
X30902Y225879D01*
X30917Y225928D01*
X30928Y225983D01*
X30937Y226039D01*
X30940Y226100D01*
Y225364D01*
D02*
G37*
G36*
X30241Y219258D02*
X28914D01*
Y220076D01*
X30241Y219258D01*
D02*
G37*
%LPC*%
G36*
X41961Y111360D02*
X41906D01*
X41868Y111354D01*
X41819Y111349D01*
X41764Y111343D01*
X41704Y111332D01*
X41638Y111322D01*
X41497Y111283D01*
X41355Y111229D01*
X41278Y111196D01*
X41213Y111158D01*
X41142Y111109D01*
X41082Y111054D01*
X41076Y111049D01*
X41065Y111043D01*
X41054Y111021D01*
X41032Y111000D01*
X41005Y110972D01*
X40978Y110934D01*
X40951Y110896D01*
X40918Y110847D01*
X40863Y110737D01*
X40809Y110612D01*
X40787Y110541D01*
X40776Y110464D01*
X40765Y110382D01*
X40759Y110301D01*
Y111360D01*
D01*
D01*
Y107560D01*
X43298D01*
Y107576D01*
X43293Y107598D01*
X43287Y107625D01*
X43282Y107658D01*
X43277Y107696D01*
X43255Y107794D01*
X43222Y107904D01*
X43178Y108024D01*
X43124Y108155D01*
X43053Y108280D01*
Y108286D01*
X43042Y108297D01*
X43031Y108319D01*
X43009Y108340D01*
X42987Y108379D01*
X42954Y108417D01*
X42916Y108466D01*
X42872Y108521D01*
X42823Y108586D01*
X42763Y108652D01*
X42698Y108728D01*
X42621Y108810D01*
X42539Y108892D01*
X42447Y108985D01*
X42348Y109083D01*
X42239Y109187D01*
X42234Y109192D01*
X42217Y109209D01*
X42195Y109230D01*
X42163Y109263D01*
X42119Y109296D01*
X42075Y109340D01*
X41977Y109438D01*
X41879Y109542D01*
X41780Y109645D01*
X41737Y109689D01*
X41693Y109738D01*
X41660Y109776D01*
X41638Y109809D01*
X41633Y109820D01*
X41617Y109847D01*
X41589Y109891D01*
X41562Y109951D01*
X41535Y110017D01*
X41507Y110093D01*
X41491Y110169D01*
X41486Y110251D01*
Y110257D01*
Y110262D01*
Y110290D01*
X41491Y110339D01*
X41502Y110393D01*
X41518Y110453D01*
X41540Y110513D01*
X41573Y110574D01*
X41617Y110628D01*
X41622Y110634D01*
X41638Y110650D01*
X41671Y110672D01*
X41710Y110694D01*
X41764Y110715D01*
X41824Y110737D01*
X41895Y110754D01*
X41977Y110759D01*
X42015D01*
X42059Y110754D01*
X42108Y110743D01*
X42168Y110726D01*
X42228Y110699D01*
X42288Y110666D01*
X42343Y110623D01*
X42348Y110617D01*
X42365Y110595D01*
X42386Y110563D01*
X42408Y110513D01*
X42436Y110453D01*
X42458Y110372D01*
X42479Y110279D01*
X42490Y110169D01*
X43211Y110240D01*
Y110246D01*
X43205Y110268D01*
Y110295D01*
X43195Y110339D01*
X43189Y110388D01*
X43173Y110442D01*
X43156Y110503D01*
X43140Y110574D01*
X43085Y110710D01*
X43020Y110852D01*
X42976Y110923D01*
X42927Y110988D01*
X42872Y111043D01*
X42812Y111098D01*
X42807Y111103D01*
X42796Y111109D01*
X42780Y111120D01*
X42752Y111141D01*
X42720Y111158D01*
X42676Y111180D01*
X42632Y111207D01*
X42578Y111229D01*
X42518Y111256D01*
X42452Y111278D01*
X42310Y111322D01*
X42141Y111349D01*
X42053Y111354D01*
X41961Y111360D01*
D02*
G37*
G36*
X39023D02*
X38969D01*
X38930Y111354D01*
X38881Y111349D01*
X38827Y111343D01*
X38767Y111332D01*
X38701Y111322D01*
X38559Y111283D01*
X38417Y111229D01*
X38341Y111196D01*
X38275Y111158D01*
X38204Y111109D01*
X38144Y111054D01*
X38139Y111049D01*
X38128Y111043D01*
X38117Y111021D01*
X38095Y111000D01*
X38068Y110972D01*
X38040Y110934D01*
X38013Y110896D01*
X37980Y110847D01*
X37926Y110737D01*
X37871Y110612D01*
X37849Y110541D01*
X37838Y110464D01*
X37827Y110382D01*
X37822Y110301D01*
Y111360D01*
D01*
D01*
Y107560D01*
X40361D01*
Y107576D01*
X40355Y107598D01*
X40350Y107625D01*
X40345Y107658D01*
X40339Y107696D01*
X40317Y107794D01*
X40284Y107904D01*
X40241Y108024D01*
X40186Y108155D01*
X40115Y108280D01*
Y108286D01*
X40104Y108297D01*
X40093Y108319D01*
X40071Y108340D01*
X40050Y108379D01*
X40017Y108417D01*
X39979Y108466D01*
X39935Y108521D01*
X39886Y108586D01*
X39826Y108652D01*
X39760Y108728D01*
X39684Y108810D01*
X39602Y108892D01*
X39509Y108985D01*
X39411Y109083D01*
X39302Y109187D01*
X39296Y109192D01*
X39280Y109209D01*
X39258Y109230D01*
X39225Y109263D01*
X39182Y109296D01*
X39138Y109340D01*
X39039Y109438D01*
X38941Y109542D01*
X38843Y109645D01*
X38799Y109689D01*
X38756Y109738D01*
X38723Y109776D01*
X38701Y109809D01*
X38695Y109820D01*
X38679Y109847D01*
X38652Y109891D01*
X38625Y109951D01*
X38597Y110017D01*
X38570Y110093D01*
X38554Y110169D01*
X38548Y110251D01*
Y110257D01*
Y110262D01*
Y110290D01*
X38554Y110339D01*
X38565Y110393D01*
X38581Y110453D01*
X38603Y110513D01*
X38636Y110574D01*
X38679Y110628D01*
X38685Y110634D01*
X38701Y110650D01*
X38734Y110672D01*
X38772Y110694D01*
X38827Y110715D01*
X38887Y110737D01*
X38958Y110754D01*
X39039Y110759D01*
X39078D01*
X39121Y110754D01*
X39171Y110743D01*
X39231Y110726D01*
X39291Y110699D01*
X39351Y110666D01*
X39405Y110623D01*
X39411Y110617D01*
X39427Y110595D01*
X39449Y110563D01*
X39471Y110513D01*
X39498Y110453D01*
X39520Y110372D01*
X39542Y110279D01*
X39553Y110169D01*
X40273Y110240D01*
Y110246D01*
X40268Y110268D01*
Y110295D01*
X40257Y110339D01*
X40252Y110388D01*
X40235Y110442D01*
X40219Y110503D01*
X40203Y110574D01*
X40148Y110710D01*
X40082Y110852D01*
X40039Y110923D01*
X39990Y110988D01*
X39935Y111043D01*
X39875Y111098D01*
X39869Y111103D01*
X39858Y111109D01*
X39842Y111120D01*
X39815Y111141D01*
X39782Y111158D01*
X39738Y111180D01*
X39695Y111207D01*
X39640Y111229D01*
X39580Y111256D01*
X39514Y111278D01*
X39373Y111322D01*
X39203Y111349D01*
X39116Y111354D01*
X39023Y111360D01*
D02*
G37*
G36*
X36108D02*
X36053D01*
X36015Y111354D01*
X35971Y111349D01*
X35916Y111338D01*
X35862Y111327D01*
X35796Y111311D01*
X35725Y111289D01*
X35660Y111261D01*
X35589Y111234D01*
X35518Y111196D01*
X35447Y111147D01*
X35376Y111098D01*
X35310Y111038D01*
X35250Y110967D01*
X35245Y110961D01*
X35234Y110945D01*
X35217Y110918D01*
X35190Y110879D01*
X35163Y110825D01*
X35130Y110759D01*
X35097Y110688D01*
X35065Y110595D01*
X35032Y110497D01*
X34994Y110382D01*
X34966Y110257D01*
X34939Y110115D01*
X34912Y109962D01*
X34895Y109798D01*
X34885Y109618D01*
X34879Y109422D01*
Y111360D01*
D01*
D01*
Y107489D01*
Y109318D01*
X34885Y109247D01*
X34890Y109159D01*
X34901Y109056D01*
X34912Y108947D01*
X34923Y108826D01*
X34944Y108701D01*
X34972Y108570D01*
X34999Y108444D01*
X35037Y108319D01*
X35076Y108193D01*
X35130Y108078D01*
X35185Y107969D01*
X35250Y107876D01*
X35256Y107871D01*
X35267Y107860D01*
X35283Y107838D01*
X35305Y107816D01*
X35338Y107789D01*
X35376Y107756D01*
X35425Y107718D01*
X35474Y107685D01*
X35534Y107647D01*
X35594Y107609D01*
X35665Y107576D01*
X35742Y107549D01*
X35824Y107527D01*
X35916Y107505D01*
X36009Y107494D01*
X36108Y107489D01*
X34879D01*
X37330D01*
D01*
X36129D01*
X36162Y107494D01*
X36200D01*
X36244Y107500D01*
X36299Y107510D01*
X36359Y107521D01*
X36424Y107543D01*
X36495Y107565D01*
X36566Y107592D01*
X36643Y107625D01*
X36714Y107669D01*
X36790Y107712D01*
X36861Y107773D01*
X36932Y107833D01*
X36998Y107909D01*
X37003Y107915D01*
X37014Y107931D01*
X37030Y107958D01*
X37047Y107991D01*
X37074Y108040D01*
X37101Y108100D01*
X37134Y108177D01*
X37161Y108258D01*
X37194Y108357D01*
X37227Y108466D01*
X37254Y108592D01*
X37276Y108728D01*
X37298Y108881D01*
X37314Y109050D01*
X37325Y109230D01*
X37330Y109427D01*
Y109531D01*
X37325Y109602D01*
X37320Y109689D01*
X37309Y109793D01*
X37298Y109902D01*
X37287Y110022D01*
X37265Y110148D01*
X37243Y110273D01*
X37210Y110404D01*
X37178Y110530D01*
X37134Y110650D01*
X37085Y110765D01*
X37030Y110874D01*
X36965Y110967D01*
X36959Y110972D01*
X36948Y110983D01*
X36932Y111005D01*
X36905Y111027D01*
X36877Y111059D01*
X36839Y111092D01*
X36790Y111125D01*
X36741Y111163D01*
X36681Y111202D01*
X36621Y111234D01*
X36550Y111267D01*
X36473Y111300D01*
X36391Y111322D01*
X36299Y111343D01*
X36206Y111354D01*
X36108Y111360D01*
D02*
G37*
G36*
X3042Y110361D02*
X3004D01*
X2954Y110355D01*
X2894Y110350D01*
X2829Y110339D01*
X2758Y110322D01*
X2681Y110301D01*
X2605Y110273D01*
X2594Y110268D01*
X2572Y110257D01*
X2534Y110240D01*
X2490Y110213D01*
X2441Y110180D01*
X2392Y110142D01*
X2343Y110099D01*
X2299Y110049D01*
X2294Y110044D01*
X2283Y110028D01*
X2266Y110000D01*
X2245Y109962D01*
X2217Y109918D01*
X2195Y109864D01*
X2174Y109809D01*
X2157Y109744D01*
Y109738D01*
X2152Y109711D01*
X2141Y109673D01*
X2135Y109618D01*
X2125Y109553D01*
X2119Y109465D01*
X2114Y109372D01*
Y110361D01*
D01*
Y107560D01*
X4614D01*
Y110301D01*
X3943D01*
Y109897D01*
X3937Y109902D01*
X3926Y109918D01*
X3904Y109940D01*
X3877Y109968D01*
X3844Y110006D01*
X3801Y110044D01*
X3751Y110088D01*
X3697Y110131D01*
X3637Y110169D01*
X3566Y110213D01*
X3495Y110251D01*
X3413Y110290D01*
X3326Y110317D01*
X3238Y110339D01*
X3140Y110355D01*
X3042Y110361D01*
D02*
G37*
G36*
X26247Y110361D02*
X26187D01*
X26143Y110355D01*
X26088Y110350D01*
X26028Y110339D01*
X25957Y110328D01*
X25886Y110311D01*
X25804Y110290D01*
X25723Y110262D01*
X25641Y110230D01*
X25553Y110191D01*
X25466Y110142D01*
X25384Y110088D01*
X25302Y110028D01*
X25226Y109957D01*
X25220Y109951D01*
X25209Y109940D01*
X25188Y109913D01*
X25166Y109886D01*
X25133Y109842D01*
X25100Y109798D01*
X25062Y109738D01*
X25024Y109678D01*
X24991Y109607D01*
X24953Y109531D01*
X24920Y109443D01*
X24887Y109356D01*
X24865Y109258D01*
X24844Y109159D01*
X24833Y109050D01*
X24827Y108936D01*
Y110361D01*
D01*
Y107500D01*
X27655D01*
D01*
X26280D01*
X26307Y107505D01*
X26340D01*
X26378Y107510D01*
X26471Y107521D01*
X26585Y107543D01*
X26705Y107571D01*
X26831Y107614D01*
X26962Y107669D01*
X26967D01*
X26978Y107674D01*
X26995Y107685D01*
X27017Y107702D01*
X27077Y107740D01*
X27153Y107794D01*
X27235Y107865D01*
X27322Y107953D01*
X27404Y108051D01*
X27481Y108166D01*
Y108171D01*
X27486Y108182D01*
X27497Y108198D01*
X27508Y108226D01*
X27519Y108258D01*
X27535Y108297D01*
X27552Y108340D01*
X27568Y108390D01*
X27584Y108444D01*
X27601Y108504D01*
X27628Y108641D01*
X27650Y108799D01*
X27655Y108968D01*
Y109007D01*
X27650Y109028D01*
Y109061D01*
X27645Y109099D01*
X27634Y109192D01*
X27612Y109296D01*
X27579Y109411D01*
X27541Y109536D01*
X27481Y109662D01*
Y109667D01*
X27470Y109678D01*
X27464Y109695D01*
X27448Y109716D01*
X27404Y109776D01*
X27350Y109853D01*
X27279Y109935D01*
X27191Y110022D01*
X27093Y110104D01*
X26978Y110180D01*
X26973D01*
X26962Y110186D01*
X26946Y110197D01*
X26918Y110208D01*
X26891Y110224D01*
X26853Y110235D01*
X26809Y110251D01*
X26765Y110273D01*
X26656Y110306D01*
X26531Y110333D01*
X26394Y110355D01*
X26247Y110361D01*
D02*
G37*
G36*
X6591Y110361D02*
X6531D01*
X6487Y110355D01*
X6432Y110350D01*
X6372Y110339D01*
X6301Y110328D01*
X6230Y110311D01*
X6148Y110290D01*
X6067Y110262D01*
X5985Y110230D01*
X5897Y110191D01*
X5810Y110142D01*
X5728Y110088D01*
X5646Y110028D01*
X5570Y109957D01*
X5564Y109951D01*
X5553Y109940D01*
X5531Y109913D01*
X5510Y109886D01*
X5477Y109842D01*
X5444Y109798D01*
X5406Y109738D01*
X5368Y109678D01*
X5335Y109607D01*
X5297Y109531D01*
X5264Y109443D01*
X5231Y109356D01*
X5209Y109258D01*
X5187Y109159D01*
X5177Y109050D01*
X5171Y108936D01*
Y110361D01*
D01*
D01*
Y107500D01*
D01*
Y108876D01*
X5177Y108832D01*
X5182Y108777D01*
X5193Y108717D01*
X5204Y108646D01*
X5220Y108575D01*
X5242Y108493D01*
X5269Y108411D01*
X5302Y108324D01*
X5340Y108237D01*
X5390Y108149D01*
X5444Y108067D01*
X5504Y107985D01*
X5575Y107904D01*
X5581Y107898D01*
X5592Y107887D01*
X5613Y107865D01*
X5646Y107838D01*
X5684Y107811D01*
X5734Y107778D01*
X5788Y107740D01*
X5848Y107702D01*
X5919Y107663D01*
X5996Y107625D01*
X6078Y107592D01*
X6170Y107565D01*
X6263Y107538D01*
X6367Y107516D01*
X6471Y107505D01*
X6585Y107500D01*
X7999D01*
D01*
X6623D01*
X6651Y107505D01*
X6684D01*
X6722Y107510D01*
X6815Y107521D01*
X6929Y107543D01*
X7049Y107571D01*
X7175Y107614D01*
X7306Y107669D01*
X7311D01*
X7322Y107674D01*
X7339Y107685D01*
X7361Y107702D01*
X7421Y107740D01*
X7497Y107794D01*
X7579Y107865D01*
X7666Y107953D01*
X7748Y108051D01*
X7825Y108166D01*
Y108171D01*
X7830Y108182D01*
X7841Y108198D01*
X7852Y108226D01*
X7863Y108258D01*
X7879Y108297D01*
X7896Y108340D01*
X7912Y108390D01*
X7928Y108444D01*
X7945Y108504D01*
X7972Y108641D01*
X7994Y108799D01*
X7999Y108968D01*
Y109007D01*
X7994Y109028D01*
Y109061D01*
X7988Y109099D01*
X7978Y109192D01*
X7956Y109296D01*
X7923Y109411D01*
X7885Y109536D01*
X7825Y109662D01*
Y109667D01*
X7814Y109678D01*
X7808Y109695D01*
X7792Y109716D01*
X7748Y109776D01*
X7694Y109853D01*
X7623Y109935D01*
X7535Y110022D01*
X7437Y110104D01*
X7322Y110180D01*
X7317D01*
X7306Y110186D01*
X7290Y110197D01*
X7262Y110208D01*
X7235Y110224D01*
X7197Y110235D01*
X7153Y110251D01*
X7109Y110273D01*
X7000Y110306D01*
X6875Y110333D01*
X6738Y110355D01*
X6591Y110361D01*
D02*
G37*
G36*
X-2598D02*
X-2658D01*
X-2702Y110355D01*
X-2751Y110350D01*
X-2811Y110339D01*
X-2877Y110328D01*
X-2948Y110311D01*
X-3024Y110290D01*
X-3101Y110262D01*
X-3183Y110230D01*
X-3265Y110186D01*
X-3341Y110142D01*
X-3417Y110088D01*
X-3494Y110022D01*
X-3559Y109951D01*
X-3565Y109946D01*
X-3576Y109935D01*
X-3592Y109907D01*
X-3614Y109875D01*
X-3641Y109831D01*
X-3669Y109782D01*
X-3701Y109716D01*
X-3734Y109645D01*
X-3767Y109564D01*
X-3800Y109471D01*
X-3827Y109372D01*
X-3854Y109258D01*
X-3876Y109138D01*
X-3892Y109007D01*
X-3903Y108870D01*
Y110361D01*
D01*
Y107500D01*
X-1348D01*
X-2642D01*
X-2609Y107505D01*
X-2560D01*
X-2500Y107516D01*
X-2429Y107527D01*
X-2353Y107538D01*
X-2276Y107560D01*
X-2189Y107581D01*
X-2102Y107614D01*
X-2014Y107652D01*
X-1927Y107696D01*
X-1839Y107751D01*
X-1758Y107811D01*
X-1687Y107882D01*
X-1616Y107964D01*
X-1610Y107969D01*
X-1605Y107980D01*
X-1594Y108002D01*
X-1572Y108029D01*
X-1556Y108067D01*
X-1534Y108111D01*
X-1506Y108160D01*
X-1485Y108220D01*
X-1457Y108286D01*
X-1436Y108357D01*
X-1408Y108433D01*
X-1392Y108521D01*
X-1375Y108608D01*
X-1359Y108701D01*
X-1354Y108805D01*
X-1348Y108908D01*
Y108974D01*
X-1354Y109023D01*
X-1359Y109078D01*
X-1364Y109143D01*
X-1375Y109214D01*
X-1392Y109296D01*
X-1436Y109465D01*
X-1463Y109553D01*
X-1496Y109645D01*
X-1539Y109733D01*
X-1588Y109815D01*
X-1643Y109897D01*
X-1703Y109973D01*
X-1709Y109978D01*
X-1719Y109989D01*
X-1741Y110011D01*
X-1768Y110033D01*
X-1801Y110060D01*
X-1845Y110093D01*
X-1894Y110131D01*
X-1949Y110169D01*
X-2009Y110202D01*
X-2080Y110240D01*
X-2151Y110273D01*
X-2233Y110301D01*
X-2314Y110322D01*
X-2407Y110344D01*
X-2500Y110355D01*
X-2598Y110361D01*
D02*
G37*
G36*
X-9347D02*
X-9407D01*
X-9451Y110355D01*
X-9500Y110350D01*
X-9560Y110339D01*
X-9625Y110328D01*
X-9696Y110311D01*
X-9773Y110290D01*
X-9849Y110262D01*
X-9931Y110230D01*
X-10013Y110186D01*
X-10090Y110142D01*
X-10166Y110088D01*
X-10242Y110022D01*
X-10308Y109951D01*
X-10313Y109946D01*
X-10324Y109935D01*
X-10341Y109907D01*
X-10363Y109875D01*
X-10390Y109831D01*
X-10417Y109782D01*
X-10450Y109716D01*
X-10483Y109645D01*
X-10515Y109564D01*
X-10548Y109471D01*
X-10576Y109372D01*
X-10603Y109258D01*
X-10625Y109138D01*
X-10641Y109007D01*
X-10652Y108870D01*
Y110361D01*
D01*
Y107500D01*
X-8097D01*
X-9391D01*
X-9358Y107505D01*
X-9309D01*
X-9249Y107516D01*
X-9178Y107527D01*
X-9101Y107538D01*
X-9025Y107560D01*
X-8937Y107581D01*
X-8850Y107614D01*
X-8763Y107652D01*
X-8675Y107696D01*
X-8588Y107751D01*
X-8506Y107811D01*
X-8435Y107882D01*
X-8364Y107964D01*
X-8359Y107969D01*
X-8353Y107980D01*
X-8342Y108002D01*
X-8320Y108029D01*
X-8304Y108067D01*
X-8282Y108111D01*
X-8255Y108160D01*
X-8233Y108220D01*
X-8206Y108286D01*
X-8184Y108357D01*
X-8157Y108433D01*
X-8140Y108521D01*
X-8124Y108608D01*
X-8108Y108701D01*
X-8102Y108805D01*
X-8097Y108908D01*
Y108974D01*
X-8102Y109023D01*
X-8108Y109078D01*
X-8113Y109143D01*
X-8124Y109214D01*
X-8140Y109296D01*
X-8184Y109465D01*
X-8211Y109553D01*
X-8244Y109645D01*
X-8288Y109733D01*
X-8337Y109815D01*
X-8392Y109897D01*
X-8452Y109973D01*
X-8457Y109978D01*
X-8468Y109989D01*
X-8490Y110011D01*
X-8517Y110033D01*
X-8550Y110060D01*
X-8593Y110093D01*
X-8643Y110131D01*
X-8697Y110169D01*
X-8757Y110202D01*
X-8828Y110240D01*
X-8899Y110273D01*
X-8981Y110301D01*
X-9063Y110322D01*
X-9156Y110344D01*
X-9249Y110355D01*
X-9347Y110361D01*
D02*
G37*
G36*
X1737Y110301D02*
X978D01*
X459Y108897D01*
X312Y108433D01*
X306Y108439D01*
X301Y108460D01*
X290Y108493D01*
X279Y108526D01*
X252Y108608D01*
X241Y108641D01*
X235Y108668D01*
Y108674D01*
X230Y108690D01*
X224Y108712D01*
X213Y108739D01*
X192Y108816D01*
X159Y108897D01*
X-365Y110301D01*
X-1108D01*
X-21Y107560D01*
X-1108D01*
Y110301D01*
D01*
Y107560D01*
X1737D01*
D01*
X634D01*
X1737Y110301D01*
D01*
D02*
G37*
G36*
X16315Y111311D02*
X15551D01*
Y108198D01*
X13650D01*
Y111311D01*
Y107560D01*
X16315D01*
Y111311D01*
D02*
G37*
G36*
X10009Y111409D02*
X9943D01*
X9894Y111404D01*
X9834Y111398D01*
X9769Y111387D01*
X9692Y111376D01*
X9610Y111360D01*
X9523Y111338D01*
X9430Y111311D01*
X9337Y111278D01*
X9239Y111234D01*
X9146Y111191D01*
X9059Y111136D01*
X8966Y111070D01*
X8884Y111000D01*
X8879D01*
X8873Y110988D01*
X8857Y110972D01*
X8840Y110956D01*
X8818Y110928D01*
X8797Y110896D01*
X8737Y110819D01*
X8676Y110721D01*
X8611Y110601D01*
X8551Y110464D01*
X8496Y110306D01*
X9250Y110126D01*
Y110131D01*
X9255Y110137D01*
Y110153D01*
X9266Y110175D01*
X9283Y110224D01*
X9310Y110290D01*
X9348Y110366D01*
X9397Y110442D01*
X9463Y110519D01*
X9534Y110584D01*
X9545Y110590D01*
X9572Y110612D01*
X9616Y110639D01*
X9676Y110672D01*
X9752Y110705D01*
X9839Y110732D01*
X9938Y110754D01*
X10047Y110759D01*
X10085D01*
X10118Y110754D01*
X10151Y110748D01*
X10194Y110743D01*
X10287Y110721D01*
X10396Y110683D01*
X10511Y110628D01*
X10571Y110595D01*
X10626Y110557D01*
X10680Y110508D01*
X10729Y110453D01*
Y110448D01*
X10740Y110437D01*
X10751Y110421D01*
X10768Y110393D01*
X10790Y110361D01*
X10811Y110322D01*
X10833Y110273D01*
X10855Y110219D01*
X10882Y110153D01*
X10904Y110082D01*
X10926Y110000D01*
X10948Y109913D01*
X10964Y109815D01*
X10975Y109711D01*
X10981Y109596D01*
X10986Y109471D01*
Y109465D01*
Y109438D01*
Y109400D01*
X10981Y109356D01*
Y109296D01*
X10970Y109225D01*
X10964Y109154D01*
X10953Y109072D01*
X10921Y108903D01*
X10877Y108733D01*
X10849Y108652D01*
X10811Y108575D01*
X10773Y108504D01*
X10729Y108444D01*
X10724Y108439D01*
X10718Y108433D01*
X10702Y108417D01*
X10680Y108395D01*
X10626Y108351D01*
X10549Y108297D01*
X10456Y108237D01*
X10342Y108193D01*
X10211Y108155D01*
X10140Y108149D01*
X10063Y108144D01*
X10036D01*
X10014Y108149D01*
X9954Y108155D01*
X9883Y108166D01*
X9807Y108193D01*
X9719Y108226D01*
X9632Y108270D01*
X9545Y108335D01*
X9534Y108346D01*
X9506Y108373D01*
X9468Y108417D01*
X9425Y108482D01*
X9370Y108570D01*
X9321Y108674D01*
X9272Y108799D01*
X9228Y108947D01*
X8485Y108717D01*
Y111409D01*
D01*
D01*
Y107494D01*
D01*
Y108712D01*
X8491Y108690D01*
X8502Y108657D01*
X8518Y108613D01*
X8540Y108564D01*
X8562Y108504D01*
X8589Y108439D01*
X8622Y108368D01*
X8698Y108220D01*
X8797Y108067D01*
X8917Y107920D01*
X8982Y107854D01*
X9053Y107794D01*
X9059Y107789D01*
X9070Y107783D01*
X9091Y107767D01*
X9124Y107745D01*
X9162Y107723D01*
X9211Y107702D01*
X9266Y107674D01*
X9326Y107647D01*
X9397Y107614D01*
X9474Y107587D01*
X9556Y107565D01*
X9643Y107543D01*
X9736Y107521D01*
X9839Y107505D01*
X9943Y107500D01*
X10058Y107494D01*
X11772D01*
X10091D01*
X10129Y107500D01*
X10183Y107505D01*
X10244Y107510D01*
X10320Y107521D01*
X10402Y107538D01*
X10495Y107560D01*
X10588Y107587D01*
X10686Y107620D01*
X10790Y107663D01*
X10893Y107712D01*
X10997Y107767D01*
X11101Y107838D01*
X11199Y107915D01*
X11292Y108007D01*
X11297Y108013D01*
X11314Y108029D01*
X11336Y108062D01*
X11368Y108100D01*
X11401Y108155D01*
X11445Y108215D01*
X11488Y108291D01*
X11532Y108379D01*
X11576Y108472D01*
X11619Y108575D01*
X11663Y108695D01*
X11696Y108821D01*
X11729Y108952D01*
X11750Y109099D01*
X11767Y109252D01*
X11772Y109416D01*
Y109460D01*
X11767Y109509D01*
Y109574D01*
X11756Y109651D01*
X11745Y109744D01*
X11734Y109842D01*
X11712Y109957D01*
X11685Y110071D01*
X11652Y110191D01*
X11614Y110311D01*
X11565Y110437D01*
X11510Y110557D01*
X11445Y110672D01*
X11374Y110781D01*
X11286Y110885D01*
X11281Y110890D01*
X11265Y110907D01*
X11237Y110934D01*
X11199Y110967D01*
X11150Y111005D01*
X11090Y111049D01*
X11024Y111098D01*
X10942Y111147D01*
X10855Y111196D01*
X10762Y111245D01*
X10653Y111289D01*
X10544Y111327D01*
X10418Y111360D01*
X10293Y111387D01*
X10151Y111404D01*
X10009Y111409D01*
D02*
G37*
G36*
X28485Y111273D02*
Y110301D01*
X27988D01*
Y109722D01*
X28485D01*
Y108613D01*
Y108608D01*
Y108597D01*
Y108581D01*
Y108559D01*
Y108504D01*
Y108439D01*
X28480Y108373D01*
Y108308D01*
Y108258D01*
X28474Y108237D01*
Y108226D01*
X28469Y108215D01*
X28458Y108193D01*
X28442Y108166D01*
X28409Y108133D01*
X28398Y108127D01*
X28376Y108117D01*
X28338Y108106D01*
X28289Y108100D01*
X28267D01*
X28245Y108106D01*
X28212Y108111D01*
X28169Y108117D01*
X28120Y108127D01*
X28060Y108144D01*
X27994Y108166D01*
X27928Y107603D01*
X27934D01*
X27939Y107598D01*
X27972Y107587D01*
X28027Y107571D01*
X28098Y107554D01*
X28180Y107532D01*
X28278Y107516D01*
X28387Y107505D01*
X28502Y107500D01*
X27928D01*
Y111273D01*
D01*
Y107500D01*
X29545D01*
X28534D01*
X28573Y107505D01*
X28622Y107510D01*
X28676Y107516D01*
X28736Y107527D01*
X28797Y107543D01*
X28857Y107565D01*
X28862Y107571D01*
X28884Y107576D01*
X28911Y107592D01*
X28944Y107609D01*
X29020Y107663D01*
X29059Y107696D01*
X29091Y107734D01*
X29097Y107740D01*
X29102Y107756D01*
X29113Y107778D01*
X29130Y107811D01*
X29146Y107849D01*
X29162Y107898D01*
X29179Y107953D01*
X29190Y108013D01*
Y108018D01*
X29195Y108040D01*
Y108073D01*
X29201Y108127D01*
X29206Y108198D01*
Y108286D01*
X29212Y108335D01*
Y108395D01*
Y108455D01*
Y108526D01*
Y109722D01*
X29545D01*
Y110301D01*
X29212D01*
Y110847D01*
X28485Y111273D01*
D02*
G37*
G36*
X-7310Y111273D02*
Y110301D01*
X-7807D01*
Y109722D01*
X-7310D01*
Y108613D01*
Y108608D01*
Y108597D01*
Y108581D01*
Y108559D01*
Y108504D01*
Y108439D01*
X-7316Y108373D01*
Y108308D01*
Y108258D01*
X-7321Y108237D01*
Y108226D01*
X-7327Y108215D01*
X-7338Y108193D01*
X-7354Y108166D01*
X-7387Y108133D01*
X-7398Y108127D01*
X-7420Y108117D01*
X-7458Y108106D01*
X-7507Y108100D01*
X-7529D01*
X-7551Y108106D01*
X-7583Y108111D01*
X-7627Y108117D01*
X-7676Y108127D01*
X-7736Y108144D01*
X-7802Y108166D01*
X-7867Y107603D01*
X-7862D01*
X-7856Y107598D01*
X-7824Y107587D01*
X-7769Y107571D01*
X-7698Y107554D01*
X-7616Y107532D01*
X-7518Y107516D01*
X-7409Y107505D01*
X-7294Y107500D01*
X-7867D01*
Y111273D01*
D01*
Y107500D01*
X-6251D01*
X-7261D01*
X-7223Y107505D01*
X-7174Y107510D01*
X-7119Y107516D01*
X-7059Y107527D01*
X-6999Y107543D01*
X-6939Y107565D01*
X-6934Y107571D01*
X-6912Y107576D01*
X-6884Y107592D01*
X-6852Y107609D01*
X-6775Y107663D01*
X-6737Y107696D01*
X-6704Y107734D01*
X-6699Y107740D01*
X-6693Y107756D01*
X-6683Y107778D01*
X-6666Y107811D01*
X-6650Y107849D01*
X-6633Y107898D01*
X-6617Y107953D01*
X-6606Y108013D01*
Y108018D01*
X-6601Y108040D01*
Y108073D01*
X-6595Y108127D01*
X-6590Y108198D01*
Y108286D01*
X-6584Y108335D01*
Y108395D01*
Y108455D01*
Y108526D01*
Y109722D01*
X-6251D01*
Y110301D01*
X-6584D01*
Y110847D01*
X-7310Y111273D01*
D02*
G37*
G36*
X34617Y111338D02*
X31095D01*
Y107560D01*
D01*
Y111338D01*
X32438Y107560D01*
X33263D01*
X34617Y111338D01*
D01*
D02*
G37*
G36*
X23053Y111338D02*
X20055D01*
Y107560D01*
D01*
Y110699D01*
X21169D01*
Y107560D01*
X20055D01*
X23053D01*
X21933D01*
Y110699D01*
X23053D01*
Y111338D01*
D02*
G37*
G36*
X19826D02*
X16828D01*
Y107560D01*
D01*
Y110699D01*
X17942D01*
Y107560D01*
X16828D01*
X19826D01*
D01*
X18707D01*
Y110699D01*
X19826D01*
Y111338D01*
D02*
G37*
G36*
X-5754Y110361D02*
X-5798D01*
X-5847Y110355D01*
X-5907Y110344D01*
X-5984Y110328D01*
X-6066Y110301D01*
X-6147Y110268D01*
X-6235Y110219D01*
D01*
X-6005Y109591D01*
X-6000Y109596D01*
X-5973Y109607D01*
X-5940Y109629D01*
X-5896Y109651D01*
X-5842Y109673D01*
X-5787Y109695D01*
X-5727Y109705D01*
X-5667Y109711D01*
X-5645D01*
X-5612Y109705D01*
X-5580Y109700D01*
X-5541Y109689D01*
X-5498Y109673D01*
X-5454Y109651D01*
X-5410Y109624D01*
X-5405Y109618D01*
X-5394Y109607D01*
X-5372Y109585D01*
X-5350Y109553D01*
X-5323Y109514D01*
X-5296Y109460D01*
X-5268Y109394D01*
X-5246Y109318D01*
Y109307D01*
X-5241Y109291D01*
X-5236Y109274D01*
Y109247D01*
X-5230Y109214D01*
X-5225Y109170D01*
X-5219Y109121D01*
X-5214Y109067D01*
X-5208Y108996D01*
X-5203Y108925D01*
Y108837D01*
X-5197Y108745D01*
X-5192Y108641D01*
Y108526D01*
Y108400D01*
Y107560D01*
X-6235D01*
X-4466D01*
Y110301D01*
X-5137D01*
Y109913D01*
X-5143Y109918D01*
X-5165Y109951D01*
X-5197Y110000D01*
X-5241Y110060D01*
X-5285Y110120D01*
X-5339Y110180D01*
X-5389Y110235D01*
X-5443Y110273D01*
X-5449Y110279D01*
X-5465Y110290D01*
X-5498Y110301D01*
X-5536Y110317D01*
X-5580Y110333D01*
X-5634Y110350D01*
X-5689Y110355D01*
X-5754Y110361D01*
D02*
G37*
G36*
X-6235D02*
D01*
Y107560D01*
D01*
Y110219D01*
D01*
D01*
Y110361D01*
D01*
D02*
G37*
G36*
X-12503D02*
X-12547D01*
X-12596Y110355D01*
X-12656Y110344D01*
X-12732Y110328D01*
X-12814Y110301D01*
X-12896Y110268D01*
X-12983Y110219D01*
D01*
X-12754Y109591D01*
X-12749Y109596D01*
X-12721Y109607D01*
X-12688Y109629D01*
X-12645Y109651D01*
X-12590Y109673D01*
X-12536Y109695D01*
X-12476Y109705D01*
X-12415Y109711D01*
X-12394D01*
X-12361Y109705D01*
X-12328Y109700D01*
X-12290Y109689D01*
X-12246Y109673D01*
X-12203Y109651D01*
X-12159Y109624D01*
X-12153Y109618D01*
X-12143Y109607D01*
X-12121Y109585D01*
X-12099Y109553D01*
X-12071Y109514D01*
X-12044Y109460D01*
X-12017Y109394D01*
X-11995Y109318D01*
Y109307D01*
X-11990Y109291D01*
X-11984Y109274D01*
Y109247D01*
X-11979Y109214D01*
X-11973Y109170D01*
X-11968Y109121D01*
X-11962Y109067D01*
X-11957Y108996D01*
X-11951Y108925D01*
Y108837D01*
X-11946Y108745D01*
X-11941Y108641D01*
Y108526D01*
Y108400D01*
Y107560D01*
X-12983D01*
X-11214D01*
Y110301D01*
X-11886D01*
Y109913D01*
X-11891Y109918D01*
X-11913Y109951D01*
X-11946Y110000D01*
X-11990Y110060D01*
X-12033Y110120D01*
X-12088Y110180D01*
X-12137Y110235D01*
X-12192Y110273D01*
X-12197Y110279D01*
X-12213Y110290D01*
X-12246Y110301D01*
X-12285Y110317D01*
X-12328Y110333D01*
X-12383Y110350D01*
X-12437Y110355D01*
X-12503Y110361D01*
D02*
G37*
G36*
X-12983D02*
D01*
Y107560D01*
D01*
Y110219D01*
D01*
D01*
Y110361D01*
D01*
D02*
G37*
%LPD*%
G36*
X40765Y110208D02*
X40770Y110148D01*
X40781Y110071D01*
X40798Y109989D01*
X40819Y109902D01*
X40852Y109815D01*
X40858Y109804D01*
X40869Y109776D01*
X40890Y109727D01*
X40923Y109667D01*
X40961Y109596D01*
X41011Y109514D01*
X41071Y109427D01*
X41142Y109334D01*
X41147Y109329D01*
X41169Y109301D01*
X41202Y109263D01*
X41251Y109209D01*
X41316Y109143D01*
X41398Y109056D01*
X41497Y108963D01*
X41617Y108848D01*
X41622Y108843D01*
X41633Y108837D01*
X41649Y108821D01*
X41671Y108799D01*
X41731Y108745D01*
X41802Y108679D01*
X41873Y108608D01*
X41944Y108537D01*
X42010Y108477D01*
X42032Y108450D01*
X42053Y108428D01*
X42059Y108422D01*
X42070Y108411D01*
X42086Y108390D01*
X42108Y108362D01*
X42157Y108302D01*
X42201Y108231D01*
X40759D01*
Y110257D01*
X40765Y110208D01*
D02*
G37*
G36*
X37827D02*
X37833Y110148D01*
X37844Y110071D01*
X37860Y109989D01*
X37882Y109902D01*
X37915Y109815D01*
X37920Y109804D01*
X37931Y109776D01*
X37953Y109727D01*
X37986Y109667D01*
X38024Y109596D01*
X38073Y109514D01*
X38133Y109427D01*
X38204Y109334D01*
X38210Y109329D01*
X38231Y109301D01*
X38264Y109263D01*
X38313Y109209D01*
X38379Y109143D01*
X38461Y109056D01*
X38559Y108963D01*
X38679Y108848D01*
X38685Y108843D01*
X38695Y108837D01*
X38712Y108821D01*
X38734Y108799D01*
X38794Y108745D01*
X38865Y108679D01*
X38936Y108608D01*
X39007Y108537D01*
X39072Y108477D01*
X39094Y108450D01*
X39116Y108428D01*
X39121Y108422D01*
X39132Y108411D01*
X39149Y108390D01*
X39171Y108362D01*
X39220Y108302D01*
X39263Y108231D01*
X37822D01*
Y110257D01*
X37827Y110208D01*
D02*
G37*
G36*
X36157Y110754D02*
X36184Y110748D01*
X36222Y110737D01*
X36260Y110721D01*
X36304Y110699D01*
X36342Y110672D01*
X36348Y110666D01*
X36359Y110655D01*
X36375Y110634D01*
X36397Y110606D01*
X36424Y110563D01*
X36446Y110513D01*
X36473Y110448D01*
X36495Y110372D01*
Y110366D01*
X36501Y110361D01*
Y110339D01*
X36506Y110317D01*
X36511Y110284D01*
X36517Y110246D01*
X36522Y110202D01*
X36528Y110148D01*
X36539Y110082D01*
X36544Y110017D01*
X36550Y109935D01*
X36555Y109853D01*
X36561Y109755D01*
Y109656D01*
X36566Y109542D01*
Y109422D01*
Y109416D01*
Y109394D01*
Y109356D01*
Y109312D01*
Y109258D01*
X36561Y109198D01*
Y109127D01*
X36555Y109056D01*
X36550Y108903D01*
X36539Y108750D01*
X36533Y108679D01*
X36522Y108613D01*
X36511Y108553D01*
X36501Y108499D01*
X36495Y108488D01*
X36490Y108461D01*
X36473Y108417D01*
X36457Y108368D01*
X36430Y108313D01*
X36402Y108258D01*
X36370Y108209D01*
X36337Y108171D01*
X36331Y108166D01*
X36320Y108160D01*
X36299Y108144D01*
X36271Y108133D01*
X36239Y108117D01*
X36200Y108100D01*
X36157Y108095D01*
X36108Y108089D01*
X36086D01*
X36058Y108095D01*
X36031Y108100D01*
X35993Y108111D01*
X35955Y108122D01*
X35916Y108144D01*
X35878Y108171D01*
X35873Y108177D01*
X35862Y108188D01*
X35840Y108209D01*
X35818Y108242D01*
X35796Y108280D01*
X35769Y108335D01*
X35742Y108395D01*
X35720Y108472D01*
Y108477D01*
X35714Y108482D01*
Y108504D01*
X35709Y108526D01*
X35704Y108559D01*
X35698Y108597D01*
X35687Y108641D01*
X35682Y108695D01*
X35676Y108755D01*
X35665Y108826D01*
X35660Y108903D01*
X35654Y108990D01*
X35649Y109083D01*
Y109187D01*
X35643Y109301D01*
Y109422D01*
Y109427D01*
Y109449D01*
Y109487D01*
Y109531D01*
Y109585D01*
X35649Y109645D01*
Y109716D01*
X35654Y109787D01*
X35660Y109940D01*
X35671Y110088D01*
X35682Y110159D01*
X35693Y110230D01*
X35704Y110290D01*
X35714Y110339D01*
Y110344D01*
X35720Y110350D01*
X35725Y110377D01*
X35742Y110421D01*
X35758Y110475D01*
X35785Y110530D01*
X35813Y110584D01*
X35845Y110634D01*
X35878Y110672D01*
X35884Y110677D01*
X35895Y110688D01*
X35916Y110699D01*
X35944Y110715D01*
X35976Y110732D01*
X36015Y110748D01*
X36058Y110754D01*
X36108Y110759D01*
X36129D01*
X36157Y110754D01*
D02*
G37*
G36*
X3358Y109798D02*
X3402Y109793D01*
X3457Y109776D01*
X3511Y109760D01*
X3571Y109733D01*
X3631Y109700D01*
X3637Y109695D01*
X3653Y109684D01*
X3681Y109656D01*
X3713Y109629D01*
X3746Y109585D01*
X3779Y109542D01*
X3812Y109482D01*
X3833Y109422D01*
Y109416D01*
X3844Y109389D01*
X3850Y109345D01*
X3861Y109280D01*
X3866Y109241D01*
X3872Y109192D01*
X3877Y109143D01*
Y109083D01*
X3883Y109023D01*
X3888Y108952D01*
Y108876D01*
Y108794D01*
Y107560D01*
X2840D01*
Y108952D01*
Y108957D01*
Y108974D01*
Y108996D01*
Y109023D01*
Y109061D01*
Y109099D01*
X2845Y109192D01*
X2851Y109285D01*
X2862Y109383D01*
X2873Y109465D01*
X2878Y109498D01*
X2889Y109525D01*
Y109531D01*
X2900Y109547D01*
X2911Y109569D01*
X2927Y109602D01*
X2976Y109667D01*
X3004Y109700D01*
X3042Y109727D01*
X3047Y109733D01*
X3058Y109738D01*
X3080Y109749D01*
X3113Y109766D01*
X3151Y109782D01*
X3189Y109793D01*
X3238Y109798D01*
X3293Y109804D01*
X3326D01*
X3358Y109798D01*
D02*
G37*
G36*
X26290Y109766D02*
X26340Y109760D01*
X26405Y109744D01*
X26482Y109716D01*
X26563Y109678D01*
X26645Y109624D01*
X26722Y109553D01*
X26727Y109542D01*
X26749Y109514D01*
X26782Y109460D01*
X26815Y109394D01*
X26853Y109307D01*
X26880Y109198D01*
X26902Y109072D01*
X26913Y108930D01*
Y108925D01*
Y108914D01*
Y108892D01*
X26907Y108865D01*
Y108826D01*
X26902Y108788D01*
X26891Y108701D01*
X26864Y108597D01*
X26831Y108493D01*
X26787Y108390D01*
X26722Y108302D01*
X26711Y108291D01*
X26689Y108270D01*
X26645Y108237D01*
X26585Y108198D01*
X26520Y108155D01*
X26438Y108122D01*
X26345Y108100D01*
X26241Y108089D01*
X26214D01*
X26192Y108095D01*
X26143Y108100D01*
X26077Y108117D01*
X26001Y108144D01*
X25919Y108177D01*
X25843Y108231D01*
X25766Y108302D01*
X25755Y108313D01*
X25734Y108340D01*
X25706Y108395D01*
X25668Y108461D01*
X25630Y108553D01*
X25602Y108657D01*
X25581Y108788D01*
X25570Y108930D01*
Y108936D01*
Y108947D01*
Y108968D01*
X25575Y108996D01*
Y109028D01*
X25581Y109072D01*
X25591Y109159D01*
X25619Y109258D01*
X25652Y109362D01*
X25701Y109465D01*
X25766Y109553D01*
X25777Y109564D01*
X25799Y109585D01*
X25843Y109624D01*
X25897Y109662D01*
X25968Y109700D01*
X26045Y109738D01*
X26138Y109760D01*
X26241Y109771D01*
X26269D01*
X26290Y109766D01*
D02*
G37*
G36*
X24833Y108832D02*
X24838Y108777D01*
X24849Y108717D01*
X24860Y108646D01*
X24876Y108575D01*
X24898Y108493D01*
X24925Y108411D01*
X24958Y108324D01*
X24996Y108237D01*
X25045Y108149D01*
X25100Y108067D01*
X25160Y107985D01*
X25231Y107904D01*
X25237Y107898D01*
X25248Y107887D01*
X25269Y107865D01*
X25302Y107838D01*
X25340Y107811D01*
X25390Y107778D01*
X25444Y107740D01*
X25504Y107702D01*
X25575Y107663D01*
X25652Y107625D01*
X25734Y107592D01*
X25826Y107565D01*
X25919Y107538D01*
X26023Y107516D01*
X26127Y107505D01*
X26241Y107500D01*
X24827D01*
Y108876D01*
X24833Y108832D01*
D02*
G37*
G36*
X6634Y109766D02*
X6684Y109760D01*
X6749Y109744D01*
X6825Y109716D01*
X6907Y109678D01*
X6989Y109624D01*
X7066Y109553D01*
X7071Y109542D01*
X7093Y109514D01*
X7126Y109460D01*
X7159Y109394D01*
X7197Y109307D01*
X7224Y109198D01*
X7246Y109072D01*
X7257Y108930D01*
Y108925D01*
Y108914D01*
Y108892D01*
X7251Y108865D01*
Y108826D01*
X7246Y108788D01*
X7235Y108701D01*
X7208Y108597D01*
X7175Y108493D01*
X7131Y108390D01*
X7066Y108302D01*
X7055Y108291D01*
X7033Y108270D01*
X6989Y108237D01*
X6929Y108198D01*
X6864Y108155D01*
X6782Y108122D01*
X6689Y108100D01*
X6585Y108089D01*
X6558D01*
X6536Y108095D01*
X6487Y108100D01*
X6421Y108117D01*
X6345Y108144D01*
X6263Y108177D01*
X6187Y108231D01*
X6110Y108302D01*
X6099Y108313D01*
X6078Y108340D01*
X6050Y108395D01*
X6012Y108460D01*
X5974Y108553D01*
X5946Y108657D01*
X5925Y108788D01*
X5914Y108930D01*
Y108936D01*
Y108947D01*
Y108968D01*
X5919Y108996D01*
Y109028D01*
X5925Y109072D01*
X5935Y109159D01*
X5963Y109258D01*
X5996Y109361D01*
X6045Y109465D01*
X6110Y109553D01*
X6121Y109564D01*
X6143Y109585D01*
X6187Y109624D01*
X6241Y109662D01*
X6312Y109700D01*
X6389Y109738D01*
X6481Y109760D01*
X6585Y109771D01*
X6613D01*
X6634Y109766D01*
D02*
G37*
G36*
X-2560Y109793D02*
X-2506Y109782D01*
X-2446Y109760D01*
X-2380Y109733D01*
X-2314Y109689D01*
X-2255Y109629D01*
X-2249Y109624D01*
X-2233Y109596D01*
X-2205Y109558D01*
X-2178Y109503D01*
X-2145Y109438D01*
X-2123Y109356D01*
X-2107Y109263D01*
X-2102Y109159D01*
X-3183D01*
Y109165D01*
Y109176D01*
Y109187D01*
X-3177Y109209D01*
X-3172Y109269D01*
X-3161Y109334D01*
X-3139Y109411D01*
X-3112Y109493D01*
X-3068Y109569D01*
X-3019Y109634D01*
X-3013Y109640D01*
X-2992Y109662D01*
X-2959Y109689D01*
X-2915Y109722D01*
X-2860Y109749D01*
X-2795Y109776D01*
X-2724Y109798D01*
X-2642Y109804D01*
X-2604D01*
X-2560Y109793D01*
D02*
G37*
G36*
X-2091Y108712D02*
Y108701D01*
Y108684D01*
X-2096Y108663D01*
X-2102Y108608D01*
X-2112Y108531D01*
X-2134Y108455D01*
X-2167Y108368D01*
X-2205Y108286D01*
X-2260Y108215D01*
X-2265Y108209D01*
X-2293Y108188D01*
X-2325Y108160D01*
X-2375Y108127D01*
X-2435Y108095D01*
X-2511Y108067D01*
X-2593Y108046D01*
X-2680Y108040D01*
X-2708D01*
X-2740Y108046D01*
X-2779Y108051D01*
X-2822Y108062D01*
X-2871Y108078D01*
X-2921Y108100D01*
X-2964Y108133D01*
X-2970Y108138D01*
X-2986Y108149D01*
X-3008Y108171D01*
X-3030Y108204D01*
X-3063Y108248D01*
X-3090Y108297D01*
X-3117Y108362D01*
X-3144Y108433D01*
X-3865Y108313D01*
Y108308D01*
X-3860Y108297D01*
X-3849Y108275D01*
X-3838Y108248D01*
X-3822Y108215D01*
X-3805Y108177D01*
X-3756Y108089D01*
X-3696Y107991D01*
X-3619Y107887D01*
X-3527Y107794D01*
X-3423Y107707D01*
X-3417D01*
X-3412Y107696D01*
X-3390Y107691D01*
X-3368Y107674D01*
X-3341Y107658D01*
X-3303Y107642D01*
X-3265Y107625D01*
X-3215Y107603D01*
X-3106Y107565D01*
X-2981Y107532D01*
X-2833Y107510D01*
X-2675Y107500D01*
X-3903D01*
Y108717D01*
X-2091D01*
Y108712D01*
D02*
G37*
G36*
X-9309Y109793D02*
X-9254Y109782D01*
X-9194Y109760D01*
X-9129Y109733D01*
X-9063Y109689D01*
X-9003Y109629D01*
X-8998Y109624D01*
X-8981Y109596D01*
X-8954Y109558D01*
X-8927Y109503D01*
X-8894Y109438D01*
X-8872Y109356D01*
X-8856Y109263D01*
X-8850Y109159D01*
X-9931D01*
Y109165D01*
Y109176D01*
Y109187D01*
X-9926Y109209D01*
X-9920Y109269D01*
X-9909Y109334D01*
X-9888Y109411D01*
X-9860Y109493D01*
X-9817Y109569D01*
X-9767Y109634D01*
X-9762Y109640D01*
X-9740Y109662D01*
X-9707Y109689D01*
X-9664Y109722D01*
X-9609Y109749D01*
X-9544Y109776D01*
X-9473Y109798D01*
X-9391Y109804D01*
X-9352D01*
X-9309Y109793D01*
D02*
G37*
G36*
X-8839Y108712D02*
Y108701D01*
Y108684D01*
X-8845Y108663D01*
X-8850Y108608D01*
X-8861Y108531D01*
X-8883Y108455D01*
X-8916Y108368D01*
X-8954Y108286D01*
X-9008Y108215D01*
X-9014Y108209D01*
X-9041Y108188D01*
X-9074Y108160D01*
X-9123Y108127D01*
X-9183Y108095D01*
X-9260Y108067D01*
X-9341Y108046D01*
X-9429Y108040D01*
X-9456D01*
X-9489Y108046D01*
X-9527Y108051D01*
X-9571Y108062D01*
X-9620Y108078D01*
X-9669Y108100D01*
X-9713Y108133D01*
X-9718Y108138D01*
X-9735Y108149D01*
X-9757Y108171D01*
X-9778Y108204D01*
X-9811Y108248D01*
X-9838Y108297D01*
X-9866Y108362D01*
X-9893Y108433D01*
X-10614Y108313D01*
Y108308D01*
X-10608Y108297D01*
X-10597Y108275D01*
X-10586Y108248D01*
X-10570Y108215D01*
X-10554Y108177D01*
X-10504Y108089D01*
X-10445Y107991D01*
X-10368Y107887D01*
X-10275Y107794D01*
X-10171Y107707D01*
X-10166D01*
X-10160Y107696D01*
X-10139Y107691D01*
X-10117Y107674D01*
X-10090Y107658D01*
X-10051Y107642D01*
X-10013Y107625D01*
X-9964Y107603D01*
X-9855Y107565D01*
X-9729Y107532D01*
X-9582Y107510D01*
X-9423Y107500D01*
X-10652D01*
Y108717D01*
X-8839D01*
Y108712D01*
D02*
G37*
G36*
X32831Y108543D02*
X31909Y111338D01*
X33792D01*
X32831Y108543D01*
D02*
G37*
%LPC*%
G36*
X-8430Y226689D02*
X-10456D01*
Y225336D01*
X-10447D01*
X-10435Y225339D01*
X-10421Y225342D01*
X-10403Y225345D01*
X-10383Y225348D01*
X-10330Y225359D01*
X-10272Y225377D01*
X-10208Y225400D01*
X-10138Y225429D01*
X-10072Y225467D01*
X-10069D01*
X-10063Y225473D01*
X-10051Y225479D01*
X-10040Y225490D01*
X-10019Y225502D01*
X-9999Y225519D01*
X-9973Y225540D01*
X-9944Y225563D01*
X-9909Y225589D01*
X-9874Y225621D01*
X-9833Y225656D01*
X-9789Y225697D01*
X-9746Y225740D01*
X-9696Y225790D01*
X-9644Y225842D01*
X-9589Y225901D01*
X-9586Y225903D01*
X-9577Y225912D01*
X-9565Y225924D01*
X-9548Y225941D01*
X-9530Y225964D01*
X-9507Y225988D01*
X-9455Y226040D01*
X-9399Y226093D01*
X-9344Y226145D01*
X-9321Y226168D01*
X-9295Y226191D01*
X-9274Y226209D01*
X-9257Y226221D01*
X-9251Y226223D01*
X-9236Y226232D01*
X-9213Y226247D01*
X-9181Y226261D01*
X-9146Y226276D01*
X-9105Y226290D01*
X-9065Y226299D01*
X-9021Y226302D01*
X-9018D01*
X-9015D01*
X-9001D01*
X-8975Y226299D01*
X-8945Y226293D01*
X-8913Y226285D01*
X-8881Y226273D01*
X-8849Y226255D01*
X-8820Y226232D01*
X-8817Y226229D01*
X-8809Y226221D01*
X-8797Y226203D01*
X-8785Y226183D01*
X-8774Y226154D01*
X-8762Y226122D01*
X-8753Y226084D01*
X-8750Y226040D01*
Y226020D01*
X-8753Y225996D01*
X-8759Y225970D01*
X-8768Y225938D01*
X-8782Y225906D01*
X-8800Y225874D01*
X-8823Y225845D01*
X-8826Y225842D01*
X-8838Y225834D01*
X-8855Y225822D01*
X-8881Y225810D01*
X-8913Y225796D01*
X-8957Y225784D01*
X-9007Y225772D01*
X-9065Y225767D01*
X-9027Y225382D01*
X-9024D01*
X-9012Y225385D01*
X-8998D01*
X-8975Y225391D01*
X-8948Y225394D01*
X-8919Y225403D01*
X-8887Y225412D01*
X-8849Y225420D01*
X-8777Y225449D01*
X-8701Y225484D01*
X-8663Y225508D01*
X-8628Y225534D01*
X-8599Y225563D01*
X-8570Y225595D01*
X-8567Y225598D01*
X-8564Y225604D01*
X-8558Y225612D01*
X-8547Y225627D01*
X-8538Y225644D01*
X-8526Y225668D01*
X-8512Y225691D01*
X-8500Y225720D01*
X-8486Y225752D01*
X-8474Y225787D01*
X-8451Y225863D01*
X-8436Y225953D01*
X-8433Y225999D01*
X-8430Y226049D01*
Y226122D01*
Y226078D01*
X-8433Y226098D01*
X-8436Y226125D01*
X-8439Y226154D01*
X-8445Y226186D01*
X-8451Y226221D01*
X-8471Y226296D01*
X-8500Y226372D01*
X-8518Y226413D01*
X-8538Y226448D01*
X-8564Y226485D01*
X-8593Y226517D01*
X-8596Y226520D01*
X-8599Y226526D01*
X-8611Y226532D01*
X-8622Y226544D01*
X-8637Y226558D01*
X-8657Y226573D01*
X-8678Y226587D01*
X-8704Y226605D01*
X-8762Y226634D01*
X-8829Y226663D01*
X-8867Y226675D01*
X-8908Y226680D01*
X-8951Y226686D01*
X-8995Y226689D01*
X-8430D01*
D01*
D02*
G37*
G36*
X-8442Y224344D02*
X-10456D01*
Y222813D01*
X-8442D01*
Y224344D01*
D02*
G37*
G36*
X-8404Y222467D02*
X-10493D01*
Y220828D01*
D01*
Y221620D01*
X-10491Y221594D01*
X-10488Y221562D01*
X-10485Y221527D01*
X-10479Y221486D01*
X-10470Y221442D01*
X-10450Y221346D01*
X-10435Y221297D01*
X-10421Y221250D01*
X-10400Y221201D01*
X-10377Y221154D01*
X-10351Y221111D01*
X-10319Y221070D01*
X-10316Y221067D01*
X-10310Y221061D01*
X-10301Y221049D01*
X-10287Y221038D01*
X-10266Y221020D01*
X-10243Y221003D01*
X-10217Y220983D01*
X-10188Y220962D01*
X-10153Y220942D01*
X-10115Y220921D01*
X-10072Y220901D01*
X-10025Y220881D01*
X-9975Y220866D01*
X-9920Y220849D01*
X-9862Y220837D01*
X-9801Y220828D01*
D01*
X-9763Y221224D01*
X-9766D01*
X-9772Y221227D01*
X-9783D01*
X-9795Y221230D01*
X-9830Y221242D01*
X-9874Y221256D01*
X-9923Y221274D01*
X-9973Y221300D01*
X-10016Y221329D01*
X-10057Y221367D01*
X-10060Y221373D01*
X-10072Y221387D01*
X-10086Y221410D01*
X-10104Y221445D01*
X-10121Y221489D01*
X-10136Y221538D01*
X-10147Y221597D01*
X-10150Y221663D01*
Y221695D01*
X-10144Y221730D01*
X-10138Y221774D01*
X-10130Y221821D01*
X-10115Y221870D01*
X-10095Y221917D01*
X-10069Y221957D01*
X-10066Y221963D01*
X-10054Y221975D01*
X-10037Y221989D01*
X-10013Y222010D01*
X-9984Y222027D01*
X-9949Y222045D01*
X-9914Y222056D01*
X-9874Y222059D01*
X-9871D01*
X-9862D01*
X-9848Y222056D01*
X-9830Y222054D01*
X-9813Y222048D01*
X-9792Y222042D01*
X-9772Y222030D01*
X-9752Y222016D01*
X-9749Y222013D01*
X-9743Y222007D01*
X-9734Y221998D01*
X-9722Y221984D01*
X-9708Y221963D01*
X-9693Y221937D01*
X-9679Y221908D01*
X-9664Y221870D01*
Y221867D01*
X-9658Y221856D01*
X-9652Y221835D01*
X-9647Y221821D01*
X-9644Y221803D01*
X-9638Y221783D01*
X-9629Y221760D01*
X-9623Y221733D01*
X-9615Y221704D01*
X-9606Y221669D01*
X-9597Y221632D01*
X-9586Y221591D01*
X-9574Y221544D01*
Y221541D01*
X-9571Y221530D01*
X-9565Y221512D01*
X-9559Y221492D01*
X-9551Y221466D01*
X-9542Y221434D01*
X-9530Y221402D01*
X-9519Y221364D01*
X-9490Y221288D01*
X-9455Y221215D01*
X-9437Y221178D01*
X-9417Y221146D01*
X-9396Y221113D01*
X-9376Y221087D01*
X-9373Y221084D01*
X-9367Y221079D01*
X-9359Y221070D01*
X-9347Y221058D01*
X-9330Y221044D01*
X-9309Y221029D01*
X-9289Y221012D01*
X-9263Y220997D01*
X-9201Y220962D01*
X-9132Y220933D01*
X-9094Y220921D01*
X-9056Y220913D01*
X-9012Y220907D01*
X-8969Y220904D01*
X-8966D01*
X-8963D01*
X-8954D01*
X-8942D01*
X-8913Y220910D01*
X-8875Y220916D01*
X-8832Y220924D01*
X-8782Y220939D01*
X-8730Y220959D01*
X-8681Y220988D01*
X-8678D01*
X-8675Y220991D01*
X-8657Y221006D01*
X-8634Y221023D01*
X-8605Y221052D01*
X-8573Y221087D01*
X-8538Y221131D01*
X-8506Y221181D01*
X-8477Y221239D01*
Y221242D01*
X-8474Y221247D01*
X-8471Y221256D01*
X-8465Y221268D01*
X-8459Y221285D01*
X-8454Y221303D01*
X-8448Y221326D01*
X-8439Y221352D01*
X-8427Y221410D01*
X-8416Y221477D01*
X-8407Y221553D01*
X-8404Y221637D01*
Y221751D01*
Y221672D01*
X-8407Y221698D01*
X-8410Y221730D01*
X-8413Y221768D01*
X-8419Y221806D01*
X-8424Y221850D01*
X-8445Y221943D01*
X-8459Y221989D01*
X-8474Y222036D01*
X-8494Y222083D01*
X-8518Y222126D01*
X-8544Y222167D01*
X-8573Y222205D01*
X-8576Y222208D01*
X-8582Y222214D01*
X-8590Y222222D01*
X-8602Y222234D01*
X-8619Y222248D01*
X-8640Y222266D01*
X-8663Y222283D01*
X-8689Y222304D01*
X-8721Y222321D01*
X-8753Y222339D01*
X-8791Y222356D01*
X-8832Y222371D01*
X-8873Y222385D01*
X-8919Y222397D01*
X-8966Y222406D01*
X-9018Y222409D01*
X-9033Y222001D01*
X-9030D01*
X-9027D01*
X-9007Y221995D01*
X-8980Y221989D01*
X-8948Y221978D01*
X-8911Y221963D01*
X-8875Y221943D01*
X-8841Y221917D01*
X-8811Y221888D01*
X-8809Y221885D01*
X-8800Y221873D01*
X-8788Y221853D01*
X-8777Y221824D01*
X-8765Y221789D01*
X-8753Y221745D01*
X-8745Y221693D01*
X-8742Y221632D01*
Y221602D01*
X-8745Y221570D01*
X-8750Y221533D01*
X-8759Y221489D01*
X-8774Y221442D01*
X-8791Y221399D01*
X-8817Y221358D01*
X-8820Y221355D01*
X-8826Y221349D01*
X-8835Y221338D01*
X-8849Y221326D01*
X-8867Y221314D01*
X-8890Y221303D01*
X-8913Y221297D01*
X-8942Y221294D01*
X-8945D01*
X-8954D01*
X-8969Y221297D01*
X-8983Y221303D01*
X-9004Y221308D01*
X-9024Y221317D01*
X-9044Y221332D01*
X-9065Y221352D01*
X-9068Y221355D01*
X-9076Y221370D01*
X-9082Y221378D01*
X-9088Y221393D01*
X-9097Y221407D01*
X-9105Y221428D01*
X-9114Y221451D01*
X-9126Y221477D01*
X-9137Y221509D01*
X-9149Y221541D01*
X-9161Y221582D01*
X-9172Y221626D01*
X-9184Y221672D01*
X-9199Y221725D01*
Y221727D01*
X-9201Y221739D01*
X-9204Y221754D01*
X-9210Y221774D01*
X-9216Y221797D01*
X-9225Y221827D01*
X-9234Y221859D01*
X-9242Y221890D01*
X-9266Y221960D01*
X-9289Y222033D01*
X-9315Y222103D01*
X-9330Y222132D01*
X-9344Y222161D01*
Y222164D01*
X-9347Y222167D01*
X-9359Y222184D01*
X-9376Y222211D01*
X-9399Y222243D01*
X-9428Y222277D01*
X-9463Y222315D01*
X-9504Y222353D01*
X-9551Y222385D01*
X-9556Y222388D01*
X-9574Y222397D01*
X-9600Y222411D01*
X-9638Y222426D01*
X-9685Y222441D01*
X-9740Y222455D01*
X-9801Y222464D01*
X-9871Y222467D01*
X-8404D01*
D01*
D02*
G37*
G36*
X-8442Y220505D02*
X-10456D01*
Y220098D01*
X-9129Y219280D01*
X-10456D01*
Y218905D01*
X-8442D01*
Y220505D01*
D02*
G37*
G36*
Y218559D02*
X-10456D01*
Y217028D01*
X-8442D01*
Y218559D01*
D02*
G37*
G36*
X-8404Y216682D02*
X-10493D01*
D01*
X-9900D01*
X-9914Y216679D01*
X-9935Y216676D01*
X-9975Y216670D01*
X-10028Y216658D01*
X-10083Y216641D01*
X-10138Y216615D01*
X-10197Y216583D01*
X-10200D01*
X-10203Y216577D01*
X-10220Y216565D01*
X-10249Y216542D01*
X-10281Y216513D01*
X-10319Y216475D01*
X-10354Y216425D01*
X-10389Y216373D01*
X-10421Y216309D01*
Y216306D01*
X-10424Y216300D01*
X-10427Y216292D01*
X-10432Y216277D01*
X-10438Y216260D01*
X-10444Y216239D01*
X-10450Y216216D01*
X-10456Y216190D01*
X-10464Y216158D01*
X-10470Y216126D01*
X-10482Y216050D01*
X-10491Y215966D01*
X-10493Y215873D01*
Y215835D01*
X-10491Y215809D01*
X-10488Y215777D01*
X-10485Y215742D01*
X-10479Y215701D01*
X-10470Y215657D01*
X-10450Y215561D01*
X-10435Y215512D01*
X-10421Y215465D01*
X-10400Y215416D01*
X-10377Y215369D01*
X-10351Y215325D01*
X-10319Y215285D01*
X-10316Y215282D01*
X-10310Y215276D01*
X-10301Y215264D01*
X-10287Y215253D01*
X-10266Y215235D01*
X-10243Y215218D01*
X-10217Y215197D01*
X-10188Y215177D01*
X-10153Y215157D01*
X-10115Y215136D01*
X-10072Y215116D01*
X-10025Y215096D01*
X-9975Y215081D01*
X-9920Y215064D01*
X-9862Y215052D01*
X-9801Y215043D01*
D01*
X-9763Y215439D01*
X-9766D01*
X-9772Y215442D01*
X-9783D01*
X-9795Y215445D01*
X-9830Y215457D01*
X-9874Y215471D01*
X-9923Y215489D01*
X-9973Y215515D01*
X-10016Y215544D01*
X-10057Y215582D01*
X-10060Y215587D01*
X-10072Y215602D01*
X-10086Y215625D01*
X-10104Y215660D01*
X-10121Y215704D01*
X-10136Y215753D01*
X-10147Y215811D01*
X-10150Y215878D01*
Y215910D01*
X-10144Y215945D01*
X-10138Y215989D01*
X-10130Y216036D01*
X-10115Y216085D01*
X-10095Y216132D01*
X-10069Y216172D01*
X-10066Y216178D01*
X-10054Y216190D01*
X-10037Y216204D01*
X-10013Y216225D01*
X-9984Y216242D01*
X-9949Y216260D01*
X-9914Y216271D01*
X-9874Y216274D01*
X-9871D01*
X-9862D01*
X-9848Y216271D01*
X-9830Y216268D01*
X-9813Y216263D01*
X-9792Y216257D01*
X-9772Y216245D01*
X-9752Y216231D01*
X-9749Y216228D01*
X-9743Y216222D01*
X-9734Y216213D01*
X-9722Y216198D01*
X-9708Y216178D01*
X-9693Y216152D01*
X-9679Y216123D01*
X-9664Y216085D01*
Y216082D01*
X-9658Y216071D01*
X-9652Y216050D01*
X-9647Y216036D01*
X-9644Y216018D01*
X-9638Y215998D01*
X-9629Y215974D01*
X-9623Y215948D01*
X-9615Y215919D01*
X-9606Y215884D01*
X-9597Y215846D01*
X-9586Y215806D01*
X-9574Y215759D01*
Y215756D01*
X-9571Y215745D01*
X-9565Y215727D01*
X-9559Y215707D01*
X-9551Y215681D01*
X-9542Y215649D01*
X-9530Y215616D01*
X-9519Y215579D01*
X-9490Y215503D01*
X-9455Y215430D01*
X-9437Y215392D01*
X-9417Y215360D01*
X-9396Y215329D01*
X-9376Y215302D01*
X-9373Y215299D01*
X-9367Y215294D01*
X-9359Y215285D01*
X-9347Y215273D01*
X-9330Y215259D01*
X-9309Y215244D01*
X-9289Y215227D01*
X-9263Y215212D01*
X-9201Y215177D01*
X-9132Y215148D01*
X-9094Y215136D01*
X-9056Y215128D01*
X-9012Y215122D01*
X-8969Y215119D01*
X-8966D01*
X-8963D01*
X-8954D01*
X-8942D01*
X-8913Y215125D01*
X-8875Y215131D01*
X-8832Y215139D01*
X-8782Y215154D01*
X-8730Y215174D01*
X-8681Y215203D01*
X-8678D01*
X-8675Y215206D01*
X-8657Y215221D01*
X-8634Y215238D01*
X-8605Y215267D01*
X-8573Y215302D01*
X-8538Y215346D01*
X-8506Y215395D01*
X-8477Y215454D01*
Y215457D01*
X-8474Y215462D01*
X-8471Y215471D01*
X-8465Y215483D01*
X-8459Y215500D01*
X-8454Y215518D01*
X-8448Y215541D01*
X-8439Y215567D01*
X-8427Y215625D01*
X-8416Y215692D01*
X-8407Y215768D01*
X-8404Y215852D01*
Y215043D01*
D01*
Y216682D01*
D02*
G37*
%LPD*%
G36*
X-9044Y226686D02*
X-9076Y226683D01*
X-9117Y226677D01*
X-9161Y226669D01*
X-9207Y226657D01*
X-9254Y226640D01*
X-9260Y226637D01*
X-9274Y226631D01*
X-9300Y226619D01*
X-9332Y226602D01*
X-9370Y226581D01*
X-9414Y226555D01*
X-9460Y226523D01*
X-9510Y226485D01*
X-9513Y226483D01*
X-9527Y226471D01*
X-9548Y226453D01*
X-9577Y226427D01*
X-9612Y226392D01*
X-9658Y226349D01*
X-9708Y226296D01*
X-9769Y226232D01*
X-9772Y226229D01*
X-9775Y226223D01*
X-9783Y226215D01*
X-9795Y226203D01*
X-9824Y226171D01*
X-9859Y226133D01*
X-9897Y226095D01*
X-9935Y226058D01*
X-9967Y226023D01*
X-9981Y226011D01*
X-9993Y225999D01*
X-9996Y225996D01*
X-10002Y225991D01*
X-10013Y225982D01*
X-10028Y225970D01*
X-10060Y225944D01*
X-10098Y225921D01*
Y226689D01*
X-9018D01*
X-9044Y226686D01*
D02*
G37*
G36*
X-8442Y224306D02*
X-8782D01*
Y223220D01*
X-9228D01*
Y224230D01*
X-9568D01*
Y223220D01*
X-10115D01*
Y224344D01*
X-8442D01*
Y224306D01*
D02*
G37*
G36*
X-9914Y222464D02*
X-9935Y222461D01*
X-9975Y222455D01*
X-10028Y222443D01*
X-10083Y222426D01*
X-10138Y222400D01*
X-10197Y222368D01*
X-10200D01*
X-10203Y222362D01*
X-10220Y222350D01*
X-10249Y222327D01*
X-10281Y222298D01*
X-10319Y222260D01*
X-10354Y222211D01*
X-10389Y222158D01*
X-10421Y222094D01*
Y222091D01*
X-10424Y222085D01*
X-10427Y222077D01*
X-10432Y222062D01*
X-10438Y222045D01*
X-10444Y222024D01*
X-10450Y222001D01*
X-10456Y221975D01*
X-10464Y221943D01*
X-10470Y221911D01*
X-10482Y221835D01*
X-10491Y221751D01*
X-10493Y221658D01*
Y222467D01*
X-9900D01*
X-9914Y222464D01*
D02*
G37*
G36*
X-8442Y219298D02*
X-9798Y220130D01*
X-8442D01*
Y219298D01*
D02*
G37*
G36*
Y218521D02*
X-8782D01*
Y217435D01*
X-9228D01*
Y218445D01*
X-9568D01*
Y217435D01*
X-10115D01*
Y218559D01*
X-8442D01*
Y218521D01*
D02*
G37*
G36*
X-8404Y215887D02*
X-8407Y215913D01*
X-8410Y215945D01*
X-8413Y215983D01*
X-8419Y216021D01*
X-8424Y216065D01*
X-8445Y216158D01*
X-8459Y216204D01*
X-8474Y216251D01*
X-8494Y216298D01*
X-8518Y216341D01*
X-8544Y216382D01*
X-8573Y216420D01*
X-8576Y216423D01*
X-8582Y216428D01*
X-8590Y216437D01*
X-8602Y216449D01*
X-8619Y216463D01*
X-8640Y216481D01*
X-8663Y216498D01*
X-8689Y216519D01*
X-8721Y216536D01*
X-8753Y216554D01*
X-8791Y216571D01*
X-8832Y216586D01*
X-8873Y216600D01*
X-8919Y216612D01*
X-8966Y216620D01*
X-9018Y216623D01*
X-9033Y216216D01*
X-9030D01*
X-9027D01*
X-9007Y216210D01*
X-8980Y216204D01*
X-8948Y216193D01*
X-8911Y216178D01*
X-8875Y216158D01*
X-8841Y216132D01*
X-8811Y216103D01*
X-8809Y216100D01*
X-8800Y216088D01*
X-8788Y216068D01*
X-8777Y216038D01*
X-8765Y216004D01*
X-8753Y215960D01*
X-8745Y215908D01*
X-8742Y215846D01*
Y215817D01*
X-8745Y215785D01*
X-8750Y215747D01*
X-8759Y215704D01*
X-8774Y215657D01*
X-8791Y215614D01*
X-8817Y215573D01*
X-8820Y215570D01*
X-8826Y215564D01*
X-8835Y215552D01*
X-8849Y215541D01*
X-8867Y215529D01*
X-8890Y215518D01*
X-8913Y215512D01*
X-8942Y215509D01*
X-8945D01*
X-8954D01*
X-8969Y215512D01*
X-8983Y215518D01*
X-9004Y215523D01*
X-9024Y215532D01*
X-9044Y215547D01*
X-9065Y215567D01*
X-9068Y215570D01*
X-9076Y215584D01*
X-9082Y215593D01*
X-9088Y215608D01*
X-9097Y215622D01*
X-9105Y215643D01*
X-9114Y215666D01*
X-9126Y215692D01*
X-9137Y215724D01*
X-9149Y215756D01*
X-9161Y215797D01*
X-9172Y215841D01*
X-9184Y215887D01*
X-9199Y215940D01*
Y215943D01*
X-9201Y215954D01*
X-9204Y215969D01*
X-9210Y215989D01*
X-9216Y216012D01*
X-9225Y216041D01*
X-9234Y216073D01*
X-9242Y216105D01*
X-9266Y216175D01*
X-9289Y216248D01*
X-9315Y216318D01*
X-9330Y216347D01*
X-9344Y216376D01*
Y216379D01*
X-9347Y216382D01*
X-9359Y216399D01*
X-9376Y216425D01*
X-9399Y216458D01*
X-9428Y216493D01*
X-9463Y216530D01*
X-9504Y216568D01*
X-9551Y216600D01*
X-9556Y216603D01*
X-9574Y216612D01*
X-9600Y216626D01*
X-9638Y216641D01*
X-9685Y216655D01*
X-9740Y216670D01*
X-9801Y216679D01*
X-9871Y216682D01*
X-8404D01*
Y215887D01*
D02*
G37*
%LPC*%
G36*
X-18273Y226531D02*
X-20298D01*
Y225646D01*
D01*
Y226144D01*
X-18840D01*
X-18843Y226141D01*
X-18849Y226135D01*
X-18858Y226123D01*
X-18872Y226106D01*
X-18890Y226085D01*
X-18907Y226062D01*
X-18928Y226033D01*
X-18951Y226001D01*
X-18974Y225966D01*
X-18997Y225928D01*
X-19024Y225887D01*
X-19047Y225844D01*
X-19091Y225751D01*
X-19131Y225646D01*
X-18782D01*
Y225649D01*
X-18779Y225652D01*
X-18776Y225660D01*
X-18773Y225672D01*
X-18759Y225701D01*
X-18741Y225742D01*
X-18718Y225791D01*
X-18686Y225847D01*
X-18645Y225908D01*
X-18599Y225972D01*
X-18596Y225975D01*
X-18593Y225980D01*
X-18584Y225989D01*
X-18573Y226001D01*
X-18543Y226033D01*
X-18506Y226068D01*
X-18459Y226109D01*
X-18401Y226149D01*
X-18340Y226187D01*
X-18273Y226216D01*
Y226531D01*
D02*
G37*
G36*
X-18284Y224502D02*
X-20298D01*
Y222972D01*
X-18284D01*
Y224502D01*
D02*
G37*
G36*
X-18247Y222625D02*
X-20336D01*
Y220987D01*
D01*
Y221778D01*
X-20333Y221752D01*
X-20330Y221720D01*
X-20327Y221685D01*
X-20322Y221645D01*
X-20313Y221601D01*
X-20292Y221505D01*
X-20278Y221456D01*
X-20263Y221409D01*
X-20243Y221359D01*
X-20220Y221313D01*
X-20193Y221269D01*
X-20161Y221229D01*
X-20158Y221226D01*
X-20153Y221220D01*
X-20144Y221208D01*
X-20129Y221197D01*
X-20109Y221179D01*
X-20086Y221162D01*
X-20060Y221141D01*
X-20030Y221121D01*
X-19996Y221100D01*
X-19958Y221080D01*
X-19914Y221060D01*
X-19868Y221039D01*
X-19818Y221025D01*
X-19763Y221007D01*
X-19705Y220996D01*
X-19644Y220987D01*
D01*
X-19606Y221383D01*
X-19609D01*
X-19614Y221386D01*
X-19626D01*
X-19638Y221389D01*
X-19673Y221400D01*
X-19716Y221415D01*
X-19766Y221432D01*
X-19815Y221458D01*
X-19859Y221487D01*
X-19899Y221525D01*
X-19902Y221531D01*
X-19914Y221546D01*
X-19929Y221569D01*
X-19946Y221604D01*
X-19964Y221648D01*
X-19978Y221697D01*
X-19990Y221755D01*
X-19993Y221822D01*
Y221854D01*
X-19987Y221889D01*
X-19981Y221933D01*
X-19972Y221979D01*
X-19958Y222029D01*
X-19937Y222075D01*
X-19911Y222116D01*
X-19908Y222122D01*
X-19897Y222133D01*
X-19879Y222148D01*
X-19856Y222168D01*
X-19827Y222186D01*
X-19792Y222203D01*
X-19757Y222215D01*
X-19716Y222218D01*
X-19713D01*
X-19705D01*
X-19690Y222215D01*
X-19673Y222212D01*
X-19655Y222206D01*
X-19635Y222200D01*
X-19614Y222189D01*
X-19594Y222174D01*
X-19591Y222171D01*
X-19585Y222165D01*
X-19577Y222157D01*
X-19565Y222142D01*
X-19550Y222122D01*
X-19536Y222096D01*
X-19521Y222067D01*
X-19507Y222029D01*
Y222026D01*
X-19501Y222014D01*
X-19495Y221994D01*
X-19489Y221979D01*
X-19486Y221962D01*
X-19480Y221941D01*
X-19472Y221918D01*
X-19466Y221892D01*
X-19457Y221863D01*
X-19448Y221828D01*
X-19440Y221790D01*
X-19428Y221749D01*
X-19417Y221703D01*
Y221700D01*
X-19414Y221688D01*
X-19408Y221671D01*
X-19402Y221650D01*
X-19393Y221624D01*
X-19385Y221592D01*
X-19373Y221560D01*
X-19361Y221522D01*
X-19332Y221447D01*
X-19297Y221374D01*
X-19280Y221336D01*
X-19259Y221304D01*
X-19239Y221272D01*
X-19219Y221246D01*
X-19216Y221243D01*
X-19210Y221237D01*
X-19201Y221229D01*
X-19189Y221217D01*
X-19172Y221202D01*
X-19152Y221188D01*
X-19131Y221170D01*
X-19105Y221156D01*
X-19044Y221121D01*
X-18974Y221092D01*
X-18936Y221080D01*
X-18899Y221071D01*
X-18855Y221065D01*
X-18811Y221063D01*
X-18808D01*
X-18805D01*
X-18797D01*
X-18785D01*
X-18756Y221068D01*
X-18718Y221074D01*
X-18674Y221083D01*
X-18625Y221097D01*
X-18573Y221118D01*
X-18523Y221147D01*
X-18520D01*
X-18517Y221150D01*
X-18500Y221164D01*
X-18476Y221182D01*
X-18447Y221211D01*
X-18415Y221246D01*
X-18381Y221290D01*
X-18349Y221339D01*
X-18319Y221397D01*
Y221400D01*
X-18316Y221406D01*
X-18314Y221415D01*
X-18308Y221426D01*
X-18302Y221444D01*
X-18296Y221461D01*
X-18290Y221485D01*
X-18282Y221511D01*
X-18270Y221569D01*
X-18258Y221636D01*
X-18250Y221711D01*
X-18247Y221796D01*
Y221831D01*
X-18250Y221857D01*
X-18252Y221889D01*
X-18255Y221927D01*
X-18261Y221965D01*
X-18267Y222008D01*
X-18287Y222101D01*
X-18302Y222148D01*
X-18316Y222195D01*
X-18337Y222241D01*
X-18360Y222285D01*
X-18386Y222326D01*
X-18415Y222363D01*
X-18418Y222366D01*
X-18424Y222372D01*
X-18433Y222381D01*
X-18444Y222393D01*
X-18462Y222407D01*
X-18482Y222425D01*
X-18506Y222442D01*
X-18532Y222462D01*
X-18564Y222480D01*
X-18596Y222497D01*
X-18634Y222515D01*
X-18674Y222529D01*
X-18715Y222544D01*
X-18762Y222555D01*
X-18808Y222564D01*
X-18861Y222567D01*
X-18875Y222160D01*
X-18872D01*
X-18869D01*
X-18849Y222154D01*
X-18823Y222148D01*
X-18791Y222136D01*
X-18753Y222122D01*
X-18718Y222101D01*
X-18683Y222075D01*
X-18654Y222046D01*
X-18651Y222043D01*
X-18642Y222032D01*
X-18631Y222011D01*
X-18619Y221982D01*
X-18608Y221947D01*
X-18596Y221904D01*
X-18587Y221851D01*
X-18584Y221790D01*
Y221761D01*
X-18587Y221729D01*
X-18593Y221691D01*
X-18602Y221648D01*
X-18616Y221601D01*
X-18634Y221557D01*
X-18660Y221517D01*
X-18663Y221514D01*
X-18669Y221508D01*
X-18677Y221496D01*
X-18692Y221485D01*
X-18709Y221473D01*
X-18733Y221461D01*
X-18756Y221456D01*
X-18785Y221453D01*
X-18788D01*
X-18797D01*
X-18811Y221456D01*
X-18826Y221461D01*
X-18846Y221467D01*
X-18867Y221476D01*
X-18887Y221490D01*
X-18907Y221511D01*
X-18910Y221514D01*
X-18919Y221528D01*
X-18925Y221537D01*
X-18930Y221551D01*
X-18939Y221566D01*
X-18948Y221586D01*
X-18957Y221610D01*
X-18968Y221636D01*
X-18980Y221668D01*
X-18992Y221700D01*
X-19003Y221741D01*
X-19015Y221784D01*
X-19026Y221831D01*
X-19041Y221883D01*
Y221886D01*
X-19044Y221898D01*
X-19047Y221912D01*
X-19053Y221933D01*
X-19059Y221956D01*
X-19067Y221985D01*
X-19076Y222017D01*
X-19085Y222049D01*
X-19108Y222119D01*
X-19131Y222192D01*
X-19158Y222262D01*
X-19172Y222291D01*
X-19187Y222320D01*
Y222323D01*
X-19189Y222326D01*
X-19201Y222343D01*
X-19219Y222369D01*
X-19242Y222401D01*
X-19271Y222436D01*
X-19306Y222474D01*
X-19347Y222512D01*
X-19393Y222544D01*
X-19399Y222547D01*
X-19417Y222555D01*
X-19443Y222570D01*
X-19480Y222585D01*
X-19527Y222599D01*
X-19582Y222614D01*
X-19644Y222622D01*
X-19713Y222625D01*
X-18247D01*
D01*
D02*
G37*
G36*
X-18284Y220664D02*
X-20298D01*
Y219063D01*
X-18284D01*
Y219456D01*
X-19640Y220288D01*
X-18284D01*
Y220664D01*
D02*
G37*
G36*
Y218717D02*
X-20298D01*
Y217186D01*
X-18284D01*
Y218679D01*
X-18625D01*
Y217594D01*
X-19070D01*
Y218604D01*
X-19411D01*
Y217594D01*
X-19958D01*
Y218717D01*
X-18284D01*
D01*
D02*
G37*
G36*
X-18247Y216840D02*
X-20336D01*
D01*
X-19742D01*
X-19757Y216837D01*
X-19777Y216834D01*
X-19818Y216829D01*
X-19870Y216817D01*
X-19926Y216799D01*
X-19981Y216773D01*
X-20039Y216741D01*
X-20042D01*
X-20045Y216735D01*
X-20063Y216724D01*
X-20092Y216701D01*
X-20124Y216671D01*
X-20161Y216634D01*
X-20196Y216584D01*
X-20231Y216532D01*
X-20263Y216468D01*
Y216465D01*
X-20266Y216459D01*
X-20269Y216450D01*
X-20275Y216436D01*
X-20281Y216418D01*
X-20287Y216398D01*
X-20292Y216375D01*
X-20298Y216348D01*
X-20307Y216316D01*
X-20313Y216284D01*
X-20324Y216209D01*
X-20333Y216124D01*
X-20336Y216031D01*
Y215993D01*
X-20333Y215967D01*
X-20330Y215935D01*
X-20327Y215900D01*
X-20322Y215860D01*
X-20313Y215816D01*
X-20292Y215720D01*
X-20278Y215670D01*
X-20263Y215624D01*
X-20243Y215574D01*
X-20220Y215528D01*
X-20193Y215484D01*
X-20161Y215443D01*
X-20158Y215441D01*
X-20153Y215435D01*
X-20144Y215423D01*
X-20129Y215411D01*
X-20109Y215394D01*
X-20086Y215376D01*
X-20060Y215356D01*
X-20030Y215336D01*
X-19996Y215315D01*
X-19958Y215295D01*
X-19914Y215275D01*
X-19868Y215254D01*
X-19818Y215240D01*
X-19763Y215222D01*
X-19705Y215211D01*
X-19644Y215202D01*
D01*
X-19606Y215598D01*
X-19609D01*
X-19614Y215600D01*
X-19626D01*
X-19638Y215603D01*
X-19673Y215615D01*
X-19716Y215630D01*
X-19766Y215647D01*
X-19815Y215673D01*
X-19859Y215702D01*
X-19899Y215740D01*
X-19902Y215746D01*
X-19914Y215761D01*
X-19929Y215784D01*
X-19946Y215819D01*
X-19964Y215862D01*
X-19978Y215912D01*
X-19990Y215970D01*
X-19993Y216037D01*
Y216069D01*
X-19987Y216104D01*
X-19981Y216148D01*
X-19972Y216194D01*
X-19958Y216244D01*
X-19937Y216290D01*
X-19911Y216331D01*
X-19908Y216337D01*
X-19897Y216348D01*
X-19879Y216363D01*
X-19856Y216383D01*
X-19827Y216401D01*
X-19792Y216418D01*
X-19757Y216430D01*
X-19716Y216433D01*
X-19713D01*
X-19705D01*
X-19690Y216430D01*
X-19673Y216427D01*
X-19655Y216421D01*
X-19635Y216415D01*
X-19614Y216404D01*
X-19594Y216389D01*
X-19591Y216386D01*
X-19585Y216380D01*
X-19577Y216372D01*
X-19565Y216357D01*
X-19550Y216337D01*
X-19536Y216311D01*
X-19521Y216282D01*
X-19507Y216244D01*
Y216241D01*
X-19501Y216229D01*
X-19495Y216209D01*
X-19489Y216194D01*
X-19486Y216177D01*
X-19480Y216156D01*
X-19472Y216133D01*
X-19466Y216107D01*
X-19457Y216078D01*
X-19448Y216043D01*
X-19440Y216005D01*
X-19428Y215964D01*
X-19417Y215918D01*
Y215915D01*
X-19414Y215903D01*
X-19408Y215886D01*
X-19402Y215865D01*
X-19393Y215839D01*
X-19385Y215807D01*
X-19373Y215775D01*
X-19361Y215737D01*
X-19332Y215662D01*
X-19297Y215589D01*
X-19280Y215551D01*
X-19259Y215519D01*
X-19239Y215487D01*
X-19219Y215461D01*
X-19216Y215458D01*
X-19210Y215452D01*
X-19201Y215443D01*
X-19189Y215432D01*
X-19172Y215417D01*
X-19152Y215403D01*
X-19131Y215385D01*
X-19105Y215371D01*
X-19044Y215336D01*
X-18974Y215307D01*
X-18936Y215295D01*
X-18899Y215286D01*
X-18855Y215280D01*
X-18811Y215278D01*
X-18808D01*
X-18805D01*
X-18797D01*
X-18785D01*
X-18756Y215283D01*
X-18718Y215289D01*
X-18674Y215298D01*
X-18625Y215312D01*
X-18573Y215333D01*
X-18523Y215362D01*
X-18520D01*
X-18517Y215365D01*
X-18500Y215379D01*
X-18476Y215397D01*
X-18447Y215426D01*
X-18415Y215461D01*
X-18381Y215505D01*
X-18349Y215554D01*
X-18319Y215612D01*
Y215615D01*
X-18316Y215621D01*
X-18314Y215630D01*
X-18308Y215641D01*
X-18302Y215659D01*
X-18296Y215676D01*
X-18290Y215700D01*
X-18282Y215726D01*
X-18270Y215784D01*
X-18258Y215851D01*
X-18250Y215927D01*
X-18247Y216011D01*
Y215461D01*
Y216046D01*
X-18250Y216072D01*
X-18252Y216104D01*
X-18255Y216142D01*
X-18261Y216180D01*
X-18267Y216223D01*
X-18287Y216316D01*
X-18302Y216363D01*
X-18316Y216409D01*
X-18337Y216456D01*
X-18360Y216500D01*
X-18386Y216541D01*
X-18415Y216578D01*
X-18418Y216581D01*
X-18424Y216587D01*
X-18433Y216596D01*
X-18444Y216607D01*
X-18462Y216622D01*
X-18482Y216639D01*
X-18506Y216657D01*
X-18532Y216677D01*
X-18564Y216695D01*
X-18596Y216712D01*
X-18634Y216730D01*
X-18674Y216744D01*
X-18715Y216759D01*
X-18762Y216770D01*
X-18808Y216779D01*
X-18861Y216782D01*
X-18875Y216375D01*
X-18872D01*
X-18869D01*
X-18849Y216369D01*
X-18823Y216363D01*
X-18791Y216351D01*
X-18753Y216337D01*
X-18718Y216316D01*
X-18683Y216290D01*
X-18654Y216261D01*
X-18651Y216258D01*
X-18642Y216247D01*
X-18631Y216226D01*
X-18619Y216197D01*
X-18608Y216162D01*
X-18596Y216119D01*
X-18587Y216066D01*
X-18584Y216005D01*
Y215976D01*
X-18587Y215944D01*
X-18593Y215906D01*
X-18602Y215862D01*
X-18616Y215816D01*
X-18634Y215772D01*
X-18660Y215732D01*
X-18663Y215729D01*
X-18669Y215723D01*
X-18677Y215711D01*
X-18692Y215700D01*
X-18709Y215688D01*
X-18733Y215676D01*
X-18756Y215670D01*
X-18785Y215668D01*
X-18788D01*
X-18797D01*
X-18811Y215670D01*
X-18826Y215676D01*
X-18846Y215682D01*
X-18867Y215691D01*
X-18887Y215705D01*
X-18907Y215726D01*
X-18910Y215729D01*
X-18919Y215743D01*
X-18925Y215752D01*
X-18930Y215766D01*
X-18939Y215781D01*
X-18948Y215801D01*
X-18957Y215825D01*
X-18968Y215851D01*
X-18980Y215883D01*
X-18992Y215915D01*
X-19003Y215956D01*
X-19015Y215999D01*
X-19026Y216046D01*
X-19041Y216098D01*
Y216101D01*
X-19044Y216113D01*
X-19047Y216127D01*
X-19053Y216148D01*
X-19059Y216171D01*
X-19067Y216200D01*
X-19076Y216232D01*
X-19085Y216264D01*
X-19108Y216334D01*
X-19131Y216407D01*
X-19158Y216476D01*
X-19172Y216506D01*
X-19187Y216535D01*
Y216538D01*
X-19189Y216541D01*
X-19201Y216558D01*
X-19219Y216584D01*
X-19242Y216616D01*
X-19271Y216651D01*
X-19306Y216689D01*
X-19347Y216727D01*
X-19393Y216759D01*
X-19399Y216762D01*
X-19417Y216770D01*
X-19443Y216785D01*
X-19480Y216799D01*
X-19527Y216814D01*
X-19582Y216829D01*
X-19644Y216837D01*
X-19713Y216840D01*
X-18247D01*
D01*
D02*
G37*
%LPD*%
G36*
X-18284Y224464D02*
X-18625D01*
Y223379D01*
X-19070D01*
Y224389D01*
X-19411D01*
Y223379D01*
X-19958D01*
Y224502D01*
X-18284D01*
Y224464D01*
D02*
G37*
G36*
X-19757Y222622D02*
X-19777Y222620D01*
X-19818Y222614D01*
X-19870Y222602D01*
X-19926Y222585D01*
X-19981Y222558D01*
X-20039Y222526D01*
X-20042D01*
X-20045Y222520D01*
X-20063Y222509D01*
X-20092Y222486D01*
X-20124Y222457D01*
X-20161Y222419D01*
X-20196Y222369D01*
X-20231Y222317D01*
X-20263Y222253D01*
Y222250D01*
X-20266Y222244D01*
X-20269Y222235D01*
X-20275Y222221D01*
X-20281Y222203D01*
X-20287Y222183D01*
X-20292Y222160D01*
X-20298Y222133D01*
X-20307Y222101D01*
X-20313Y222070D01*
X-20324Y221994D01*
X-20333Y221909D01*
X-20336Y221816D01*
Y222625D01*
X-19742D01*
X-19757Y222622D01*
D02*
G37*
G36*
X-18971Y219439D02*
X-20298D01*
Y220256D01*
X-18971Y219439D01*
D02*
G37*
%LPC*%
G36*
X19747Y226718D02*
X19724D01*
X19706Y226715D01*
X19683D01*
X19657Y226710D01*
X19628Y226707D01*
X19599Y226701D01*
X19529Y226683D01*
X19453Y226657D01*
X19412Y226640D01*
X19375Y226622D01*
X19337Y226599D01*
X19299Y226573D01*
X19296Y226570D01*
X19287Y226564D01*
X19276Y226552D01*
X19258Y226538D01*
X19238Y226517D01*
X19215Y226491D01*
X19191Y226462D01*
X19168Y226430D01*
X19142Y226392D01*
X19118Y226351D01*
X19095Y226308D01*
X19075Y226258D01*
X19057Y226206D01*
X19046Y226151D01*
X19037Y226090D01*
X19034Y226026D01*
Y226718D01*
D01*
Y225362D01*
D01*
Y225999D01*
X19037Y225979D01*
X19040Y225956D01*
X19043Y225927D01*
X19046Y225898D01*
X19051Y225863D01*
X19069Y225793D01*
X19098Y225714D01*
X19113Y225676D01*
X19133Y225639D01*
X19156Y225604D01*
X19183Y225569D01*
X19185Y225566D01*
X19188Y225560D01*
X19197Y225551D01*
X19209Y225540D01*
X19226Y225528D01*
X19244Y225511D01*
X19264Y225496D01*
X19287Y225479D01*
X19316Y225458D01*
X19345Y225441D01*
X19415Y225409D01*
X19494Y225380D01*
X19537Y225371D01*
X19584Y225362D01*
X19625Y225746D01*
X19619D01*
X19604Y225749D01*
X19578Y225755D01*
X19549Y225764D01*
X19517Y225775D01*
X19482Y225793D01*
X19450Y225816D01*
X19418Y225842D01*
X19415Y225845D01*
X19407Y225857D01*
X19395Y225874D01*
X19380Y225898D01*
X19366Y225924D01*
X19354Y225956D01*
X19345Y225994D01*
X19342Y226031D01*
Y226037D01*
X19345Y226052D01*
X19348Y226075D01*
X19354Y226104D01*
X19366Y226136D01*
X19383Y226171D01*
X19409Y226206D01*
X19442Y226238D01*
X19447Y226241D01*
X19459Y226253D01*
X19482Y226264D01*
X19517Y226282D01*
X19558Y226296D01*
X19607Y226311D01*
X19668Y226320D01*
X19738Y226322D01*
X19741D01*
X19747D01*
X19756D01*
X19770D01*
X19802Y226320D01*
X19843Y226311D01*
X19890Y226302D01*
X19936Y226288D01*
X19980Y226267D01*
X20018Y226238D01*
X20020Y226235D01*
X20032Y226223D01*
X20047Y226203D01*
X20067Y226180D01*
X20085Y226148D01*
X20099Y226110D01*
X20111Y226066D01*
X20114Y226020D01*
Y226002D01*
X20111Y225991D01*
X20105Y225962D01*
X20096Y225921D01*
X20079Y225874D01*
X20053Y225825D01*
X20035Y225799D01*
X20015Y225772D01*
X19991Y225746D01*
X19965Y225720D01*
X20009Y225409D01*
X21059Y225607D01*
Y226628D01*
X20699D01*
Y225898D01*
X20355Y225836D01*
Y225839D01*
X20358Y225842D01*
X20367Y225860D01*
X20376Y225886D01*
X20390Y225918D01*
X20402Y225959D01*
X20411Y226002D01*
X20419Y226052D01*
X20422Y226101D01*
Y226128D01*
X20419Y226145D01*
X20416Y226165D01*
X20413Y226191D01*
X20408Y226221D01*
X20399Y226253D01*
X20376Y226320D01*
X20361Y226357D01*
X20344Y226392D01*
X20320Y226430D01*
X20294Y226468D01*
X20265Y226503D01*
X20233Y226538D01*
X20230Y226541D01*
X20224Y226547D01*
X20213Y226555D01*
X20198Y226567D01*
X20181Y226578D01*
X20157Y226596D01*
X20131Y226610D01*
X20102Y226628D01*
X20070Y226645D01*
X20032Y226660D01*
X19991Y226677D01*
X19951Y226689D01*
X19904Y226701D01*
X19855Y226710D01*
X19802Y226715D01*
X19747Y226718D01*
D02*
G37*
G36*
X21086Y224314D02*
X19072D01*
Y222784D01*
X21086D01*
Y224277D01*
X20745D01*
Y223191D01*
X20300D01*
Y224201D01*
X19959D01*
Y223191D01*
X19412D01*
Y224314D01*
X21086D01*
D02*
G37*
G36*
X19657Y222438D02*
X19628D01*
X19613Y222435D01*
X19593Y222432D01*
X19552Y222426D01*
X19500Y222414D01*
X19444Y222397D01*
X19389Y222371D01*
X19331Y222339D01*
X19328D01*
X19325Y222333D01*
X19308Y222321D01*
X19278Y222298D01*
X19247Y222269D01*
X19209Y222231D01*
X19174Y222182D01*
X19139Y222129D01*
X19107Y222065D01*
Y222062D01*
X19104Y222056D01*
X19101Y222048D01*
X19095Y222033D01*
X19089Y222016D01*
X19083Y221995D01*
X19078Y221972D01*
X19072Y221946D01*
X19063Y221914D01*
X19057Y221882D01*
X19046Y221806D01*
X19037Y221722D01*
X19034Y221629D01*
Y222438D01*
D01*
Y220799D01*
Y221591D01*
X19037Y221565D01*
X19040Y221533D01*
X19043Y221498D01*
X19049Y221457D01*
X19057Y221413D01*
X19078Y221317D01*
X19092Y221268D01*
X19107Y221221D01*
X19127Y221172D01*
X19150Y221125D01*
X19177Y221081D01*
X19209Y221041D01*
X19212Y221038D01*
X19217Y221032D01*
X19226Y221020D01*
X19241Y221009D01*
X19261Y220991D01*
X19284Y220974D01*
X19310Y220953D01*
X19340Y220933D01*
X19375Y220913D01*
X19412Y220892D01*
X19456Y220872D01*
X19503Y220852D01*
X19552Y220837D01*
X19607Y220820D01*
X19666Y220808D01*
X19727Y220799D01*
X19764Y221195D01*
X19761D01*
X19756Y221198D01*
X19744D01*
X19733Y221201D01*
X19697Y221213D01*
X19654Y221227D01*
X19604Y221245D01*
X19555Y221271D01*
X19511Y221300D01*
X19471Y221338D01*
X19468Y221343D01*
X19456Y221358D01*
X19442Y221381D01*
X19424Y221416D01*
X19407Y221460D01*
X19392Y221509D01*
X19380Y221568D01*
X19377Y221634D01*
Y221666D01*
X19383Y221701D01*
X19389Y221745D01*
X19398Y221792D01*
X19412Y221841D01*
X19433Y221888D01*
X19459Y221928D01*
X19462Y221934D01*
X19474Y221946D01*
X19491Y221960D01*
X19514Y221981D01*
X19543Y221998D01*
X19578Y222016D01*
X19613Y222027D01*
X19654Y222030D01*
X19657D01*
X19666D01*
X19680Y222027D01*
X19697Y222024D01*
X19715Y222019D01*
X19735Y222013D01*
X19756Y222001D01*
X19776Y221987D01*
X19779Y221984D01*
X19785Y221978D01*
X19794Y221969D01*
X19805Y221954D01*
X19820Y221934D01*
X19834Y221908D01*
X19849Y221879D01*
X19863Y221841D01*
Y221838D01*
X19869Y221827D01*
X19875Y221806D01*
X19881Y221792D01*
X19884Y221774D01*
X19890Y221754D01*
X19898Y221730D01*
X19904Y221704D01*
X19913Y221675D01*
X19922Y221640D01*
X19930Y221602D01*
X19942Y221562D01*
X19954Y221515D01*
Y221512D01*
X19956Y221501D01*
X19962Y221483D01*
X19968Y221463D01*
X19977Y221437D01*
X19986Y221405D01*
X19997Y221373D01*
X20009Y221335D01*
X20038Y221259D01*
X20073Y221186D01*
X20090Y221148D01*
X20111Y221116D01*
X20131Y221084D01*
X20152Y221058D01*
X20154Y221055D01*
X20160Y221049D01*
X20169Y221041D01*
X20181Y221029D01*
X20198Y221015D01*
X20218Y221000D01*
X20239Y220983D01*
X20265Y220968D01*
X20326Y220933D01*
X20396Y220904D01*
X20434Y220892D01*
X20472Y220884D01*
X20515Y220878D01*
X20559Y220875D01*
X20562D01*
X20565D01*
X20573D01*
X20585D01*
X20614Y220881D01*
X20652Y220886D01*
X20696Y220895D01*
X20745Y220910D01*
X20798Y220930D01*
X20847Y220959D01*
X20850D01*
X20853Y220962D01*
X20870Y220977D01*
X20893Y220994D01*
X20923Y221023D01*
X20955Y221058D01*
X20990Y221102D01*
X21022Y221151D01*
X21051Y221210D01*
Y221213D01*
X21054Y221218D01*
X21057Y221227D01*
X21062Y221239D01*
X21068Y221256D01*
X21074Y221274D01*
X21080Y221297D01*
X21089Y221323D01*
X21100Y221381D01*
X21112Y221448D01*
X21121Y221524D01*
X21123Y221608D01*
Y221643D01*
X21121Y221669D01*
X21118Y221701D01*
X21115Y221739D01*
X21109Y221777D01*
X21103Y221821D01*
X21083Y221914D01*
X21068Y221960D01*
X21054Y222007D01*
X21033Y222054D01*
X21010Y222097D01*
X20984Y222138D01*
X20955Y222176D01*
X20952Y222179D01*
X20946Y222184D01*
X20937Y222193D01*
X20926Y222205D01*
X20908Y222219D01*
X20888Y222237D01*
X20864Y222254D01*
X20838Y222275D01*
X20806Y222292D01*
X20774Y222309D01*
X20736Y222327D01*
X20696Y222342D01*
X20655Y222356D01*
X20608Y222368D01*
X20562Y222376D01*
X20509Y222379D01*
X20495Y221972D01*
X20498D01*
X20501D01*
X20521Y221966D01*
X20547Y221960D01*
X20579Y221949D01*
X20617Y221934D01*
X20652Y221914D01*
X20687Y221888D01*
X20716Y221859D01*
X20719Y221856D01*
X20728Y221844D01*
X20739Y221824D01*
X20751Y221795D01*
X20763Y221760D01*
X20774Y221716D01*
X20783Y221663D01*
X20786Y221602D01*
Y221573D01*
X20783Y221541D01*
X20777Y221503D01*
X20768Y221460D01*
X20754Y221413D01*
X20736Y221370D01*
X20710Y221329D01*
X20707Y221326D01*
X20701Y221320D01*
X20693Y221308D01*
X20678Y221297D01*
X20661Y221285D01*
X20638Y221274D01*
X20614Y221268D01*
X20585Y221265D01*
X20582D01*
X20573D01*
X20559Y221268D01*
X20544Y221274D01*
X20524Y221279D01*
X20504Y221288D01*
X20483Y221303D01*
X20463Y221323D01*
X20460Y221326D01*
X20451Y221340D01*
X20445Y221349D01*
X20440Y221364D01*
X20431Y221378D01*
X20422Y221399D01*
X20413Y221422D01*
X20402Y221448D01*
X20390Y221480D01*
X20379Y221512D01*
X20367Y221553D01*
X20355Y221597D01*
X20344Y221643D01*
X20329Y221695D01*
Y221698D01*
X20326Y221710D01*
X20323Y221725D01*
X20317Y221745D01*
X20312Y221768D01*
X20303Y221797D01*
X20294Y221829D01*
X20285Y221861D01*
X20262Y221931D01*
X20239Y222004D01*
X20213Y222074D01*
X20198Y222103D01*
X20184Y222132D01*
Y222135D01*
X20181Y222138D01*
X20169Y222155D01*
X20152Y222182D01*
X20128Y222214D01*
X20099Y222248D01*
X20064Y222286D01*
X20023Y222324D01*
X19977Y222356D01*
X19971Y222359D01*
X19954Y222368D01*
X19927Y222382D01*
X19890Y222397D01*
X19843Y222411D01*
X19788Y222426D01*
X19727Y222435D01*
X19657Y222438D01*
D02*
G37*
G36*
X21086Y220476D02*
X19072D01*
Y218876D01*
X21086D01*
Y219269D01*
X19729Y220101D01*
X21086D01*
Y220476D01*
D02*
G37*
G36*
Y218529D02*
X19072D01*
Y216999D01*
X21086D01*
Y218492D01*
X20745D01*
Y217406D01*
X20300D01*
Y218416D01*
X19959D01*
Y217406D01*
X19412D01*
Y218529D01*
X21086D01*
D02*
G37*
G36*
X19657Y216652D02*
X19628D01*
X19613Y216650D01*
X19593Y216647D01*
X19552Y216641D01*
X19500Y216629D01*
X19444Y216612D01*
X19389Y216586D01*
X19331Y216554D01*
X19328D01*
X19325Y216548D01*
X19308Y216536D01*
X19278Y216513D01*
X19247Y216484D01*
X19209Y216446D01*
X19174Y216396D01*
X19139Y216344D01*
X19107Y216280D01*
Y216277D01*
X19104Y216271D01*
X19101Y216263D01*
X19095Y216248D01*
X19089Y216231D01*
X19083Y216210D01*
X19078Y216187D01*
X19072Y216161D01*
X19063Y216129D01*
X19057Y216097D01*
X19046Y216021D01*
X19037Y215937D01*
X19034Y215844D01*
Y215806D01*
X19037Y215779D01*
X19040Y215747D01*
X19043Y215713D01*
X19049Y215672D01*
X19057Y215628D01*
X19078Y215532D01*
X19092Y215483D01*
X19107Y215436D01*
X19127Y215387D01*
X19150Y215340D01*
X19177Y215296D01*
X19209Y215256D01*
X19212Y215253D01*
X19217Y215247D01*
X19226Y215235D01*
X19241Y215224D01*
X19261Y215206D01*
X19284Y215189D01*
X19310Y215168D01*
X19340Y215148D01*
X19375Y215128D01*
X19412Y215107D01*
X19456Y215087D01*
X19503Y215067D01*
X19552Y215052D01*
X19607Y215035D01*
X19666Y215023D01*
X19727Y215014D01*
X19764Y215410D01*
X19761D01*
X19756Y215413D01*
X19744D01*
X19733Y215416D01*
X19697Y215427D01*
X19654Y215442D01*
X19604Y215459D01*
X19555Y215486D01*
X19511Y215515D01*
X19471Y215552D01*
X19468Y215558D01*
X19456Y215573D01*
X19442Y215596D01*
X19424Y215631D01*
X19407Y215675D01*
X19392Y215724D01*
X19380Y215782D01*
X19377Y215849D01*
Y215881D01*
X19383Y215916D01*
X19389Y215960D01*
X19398Y216006D01*
X19412Y216056D01*
X19433Y216103D01*
X19459Y216143D01*
X19462Y216149D01*
X19474Y216161D01*
X19491Y216175D01*
X19514Y216196D01*
X19543Y216213D01*
X19578Y216231D01*
X19613Y216242D01*
X19654Y216245D01*
X19657D01*
X19666D01*
X19680Y216242D01*
X19697Y216239D01*
X19715Y216233D01*
X19735Y216228D01*
X19756Y216216D01*
X19776Y216201D01*
X19779Y216198D01*
X19785Y216193D01*
X19794Y216184D01*
X19805Y216169D01*
X19820Y216149D01*
X19834Y216123D01*
X19849Y216094D01*
X19863Y216056D01*
Y216053D01*
X19869Y216041D01*
X19875Y216021D01*
X19881Y216006D01*
X19884Y215989D01*
X19890Y215969D01*
X19898Y215945D01*
X19904Y215919D01*
X19913Y215890D01*
X19922Y215855D01*
X19930Y215817D01*
X19942Y215777D01*
X19954Y215730D01*
Y215727D01*
X19956Y215716D01*
X19962Y215698D01*
X19968Y215678D01*
X19977Y215651D01*
X19986Y215619D01*
X19997Y215587D01*
X20009Y215550D01*
X20038Y215474D01*
X20073Y215401D01*
X20090Y215363D01*
X20111Y215331D01*
X20131Y215299D01*
X20152Y215273D01*
X20154Y215270D01*
X20160Y215264D01*
X20169Y215256D01*
X20181Y215244D01*
X20198Y215230D01*
X20218Y215215D01*
X20239Y215197D01*
X20265Y215183D01*
X20326Y215148D01*
X20396Y215119D01*
X20434Y215107D01*
X20472Y215099D01*
X20515Y215093D01*
X20559Y215090D01*
X20562D01*
X20565D01*
X20573D01*
X20585D01*
X20614Y215096D01*
X20652Y215102D01*
X20696Y215110D01*
X20745Y215125D01*
X20798Y215145D01*
X20847Y215174D01*
X20850D01*
X20853Y215177D01*
X20870Y215192D01*
X20893Y215209D01*
X20923Y215238D01*
X20955Y215273D01*
X20990Y215317D01*
X21022Y215366D01*
X21051Y215424D01*
Y215427D01*
X21054Y215433D01*
X21057Y215442D01*
X21062Y215454D01*
X21068Y215471D01*
X21074Y215489D01*
X21080Y215512D01*
X21089Y215538D01*
X21100Y215596D01*
X21112Y215663D01*
X21121Y215739D01*
X21123Y215823D01*
Y215858D01*
X21121Y215884D01*
X21118Y215916D01*
X21115Y215954D01*
X21109Y215992D01*
X21103Y216036D01*
X21083Y216129D01*
X21068Y216175D01*
X21054Y216222D01*
X21033Y216268D01*
X21010Y216312D01*
X20984Y216353D01*
X20955Y216391D01*
X20952Y216393D01*
X20946Y216399D01*
X20937Y216408D01*
X20926Y216420D01*
X20908Y216434D01*
X20888Y216452D01*
X20864Y216469D01*
X20838Y216490D01*
X20806Y216507D01*
X20774Y216525D01*
X20736Y216542D01*
X20696Y216557D01*
X20655Y216571D01*
X20608Y216583D01*
X20562Y216591D01*
X20509Y216594D01*
X20495Y216187D01*
X20498D01*
X20501D01*
X20521Y216181D01*
X20547Y216175D01*
X20579Y216164D01*
X20617Y216149D01*
X20652Y216129D01*
X20687Y216103D01*
X20716Y216073D01*
X20719Y216071D01*
X20728Y216059D01*
X20739Y216038D01*
X20751Y216009D01*
X20763Y215974D01*
X20774Y215931D01*
X20783Y215878D01*
X20786Y215817D01*
Y215788D01*
X20783Y215756D01*
X20777Y215718D01*
X20768Y215675D01*
X20754Y215628D01*
X20736Y215584D01*
X20710Y215544D01*
X20707Y215541D01*
X20701Y215535D01*
X20693Y215523D01*
X20678Y215512D01*
X20661Y215500D01*
X20638Y215489D01*
X20614Y215483D01*
X20585Y215480D01*
X20582D01*
X20573D01*
X20559Y215483D01*
X20544Y215489D01*
X20524Y215494D01*
X20504Y215503D01*
X20483Y215518D01*
X20463Y215538D01*
X20460Y215541D01*
X20451Y215555D01*
X20445Y215564D01*
X20440Y215579D01*
X20431Y215593D01*
X20422Y215614D01*
X20413Y215637D01*
X20402Y215663D01*
X20390Y215695D01*
X20379Y215727D01*
X20367Y215768D01*
X20355Y215811D01*
X20344Y215858D01*
X20329Y215910D01*
Y215913D01*
X20326Y215925D01*
X20323Y215940D01*
X20317Y215960D01*
X20312Y215983D01*
X20303Y216012D01*
X20294Y216044D01*
X20285Y216076D01*
X20262Y216146D01*
X20239Y216219D01*
X20213Y216289D01*
X20198Y216318D01*
X20184Y216347D01*
Y216350D01*
X20181Y216353D01*
X20169Y216370D01*
X20152Y216396D01*
X20128Y216428D01*
X20099Y216463D01*
X20064Y216501D01*
X20023Y216539D01*
X19977Y216571D01*
X19971Y216574D01*
X19954Y216583D01*
X19927Y216597D01*
X19890Y216612D01*
X19843Y216626D01*
X19788Y216641D01*
X19727Y216650D01*
X19657Y216652D01*
D02*
G37*
%LPD*%
G36*
X20399Y219251D02*
X19072D01*
Y220069D01*
X20399Y219251D01*
D02*
G37*
%LPC*%
G36*
X50625Y226698D02*
Y226055D01*
X50622Y226072D01*
X50619Y226098D01*
X50616Y226125D01*
X50613Y226157D01*
X50607Y226189D01*
X50590Y226261D01*
X50564Y226337D01*
X50546Y226372D01*
X50526Y226410D01*
X50503Y226442D01*
X50476Y226474D01*
X50473Y226477D01*
X50471Y226480D01*
X50462Y226488D01*
X50450Y226500D01*
X50436Y226512D01*
X50418Y226523D01*
X50375Y226555D01*
X50319Y226584D01*
X50258Y226608D01*
X50185Y226628D01*
X50145Y226631D01*
X50104Y226634D01*
X50101D01*
X50098D01*
X50081D01*
X50054Y226631D01*
X50020Y226625D01*
X49982Y226616D01*
X49941Y226602D01*
X49897Y226584D01*
X49854Y226558D01*
X49848Y226555D01*
X49836Y226544D01*
X49816Y226529D01*
X49793Y226506D01*
X49763Y226477D01*
X49737Y226442D01*
X49711Y226401D01*
X49688Y226354D01*
Y226357D01*
X49685Y226363D01*
X49682Y226372D01*
X49676Y226383D01*
X49659Y226413D01*
X49635Y226450D01*
X49609Y226491D01*
X49574Y226535D01*
X49534Y226576D01*
X49487Y226610D01*
X49481Y226613D01*
X49464Y226625D01*
X49437Y226640D01*
X49403Y226654D01*
X49359Y226672D01*
X49307Y226683D01*
X49251Y226695D01*
X49190Y226698D01*
X48562D01*
X49164D01*
X49144Y226695D01*
X49120Y226692D01*
X49091Y226689D01*
X49062Y226683D01*
X49030Y226675D01*
X48957Y226654D01*
X48919Y226640D01*
X48882Y226622D01*
X48844Y226602D01*
X48806Y226576D01*
X48771Y226549D01*
X48736Y226517D01*
X48733Y226515D01*
X48728Y226509D01*
X48719Y226500D01*
X48710Y226485D01*
X48695Y226468D01*
X48681Y226445D01*
X48666Y226421D01*
X48649Y226392D01*
X48632Y226360D01*
X48617Y226322D01*
X48602Y226285D01*
X48588Y226244D01*
X48579Y226197D01*
X48570Y226148D01*
X48564Y226098D01*
X48562Y226043D01*
Y226017D01*
X48564Y225996D01*
X48567Y225973D01*
X48570Y225947D01*
X48573Y225918D01*
X48579Y225883D01*
X48597Y225810D01*
X48623Y225735D01*
X48637Y225697D01*
X48658Y225659D01*
X48678Y225621D01*
X48704Y225586D01*
X48707Y225583D01*
X48713Y225577D01*
X48722Y225566D01*
X48736Y225551D01*
X48754Y225537D01*
X48774Y225519D01*
X48800Y225499D01*
X48826Y225479D01*
X48858Y225458D01*
X48893Y225438D01*
X48931Y225420D01*
X48975Y225406D01*
X49018Y225391D01*
X49068Y225380D01*
X49117Y225374D01*
X49173Y225371D01*
X48562D01*
X49202D01*
X49234Y225374D01*
X49272Y225380D01*
X49318Y225391D01*
X49371Y225403D01*
X49423Y225423D01*
X49475Y225449D01*
X49478D01*
X49481Y225452D01*
X49499Y225464D01*
X49522Y225484D01*
X49554Y225514D01*
X49589Y225548D01*
X49624Y225592D01*
X49656Y225644D01*
X49688Y225706D01*
Y225703D01*
X49691Y225700D01*
X49699Y225682D01*
X49714Y225656D01*
X49731Y225624D01*
X49758Y225586D01*
X49787Y225551D01*
X49822Y225516D01*
X49859Y225487D01*
X49865Y225484D01*
X49880Y225476D01*
X49900Y225467D01*
X49932Y225455D01*
X49967Y225441D01*
X50011Y225432D01*
X50054Y225423D01*
X50104Y225420D01*
X50107D01*
X50113D01*
X50124D01*
X50142Y225423D01*
X50159Y225426D01*
X50182Y225429D01*
X50235Y225441D01*
X50293Y225458D01*
X50357Y225487D01*
X50386Y225505D01*
X50418Y225525D01*
X50447Y225551D01*
X50476Y225577D01*
X50479Y225580D01*
X50482Y225586D01*
X50491Y225595D01*
X50500Y225607D01*
X50511Y225624D01*
X50523Y225641D01*
X50538Y225665D01*
X50552Y225694D01*
X50564Y225723D01*
X50578Y225755D01*
X50590Y225793D01*
X50602Y225834D01*
X50610Y225877D01*
X50619Y225924D01*
X50622Y225973D01*
X50625Y226026D01*
Y225516D01*
Y226698D01*
D02*
G37*
G36*
X50613Y224335D02*
Y224297D01*
X50273D01*
Y223212D01*
X49828D01*
Y224221D01*
X49487D01*
Y223212D01*
X48940D01*
Y224335D01*
X50613D01*
X48599D01*
Y222804D01*
X50613D01*
Y224335D01*
D02*
G37*
G36*
X49184Y222458D02*
X49155D01*
X49141Y222455D01*
X49120Y222452D01*
X49080Y222446D01*
X49027Y222435D01*
X48972Y222417D01*
X48917Y222391D01*
X48858Y222359D01*
X48856D01*
X48853Y222353D01*
X48835Y222342D01*
X48806Y222318D01*
X48774Y222289D01*
X48736Y222251D01*
X48701Y222202D01*
X48666Y222149D01*
X48634Y222085D01*
Y222083D01*
X48632Y222077D01*
X48629Y222068D01*
X48623Y222054D01*
X48617Y222036D01*
X48611Y222016D01*
X48605Y221992D01*
X48599Y221966D01*
X48591Y221934D01*
X48585Y221902D01*
X48573Y221827D01*
X48564Y221742D01*
X48562Y221649D01*
Y221611D01*
X48564Y221585D01*
X48567Y221553D01*
X48570Y221518D01*
X48576Y221477D01*
X48585Y221434D01*
X48605Y221338D01*
X48620Y221288D01*
X48634Y221242D01*
X48655Y221192D01*
X48678Y221146D01*
X48704Y221102D01*
X48736Y221061D01*
X48739Y221058D01*
X48745Y221052D01*
X48754Y221041D01*
X48768Y221029D01*
X48789Y221012D01*
X48812Y220994D01*
X48838Y220974D01*
X48867Y220953D01*
X48902Y220933D01*
X48940Y220913D01*
X48984Y220892D01*
X49030Y220872D01*
X49080Y220858D01*
X49135Y220840D01*
X49193Y220828D01*
X49254Y220820D01*
X49292Y221215D01*
X49289D01*
X49283Y221218D01*
X49272D01*
X49260Y221221D01*
X49225Y221233D01*
X49181Y221247D01*
X49132Y221265D01*
X49082Y221291D01*
X49039Y221320D01*
X48998Y221358D01*
X48995Y221364D01*
X48984Y221378D01*
X48969Y221402D01*
X48952Y221437D01*
X48934Y221480D01*
X48919Y221530D01*
X48908Y221588D01*
X48905Y221655D01*
Y221687D01*
X48911Y221722D01*
X48917Y221765D01*
X48925Y221812D01*
X48940Y221861D01*
X48960Y221908D01*
X48987Y221949D01*
X48989Y221954D01*
X49001Y221966D01*
X49018Y221981D01*
X49042Y222001D01*
X49071Y222019D01*
X49106Y222036D01*
X49141Y222048D01*
X49181Y222051D01*
X49184D01*
X49193D01*
X49208Y222048D01*
X49225Y222045D01*
X49242Y222039D01*
X49263Y222033D01*
X49283Y222022D01*
X49304Y222007D01*
X49307Y222004D01*
X49312Y221998D01*
X49321Y221989D01*
X49333Y221975D01*
X49347Y221954D01*
X49362Y221928D01*
X49376Y221899D01*
X49391Y221861D01*
Y221859D01*
X49397Y221847D01*
X49403Y221827D01*
X49408Y221812D01*
X49411Y221795D01*
X49417Y221774D01*
X49426Y221751D01*
X49432Y221725D01*
X49440Y221695D01*
X49449Y221661D01*
X49458Y221623D01*
X49470Y221582D01*
X49481Y221535D01*
Y221533D01*
X49484Y221521D01*
X49490Y221503D01*
X49496Y221483D01*
X49505Y221457D01*
X49513Y221425D01*
X49525Y221393D01*
X49536Y221355D01*
X49566Y221279D01*
X49600Y221207D01*
X49618Y221169D01*
X49638Y221137D01*
X49659Y221105D01*
X49679Y221079D01*
X49682Y221076D01*
X49688Y221070D01*
X49696Y221061D01*
X49708Y221049D01*
X49726Y221035D01*
X49746Y221020D01*
X49766Y221003D01*
X49793Y220988D01*
X49854Y220953D01*
X49924Y220924D01*
X49961Y220913D01*
X49999Y220904D01*
X50043Y220898D01*
X50086Y220895D01*
X50089D01*
X50092D01*
X50101D01*
X50113D01*
X50142Y220901D01*
X50180Y220907D01*
X50223Y220916D01*
X50273Y220930D01*
X50325Y220951D01*
X50375Y220980D01*
X50377D01*
X50380Y220983D01*
X50398Y220997D01*
X50421Y221015D01*
X50450Y221044D01*
X50482Y221079D01*
X50517Y221122D01*
X50549Y221172D01*
X50578Y221230D01*
Y221233D01*
X50581Y221239D01*
X50584Y221247D01*
X50590Y221259D01*
X50596Y221276D01*
X50602Y221294D01*
X50607Y221317D01*
X50616Y221343D01*
X50628Y221402D01*
X50639Y221469D01*
X50648Y221544D01*
X50651Y221629D01*
Y221663D01*
X50648Y221690D01*
X50645Y221722D01*
X50642Y221760D01*
X50636Y221797D01*
X50631Y221841D01*
X50610Y221934D01*
X50596Y221981D01*
X50581Y222027D01*
X50561Y222074D01*
X50538Y222117D01*
X50511Y222158D01*
X50482Y222196D01*
X50479Y222199D01*
X50473Y222205D01*
X50465Y222214D01*
X50453Y222225D01*
X50436Y222240D01*
X50415Y222257D01*
X50392Y222275D01*
X50366Y222295D01*
X50334Y222312D01*
X50302Y222330D01*
X50264Y222347D01*
X50223Y222362D01*
X50182Y222376D01*
X50136Y222388D01*
X50089Y222397D01*
X50037Y222400D01*
X50022Y221992D01*
X50025D01*
X50028D01*
X50049Y221987D01*
X50075Y221981D01*
X50107Y221969D01*
X50145Y221954D01*
X50180Y221934D01*
X50214Y221908D01*
X50244Y221879D01*
X50247Y221876D01*
X50255Y221864D01*
X50267Y221844D01*
X50279Y221815D01*
X50290Y221780D01*
X50302Y221736D01*
X50310Y221684D01*
X50313Y221623D01*
Y221594D01*
X50310Y221562D01*
X50305Y221524D01*
X50296Y221480D01*
X50281Y221434D01*
X50264Y221390D01*
X50238Y221349D01*
X50235Y221346D01*
X50229Y221340D01*
X50220Y221329D01*
X50206Y221317D01*
X50188Y221306D01*
X50165Y221294D01*
X50142Y221288D01*
X50113Y221285D01*
X50110D01*
X50101D01*
X50086Y221288D01*
X50072Y221294D01*
X50051Y221300D01*
X50031Y221308D01*
X50011Y221323D01*
X49990Y221343D01*
X49988Y221346D01*
X49979Y221361D01*
X49973Y221370D01*
X49967Y221384D01*
X49958Y221399D01*
X49950Y221419D01*
X49941Y221442D01*
X49929Y221469D01*
X49918Y221501D01*
X49906Y221533D01*
X49894Y221573D01*
X49883Y221617D01*
X49871Y221663D01*
X49857Y221716D01*
Y221719D01*
X49854Y221730D01*
X49851Y221745D01*
X49845Y221765D01*
X49839Y221789D01*
X49830Y221818D01*
X49822Y221850D01*
X49813Y221882D01*
X49790Y221952D01*
X49766Y222024D01*
X49740Y222094D01*
X49726Y222123D01*
X49711Y222152D01*
Y222155D01*
X49708Y222158D01*
X49696Y222176D01*
X49679Y222202D01*
X49656Y222234D01*
X49627Y222269D01*
X49592Y222307D01*
X49551Y222344D01*
X49505Y222376D01*
X49499Y222379D01*
X49481Y222388D01*
X49455Y222403D01*
X49417Y222417D01*
X49371Y222432D01*
X49315Y222446D01*
X49254Y222455D01*
X49184Y222458D01*
D02*
G37*
G36*
X50613Y220497D02*
X48599D01*
Y220089D01*
X49926Y219271D01*
X48599D01*
Y218896D01*
X50613D01*
Y220497D01*
D02*
G37*
G36*
Y218550D02*
Y218512D01*
X50273D01*
Y217427D01*
X49828D01*
Y218436D01*
X49487D01*
Y217427D01*
X48940D01*
Y218550D01*
X50613D01*
X48599D01*
Y217019D01*
X50613D01*
Y218550D01*
D02*
G37*
G36*
X49184Y216673D02*
X49155D01*
X49141Y216670D01*
X49120Y216667D01*
X49080Y216661D01*
X49027Y216650D01*
X48972Y216632D01*
X48917Y216606D01*
X48858Y216574D01*
X48856D01*
X48853Y216568D01*
X48835Y216557D01*
X48806Y216533D01*
X48774Y216504D01*
X48736Y216466D01*
X48701Y216417D01*
X48666Y216364D01*
X48634Y216300D01*
Y216298D01*
X48632Y216292D01*
X48629Y216283D01*
X48623Y216268D01*
X48617Y216251D01*
X48611Y216231D01*
X48605Y216207D01*
X48599Y216181D01*
X48591Y216149D01*
X48585Y216117D01*
X48573Y216041D01*
X48564Y215957D01*
X48562Y215864D01*
Y215826D01*
X48564Y215800D01*
X48567Y215768D01*
X48570Y215733D01*
X48576Y215692D01*
X48585Y215649D01*
X48605Y215552D01*
X48620Y215503D01*
X48634Y215457D01*
X48655Y215407D01*
X48678Y215360D01*
X48704Y215317D01*
X48736Y215276D01*
X48739Y215273D01*
X48745Y215267D01*
X48754Y215256D01*
X48768Y215244D01*
X48789Y215227D01*
X48812Y215209D01*
X48838Y215189D01*
X48867Y215168D01*
X48902Y215148D01*
X48940Y215128D01*
X48984Y215107D01*
X49030Y215087D01*
X49080Y215072D01*
X49135Y215055D01*
X49193Y215043D01*
X49254Y215035D01*
X49292Y215430D01*
X49289D01*
X49283Y215433D01*
X49272D01*
X49260Y215436D01*
X49225Y215448D01*
X49181Y215462D01*
X49132Y215480D01*
X49082Y215506D01*
X49039Y215535D01*
X48998Y215573D01*
X48995Y215579D01*
X48984Y215593D01*
X48969Y215616D01*
X48952Y215651D01*
X48934Y215695D01*
X48919Y215745D01*
X48908Y215803D01*
X48905Y215870D01*
Y215902D01*
X48911Y215937D01*
X48917Y215980D01*
X48925Y216027D01*
X48940Y216076D01*
X48960Y216123D01*
X48987Y216164D01*
X48989Y216169D01*
X49001Y216181D01*
X49018Y216196D01*
X49042Y216216D01*
X49071Y216233D01*
X49106Y216251D01*
X49141Y216263D01*
X49181Y216266D01*
X49184D01*
X49193D01*
X49208Y216263D01*
X49225Y216260D01*
X49242Y216254D01*
X49263Y216248D01*
X49283Y216236D01*
X49304Y216222D01*
X49307Y216219D01*
X49312Y216213D01*
X49321Y216204D01*
X49333Y216190D01*
X49347Y216169D01*
X49362Y216143D01*
X49376Y216114D01*
X49391Y216076D01*
Y216073D01*
X49397Y216062D01*
X49403Y216041D01*
X49408Y216027D01*
X49411Y216009D01*
X49417Y215989D01*
X49426Y215966D01*
X49432Y215940D01*
X49440Y215910D01*
X49449Y215876D01*
X49458Y215838D01*
X49470Y215797D01*
X49481Y215750D01*
Y215747D01*
X49484Y215736D01*
X49490Y215718D01*
X49496Y215698D01*
X49505Y215672D01*
X49513Y215640D01*
X49525Y215608D01*
X49536Y215570D01*
X49566Y215494D01*
X49600Y215422D01*
X49618Y215384D01*
X49638Y215352D01*
X49659Y215320D01*
X49679Y215294D01*
X49682Y215291D01*
X49688Y215285D01*
X49696Y215276D01*
X49708Y215264D01*
X49726Y215250D01*
X49746Y215235D01*
X49766Y215218D01*
X49793Y215203D01*
X49854Y215168D01*
X49924Y215139D01*
X49961Y215128D01*
X49999Y215119D01*
X50043Y215113D01*
X50086Y215110D01*
X50089D01*
X50092D01*
X50101D01*
X50113D01*
X50142Y215116D01*
X50180Y215122D01*
X50223Y215131D01*
X50273Y215145D01*
X50325Y215165D01*
X50375Y215195D01*
X50377D01*
X50380Y215197D01*
X50398Y215212D01*
X50421Y215230D01*
X50450Y215259D01*
X50482Y215294D01*
X50517Y215337D01*
X50549Y215387D01*
X50578Y215445D01*
Y215448D01*
X50581Y215454D01*
X50584Y215462D01*
X50590Y215474D01*
X50596Y215491D01*
X50602Y215509D01*
X50607Y215532D01*
X50616Y215558D01*
X50628Y215616D01*
X50639Y215684D01*
X50648Y215759D01*
X50651Y215844D01*
Y215035D01*
X48562D01*
X50651D01*
Y215878D01*
X50648Y215905D01*
X50645Y215937D01*
X50642Y215974D01*
X50636Y216012D01*
X50631Y216056D01*
X50610Y216149D01*
X50596Y216196D01*
X50581Y216242D01*
X50561Y216289D01*
X50538Y216332D01*
X50511Y216373D01*
X50482Y216411D01*
X50479Y216414D01*
X50473Y216420D01*
X50465Y216428D01*
X50453Y216440D01*
X50436Y216455D01*
X50415Y216472D01*
X50392Y216490D01*
X50366Y216510D01*
X50334Y216527D01*
X50302Y216545D01*
X50264Y216562D01*
X50223Y216577D01*
X50182Y216591D01*
X50136Y216603D01*
X50089Y216612D01*
X50037Y216615D01*
X50022Y216207D01*
X50025D01*
X50028D01*
X50049Y216201D01*
X50075Y216196D01*
X50107Y216184D01*
X50145Y216169D01*
X50180Y216149D01*
X50214Y216123D01*
X50244Y216094D01*
X50247Y216091D01*
X50255Y216079D01*
X50267Y216059D01*
X50279Y216030D01*
X50290Y215995D01*
X50302Y215951D01*
X50310Y215899D01*
X50313Y215838D01*
Y215809D01*
X50310Y215777D01*
X50305Y215739D01*
X50296Y215695D01*
X50281Y215649D01*
X50264Y215605D01*
X50238Y215564D01*
X50235Y215561D01*
X50229Y215555D01*
X50220Y215544D01*
X50206Y215532D01*
X50188Y215521D01*
X50165Y215509D01*
X50142Y215503D01*
X50113Y215500D01*
X50110D01*
X50101D01*
X50086Y215503D01*
X50072Y215509D01*
X50051Y215515D01*
X50031Y215523D01*
X50011Y215538D01*
X49990Y215558D01*
X49988Y215561D01*
X49979Y215576D01*
X49973Y215584D01*
X49967Y215599D01*
X49958Y215614D01*
X49950Y215634D01*
X49941Y215657D01*
X49929Y215684D01*
X49918Y215716D01*
X49906Y215747D01*
X49894Y215788D01*
X49883Y215832D01*
X49871Y215878D01*
X49857Y215931D01*
Y215934D01*
X49854Y215945D01*
X49851Y215960D01*
X49845Y215980D01*
X49839Y216004D01*
X49830Y216033D01*
X49822Y216065D01*
X49813Y216097D01*
X49790Y216166D01*
X49766Y216239D01*
X49740Y216309D01*
X49726Y216338D01*
X49711Y216367D01*
Y216370D01*
X49708Y216373D01*
X49696Y216391D01*
X49679Y216417D01*
X49656Y216449D01*
X49627Y216484D01*
X49592Y216522D01*
X49551Y216559D01*
X49505Y216591D01*
X49499Y216594D01*
X49481Y216603D01*
X49455Y216618D01*
X49417Y216632D01*
X49371Y216647D01*
X49315Y216661D01*
X49254Y216670D01*
X49184Y216673D01*
D02*
G37*
%LPD*%
G36*
X50116Y226267D02*
X50139Y226261D01*
X50168Y226253D01*
X50197Y226241D01*
X50226Y226226D01*
X50252Y226203D01*
X50255Y226200D01*
X50264Y226191D01*
X50273Y226177D01*
X50287Y226157D01*
X50299Y226130D01*
X50308Y226101D01*
X50316Y226066D01*
X50319Y226028D01*
Y226011D01*
X50316Y225991D01*
X50310Y225964D01*
X50302Y225935D01*
X50290Y225906D01*
X50276Y225877D01*
X50252Y225851D01*
X50249Y225848D01*
X50241Y225842D01*
X50226Y225831D01*
X50206Y225819D01*
X50180Y225807D01*
X50151Y225796D01*
X50116Y225790D01*
X50075Y225787D01*
X50069D01*
X50054D01*
X50034Y225790D01*
X50008Y225796D01*
X49979Y225801D01*
X49950Y225813D01*
X49921Y225831D01*
X49894Y225851D01*
X49891Y225854D01*
X49886Y225863D01*
X49874Y225877D01*
X49862Y225898D01*
X49851Y225924D01*
X49839Y225953D01*
X49833Y225988D01*
X49830Y226026D01*
Y226043D01*
X49833Y226063D01*
X49839Y226090D01*
X49845Y226119D01*
X49857Y226148D01*
X49874Y226177D01*
X49894Y226203D01*
X49897Y226206D01*
X49906Y226215D01*
X49921Y226223D01*
X49944Y226238D01*
X49970Y226250D01*
X49999Y226258D01*
X50037Y226267D01*
X50078Y226270D01*
X50084D01*
X50095D01*
X50116Y226267D01*
D02*
G37*
G36*
X49257Y226314D02*
X49289Y226308D01*
X49327Y226296D01*
X49365Y226282D01*
X49403Y226261D01*
X49437Y226235D01*
X49440Y226232D01*
X49452Y226221D01*
X49467Y226203D01*
X49481Y226180D01*
X49499Y226151D01*
X49510Y226116D01*
X49522Y226075D01*
X49525Y226031D01*
Y226008D01*
X49519Y225982D01*
X49513Y225953D01*
X49501Y225918D01*
X49484Y225883D01*
X49458Y225848D01*
X49426Y225819D01*
X49420Y225816D01*
X49408Y225807D01*
X49388Y225799D01*
X49362Y225787D01*
X49330Y225772D01*
X49295Y225764D01*
X49254Y225755D01*
X49213Y225752D01*
X49211D01*
X49208D01*
X49199D01*
X49187D01*
X49158Y225758D01*
X49120Y225764D01*
X49080Y225772D01*
X49039Y225787D01*
X48998Y225807D01*
X48960Y225834D01*
X48957Y225836D01*
X48946Y225848D01*
X48934Y225866D01*
X48917Y225889D01*
X48902Y225918D01*
X48888Y225953D01*
X48876Y225994D01*
X48873Y226037D01*
Y226058D01*
X48879Y226078D01*
X48885Y226107D01*
X48893Y226139D01*
X48908Y226171D01*
X48928Y226203D01*
X48957Y226235D01*
X48960Y226238D01*
X48975Y226247D01*
X48992Y226261D01*
X49021Y226276D01*
X49056Y226290D01*
X49100Y226305D01*
X49149Y226314D01*
X49208Y226317D01*
X49211D01*
X49213D01*
X49231D01*
X49257Y226314D01*
D02*
G37*
G36*
X50613Y219289D02*
X49257Y220121D01*
X50613D01*
Y219289D01*
D02*
G37*
%LPC*%
G36*
X58442Y224741D02*
Y222931D01*
X60456D01*
Y223877D01*
Y223839D01*
X60453Y223865D01*
Y223897D01*
X60450Y223929D01*
Y223967D01*
X60441Y224043D01*
X60432Y224121D01*
X60418Y224194D01*
X60409Y224226D01*
X60400Y224255D01*
Y224258D01*
X60397Y224261D01*
X60389Y224278D01*
X60374Y224304D01*
X60357Y224339D01*
X60328Y224377D01*
X60296Y224415D01*
X60255Y224453D01*
X60205Y224488D01*
X60202D01*
X60200Y224491D01*
X60191Y224496D01*
X60182Y224502D01*
X60153Y224517D01*
X60115Y224534D01*
X60069Y224549D01*
X60016Y224563D01*
X59955Y224575D01*
X59891Y224578D01*
X59888D01*
X59882D01*
X59868D01*
X59853Y224575D01*
X59833D01*
X59813Y224572D01*
X59760Y224560D01*
X59699Y224546D01*
X59638Y224523D01*
X59574Y224488D01*
X59545Y224467D01*
X59516Y224444D01*
X59513Y224441D01*
X59510Y224438D01*
X59501Y224429D01*
X59492Y224418D01*
X59481Y224406D01*
X59466Y224389D01*
X59452Y224368D01*
X59437Y224345D01*
X59420Y224319D01*
X59405Y224287D01*
X59391Y224255D01*
X59376Y224220D01*
X59361Y224179D01*
X59350Y224138D01*
X59338Y224095D01*
X59329Y224045D01*
Y224048D01*
X59327Y224051D01*
X59315Y224069D01*
X59300Y224092D01*
X59280Y224121D01*
X59254Y224156D01*
X59228Y224191D01*
X59196Y224229D01*
X59161Y224261D01*
X59158Y224264D01*
X59143Y224278D01*
X59120Y224296D01*
X59085Y224322D01*
X59041Y224357D01*
X59012Y224374D01*
X58983Y224395D01*
X58951Y224418D01*
X58916Y224441D01*
X58876Y224467D01*
X58835Y224494D01*
X58442Y224741D01*
D02*
G37*
G36*
X60456Y222666D02*
X60115D01*
Y222072D01*
X58442D01*
Y222666D01*
D01*
Y221068D01*
Y221665D01*
X60115D01*
Y221068D01*
X58442D01*
X60456D01*
Y222666D01*
D02*
G37*
G36*
X60493Y220891D02*
X59425D01*
X59399Y220888D01*
X59364D01*
X59324Y220882D01*
X59277Y220876D01*
X59222Y220868D01*
X59167Y220859D01*
X59105Y220844D01*
X59041Y220827D01*
X58977Y220804D01*
X58913Y220777D01*
X58852Y220748D01*
X58791Y220710D01*
X58733Y220670D01*
X58678Y220623D01*
X58675Y220620D01*
X58666Y220612D01*
X58652Y220597D01*
X58634Y220574D01*
X58614Y220548D01*
X58590Y220515D01*
X58567Y220478D01*
X58541Y220437D01*
X58515Y220388D01*
X58491Y220335D01*
X58468Y220277D01*
X58448Y220213D01*
X58430Y220146D01*
X58416Y220073D01*
X58407Y219998D01*
X58404Y219916D01*
Y219896D01*
X58407Y219872D01*
X58410Y219843D01*
X58413Y219806D01*
X58419Y219762D01*
X58427Y219712D01*
X58439Y219660D01*
X58454Y219602D01*
X58471Y219547D01*
X58494Y219485D01*
X58521Y219427D01*
X58550Y219366D01*
X58587Y219311D01*
X58628Y219255D01*
X58678Y219203D01*
X58681Y219200D01*
X58689Y219192D01*
X58707Y219180D01*
X58727Y219162D01*
X58756Y219142D01*
X58791Y219119D01*
X58829Y219095D01*
X58876Y219072D01*
X58925Y219046D01*
X58983Y219023D01*
X59044Y218999D01*
X59111Y218979D01*
X59184Y218962D01*
X59263Y218950D01*
X59347Y218941D01*
X59434Y218938D01*
X60493D01*
X59463D01*
X59487Y218941D01*
X59513D01*
X59542Y218944D01*
X59577Y218947D01*
X59615Y218950D01*
X59696Y218962D01*
X59784Y218976D01*
X59871Y218999D01*
X59952Y219028D01*
X59955D01*
X59958Y219031D01*
X59967Y219037D01*
X59978Y219040D01*
X60008Y219058D01*
X60045Y219078D01*
X60089Y219104D01*
X60133Y219136D01*
X60182Y219174D01*
X60229Y219215D01*
X60232Y219218D01*
X60234Y219221D01*
X60249Y219235D01*
X60272Y219261D01*
X60299Y219293D01*
X60328Y219331D01*
X60360Y219375D01*
X60389Y219424D01*
X60412Y219477D01*
Y219480D01*
X60415Y219485D01*
X60421Y219497D01*
X60424Y219512D01*
X60432Y219529D01*
X60438Y219549D01*
X60444Y219576D01*
X60453Y219602D01*
X60467Y219666D01*
X60482Y219739D01*
X60491Y219823D01*
X60493Y219910D01*
Y219931D01*
X60491Y219954D01*
Y219983D01*
X60485Y220021D01*
X60479Y220064D01*
X60470Y220114D01*
X60459Y220166D01*
X60444Y220222D01*
X60427Y220280D01*
X60403Y220338D01*
X60377Y220399D01*
X60345Y220457D01*
X60307Y220515D01*
X60264Y220571D01*
X60214Y220623D01*
X60211Y220626D01*
X60202Y220635D01*
X60185Y220649D01*
X60165Y220664D01*
X60136Y220684D01*
X60101Y220708D01*
X60060Y220731D01*
X60013Y220757D01*
X59964Y220783D01*
X59906Y220807D01*
X59842Y220830D01*
X59775Y220850D01*
X59699Y220868D01*
X59620Y220879D01*
X59536Y220888D01*
X59446Y220891D01*
X60493D01*
D02*
G37*
G36*
X60456Y218592D02*
X58442D01*
Y218185D01*
X59769Y217367D01*
X58442D01*
Y216991D01*
X60456D01*
Y217384D01*
X59100Y218217D01*
X60456D01*
Y218592D01*
D02*
G37*
%LPD*%
G36*
X59897Y224156D02*
X59920Y224153D01*
X59946Y224144D01*
X59973Y224136D01*
X60002Y224121D01*
X60025Y224104D01*
X60028Y224101D01*
X60037Y224095D01*
X60045Y224080D01*
X60060Y224063D01*
X60075Y224043D01*
X60086Y224016D01*
X60098Y223984D01*
X60106Y223949D01*
Y223946D01*
X60109Y223938D01*
Y223920D01*
X60112Y223894D01*
Y223830D01*
X60115Y223804D01*
Y223338D01*
X59603D01*
Y223734D01*
X59606Y223792D01*
X59609Y223853D01*
X59612Y223914D01*
X59615Y223941D01*
X59618Y223964D01*
X59623Y223987D01*
X59626Y224002D01*
Y224005D01*
X59632Y224013D01*
X59638Y224028D01*
X59647Y224043D01*
X59673Y224080D01*
X59690Y224098D01*
X59711Y224115D01*
X59714Y224118D01*
X59722Y224121D01*
X59734Y224130D01*
X59751Y224138D01*
X59775Y224144D01*
X59801Y224153D01*
X59830Y224156D01*
X59862Y224159D01*
X59868D01*
X59879D01*
X59897Y224156D01*
D02*
G37*
G36*
X58878Y223961D02*
X58881Y223958D01*
X58890Y223955D01*
X58902Y223946D01*
X58916Y223935D01*
X58934Y223923D01*
X58957Y223909D01*
X59004Y223877D01*
X59056Y223839D01*
X59102Y223804D01*
X59146Y223772D01*
X59161Y223757D01*
X59175Y223746D01*
X59178Y223743D01*
X59184Y223737D01*
X59196Y223725D01*
X59210Y223711D01*
X59222Y223690D01*
X59236Y223670D01*
X59248Y223647D01*
X59260Y223623D01*
Y223621D01*
X59263Y223612D01*
X59268Y223597D01*
X59271Y223574D01*
X59277Y223545D01*
X59280Y223510D01*
X59283Y223469D01*
Y223338D01*
X58442D01*
Y224252D01*
X58878Y223961D01*
D02*
G37*
G36*
X59513Y220469D02*
X59542Y220466D01*
X59574Y220463D01*
X59612Y220460D01*
X59650Y220451D01*
X59734Y220434D01*
X59821Y220408D01*
X59865Y220390D01*
X59903Y220370D01*
X59941Y220344D01*
X59975Y220318D01*
X59978Y220315D01*
X59984Y220312D01*
X59990Y220303D01*
X60002Y220291D01*
X60016Y220274D01*
X60031Y220256D01*
X60045Y220236D01*
X60063Y220210D01*
X60077Y220184D01*
X60092Y220152D01*
X60121Y220085D01*
X60133Y220047D01*
X60138Y220006D01*
X60144Y219963D01*
X60147Y219916D01*
Y219893D01*
X60144Y219875D01*
X60141Y219852D01*
X60138Y219829D01*
X60127Y219771D01*
X60104Y219707D01*
X60092Y219672D01*
X60075Y219637D01*
X60054Y219605D01*
X60031Y219570D01*
X60005Y219538D01*
X59973Y219509D01*
X59970Y219506D01*
X59964Y219503D01*
X59955Y219494D01*
X59941Y219485D01*
X59920Y219474D01*
X59900Y219462D01*
X59874Y219448D01*
X59842Y219433D01*
X59807Y219419D01*
X59769Y219404D01*
X59725Y219392D01*
X59679Y219381D01*
X59626Y219372D01*
X59571Y219363D01*
X59513Y219360D01*
X59449Y219357D01*
X59446D01*
X59434D01*
X59417D01*
X59394Y219360D01*
X59364Y219363D01*
X59329Y219366D01*
X59295Y219372D01*
X59254Y219378D01*
X59170Y219395D01*
X59085Y219424D01*
X59041Y219442D01*
X59001Y219462D01*
X58963Y219488D01*
X58928Y219514D01*
X58925Y219517D01*
X58919Y219523D01*
X58911Y219532D01*
X58902Y219544D01*
X58887Y219558D01*
X58873Y219579D01*
X58855Y219599D01*
X58841Y219625D01*
X58806Y219680D01*
X58780Y219750D01*
X58768Y219788D01*
X58759Y219829D01*
X58753Y219872D01*
X58750Y219916D01*
Y219939D01*
X58753Y219957D01*
X58756Y219977D01*
X58759Y220001D01*
X58774Y220056D01*
X58794Y220120D01*
X58809Y220152D01*
X58823Y220187D01*
X58843Y220219D01*
X58867Y220254D01*
X58893Y220286D01*
X58925Y220315D01*
X58928Y220318D01*
X58934Y220321D01*
X58943Y220329D01*
X58957Y220338D01*
X58977Y220353D01*
X59001Y220364D01*
X59027Y220379D01*
X59059Y220393D01*
X59094Y220408D01*
X59132Y220422D01*
X59175Y220437D01*
X59225Y220449D01*
X59274Y220457D01*
X59329Y220466D01*
X59391Y220469D01*
X59455Y220472D01*
X59458D01*
X59469D01*
X59487D01*
X59513Y220469D01*
D02*
G37*
D11*
X-24382Y104331D02*
X54528D01*
X-24213Y104500D02*
Y163047D01*
X-41535Y7874D02*
X-41535Y163047D01*
X-41149Y7874D02*
X71457Y7874D01*
X-41535Y5563D02*
X71457Y5563D01*
X71457Y163047D02*
X71457Y7874D01*
X-41535Y163047D02*
X71457Y163047D01*
X54528Y104500D02*
Y163047D01*
D12*
X-41535Y126039D02*
X-24213Y143362D01*
X-41535Y145724D02*
X-24213Y163047D01*
X-41535Y102417D02*
X-24213Y119740D01*
X-41535Y98480D02*
X-24213Y115803D01*
X-41535Y122102D02*
X-24213Y139425D01*
X-41535Y141787D02*
X-24213Y159110D01*
X-41535Y137850D02*
X-24213Y155173D01*
X-41535Y114228D02*
X-24213Y131551D01*
X-41535Y118165D02*
X-24213Y135488D01*
X-41535Y11866D02*
X50799Y104201D01*
X-41533Y27630D02*
X35121Y104175D01*
X-37598Y7929D02*
X71457Y116984D01*
X-41563Y7902D02*
X54697Y104161D01*
X-33661Y7929D02*
X71457Y113047D01*
X-41535Y43362D02*
X19602Y104500D01*
X-21850Y7929D02*
X71457Y101236D01*
X-29724Y7929D02*
X71457Y109110D01*
X-41535Y23677D02*
X38949Y104161D01*
X-41527Y35498D02*
X27252Y104181D01*
X-25787Y7929D02*
X71457Y105173D01*
X-41535Y19740D02*
X43055Y104331D01*
X-41468Y15870D02*
X46831Y104169D01*
X-41535Y47299D02*
X15496Y104331D01*
X-41535Y63047D02*
X-83Y104500D01*
X-41535Y59110D02*
X3685Y104331D01*
X-41535Y55173D02*
X7472Y104181D01*
X-41535Y70921D02*
X-8281Y104175D01*
X-41535Y66984D02*
X-4344Y104175D01*
X-41535Y51236D02*
X11404Y104175D01*
X-17913Y7929D02*
X71457Y97299D01*
X-13976Y7929D02*
X71457Y93362D01*
X-10039Y7929D02*
X71457Y89425D01*
X-6102Y7929D02*
X71457Y85488D01*
X1772Y7929D02*
X71457Y77614D01*
X-2165Y7929D02*
X71457Y81551D01*
X-41535Y133913D02*
X-24213Y151236D01*
X-41535Y110291D02*
X-24213Y127614D01*
X-41535Y153598D02*
X-32087Y163047D01*
X-41535Y129976D02*
X-24213Y147299D01*
X-41535Y106354D02*
X-24213Y123677D01*
X-41535Y157535D02*
X-36024Y163047D01*
X-41535Y39425D02*
X23201Y104161D01*
X-41530Y31564D02*
X31356Y104347D01*
X-41535Y86669D02*
X-23874Y104331D01*
X-41535Y82732D02*
X-20087Y104181D01*
X-41535Y78795D02*
X-16000Y104331D01*
X-41535Y74858D02*
X-12218Y104175D01*
X-41535Y94543D02*
X-24213Y111866D01*
X-41535Y149661D02*
X-28150Y163047D01*
X-41535Y90606D02*
X-24213Y107929D01*
X56823Y7862D02*
X71457Y22496D01*
X60760Y7862D02*
X71457Y18559D01*
X9646Y7929D02*
X71457Y69740D01*
X13583Y7929D02*
X71457Y65803D01*
X37205Y7929D02*
X71457Y42181D01*
X64697Y7862D02*
X71457Y14622D01*
X68634Y7862D02*
X71457Y10685D01*
X17520Y7929D02*
X71457Y61866D01*
X45079Y7929D02*
X71457Y34307D01*
X25394Y7929D02*
X71457Y53992D01*
X41142Y7929D02*
X71457Y38244D01*
X49016Y7929D02*
X71457Y30370D01*
X5709Y7929D02*
X71457Y73677D01*
X33268Y7929D02*
X71457Y46118D01*
X29331Y7929D02*
X71457Y50055D01*
X54528Y147272D02*
X70303Y163047D01*
X54528Y115776D02*
X71457Y132705D01*
X54528Y119713D02*
X71457Y136642D01*
X54528Y123650D02*
X71457Y140579D01*
X52953Y7929D02*
X71524Y26500D01*
X21457Y7929D02*
X71457Y57929D01*
X54528Y127587D02*
X71457Y144516D01*
X54528Y131524D02*
X71457Y148453D01*
X55063Y104500D02*
X71457Y120894D01*
X54528Y111839D02*
X71457Y128768D01*
X54528Y107902D02*
X71457Y124831D01*
X54528Y135461D02*
X71457Y152390D01*
X54528Y139398D02*
X71457Y156327D01*
X54528Y143335D02*
X71457Y160264D01*
X54528Y151209D02*
X66366Y163047D01*
X54528Y159083D02*
X58492Y163047D01*
X54528Y155146D02*
X62429Y163047D01*
M02*
