G04*
G04 #@! TF.GenerationSoftware,Altium Limited,Altium Designer,22.1.2 (22)*
G04*
G04 Layer_Color=8388736*
%FSLAX25Y25*%
%MOIN*%
G70*
G04*
G04 #@! TF.SameCoordinates,0E3957D1-4792-4D0B-97BD-F84BD75C4E9A*
G04*
G04*
G04 #@! TF.FilePolarity,Negative*
G04*
G01*
G75*
%ADD18R,1.03150X0.11516*%
%ADD19R,0.02441X0.02047*%
%ADD20R,0.02835X0.04016*%
%ADD21R,0.05591X0.02835*%
%ADD22R,0.02126X0.01929*%
%ADD23R,0.02441X0.09134*%
%ADD24C,0.05915*%
%ADD25R,0.05915X0.05915*%
%ADD26R,0.20945X0.20945*%
D18*
X15157Y-8022D02*
D03*
D19*
X-19291Y132087D02*
D03*
Y135630D02*
D03*
X49606Y132087D02*
D03*
Y135630D02*
D03*
X39764Y132087D02*
D03*
Y135630D02*
D03*
X29921Y132087D02*
D03*
Y135630D02*
D03*
X20079Y132087D02*
D03*
Y135630D02*
D03*
X10236Y132087D02*
D03*
Y135630D02*
D03*
X394Y132087D02*
D03*
Y135630D02*
D03*
X-9449Y132087D02*
D03*
Y135630D02*
D03*
D20*
X22264Y64961D02*
D03*
Y92520D02*
D03*
X57264Y64961D02*
D03*
Y92520D02*
D03*
X52264Y64961D02*
D03*
X27264D02*
D03*
Y92520D02*
D03*
X52264D02*
D03*
X47264D02*
D03*
X42264D02*
D03*
X37264D02*
D03*
X32264D02*
D03*
Y64961D02*
D03*
X37264D02*
D03*
X42264D02*
D03*
X47264D02*
D03*
X-26949D02*
D03*
Y92520D02*
D03*
X8051Y64961D02*
D03*
Y92520D02*
D03*
X3051Y64961D02*
D03*
X-21949D02*
D03*
Y92520D02*
D03*
X3051D02*
D03*
X-1949D02*
D03*
X-6949D02*
D03*
X-11949D02*
D03*
X-16949D02*
D03*
Y64961D02*
D03*
X-11949D02*
D03*
X-6949D02*
D03*
X-1949D02*
D03*
D21*
X49607Y153287D02*
D03*
Y145925D02*
D03*
X39764Y153287D02*
D03*
Y145925D02*
D03*
X29922Y153287D02*
D03*
Y145925D02*
D03*
X20079Y153287D02*
D03*
Y145925D02*
D03*
X10237Y153287D02*
D03*
Y145925D02*
D03*
X394Y153287D02*
D03*
Y145925D02*
D03*
X-9448Y153287D02*
D03*
Y145925D02*
D03*
X-19291Y153287D02*
D03*
Y145925D02*
D03*
D22*
X52264Y57362D02*
D03*
Y60748D02*
D03*
X42264Y57362D02*
D03*
Y60748D02*
D03*
X32264Y57362D02*
D03*
Y60748D02*
D03*
X22264Y57362D02*
D03*
Y60748D02*
D03*
X3051Y57362D02*
D03*
Y60748D02*
D03*
X-6949Y57362D02*
D03*
Y60748D02*
D03*
X-16949Y57362D02*
D03*
Y60748D02*
D03*
X-26949Y57362D02*
D03*
Y60748D02*
D03*
X57264D02*
D03*
Y57362D02*
D03*
X47264Y60748D02*
D03*
Y57362D02*
D03*
X37264Y60748D02*
D03*
Y57362D02*
D03*
X27264Y60748D02*
D03*
Y57362D02*
D03*
X8051Y60748D02*
D03*
Y57362D02*
D03*
X-1949Y60748D02*
D03*
Y57362D02*
D03*
X-11949Y60748D02*
D03*
Y57362D02*
D03*
X-21949Y60748D02*
D03*
Y57362D02*
D03*
D23*
X60039Y-7283D02*
D03*
X56890D02*
D03*
X53740D02*
D03*
X50591D02*
D03*
X47441D02*
D03*
X44291D02*
D03*
X41142D02*
D03*
X37992D02*
D03*
X34843D02*
D03*
X31693D02*
D03*
X28543D02*
D03*
X25394D02*
D03*
X22244D02*
D03*
X19094D02*
D03*
X15945D02*
D03*
X12795D02*
D03*
X9646D02*
D03*
X6496D02*
D03*
X-9252D02*
D03*
X-12402D02*
D03*
X-15551D02*
D03*
X-18701D02*
D03*
X-21850D02*
D03*
X-25000D02*
D03*
X-28150D02*
D03*
X-31299D02*
D03*
D24*
X394Y200787D02*
D03*
X10236D02*
D03*
X-29134D02*
D03*
X-9449D02*
D03*
X-19291D02*
D03*
X49606D02*
D03*
X39764D02*
D03*
X29921D02*
D03*
X20079D02*
D03*
D25*
X59449D02*
D03*
D26*
X-32480Y176378D02*
D03*
X62795D02*
D03*
M02*
