G04*
G04 #@! TF.GenerationSoftware,Altium Limited,Altium Designer,24.7.2 (38)*
G04*
G04 Layer_Color=32768*
%FSLAX25Y25*%
%MOIN*%
G70*
G04*
G04 #@! TF.SameCoordinates,43B99760-4079-4BD6-A725-026A76E2A537*
G04*
G04*
G04 #@! TF.FilePolarity,Positive*
G04*
G01*
G75*
%ADD44C,0.00039*%
%ADD45C,0.00079*%
D44*
X67555Y148425D02*
Y158661D01*
X49445Y148425D02*
Y158661D01*
Y148425D02*
X67555D01*
X49445Y158661D02*
X67555D01*
X38386Y148425D02*
Y158661D01*
X20276Y148425D02*
Y158661D01*
Y148425D02*
X38386D01*
X20276Y158661D02*
X38386D01*
X9218Y148425D02*
Y158661D01*
X-8892Y148425D02*
Y158661D01*
Y148425D02*
X9218D01*
X-8892Y158661D02*
X9218D01*
X-38061D02*
X-19951D01*
X-38061Y148425D02*
X-19951D01*
X-38061D02*
Y158661D01*
X-19951Y148425D02*
Y158661D01*
X60350Y111811D02*
X66650D01*
Y100787D02*
Y111811D01*
X60350Y100787D02*
Y111811D01*
Y100787D02*
X66650D01*
X60350Y100000D02*
X66650D01*
Y88976D02*
Y100000D01*
X60350Y88976D02*
Y100000D01*
Y88976D02*
X66650D01*
X50350Y111811D02*
X56650D01*
Y100787D02*
Y111811D01*
X50350Y100787D02*
Y111811D01*
Y100787D02*
X56650D01*
X50350Y100000D02*
X56650D01*
Y88976D02*
Y100000D01*
X50350Y88976D02*
Y100000D01*
Y88976D02*
X56650D01*
X50626Y86221D02*
X66374Y86221D01*
X66374Y79134D02*
X66374Y86221D01*
X50626Y79134D02*
X50626Y86221D01*
X50626Y79134D02*
X66374Y79134D01*
X31182Y100787D02*
X37481D01*
X31182D02*
Y111811D01*
X37481Y100787D02*
Y111811D01*
X31182D02*
X37481D01*
X31182Y88976D02*
X37481D01*
X31182D02*
Y100000D01*
X37481Y88976D02*
Y100000D01*
X31182D02*
X37481D01*
X21182Y88976D02*
X27481D01*
X21182D02*
Y100000D01*
X27481Y88976D02*
Y100000D01*
X21182D02*
X27481D01*
X21182Y111811D02*
X27481D01*
Y100787D02*
Y111811D01*
X21182Y100787D02*
Y111811D01*
Y100787D02*
X27481D01*
X48658Y113779D02*
X68343D01*
X48658Y146063D02*
X68343D01*
Y113779D02*
Y146063D01*
X48658Y113779D02*
Y146063D01*
X19489Y113779D02*
X39174D01*
X19489Y146063D02*
X39174D01*
Y113779D02*
Y146063D01*
X19489Y113779D02*
Y146063D01*
X-9680Y113779D02*
X10005D01*
X-9680Y146063D02*
X10005D01*
Y113779D02*
Y146063D01*
X-9680Y113779D02*
Y146063D01*
X2013Y100787D02*
X8312D01*
X2013D02*
Y111811D01*
X8312Y100787D02*
Y111811D01*
X2013D02*
X8312D01*
X2013Y88976D02*
X8312D01*
X2013D02*
Y100000D01*
X8312Y88976D02*
Y100000D01*
X2013D02*
X8312D01*
X-7987Y88976D02*
X-1688D01*
X-7987D02*
Y100000D01*
X-1688Y88976D02*
Y100000D01*
X-7987D02*
X-1688D01*
X-7987Y100787D02*
X-1688D01*
X-7987D02*
Y111811D01*
X-1688Y100787D02*
Y111811D01*
X-7987D02*
X-1688D01*
X-27156Y100787D02*
X-20856D01*
X-27156D02*
Y111811D01*
X-20856Y100787D02*
Y111811D01*
X-27156D02*
X-20856D01*
X-37156Y100787D02*
X-30856D01*
X-37156D02*
Y111811D01*
X-30856Y100787D02*
Y111811D01*
X-37156D02*
X-30856D01*
X-27156Y88976D02*
X-20856D01*
X-27156D02*
Y100000D01*
X-20856Y88976D02*
Y100000D01*
X-27156D02*
X-20856D01*
X21457Y86221D02*
X37205Y86221D01*
X37205Y79134D02*
X37205Y86221D01*
X21457Y79134D02*
X21457Y86221D01*
X21457Y79134D02*
X37205Y79134D01*
X-7711Y86221D02*
X8037Y86221D01*
X8037Y79134D02*
X8037Y86221D01*
X-7711Y79134D02*
X-7711Y86221D01*
X-7711Y79134D02*
X8037Y79134D01*
X-36880Y79134D02*
X-21132Y79134D01*
X-36880Y79134D02*
X-36880Y86221D01*
X-21132Y79134D02*
X-21132Y86221D01*
X-36880Y86221D02*
X-21132Y86221D01*
X48658Y77953D02*
X68343D01*
X48658Y48031D02*
X68343D01*
X48658D02*
Y77953D01*
X68343Y48031D02*
Y77953D01*
X19489D02*
X39174D01*
X19489Y48031D02*
X39174D01*
X19489D02*
Y77953D01*
X39174Y48031D02*
Y77953D01*
X-9680D02*
X10005D01*
X-9680Y48031D02*
X10005D01*
X-9680D02*
Y77953D01*
X10005Y48031D02*
Y77953D01*
X52024Y46260D02*
X54976D01*
Y40354D02*
Y46260D01*
X52024Y40354D02*
Y46260D01*
Y40354D02*
X54976D01*
X22855Y46260D02*
X25808D01*
Y40354D02*
Y46260D01*
X22855Y40354D02*
Y46260D01*
Y40354D02*
X25808D01*
X-6314D02*
X-3361D01*
X-6314D02*
Y46260D01*
X-3361Y40354D02*
Y46260D01*
X-6314D02*
X-3361D01*
X-35482Y40354D02*
X-32530D01*
X-35482D02*
Y46260D01*
X-32530Y40354D02*
Y46260D01*
X-35482D02*
X-32530D01*
X-37156Y88976D02*
X-30856D01*
X-37156D02*
Y100000D01*
X-30856Y88976D02*
Y100000D01*
X-37156D02*
X-30856D01*
X-38848Y113779D02*
Y146063D01*
X-19163Y113779D02*
Y146063D01*
X-38848D02*
X-19163D01*
X-38848Y113779D02*
X-19163D01*
X-38848Y77953D02*
X-19163D01*
X-38848Y48031D02*
X-19163D01*
X-38848D02*
Y77953D01*
X-19163Y48031D02*
Y77953D01*
D45*
X-1314Y40354D02*
Y46260D01*
X1639Y40354D02*
Y46260D01*
X-1314D02*
X1639D01*
X-1314Y40354D02*
X1639D01*
X-30482D02*
Y46260D01*
X-27529Y40354D02*
Y46260D01*
X-30482D02*
X-27529D01*
X-30482Y40354D02*
X-27529D01*
X27855D02*
X30808D01*
X27855Y46260D02*
X30808D01*
Y40354D02*
Y46260D01*
X27855Y40354D02*
Y46260D01*
X57024Y40354D02*
X59976D01*
X57024Y46260D02*
X59976D01*
Y40354D02*
Y46260D01*
X57024Y40354D02*
Y46260D01*
M02*
