G04*
G04 #@! TF.GenerationSoftware,Altium Limited,Altium Designer,24.7.2 (38)*
G04*
G04 Layer_Color=8388736*
%FSLAX25Y25*%
%MOIN*%
G70*
G04*
G04 #@! TF.SameCoordinates,4FEF5C06-4E4D-4149-9763-4A6A228635AC*
G04*
G04*
G04 #@! TF.FilePolarity,Positive*
G04*
G01*
G75*
%ADD11C,0.00394*%
D11*
X31496Y170256D02*
G03*
X27559Y170256I-1969J0D01*
G01*
X1969Y169776D02*
G03*
X-1969Y169776I-1969J0D01*
G01*
X-27559Y170276D02*
G03*
X-31496Y170276I-1969J0D01*
G01*
X27559Y52146D02*
G03*
X31496Y52146I1969J0D01*
G01*
X-1969Y51665D02*
G03*
X1969Y51665I1969J0D01*
G01*
X-31496Y52165D02*
G03*
X-27559Y52165I1969J0D01*
G01*
X-12205Y12795D02*
G03*
X-18110Y12795I-2953J0D01*
G01*
X-50591Y9449D02*
G03*
X-53740Y12598I-3150J0D01*
G01*
X53740D02*
G03*
X50591Y9449I0J-3150D01*
G01*
X-59055Y233268D02*
X59055D01*
X-31496Y52165D02*
Y170276D01*
X27559Y52146D02*
Y170256D01*
X31496Y52146D02*
Y170256D01*
X-1969Y51665D02*
Y169776D01*
X1969Y51665D02*
Y169776D01*
X-27559Y52165D02*
Y170276D01*
X-59055Y233268D02*
X-59055Y12598D01*
X-53740D01*
X53740D02*
X59055D01*
X-12205Y0D02*
X50591D01*
X-50591D02*
X-18110D01*
X-12205Y0D02*
Y12795D01*
X50591Y0D02*
Y9449D01*
X-18110Y0D02*
Y12795D01*
X59055Y233268D02*
X59055Y12598D01*
X-50591Y0D02*
Y9449D01*
M02*
