G04*
G04 #@! TF.GenerationSoftware,Altium Limited,Altium Designer,24.7.2 (38)*
G04*
G04 Layer_Physical_Order=3*
G04 Layer_Color=16440176*
%FSLAX25Y25*%
%MOIN*%
G70*
G04*
G04 #@! TF.SameCoordinates,43B99760-4079-4BD6-A725-026A76E2A537*
G04*
G04*
G04 #@! TF.FilePolarity,Positive*
G04*
G01*
G75*
%ADD36C,0.01181*%
%ADD38C,0.01968*%
%ADD40C,0.05315*%
%ADD43C,0.01968*%
G36*
X73209Y807D02*
X68898D01*
X68873Y802D01*
X68848Y805D01*
X68540Y790D01*
X68468Y772D01*
X68393D01*
X67788Y652D01*
X67696Y614D01*
X67599Y595D01*
X67029Y358D01*
X66947Y303D01*
X66855Y266D01*
X66342Y-77D01*
X66272Y-147D01*
X66190Y-202D01*
X65753Y-639D01*
X65698Y-721D01*
X65629Y-791D01*
X65286Y-1304D01*
X65248Y-1396D01*
X65193Y-1478D01*
X64957Y-2048D01*
X64937Y-2145D01*
X64899Y-2236D01*
X64779Y-2842D01*
Y-2916D01*
X64761Y-2988D01*
X64746Y-3297D01*
X64749Y-3322D01*
X64745Y-3347D01*
Y-11792D01*
X3956D01*
X3956Y0D01*
X3950Y33D01*
X3954Y66D01*
X3929Y451D01*
X3903Y546D01*
X3897Y645D01*
X3697Y1390D01*
X3639Y1508D01*
X3597Y1632D01*
X3212Y2299D01*
X3125Y2398D01*
X3052Y2507D01*
X2507Y3052D01*
X2398Y3125D01*
X2299Y3212D01*
X1632Y3597D01*
X1507Y3639D01*
X1390Y3697D01*
X645Y3897D01*
X514Y3905D01*
X385Y3931D01*
X-385D01*
X-514Y3905D01*
X-645Y3897D01*
X-1390Y3697D01*
X-1508Y3639D01*
X-1632Y3597D01*
X-2299Y3212D01*
X-2398Y3125D01*
X-2507Y3052D01*
X-3052Y2507D01*
X-3125Y2398D01*
X-3212Y2299D01*
X-3597Y1632D01*
X-3639Y1507D01*
X-3697Y1390D01*
X-3897Y645D01*
X-3903Y546D01*
X-3929Y451D01*
X-3954Y66D01*
X-3950Y33D01*
X-3956Y0D01*
Y-11792D01*
X-34430D01*
Y-3347D01*
X-34435Y-3322D01*
X-34431Y-3297D01*
X-34446Y-2988D01*
X-34464Y-2916D01*
Y-2842D01*
X-34585Y-2236D01*
X-34622Y-2145D01*
X-34642Y-2048D01*
X-34878Y-1478D01*
X-34933Y-1396D01*
X-34971Y-1304D01*
X-35314Y-791D01*
X-35383Y-721D01*
X-35438Y-639D01*
X-35875Y-202D01*
X-35957Y-147D01*
X-36027Y-77D01*
X-36540Y266D01*
X-36632Y303D01*
X-36714Y358D01*
X-37284Y595D01*
X-37381Y614D01*
X-37473Y652D01*
X-38078Y772D01*
X-38153D01*
X-38225Y790D01*
X-38533Y805D01*
X-38558Y802D01*
X-38583Y807D01*
X-42894D01*
Y56000D01*
X-16972D01*
Y39370D01*
Y38978D01*
X-16896Y38594D01*
X-16596Y37871D01*
X-16378Y37545D01*
X-15825Y36992D01*
X-15499Y36774D01*
X-14776Y36474D01*
X-14392Y36398D01*
X-13608D01*
X-13224Y36474D01*
X-12501Y36774D01*
X-12175Y36992D01*
X-11622Y37545D01*
X-11404Y37871D01*
X-11104Y38594D01*
X-11028Y38978D01*
Y39370D01*
Y56000D01*
X12162D01*
Y38870D01*
Y38478D01*
X12238Y38094D01*
X12538Y37371D01*
X12755Y37045D01*
X13309Y36492D01*
X13635Y36274D01*
X14358Y35974D01*
X14742Y35898D01*
X15525D01*
X15909Y35974D01*
X16633Y36274D01*
X16959Y36492D01*
X17512Y37045D01*
X17730Y37371D01*
X18030Y38094D01*
X18106Y38478D01*
Y38870D01*
Y56000D01*
X41296D01*
Y39350D01*
Y38959D01*
X41372Y38575D01*
X41672Y37851D01*
X41889Y37526D01*
X42443Y36972D01*
X42769Y36754D01*
X43492Y36455D01*
X43876Y36378D01*
X44659D01*
X45043Y36455D01*
X45767Y36754D01*
X46092Y36972D01*
X46646Y37526D01*
X46864Y37851D01*
X47163Y38575D01*
X47240Y38959D01*
Y39350D01*
Y56000D01*
X73209D01*
Y807D01*
D02*
G37*
%LPC*%
G36*
X56157Y45787D02*
X55843D01*
X55554Y45667D01*
X55332Y45446D01*
X55213Y45157D01*
Y44843D01*
X55332Y44554D01*
X55554Y44333D01*
X55843Y44213D01*
X56157D01*
X56446Y44333D01*
X56668Y44554D01*
X56787Y44843D01*
Y45157D01*
X56668Y45446D01*
X56446Y45667D01*
X56157Y45787D01*
D02*
G37*
G36*
X26988D02*
X26675D01*
X26385Y45667D01*
X26164Y45446D01*
X26044Y45157D01*
Y44843D01*
X26164Y44554D01*
X26385Y44333D01*
X26675Y44213D01*
X26988D01*
X27277Y44333D01*
X27499Y44554D01*
X27619Y44843D01*
Y45157D01*
X27499Y45446D01*
X27277Y45667D01*
X26988Y45787D01*
D02*
G37*
G36*
X-2181D02*
X-2494D01*
X-2783Y45667D01*
X-3005Y45446D01*
X-3125Y45157D01*
Y44843D01*
X-3005Y44554D01*
X-2783Y44333D01*
X-2494Y44213D01*
X-2181D01*
X-1891Y44333D01*
X-1670Y44554D01*
X-1550Y44843D01*
Y45157D01*
X-1670Y45446D01*
X-1891Y45667D01*
X-2181Y45787D01*
D02*
G37*
G36*
X-31349D02*
X-31662D01*
X-31952Y45667D01*
X-32173Y45446D01*
X-32293Y45157D01*
Y44843D01*
X-32173Y44554D01*
X-31952Y44333D01*
X-31662Y44213D01*
X-31349D01*
X-31060Y44333D01*
X-30838Y44554D01*
X-30718Y44843D01*
Y45157D01*
X-30838Y45446D01*
X-31060Y45667D01*
X-31349Y45787D01*
D02*
G37*
G36*
X53657Y39787D02*
X53343D01*
X53054Y39667D01*
X52832Y39446D01*
X52713Y39157D01*
Y38843D01*
X52832Y38554D01*
X53054Y38333D01*
X53343Y38213D01*
X53657D01*
X53946Y38333D01*
X54167Y38554D01*
X54287Y38843D01*
Y39157D01*
X54167Y39446D01*
X53946Y39667D01*
X53657Y39787D01*
D02*
G37*
G36*
X24488D02*
X24175D01*
X23885Y39667D01*
X23664Y39446D01*
X23544Y39157D01*
Y38843D01*
X23664Y38554D01*
X23885Y38333D01*
X24175Y38213D01*
X24488D01*
X24777Y38333D01*
X24999Y38554D01*
X25119Y38843D01*
Y39157D01*
X24999Y39446D01*
X24777Y39667D01*
X24488Y39787D01*
D02*
G37*
G36*
X-4681D02*
X-4994D01*
X-5283Y39667D01*
X-5505Y39446D01*
X-5625Y39157D01*
Y38843D01*
X-5505Y38554D01*
X-5283Y38333D01*
X-4994Y38213D01*
X-4681D01*
X-4391Y38333D01*
X-4170Y38554D01*
X-4050Y38843D01*
Y39157D01*
X-4170Y39446D01*
X-4391Y39667D01*
X-4681Y39787D01*
D02*
G37*
G36*
X-33849D02*
X-34163D01*
X-34452Y39667D01*
X-34673Y39446D01*
X-34793Y39157D01*
Y38843D01*
X-34673Y38554D01*
X-34452Y38333D01*
X-34163Y38213D01*
X-33849D01*
X-33560Y38333D01*
X-33338Y38554D01*
X-33219Y38843D01*
Y39157D01*
X-33338Y39446D01*
X-33560Y39667D01*
X-33849Y39787D01*
D02*
G37*
G36*
X61632Y46378D02*
X61084D01*
X60578Y46168D01*
X60190Y45781D01*
X59980Y45274D01*
Y44726D01*
X60190Y44219D01*
X60355Y44055D01*
Y37274D01*
X51584Y28504D01*
X13500D01*
X13116Y28427D01*
X12790Y28210D01*
X8205Y23624D01*
X7987Y23299D01*
X7911Y22915D01*
Y16693D01*
X7746Y16529D01*
X7537Y16022D01*
Y15474D01*
X7746Y14967D01*
X7911Y14803D01*
Y13586D01*
X7987Y13201D01*
X8205Y12876D01*
X9064Y12017D01*
X8913Y11653D01*
X-1234D01*
X-2568Y12987D01*
Y14803D01*
X-2403Y14967D01*
X-2193Y15474D01*
Y16022D01*
X-2403Y16529D01*
X-2568Y16693D01*
Y24513D01*
X3416Y30496D01*
X26000D01*
X26384Y30573D01*
X26710Y30790D01*
X32934Y37015D01*
X33152Y37340D01*
X33228Y37724D01*
Y44055D01*
X33393Y44219D01*
X33602Y44726D01*
Y45274D01*
X33393Y45781D01*
X33005Y46168D01*
X32498Y46378D01*
X31950D01*
X31444Y46168D01*
X31056Y45781D01*
X30847Y45274D01*
Y44726D01*
X31056Y44219D01*
X31221Y44055D01*
Y38140D01*
X25584Y32504D01*
X3000D01*
X2616Y32427D01*
X2290Y32210D01*
X-4281Y25638D01*
X-4499Y25313D01*
X-4575Y24929D01*
Y16693D01*
X-4740Y16529D01*
X-4949Y16022D01*
Y15474D01*
X-4740Y14967D01*
X-4575Y14803D01*
Y12571D01*
X-4499Y12187D01*
X-4281Y11862D01*
X-2861Y10442D01*
X-3012Y10078D01*
X-12659D01*
X-15054Y12473D01*
Y14803D01*
X-14889Y14967D01*
X-14679Y15474D01*
Y16022D01*
X-14889Y16529D01*
X-15054Y16693D01*
Y28527D01*
X-11084Y32497D01*
X-1500D01*
X-1116Y32573D01*
X-790Y32790D01*
X3800Y37381D01*
X4018Y37707D01*
X4094Y38091D01*
Y44055D01*
X4259Y44219D01*
X4468Y44726D01*
Y45274D01*
X4259Y45781D01*
X3871Y46168D01*
X3365Y46378D01*
X2816D01*
X2310Y46168D01*
X1922Y45781D01*
X1713Y45274D01*
Y44726D01*
X1922Y44219D01*
X2087Y44055D01*
Y38506D01*
X-1916Y34503D01*
X-11500D01*
X-11884Y34427D01*
X-12210Y34210D01*
X-16767Y29652D01*
X-16984Y29327D01*
X-17061Y28943D01*
Y16693D01*
X-17225Y16529D01*
X-17435Y16022D01*
Y15474D01*
X-17225Y14967D01*
X-17061Y14803D01*
Y12057D01*
X-16984Y11673D01*
X-16767Y11348D01*
X-14287Y8867D01*
X-14437Y8504D01*
X-23584D01*
X-27540Y12459D01*
Y14803D01*
X-27375Y14967D01*
X-27165Y15474D01*
Y16022D01*
X-27375Y16529D01*
X-27540Y16693D01*
Y37084D01*
X-25334Y39290D01*
X-25116Y39616D01*
X-25040Y40000D01*
Y44055D01*
X-24875Y44219D01*
X-24665Y44726D01*
Y45274D01*
X-24875Y45781D01*
X-25263Y46168D01*
X-25769Y46378D01*
X-26317D01*
X-26824Y46168D01*
X-27211Y45781D01*
X-27421Y45274D01*
Y44726D01*
X-27211Y44219D01*
X-27047Y44055D01*
Y40416D01*
X-29253Y38210D01*
X-29470Y37884D01*
X-29547Y37500D01*
Y16693D01*
X-29711Y16529D01*
X-29921Y16022D01*
Y15474D01*
X-29711Y14967D01*
X-29547Y14803D01*
Y12043D01*
X-29470Y11659D01*
X-29253Y11334D01*
X-24710Y6790D01*
X-24384Y6573D01*
X-24000Y6497D01*
X17903D01*
X19666Y4734D01*
Y945D01*
X19501Y781D01*
X19291Y274D01*
Y-274D01*
X19501Y-781D01*
X19889Y-1168D01*
X20395Y-1378D01*
X20943D01*
X21450Y-1168D01*
X21837Y-781D01*
X22047Y-274D01*
Y274D01*
X21837Y781D01*
X21673Y945D01*
Y4851D01*
X22066Y5014D01*
X22815Y4265D01*
Y945D01*
X22651Y781D01*
X22441Y274D01*
Y-274D01*
X22651Y-781D01*
X23038Y-1168D01*
X23545Y-1378D01*
X24093D01*
X24599Y-1168D01*
X24987Y-781D01*
X25197Y-274D01*
Y274D01*
X24987Y781D01*
X24822Y945D01*
Y4202D01*
X25216Y4365D01*
X25965Y3616D01*
Y945D01*
X25800Y781D01*
X25591Y274D01*
Y-274D01*
X25800Y-781D01*
X26188Y-1168D01*
X26694Y-1378D01*
X27243D01*
X27749Y-1168D01*
X28137Y-781D01*
X28346Y-274D01*
Y274D01*
X28137Y781D01*
X27972Y945D01*
Y3367D01*
X28336Y3518D01*
X29115Y2739D01*
Y945D01*
X28950Y781D01*
X28740Y274D01*
Y-274D01*
X28950Y-781D01*
X29338Y-1168D01*
X29844Y-1378D01*
X30392D01*
X30899Y-1168D01*
X31286Y-781D01*
X31496Y-274D01*
Y274D01*
X31286Y781D01*
X31122Y945D01*
Y2445D01*
X31485Y2595D01*
X32264Y1817D01*
Y945D01*
X32100Y781D01*
X31890Y274D01*
Y-274D01*
X32100Y-781D01*
X32487Y-1168D01*
X32994Y-1378D01*
X33542D01*
X34048Y-1168D01*
X34436Y-781D01*
X34646Y-274D01*
Y274D01*
X34436Y781D01*
X34271Y945D01*
Y2232D01*
X34195Y2616D01*
X33977Y2942D01*
X22479Y14440D01*
Y14878D01*
X22569Y14967D01*
X22778Y15474D01*
Y16022D01*
X22569Y16529D01*
X22181Y16916D01*
X21675Y17126D01*
X21126D01*
X20620Y16916D01*
X20232Y16529D01*
X20022Y16022D01*
Y15474D01*
X20232Y14967D01*
X20397Y14803D01*
Y14099D01*
X20473Y13715D01*
X20536Y13622D01*
X20326Y13228D01*
X10691D01*
X9918Y14001D01*
Y14803D01*
X10083Y14967D01*
X10293Y15474D01*
Y16022D01*
X10083Y16529D01*
X9918Y16693D01*
Y22499D01*
X13916Y26496D01*
X52000D01*
X52384Y26573D01*
X52710Y26790D01*
X62068Y36149D01*
X62285Y36474D01*
X62362Y36858D01*
Y44055D01*
X62526Y44219D01*
X62736Y44726D01*
Y45274D01*
X62526Y45781D01*
X62139Y46168D01*
X61632Y46378D01*
D02*
G37*
G36*
X-20119Y787D02*
X-20432D01*
X-20722Y667D01*
X-20943Y446D01*
X-21063Y157D01*
Y-157D01*
X-20943Y-446D01*
X-20722Y-667D01*
X-20432Y-787D01*
X-20119D01*
X-19830Y-667D01*
X-19608Y-446D01*
X-19488Y-157D01*
Y157D01*
X-19608Y446D01*
X-19830Y667D01*
X-20119Y787D01*
D02*
G37*
G36*
X59132Y17126D02*
X58584D01*
X58078Y16916D01*
X57690Y16529D01*
X57480Y16022D01*
Y15474D01*
X57690Y14967D01*
X57855Y14803D01*
Y12274D01*
X54512Y8931D01*
X45927D01*
X45543Y8854D01*
X45218Y8637D01*
X42007Y5426D01*
X41789Y5101D01*
X41713Y4716D01*
Y945D01*
X41548Y781D01*
X41339Y274D01*
Y-274D01*
X41548Y-781D01*
X41936Y-1168D01*
X42442Y-1378D01*
X42991D01*
X43497Y-1168D01*
X43885Y-781D01*
X44094Y-274D01*
Y274D01*
X43885Y781D01*
X43720Y945D01*
Y4301D01*
X46343Y6924D01*
X54927D01*
X55311Y7000D01*
X55637Y7218D01*
X59568Y11149D01*
X59785Y11474D01*
X59862Y11858D01*
Y14803D01*
X60026Y14967D01*
X60236Y15474D01*
Y16022D01*
X60026Y16529D01*
X59639Y16916D01*
X59132Y17126D01*
D02*
G37*
G36*
X46646D02*
X46098D01*
X45592Y16916D01*
X45204Y16529D01*
X44994Y16022D01*
Y15474D01*
X45204Y14967D01*
X45369Y14803D01*
Y13288D01*
X38857Y6776D01*
X38640Y6451D01*
X38563Y6067D01*
Y945D01*
X38399Y781D01*
X38189Y274D01*
Y-274D01*
X38399Y-781D01*
X38786Y-1168D01*
X39293Y-1378D01*
X39841D01*
X40347Y-1168D01*
X40735Y-781D01*
X40945Y-274D01*
Y274D01*
X40735Y781D01*
X40571Y945D01*
Y5651D01*
X47082Y12163D01*
X47300Y12488D01*
X47376Y12872D01*
Y14803D01*
X47541Y14967D01*
X47750Y15474D01*
Y16022D01*
X47541Y16529D01*
X47153Y16916D01*
X46646Y17126D01*
D02*
G37*
G36*
X34161D02*
X33612D01*
X33106Y16916D01*
X32718Y16529D01*
X32508Y16022D01*
Y15474D01*
X32718Y14967D01*
X32883Y14803D01*
Y13614D01*
X32959Y13230D01*
X33177Y12904D01*
X35414Y10667D01*
Y945D01*
X35249Y781D01*
X35039Y274D01*
Y-274D01*
X35249Y-781D01*
X35637Y-1168D01*
X36143Y-1378D01*
X36691D01*
X37198Y-1168D01*
X37585Y-781D01*
X37795Y-274D01*
Y274D01*
X37585Y781D01*
X37421Y945D01*
Y11083D01*
X37345Y11467D01*
X37127Y11792D01*
X34890Y14029D01*
Y14803D01*
X35055Y14967D01*
X35264Y15474D01*
Y16022D01*
X35055Y16529D01*
X34667Y16916D01*
X34161Y17126D01*
D02*
G37*
%LPD*%
D36*
X-26043Y40000D02*
Y45000D01*
X3000Y31500D02*
X26000D01*
X-3571Y24929D02*
X3000Y31500D01*
X26000D02*
X32224Y37724D01*
X13500Y27500D02*
X52000D01*
X8914Y22915D02*
X13500Y27500D01*
X8914Y15748D02*
Y22915D01*
X61358Y36858D02*
Y45000D01*
X52000Y27500D02*
X61358Y36858D01*
X-3571Y15748D02*
Y24929D01*
X32224Y37724D02*
Y45000D01*
X-11500Y33500D02*
X-1500D01*
X3091Y38091D02*
Y45000D01*
X-1500Y33500D02*
X3091Y38091D01*
X-16057Y28943D02*
X-11500Y33500D01*
X-16057Y15748D02*
Y28943D01*
X-28543Y37500D02*
X-26043Y40000D01*
X-28543Y15748D02*
Y37500D01*
X-13075Y9075D02*
X19425D01*
X23819Y0D02*
Y4681D01*
X19425Y9075D02*
X23819Y4681D01*
X30118Y0D02*
Y3155D01*
X-1650Y10650D02*
X20350D01*
X21400Y14099D02*
Y15748D01*
X10276Y12224D02*
X21048D01*
X30118Y3155D01*
X26969Y0D02*
Y4031D01*
X20350Y10650D02*
X26969Y4031D01*
X21400Y14099D02*
X33268Y2232D01*
Y0D02*
Y2232D01*
X18319Y7500D02*
X20669Y5149D01*
X-24000Y7500D02*
X18319D01*
X20669Y0D02*
Y5149D01*
X-16057Y12057D02*
X-13075Y9075D01*
X8914Y13586D02*
X10276Y12224D01*
X-28543Y12043D02*
X-24000Y7500D01*
X-3571Y12571D02*
X-1650Y10650D01*
X8914Y13586D02*
Y15748D01*
X-3571Y12571D02*
Y15748D01*
X-16057Y12057D02*
Y15748D01*
X-28543Y12043D02*
Y15748D01*
X58858Y11858D02*
Y15748D01*
X45927Y7927D02*
X54927D01*
X58858Y11858D01*
X42717Y4716D02*
X45927Y7927D01*
X42717Y0D02*
Y4716D01*
X39567Y0D02*
Y6067D01*
X46372Y12872D02*
Y15748D01*
X39567Y6067D02*
X46372Y12872D01*
X33886Y13614D02*
Y15748D01*
Y13614D02*
X36417Y11083D01*
Y0D02*
Y11083D01*
D38*
X25260Y162500D02*
X29894Y167134D01*
X10000Y162500D02*
X25260D01*
X5163Y157663D02*
X10000Y162500D01*
X58457Y162000D02*
X58760D01*
X51260D02*
X58457D01*
X-24006Y133858D02*
Y155494D01*
X-11500Y168000D01*
X16260D01*
X20051Y171791D01*
Y200787D01*
X5163Y133858D02*
Y157663D01*
X29894Y167134D02*
Y200787D01*
X34331Y133858D02*
Y162909D01*
X34669D02*
X39736Y167976D01*
Y200787D01*
X58457Y162000D02*
X63500Y156957D01*
Y133858D02*
Y156957D01*
X45760Y167500D02*
X51260Y162000D01*
X45760Y167500D02*
Y190500D01*
X49579Y194319D01*
Y200787D01*
D40*
X20051D02*
D03*
X29894D02*
D03*
X39736D02*
D03*
X49579D02*
D03*
D43*
X-40500Y17717D02*
D03*
X-21724D02*
D03*
X-9353D02*
D03*
X3018D02*
D03*
X15388D02*
D03*
X27759D02*
D03*
X40129D02*
D03*
X52500D02*
D03*
X70500Y5906D02*
D03*
Y17717D02*
D03*
Y29528D02*
D03*
X49500Y41339D02*
D03*
X70500D02*
D03*
X39500D02*
D03*
X20000D02*
D03*
X10000D02*
D03*
X-9000D02*
D03*
X-19500D02*
D03*
X-40500D02*
D03*
Y53150D02*
D03*
X-19500D02*
D03*
X-9000D02*
D03*
X10000D02*
D03*
X20000D02*
D03*
X39500D02*
D03*
X70500D02*
D03*
X49500D02*
D03*
X-24006Y133858D02*
D03*
X-26043Y45000D02*
D03*
X63500Y133858D02*
D03*
X34331D02*
D03*
X5163D02*
D03*
X61358Y45000D02*
D03*
X32224D02*
D03*
X3091D02*
D03*
X-3571Y15748D02*
D03*
X33268Y0D02*
D03*
X30118D02*
D03*
X26969D02*
D03*
X58858Y15748D02*
D03*
X46372D02*
D03*
X33886D02*
D03*
X21400D02*
D03*
X8914D02*
D03*
X-16057D02*
D03*
X-28543D02*
D03*
X42717Y0D02*
D03*
X39567D02*
D03*
X36417D02*
D03*
X23819D02*
D03*
X20669D02*
D03*
M02*
