G04*
G04 #@! TF.GenerationSoftware,Altium Limited,Altium Designer,24.7.2 (38)*
G04*
G04 Layer_Color=2752767*
%FSLAX25Y25*%
%MOIN*%
G70*
G04*
G04 #@! TF.SameCoordinates,43B99760-4079-4BD6-A725-026A76E2A537*
G04*
G04*
G04 #@! TF.FilePolarity,Positive*
G04*
G01*
G75*
%ADD46C,0.00200*%
%ADD47C,0.00267*%
D46*
X19251Y199987D02*
Y201587D01*
X20851D01*
Y199987D01*
X19251D01*
X29094D02*
Y201587D01*
X30694D01*
Y199987D01*
X29094D01*
X38936D02*
Y201587D01*
X40536D01*
Y199987D01*
X38936D01*
X48779D02*
Y201587D01*
X50379D01*
Y199987D01*
X48779D01*
X58621D02*
Y201587D01*
X60221D01*
Y199987D01*
X58621D01*
X-20119D02*
Y201587D01*
X-18519D01*
Y199987D01*
X-20119D01*
X-10276D02*
Y201587D01*
X-8676D01*
Y199987D01*
X-10276D01*
X-29961D02*
Y201587D01*
X-28361D01*
Y199987D01*
X-29961D01*
X9409D02*
Y201587D01*
X11009D01*
Y199987D01*
X9409D01*
X-434D02*
Y201587D01*
X1166D01*
Y199987D01*
X-434D01*
X-40500Y16917D02*
X-40100Y17316D01*
X-39700D01*
X-40100Y17717D01*
X-39700Y18116D01*
X-40100D01*
X-40500Y18517D01*
X-40900Y18116D01*
X-41300D01*
X-40900Y17717D01*
X-41300Y17316D01*
X-40900D01*
X-40500Y16917D01*
X-21724D02*
X-21324Y17316D01*
X-20924D01*
X-21324Y17717D01*
X-20924Y18116D01*
X-21324D01*
X-21724Y18517D01*
X-22124Y18116D01*
X-22524D01*
X-22124Y17717D01*
X-22524Y17316D01*
X-22124D01*
X-21724Y16917D01*
X-9353D02*
X-8953Y17316D01*
X-8553D01*
X-8953Y17717D01*
X-8553Y18116D01*
X-8953D01*
X-9353Y18517D01*
X-9753Y18116D01*
X-10153D01*
X-9753Y17717D01*
X-10153Y17316D01*
X-9753D01*
X-9353Y16917D01*
X3018D02*
X3418Y17316D01*
X3818D01*
X3418Y17717D01*
X3818Y18116D01*
X3418D01*
X3018Y18517D01*
X2617Y18116D01*
X2217D01*
X2617Y17717D01*
X2217Y17316D01*
X2617D01*
X3018Y16917D01*
X15388D02*
X15788Y17316D01*
X16188D01*
X15788Y17717D01*
X16188Y18116D01*
X15788D01*
X15388Y18517D01*
X14988Y18116D01*
X14588D01*
X14988Y17717D01*
X14588Y17316D01*
X14988D01*
X15388Y16917D01*
X27759D02*
X28159Y17316D01*
X28559D01*
X28159Y17717D01*
X28559Y18116D01*
X28159D01*
X27759Y18517D01*
X27359Y18116D01*
X26959D01*
X27359Y17717D01*
X26959Y17316D01*
X27359D01*
X27759Y16917D01*
X40129D02*
X40529Y17316D01*
X40929D01*
X40529Y17717D01*
X40929Y18116D01*
X40529D01*
X40129Y18517D01*
X39729Y18116D01*
X39329D01*
X39729Y17717D01*
X39329Y17316D01*
X39729D01*
X40129Y16917D01*
X52500D02*
X52900Y17316D01*
X53300D01*
X52900Y17717D01*
X53300Y18116D01*
X52900D01*
X52500Y18517D01*
X52100Y18116D01*
X51700D01*
X52100Y17717D01*
X51700Y17316D01*
X52100D01*
X52500Y16917D01*
X70500Y5105D02*
X70900Y5505D01*
X71300D01*
X70900Y5906D01*
X71300Y6306D01*
X70900D01*
X70500Y6706D01*
X70100Y6306D01*
X69700D01*
X70100Y5906D01*
X69700Y5505D01*
X70100D01*
X70500Y5105D01*
Y16917D02*
X70900Y17316D01*
X71300D01*
X70900Y17717D01*
X71300Y18116D01*
X70900D01*
X70500Y18517D01*
X70100Y18116D01*
X69700D01*
X70100Y17717D01*
X69700Y17316D01*
X70100D01*
X70500Y16917D01*
Y28728D02*
X70900Y29128D01*
X71300D01*
X70900Y29528D01*
X71300Y29928D01*
X70900D01*
X70500Y30328D01*
X70100Y29928D01*
X69700D01*
X70100Y29528D01*
X69700Y29128D01*
X70100D01*
X70500Y28728D01*
X49500Y40539D02*
X49900Y40939D01*
X50300D01*
X49900Y41339D01*
X50300Y41739D01*
X49900D01*
X49500Y42139D01*
X49100Y41739D01*
X48700D01*
X49100Y41339D01*
X48700Y40939D01*
X49100D01*
X49500Y40539D01*
X70500D02*
X70900Y40939D01*
X71300D01*
X70900Y41339D01*
X71300Y41739D01*
X70900D01*
X70500Y42139D01*
X70100Y41739D01*
X69700D01*
X70100Y41339D01*
X69700Y40939D01*
X70100D01*
X70500Y40539D01*
X39500D02*
X39900Y40939D01*
X40300D01*
X39900Y41339D01*
X40300Y41739D01*
X39900D01*
X39500Y42139D01*
X39100Y41739D01*
X38700D01*
X39100Y41339D01*
X38700Y40939D01*
X39100D01*
X39500Y40539D01*
X20000D02*
X20400Y40939D01*
X20800D01*
X20400Y41339D01*
X20800Y41739D01*
X20400D01*
X20000Y42139D01*
X19600Y41739D01*
X19200D01*
X19600Y41339D01*
X19200Y40939D01*
X19600D01*
X20000Y40539D01*
X10000D02*
X10400Y40939D01*
X10800D01*
X10400Y41339D01*
X10800Y41739D01*
X10400D01*
X10000Y42139D01*
X9600Y41739D01*
X9200D01*
X9600Y41339D01*
X9200Y40939D01*
X9600D01*
X10000Y40539D01*
X-9000D02*
X-8600Y40939D01*
X-8200D01*
X-8600Y41339D01*
X-8200Y41739D01*
X-8600D01*
X-9000Y42139D01*
X-9400Y41739D01*
X-9800D01*
X-9400Y41339D01*
X-9800Y40939D01*
X-9400D01*
X-9000Y40539D01*
X-19500D02*
X-19100Y40939D01*
X-18700D01*
X-19100Y41339D01*
X-18700Y41739D01*
X-19100D01*
X-19500Y42139D01*
X-19900Y41739D01*
X-20300D01*
X-19900Y41339D01*
X-20300Y40939D01*
X-19900D01*
X-19500Y40539D01*
X-40500D02*
X-40100Y40939D01*
X-39700D01*
X-40100Y41339D01*
X-39700Y41739D01*
X-40100D01*
X-40500Y42139D01*
X-40900Y41739D01*
X-41300D01*
X-40900Y41339D01*
X-41300Y40939D01*
X-40900D01*
X-40500Y40539D01*
Y52350D02*
X-40100Y52750D01*
X-39700D01*
X-40100Y53150D01*
X-39700Y53550D01*
X-40100D01*
X-40500Y53950D01*
X-40900Y53550D01*
X-41300D01*
X-40900Y53150D01*
X-41300Y52750D01*
X-40900D01*
X-40500Y52350D01*
X-19500D02*
X-19100Y52750D01*
X-18700D01*
X-19100Y53150D01*
X-18700Y53550D01*
X-19100D01*
X-19500Y53950D01*
X-19900Y53550D01*
X-20300D01*
X-19900Y53150D01*
X-20300Y52750D01*
X-19900D01*
X-19500Y52350D01*
X-9000D02*
X-8600Y52750D01*
X-8200D01*
X-8600Y53150D01*
X-8200Y53550D01*
X-8600D01*
X-9000Y53950D01*
X-9400Y53550D01*
X-9800D01*
X-9400Y53150D01*
X-9800Y52750D01*
X-9400D01*
X-9000Y52350D01*
X10000D02*
X10400Y52750D01*
X10800D01*
X10400Y53150D01*
X10800Y53550D01*
X10400D01*
X10000Y53950D01*
X9600Y53550D01*
X9200D01*
X9600Y53150D01*
X9200Y52750D01*
X9600D01*
X10000Y52350D01*
X20000D02*
X20400Y52750D01*
X20800D01*
X20400Y53150D01*
X20800Y53550D01*
X20400D01*
X20000Y53950D01*
X19600Y53550D01*
X19200D01*
X19600Y53150D01*
X19200Y52750D01*
X19600D01*
X20000Y52350D01*
X39500D02*
X39900Y52750D01*
X40300D01*
X39900Y53150D01*
X40300Y53550D01*
X39900D01*
X39500Y53950D01*
X39100Y53550D01*
X38700D01*
X39100Y53150D01*
X38700Y52750D01*
X39100D01*
X39500Y52350D01*
X70500D02*
X70900Y52750D01*
X71300D01*
X70900Y53150D01*
X71300Y53550D01*
X70900D01*
X70500Y53950D01*
X70100Y53550D01*
X69700D01*
X70100Y53150D01*
X69700Y52750D01*
X70100D01*
X70500Y52350D01*
X49500D02*
X49900Y52750D01*
X50300D01*
X49900Y53150D01*
X50300Y53550D01*
X49900D01*
X49500Y53950D01*
X49100Y53550D01*
X48700D01*
X49100Y53150D01*
X48700Y52750D01*
X49100D01*
X49500Y52350D01*
X53500Y38200D02*
X53900Y38600D01*
X54300D01*
X53900Y39000D01*
X54300Y39400D01*
X53900D01*
X53500Y39800D01*
X53100Y39400D01*
X52700D01*
X53100Y39000D01*
X52700Y38600D01*
X53100D01*
X53500Y38200D01*
X24331D02*
X24731Y38600D01*
X25131D01*
X24731Y39000D01*
X25131Y39400D01*
X24731D01*
X24331Y39800D01*
X23931Y39400D01*
X23531D01*
X23931Y39000D01*
X23531Y38600D01*
X23931D01*
X24331Y38200D01*
X-4837D02*
X-4437Y38600D01*
X-4037D01*
X-4437Y39000D01*
X-4037Y39400D01*
X-4437D01*
X-4837Y39800D01*
X-5237Y39400D01*
X-5637D01*
X-5237Y39000D01*
X-5637Y38600D01*
X-5237D01*
X-4837Y38200D01*
X-34006D02*
X-33606Y38600D01*
X-33206D01*
X-33606Y39000D01*
X-33206Y39400D01*
X-33606D01*
X-34006Y39800D01*
X-34406Y39400D01*
X-34806D01*
X-34406Y39000D01*
X-34806Y38600D01*
X-34406D01*
X-34006Y38200D01*
X-24006Y133058D02*
X-23606Y133458D01*
X-23206D01*
X-23606Y133858D01*
X-23206Y134258D01*
X-23606D01*
X-24006Y134658D01*
X-24406Y134258D01*
X-24806D01*
X-24406Y133858D01*
X-24806Y133458D01*
X-24406D01*
X-24006Y133058D01*
X-26043Y44200D02*
X-25643Y44600D01*
X-25243D01*
X-25643Y45000D01*
X-25243Y45400D01*
X-25643D01*
X-26043Y45800D01*
X-26443Y45400D01*
X-26843D01*
X-26443Y45000D01*
X-26843Y44600D01*
X-26443D01*
X-26043Y44200D01*
X63500Y133058D02*
X63900Y133458D01*
X64300D01*
X63900Y133858D01*
X64300Y134258D01*
X63900D01*
X63500Y134658D01*
X63100Y134258D01*
X62700D01*
X63100Y133858D01*
X62700Y133458D01*
X63100D01*
X63500Y133058D01*
X34331D02*
X34731Y133458D01*
X35131D01*
X34731Y133858D01*
X35131Y134258D01*
X34731D01*
X34331Y134658D01*
X33931Y134258D01*
X33531D01*
X33931Y133858D01*
X33531Y133458D01*
X33931D01*
X34331Y133058D01*
X5163D02*
X5563Y133458D01*
X5963D01*
X5563Y133858D01*
X5963Y134258D01*
X5563D01*
X5163Y134658D01*
X4763Y134258D01*
X4363D01*
X4763Y133858D01*
X4363Y133458D01*
X4763D01*
X5163Y133058D01*
X53858D02*
X54258Y133458D01*
X54658D01*
X54258Y133858D01*
X54658Y134258D01*
X54258D01*
X53858Y134658D01*
X53458Y134258D01*
X53058D01*
X53458Y133858D01*
X53058Y133458D01*
X53458D01*
X53858Y133058D01*
X24724D02*
X25124Y133458D01*
X25524D01*
X25124Y133858D01*
X25524Y134258D01*
X25124D01*
X24724Y134658D01*
X24324Y134258D01*
X23924D01*
X24324Y133858D01*
X23924Y133458D01*
X24324D01*
X24724Y133058D01*
X-4409D02*
X-4009Y133458D01*
X-3609D01*
X-4009Y133858D01*
X-3609Y134258D01*
X-4009D01*
X-4409Y134658D01*
X-4809Y134258D01*
X-5209D01*
X-4809Y133858D01*
X-5209Y133458D01*
X-4809D01*
X-4409Y133058D01*
X-33543D02*
X-33143Y133458D01*
X-32743D01*
X-33143Y133858D01*
X-32743Y134258D01*
X-33143D01*
X-33543Y134658D01*
X-33943Y134258D01*
X-34343D01*
X-33943Y133858D01*
X-34343Y133458D01*
X-33943D01*
X-33543Y133058D01*
X56000Y44200D02*
X56400Y44600D01*
X56800D01*
X56400Y45000D01*
X56800Y45400D01*
X56400D01*
X56000Y45800D01*
X55600Y45400D01*
X55200D01*
X55600Y45000D01*
X55200Y44600D01*
X55600D01*
X56000Y44200D01*
X26831D02*
X27231Y44600D01*
X27631D01*
X27231Y45000D01*
X27631Y45400D01*
X27231D01*
X26831Y45800D01*
X26431Y45400D01*
X26031D01*
X26431Y45000D01*
X26031Y44600D01*
X26431D01*
X26831Y44200D01*
X-2337D02*
X-1937Y44600D01*
X-1537D01*
X-1937Y45000D01*
X-1537Y45400D01*
X-1937D01*
X-2337Y45800D01*
X-2737Y45400D01*
X-3137D01*
X-2737Y45000D01*
X-3137Y44600D01*
X-2737D01*
X-2337Y44200D01*
X-31506D02*
X-31106Y44600D01*
X-30706D01*
X-31106Y45000D01*
X-30706Y45400D01*
X-31106D01*
X-31506Y45800D01*
X-31906Y45400D01*
X-32306D01*
X-31906Y45000D01*
X-32306Y44600D01*
X-31906D01*
X-31506Y44200D01*
X61358D02*
X61758Y44600D01*
X62158D01*
X61758Y45000D01*
X62158Y45400D01*
X61758D01*
X61358Y45800D01*
X60958Y45400D01*
X60558D01*
X60958Y45000D01*
X60558Y44600D01*
X60958D01*
X61358Y44200D01*
X32224D02*
X32624Y44600D01*
X33024D01*
X32624Y45000D01*
X33024Y45400D01*
X32624D01*
X32224Y45800D01*
X31824Y45400D01*
X31424D01*
X31824Y45000D01*
X31424Y44600D01*
X31824D01*
X32224Y44200D01*
X3091D02*
X3491Y44600D01*
X3891D01*
X3491Y45000D01*
X3891Y45400D01*
X3491D01*
X3091Y45800D01*
X2691Y45400D01*
X2291D01*
X2691Y45000D01*
X2291Y44600D01*
X2691D01*
X3091Y44200D01*
X-3571Y14948D02*
X-3171Y15348D01*
X-2771D01*
X-3171Y15748D01*
X-2771Y16148D01*
X-3171D01*
X-3571Y16548D01*
X-3971Y16148D01*
X-4371D01*
X-3971Y15748D01*
X-4371Y15348D01*
X-3971D01*
X-3571Y14948D01*
X33268Y-800D02*
X33668Y-400D01*
X34068D01*
X33668Y0D01*
X34068Y400D01*
X33668D01*
X33268Y800D01*
X32868Y400D01*
X32468D01*
X32868Y0D01*
X32468Y-400D01*
X32868D01*
X33268Y-800D01*
X30118D02*
X30518Y-400D01*
X30918D01*
X30518Y0D01*
X30918Y400D01*
X30518D01*
X30118Y800D01*
X29718Y400D01*
X29318D01*
X29718Y0D01*
X29318Y-400D01*
X29718D01*
X30118Y-800D01*
X26969D02*
X27369Y-400D01*
X27768D01*
X27369Y0D01*
X27768Y400D01*
X27369D01*
X26969Y800D01*
X26568Y400D01*
X26169D01*
X26568Y0D01*
X26169Y-400D01*
X26568D01*
X26969Y-800D01*
X58858Y14948D02*
X59258Y15348D01*
X59658D01*
X59258Y15748D01*
X59658Y16148D01*
X59258D01*
X58858Y16548D01*
X58458Y16148D01*
X58058D01*
X58458Y15748D01*
X58058Y15348D01*
X58458D01*
X58858Y14948D01*
X46372D02*
X46772Y15348D01*
X47172D01*
X46772Y15748D01*
X47172Y16148D01*
X46772D01*
X46372Y16548D01*
X45972Y16148D01*
X45572D01*
X45972Y15748D01*
X45572Y15348D01*
X45972D01*
X46372Y14948D01*
X33886D02*
X34286Y15348D01*
X34686D01*
X34286Y15748D01*
X34686Y16148D01*
X34286D01*
X33886Y16548D01*
X33486Y16148D01*
X33086D01*
X33486Y15748D01*
X33086Y15348D01*
X33486D01*
X33886Y14948D01*
X21400D02*
X21801Y15348D01*
X22200D01*
X21801Y15748D01*
X22200Y16148D01*
X21801D01*
X21400Y16548D01*
X21001Y16148D01*
X20601D01*
X21001Y15748D01*
X20601Y15348D01*
X21001D01*
X21400Y14948D01*
X8914D02*
X9314Y15348D01*
X9714D01*
X9314Y15748D01*
X9714Y16148D01*
X9314D01*
X8914Y16548D01*
X8514Y16148D01*
X8115D01*
X8514Y15748D01*
X8115Y15348D01*
X8514D01*
X8914Y14948D01*
X-16057D02*
X-15657Y15348D01*
X-15257D01*
X-15657Y15748D01*
X-15257Y16148D01*
X-15657D01*
X-16057Y16548D01*
X-16457Y16148D01*
X-16857D01*
X-16457Y15748D01*
X-16857Y15348D01*
X-16457D01*
X-16057Y14948D01*
X-28543D02*
X-28143Y15348D01*
X-27743D01*
X-28143Y15748D01*
X-27743Y16148D01*
X-28143D01*
X-28543Y16548D01*
X-28943Y16148D01*
X-29343D01*
X-28943Y15748D01*
X-29343Y15348D01*
X-28943D01*
X-28543Y14948D01*
X42717Y-800D02*
X43117Y-400D01*
X43516D01*
X43117Y0D01*
X43516Y400D01*
X43117D01*
X42717Y800D01*
X42316Y400D01*
X41916D01*
X42316Y0D01*
X41916Y-400D01*
X42316D01*
X42717Y-800D01*
X39567D02*
X39967Y-400D01*
X40367D01*
X39967Y0D01*
X40367Y400D01*
X39967D01*
X39567Y800D01*
X39167Y400D01*
X38767D01*
X39167Y0D01*
X38767Y-400D01*
X39167D01*
X39567Y-800D01*
X36417D02*
X36817Y-400D01*
X37217D01*
X36817Y0D01*
X37217Y400D01*
X36817D01*
X36417Y800D01*
X36017Y400D01*
X35617D01*
X36017Y0D01*
X35617Y-400D01*
X36017D01*
X36417Y-800D01*
X23819D02*
X24219Y-400D01*
X24619D01*
X24219Y0D01*
X24619Y400D01*
X24219D01*
X23819Y800D01*
X23419Y400D01*
X23019D01*
X23419Y0D01*
X23019Y-400D01*
X23419D01*
X23819Y-800D01*
X20669D02*
X21069Y-400D01*
X21469D01*
X21069Y0D01*
X21469Y400D01*
X21069D01*
X20669Y800D01*
X20269Y400D01*
X19869D01*
X20269Y0D01*
X19869Y-400D01*
X20269D01*
X20669Y-800D01*
X-20276D02*
X-19876Y-400D01*
X-19476D01*
X-19876Y0D01*
X-19476Y400D01*
X-19876D01*
X-20276Y800D01*
X-20676Y400D01*
X-21076D01*
X-20676Y0D01*
X-21076Y-400D01*
X-20676D01*
X-20276Y-800D01*
D47*
X63595Y176378D02*
G03*
X63595Y176378I-800J0D01*
G01*
X-31680D02*
G03*
X-31680Y176378I-800J0D01*
G01*
M02*
