G04*
G04 #@! TF.GenerationSoftware,Altium Limited,Altium Designer,24.7.2 (38)*
G04*
G04 Layer_Physical_Order=2*
G04 Layer_Color=36540*
%FSLAX25Y25*%
%MOIN*%
G70*
G04*
G04 #@! TF.SameCoordinates,0E369B4C-2510-47F4-92B6-D956EC4EF59B*
G04*
G04*
G04 #@! TF.FilePolarity,Positive*
G04*
G01*
G75*
%ADD36C,0.01181*%
%ADD38C,0.01968*%
%ADD40C,0.05315*%
%ADD43C,0.01968*%
G36*
X73209Y807D02*
X68898D01*
X68873Y802D01*
X68848Y805D01*
X68540Y790D01*
X68468Y772D01*
X68393D01*
X67788Y652D01*
X67696Y614D01*
X67599Y595D01*
X67029Y358D01*
X66947Y303D01*
X66855Y266D01*
X66342Y-77D01*
X66272Y-147D01*
X66190Y-202D01*
X65753Y-639D01*
X65698Y-721D01*
X65629Y-791D01*
X65286Y-1304D01*
X65248Y-1396D01*
X65193Y-1478D01*
X64957Y-2048D01*
X64937Y-2145D01*
X64899Y-2236D01*
X64779Y-2842D01*
Y-2916D01*
X64761Y-2988D01*
X64746Y-3297D01*
X64749Y-3322D01*
X64745Y-3347D01*
Y-11792D01*
X3956D01*
X3956Y0D01*
X3950Y33D01*
X3954Y66D01*
X3929Y451D01*
X3903Y546D01*
X3897Y645D01*
X3697Y1390D01*
X3639Y1508D01*
X3597Y1632D01*
X3212Y2299D01*
X3125Y2398D01*
X3052Y2507D01*
X2507Y3052D01*
X2398Y3125D01*
X2299Y3212D01*
X1632Y3597D01*
X1507Y3639D01*
X1390Y3697D01*
X645Y3897D01*
X514Y3905D01*
X385Y3931D01*
X-385D01*
X-514Y3905D01*
X-645Y3897D01*
X-1390Y3697D01*
X-1508Y3639D01*
X-1632Y3597D01*
X-2299Y3212D01*
X-2398Y3125D01*
X-2507Y3052D01*
X-3052Y2507D01*
X-3125Y2398D01*
X-3212Y2299D01*
X-3597Y1632D01*
X-3639Y1507D01*
X-3697Y1390D01*
X-3897Y645D01*
X-3903Y546D01*
X-3929Y451D01*
X-3954Y66D01*
X-3950Y33D01*
X-3956Y0D01*
Y-11792D01*
X-34430D01*
Y-3347D01*
X-34435Y-3322D01*
X-34431Y-3297D01*
X-34446Y-2988D01*
X-34464Y-2916D01*
Y-2842D01*
X-34585Y-2236D01*
X-34622Y-2145D01*
X-34642Y-2048D01*
X-34878Y-1478D01*
X-34933Y-1396D01*
X-34971Y-1304D01*
X-35314Y-791D01*
X-35383Y-721D01*
X-35438Y-639D01*
X-35875Y-202D01*
X-35957Y-147D01*
X-36027Y-77D01*
X-36540Y266D01*
X-36632Y303D01*
X-36714Y358D01*
X-37284Y595D01*
X-37381Y614D01*
X-37473Y652D01*
X-38078Y772D01*
X-38153D01*
X-38225Y790D01*
X-38533Y805D01*
X-38558Y802D01*
X-38583Y807D01*
X-42894D01*
Y56000D01*
X-16972D01*
Y39370D01*
Y38978D01*
X-16896Y38594D01*
X-16596Y37871D01*
X-16378Y37545D01*
X-15825Y36992D01*
X-15499Y36774D01*
X-14776Y36474D01*
X-14392Y36398D01*
X-13608D01*
X-13224Y36474D01*
X-12501Y36774D01*
X-12175Y36992D01*
X-11622Y37545D01*
X-11404Y37871D01*
X-11104Y38594D01*
X-11028Y38978D01*
Y39370D01*
Y56000D01*
X12162D01*
Y38870D01*
Y38478D01*
X12238Y38094D01*
X12538Y37371D01*
X12755Y37045D01*
X13309Y36492D01*
X13635Y36274D01*
X14358Y35974D01*
X14742Y35898D01*
X15525D01*
X15909Y35974D01*
X16633Y36274D01*
X16959Y36492D01*
X17512Y37045D01*
X17730Y37371D01*
X18030Y38094D01*
X18106Y38478D01*
Y38870D01*
Y56000D01*
X41296D01*
Y39350D01*
Y38959D01*
X41372Y38575D01*
X41672Y37851D01*
X41889Y37526D01*
X42443Y36972D01*
X42769Y36754D01*
X43492Y36455D01*
X43876Y36378D01*
X44659D01*
X45043Y36455D01*
X45767Y36754D01*
X46092Y36972D01*
X46646Y37526D01*
X46864Y37851D01*
X47163Y38575D01*
X47240Y38959D01*
Y39350D01*
Y56000D01*
X73209D01*
Y807D01*
D02*
G37*
%LPC*%
G36*
X61515Y45787D02*
X61202D01*
X60912Y45667D01*
X60691Y45446D01*
X60571Y45157D01*
Y44843D01*
X60691Y44554D01*
X60912Y44333D01*
X61202Y44213D01*
X61515D01*
X61804Y44333D01*
X62026Y44554D01*
X62146Y44843D01*
Y45157D01*
X62026Y45446D01*
X61804Y45667D01*
X61515Y45787D01*
D02*
G37*
G36*
X32381D02*
X32068D01*
X31778Y45667D01*
X31557Y45446D01*
X31437Y45157D01*
Y44843D01*
X31557Y44554D01*
X31778Y44333D01*
X32068Y44213D01*
X32381D01*
X32670Y44333D01*
X32892Y44554D01*
X33012Y44843D01*
Y45157D01*
X32892Y45446D01*
X32670Y45667D01*
X32381Y45787D01*
D02*
G37*
G36*
X3247D02*
X2934D01*
X2644Y45667D01*
X2423Y45446D01*
X2303Y45157D01*
Y44843D01*
X2423Y44554D01*
X2644Y44333D01*
X2934Y44213D01*
X3247D01*
X3537Y44333D01*
X3758Y44554D01*
X3878Y44843D01*
Y45157D01*
X3758Y45446D01*
X3537Y45667D01*
X3247Y45787D01*
D02*
G37*
G36*
X-25887D02*
X-26200D01*
X-26489Y45667D01*
X-26711Y45446D01*
X-26831Y45157D01*
Y44843D01*
X-26711Y44554D01*
X-26489Y44333D01*
X-26200Y44213D01*
X-25887D01*
X-25597Y44333D01*
X-25376Y44554D01*
X-25256Y44843D01*
Y45157D01*
X-25376Y45446D01*
X-25597Y45667D01*
X-25887Y45787D01*
D02*
G37*
G36*
X-31232Y46378D02*
X-31780D01*
X-32287Y46168D01*
X-32674Y45781D01*
X-32884Y45274D01*
Y44726D01*
X-32674Y44219D01*
X-32509Y44055D01*
Y39967D01*
X-32594Y39919D01*
X-32903Y39846D01*
X-33225Y40168D01*
X-33732Y40378D01*
X-34280D01*
X-34786Y40168D01*
X-35174Y39781D01*
X-35384Y39274D01*
Y38726D01*
X-35174Y38219D01*
X-35009Y38055D01*
Y11506D01*
X-34933Y11122D01*
X-34716Y10796D01*
X-30710Y6790D01*
X-30384Y6573D01*
X-30000Y6497D01*
X-23416D01*
X-21279Y4360D01*
Y945D01*
X-21444Y781D01*
X-21654Y274D01*
Y-274D01*
X-21444Y-781D01*
X-21056Y-1168D01*
X-20550Y-1378D01*
X-20001D01*
X-19495Y-1168D01*
X-19107Y-781D01*
X-18898Y-274D01*
Y274D01*
X-19107Y781D01*
X-19272Y945D01*
Y4776D01*
X-19349Y5160D01*
X-19566Y5485D01*
X-22290Y8210D01*
X-22616Y8427D01*
X-23000Y8504D01*
X-29584D01*
X-33002Y11922D01*
Y37777D01*
X-32903Y37859D01*
X-32509Y37672D01*
Y37006D01*
X-32433Y36622D01*
X-32215Y36296D01*
X-19710Y23790D01*
X-19384Y23573D01*
X-19000Y23496D01*
X17084D01*
X20397Y20184D01*
Y16693D01*
X20232Y16529D01*
X20022Y16022D01*
Y15474D01*
X20232Y14967D01*
X20620Y14580D01*
X21126Y14370D01*
X21675D01*
X22181Y14580D01*
X22569Y14967D01*
X22778Y15474D01*
Y16022D01*
X22569Y16529D01*
X22404Y16693D01*
Y20599D01*
X22328Y20984D01*
X22110Y21309D01*
X18210Y25210D01*
X17884Y25427D01*
X17500Y25504D01*
X-18584D01*
X-30502Y37422D01*
Y44055D01*
X-30338Y44219D01*
X-30128Y44726D01*
Y45274D01*
X-30338Y45781D01*
X-30725Y46168D01*
X-31232Y46378D01*
D02*
G37*
G36*
X53657Y39787D02*
X53343D01*
X53054Y39667D01*
X52832Y39446D01*
X52713Y39157D01*
Y38843D01*
X52832Y38554D01*
X53054Y38333D01*
X53343Y38213D01*
X53657D01*
X53946Y38333D01*
X54167Y38554D01*
X54287Y38843D01*
Y39157D01*
X54167Y39446D01*
X53946Y39667D01*
X53657Y39787D01*
D02*
G37*
G36*
X24488D02*
X24175D01*
X23885Y39667D01*
X23664Y39446D01*
X23544Y39157D01*
Y38843D01*
X23664Y38554D01*
X23885Y38333D01*
X24175Y38213D01*
X24488D01*
X24777Y38333D01*
X24999Y38554D01*
X25119Y38843D01*
Y39157D01*
X24999Y39446D01*
X24777Y39667D01*
X24488Y39787D01*
D02*
G37*
G36*
X-4681D02*
X-4994D01*
X-5283Y39667D01*
X-5505Y39446D01*
X-5625Y39157D01*
Y38843D01*
X-5505Y38554D01*
X-5283Y38333D01*
X-4994Y38213D01*
X-4681D01*
X-4391Y38333D01*
X-4170Y38554D01*
X-4050Y38843D01*
Y39157D01*
X-4170Y39446D01*
X-4391Y39667D01*
X-4681Y39787D01*
D02*
G37*
G36*
X9071Y16535D02*
X8758D01*
X8468Y16416D01*
X8247Y16194D01*
X8127Y15905D01*
Y15591D01*
X8247Y15302D01*
X8468Y15080D01*
X8758Y14961D01*
X9071D01*
X9361Y15080D01*
X9582Y15302D01*
X9702Y15591D01*
Y15905D01*
X9582Y16194D01*
X9361Y16416D01*
X9071Y16535D01*
D02*
G37*
G36*
X-3415D02*
X-3728D01*
X-4017Y16416D01*
X-4239Y16194D01*
X-4359Y15905D01*
Y15591D01*
X-4239Y15302D01*
X-4017Y15080D01*
X-3728Y14961D01*
X-3415D01*
X-3125Y15080D01*
X-2904Y15302D01*
X-2784Y15591D01*
Y15905D01*
X-2904Y16194D01*
X-3125Y16416D01*
X-3415Y16535D01*
D02*
G37*
G36*
X-15901D02*
X-16214D01*
X-16503Y16416D01*
X-16725Y16194D01*
X-16845Y15905D01*
Y15591D01*
X-16725Y15302D01*
X-16503Y15080D01*
X-16214Y14961D01*
X-15901D01*
X-15611Y15080D01*
X-15390Y15302D01*
X-15270Y15591D01*
Y15905D01*
X-15390Y16194D01*
X-15611Y16416D01*
X-15901Y16535D01*
D02*
G37*
G36*
X-28387D02*
X-28700D01*
X-28989Y16416D01*
X-29211Y16194D01*
X-29331Y15905D01*
Y15591D01*
X-29211Y15302D01*
X-28989Y15080D01*
X-28700Y14961D01*
X-28387D01*
X-28097Y15080D01*
X-27876Y15302D01*
X-27756Y15591D01*
Y15905D01*
X-27876Y16194D01*
X-28097Y16416D01*
X-28387Y16535D01*
D02*
G37*
G36*
X56274Y46378D02*
X55726D01*
X55219Y46168D01*
X54832Y45781D01*
X54622Y45274D01*
Y44726D01*
X54832Y44219D01*
X54997Y44055D01*
Y34000D01*
X55073Y33616D01*
X55290Y33290D01*
X57855Y30726D01*
Y16693D01*
X57690Y16529D01*
X57480Y16022D01*
Y15474D01*
X57690Y14967D01*
X58078Y14580D01*
X58584Y14370D01*
X59132D01*
X59639Y14580D01*
X60026Y14967D01*
X60236Y15474D01*
Y16022D01*
X60026Y16529D01*
X59862Y16693D01*
Y31142D01*
X59785Y31526D01*
X59568Y31851D01*
X57003Y34416D01*
Y44055D01*
X57168Y44219D01*
X57378Y44726D01*
Y45274D01*
X57168Y45781D01*
X56780Y46168D01*
X56274Y46378D01*
D02*
G37*
G36*
X27105D02*
X26557D01*
X26051Y46168D01*
X25663Y45781D01*
X25453Y45274D01*
Y44726D01*
X25663Y44219D01*
X25828Y44055D01*
Y37669D01*
X25904Y37285D01*
X26122Y36959D01*
X32790Y30290D01*
X33116Y30073D01*
X33500Y29996D01*
X42084D01*
X45369Y26712D01*
Y16693D01*
X45204Y16529D01*
X44994Y16022D01*
Y15474D01*
X45204Y14967D01*
X45592Y14580D01*
X46098Y14370D01*
X46646D01*
X47153Y14580D01*
X47541Y14967D01*
X47750Y15474D01*
Y16022D01*
X47541Y16529D01*
X47376Y16693D01*
Y27128D01*
X47300Y27512D01*
X47082Y27837D01*
X43210Y31710D01*
X42884Y31927D01*
X42500Y32004D01*
X33916D01*
X27835Y38084D01*
Y44055D01*
X27999Y44219D01*
X28209Y44726D01*
Y45274D01*
X27999Y45781D01*
X27612Y46168D01*
X27105Y46378D01*
D02*
G37*
G36*
X-2063D02*
X-2611D01*
X-3118Y46168D01*
X-3505Y45781D01*
X-3715Y45274D01*
Y44726D01*
X-3505Y44219D01*
X-3341Y44055D01*
Y36837D01*
X-3264Y36453D01*
X-3047Y36128D01*
X4290Y28790D01*
X4616Y28573D01*
X5000Y28497D01*
X28584D01*
X32883Y24198D01*
Y16693D01*
X32718Y16529D01*
X32508Y16022D01*
Y15474D01*
X32718Y14967D01*
X33106Y14580D01*
X33612Y14370D01*
X34161D01*
X34667Y14580D01*
X35055Y14967D01*
X35264Y15474D01*
Y16022D01*
X35055Y16529D01*
X34890Y16693D01*
Y24614D01*
X34813Y24998D01*
X34596Y25323D01*
X29710Y30210D01*
X29384Y30427D01*
X29000Y30503D01*
X5416D01*
X-1334Y37253D01*
Y44055D01*
X-1169Y44219D01*
X-959Y44726D01*
Y45274D01*
X-1169Y45781D01*
X-1557Y46168D01*
X-2063Y46378D01*
D02*
G37*
G36*
X42873Y787D02*
X42560D01*
X42270Y667D01*
X42049Y446D01*
X41929Y157D01*
Y-157D01*
X42049Y-446D01*
X42270Y-667D01*
X42560Y-787D01*
X42873D01*
X43163Y-667D01*
X43384Y-446D01*
X43504Y-157D01*
Y157D01*
X43384Y446D01*
X43163Y667D01*
X42873Y787D01*
D02*
G37*
G36*
X39724D02*
X39410D01*
X39121Y667D01*
X38899Y446D01*
X38780Y157D01*
Y-157D01*
X38899Y-446D01*
X39121Y-667D01*
X39410Y-787D01*
X39724D01*
X40013Y-667D01*
X40235Y-446D01*
X40354Y-157D01*
Y157D01*
X40235Y446D01*
X40013Y667D01*
X39724Y787D01*
D02*
G37*
G36*
X36574D02*
X36261D01*
X35971Y667D01*
X35750Y446D01*
X35630Y157D01*
Y-157D01*
X35750Y-446D01*
X35971Y-667D01*
X36261Y-787D01*
X36574D01*
X36863Y-667D01*
X37085Y-446D01*
X37205Y-157D01*
Y157D01*
X37085Y446D01*
X36863Y667D01*
X36574Y787D01*
D02*
G37*
G36*
X33424D02*
X33111D01*
X32822Y667D01*
X32600Y446D01*
X32480Y157D01*
Y-157D01*
X32600Y-446D01*
X32822Y-667D01*
X33111Y-787D01*
X33424D01*
X33714Y-667D01*
X33935Y-446D01*
X34055Y-157D01*
Y157D01*
X33935Y446D01*
X33714Y667D01*
X33424Y787D01*
D02*
G37*
G36*
X30275D02*
X29961D01*
X29672Y667D01*
X29451Y446D01*
X29331Y157D01*
Y-157D01*
X29451Y-446D01*
X29672Y-667D01*
X29961Y-787D01*
X30275D01*
X30564Y-667D01*
X30786Y-446D01*
X30906Y-157D01*
Y157D01*
X30786Y446D01*
X30564Y667D01*
X30275Y787D01*
D02*
G37*
G36*
X27125D02*
X26812D01*
X26522Y667D01*
X26301Y446D01*
X26181Y157D01*
Y-157D01*
X26301Y-446D01*
X26522Y-667D01*
X26812Y-787D01*
X27125D01*
X27415Y-667D01*
X27636Y-446D01*
X27756Y-157D01*
Y157D01*
X27636Y446D01*
X27415Y667D01*
X27125Y787D01*
D02*
G37*
G36*
X23976D02*
X23662D01*
X23373Y667D01*
X23151Y446D01*
X23031Y157D01*
Y-157D01*
X23151Y-446D01*
X23373Y-667D01*
X23662Y-787D01*
X23976D01*
X24265Y-667D01*
X24486Y-446D01*
X24606Y-157D01*
Y157D01*
X24486Y446D01*
X24265Y667D01*
X23976Y787D01*
D02*
G37*
G36*
X20826D02*
X20513D01*
X20223Y667D01*
X20002Y446D01*
X19882Y157D01*
Y-157D01*
X20002Y-446D01*
X20223Y-667D01*
X20513Y-787D01*
X20826D01*
X21115Y-667D01*
X21337Y-446D01*
X21457Y-157D01*
Y157D01*
X21337Y446D01*
X21115Y667D01*
X20826Y787D01*
D02*
G37*
%LPD*%
D36*
X-20276Y0D02*
Y4776D01*
X-23000Y7500D02*
X-20276Y4776D01*
X-34006Y11506D02*
X-30000Y7500D01*
X-23000D01*
X-34006Y11506D02*
Y39000D01*
X42500Y31000D02*
X46372Y27128D01*
X33500Y31000D02*
X42500D01*
X46372Y15748D02*
Y27128D01*
X26831Y37669D02*
Y45000D01*
Y37669D02*
X33500Y31000D01*
X56000Y34000D02*
X58858Y31142D01*
X56000Y34000D02*
Y45000D01*
X58858Y15748D02*
Y31142D01*
X33886Y15748D02*
Y24614D01*
X5000Y29500D02*
X29000D01*
X33886Y24614D01*
X-2337Y36837D02*
X5000Y29500D01*
X-2337Y36837D02*
Y45000D01*
X21400Y15748D02*
Y20599D01*
X-19000Y24500D02*
X17500D01*
X21400Y20599D01*
X-31506Y37006D02*
X-19000Y24500D01*
X-31506Y37006D02*
Y45000D01*
D38*
X366Y167134D02*
X5000Y162500D01*
X20000D02*
X24724Y157776D01*
X5000Y162500D02*
X20000D01*
X-33543Y156957D02*
X-28500Y162000D01*
X-21000D01*
X53858Y133858D02*
Y155142D01*
X14000Y168000D02*
X41000D01*
X53858Y155142D01*
X10209Y171791D02*
Y200787D01*
Y171791D02*
X14000Y168000D01*
X-4409Y133858D02*
Y162909D01*
X-9476Y167976D02*
Y200787D01*
Y167976D02*
X-4409Y162909D01*
X366Y167134D02*
Y200787D01*
X24724Y133858D02*
Y157776D01*
X-19319Y194319D02*
X-15500Y190500D01*
X-21000Y162000D02*
X-15500Y167500D01*
Y190500D01*
X-19319Y194319D02*
Y200787D01*
X-33543Y133858D02*
Y156957D01*
D40*
X-19319Y200787D02*
D03*
X-9476D02*
D03*
X10209D02*
D03*
X366D02*
D03*
D43*
X-40500Y17717D02*
D03*
X-21724D02*
D03*
X-9353D02*
D03*
X3018D02*
D03*
X15388D02*
D03*
X27759D02*
D03*
X40129D02*
D03*
X52500D02*
D03*
X70500Y5906D02*
D03*
Y17717D02*
D03*
Y29528D02*
D03*
X49500Y41339D02*
D03*
X70500D02*
D03*
X39500D02*
D03*
X20000D02*
D03*
X10000D02*
D03*
X-9000D02*
D03*
X-19500D02*
D03*
X-40500D02*
D03*
Y53150D02*
D03*
X-19500D02*
D03*
X-9000D02*
D03*
X10000D02*
D03*
X20000D02*
D03*
X39500D02*
D03*
X70500D02*
D03*
X49500D02*
D03*
X-34006Y39000D02*
D03*
X53858Y133858D02*
D03*
X24724D02*
D03*
X-4409D02*
D03*
X-33543D02*
D03*
X56000Y45000D02*
D03*
X26831D02*
D03*
X-2337D02*
D03*
X-31506D02*
D03*
X58858Y15748D02*
D03*
X46372D02*
D03*
X33886D02*
D03*
X21400D02*
D03*
X-20276Y0D02*
D03*
M02*
