G04*
G04 #@! TF.GenerationSoftware,Altium Limited,Altium Designer,24.7.2 (38)*
G04*
G04 Layer_Physical_Order=4*
G04 Layer_Color=16711680*
%FSLAX25Y25*%
%MOIN*%
G70*
G04*
G04 #@! TF.SameCoordinates,43B99760-4079-4BD6-A725-026A76E2A537*
G04*
G04*
G04 #@! TF.FilePolarity,Positive*
G04*
G01*
G75*
%ADD13R,0.03000X0.03937*%
%ADD14R,0.03937X0.05906*%
%ADD15R,0.05512X0.02756*%
%ADD16R,0.03937X0.03937*%
%ADD17R,0.03150X0.03937*%
%ADD18R,0.02047X0.01850*%
%ADD34R,0.10512X0.09055*%
%ADD35R,0.02362X0.09055*%
%ADD36C,0.01181*%
%ADD37C,0.02953*%
%ADD38C,0.01968*%
%ADD39C,0.03937*%
%ADD40C,0.05315*%
%ADD41R,0.05315X0.05315*%
%ADD42R,0.20866X0.20866*%
%ADD43C,0.01968*%
G36*
X73209Y187992D02*
X51181D01*
Y164764D01*
X73209D01*
Y135000D01*
X66478D01*
Y137795D01*
X67437D01*
Y142983D01*
X67467Y143209D01*
Y144694D01*
X68015Y145408D01*
X68362Y146246D01*
X68480Y147146D01*
Y153543D01*
X68474Y153590D01*
Y157480D01*
X61793D01*
X61537Y157480D01*
X61400Y157817D01*
Y158465D01*
X56144D01*
Y153543D01*
Y148622D01*
X61064D01*
X61259Y148228D01*
X60983Y147869D01*
X60887Y147638D01*
X59563D01*
Y137795D01*
X60522D01*
Y135000D01*
X56609D01*
X56221Y135671D01*
X55671Y136221D01*
X54998Y136610D01*
X54247Y136811D01*
X53470D01*
X52719Y136610D01*
X52045Y136221D01*
X51495Y135671D01*
X51108Y135000D01*
X47440D01*
Y157461D01*
Y157852D01*
X47349Y158313D01*
X47049Y159037D01*
X46788Y159427D01*
X46234Y159981D01*
X45844Y160242D01*
X45120Y160542D01*
X44659Y160633D01*
X43876D01*
X43415Y160542D01*
X42692Y160242D01*
X42301Y159981D01*
X41747Y159427D01*
X41486Y159037D01*
X41187Y158313D01*
X41095Y157852D01*
Y157461D01*
Y135000D01*
X37310D01*
Y137795D01*
X38268D01*
Y142983D01*
X38298Y143209D01*
Y144694D01*
X38846Y145408D01*
X39050Y145899D01*
X39193Y146246D01*
X39312Y147146D01*
Y153543D01*
X39306Y153590D01*
Y157480D01*
X32625D01*
X32369Y157480D01*
X32231Y157817D01*
Y158465D01*
X26975D01*
Y153543D01*
Y148622D01*
X31896D01*
X32090Y148228D01*
X31814Y147869D01*
X31719Y147638D01*
X30394D01*
Y137795D01*
X31353D01*
Y135000D01*
X27475D01*
X27087Y135671D01*
X26537Y136221D01*
X25864Y136610D01*
X25113Y136811D01*
X24336D01*
X23585Y136610D01*
X22911Y136221D01*
X22362Y135671D01*
X21974Y135000D01*
X18307D01*
Y156980D01*
Y157372D01*
X18215Y157833D01*
X17915Y158556D01*
X17654Y158947D01*
X17100Y159501D01*
X16710Y159762D01*
X15986Y160061D01*
X15525Y160153D01*
X14742D01*
X14281Y160061D01*
X13558Y159762D01*
X13167Y159501D01*
X12614Y158947D01*
X12353Y158556D01*
X12053Y157833D01*
X11961Y157372D01*
Y156980D01*
Y135000D01*
X8141D01*
Y137795D01*
X9100D01*
Y142983D01*
X9129Y143209D01*
Y144694D01*
X9678Y145408D01*
X10025Y146246D01*
X10143Y147146D01*
Y153543D01*
X10137Y153590D01*
Y157480D01*
X3456D01*
X3200Y157480D01*
X3062Y157817D01*
Y158465D01*
X-2194D01*
Y153543D01*
Y148622D01*
X2727D01*
X2921Y148228D01*
X2646Y147869D01*
X2550Y147638D01*
X1226D01*
Y137795D01*
X2184D01*
Y135000D01*
X-1659D01*
X-2047Y135671D01*
X-2596Y136221D01*
X-3270Y136610D01*
X-4021Y136811D01*
X-4798D01*
X-5549Y136610D01*
X-6222Y136221D01*
X-6772Y135671D01*
X-7160Y135000D01*
X-10827D01*
Y157480D01*
Y157872D01*
X-10919Y158333D01*
X-11219Y159056D01*
X-11480Y159447D01*
X-12033Y160001D01*
X-12424Y160262D01*
X-13148Y160561D01*
X-13608Y160653D01*
X-14392D01*
X-14852Y160561D01*
X-15576Y160262D01*
X-15967Y160001D01*
X-16520Y159447D01*
X-16781Y159056D01*
X-17081Y158333D01*
X-17173Y157872D01*
Y157480D01*
Y135000D01*
X-21028D01*
Y137795D01*
X-20069D01*
Y142983D01*
X-20039Y143209D01*
Y144694D01*
X-19491Y145408D01*
X-19288Y145899D01*
X-19144Y146246D01*
X-19025Y147146D01*
Y153543D01*
X-19031Y153590D01*
Y157480D01*
X-25713D01*
X-25969Y157480D01*
X-26106Y157817D01*
Y158465D01*
X-31362D01*
Y153543D01*
Y148622D01*
X-26441D01*
X-26247Y148228D01*
X-26523Y147869D01*
X-26619Y147638D01*
X-27943D01*
Y137795D01*
X-26984D01*
Y135000D01*
X-30793D01*
X-31181Y135671D01*
X-31730Y136221D01*
X-32404Y136610D01*
X-33155Y136811D01*
X-33932D01*
X-34683Y136610D01*
X-35356Y136221D01*
X-35906Y135671D01*
X-36294Y135000D01*
X-42894D01*
Y164764D01*
X-20866D01*
Y187992D01*
X-42894D01*
Y219469D01*
X73209D01*
Y187992D01*
D02*
G37*
G36*
X73209Y807D02*
X68898D01*
X68873Y802D01*
X68848Y805D01*
X68540Y790D01*
X68468Y772D01*
X68393D01*
X67788Y652D01*
X67696Y614D01*
X67599Y595D01*
X67029Y358D01*
X66947Y303D01*
X66855Y266D01*
X66342Y-77D01*
X66272Y-147D01*
X66190Y-202D01*
X65753Y-639D01*
X65698Y-721D01*
X65629Y-791D01*
X65286Y-1304D01*
X65248Y-1396D01*
X65193Y-1478D01*
X65003Y-1936D01*
X43720D01*
Y-945D01*
X43885Y-781D01*
X44094Y-274D01*
Y274D01*
X43885Y781D01*
X43497Y1168D01*
X42991Y1378D01*
X42442D01*
X41936Y1168D01*
X41548Y781D01*
X41339Y274D01*
Y-274D01*
X41548Y-781D01*
X41713Y-945D01*
Y-1936D01*
X40571D01*
Y-945D01*
X40735Y-781D01*
X40945Y-274D01*
Y274D01*
X40735Y781D01*
X40347Y1168D01*
X39841Y1378D01*
X39293D01*
X38786Y1168D01*
X38399Y781D01*
X38189Y274D01*
Y-274D01*
X38399Y-781D01*
X38563Y-945D01*
Y-1936D01*
X37421D01*
Y-945D01*
X37585Y-781D01*
X37795Y-274D01*
Y274D01*
X37585Y781D01*
X37198Y1168D01*
X36691Y1378D01*
X36143D01*
X35637Y1168D01*
X35249Y781D01*
X35039Y274D01*
Y-274D01*
X35249Y-781D01*
X35414Y-945D01*
Y-1936D01*
X34271D01*
Y-945D01*
X34436Y-781D01*
X34646Y-274D01*
Y274D01*
X34436Y781D01*
X34048Y1168D01*
X33542Y1378D01*
X32994D01*
X32487Y1168D01*
X32100Y781D01*
X31890Y274D01*
Y-274D01*
X32100Y-781D01*
X32264Y-945D01*
Y-1936D01*
X31122D01*
Y-945D01*
X31286Y-781D01*
X31496Y-274D01*
Y274D01*
X31286Y781D01*
X30899Y1168D01*
X30392Y1378D01*
X29844D01*
X29338Y1168D01*
X28950Y781D01*
X28740Y274D01*
Y-274D01*
X28950Y-781D01*
X29115Y-945D01*
Y-1936D01*
X27972D01*
Y-945D01*
X28137Y-781D01*
X28346Y-274D01*
Y274D01*
X28137Y781D01*
X27749Y1168D01*
X27243Y1378D01*
X26694D01*
X26188Y1168D01*
X25800Y781D01*
X25591Y274D01*
Y-274D01*
X25800Y-781D01*
X25965Y-945D01*
Y-1936D01*
X24822D01*
Y-945D01*
X24987Y-781D01*
X25197Y-274D01*
Y274D01*
X24987Y781D01*
X24599Y1168D01*
X24093Y1378D01*
X23545D01*
X23038Y1168D01*
X22651Y781D01*
X22441Y274D01*
Y-274D01*
X22651Y-781D01*
X22815Y-945D01*
Y-1936D01*
X21673D01*
Y-945D01*
X21837Y-781D01*
X22047Y-274D01*
Y274D01*
X21837Y781D01*
X21450Y1168D01*
X20943Y1378D01*
X20395D01*
X19889Y1168D01*
X19501Y781D01*
X19291Y274D01*
Y-274D01*
X19501Y-781D01*
X19666Y-945D01*
Y-1936D01*
X3956D01*
Y0D01*
X3950Y33D01*
X3954Y66D01*
X3929Y451D01*
X3903Y546D01*
X3897Y645D01*
X3697Y1390D01*
X3639Y1508D01*
X3597Y1632D01*
X3212Y2299D01*
X3125Y2398D01*
X3052Y2507D01*
X2507Y3052D01*
X2398Y3125D01*
X2299Y3212D01*
X1632Y3597D01*
X1507Y3639D01*
X1390Y3697D01*
X645Y3897D01*
X514Y3905D01*
X385Y3931D01*
X-385D01*
X-514Y3905D01*
X-645Y3897D01*
X-1390Y3697D01*
X-1508Y3639D01*
X-1632Y3597D01*
X-2299Y3212D01*
X-2398Y3125D01*
X-2507Y3052D01*
X-3052Y2507D01*
X-3125Y2398D01*
X-3212Y2299D01*
X-3597Y1632D01*
X-3639Y1507D01*
X-3697Y1390D01*
X-3897Y645D01*
X-3903Y546D01*
X-3929Y451D01*
X-3954Y66D01*
X-3950Y33D01*
X-3956Y0D01*
Y-1936D01*
X-19272D01*
Y-1413D01*
X-19259Y-1382D01*
X-19258Y-1278D01*
X-19251Y-1105D01*
X-19238Y-978D01*
X-19232Y-944D01*
X-19227Y-924D01*
X-19223Y-916D01*
X-19223Y-911D01*
X-19219Y-898D01*
X-19219Y-892D01*
X-19107Y-781D01*
X-18898Y-274D01*
Y274D01*
X-19107Y781D01*
X-19495Y1168D01*
X-20001Y1378D01*
X-20550D01*
X-21056Y1168D01*
X-21444Y781D01*
X-21654Y274D01*
Y-274D01*
X-21444Y-781D01*
X-21332Y-892D01*
X-21333Y-898D01*
X-21328Y-911D01*
X-21328Y-916D01*
X-21324Y-924D01*
X-21319Y-944D01*
X-21314Y-971D01*
X-21293Y-1283D01*
X-21292Y-1382D01*
X-21279Y-1413D01*
Y-1936D01*
X-34688D01*
X-34878Y-1478D01*
X-34933Y-1396D01*
X-34971Y-1304D01*
X-35314Y-791D01*
X-35383Y-721D01*
X-35438Y-639D01*
X-35875Y-202D01*
X-35957Y-147D01*
X-36027Y-77D01*
X-36540Y266D01*
X-36632Y303D01*
X-36714Y358D01*
X-37284Y595D01*
X-37381Y614D01*
X-37473Y652D01*
X-38078Y772D01*
X-38153D01*
X-38225Y790D01*
X-38533Y805D01*
X-38558Y802D01*
X-38583Y807D01*
X-42894D01*
Y56000D01*
X-16972D01*
Y39370D01*
Y38978D01*
X-16896Y38594D01*
X-16596Y37871D01*
X-16378Y37545D01*
X-15825Y36992D01*
X-15499Y36774D01*
X-14776Y36474D01*
X-14392Y36398D01*
X-13608D01*
X-13224Y36474D01*
X-12501Y36774D01*
X-12175Y36992D01*
X-11622Y37545D01*
X-11404Y37871D01*
X-11104Y38594D01*
X-11028Y38978D01*
Y39370D01*
Y56000D01*
X12162D01*
Y38870D01*
Y38478D01*
X12238Y38094D01*
X12538Y37371D01*
X12755Y37045D01*
X13309Y36492D01*
X13635Y36274D01*
X14358Y35974D01*
X14742Y35898D01*
X15525D01*
X15909Y35974D01*
X16633Y36274D01*
X16959Y36492D01*
X17512Y37045D01*
X17730Y37371D01*
X18030Y38094D01*
X18106Y38478D01*
Y38870D01*
Y56000D01*
X41296D01*
Y39350D01*
Y38959D01*
X41372Y38575D01*
X41672Y37851D01*
X41889Y37526D01*
X42443Y36972D01*
X42769Y36754D01*
X43492Y36455D01*
X43876Y36378D01*
X44659D01*
X45043Y36455D01*
X45767Y36754D01*
X46092Y36972D01*
X46646Y37526D01*
X46864Y37851D01*
X47163Y38575D01*
X47240Y38959D01*
Y39350D01*
Y56000D01*
X73209D01*
Y807D01*
D02*
G37*
G36*
X-19605Y-727D02*
X-19622Y-761D01*
X-19637Y-804D01*
X-19650Y-857D01*
X-19660Y-920D01*
X-19676Y-1074D01*
X-19684Y-1267D01*
X-19685Y-1378D01*
X-20866D01*
X-20867Y-1267D01*
X-20891Y-920D01*
X-20902Y-857D01*
X-20914Y-804D01*
X-20929Y-761D01*
X-20946Y-727D01*
X-20965Y-703D01*
X-19587D01*
X-19605Y-727D01*
D02*
G37*
%LPC*%
G36*
X-28760Y203839D02*
X-28768D01*
Y201181D01*
X-26110D01*
Y201189D01*
X-26318Y201965D01*
X-26720Y202661D01*
X-27288Y203229D01*
X-27984Y203631D01*
X-28760Y203839D01*
D02*
G37*
G36*
X62472D02*
X59815D01*
Y201181D01*
X62472D01*
Y203839D01*
D02*
G37*
G36*
X59027D02*
X56370D01*
Y201181D01*
X59027D01*
Y203839D01*
D02*
G37*
G36*
X-29555D02*
X-29563D01*
X-30339Y203631D01*
X-31035Y203229D01*
X-31603Y202661D01*
X-32005Y201965D01*
X-32213Y201189D01*
Y201181D01*
X-29555D01*
Y203839D01*
D02*
G37*
G36*
X62472Y200394D02*
X59815D01*
Y197736D01*
X62472D01*
Y200394D01*
D02*
G37*
G36*
X59027D02*
X56370D01*
Y197736D01*
X59027D01*
Y200394D01*
D02*
G37*
G36*
X-26110D02*
X-28768D01*
Y197736D01*
X-28760D01*
X-27984Y197944D01*
X-27288Y198346D01*
X-26720Y198914D01*
X-26318Y199610D01*
X-26110Y200386D01*
Y200394D01*
D02*
G37*
G36*
X-29555D02*
X-32213D01*
Y200386D01*
X-32005Y199610D01*
X-31603Y198914D01*
X-31035Y198346D01*
X-30339Y197944D01*
X-29563Y197736D01*
X-29555D01*
Y200394D01*
D02*
G37*
G36*
X50188Y205413D02*
X48970D01*
X47793Y205098D01*
X46738Y204489D01*
X45877Y203628D01*
X45268Y202573D01*
X44953Y201396D01*
Y200178D01*
X45268Y199002D01*
X45877Y197947D01*
X46738Y197086D01*
X47793Y196477D01*
X48970Y196161D01*
X50188D01*
X51364Y196477D01*
X52419Y197086D01*
X53280Y197947D01*
X53890Y199002D01*
X54205Y200178D01*
Y201396D01*
X53890Y202573D01*
X53280Y203628D01*
X52419Y204489D01*
X51364Y205098D01*
X50188Y205413D01*
D02*
G37*
G36*
X40345D02*
X39127D01*
X37951Y205098D01*
X36896Y204489D01*
X36035Y203628D01*
X35425Y202573D01*
X35110Y201396D01*
Y200178D01*
X35425Y199002D01*
X36035Y197947D01*
X36896Y197086D01*
X37951Y196477D01*
X39127Y196161D01*
X40345D01*
X41522Y196477D01*
X42577Y197086D01*
X43438Y197947D01*
X44047Y199002D01*
X44362Y200178D01*
Y201396D01*
X44047Y202573D01*
X43438Y203628D01*
X42577Y204489D01*
X41522Y205098D01*
X40345Y205413D01*
D02*
G37*
G36*
X30503D02*
X29285D01*
X28108Y205098D01*
X27053Y204489D01*
X26192Y203628D01*
X25583Y202573D01*
X25268Y201396D01*
Y200178D01*
X25583Y199002D01*
X26192Y197947D01*
X27053Y197086D01*
X28108Y196477D01*
X29285Y196161D01*
X30503D01*
X31679Y196477D01*
X32734Y197086D01*
X33595Y197947D01*
X34204Y199002D01*
X34520Y200178D01*
Y201396D01*
X34204Y202573D01*
X33595Y203628D01*
X32734Y204489D01*
X31679Y205098D01*
X30503Y205413D01*
D02*
G37*
G36*
X20660D02*
X19442D01*
X18266Y205098D01*
X17211Y204489D01*
X16350Y203628D01*
X15741Y202573D01*
X15425Y201396D01*
Y200178D01*
X15741Y199002D01*
X16350Y197947D01*
X17211Y197086D01*
X18266Y196477D01*
X19442Y196161D01*
X20660D01*
X21837Y196477D01*
X22892Y197086D01*
X23753Y197947D01*
X24362Y199002D01*
X24677Y200178D01*
Y201396D01*
X24362Y202573D01*
X23753Y203628D01*
X22892Y204489D01*
X21837Y205098D01*
X20660Y205413D01*
D02*
G37*
G36*
X10818D02*
X9600D01*
X8423Y205098D01*
X7368Y204489D01*
X6507Y203628D01*
X5898Y202573D01*
X5583Y201396D01*
Y200178D01*
X5898Y199002D01*
X6507Y197947D01*
X7368Y197086D01*
X8423Y196477D01*
X9600Y196161D01*
X10818D01*
X11994Y196477D01*
X13049Y197086D01*
X13910Y197947D01*
X14519Y199002D01*
X14835Y200178D01*
Y201396D01*
X14519Y202573D01*
X13910Y203628D01*
X13049Y204489D01*
X11994Y205098D01*
X10818Y205413D01*
D02*
G37*
G36*
X975D02*
X-243D01*
X-1419Y205098D01*
X-2474Y204489D01*
X-3336Y203628D01*
X-3945Y202573D01*
X-4260Y201396D01*
Y200178D01*
X-3945Y199002D01*
X-3336Y197947D01*
X-2474Y197086D01*
X-1419Y196477D01*
X-243Y196161D01*
X975D01*
X2152Y196477D01*
X3207Y197086D01*
X4068Y197947D01*
X4677Y199002D01*
X4992Y200178D01*
Y201396D01*
X4677Y202573D01*
X4068Y203628D01*
X3207Y204489D01*
X2152Y205098D01*
X975Y205413D01*
D02*
G37*
G36*
X-8867D02*
X-10085D01*
X-11262Y205098D01*
X-12317Y204489D01*
X-13178Y203628D01*
X-13787Y202573D01*
X-14102Y201396D01*
Y200178D01*
X-13787Y199002D01*
X-13178Y197947D01*
X-12317Y197086D01*
X-11262Y196477D01*
X-10085Y196161D01*
X-8867D01*
X-7691Y196477D01*
X-6636Y197086D01*
X-5775Y197947D01*
X-5166Y199002D01*
X-4850Y200178D01*
Y201396D01*
X-5166Y202573D01*
X-5775Y203628D01*
X-6636Y204489D01*
X-7691Y205098D01*
X-8867Y205413D01*
D02*
G37*
G36*
X-18710D02*
X-19928D01*
X-21104Y205098D01*
X-22159Y204489D01*
X-23021Y203628D01*
X-23630Y202573D01*
X-23945Y201396D01*
Y200178D01*
X-23630Y199002D01*
X-23021Y197947D01*
X-22159Y197086D01*
X-21104Y196477D01*
X-19928Y196161D01*
X-18710D01*
X-17533Y196477D01*
X-16478Y197086D01*
X-15617Y197947D01*
X-15008Y199002D01*
X-14693Y200178D01*
Y201396D01*
X-15008Y202573D01*
X-15617Y203628D01*
X-16478Y204489D01*
X-17533Y205098D01*
X-18710Y205413D01*
D02*
G37*
G36*
X55356Y158465D02*
X50100D01*
Y153937D01*
X55356D01*
Y158465D01*
D02*
G37*
G36*
X26188D02*
X20932D01*
Y153937D01*
X26188D01*
Y158465D01*
D02*
G37*
G36*
X-2981D02*
X-8237D01*
Y153937D01*
X-2981D01*
Y158465D01*
D02*
G37*
G36*
X-32150D02*
X-37405D01*
Y153937D01*
X-32150D01*
Y158465D01*
D02*
G37*
G36*
X55356Y153150D02*
X50100D01*
Y148622D01*
X55356D01*
Y153150D01*
D02*
G37*
G36*
X26188D02*
X20932D01*
Y148622D01*
X26188D01*
Y153150D01*
D02*
G37*
G36*
X-2981D02*
X-8237D01*
Y148622D01*
X-2981D01*
Y153150D01*
D02*
G37*
G36*
X-32150D02*
X-37405D01*
Y148622D01*
X-32150D01*
Y153150D01*
D02*
G37*
G36*
X55862Y146063D02*
X53894D01*
Y143110D01*
X55862D01*
Y146063D01*
D02*
G37*
G36*
X53106D02*
X51138D01*
Y143110D01*
X53106D01*
Y146063D01*
D02*
G37*
G36*
X26693D02*
X24725D01*
Y143110D01*
X26693D01*
Y146063D01*
D02*
G37*
G36*
X23938D02*
X21969D01*
Y143110D01*
X23938D01*
Y146063D01*
D02*
G37*
G36*
X-2475D02*
X-4444D01*
Y143110D01*
X-2475D01*
Y146063D01*
D02*
G37*
G36*
X-5231D02*
X-7199D01*
Y143110D01*
X-5231D01*
Y146063D01*
D02*
G37*
G36*
X-31644D02*
X-33612D01*
Y143110D01*
X-31644D01*
Y146063D01*
D02*
G37*
G36*
X-34400D02*
X-36368D01*
Y143110D01*
X-34400D01*
Y146063D01*
D02*
G37*
G36*
X55862Y142323D02*
X53894D01*
Y139370D01*
X55862D01*
Y142323D01*
D02*
G37*
G36*
X53106D02*
X51138D01*
Y139370D01*
X53106D01*
Y142323D01*
D02*
G37*
G36*
X26693D02*
X24725D01*
Y139370D01*
X26693D01*
Y142323D01*
D02*
G37*
G36*
X23938D02*
X21969D01*
Y139370D01*
X23938D01*
Y142323D01*
D02*
G37*
G36*
X-2475D02*
X-4444D01*
Y139370D01*
X-2475D01*
Y142323D01*
D02*
G37*
G36*
X-5231D02*
X-7199D01*
Y139370D01*
X-5231D01*
Y142323D01*
D02*
G37*
G36*
X-31644D02*
X-33612D01*
Y139370D01*
X-31644D01*
Y142323D01*
D02*
G37*
G36*
X-34400D02*
X-36368D01*
Y139370D01*
X-34400D01*
Y142323D01*
D02*
G37*
G36*
X36300Y52559D02*
X34725D01*
Y50591D01*
X36300D01*
Y52559D01*
D02*
G37*
G36*
X33938D02*
X32363D01*
Y50591D01*
X33938D01*
Y52559D01*
D02*
G37*
G36*
X7131D02*
X5556D01*
Y50590D01*
X7131D01*
Y52559D01*
D02*
G37*
G36*
X4769D02*
X3194D01*
Y50590D01*
X4769D01*
Y52559D01*
D02*
G37*
G36*
X-22037D02*
X-23612D01*
Y50590D01*
X-22037D01*
Y52559D01*
D02*
G37*
G36*
X-24400D02*
X-25974D01*
Y50590D01*
X-24400D01*
Y52559D01*
D02*
G37*
G36*
X65469D02*
X63894D01*
Y50590D01*
X65469D01*
Y52559D01*
D02*
G37*
G36*
X63106D02*
X61532D01*
Y50590D01*
X63106D01*
Y52559D01*
D02*
G37*
G36*
X65469Y49803D02*
X63894D01*
Y47835D01*
X65469D01*
Y49803D01*
D02*
G37*
G36*
X63106D02*
X61532D01*
Y47835D01*
X63106D01*
Y49803D01*
D02*
G37*
G36*
X36300Y49803D02*
X34725D01*
Y47835D01*
X36300D01*
Y49803D01*
D02*
G37*
G36*
X33938D02*
X32363D01*
Y47835D01*
X33938D01*
Y49803D01*
D02*
G37*
G36*
X7131Y49803D02*
X5556D01*
Y47835D01*
X7131D01*
Y49803D01*
D02*
G37*
G36*
X4769D02*
X3194D01*
Y47835D01*
X4769D01*
Y49803D01*
D02*
G37*
G36*
X-22037Y49803D02*
X-23612D01*
Y47835D01*
X-22037D01*
Y49803D01*
D02*
G37*
G36*
X-24400D02*
X-25974D01*
Y47835D01*
X-24400D01*
Y49803D01*
D02*
G37*
G36*
X55468Y52559D02*
X51531D01*
Y47835D01*
X52095D01*
Y46319D01*
X52083D01*
Y43681D01*
X53067D01*
X53500Y43595D01*
X58500D01*
X58933Y43681D01*
X59917D01*
Y43935D01*
X60311Y44098D01*
X60578Y43832D01*
X61084Y43622D01*
X61632D01*
X62139Y43832D01*
X62526Y44219D01*
X62736Y44726D01*
Y45274D01*
X62526Y45781D01*
X62139Y46168D01*
X61632Y46378D01*
X61084D01*
X60578Y46168D01*
X60311Y45901D01*
X59917Y46064D01*
Y46319D01*
X58933D01*
X58500Y46405D01*
X54905D01*
Y47835D01*
X55468D01*
Y52559D01*
D02*
G37*
G36*
X26300D02*
X22363D01*
Y47835D01*
X22926D01*
Y46319D01*
X22914D01*
Y43681D01*
X23899D01*
X24331Y43595D01*
X29331D01*
X29764Y43681D01*
X30749D01*
Y44012D01*
X31142Y44133D01*
X31444Y43832D01*
X31950Y43622D01*
X32498D01*
X33005Y43832D01*
X33393Y44219D01*
X33602Y44726D01*
Y45274D01*
X33393Y45781D01*
X33005Y46168D01*
X32498Y46378D01*
X31950D01*
X31444Y46168D01*
X31142Y45867D01*
X30749Y45989D01*
Y46319D01*
X29764D01*
X29331Y46405D01*
X25736D01*
Y47835D01*
X26300D01*
Y52559D01*
D02*
G37*
G36*
X-2869D02*
X-6806D01*
Y47835D01*
X-6242D01*
Y46319D01*
X-6255D01*
Y43681D01*
X-5270D01*
X-4837Y43595D01*
X163D01*
X595Y43681D01*
X1580D01*
Y44047D01*
X1731Y44123D01*
X1974Y44168D01*
X2310Y43832D01*
X2816Y43622D01*
X3365D01*
X3871Y43832D01*
X4259Y44219D01*
X4468Y44726D01*
Y45274D01*
X4259Y45781D01*
X3871Y46168D01*
X3365Y46378D01*
X2816D01*
X2310Y46168D01*
X1974Y45832D01*
X1731Y45877D01*
X1580Y45953D01*
Y46319D01*
X595D01*
X163Y46405D01*
X-3432D01*
Y47835D01*
X-2869D01*
Y52559D01*
D02*
G37*
G36*
X-32037D02*
X-35974D01*
Y47835D01*
X-35411D01*
Y46319D01*
X-35423D01*
Y43681D01*
X-34438D01*
X-34006Y43595D01*
X-29006D01*
X-28573Y43681D01*
X-27589D01*
Y44101D01*
X-27281Y44198D01*
X-27195Y44203D01*
X-26824Y43832D01*
X-26317Y43622D01*
X-25769D01*
X-25263Y43832D01*
X-24875Y44219D01*
X-24665Y44726D01*
Y45274D01*
X-24875Y45781D01*
X-25263Y46168D01*
X-25769Y46378D01*
X-26317D01*
X-26824Y46168D01*
X-27195Y45797D01*
X-27281Y45802D01*
X-27589Y45899D01*
Y46319D01*
X-28573D01*
X-29006Y46405D01*
X-32601D01*
Y47835D01*
X-32037D01*
Y52559D01*
D02*
G37*
G36*
X59917Y42933D02*
X58894D01*
Y42008D01*
X59917D01*
Y42933D01*
D02*
G37*
G36*
X58106D02*
X57083D01*
Y42008D01*
X58106D01*
Y42933D01*
D02*
G37*
G36*
X-27589D02*
X-28612D01*
Y42008D01*
X-27589D01*
Y42933D01*
D02*
G37*
G36*
X-29400D02*
X-30423D01*
Y42008D01*
X-29400D01*
Y42933D01*
D02*
G37*
G36*
X1580D02*
X556D01*
Y42008D01*
X1580D01*
Y42933D01*
D02*
G37*
G36*
X-231D02*
X-1255D01*
Y42008D01*
X-231D01*
Y42933D01*
D02*
G37*
G36*
X30749D02*
X29725D01*
Y42008D01*
X30749D01*
Y42933D01*
D02*
G37*
G36*
X28938D02*
X27914D01*
Y42008D01*
X28938D01*
Y42933D01*
D02*
G37*
G36*
X59917Y41221D02*
X58894D01*
Y40295D01*
X59917D01*
Y41221D01*
D02*
G37*
G36*
X58106D02*
X57083D01*
Y40295D01*
X58106D01*
Y41221D01*
D02*
G37*
G36*
X30749Y41220D02*
X29725D01*
Y40295D01*
X30749D01*
Y41220D01*
D02*
G37*
G36*
X28938D02*
X27914D01*
Y40295D01*
X28938D01*
Y41220D01*
D02*
G37*
G36*
X1580Y41221D02*
X556D01*
Y40295D01*
X1580D01*
Y41221D01*
D02*
G37*
G36*
X-231D02*
X-1255D01*
Y40295D01*
X-231D01*
Y41221D01*
D02*
G37*
G36*
X-27589Y41221D02*
X-28612D01*
Y40295D01*
X-27589D01*
Y41221D01*
D02*
G37*
G36*
X-29400D02*
X-30423D01*
Y40295D01*
X-29400D01*
Y41221D01*
D02*
G37*
G36*
X54917Y42933D02*
X52083D01*
Y40295D01*
X52391D01*
X52453Y39902D01*
X52332Y39781D01*
X52122Y39274D01*
Y38726D01*
X52332Y38219D01*
X52719Y37832D01*
X53226Y37622D01*
X53774D01*
X54281Y37832D01*
X54668Y38219D01*
X54878Y38726D01*
Y39274D01*
X54668Y39781D01*
X54547Y39902D01*
X54609Y40295D01*
X54917D01*
Y42933D01*
D02*
G37*
G36*
X25749D02*
X22914D01*
Y40295D01*
X23223D01*
X23284Y39902D01*
X23163Y39781D01*
X22953Y39274D01*
Y38726D01*
X23163Y38219D01*
X23551Y37832D01*
X24057Y37622D01*
X24605D01*
X25112Y37832D01*
X25499Y38219D01*
X25709Y38726D01*
Y39274D01*
X25499Y39781D01*
X25379Y39902D01*
X25440Y40295D01*
X25749D01*
Y42933D01*
D02*
G37*
G36*
X-3420D02*
X-6255D01*
Y40295D01*
X-5946D01*
X-5884Y39902D01*
X-6005Y39781D01*
X-6215Y39274D01*
Y38726D01*
X-6005Y38219D01*
X-5618Y37832D01*
X-5111Y37622D01*
X-4563D01*
X-4057Y37832D01*
X-3669Y38219D01*
X-3459Y38726D01*
Y39274D01*
X-3669Y39781D01*
X-3790Y39902D01*
X-3729Y40295D01*
X-3420D01*
Y42933D01*
D02*
G37*
G36*
X-32589D02*
X-35423D01*
Y40295D01*
X-35115D01*
X-35053Y39902D01*
X-35174Y39781D01*
X-35384Y39274D01*
Y38726D01*
X-35174Y38219D01*
X-34786Y37832D01*
X-34280Y37622D01*
X-33732D01*
X-33225Y37832D01*
X-32838Y38219D01*
X-32628Y38726D01*
Y39274D01*
X-32838Y39781D01*
X-32959Y39902D01*
X-32897Y40295D01*
X-32589D01*
Y42933D01*
D02*
G37*
G36*
X59132Y17126D02*
X58584D01*
X58078Y16916D01*
X57690Y16529D01*
X57480Y16022D01*
Y15474D01*
X57690Y14967D01*
X58078Y14580D01*
X58584Y14370D01*
X59132D01*
X59639Y14580D01*
X60026Y14967D01*
X60236Y15474D01*
Y16022D01*
X60026Y16529D01*
X59639Y16916D01*
X59132Y17126D01*
D02*
G37*
G36*
X46646D02*
X46098D01*
X45592Y16916D01*
X45204Y16529D01*
X44994Y16022D01*
Y15474D01*
X45204Y14967D01*
X45592Y14580D01*
X46098Y14370D01*
X46646D01*
X47153Y14580D01*
X47541Y14967D01*
X47750Y15474D01*
Y16022D01*
X47541Y16529D01*
X47153Y16916D01*
X46646Y17126D01*
D02*
G37*
G36*
X34161D02*
X33612D01*
X33106Y16916D01*
X32718Y16529D01*
X32508Y16022D01*
Y15474D01*
X32718Y14967D01*
X33106Y14580D01*
X33612Y14370D01*
X34161D01*
X34667Y14580D01*
X35055Y14967D01*
X35264Y15474D01*
Y16022D01*
X35055Y16529D01*
X34667Y16916D01*
X34161Y17126D01*
D02*
G37*
G36*
X21675D02*
X21126D01*
X20620Y16916D01*
X20232Y16529D01*
X20022Y16022D01*
Y15474D01*
X20232Y14967D01*
X20620Y14580D01*
X21126Y14370D01*
X21675D01*
X22181Y14580D01*
X22569Y14967D01*
X22778Y15474D01*
Y16022D01*
X22569Y16529D01*
X22181Y16916D01*
X21675Y17126D01*
D02*
G37*
G36*
X9189D02*
X8640D01*
X8134Y16916D01*
X7746Y16529D01*
X7537Y16022D01*
Y15474D01*
X7746Y14967D01*
X8134Y14580D01*
X8640Y14370D01*
X9189D01*
X9695Y14580D01*
X10083Y14967D01*
X10293Y15474D01*
Y16022D01*
X10083Y16529D01*
X9695Y16916D01*
X9189Y17126D01*
D02*
G37*
G36*
X-3297D02*
X-3845D01*
X-4352Y16916D01*
X-4740Y16529D01*
X-4949Y16022D01*
Y15474D01*
X-4740Y14967D01*
X-4352Y14580D01*
X-3845Y14370D01*
X-3297D01*
X-2791Y14580D01*
X-2403Y14967D01*
X-2193Y15474D01*
Y16022D01*
X-2403Y16529D01*
X-2791Y16916D01*
X-3297Y17126D01*
D02*
G37*
G36*
X-15783D02*
X-16331D01*
X-16838Y16916D01*
X-17225Y16529D01*
X-17435Y16022D01*
Y15474D01*
X-17225Y14967D01*
X-16838Y14580D01*
X-16331Y14370D01*
X-15783D01*
X-15277Y14580D01*
X-14889Y14967D01*
X-14679Y15474D01*
Y16022D01*
X-14889Y16529D01*
X-15277Y16916D01*
X-15783Y17126D01*
D02*
G37*
G36*
X-28269D02*
X-28817D01*
X-29324Y16916D01*
X-29711Y16529D01*
X-29921Y16022D01*
Y15474D01*
X-29711Y14967D01*
X-29324Y14580D01*
X-28817Y14370D01*
X-28269D01*
X-27763Y14580D01*
X-27375Y14967D01*
X-27165Y15474D01*
Y16022D01*
X-27375Y16529D01*
X-27763Y16916D01*
X-28269Y17126D01*
D02*
G37*
%LPD*%
D13*
X65006Y153543D02*
D03*
X35837D02*
D03*
X6669D02*
D03*
X-22500D02*
D03*
D14*
X53500Y117126D02*
D03*
X63500D02*
D03*
Y142717D02*
D03*
X53500D02*
D03*
X24331Y117126D02*
D03*
X34331D02*
D03*
Y142717D02*
D03*
X24331D02*
D03*
X-4837Y117126D02*
D03*
X5163D02*
D03*
Y142717D02*
D03*
X-4837D02*
D03*
X-34006D02*
D03*
X-24006D02*
D03*
Y117126D02*
D03*
X-34006D02*
D03*
D15*
X63500Y109980D02*
D03*
Y102618D02*
D03*
Y98169D02*
D03*
Y90807D02*
D03*
X53500Y109980D02*
D03*
Y102618D02*
D03*
Y98169D02*
D03*
Y90807D02*
D03*
X34331Y102618D02*
D03*
Y109980D02*
D03*
Y90807D02*
D03*
Y98169D02*
D03*
X24331Y90807D02*
D03*
Y98169D02*
D03*
Y109980D02*
D03*
Y102618D02*
D03*
X5163D02*
D03*
Y109980D02*
D03*
Y90807D02*
D03*
Y98169D02*
D03*
X-4837Y90807D02*
D03*
Y98169D02*
D03*
Y102618D02*
D03*
Y109980D02*
D03*
X-24006Y102618D02*
D03*
Y109980D02*
D03*
X-34006Y102618D02*
D03*
Y109980D02*
D03*
X-24006Y90807D02*
D03*
Y98169D02*
D03*
X-34006Y90807D02*
D03*
Y98169D02*
D03*
D16*
X64012Y82677D02*
D03*
X52988D02*
D03*
X34843D02*
D03*
X23820D02*
D03*
X5675D02*
D03*
X-5349D02*
D03*
X-34518D02*
D03*
X-23494D02*
D03*
D17*
X53500Y75787D02*
D03*
X63500D02*
D03*
Y50197D02*
D03*
X53500D02*
D03*
X24331Y75787D02*
D03*
X34331D02*
D03*
Y50197D02*
D03*
X24331D02*
D03*
X-4837Y75787D02*
D03*
X5163D02*
D03*
Y50197D02*
D03*
X-4837D02*
D03*
X-34006Y75787D02*
D03*
X-24006D02*
D03*
Y50197D02*
D03*
X-34006D02*
D03*
D18*
X53500Y45000D02*
D03*
Y41614D02*
D03*
X24331Y45000D02*
D03*
Y41614D02*
D03*
X163Y45000D02*
D03*
Y41614D02*
D03*
X-4837D02*
D03*
Y45000D02*
D03*
X-29006D02*
D03*
Y41614D02*
D03*
X-34006D02*
D03*
Y45000D02*
D03*
X29331Y41614D02*
D03*
Y45000D02*
D03*
X58500Y41614D02*
D03*
Y45000D02*
D03*
D34*
X55750Y153543D02*
D03*
X26581D02*
D03*
X-2587D02*
D03*
X-31756D02*
D03*
D35*
X61614Y-7283D02*
D03*
X58465D02*
D03*
X55315D02*
D03*
X52165D02*
D03*
X49016D02*
D03*
X45866D02*
D03*
X42717D02*
D03*
X39567D02*
D03*
X36417D02*
D03*
X33268D02*
D03*
X30118D02*
D03*
X26969D02*
D03*
X23819D02*
D03*
X20669D02*
D03*
X17520D02*
D03*
X14370D02*
D03*
X11220D02*
D03*
X8071D02*
D03*
X-7677D02*
D03*
X-10827D02*
D03*
X-13976D02*
D03*
X-17126D02*
D03*
X-20276D02*
D03*
X-23425D02*
D03*
X-26575D02*
D03*
X-29724D02*
D03*
D36*
X53500Y39000D02*
Y41614D01*
X24331Y39000D02*
Y41614D01*
X-4837Y39000D02*
Y41614D01*
X-34006Y39000D02*
Y41614D01*
X33268Y-7283D02*
Y0D01*
X30118Y-7283D02*
Y0D01*
X26969Y-7283D02*
Y0D01*
X42717Y-7283D02*
Y0D01*
X39567Y-7283D02*
Y0D01*
X36417Y-7283D02*
Y0D01*
X23819Y-7283D02*
Y0D01*
X20669Y-7283D02*
Y0D01*
X-20276Y-7283D02*
Y0D01*
D37*
X65006Y147146D02*
Y153543D01*
X63992Y146132D02*
X65006Y147146D01*
X63992Y143209D02*
Y146132D01*
X63500Y142717D02*
X63992Y143209D01*
X35837Y147146D02*
Y153543D01*
X34824Y146132D02*
X35837Y147146D01*
X34824Y143209D02*
Y146132D01*
X34331Y142717D02*
X34824Y143209D01*
X6669Y147146D02*
Y153543D01*
X5655Y146132D02*
X6669Y147146D01*
X5655Y143209D02*
Y146132D01*
X5163Y142717D02*
X5655Y143209D01*
X-24006Y142717D02*
X-23514Y143209D01*
Y146132D01*
X-22500Y147146D01*
Y153543D01*
D38*
X-24006Y133858D02*
Y142717D01*
X63500Y133858D02*
Y142717D01*
X34331Y133858D02*
Y142717D01*
X5163Y133858D02*
Y142717D01*
X56000Y45000D02*
X58500D01*
X53500D02*
X56000D01*
X26831D02*
X29331D01*
X24331D02*
X26831D01*
X-2337D02*
X163D01*
X-4837D02*
X-2337D01*
X-31506D02*
X-29006D01*
X-34006D02*
X-31506D01*
X53500D02*
Y50197D01*
X24331Y45000D02*
Y50197D01*
X-4837Y45000D02*
Y50197D01*
X-34006Y45000D02*
Y50197D01*
X63352Y75639D02*
X63500Y75787D01*
X53500D02*
Y76181D01*
X54090Y76772D01*
X55815D02*
X60778Y81735D01*
X63069D02*
X64012Y82677D01*
X54090Y76772D02*
X55815D01*
X60778Y81735D02*
X63069D01*
X63352Y72153D02*
Y75639D01*
X52043Y71000D02*
X62199D01*
X63352Y72153D01*
X49543Y73500D02*
Y79232D01*
Y73500D02*
X52043Y71000D01*
X49543Y79232D02*
X52988Y82677D01*
X63756Y82933D02*
Y90551D01*
X52988Y82677D02*
X53244Y82933D01*
Y90551D01*
X53500Y90807D01*
X63500D02*
X63756Y90551D01*
Y82933D02*
X64012Y82677D01*
X63500Y98169D02*
Y102618D01*
X53500Y98169D02*
Y102618D01*
X53500Y117126D02*
X53500Y117126D01*
X63500Y109980D02*
Y117126D01*
X63500Y117126D02*
X63500Y117126D01*
X53500Y109980D02*
Y117126D01*
X34183Y75639D02*
X34331Y75787D01*
X24331D02*
Y76181D01*
X24922Y76772D01*
X26646D02*
X31610Y81735D01*
X33901D02*
X34843Y82677D01*
X24922Y76772D02*
X26646D01*
X31610Y81735D02*
X33901D01*
X34183Y72153D02*
Y75639D01*
X22875Y71000D02*
X33030D01*
X34183Y72153D01*
X20375Y73500D02*
Y79232D01*
Y73500D02*
X22875Y71000D01*
X20375Y79232D02*
X23820Y82677D01*
X34587Y82933D02*
Y90551D01*
X23820Y82677D02*
X24076Y82933D01*
Y90551D01*
X24331Y90807D01*
X34331D02*
X34587Y90551D01*
Y82933D02*
X34843Y82677D01*
X34331Y98169D02*
Y102618D01*
X24331Y98169D02*
Y102618D01*
X24331Y117126D02*
X24331Y117126D01*
X34331Y109980D02*
Y117126D01*
X34331Y117126D02*
X34331Y117126D01*
X24331Y109980D02*
Y117126D01*
X5015Y75639D02*
X5163Y75787D01*
X-4837D02*
Y76181D01*
X-4247Y76772D01*
X-2522D02*
X2441Y81735D01*
X4732D02*
X5675Y82677D01*
X-4247Y76772D02*
X-2522D01*
X2441Y81735D02*
X4732D01*
X5015Y72153D02*
Y75639D01*
X-6294Y71000D02*
X3862D01*
X5015Y72153D01*
X-8794Y73500D02*
Y79232D01*
Y73500D02*
X-6294Y71000D01*
X-8794Y79232D02*
X-5349Y82677D01*
X5419Y82933D02*
Y90551D01*
X-5349Y82677D02*
X-5093Y82933D01*
Y90551D01*
X-4837Y90807D01*
X5163D02*
X5419Y90551D01*
Y82933D02*
X5675Y82677D01*
X5163Y98169D02*
Y102618D01*
X-4837Y98169D02*
Y102618D01*
X-4837Y117126D02*
X-4837Y117126D01*
X5163Y109980D02*
Y117126D01*
X5163Y117126D02*
X5163Y117126D01*
X-4837Y109980D02*
Y117126D01*
X-24154Y75639D02*
X-24006Y75787D01*
X-34006D02*
Y76181D01*
X-33415Y76772D01*
X-31691D02*
X-26728Y81735D01*
X-24436D02*
X-23494Y82677D01*
X-33415Y76772D02*
X-31691D01*
X-26728Y81735D02*
X-24436D01*
X-24154Y72153D02*
Y75639D01*
X-35463Y71000D02*
X-25307D01*
X-24154Y72153D01*
X-37963Y73500D02*
Y79232D01*
Y73500D02*
X-35463Y71000D01*
X-37963Y79232D02*
X-34518Y82677D01*
X-23750Y82933D02*
Y90551D01*
X-34518Y82677D02*
X-34262Y82933D01*
Y90551D01*
X-34006Y90807D01*
X-24006D02*
X-23750Y90551D01*
Y82933D02*
X-23494Y82677D01*
X-24006Y98169D02*
Y102618D01*
X-34006Y98169D02*
Y102618D01*
X-34006Y117126D02*
X-34006Y117126D01*
X-24006Y109980D02*
Y117126D01*
X-24006Y117126D02*
X-24006Y117126D01*
X-34006Y109980D02*
Y117126D01*
X8071Y-7283D02*
Y2559D01*
X17520Y-7283D02*
Y2559D01*
X45866Y-7283D02*
Y2559D01*
X52165Y-7283D02*
Y2559D01*
X61614Y-7283D02*
Y2559D01*
X-7677Y-7283D02*
Y2559D01*
D39*
X53500Y151293D02*
X55750Y153543D01*
X53500Y142717D02*
Y151293D01*
X24331D02*
X26581Y153543D01*
X24331Y142717D02*
Y151293D01*
X-4837D02*
X-2587Y153543D01*
X-4837Y142717D02*
Y151293D01*
X-34006Y142717D02*
Y151293D01*
X-31756Y153543D01*
D40*
X20051Y200787D02*
D03*
X29894D02*
D03*
X39736D02*
D03*
X49579D02*
D03*
X-19319D02*
D03*
X-9476D02*
D03*
X-29161D02*
D03*
X10209D02*
D03*
X366D02*
D03*
D41*
X59421D02*
D03*
D42*
X62795Y176378D02*
D03*
X-32480D02*
D03*
D43*
X-40500Y17717D02*
D03*
X-21724D02*
D03*
X-9353D02*
D03*
X3018D02*
D03*
X15388D02*
D03*
X27759D02*
D03*
X40129D02*
D03*
X52500D02*
D03*
X70500Y5906D02*
D03*
Y17717D02*
D03*
Y29528D02*
D03*
X49500Y41339D02*
D03*
X70500D02*
D03*
X39500D02*
D03*
X20000D02*
D03*
X10000D02*
D03*
X-9000D02*
D03*
X-19500D02*
D03*
X-40500D02*
D03*
Y53150D02*
D03*
X-19500D02*
D03*
X-9000D02*
D03*
X10000D02*
D03*
X20000D02*
D03*
X39500D02*
D03*
X70500D02*
D03*
X49500D02*
D03*
X53500Y39000D02*
D03*
X24331D02*
D03*
X-4837D02*
D03*
X-34006D02*
D03*
X-24006Y133858D02*
D03*
X-26043Y45000D02*
D03*
X63500Y133858D02*
D03*
X34331D02*
D03*
X5163D02*
D03*
X53858D02*
D03*
X24724D02*
D03*
X-4409D02*
D03*
X-33543D02*
D03*
X56000Y45000D02*
D03*
X26831D02*
D03*
X-2337D02*
D03*
X-31506D02*
D03*
X61358D02*
D03*
X32224D02*
D03*
X3091D02*
D03*
X-3571Y15748D02*
D03*
X33268Y0D02*
D03*
X30118D02*
D03*
X26969D02*
D03*
X58858Y15748D02*
D03*
X46372D02*
D03*
X33886D02*
D03*
X21400D02*
D03*
X8914D02*
D03*
X-16057D02*
D03*
X-28543D02*
D03*
X42717Y0D02*
D03*
X39567D02*
D03*
X36417D02*
D03*
X23819D02*
D03*
X20669D02*
D03*
X-20276D02*
D03*
M02*
